<?xml version="1.0" encoding="utf-8"?>
<!DOCTYPE svg PUBLIC "-//W3C//DTD SVG 1.1//EN" "http://www.w3.org/Graphics/SVG/1.1/DTD/svg11.dtd" [
	<!ENTITY ns_svg "http://www.w3.org/2000/svg">
	<!ENTITY ns_xlink "http://www.w3.org/1999/xlink">
]>
<svg  version="1.1" xmlns="&ns_svg;" xmlns:xlink="&ns_xlink;" width="128" height="128" viewBox="0 0 128 128"
	 overflow="visible" enable-background="new 0 0 128 128" xml:space="preserve">
	<linearGradient id="XMLID_8_" gradientUnits="userSpaceOnUse" x1="36.8374" y1="76.1973" x2="74.9624" y2="99.6973">
		<stop  offset="0.0056" style="stop-color:#999999"/>
		<stop  offset="1" style="stop-color:#666666"/>
	</linearGradient>
	<path fill="url(#XMLID_8_)" d="M85.415,77.809c-0.448-2.784-1.37-5.65-2.448-8.071c-0.054-0.147-0.125-0.304-0.218-0.472
		c-0.387-0.83-0.788-1.604-1.196-2.291c-0.63-1.451-1.082-3.149-1.082-5.322c0-10.081,0.825-12.492,2.266-13.932
		c2.596-2.596,3.842-6.606,1.2-9.248c-1.038-1.038-2.222-1.564-3.518-1.564c-1.665,0-3.448,0.903-5.154,2.61
		c-3.726,3.17-2.435,10.005-2.435,16.13c0,2.803-5.537,4.787-7.758,5.339c-6.477,0.027-24.893,1.029-30.881,9.795
		c-5.396,7.896-27.632,46.928-27.632,53.145c0,0.552,0.448,1,1,1c9.361,0,73.085-34.447,75.646-36.945
		C85.381,85.859,86.146,82.341,85.415,77.809z"/>
	<path opacity="0.25" fill="#454545" d="M33.365,71.219L33.365,71.219c-4.969,7.272-27.807,47.025-27.807,53.709
		c0,1.103,0.897,2,2,2c9.949,0,73.643-34.594,76.344-37.229c2.42-2.361,3.285-6.182,2.5-11.05
		c-1.012-6.277-4.489-13.44-7.156-14.741c-2.236-1.091-7.016-2.922-13.883-2.922C59.497,60.987,39.852,61.725,33.365,71.219z"/>
	<path opacity="0.3" fill="#454545" d="M34.191,71.783c-5.396,7.896-27.632,46.928-27.632,53.145c0,0.552,0.448,1,1,1
		c9.361,0,73.085-34.447,75.646-36.945c2.177-2.123,2.941-5.642,2.211-10.174c-1.007-6.244-4.384-12.918-6.606-14.001
		c-2.732-1.333-7.283-2.821-13.445-2.821C59.157,61.987,40.269,62.887,34.191,71.783z"/>
	<linearGradient id="XMLID_9_" gradientUnits="userSpaceOnUse" x1="92.2129" y1="17.688" x2="105.6696" y2="31.1447">
		<stop  offset="0.0618" style="stop-color:#497B23"/>
		<stop  offset="0.2197" style="stop-color:#416E1F"/>
		<stop  offset="0.4944" style="stop-color:#2D4D16"/>
		<stop  offset="1" style="stop-color:#497B23"/>
	</linearGradient>
	<path fill="url(#XMLID_9_)" d="M108.209,4.691L77.633,32.267c-1.316,1.317-2.043,3.075-2.043,4.95s0.727,3.632,2.043,4.95
		l2.25,2.25c2.729,2.729,7.171,2.729,9.9,0l29.483-28.484c2.729-2.729,3.405-6.846,0.675-9.575l-2.25-2.25
		C114.963,1.378,110.938,1.962,108.209,4.691z"/>
	<path opacity="0.05" fill="#454545" d="M105.828,19.401l-26.06,25.611c-1.123,1.224-1.741,2.856-1.741,4.597
		s0.618,3.374,1.741,4.597l1.917,2.089c2.326,2.535,8.322,0.572,10.648-1.963l22.92-24.491c2.326-2.535,2.902-6.358,0.575-8.893
		l-1.917-2.09C111.586,16.325,108.154,16.867,105.828,19.401z"/>
	<path opacity="0.05" fill="#454545" d="M105.828,16.324l-26.06,25.611c-1.123,1.224-1.741,2.856-1.741,4.597
		s0.618,3.374,1.741,4.598l1.917,2.089c2.326,2.535,8.322,0.572,10.648-1.963l22.92-24.492c2.326-2.535,2.902-6.358,0.575-8.893
		l-1.917-2.089C111.586,13.248,108.154,13.79,105.828,16.324z"/>
	
		<linearGradient id="XMLID_10_" gradientUnits="userSpaceOnUse" x1="-100.7417" y1="-21.0884" x2="-101.0357" y2="-7.4595" gradientTransform="matrix(0.7239 -0.7239 0.8946 0.8946 184.4581 -36.1385)">
		<stop  offset="0.1236" style="stop-color:#A2D671"/>
		<stop  offset="0.1946" style="stop-color:#97C967"/>
		<stop  offset="0.3272" style="stop-color:#78A54E"/>
		<stop  offset="0.5058" style="stop-color:#486C26"/>
		<stop  offset="0.5393" style="stop-color:#3E611E"/>
		<stop  offset="0.5841" style="stop-color:#426721"/>
		<stop  offset="0.6435" style="stop-color:#4E7828"/>
		<stop  offset="0.7111" style="stop-color:#619335"/>
		<stop  offset="0.7842" style="stop-color:#7CB947"/>
		<stop  offset="0.8315" style="stop-color:#90D654"/>
	</linearGradient>
	<path fill="url(#XMLID_10_)" d="M119.234,7.065c2.334,2.333,1.658,5.827-0.675,8.161L89.076,43.709
		c-2.334,2.333-6.152,2.333-8.486,0l-2.25-2.25c-2.333-2.333-2.333-6.152,0-8.485l30.576-27.576
		c2.334-2.333,5.735-2.917,8.068-0.583L119.234,7.065z"/>
	
		<linearGradient id="XMLID_11_" gradientUnits="userSpaceOnUse" x1="75.9268" y1="33.042" x2="81.1772" y2="46.293" gradientTransform="matrix(0.9999 -0.0171 0.0171 0.9999 3.0905 0.1969)">
		<stop  offset="0" style="stop-color:#7CB848"/>
		<stop  offset="0.4944" style="stop-color:#3E691E"/>
	</linearGradient>
	<path fill="url(#XMLID_11_)" d="M87.646,44.235c-1.728,1.787-5.34,1.098-8.071-1.541c-2.729-2.638-3.542-6.225-1.815-8.012
		s5.34-1.098,8.07,1.541S89.373,42.448,87.646,44.235z"/>
	<path fill="#355919" d="M84.253,38.194c-1.073-1.056-2.298-1.592-3.639-1.592c-1.528,0-3.151,0.726-4.729,2.101
		c0.144,1.622,1.095,3.538,2.717,5.161c1.672,1.671,3.656,2.635,5.307,2.734C85.946,44.005,86.659,40.561,84.253,38.194z"/>
	<path fill="#999999" d="M82.029,47.014c-2.089,2.088-2.972,6.32-2.972,14.627c0,3.291,1.353,5.652,2.762,8.001
		c2.874,4.791-20.099-7.744-17.344-7.744c1.881,0,9.354-2.858,9.354-5.75c0-9.87-0.679-13.103,2.142-15.923
		c2.114-2.115,4.882-3.422,7.258-1.045S83.91,45.133,82.029,47.014z"/>
	<radialGradient id="XMLID_12_" cx="75.8779" cy="41.2739" r="14.5103" gradientUnits="userSpaceOnUse">
		<stop  offset="0.0056" style="stop-color:#DCDCDC"/>
		<stop  offset="0.8258" style="stop-color:#9D9D9D"/>
	</radialGradient>
	<path fill="url(#XMLID_12_)" d="M81.351,46.274c-2.089,2.088-3.66,6.812-3.66,15.119c0,3.291,2.72,5.9,4.129,8.25
		c2.874,4.791-20.099-7.744-17.344-7.744c1.881,0,9.354-2.858,9.354-5.75c0-9.87-0.679-13.103,2.142-15.923
		c2.114-2.115,4.882-3.422,7.258-1.045S83.231,44.393,81.351,46.274z"/>
	<path fill="#FEFEFE" d="M65.363,61.987c-5.78,0-24.566,0.9-30.347,9.36s-27.458,46.94-27.458,52.581
		c8.671,0,71.716-33.508,74.947-36.66c5.781-5.641-1.117-20.114-4.008-21.524C75.608,64.333,71.145,61.987,65.363,61.987z"/>
	<linearGradient id="XMLID_13_" gradientUnits="userSpaceOnUse" x1="31.0376" y1="134.4609" x2="68.0724" y2="55.0395">
		<stop  offset="0.3483" style="stop-color:#ECECEC"/>
		<stop  offset="0.809" style="stop-color:#CDCDCF"/>
		<stop  offset="0.8539" style="stop-color:#DADADB"/>
		<stop  offset="0.9494" style="stop-color:#F2F2F2"/>
	</linearGradient>
	<path fill="url(#XMLID_13_)" d="M64.703,61.987c-5.78,0-23.906,0.9-29.687,9.36c-5.531,8.095-25.615,43.587-27.339,51.665
		c0.173,1.762,21.349-8.427,38.173-16.988c17.52-8.915,34.651-17.766,36.3-19.375c5.781-5.64-0.514-19.434-3.403-20.844
		C75.857,64.396,70.506,60.958,64.703,61.987z"/>
	<linearGradient id="XMLID_14_" gradientUnits="userSpaceOnUse" x1="73.7754" y1="63.6489" x2="76.4256" y2="56.8645">
		<stop  offset="0.0056" style="stop-color:#F2F2F2"/>
		<stop  offset="0.8258" style="stop-color:#9D9D9D"/>
	</linearGradient>
	<path fill="url(#XMLID_14_)" d="M65.631,61.771c3.047-0.587,8.199-3.091,8.199-5.622l4.295,2.199c0,5.096,1.057,7.644,2.76,9.829
		C81.144,68.633,65.196,61.854,65.631,61.771z"/>
</svg>
