<?xml version="1.0" encoding="utf-8"?>
<!DOCTYPE svg PUBLIC "-//W3C//DTD SVG 1.1//EN" "http://www.w3.org/Graphics/SVG/1.1/DTD/svg11.dtd" [
	<!ENTITY ns_svg "http://www.w3.org/2000/svg">
	<!ENTITY ns_xlink "http://www.w3.org/1999/xlink">
]>
<svg  version="1.1" xmlns="&ns_svg;" xmlns:xlink="&ns_xlink;" width="128" height="128" viewBox="0 0 128 128"
	 overflow="visible" enable-background="new 0 0 128 128" xml:space="preserve">
		<path opacity="0.2" fill="#333333" d="M20.517,15.235c-0.602,0.351-0.973,0.977-0.991,1.673c0,0.001,0,0.002,0,0.003
			c0,0.727,0.335,1.35,0.896,1.721c0,0,10.384,6.859,12.474,8.24c0.082,0.749,0.778,7.137,0.847,7.772
			c-0.428,0.584-6.61,9.018-6.727,9.177c-1.338-0.574-16.143-6.925-16.143-6.925c-0.658-0.284-1.424-0.19-1.996,0.244
			c-0.496,0.375-0.792,0.971-0.792,1.594l0.018,0.264c0.814,18.418,17.739,22.44,19.98,23.052c0.061,1.025,0.228,3.87,0.228,3.87
			c0.06,1.038,0.921,1.865,1.961,1.883l5.68,0.103c1.094,0.02,2.007-0.854,2.035-1.948c0,0,0.063-2.42,0.096-3.725
			c0.633-0.113,1.355-0.241,1.355-0.241c1.183-0.169,10.825,5.004,17.18,7.657c0.773,0.322,1.675,0.125,2.243-0.492
			c0.002-0.002,10.203-11.13,10.203-11.13c0.655-0.716,0.704-1.795,0.114-2.566c-4.204-5.5-10.482-13.699-10.606-14.674
			c0.012,0.092-0.028,0.21-0.042,0.302c1.214-8.003-1.459-16.18-7.152-21.873C43.205,11.039,30.513,9.403,20.517,15.235z
			 M18.233,57.223c0,0,0.131,0.19,0.231,0.334C18.371,57.429,18.276,57.285,18.233,57.223z"/>
		<path opacity="0.5" fill="#333333" d="M21.021,15.099c-0.299,0.174-0.486,0.49-0.496,0.836c0,0.009,0,0.019,0,0.028
			c0,0.335,0.168,0.649,0.449,0.834c0,0,12.128,8.012,12.866,8.5c0.088,0.809,0.866,7.951,0.94,8.625
			c-0.408,0.557-6.617,9.027-7.426,10.132c-1.343-0.576-16.874-7.238-16.874-7.238c-0.33-0.142-0.711-0.095-0.998,0.122
			c-0.251,0.19-0.396,0.486-0.396,0.797c0,0.043,0.003,0.087,0.009,0.131c0.996,7.526,4.849,14.36,10.093,18.055
			c0.067,0.211,0.164,0.417,0.349,0.544c2.908,1.99,7.716,3.345,9.504,3.805c0.064,1.09,0.27,4.591,0.27,4.591
			c0.03,0.522,0.458,0.932,0.98,0.941l5.682,0.103c0.549,0.01,1.003-0.425,1.018-0.974c0,0,0.087-3.379,0.117-4.541
			c0.906-0.161,2.158-0.384,2.158-0.384c1.835-0.264,13.026,5.75,17.741,7.718c0.389,0.162,0.837,0.063,1.123-0.247L68.328,56.35
			c0.327-0.357,0.352-0.898,0.057-1.283c-3.755-4.914-10.81-13.996-10.81-15.252c0,0.05-0.025,0.073-0.032,0.122
			c1.167-7.69-1.401-15.546-6.87-21.016C42.818,11.067,30.625,9.496,21.021,15.099z"/>
		<path opacity="0.2" fill="#333333" d="M21.021,16.099c-0.299,0.174-0.486,0.49-0.496,0.836c0,0.009,0,0.019,0,0.028
			c0,0.335,0.168,0.649,0.449,0.834c0,0,12.128,8.012,12.866,8.5c0.088,0.809,0.866,7.951,0.94,8.625
			c-0.408,0.557-6.617,9.027-7.426,10.132c-1.343-0.576-16.874-7.238-16.874-7.238c-0.33-0.142-0.711-0.095-0.998,0.122
			c-0.251,0.19-0.396,0.486-0.396,0.797c0,0.043,0.005,0.087,0.009,0.131C10.083,50.833,18.5,59.333,29.04,61.271
			c0.064,1.09,0.27,4.591,0.27,4.591c0.03,0.522,0.458,0.933,0.98,0.941l5.682,0.103c0.549,0.01,1.003-0.425,1.018-0.974
			c0,0,0.087-3.38,0.117-4.541c0.906-0.161,2.158-0.384,2.158-0.384c1.835-0.264,13.026,5.75,17.741,7.718
			c0.389,0.162,0.837,0.063,1.123-0.247L68.328,57.35c0.327-0.357,0.352-0.898,0.057-1.283c-3.755-4.914-10.81-13.996-10.81-15.252
			c0,0.05-0.025,0.073-0.032,0.122c1.167-7.69-1.401-15.546-6.87-21.016C42.818,12.067,30.625,10.496,21.021,16.099z"/>
		<linearGradient id="XMLID_23_" gradientUnits="userSpaceOnUse" x1="18.4175" y1="40.625" x2="18.4175" y2="51.5">
			<stop  offset="0" style="stop-color:#FEFEFF"/>
			<stop  offset="1" style="stop-color:#B3B3B3"/>
		</linearGradient>
		<path fill="url(#XMLID_23_)" d="M19.417,55c-5.667-3.703-8.426-10.417-9.332-17.265l16.665,7.099L19.417,55z"/>
		<linearGradient id="XMLID_24_" gradientUnits="userSpaceOnUse" x1="19.0073" y1="54.437" x2="17.9093" y2="37.7466">
			<stop  offset="0.0337" style="stop-color:#E8E8E8"/>
			<stop  offset="0.8258" style="stop-color:#FFFFFF"/>
		</linearGradient>
		<path fill="url(#XMLID_24_)" d="M19.971,54.046c-5.667-3.703-8.857-8.671-9.763-15.519l15.959,6.89L19.971,54.046z"/>
		<linearGradient id="XMLID_25_" gradientUnits="userSpaceOnUse" x1="35.75" y1="62.2119" x2="30.25" y2="62.2119">
			<stop  offset="0" style="stop-color:#C7C7C7"/>
			<stop  offset="0.6348" style="stop-color:#E8E8E8"/>
			<stop  offset="0.8258" style="stop-color:#FFFFFF"/>
		</linearGradient>
		<polygon fill="url(#XMLID_25_)" points="30.175,59.519 30.308,64.803 35.989,64.905 36.126,59.561 		"/>
		<linearGradient id="XMLID_26_" gradientUnits="userSpaceOnUse" x1="39.376" y1="43.8345" x2="43.5152" y2="54.7835">
			<stop  offset="0" style="stop-color:#FEFEFF"/>
			<stop  offset="1" style="stop-color:#B3B3B3"/>
		</linearGradient>
		<path fill="url(#XMLID_26_)" d="M56.575,39.814c0-0.018-0.016-0.017-0.021-0.028c1.083-7.133-1.096-14.666-6.588-20.159
			c-7.713-7.712-19.443-8.915-28.441-3.665l13.258,8.759l1.033,9.479l-15.715,21.44c5.622,3.847,12.539,4.973,18.923,3.395
			c0.008,0,0.008,0.008,0.018,0.006c2.896-0.438,18.348,7.76,18.348,7.76l10.201-11.128C67.591,55.674,56.575,42.188,56.575,39.814z
			"/>
		<radialGradient id="XMLID_27_" cx="24.4756" cy="46.2295" r="38.5287" gradientUnits="userSpaceOnUse">
			<stop  offset="0" style="stop-color:#C7C7C7"/>
			<stop  offset="0.6742" style="stop-color:#E8E8E8"/>
			<stop  offset="0.7658" style="stop-color:#EAEAEA"/>
			<stop  offset="0.7988" style="stop-color:#F1F1F1"/>
			<stop  offset="0.8222" style="stop-color:#FCFCFC"/>
			<stop  offset="0.8258" style="stop-color:#FFFFFF"/>
		</radialGradient>
		<path fill="url(#XMLID_27_)" d="M67.701,55.563c0,0-11.071-13.431-11.125-15.75c-0.002-0.096-0.094-0.093-0.251-0.015
			c1.543-6.976-0.562-14.372-6.359-20.17c-7.713-7.712-19.443-8.915-28.441-3.665l13.258,8.759l1.842,9.479L21.756,55.113
			c6.865,3.773,13.019,4.449,18.662,2.413c5.051,0.544,17.564,8.684,17.564,8.684L67.701,55.563z"/>
		<path opacity="0.2" fill="#333333" d="M68.689,55.677l-12.122,12.56c-0.376,0.39-0.378,1.006-0.006,1.392l44.62,46.358
			c4.885,5.078,13.039,5.044,18.156-0.063c2.52-2.515,3.922-5.847,3.953-9.381c0.029-3.399-1.229-6.59-3.54-8.985
			c-4.472-4.631-47.792-40.355-49.716-41.956C69.637,55.27,69.051,55.303,68.689,55.677z M106.338,106.566
			c0.004-1.058,0.402-2.114,1.194-2.918c1.584-1.604,4.149-1.598,5.722,0.014s1.567,4.229-0.013,5.838
			c-1.583,1.61-4.153,1.607-5.729-0.008C106.725,108.684,106.334,107.624,106.338,106.566z"/>
		<path opacity="0.2" fill="#333333" d="M117.988,97.491c-4.555-4.606-50.533-41.587-50.533-41.587L55.449,68.605
			c0,0,40.721,41.137,45.274,45.743c4.553,4.608,12.107,4.569,16.876-0.085C122.365,109.609,122.541,102.1,117.988,97.491z
			 M112.838,109.352c-1.986,1.986-5.207,1.986-7.193,0c-1.984-1.985-1.984-5.206,0-7.191c1.986-1.986,5.207-1.986,7.193,0
			C114.822,104.146,114.822,107.366,112.838,109.352z"/>
		<path opacity="0.2" fill="#333333" d="M117.988,98.491c-4.555-4.606-50.533-41.587-50.533-41.587L55.449,69.605
			c0,0,40.721,41.137,45.274,45.743c4.553,4.608,12.107,4.569,16.876-0.085C122.365,110.609,122.541,103.1,117.988,98.491z
			 M112.838,110.352c-1.986,1.986-5.207,1.986-7.193,0c-1.984-1.985-1.984-5.206,0-7.191c1.986-1.986,5.207-1.986,7.193,0
			C114.822,105.146,114.822,108.366,112.838,110.352z"/>
		<linearGradient id="XMLID_28_" gradientUnits="userSpaceOnUse" x1="98.1143" y1="78.2949" x2="81.3683" y2="97.5403">
			<stop  offset="0.0449" style="stop-color:#DB5A5A"/>
			<stop  offset="0.1685" style="stop-color:#940E0E"/>
			<stop  offset="1" style="stop-color:#B01F1F"/>
		</linearGradient>
		<path fill="url(#XMLID_28_)" d="M118.988,96.491c-4.555-4.606-50.533-41.587-50.533-41.587L56.449,67.605
			c0,0,40.721,41.137,45.274,45.743c4.553,4.608,12.107,4.569,16.876-0.085C123.365,108.609,123.541,101.1,118.988,96.491z
			 M114.256,108.77c-2.217,2.218-5.813,2.218-8.029,0c-2.217-2.216-2.217-5.812,0-8.027c2.217-2.218,5.813-2.218,8.029,0
			C116.473,102.958,116.473,106.554,114.256,108.77z"/>
		<linearGradient id="XMLID_29_" gradientUnits="userSpaceOnUse" x1="83.9434" y1="90.335" x2="93.1092" y2="80.4455">
			<stop  offset="0" style="stop-color:#B01F1F"/>
			<stop  offset="0.2135" style="stop-color:#EA5454"/>
			<stop  offset="0.3275" style="stop-color:#E55151"/>
			<stop  offset="0.4584" style="stop-color:#D74A4A"/>
			<stop  offset="0.5976" style="stop-color:#C03D3D"/>
			<stop  offset="0.7427" style="stop-color:#A02B2B"/>
			<stop  offset="0.8907" style="stop-color:#771414"/>
			<stop  offset="1" style="stop-color:#540000"/>
		</linearGradient>
		<path fill="url(#XMLID_29_)" d="M112.466,98.228c-4.481-4.112-44.216-36.79-44.216-36.79l-9.045,2.971
			c0,0,39.148,38.565,43.4,42.871c4.451,4.511,9.313,5.187,12.155,2.41C117.605,106.912,117.155,102.525,112.466,98.228z
			 M113.838,108.551c-1.986,1.986-5.207,1.986-7.193,0c-1.984-1.985-1.984-5.206,0-7.191c1.986-1.986,5.207-1.986,7.193,0
			C115.822,103.345,115.822,106.565,113.838,108.551z"/>
		<linearGradient id="XMLID_30_" gradientUnits="userSpaceOnUse" x1="52.001" y1="51.5474" x2="33.8745" y2="43.5467">
			<stop  offset="0.0056" style="stop-color:#575757"/>
			<stop  offset="1" style="stop-color:#121212"/>
		</linearGradient>
		<path fill="url(#XMLID_30_)" d="M53.236,46.882c0.433,0.339,0.51,0.971,0.17,1.404l-6.004,7.665
			c-0.339,0.433-0.971,0.51-1.404,0.17l-5.889-4.613c-0.433-0.339-0.51-0.971-0.17-1.404l6.004-7.664
			c0.339-0.433,0.971-0.51,1.404-0.17L53.236,46.882z"/>
		<linearGradient id="XMLID_31_" gradientUnits="userSpaceOnUse" x1="45.8618" y1="43.4946" x2="52.3567" y2="48.5691">
			<stop  offset="0.0056" style="stop-color:#666666"/>
			<stop  offset="0.4494" style="stop-color:#CCCCCC"/>
			<stop  offset="1" style="stop-color:#666666"/>
		</linearGradient>
		<path fill="url(#XMLID_31_)" d="M47.999,43.606l-1.487,1.954l0.908,0.709l1.487-1.954L47.999,43.606z M47.405,43.142
			c-0.434-0.339-1.065-0.261-1.403,0.172l-0.281,0.359c-0.338,0.434-0.261,1.065,0.173,1.404l0.066,0.052l1.488-1.954L47.405,43.142
			z M49.458,44.746L47.971,46.7l0.917,0.716l1.487-1.954L49.458,44.746z M52.354,47.021l-1.472,1.934
			c0.43,0.284,1.013,0.206,1.335-0.207l0.28-0.358C52.826,47.968,52.755,47.366,52.354,47.021z M50.927,45.894l-1.487,1.954
			l0.882,0.689l1.487-1.954L50.927,45.894z"/>
		<linearGradient id="XMLID_32_" gradientUnits="userSpaceOnUse" x1="40.8931" y1="49.6196" x2="47.3879" y2="54.6941">
			<stop  offset="0.0056" style="stop-color:#666666"/>
			<stop  offset="0.4494" style="stop-color:#CCCCCC"/>
			<stop  offset="1" style="stop-color:#666666"/>
		</linearGradient>
		<path fill="url(#XMLID_32_)" d="M43.03,49.731l-1.487,1.954l0.908,0.709l1.487-1.954L43.03,49.731z M42.437,49.267
			c-0.434-0.339-1.065-0.261-1.403,0.172l-0.281,0.359c-0.338,0.434-0.261,1.065,0.173,1.404l0.066,0.052l1.488-1.954L42.437,49.267
			z M44.49,50.871l-1.487,1.954l0.917,0.716l1.487-1.954L44.49,50.871z M47.386,53.146l-1.472,1.934
			c0.43,0.284,1.013,0.206,1.335-0.207l0.28-0.358C47.857,54.093,47.787,53.491,47.386,53.146z M45.958,52.019l-1.487,1.954
			l0.882,0.689l1.487-1.954L45.958,52.019z"/>
		<linearGradient id="XMLID_33_" gradientUnits="userSpaceOnUse" x1="43.2676" y1="46.5566" x2="49.7632" y2="51.6317">
			<stop  offset="0.0056" style="stop-color:#666666"/>
			<stop  offset="0.4494" style="stop-color:#CCCCCC"/>
			<stop  offset="1" style="stop-color:#666666"/>
		</linearGradient>
		<path fill="url(#XMLID_33_)" d="M45.405,46.668l-1.487,1.954l0.908,0.709l1.487-1.954L45.405,46.668z M44.812,46.205
			c-0.434-0.339-1.065-0.261-1.403,0.172l-0.281,0.359c-0.338,0.434-0.261,1.065,0.173,1.404l0.066,0.052l1.488-1.954L44.812,46.205
			z M46.865,47.809l-1.487,1.954l0.917,0.716l1.487-1.954L46.865,47.809z M49.761,50.083l-1.472,1.934
			c0.43,0.284,1.013,0.206,1.335-0.207l0.28-0.358C50.232,51.031,50.162,50.428,49.761,50.083z M48.333,48.956l-1.487,1.954
			l0.882,0.689l1.487-1.954L48.333,48.956z"/>
		<polygon fill="#808080" points="31.195,59.635 31.492,64.825 31.924,59.691 		"/>
		<polygon fill="#808080" points="32.959,59.731 33.216,64.855 33.823,59.73 		"/>
		<polygon fill="#808080" points="35.504,59.577 34.812,64.884 34.636,59.701 		"/>
		<path opacity="0.2" fill="#333333" d="M106.008,6.776L68.551,44.232c-1.987,1.988-3.027,4.439-3.027,7.056
			c0,0.492,0.08,0.994,0.154,1.496c-0.508,0.508-2.694,2.694-3.094,3.094c-0.66,0.061-8.03,0.734-8.03,0.734
			c-0.053,0.005-0.105,0.014-0.157,0.027c-1.07,0.273-1.818,0.922-2.053,1.778c-0.051,0.187-0.076,0.377-0.076,0.568
			c0,0.689,0.324,1.397,0.936,2.008l15.874,15.872c0.78,0.781,1.72,1.095,2.575,0.86c0.857-0.234,1.506-0.983,1.78-2.054
			c0.013-0.052,0.022-0.104,0.027-0.157c0,0,0.673-7.368,0.733-8.028c0.4-0.4,2.586-2.587,3.094-3.094
			c3.172,0.469,6.195-0.511,8.551-2.875l37.457-37.457c2.016-2.015,3.08-4.492,3.08-7.164c0-3.162-1.474-6.376-4.149-9.052
			C117.137,2.757,110.467,2.317,106.008,6.776z"/>
		<path opacity="0.2" fill="#333333" d="M121.519,8.553c-4.365-4.365-10.438-5.435-14.804-1.07L69.258,44.939
			c-2.421,2.421-3.127,5.351-2.541,8.22l-3.682,3.682l-8.39,0.768c-1.495,0.382-1.825,1.588-0.734,2.679l15.874,15.872
			c1.091,1.091,2.296,0.761,2.68-0.734l0.767-8.389l0,0l3.682-3.682c2.868,0.585,5.798-0.121,8.219-2.542l37.457-37.457
			C126.953,18.99,125.883,12.917,121.519,8.553z"/>
		<path opacity="0.2" fill="#333333" d="M121.519,7.553c-4.365-4.365-10.438-5.435-14.804-1.07L69.258,43.939
			c-2.421,2.421-3.127,5.351-2.541,8.22l-3.682,3.682l-8.39,0.768c-1.495,0.382-1.825,1.588-0.734,2.679l15.874,15.872
			c1.091,1.091,2.296,0.761,2.68-0.734l0.767-8.389l0,0l3.682-3.682c2.868,0.585,5.798-0.121,8.219-2.542l37.457-37.457
			C126.953,17.99,125.883,11.917,121.519,7.553z"/>
		<path opacity="0.8" fill="#993903" d="M104.908,5.876L67.451,43.332c-1.988,1.988-3.028,4.439-3.028,7.056
			c0,0.492,0.08,0.994,0.154,1.496c-0.507,0.508-2.694,2.694-3.094,3.094c-0.66,0.061-8.03,0.734-8.03,0.734
			c-0.053,0.005-0.105,0.014-0.157,0.027c-1.07,0.273-1.818,0.922-2.053,1.778c-0.051,0.187-0.076,0.377-0.076,0.568
			c0,0.689,0.324,1.397,0.936,2.008l15.874,15.872c0.781,0.781,1.72,1.095,2.576,0.86s1.506-0.983,1.779-2.054
			c0.014-0.052,0.023-0.104,0.027-0.157c0,0,0.674-7.368,0.733-8.028c0.4-0.4,2.587-2.586,3.095-3.093
			c3.171,0.469,6.194-0.511,8.551-2.875l37.457-37.457c2.015-2.015,3.08-4.492,3.08-7.164c0-3.162-1.475-6.376-4.15-9.052
			C116.036,1.857,109.367,1.417,104.908,5.876z"/>
		<path opacity="0.2" fill="#333333" d="M57.205,64.581L57.205,64.581c0,0-40.086,40.085-40.487,40.486
			c-0.492,0.114-4.565,0.815-4.565,0.815c-0.491,0.113-0.918,0.406-1.202,0.824l-7.825,12.012c0,0.003-0.346,1.123-0.346,1.123
			c0,0.534,0.208,1.036,0.586,1.414l4.647,4.647c0.692,0.693,1.776,0.784,2.575,0.215c0,0,12.013-8.226,12.013-8.226
			c0.417-0.299,0.7-0.737,0.8-1.236c0,0,0.523-3.812,0.626-4.328c0.422-0.423,40.462-40.462,40.462-40.462
			c0.378-0.378,0.586-0.88,0.586-1.414s-0.208-1.036-0.586-1.414l-4.457-4.457c-0.378-0.378-0.88-0.586-1.414-0.586
			S57.583,64.203,57.205,64.581z"/>
		<path opacity="0.5" fill="#333333" d="M57.912,64.288c0,0-40.289,40.288-40.689,40.688c-0.496,0.115-4.844,0.88-4.844,0.88
			c-0.245,0.057-0.459,0.204-0.601,0.412L3.953,118.28c-0.116,0.17-0.173,0.366-0.173,0.562c0,0.258,0.1,0.514,0.293,0.707
			l4.647,4.647c0.345,0.346,0.89,0.391,1.288,0.107l12.013-8.226c0.207-0.148,0.35-0.369,0.4-0.618c0,0,0.581-4.104,0.686-4.625
			c0.423-0.424,40.677-40.676,40.677-40.676c0.188-0.188,0.293-0.441,0.293-0.707l0,0c0-0.266-0.105-0.52-0.293-0.707l-4.457-4.457
			C58.935,63.897,58.302,63.897,57.912,64.288z"/>
		<path opacity="0.2" fill="#333333" d="M57.912,65.288c0,0-40.289,40.288-40.689,40.688c-0.496,0.115-4.844,0.88-4.844,0.88
			c-0.245,0.057-0.459,0.204-0.601,0.412L3.953,119.28c-0.116,0.17-0.173,0.366-0.173,0.562c0,0.258,0.1,0.514,0.293,0.707
			l4.647,4.647c0.345,0.346,0.89,0.391,1.288,0.107l12.013-8.226c0.207-0.148,0.35-0.369,0.4-0.618c0,0,0.581-4.104,0.686-4.625
			c0.423-0.424,40.677-40.676,40.677-40.676c0.188-0.188,0.293-0.441,0.293-0.707l0,0c0-0.266-0.105-0.52-0.293-0.707l-4.457-4.457
			C58.935,64.897,58.302,64.897,57.912,65.288z"/>
		<linearGradient id="XMLID_34_" gradientUnits="userSpaceOnUse" x1="64.5864" y1="53.1055" x2="73.5038" y2="62.0233">
			<stop  offset="0" style="stop-color:#F36600"/>
			<stop  offset="0.1798" style="stop-color:#E69C2E"/>
			<stop  offset="0.5056" style="stop-color:#D66628"/>
			<stop  offset="1" style="stop-color:#F36600"/>
		</linearGradient>
		<polygon fill="url(#XMLID_34_)" points="66.688,71.577 83.059,55.208 72.862,45.013 56.494,61.381 		"/>
		<path fill="#F36600" d="M68.784,75.159c1.091,1.091,2.296,0.761,2.68-0.734l0.767-8.389L62.035,55.841l-8.39,0.768
			c-1.495,0.382-1.825,1.588-0.734,2.679L68.784,75.159z"/>
		<path fill="#F36600" d="M84.131,59.813l37.457-37.457c4.365-4.365,3.295-10.438-1.069-14.802
			c-4.365-4.365-10.438-5.435-14.804-1.07L68.258,43.939c-4.364,4.365-3.174,10.384,1.158,14.715
			C73.747,62.986,79.766,64.178,84.131,59.813z"/>
		
			<linearGradient id="XMLID_35_" gradientUnits="userSpaceOnUse" x1="71.9912" y1="115.9727" x2="80.8662" y2="124.8477" gradientTransform="matrix(0.9027 -0.086 -0.086 0.9027 -18.4803 -14.1634)">
			<stop  offset="0" style="stop-color:#E0E0E0"/>
			<stop  offset="0.2921" style="stop-color:#FFFFFF"/>
			<stop  offset="1" style="stop-color:#636363"/>
		</linearGradient>
		<polygon fill="url(#XMLID_35_)" points="22.077,110.449 62.648,69.88 58.191,65.423 17.622,105.992 		"/>
		<linearGradient id="XMLID_36_" gradientUnits="userSpaceOnUse" x1="9.0532" y1="110.1631" x2="17.5065" y2="118.6163">
			<stop  offset="0" style="stop-color:#FFFFFF"/>
			<stop  offset="1" style="stop-color:#B1B1B1"/>
		</linearGradient>
		<polygon fill="url(#XMLID_36_)" points="22.185,110.342 21.44,115.264 9.427,123.489 4.78,118.842 12.605,106.83 17.728,105.886 
					"/>
		
			<linearGradient id="XMLID_37_" gradientUnits="userSpaceOnUse" x1="41.2607" y1="153.6055" x2="41.9912" y2="134.8568" gradientTransform="matrix(0.9204 -0.0796 -0.0796 0.9204 -13.4588 -13.4578)">
			<stop  offset="0" style="stop-color:#B9B9B9"/>
			<stop  offset="1" style="stop-color:#F0F0F0"/>
		</linearGradient>
		<polygon fill="url(#XMLID_37_)" points="21.886,110.043 20.841,114.664 9.098,123.16 5.19,119.252 13.317,107.542 18.139,106.297 
					"/>
		
			<linearGradient id="XMLID_38_" gradientUnits="userSpaceOnUse" x1="47.8774" y1="-8.1499" x2="52.3013" y2="-3.7261" gradientTransform="matrix(1.2065 0.1902 0.1902 1.2065 35.8319 31.1386)">
			<stop  offset="0" style="stop-color:#F36600"/>
			<stop  offset="0.2697" style="stop-color:#AD5220"/>
			<stop  offset="0.6573" style="stop-color:#D66628"/>
			<stop  offset="1" style="stop-color:#F36600"/>
		</linearGradient>
		<path fill="url(#XMLID_38_)" d="M119.841,9.193c1.59,1.59,1.3,4.481-0.646,6.426L77.252,57.562
			c-1.944,1.945-4.836,2.235-6.425,0.645c-1.59-1.59-1.3-4.481,0.646-6.426l41.943-41.943C115.36,7.893,118.252,7.603,119.841,9.193
			z"/>
		
			<linearGradient id="XMLID_39_" gradientUnits="userSpaceOnUse" x1="1180.4746" y1="-1103.4536" x2="1184.8984" y2="-1099.0298" gradientTransform="matrix(0.6541 0.5357 0.5357 0.6541 -119.4234 151.2162)">
			<stop  offset="0" style="stop-color:#F36600"/>
			<stop  offset="0.2697" style="stop-color:#AD5220"/>
			<stop  offset="0.6573" style="stop-color:#D66628"/>
			<stop  offset="1" style="stop-color:#F36600"/>
		</linearGradient>
		<path fill="url(#XMLID_39_)" d="M67.26,61.774c1.354,1.354,1.178,3.747-0.393,5.316c-1.569,1.57-3.961,1.746-5.315,0.392
			c-1.354-1.354-1.178-3.746,0.392-5.316S65.905,60.42,67.26,61.774z"/>
		
			<linearGradient id="XMLID_40_" gradientUnits="userSpaceOnUse" x1="-523.8857" y1="23.8618" x2="-527.3676" y2="20.3791" gradientTransform="matrix(-0.9814 -0.0021 -0.0021 -0.9814 -415.6453 58.6818)">
			<stop  offset="0.2079" style="stop-color:#F36600"/>
			<stop  offset="0.27" style="stop-color:#F77207"/>
			<stop  offset="0.3726" style="stop-color:#FC800E"/>
			<stop  offset="0.5031" style="stop-color:#FE8813"/>
			<stop  offset="0.7528" style="stop-color:#FF8A14"/>
			<stop  offset="0.9719" style="stop-color:#F36600"/>
		</linearGradient>
		<path fill="url(#XMLID_40_)" d="M77.283,61.384c-1.334-0.707-0.835-2.876,1.109-4.821l40.16-40.159
			c1.945-1.945,4.162-2.492,4.928-1.216c0.765,1.275-0.199,3.91-2.145,5.854L83.245,59.133
			C81.301,61.078,78.617,62.09,77.283,61.384z"/>
		
			<linearGradient id="XMLID_41_" gradientUnits="userSpaceOnUse" x1="-492.0532" y1="-8.2593" x2="-495.402" y2="-11.609" gradientTransform="matrix(-0.9814 -0.0021 -0.0021 -0.9814 -415.6453 58.6818)">
			<stop  offset="0.2079" style="stop-color:#F36600"/>
			<stop  offset="0.27" style="stop-color:#F77207"/>
			<stop  offset="0.3726" style="stop-color:#FC800E"/>
			<stop  offset="0.5031" style="stop-color:#FE8813"/>
			<stop  offset="0.7528" style="stop-color:#FF8A14"/>
			<stop  offset="0.9719" style="stop-color:#F36600"/>
		</linearGradient>
		<path fill="url(#XMLID_41_)" d="M66.613,72.054c-1.003-1.038-0.65-2.933,0.784-4.21c1.435-1.278,2.833-2.034,3.108-1.682
			c0.274,0.354,0.499,1.671,0.499,2.927s-0.578,2.862-1.284,3.568S67.615,73.092,66.613,72.054z"/>
		
			<linearGradient id="XMLID_42_" gradientUnits="userSpaceOnUse" x1="69.6611" y1="2.6816" x2="73.6945" y2="6.715" gradientTransform="matrix(1.0759 0.0966 0.0966 1.0759 12.6425 16.3358)">
			<stop  offset="0" style="stop-color:#F36600"/>
			<stop  offset="0.4775" style="stop-color:#FFCC33"/>
			<stop  offset="0.7865" style="stop-color:#F36600"/>
		</linearGradient>
		<path fill="url(#XMLID_42_)" d="M113.456,5.376c1.53,0.903,1.192,3.232-0.753,5.177l-40.16,40.159
			c-1.944,1.945-4.322,2.332-5.283,0.86c-0.962-1.472-0.158-4.267,1.787-6.211l38.091-38.091
			C109.082,5.326,111.926,4.474,113.456,5.376z"/>
		<linearGradient id="XMLID_43_" gradientUnits="userSpaceOnUse" x1="56.7744" y1="57.064" x2="61.1525" y2="61.442">
			<stop  offset="0" style="stop-color:#F36600"/>
			<stop  offset="0.4775" style="stop-color:#FFCC33"/>
			<stop  offset="0.7865" style="stop-color:#F36600"/>
		</linearGradient>
		<path fill="url(#XMLID_43_)" d="M56.529,61.967c1.147,1.107,3.04,1.059,4.206-0.108l0.871-0.871
			c1.167-1.167,1.628-2.614,1.027-3.215c-0.602-0.602-2.079-0.967-3.282-0.812c-1.203,0.156-2.799,0.893-3.547,1.638
			S55.382,60.859,56.529,61.967z"/>
		<linearGradient id="XMLID_44_" gradientUnits="userSpaceOnUse" x1="56.4507" y1="67.1641" x2="60.4092" y2="71.123">
			<stop  offset="0" style="stop-color:#CCCCCC"/>
			<stop  offset="1" style="stop-color:#999999"/>
		</linearGradient>
		<path fill="url(#XMLID_44_)" d="M58.191,65.423l4.457,4.457l-3.482,3.481C59.166,73.361,63.363,70.74,58.191,65.423z"/>
</svg>
