/* XPM */
static char* Move[] = {
"32 32 3 1 16 15",
"  c None",
"! c #101010",
"# c #000000",
"                !               ",
"               !#!              ",
"               !#!              ",
"              !###!             ",
"              !###!             ",
"             !#####!            ",
"             !#####!            ",
"            !#######!           ",
"            !!!!#!!!!           ",
"               !#!              ",
"               !#!              ",
"        !!     !#!     !!       ",
"      !!#!     !#!     !#!!     ",
"    !!###!     !#!     !###!!   ",
"  !!#####!!!!!!!#!!!!!!!#####!! ",
" !#############################!",
"  !!#####!!!!!!!#!!!!!!!#####!! ",
"    !!###!     !#!     !###!!   ",
"      !!#!     !#!     !#!!     ",
"        !!     !#!     !!       ",
"               !#!              ",
"               !#!              ",
"            !!!!#!!!!           ",
"            !#######!           ",
"             !#####!            ",
"             !#####!            ",
"              !###!             ",
"              !###!             ",
"               !#!              ",
"               !#!              ",
"                !               ",
"                                "};