/* XPM */
static char* Hand[] = {
"32 32 3 1 3 5",
"  c None",
"! c #101010",
"# c #000000",
"                                ",
"                                ",
"                                ",
"                                ",
"                                ",
"   !!!                          ",
"   !##!                         ",
"    !##!                        ",
"     !##!                       ",
"      !##!                      ",
"       !##!                     ",
"        !##!                    ",
"         !##!                   ",
"          !##!                  ",
"           !##!                 ",
"            !##!                ",
"             !##!               ",
"              !##!              ",
"               !##!             ",
"                !##!            ",
"                 !##!           ",
"                  !##!          ",
"                   !##!         ",
"                    !##!        ",
"                     !##!       ",
"                      !#!       ",
"                       !!       ",
"                                ",
"                                ",
"                                ",
"                                ",
"                                "};