/* XPM */
static char* Normal[] = {
"32 32 3 1 8 3",
"  c None",
"! c #101010",
"# c #000000",
"                                ",
"                                ",
"                                ",
"        !                       ",
"        !!                      ",
"        !#!                     ",
"        !##!                    ",
"        !###!                   ",
"        !####!                  ",
"        !#####!                 ",
"        !######!                ",
"        !#######!               ",
"        !########!              ",
"        !#########!             ",
"        !##########!            ",
"        !###########!           ",
"        !############!          ",
"        !#######!!!!!!!         ",
"        !#######!               ",
"        !###!!###!              ",
"        !##!  !##!              ",
"        !#!   !###!             ",
"        !!     !##!             ",
"        !      !###!            ",
"                !##!            ",
"                !###!           ",
"                 !##!           ",
"                  !!!           ",
"                                ",
"                                ",
"                                ",
"                                "};