/* XPM */
static char* WE[] = {
"32 32 3 1 16 16",
"  c None",
"! c #101010",
"# c #000000",
"                                ",
"                                ",
"                                ",
"                                ",
"                                ",
"                                ",
"                                ",
"                                ",
"                                ",
"                                ",
"                                ",
"                                ",
"         !!          !!         ",
"       !!#!          !#!!       ",
"     !!###!          !###!!     ",
"   !!#####!!!!!!!!!!!!#####!!   ",
" !!##########################!! ",
"   !!#####!!!!!!!!!!!!#####!!   ",
"     !!###!          !###!!     ",
"       !!#!          !#!!       ",
"         !!          !!         ",
"                                ",
"                                ",
"                                ",
"                                ",
"                                ",
"                                ",
"                                ",
"                                ",
"                                ",
"                                ",
"                                "};