/* XPM */
static char* NWSE[] = {
"32 32 3 1 17 17",
"  c None",
"! c #101010",
"# c #000000",
"                                ",
"                                ",
"                                ",
"   !!                           ",
"   !#!!                         ",
"    !##!!                       ",
"    !####!!                     ",
"     !#####!!                   ",
"     !#######!!                 ",
"      !######!                  ",
"      !#####!                   ",
"       !#####!                  ",
"       !##!###!                 ",
"        !! !###!                ",
"        !   !###!               ",
"             !###!              ",
"              !###!             ",
"               !###!            ",
"                !###!           ",
"                 !###!   !      ",
"                  !###! !!      ",
"                   !###!##!     ",
"                    !#####!     ",
"                     !#####!    ",
"                    !######!    ",
"                   !########!   ",
"                    !!######!   ",
"                      !!#####!  ",
"                        !!###!  ",
"                          !!##! ",
"                            !!! ",
"                                "};