<?xml version="1.0" encoding="UTF-8" standalone="no"?>
<!-- Created with Inkscape (http://www.inkscape.org/) -->
<svg
   xmlns:svg="http://www.w3.org/2000/svg"
   xmlns="http://www.w3.org/2000/svg"
   xmlns:xlink="http://www.w3.org/1999/xlink"
   version="1.0"
   width="128"
   height="128"
   viewBox="0 0 128 128"
   id="Layer_1"
   xml:space="preserve"><defs
   id="defs1553"><linearGradient
     x1="49.921902"
     y1="23.2446"
     x2="58.3703"
     y2="104.0195"
     id="linearGradient1607"
     xlink:href="#XMLID_19_"
     gradientUnits="userSpaceOnUse" /><linearGradient
     x1="54.9907"
     y1="39.262199"
     x2="63.210098"
     y2="110.0893"
     id="linearGradient1609"
     xlink:href="#XMLID_20_"
     gradientUnits="userSpaceOnUse" /><radialGradient
     cx="79.615196"
     cy="116.7344"
     r="88.041702"
     id="radialGradient1611"
     xlink:href="#XMLID_21_"
     gradientUnits="userSpaceOnUse" /><radialGradient
     cx="126.5"
     cy="130.1982"
     r="82.374199"
     id="radialGradient1613"
     xlink:href="#XMLID_22_"
     gradientUnits="userSpaceOnUse" /><linearGradient
     x1="132.50591"
     y1="35.3008"
     x2="40.759701"
     y2="115.4526"
     id="linearGradient1615"
     xlink:href="#XMLID_23_"
     gradientUnits="userSpaceOnUse" /><radialGradient
     cx="87.546898"
     cy="108.1338"
     r="112.4545"
     id="radialGradient1617"
     xlink:href="#XMLID_24_"
     gradientUnits="userSpaceOnUse" /><linearGradient
     x1="59.637199"
     y1="28.6401"
     x2="65.511497"
     y2="120.5861"
     id="linearGradient1619"
     xlink:href="#XMLID_25_"
     gradientUnits="userSpaceOnUse" /><linearGradient
     x1="103.9541"
     y1="11.4053"
     x2="108.0303"
     y2="106.0095"
     id="linearGradient1621"
     xlink:href="#XMLID_26_"
     gradientUnits="userSpaceOnUse" /><linearGradient
     x1="103.9541"
     y1="11.4053"
     x2="108.0303"
     y2="106.0095"
     id="linearGradient1625"
     xlink:href="#XMLID_26_"
     gradientUnits="userSpaceOnUse"
     gradientTransform="matrix(1.048041,0,0,1,-5.422467,3.552714e-14)" /><linearGradient
     x1="59.637199"
     y1="28.6401"
     x2="65.511497"
     y2="120.5861"
     id="linearGradient1628"
     xlink:href="#XMLID_25_"
     gradientUnits="userSpaceOnUse" /><radialGradient
     cx="87.546898"
     cy="108.1338"
     r="112.4545"
     id="radialGradient1631"
     xlink:href="#XMLID_24_"
     gradientUnits="userSpaceOnUse" /><linearGradient
     x1="132.50591"
     y1="35.3008"
     x2="40.759701"
     y2="115.4526"
     id="linearGradient1634"
     xlink:href="#XMLID_23_"
     gradientUnits="userSpaceOnUse" /><radialGradient
     cx="126.5"
     cy="130.1982"
     r="82.374199"
     id="radialGradient1637"
     xlink:href="#XMLID_22_"
     gradientUnits="userSpaceOnUse" /><radialGradient
     cx="79.615196"
     cy="116.7344"
     r="88.041702"
     id="radialGradient1640"
     xlink:href="#XMLID_21_"
     gradientUnits="userSpaceOnUse" /><linearGradient
     x1="54.9907"
     y1="39.262199"
     x2="63.210098"
     y2="110.0893"
     id="linearGradient1643"
     xlink:href="#XMLID_20_"
     gradientUnits="userSpaceOnUse" /><linearGradient
     x1="49.921902"
     y1="23.2446"
     x2="58.3703"
     y2="104.0195"
     id="linearGradient1646"
     xlink:href="#XMLID_19_"
     gradientUnits="userSpaceOnUse" /><linearGradient
     x1="49.921902"
     y1="23.2446"
     x2="58.3703"
     y2="104.0195"
     id="linearGradient1686"
     xlink:href="#XMLID_19_"
     gradientUnits="userSpaceOnUse" /><linearGradient
     x1="54.9907"
     y1="39.262199"
     x2="63.210098"
     y2="110.0893"
     id="linearGradient1688"
     xlink:href="#XMLID_20_"
     gradientUnits="userSpaceOnUse" /><radialGradient
     cx="79.615196"
     cy="116.7344"
     r="88.041702"
     id="radialGradient1690"
     xlink:href="#XMLID_21_"
     gradientUnits="userSpaceOnUse" /><radialGradient
     cx="126.5"
     cy="130.1982"
     r="82.374199"
     id="radialGradient1692"
     xlink:href="#XMLID_22_"
     gradientUnits="userSpaceOnUse" /><linearGradient
     x1="132.50591"
     y1="35.3008"
     x2="40.759701"
     y2="115.4526"
     id="linearGradient1694"
     xlink:href="#XMLID_23_"
     gradientUnits="userSpaceOnUse" /><radialGradient
     cx="87.546898"
     cy="108.1338"
     r="112.4545"
     id="radialGradient1696"
     xlink:href="#XMLID_24_"
     gradientUnits="userSpaceOnUse" /><linearGradient
     x1="59.637199"
     y1="28.6401"
     x2="65.511497"
     y2="120.5861"
     id="linearGradient1698"
     xlink:href="#XMLID_25_"
     gradientUnits="userSpaceOnUse" /><linearGradient
     x1="59.637199"
     y1="28.6401"
     x2="65.511497"
     y2="120.5861"
     id="linearGradient1702"
     xlink:href="#XMLID_25_"
     gradientUnits="userSpaceOnUse" /><radialGradient
     cx="87.546898"
     cy="108.1338"
     r="112.4545"
     id="radialGradient1705"
     xlink:href="#XMLID_24_"
     gradientUnits="userSpaceOnUse" /><linearGradient
     x1="132.50591"
     y1="35.3008"
     x2="40.759701"
     y2="115.4526"
     id="linearGradient1708"
     xlink:href="#XMLID_23_"
     gradientUnits="userSpaceOnUse" /><radialGradient
     cx="126.5"
     cy="130.1982"
     r="82.374199"
     id="radialGradient1711"
     xlink:href="#XMLID_22_"
     gradientUnits="userSpaceOnUse" /><radialGradient
     cx="79.615196"
     cy="116.7344"
     r="88.041702"
     id="radialGradient1714"
     xlink:href="#XMLID_21_"
     gradientUnits="userSpaceOnUse" /><linearGradient
     x1="54.9907"
     y1="39.262199"
     x2="63.210098"
     y2="110.0893"
     id="linearGradient1717"
     xlink:href="#XMLID_20_"
     gradientUnits="userSpaceOnUse" /><linearGradient
     x1="49.921902"
     y1="23.2446"
     x2="58.3703"
     y2="104.0195"
     id="linearGradient1720"
     xlink:href="#XMLID_19_"
     gradientUnits="userSpaceOnUse" /><linearGradient
     x1="59.637199"
     y1="28.6401"
     x2="65.511497"
     y2="120.5861"
     id="linearGradient1961"
     xlink:href="#XMLID_25_"
     gradientUnits="userSpaceOnUse"
     gradientTransform="matrix(0.991953,0,-0.237335,1,23.88646,1.421085e-14)" /><radialGradient
     cx="87.546898"
     cy="108.1338"
     r="112.4545"
     id="radialGradient1964"
     xlink:href="#XMLID_24_"
     gradientUnits="userSpaceOnUse"
     gradientTransform="matrix(0.991953,0,-0.237335,1,23.88646,1.421085e-14)" /><linearGradient
     x1="132.50591"
     y1="35.3008"
     x2="40.759701"
     y2="115.4526"
     id="linearGradient1967"
     xlink:href="#XMLID_23_"
     gradientUnits="userSpaceOnUse"
     gradientTransform="matrix(0.991953,0,-0.237335,1,23.88646,1.421085e-14)" /><radialGradient
     cx="126.5"
     cy="130.1982"
     r="82.374199"
     id="radialGradient1970"
     xlink:href="#XMLID_22_"
     gradientUnits="userSpaceOnUse"
     gradientTransform="matrix(0.991953,0,-0.237335,1,23.88646,1.421085e-14)" /><radialGradient
     cx="79.615196"
     cy="116.7344"
     r="88.041702"
     id="radialGradient1973"
     xlink:href="#XMLID_21_"
     gradientUnits="userSpaceOnUse"
     gradientTransform="matrix(0.991953,0,-0.237335,1,23.88646,1.421085e-14)" /><linearGradient
     x1="54.9907"
     y1="39.262199"
     x2="63.210098"
     y2="110.0893"
     id="linearGradient1976"
     xlink:href="#XMLID_20_"
     gradientUnits="userSpaceOnUse"
     gradientTransform="matrix(0.991953,0,-0.237335,1,23.88646,1.421085e-14)" /><linearGradient
     x1="49.921902"
     y1="23.2446"
     x2="58.3703"
     y2="104.0195"
     id="linearGradient1979"
     xlink:href="#XMLID_19_"
     gradientUnits="userSpaceOnUse"
     gradientTransform="matrix(0.991953,0,-0.237335,1,23.88646,1.421085e-14)" /><linearGradient
     x1="35.979"
     y1="15.0229"
     x2="68.9291"
     y2="107.2834"
     id="linearGradient2004"
     xlink:href="#XMLID_18_"
     gradientUnits="userSpaceOnUse" /><linearGradient
     x1="47.311501"
     y1="10.7583"
     x2="58.862999"
     y2="110.2979"
     id="linearGradient2007"
     xlink:href="#XMLID_17_"
     gradientUnits="userSpaceOnUse" /></defs>
<linearGradient
   x1="53.915501"
   y1="91.115196"
   x2="55.820202"
   y2="110.6698"
   id="XMLID_14_"
   gradientUnits="userSpaceOnUse">
	<stop
   style="stop-color:#999999;stop-opacity:1"
   offset="0"
   id="stop1430" />
	<stop
   style="stop-color:#4d4d4d;stop-opacity:1"
   offset="1"
   id="stop1432" />
</linearGradient>
<path
   d="M 6.946,16.1 C 3.116,16.1 0,19.209 0,23.031 L 0,96.069 C 0,99.891 3.116,103 6.946,103 L 100.054,103 C 103.884,103 106.999,99.891 106.999,96.069 L 106.999,32.097 C 106.999,28.275 103.884,25.166 100.054,25.166 L 62.729,25.166 C 59.936,25.166 56.399,23.674 53.928,21.453 C 53.928,21.453 52.893,20.525 52.893,20.525 C 50.779,18.626 47.521,16.1 43.647,16.1 L 6.946,16.1 L 6.946,16.1 z "
   style="opacity:0.75;fill:url(#linearGradient2007)"
   id="path1455" /><path
   d="M 106,96.069 C 106,99.332 103.324,102 100.055,102 L 6.946,102 C 3.676,102 1,99.332 1,96.069 L 1,23.031 C 1,19.769 3.676,17.1 6.946,17.1 L 43.647,17.1 C 46.918,17.1 49.796,19.087 52.225,21.269 L 53.259,22.197 C 55.688,24.379 59.459,26.166 62.729,26.166 L 100.055,26.166 C 103.325,26.166 106,28.834 106,32.097 L 106,96.069 z "
   style="fill:url(#linearGradient2004)"
   id="path1466" /><path
   d="M 100.055,26.167 L 62.729,26.167 C 59.459,26.167 55.688,24.38 53.259,22.198 L 52.225,21.27 C 49.797,19.088 46.918,17.101 43.647,17.101 L 6.946,17.101 C 3.676,17.1 1,19.769 1,23.031 L 1,24.031 C 1,20.769 3.676,18.1 6.946,18.1 L 43.647,18.1 C 46.918,18.1 49.796,20.087 52.225,22.269 L 53.259,23.197 C 55.688,25.379 59.459,27.166 62.729,27.166 L 100.055,27.166 C 103.325,27.166 106,29.834 106,33.097 L 106,32.097 C 106,28.835 103.324,26.167 100.055,26.167 z "
   style="fill:#ffffff"
   id="path1468" /><path
   d="M 42,24 C 42,25.1 41.1,26 40,26 L 9,26 C 7.9,26 7,25.1 7,24 L 7,22 C 7,20.9 7.9,20 9,20 L 40,20 C 41.1,20 42,20.9 42,22 L 42,24 z "
   style="fill:#f3af61"
   id="path1546" /><path
   d="M 8.3125,42 C 7.5745616,42.093894 7,42.736687 7,43.5 C 7,44.328 7.672,45 8.5,45 C 9.328,45 10,44.328 10,43.5 C 10,42.672 9.328,42 8.5,42 C 8.4353125,42 8.3750372,41.992043 8.3125,42 z M 17.3125,42 C 16.574562,42.093894 16,42.736687 16,43.5 C 16,44.328 16.672,45 17.5,45 C 18.328,45 19,44.328 19,43.5 C 19,42.672 18.328,42 17.5,42 C 17.435312,42 17.375037,41.992043 17.3125,42 z M 26.3125,42 C 25.574562,42.093894 25,42.736687 25,43.5 C 25,44.328 25.672,45 26.5,45 C 27.328,45 28,44.328 28,43.5 C 28,42.672 27.328,42 26.5,42 C 26.435312,42 26.375037,41.992043 26.3125,42 z M 35.3125,42 C 34.574562,42.093894 34,42.736687 34,43.5 C 34,44.328 34.672,45 35.5,45 C 36.328,45 37,44.328 37,43.5 C 37,42.672 36.328,42 35.5,42 C 35.435313,42 35.375037,41.992043 35.3125,42 z M 44.3125,42 C 43.574562,42.093894 43,42.736687 43,43.5 C 43,44.328 43.672,45 44.5,45 C 45.328,45 46,44.328 46,43.5 C 46,42.672 45.328,42 44.5,42 C 44.435313,42 44.375037,41.992043 44.3125,42 z M 53.3125,42 C 52.574562,42.093894 52,42.736687 52,43.5 C 52,44.328 52.672,45 53.5,45 C 54.328,45 55,44.328 55,43.5 C 55,42.672 54.328,42 53.5,42 C 53.435313,42 53.375037,41.992043 53.3125,42 z M 62.3125,42 C 61.574562,42.093894 61,42.736687 61,43.5 C 61,44.328 61.672,45 62.5,45 C 63.328,45 64,44.328 64,43.5 C 64,42.672 63.328,42 62.5,42 C 62.435313,42 62.375037,41.992043 62.3125,42 z M 8.3125,51 C 7.5745616,51.093894 7,51.736687 7,52.5 C 7,53.328 7.672,54 8.5,54 C 9.328,54 10,53.328 10,52.5 C 10,51.672 9.328,51 8.5,51 C 8.4353125,51 8.3750372,50.992043 8.3125,51 z M 8.3125,60 C 7.5745616,60.093894 7,60.736687 7,61.5 C 7,62.328 7.672,63 8.5,63 C 9.328,63 10,62.328 10,61.5 C 10,60.672 9.328,60 8.5,60 C 8.4353125,60 8.3750372,59.992043 8.3125,60 z M 8.3125,69 C 7.5745616,69.093894 7,69.736688 7,70.5 C 7,71.328 7.672,72 8.5,72 C 9.328,72 10,71.328 10,70.5 C 10,69.672 9.328,69 8.5,69 C 8.4353125,69 8.3750372,68.992043 8.3125,69 z M 8.3125,78 C 7.5745616,78.093894 7,78.736688 7,79.5 C 7,80.328 7.672,81 8.5,81 C 9.328,81 10,80.328 10,79.5 C 10,78.672 9.328,78 8.5,78 C 8.4353125,78 8.3750372,77.992043 8.3125,78 z M 8.3125,87 C 7.5745616,87.093894 7,87.736688 7,88.5 C 7,89.328 7.672,90 8.5,90 C 9.328,90 10,89.328 10,88.5 C 10,87.672 9.328,87 8.5,87 C 8.4353125,87 8.3750372,86.992043 8.3125,87 z "
   style="fill:#cccccc"
   id="path1548" /><path
   d="M 0,96.969 C 0,101.766 4.52,104 6.5,104 L 104.842,104 C 108.764,103.762 109,100.643 109,96.896 L 109,97.005 C 109,93.197 0,96.969 0,96.969 z "
   style="opacity:0.2;fill:url(#XMLID_14_)"
   id="path1434" />
<linearGradient
   x1="56.851101"
   y1="91.507797"
   x2="58.826099"
   y2="111.7843"
   id="XMLID_15_"
   gradientUnits="userSpaceOnUse">
	<stop
   style="stop-color:#999999;stop-opacity:1"
   offset="0"
   id="stop1437" />
	<stop
   style="stop-color:#4d4d4d;stop-opacity:1"
   offset="1"
   id="stop1439" />
</linearGradient>
<path
   d="M 0,97.969 C 0,102.078 3.266,105 6.5,105 L 108.053,105 C 111.975,104.762 115.167,104.246 115.167,100.5 L 115,98.005 C 115,94.296 0,95.861 0,97.969 z "
   style="opacity:0.2;fill:url(#XMLID_15_)"
   id="path1441" />
<linearGradient
   x1="57.940899"
   y1="89.600601"
   x2="60.232399"
   y2="113.1264"
   id="XMLID_16_"
   gradientUnits="userSpaceOnUse">
	<stop
   style="stop-color:#999999;stop-opacity:1"
   offset="0"
   id="stop1444" />
	<stop
   style="stop-color:#4d4d4d;stop-opacity:1"
   offset="1"
   id="stop1446" />
</linearGradient>
<path
   d="M 110.053,97.824 L 0,95.969 L 0,98.969 C 0,104.609 4.52,106 6.5,106 L 109.667,106 C 111.396,105.896 113.218,105.736 114.717,105.271 C 116.62,104.68 118,103.596 118,101.5 C 118,101.5 116.206,97.824 110.053,97.824 z "
   style="opacity:0.2;fill:url(#XMLID_16_)"
   id="path1448" />
<linearGradient
   x1="47.311501"
   y1="10.7583"
   x2="58.862999"
   y2="110.2979"
   id="XMLID_17_"
   gradientUnits="userSpaceOnUse">
	<stop
   style="stop-color:#999999;stop-opacity:1"
   offset="0"
   id="stop1451" />
	<stop
   style="stop-color:#4d4d4d;stop-opacity:1"
   offset="1"
   id="stop1453" />
</linearGradient>

<linearGradient
   x1="35.979"
   y1="15.0229"
   x2="68.9291"
   y2="107.2834"
   id="XMLID_18_"
   gradientUnits="userSpaceOnUse">
	<stop
   style="stop-color:#ffffff;stop-opacity:1"
   offset="0"
   id="stop1458" />
	<stop
   style="stop-color:#f4f4f4;stop-opacity:1"
   offset="0.2191"
   id="stop1460" />
	<stop
   style="stop-color:#d8d8d8;stop-opacity:1"
   offset="0.6013"
   id="stop1462" />
	<stop
   style="stop-color:#b3b3b3;stop-opacity:1"
   offset="1"
   id="stop1464" />
</linearGradient>


<linearGradient
   x1="49.921902"
   y1="23.2446"
   x2="58.3703"
   y2="104.0195"
   id="XMLID_19_"
   gradientUnits="userSpaceOnUse">
	<stop
   style="stop-color:#d9d9d9;stop-opacity:1"
   offset="0"
   id="stop1471" />
	<stop
   style="stop-color:#cecece;stop-opacity:1"
   offset="0.37490001"
   id="stop1473" />
	<stop
   style="stop-color:#b3b3b3;stop-opacity:1"
   offset="1"
   id="stop1475" />
</linearGradient>

<linearGradient
   x1="54.9907"
   y1="39.262199"
   x2="63.210098"
   y2="110.0893"
   id="XMLID_20_"
   gradientUnits="userSpaceOnUse">
	<stop
   style="stop-color:#999999;stop-opacity:1"
   offset="0"
   id="stop1480" />
	<stop
   style="stop-color:#4d4d4d;stop-opacity:1"
   offset="1"
   id="stop1482" />
</linearGradient>

<radialGradient
   cx="79.615196"
   cy="116.7344"
   r="88.041702"
   id="XMLID_21_"
   gradientUnits="userSpaceOnUse">
	<stop
   style="stop-color:#ffdd70;stop-opacity:1"
   offset="0"
   id="stop1487" />
	<stop
   style="stop-color:#ffab43;stop-opacity:1"
   offset="0.42250001"
   id="stop1489" />
	<stop
   style="stop-color:#ff841f;stop-opacity:1"
   offset="0.80220002"
   id="stop1491" />
	<stop
   style="stop-color:#ff7512;stop-opacity:1"
   offset="1"
   id="stop1493" />
</radialGradient>

<radialGradient
   cx="126.5"
   cy="130.1982"
   r="82.374199"
   id="XMLID_22_"
   gradientUnits="userSpaceOnUse">
	<stop
   style="stop-color:#f2d26a;stop-opacity:1"
   offset="0"
   id="stop1498" />
	<stop
   style="stop-color:#f6b650;stop-opacity:1"
   offset="0.26210001"
   id="stop1500" />
	<stop
   style="stop-color:#fc8723;stop-opacity:1"
   offset="0.75410002"
   id="stop1502" />
	<stop
   style="stop-color:#ff7512;stop-opacity:1"
   offset="1"
   id="stop1504" />
</radialGradient>

<linearGradient
   x1="132.50591"
   y1="35.3008"
   x2="40.759701"
   y2="115.4526"
   id="XMLID_23_"
   gradientUnits="userSpaceOnUse">
	<stop
   style="stop-color:#ffdd70;stop-opacity:1"
   offset="0"
   id="stop1509" />
	<stop
   style="stop-color:#ffb047;stop-opacity:1"
   offset="0.38260001"
   id="stop1511" />
	<stop
   style="stop-color:#ff8521;stop-opacity:1"
   offset="0.79100001"
   id="stop1513" />
	<stop
   style="stop-color:#ff7512;stop-opacity:1"
   offset="1"
   id="stop1515" />
</linearGradient>

<radialGradient
   cx="87.546898"
   cy="108.1338"
   r="112.4545"
   id="XMLID_24_"
   gradientUnits="userSpaceOnUse">
	<stop
   style="stop-color:#fff3cc;stop-opacity:1"
   offset="0"
   id="stop1520" />
	<stop
   style="stop-color:#ffdbaa;stop-opacity:1"
   offset="0.1912"
   id="stop1522" />
	<stop
   style="stop-color:#ffb06c;stop-opacity:1"
   offset="0.57380003"
   id="stop1524" />
	<stop
   style="stop-color:#ff9445;stop-opacity:1"
   offset="0.85399997"
   id="stop1526" />
	<stop
   style="stop-color:#ff8a36;stop-opacity:1"
   offset="1"
   id="stop1528" />
</radialGradient>

<linearGradient
   x1="59.637199"
   y1="28.6401"
   x2="65.511497"
   y2="120.5861"
   id="XMLID_25_"
   gradientUnits="userSpaceOnUse">
	<stop
   style="stop-color:#ebdba6;stop-opacity:1"
   offset="0"
   id="stop1533" />
	<stop
   style="stop-color:#ff7512;stop-opacity:1"
   offset="1"
   id="stop1535" />
</linearGradient>

<linearGradient
   x1="103.9541"
   y1="11.4053"
   x2="108.0303"
   y2="106.0095"
   id="XMLID_26_"
   gradientUnits="userSpaceOnUse">
	<stop
   style="stop-color:#999999;stop-opacity:1"
   offset="0"
   id="stop1540" />
	<stop
   style="stop-color:#4d4d4d;stop-opacity:1"
   offset="1"
   id="stop1542" />
</linearGradient>




<g
   style="display:inline"
   id="layer1" /><g
   style="display:inline"
   id="layer4"><path
     d="M 3.5136938,99.816 C 3.5136938,99.816 4.4499035,99.984 5.1831016,99.532 C 5.9571888,99.054 6.6517099,97.695 7.0786759,95.896 L 16.990746,54.132 C 17.894517,50.324 21.721464,47.227 25.520645,47.227 L 62.52844,47.227 C 65.500332,47.227 69.533808,45.22 72.213201,43.23 L 73.457187,42.306 C 77.267623,39.475 80.593864,38.099 83.628248,38.099 L 106.8817,38.660235 L 106.82802,37.499 L 82.778697,37.499 C 79.744311,37.499 76.418071,38.875 72.607635,41.706 L 71.363649,42.63 C 68.684493,44.619 64.650779,46.627 61.678887,46.627 L 24.671092,46.627 C 20.871912,46.627 17.044728,49.725 16.140956,53.533 L 6.2291238,95.296 C 5.8119197,97.313 4.8177208,99.174 4.0388686,99.647 C 3.886096,99.739 3.5136938,99.816 3.5136938,99.816 z "
     style="fill:url(#linearGradient1979)"
     id="path1477" /><path
     d="M 83.628011,38.1 C 80.593626,38.1 77.267386,39.476 73.45695,42.307 L 72.212964,43.231 C 69.533808,45.22 65.500332,47.227 62.52844,47.227 L 25.520645,47.227 C 21.721464,47.227 17.894281,50.325 16.990746,54.132 L 7.0789133,95.895 C 6.6405551,97.742 5.9607245,99.06 5.2131644,99.514 C 4.7750749,99.78 4.0683483,99.97 3.3506299,99.78 C 2.6393805,99.592 1.4029617,98.877121 1.020127,98.417121 C 0.68114812,98.838121 1.8727386,100.862 2.1691632,101.172 C 2.3429687,101.355 3.8065917,102.891 6.0702291,102.891 L 107.61641,103 C 111.56432,102.762 115.30448,99.642 116.19353,95.896 L 128.27177,45.005 C 129.1753,41.198 126.81964,38.1 123.01947,38.1 L 106.35419,38.1 L 83.628011,38.1 z "
     style="opacity:0.75;fill:url(#linearGradient1976)"
     id="path1484" /><path
     d="M 8.0706293,95.896 C 7.2596548,99.313 5.1810275,101.735 2.9744202,100.454 C 2.9744202,100.454 4.4513037,102.001 6.1257209,102.001 C 7.8001381,102.001 107.8535,102.001 107.8535,102.001 C 111.14566,101.801 114.43072,99.144 115.20135,95.897 L 127.27981,45.005 C 128.05068,41.757 126.02681,39.1 122.78214,39.1 L 83.390676,39.1 C 80.145997,39.1 76.866951,40.879 73.941767,43.052 L 72.697782,43.976 C 69.771843,46.148 65.536776,48.227 62.291105,48.227 L 25.28331,48.227 C 22.038631,48.227 18.753564,50.884 17.982699,54.132 L 8.0706293,95.896 z "
     style="fill:url(#radialGradient1973)"
     id="path1495" /><path
     d="M 122.78214,39.1 L 105.99573,39.116639 L 105.77229,99.975411 C 108.32953,99.975411 107.85375,102 107.85375,102 C 111.1459,101.8 114.43096,99.143 115.20159,95.896 L 127.27981,45.005 C 128.05068,41.757 126.02681,39.1 122.78214,39.1 z "
     style="fill:url(#radialGradient1970)"
     id="path1506" /><path
     d="M 108.32842,100 C 108.32842,100 8.3171201,99.48 6.6006288,100 C 6.254553,100.104 5.9526648,100.189 5.6798901,100.26 C 4.9482194,100.739 3.7531482,101.11 3.0180235,100.45 C 3.4069495,100.83 4.7203605,102 6.1259583,102 C 7.8003754,102 107.85375,102 107.85375,102 C 111.1459,101.8 114.43096,99.143 115.20159,95.896 L 115.43893,94.896 C 114.66829,98.143 111.62057,99.8 108.32842,100 z "
     style="fill:url(#linearGradient1967)"
     id="path1517" /><path
     d="M 65.463034,69.891 C 94.155613,66.5 122.35629,65.75 122.35629,65.75 L 127.27981,45.005 C 128.05068,41.757 126.02681,39.1 122.78214,39.1 L 83.390676,39.1 C 80.145997,39.1 76.866951,40.879 73.941767,43.052 L 72.697782,43.976 C 69.771843,46.148 65.536776,48.227 62.291105,48.227 L 25.28331,48.227 C 22.038631,48.227 18.753564,50.884 17.982699,54.132 L 10.715968,84.75 C 10.715968,84.75 36.769701,73.281 65.463034,69.891 z "
     style="fill:url(#radialGradient1964)"
     id="path1530" /><path
     d="M 122.78214,39.1 L 83.390676,39.1 C 80.145997,39.1 76.866951,40.879 73.941767,43.052 L 72.697782,43.976 C 69.771843,46.148 65.536776,48.227 62.291105,48.227 L 25.28331,48.227 C 22.038631,48.227 18.753564,50.884 17.982699,54.132 L 17.745364,55.132 C 18.516228,51.884 21.801295,49.227 25.045975,49.227 L 62.053769,49.227 C 65.298449,49.227 69.534508,47.148 72.460447,44.976 L 73.704432,44.052 C 76.629616,41.879 79.908662,40.1 83.153341,40.1 L 122.54479,40.1 C 125.78948,40.1 127.81335,42.757 127.04248,46.005 L 127.27981,45.005 C 128.05068,41.757 126.02681,39.1 122.78214,39.1 z "
     style="fill:url(#linearGradient1961)"
     id="path1537" /><rect
     width="1.0480413"
     height="63"
     x="105.66991"
     y="39"
     style="opacity:0.15;fill:url(#linearGradient1625);overflow:visible"
     id="rect1544" /></g><g
   style="display:inline"
   id="layer5"><path
     d="M 17.5,51 C 16.672,51 16,51.672 16,52.5 C 16,53.328 16.672,54 17.5,54 C 18.328,54 19,53.328 19,52.5 C 19,51.672 18.328,51 17.5,51 z M 26.5,51 C 25.672,51 25,51.672 25,52.5 C 25,53.328 25.672,54 26.5,54 C 27.328,54 28,53.328 28,52.5 C 28,51.672 27.328,51 26.5,51 z M 35.5,51 C 34.672,51 34,51.672 34,52.5 C 34,53.328 34.672,54 35.5,54 C 36.328,54 37,53.328 37,52.5 C 37,51.672 36.328,51 35.5,51 z M 44.5,51 C 43.672,51 43,51.672 43,52.5 C 43,53.328 43.672,54 44.5,54 C 45.328,54 46,53.328 46,52.5 C 46,51.672 45.328,51 44.5,51 z M 53.5,51 C 52.672,51 52,51.672 52,52.5 C 52,53.328 52.672,54 53.5,54 C 54.328,54 55,53.328 55,52.5 C 55,51.672 54.328,51 53.5,51 z M 62.5,51 C 61.672,51 61,51.672 61,52.5 C 61,53.328 61.672,54 62.5,54 C 63.328,54 64,53.328 64,52.5 C 64,51.672 63.328,51 62.5,51 z M 71.5,51 C 70.672,51 70,51.672 70,52.5 C 70,53.328 70.672,54 71.5,54 C 72.328,54 73,53.328 73,52.5 C 73,51.672 72.328,51 71.5,51 z M 80.5,51 C 79.672,51 79,51.672 79,52.5 C 79,53.328 79.672,54 80.5,54 C 81.328,54 82,53.328 82,52.5 C 82,51.672 81.328,51 80.5,51 z M 89.5,51 C 88.672,51 88,51.672 88,52.5 C 88,53.328 88.672,54 89.5,54 C 90.328,54 91,53.328 91,52.5 C 91,51.672 90.328,51 89.5,51 z M 98.5,51 C 97.672,51 97,51.672 97,52.5 C 97,53.328 97.672,54 98.5,54 C 99.328,54 100,53.328 100,52.5 C 100,51.672 99.328,51 98.5,51 z M 71.5,42 C 70.672,42 70,42.672 70,43.5 C 70,44.328 70.672,45 71.5,45 C 72.328,45 73,44.328 73,43.5 C 73,42.672 72.328,42 71.5,42 z M 80.5,42 C 79.672,42 79,42.672 79,43.5 C 79,44.328 79.672,45 80.5,45 C 81.328,45 82,44.328 82,43.5 C 82,42.672 81.328,42 80.5,42 z M 89.5,42 C 88.672,42 88,42.672 88,43.5 C 88,44.328 88.672,45 89.5,45 C 90.328,45 91,44.328 91,43.5 C 91,42.672 90.328,42 89.5,42 z M 98.5,45 C 99.328,45 100,44.328 100,43.5 C 100,42.672 99.328,42 98.5,42 C 97.672,42 97,42.672 97,43.5 C 97,44.328 97.672,45 98.5,45 z M 17.5,60 C 16.672,60 16,60.672 16,61.5 C 16,62.328 16.672,63 17.5,63 C 18.328,63 19,62.328 19,61.5 C 19,60.672 18.328,60 17.5,60 z M 26.5,60 C 25.672,60 25,60.672 25,61.5 C 25,62.328 25.672,63 26.5,63 C 27.328,63 28,62.328 28,61.5 C 28,60.672 27.328,60 26.5,60 z M 35.5,60 C 34.672,60 34,60.672 34,61.5 C 34,62.328 34.672,63 35.5,63 C 36.328,63 37,62.328 37,61.5 C 37,60.672 36.328,60 35.5,60 z M 44.5,60 C 43.672,60 43,60.672 43,61.5 C 43,62.328 43.672,63 44.5,63 C 45.328,63 46,62.328 46,61.5 C 46,60.672 45.328,60 44.5,60 z M 53.5,60 C 52.672,60 52,60.672 52,61.5 C 52,62.328 52.672,63 53.5,63 C 54.328,63 55,62.328 55,61.5 C 55,60.672 54.328,60 53.5,60 z M 62.5,60 C 61.672,60 61,60.672 61,61.5 C 61,62.328 61.672,63 62.5,63 C 63.328,63 64,62.328 64,61.5 C 64,60.672 63.328,60 62.5,60 z M 71.5,60 C 70.672,60 70,60.672 70,61.5 C 70,62.328 70.672,63 71.5,63 C 72.328,63 73,62.328 73,61.5 C 73,60.672 72.328,60 71.5,60 z M 80.5,60 C 79.672,60 79,60.672 79,61.5 C 79,62.328 79.672,63 80.5,63 C 81.328,63 82,62.328 82,61.5 C 82,60.672 81.328,60 80.5,60 z M 89.5,60 C 88.672,60 88,60.672 88,61.5 C 88,62.328 88.672,63 89.5,63 C 90.328,63 91,62.328 91,61.5 C 91,60.672 90.328,60 89.5,60 z M 98.5,60 C 97.672,60 97,60.672 97,61.5 C 97,62.328 97.672,63 98.5,63 C 99.328,63 100,62.328 100,61.5 C 100,60.672 99.328,60 98.5,60 z M 17.5,69 C 16.672,69 16,69.672 16,70.5 C 16,71.328 16.672,72 17.5,72 C 18.328,72 19,71.328 19,70.5 C 19,69.672 18.328,69 17.5,69 z M 26.5,69 C 25.672,69 25,69.672 25,70.5 C 25,71.328 25.672,72 26.5,72 C 27.328,72 28,71.328 28,70.5 C 28,69.672 27.328,69 26.5,69 z M 35.5,69 C 34.672,69 34,69.672 34,70.5 C 34,71.328 34.672,72 35.5,72 C 36.328,72 37,71.328 37,70.5 C 37,69.672 36.328,69 35.5,69 z M 44.5,69 C 43.672,69 43,69.672 43,70.5 C 43,71.328 43.672,72 44.5,72 C 45.328,72 46,71.328 46,70.5 C 46,69.672 45.328,69 44.5,69 z M 53.5,69 C 52.672,69 52,69.672 52,70.5 C 52,71.328 52.672,72 53.5,72 C 54.328,72 55,71.328 55,70.5 C 55,69.672 54.328,69 53.5,69 z M 62.5,69 C 61.672,69 61,69.672 61,70.5 C 61,71.328 61.672,72 62.5,72 C 63.328,72 64,71.328 64,70.5 C 64,69.672 63.328,69 62.5,69 z M 71.5,69 C 70.672,69 70,69.672 70,70.5 C 70,71.328 70.672,72 71.5,72 C 72.328,72 73,71.328 73,70.5 C 73,69.672 72.328,69 71.5,69 z M 80.5,69 C 79.672,69 79,69.672 79,70.5 C 79,71.328 79.672,72 80.5,72 C 81.328,72 82,71.328 82,70.5 C 82,69.672 81.328,69 80.5,69 z M 89.5,69 C 88.672,69 88,69.672 88,70.5 C 88,71.328 88.672,72 89.5,72 C 90.328,72 91,71.328 91,70.5 C 91,69.672 90.328,69 89.5,69 z M 98.5,69 C 97.672,69 97,69.672 97,70.5 C 97,71.328 97.672,72 98.5,72 C 99.328,72 100,71.328 100,70.5 C 100,69.672 99.328,69 98.5,69 z M 17.5,78 C 16.672,78 16,78.672 16,79.5 C 16,80.328 16.672,81 17.5,81 C 18.328,81 19,80.328 19,79.5 C 19,78.672 18.328,78 17.5,78 z M 26.5,78 C 25.672,78 25,78.672 25,79.5 C 25,80.328 25.672,81 26.5,81 C 27.328,81 28,80.328 28,79.5 C 28,78.672 27.328,78 26.5,78 z M 35.5,78 C 34.672,78 34,78.672 34,79.5 C 34,80.328 34.672,81 35.5,81 C 36.328,81 37,80.328 37,79.5 C 37,78.672 36.328,78 35.5,78 z M 44.5,78 C 43.672,78 43,78.672 43,79.5 C 43,80.328 43.672,81 44.5,81 C 45.328,81 46,80.328 46,79.5 C 46,78.672 45.328,78 44.5,78 z M 53.5,78 C 52.672,78 52,78.672 52,79.5 C 52,80.328 52.672,81 53.5,81 C 54.328,81 55,80.328 55,79.5 C 55,78.672 54.328,78 53.5,78 z M 62.5,78 C 61.672,78 61,78.672 61,79.5 C 61,80.328 61.672,81 62.5,81 C 63.328,81 64,80.328 64,79.5 C 64,78.672 63.328,78 62.5,78 z M 71.5,78 C 70.672,78 70,78.672 70,79.5 C 70,80.328 70.672,81 71.5,81 C 72.328,81 73,80.328 73,79.5 C 73,78.672 72.328,78 71.5,78 z M 80.5,78 C 79.672,78 79,78.672 79,79.5 C 79,80.328 79.672,81 80.5,81 C 81.328,81 82,80.328 82,79.5 C 82,78.672 81.328,78 80.5,78 z M 89.5,78 C 88.672,78 88,78.672 88,79.5 C 88,80.328 88.672,81 89.5,81 C 90.328,81 91,80.328 91,79.5 C 91,78.672 90.328,78 89.5,78 z M 98.5,78 C 97.672,78 97,78.672 97,79.5 C 97,80.328 97.672,81 98.5,81 C 99.328,81 100,80.328 100,79.5 C 100,78.672 99.328,78 98.5,78 z M 17.5,87 C 16.672,87 16,87.672 16,88.5 C 16,89.328 16.672,90 17.5,90 C 18.328,90 19,89.328 19,88.5 C 19,87.672 18.328,87 17.5,87 z M 26.5,87 C 25.672,87 25,87.672 25,88.5 C 25,89.328 25.672,90 26.5,90 C 27.328,90 28,89.328 28,88.5 C 28,87.672 27.328,87 26.5,87 z M 35.5,87 C 34.672,87 34,87.672 34,88.5 C 34,89.328 34.672,90 35.5,90 C 36.328,90 37,89.328 37,88.5 C 37,87.672 36.328,87 35.5,87 z M 44.5,87 C 43.672,87 43,87.672 43,88.5 C 43,89.328 43.672,90 44.5,90 C 45.328,90 46,89.328 46,88.5 C 46,87.672 45.328,87 44.5,87 z M 53.5,87 C 52.672,87 52,87.672 52,88.5 C 52,89.328 52.672,90 53.5,90 C 54.328,90 55,89.328 55,88.5 C 55,87.672 54.328,87 53.5,87 z M 62.5,87 C 61.672,87 61,87.672 61,88.5 C 61,89.328 61.672,90 62.5,90 C 63.328,90 64,89.328 64,88.5 C 64,87.672 63.328,87 62.5,87 z M 71.5,87 C 70.672,87 70,87.672 70,88.5 C 70,89.328 70.672,90 71.5,90 C 72.328,90 73,89.328 73,88.5 C 73,87.672 72.328,87 71.5,87 z M 80.5,87 C 79.672,87 79,87.672 79,88.5 C 79,89.328 79.672,90 80.5,90 C 81.328,90 82,89.328 82,88.5 C 82,87.672 81.328,87 80.5,87 z M 89.5,87 C 88.672,87 88,87.672 88,88.5 C 88,89.328 88.672,90 89.5,90 C 90.328,90 91,89.328 91,88.5 C 91,87.672 90.328,87 89.5,87 z M 98.5,87 C 97.672,87 97,87.672 97,88.5 C 97,89.328 97.672,90 98.5,90 C 99.328,90 100,89.328 100,88.5 C 100,87.672 99.328,87 98.5,87 z "
     style="opacity:0.07000002;fill:#802600;overflow:visible"
     id="path1550" /></g></svg>