<?xml version="1.0" encoding="UTF-8" standalone="no"?>
<!-- Created with Inkscape (http://www.inkscape.org/) -->
<svg
   xmlns:dc="http://purl.org/dc/elements/1.1/"
   xmlns:cc="http://creativecommons.org/ns#"
   xmlns:rdf="http://www.w3.org/1999/02/22-rdf-syntax-ns#"
   xmlns:svg="http://www.w3.org/2000/svg"
   xmlns="http://www.w3.org/2000/svg"
   xmlns:xlink="http://www.w3.org/1999/xlink"
   xmlns:sodipodi="http://sodipodi.sourceforge.net/DTD/sodipodi-0.dtd"
   xmlns:inkscape="http://www.inkscape.org/namespaces/inkscape"
   version="1.0"
   width="48"
   height="48"
   id="svg1872"
   sodipodi:version="0.32"
   inkscape:version="0.45+devel"
   sodipodi:docname="emblem-ohno.svg"
   sodipodi:docbase="/usr/share/icons/Human/48x48/emblems"
   inkscape:output_extension="org.inkscape.output.svg.inkscape">
  <metadata
     id="metadata10">
    <rdf:RDF>
      <cc:Work
         rdf:about="">
        <dc:format>image/svg+xml</dc:format>
        <dc:type
           rdf:resource="http://purl.org/dc/dcmitype/StillImage" />
      </cc:Work>
    </rdf:RDF>
  </metadata>
  <sodipodi:namedview
     inkscape:window-height="701"
     inkscape:window-width="1024"
     inkscape:pageshadow="2"
     inkscape:pageopacity="0.0"
     guidetolerance="10.0"
     gridtolerance="10.0"
     objecttolerance="10.0"
     borderopacity="1.0"
     bordercolor="#666666"
     pagecolor="#ffffff"
     id="base"
     inkscape:zoom="12.71875"
     inkscape:cx="17.635021"
     inkscape:cy="10.921407"
     inkscape:window-x="0"
     inkscape:window-y="24"
     inkscape:current-layer="svg1872"
     showgrid="true"
     width="48px"
     height="48px" />
  <defs
     id="defs1874">
    <linearGradient
       id="linearGradient9233">
      <stop
         id="stop9235"
         offset="0"
         style="stop-color:#eeeeec;stop-opacity:1;" />
      <stop
         id="stop9237"
         offset="1"
         style="stop-color:#eeeeec;stop-opacity:0;" />
    </linearGradient>
    <linearGradient
       inkscape:collect="always"
       xlink:href="#linearGradient9233"
       id="linearGradient16194"
       gradientUnits="userSpaceOnUse"
       gradientTransform="translate(22.43465,4.820297)"
       x1="-10.638614"
       y1="7.1375623"
       x2="-15.286263"
       y2="-6.2254333" />
  </defs>
  <g
     id="g16183"
     transform="matrix(3.3932944,0,0,3.3932521,-2.8994163,-2.8988019)">
    <path
       id="path1880"
       style="fill:#ff7000;fill-opacity:1;fill-rule:evenodd;stroke:none;stroke-width:1px;stroke-linecap:butt;stroke-linejoin:miter;stroke-opacity:1"
       d="M 15,8.000003 C 15,11.865998 11.833412,15.000006 7.9272274,15.000006 C 4.0210429,15.000006 0.8544547,11.865998 0.8544547,8.000003 C 0.8544547,4.134008 4.0210429,0.99999983 7.9272273,0.99999983 C 11.833412,0.99999983 15,4.134008 15,8.000003 L 15,8.000003 z" />
    <path
       id="path2798"
       style="fill:none;fill-opacity:1;stroke:#ffffff;stroke-width:0.65297854;stroke-opacity:1"
       d="M 13.480132,8.0000045 C 13.480132,11.026604 11.026591,13.480147 7.9999946,13.480147 C 4.9733983,13.480147 2.5198572,11.026604 2.5198572,8.0000045 C 2.5198572,4.9734052 4.9733983,2.5198618 7.9999946,2.5198618 C 11.026591,2.5198618 13.480132,4.9734052 13.480132,8.0000045 L 13.480132,8.0000045 z" />
    <path
       id="path12954"
       style="fill:#ffffff;fill-opacity:1;stroke:#ffffff;stroke-width:0.23048849;stroke-linecap:round;stroke-linejoin:round;stroke-miterlimit:4;stroke-dasharray:none;stroke-opacity:1"
       transform="translate(-0.477434,0.189964)"
       d="M 6.9975431,6.4275184 C 6.9975431,7.0897173 6.6983329,7.6265356 6.3292384,7.6265356 C 5.9601439,7.6265356 5.6609337,7.0897173 5.6609337,6.4275184 C 5.6609337,5.7653195 5.9601439,5.2285012 6.3292384,5.2285012 C 6.6983329,5.2285012 6.9975431,5.7653195 6.9975431,6.4275184 z" />
    <path
       id="path12956"
       style="fill:#ffffff;fill-opacity:1;stroke:#ffffff;stroke-width:0.23048849;stroke-linecap:round;stroke-linejoin:round;stroke-miterlimit:4;stroke-dasharray:none;stroke-opacity:1"
       transform="translate(3.522566,0.189964)"
       d="M 6.9975431,6.4275184 C 6.9975431,7.0897173 6.6983329,7.6265356 6.3292384,7.6265356 C 5.9601439,7.6265356 5.6609337,7.0897173 5.6609337,6.4275184 C 5.6609337,5.7653195 5.9601439,5.2285012 6.3292384,5.2285012 C 6.6983329,5.2285012 6.9975431,5.7653195 6.9975431,6.4275184 z" />
    <path
       id="path12958"
       style="fill:#ffffff;fill-opacity:1;stroke:#ffffff;stroke-width:0.23048849;stroke-linecap:round;stroke-linejoin:round;stroke-miterlimit:4;stroke-dasharray:none;stroke-opacity:1"
       d="M 10.732186,10.181818 C 10.732681,10.855032 9.5356951,11.400899 8.0589675,11.400899 C 6.5822398,11.400899 5.3852542,10.855032 5.3857489,10.181818 C 5.3852542,9.508604 6.5822398,8.9627365 8.0589675,8.9627365 C 9.5356951,8.9627365 10.732681,9.508604 10.732186,10.181818 z" />
    <g
       transform="translate(-2.882053e-2,-8.451518e-2)"
       id="g2901">
      <rect
         style="fill:none;fill-opacity:1;stroke:none;stroke-width:1.55158257;stroke-linecap:round;stroke-linejoin:round;stroke-miterlimit:4;stroke-dasharray:none;stroke-opacity:1"
         id="rect2942"
         width="5.4196706"
         height="3.3571696"
         x="1.8729681"
         y="7.4712706"
         transform="matrix(0.963005,-0.269485,0.269485,0.963005,0,0)" />
      <g
         inkscape:label="Layer 1"
         id="layer1"
         transform="translate(4.12207e-2,7.47524e-2)">
        <path
           sodipodi:nodetypes="cscssscc"
           id="path2394"
           d="M 7.9427597,0.86404707 C 4.0385897,0.86404707 0.84900969,4.0000455 0.84900969,7.8640471 C 0.84900969,8.0858123 0.86349668,8.4076816 0.88391068,8.6241956 C 1.3397607,8.3659402 1.7383699,8.0386301 2.2682039,7.8091296 C 3.7929949,7.1486588 5.5835057,6.4835094 7.5990097,6.1140471 C 9.6145137,5.7445847 11.805164,5.551547 14.13026,5.551547 C 14.274086,5.551547 14.393542,5.5812424 14.53651,5.582797 C 13.570792,2.8541184 11.028181,0.86404707 7.9427597,0.86404707 z"
           style="fill:url(#linearGradient16194);fill-opacity:1;fill-rule:evenodd;stroke:none;stroke-width:1px;stroke-linecap:butt;stroke-linejoin:miter;stroke-opacity:1" />
      </g>
    </g>
  </g>
</svg>
