<?xml version="1.0" encoding="UTF-8" standalone="no"?>
<!-- Created with Inkscape (http://www.inkscape.org/) -->
<svg
   xmlns:dc="http://purl.org/dc/elements/1.1/"
   xmlns:cc="http://creativecommons.org/ns#"
   xmlns:rdf="http://www.w3.org/1999/02/22-rdf-syntax-ns#"
   xmlns:svg="http://www.w3.org/2000/svg"
   xmlns="http://www.w3.org/2000/svg"
   xmlns:xlink="http://www.w3.org/1999/xlink"
   xmlns:sodipodi="http://sodipodi.sourceforge.net/DTD/sodipodi-0.dtd"
   xmlns:inkscape="http://www.inkscape.org/namespaces/inkscape"
   version="1.0"
   width="48"
   height="48"
   id="svg1872"
   sodipodi:version="0.32"
   inkscape:version="0.45+devel"
   sodipodi:docname="emblem-web.svg"
   sodipodi:docbase="/usr/share/icons/Human/48x48/emblems"
   inkscape:output_extension="org.inkscape.output.svg.inkscape">
  <metadata
     id="metadata10">
    <rdf:RDF>
      <cc:Work
         rdf:about="">
        <dc:format>image/svg+xml</dc:format>
        <dc:type
           rdf:resource="http://purl.org/dc/dcmitype/StillImage" />
      </cc:Work>
    </rdf:RDF>
  </metadata>
  <sodipodi:namedview
     inkscape:window-height="701"
     inkscape:window-width="1024"
     inkscape:pageshadow="2"
     inkscape:pageopacity="0.0"
     guidetolerance="10.0"
     gridtolerance="10.0"
     objecttolerance="10.0"
     borderopacity="1.0"
     bordercolor="#666666"
     pagecolor="#ffffff"
     id="base"
     inkscape:zoom="8.9935144"
     inkscape:cx="42.006351"
     inkscape:cy="16.358355"
     inkscape:window-x="0"
     inkscape:window-y="24"
     inkscape:current-layer="svg1872"
     width="48px"
     height="48px"
     showgrid="true"
     gridspacingx="1px"
     gridspacingy="1px"
     gridoriginx="0px"
     inkscape:document-units="px"
     grid_units="px"
     gridempspacing="5" />
  <defs
     id="defs1874">
    <linearGradient
       id="linearGradient9233">
      <stop
         id="stop9235"
         offset="0"
         style="stop-color:#eeeeec;stop-opacity:1;" />
      <stop
         id="stop9237"
         offset="1"
         style="stop-color:#eeeeec;stop-opacity:0;" />
    </linearGradient>
    <linearGradient
       inkscape:collect="always"
       xlink:href="#linearGradient9233"
       id="linearGradient4039"
       gradientUnits="userSpaceOnUse"
       gradientTransform="translate(22.43465,4.820297)"
       x1="-10.638614"
       y1="7.1375623"
       x2="-15.286263"
       y2="-6.2254333" />
    <linearGradient
       inkscape:collect="always"
       xlink:href="#linearGradient9233"
       id="linearGradient2285"
       gradientUnits="userSpaceOnUse"
       gradientTransform="translate(22.43465,4.820297)"
       x1="-10.638614"
       y1="7.1375623"
       x2="-15.286263"
       y2="-6.2254333" />
  </defs>
  <g
     id="g2269"
     transform="matrix(1.6,0,0,1.6042041,-1.5999972,-1.7303319)">
    <path
       transform="matrix(1.49165,-0.294911,0.296125,1.485543,4.726514,7.081159)"
       d="M 6.5772277,10.143565 C 4.8570598,10.923016 5.3677228,6.928033 3.5179278,6.5475329 C 1.6681329,6.1670327 0.56052903,10.039225 -0.71233418,8.6441122 C -1.9851974,7.2489989 1.9720605,6.5001507 1.7623196,4.6233101 C 1.5525787,2.7464695 -2.4723639,2.8896491 -1.5388686,1.2479705 C -0.60537345,-0.39370804 1.3296835,3.138461 3.0498514,2.35901 C 4.7700194,1.5795589 3.3900719,-2.2041441 5.2398669,-1.823644 C 7.0896618,-1.4431438 4.3283349,1.4887049 5.6011981,2.8838182 C 6.8740612,4.2789316 10.046149,1.797295 10.25589,3.6741356 C 10.465631,5.5509761 6.8239804,3.8307892 5.8904852,5.4724678 C 4.9569899,7.1141463 8.2973957,9.3641135 6.5772277,10.143565 z"
       inkscape:randomized="0"
       inkscape:rounded="0.4"
       inkscape:flatsided="false"
       sodipodi:arg2="1.7736652"
       sodipodi:arg1="1.1453467"
       sodipodi:r2="2.2157443"
       sodipodi:r1="6.330698"
       sodipodi:cy="4.3772278"
       sodipodi:cx="3.9643564"
       sodipodi:sides="5"
       id="path2768"
       style="fill:#ffffff;fill-opacity:1;stroke:none"
       sodipodi:type="star" />
    <rect
       style="fill:none;fill-opacity:1;stroke:none;stroke-width:1.55158257;stroke-linecap:round;stroke-linejoin:round;stroke-miterlimit:4;stroke-dasharray:none;stroke-opacity:1"
       id="rect2942"
       width="8.4324255"
       height="5.2482886"
       x="18.849617"
       y="11.685694"
       transform="matrix(0.962614,-0.270878,0.268098,0.963392,0,0)" />
    <path
       d="M 30.999998,16.113145 C 30.999998,24.33493 24.28427,31.000003 15.999998,31.000003 C 7.715727,31.000003 0.99999822,24.33493 0.99999822,16.113145 C 0.99999822,7.8913609 7.715727,1.2262876 15.999998,1.2262876 C 24.28427,1.2262876 30.999998,7.8913609 30.999998,16.113145 L 30.999998,16.113145 z"
       style="fill:#ff7000;fill-opacity:1;fill-rule:evenodd;stroke:none;stroke-width:1px;stroke-linecap:butt;stroke-linejoin:miter;stroke-opacity:1"
       id="path1880" />
    <path
       d="M 27.776648,16.113149 C 27.776648,22.549797 22.573156,27.767729 16.154324,27.767729 C 9.7354909,27.767729 4.5319988,22.549797 4.5319988,16.113149 C 4.5319988,9.676501 9.7354909,4.4585675 16.154324,4.4585675 C 22.573156,4.4585675 27.776648,9.676501 27.776648,16.113149 L 27.776648,16.113149 z"
       style="fill:none;fill-opacity:1;stroke:#ffffff;stroke-width:1.37825358;stroke-opacity:1"
       id="path2798" />
    <path
       id="path1946"
       d="M 16.795495,18.640138 C 16.669483,18.74895 16.322227,19.025234 15.959517,19.025234 C 15.644207,19.025234 15.432683,18.940424 15.175788,18.805179 C 14.869474,18.643917 14.775966,18.331556 14.705551,18.034987 C 14.615805,17.657006 14.645211,17.493368 14.914545,17.20978 C 15.104613,17.009654 15.064036,16.635186 15.12354,16.384574 C 15.206398,16.0356 15.127857,15.884904 15.332534,15.669395 C 15.549632,15.440808 15.837938,15.412576 16.116263,15.339313 C 16.383439,15.268984 16.687681,15.01185 16.899993,14.844189 C 17.131372,14.661471 17.419717,14.583601 17.683722,14.514106 C 17.858872,14.468001 18.212978,14.56912 18.467452,14.56912 C 18.812567,14.56912 18.881534,14.721436 19.251181,14.624134 C 19.493285,14.560404 19.623117,14.902464 19.825916,15.00923 C 20.150208,15.179957 20.322557,15.257086 20.609646,15.559368 C 20.772763,15.731118 20.849278,16.141766 21.027634,16.32956 C 21.181023,16.491067 21.61369,16.607609 21.811362,16.659643 C 22.19428,16.760438 22.22728,16.875338 22.386097,17.20978 C 22.512777,17.47655 22.630389,17.688519 22.699588,17.979973 C 22.761658,18.241396 23.218784,18.248109 23.326572,18.475097 C 23.452957,18.741244 23.500232,19.009015 23.431068,19.300303 C 23.362528,19.588973 23.341214,19.843782 23.274326,20.125509 C 23.200311,20.437231 23.251124,20.669489 23.117579,20.950715 C 23.015941,21.164747 22.520092,21.34779 22.333849,21.445839 C 21.997968,21.622667 21.822867,21.890615 21.550118,22.106002 C 21.254518,22.339439 21.093088,22.408276 20.923137,22.766168 C 20.775453,23.07717 20.805891,23.274718 20.557397,23.536361 C 20.355231,23.749226 20.267664,24.053143 20.087159,24.306556 C 19.868605,24.613382 19.889784,24.812372 19.512424,24.911708 C 19.210083,24.991291 18.938908,24.913418 18.780943,24.691651 C 18.656833,24.517413 18.678385,24.125897 18.571949,23.976472 C 18.369959,23.692898 18.189192,23.500528 18.049463,23.206279 C 17.918189,22.929839 17.840468,22.702665 17.840468,22.381073 C 17.840468,22.148341 18.055821,21.762533 18.153959,21.555867 C 18.282177,21.285862 18.437417,21.187239 18.5197,20.840686 C 18.601232,20.4973 18.553143,20.305963 18.415203,20.015482 C 18.392832,19.968371 17.746688,19.680109 17.683722,19.630386 C 17.396178,19.403314 17.205956,19.174422 17.056739,18.860193 C 17.006866,18.755169 16.882576,18.71349 16.795495,18.640138 z"
       style="fill:#ffffff;fill-opacity:1;fill-rule:evenodd;stroke:#ffffff;stroke-width:0.85125101px;stroke-linecap:butt;stroke-linejoin:miter;stroke-opacity:1" />
    <path
       sodipodi:nodetypes="cssssssc"
       id="path1948"
       d="M 5.0239958,15.820523 C 4.5839027,15.553348 6.9549069,15.680036 7.1917024,16.154941 C 7.4610208,16.695073 7.8706922,17.265712 8.4423023,17.409011 C 8.5617595,17.438958 8.9084464,18.442714 8.9425422,18.579476 C 8.997116,18.798376 9.1222668,19.274341 9.2760356,19.582732 C 9.4422496,19.916082 8.4919935,20.280914 8.2755557,20.335173 C 7.7266101,20.472789 7.6679087,20.924671 7.3584489,21.338428 C 7.1235846,21.652451 7.0558648,21.900415 6.6914623,22.174476"
       style="fill:#ffffff;fill-opacity:1;fill-rule:evenodd;stroke:#ffffff;stroke-width:1.32560265px;stroke-linecap:butt;stroke-linejoin:miter;stroke-opacity:1" />
    <path
       sodipodi:nodetypes="csssssssssssssssssssssssssssssc"
       id="path2843"
       d="M 27.065526,14.975485 C 26.630765,14.950205 26.303833,14.870274 26.052895,15.340028 C 25.841206,15.7363 25.878567,15.940648 25.507629,16.28784 C 25.124791,16.646173 24.717163,16.1211 24.494997,16.069115 C 24.062011,15.967797 23.90371,15.545505 23.71605,15.194211 C 23.493045,14.776751 23.267944,14.628972 22.859207,14.246398 C 22.583869,13.988686 22.400497,13.898064 22.158154,13.444404 C 21.965074,13.082965 21.243895,13.463571 20.989733,13.225678 C 20.664218,12.921 21.153826,12.24724 20.678152,11.913322 C 20.296102,11.645125 18.441017,11.14862 18.425878,11.602259 C 18.406263,12.189986 19.83149,13.428901 18.83607,12.927274 C 18.428884,12.722078 17.832612,11.838363 17.406571,12.037747 C 16.939889,12.256152 16.879345,12.528825 16.393939,12.642408 C 15.997554,12.735162 15.303412,12.65576 15.303412,12.861134 C 15.303412,13.34725 15.393747,13.830085 14.680253,13.663129 C 14.235528,13.559065 14.318231,13.517312 13.901305,13.517312 C 13.38931,13.517312 14.131493,12.500955 14.13499,12.496591 C 14.344809,12.23474 14.446569,11.732659 14.446569,11.402962 C 14.446569,11.276596 15.126477,11.190494 15.225517,10.819692 C 15.335338,10.408528 15.556447,10.145402 15.770781,9.9447887 C 15.911335,9.8132312 16.601319,9.6410822 16.861308,9.5802454 C 17.357116,9.4642277 17.517687,9.5646982 17.951835,9.3615195 C 18.364067,9.1685972 18.727773,9.034839 19.120257,8.8511591 C 19.727472,8.5669857 19.10082,8.1464215 18.964467,7.9762553 C 18.706609,7.654452 17.985983,8.1345552 17.796045,8.26789 C 17.356725,8.5762887 17.037678,8.7246047 16.627623,8.3407985 C 16.328086,8.0604351 16.855234,7.4715802 17.017097,7.3200775 C 17.347771,7.0105706 17.719459,6.9549218 18.02973,6.8097172 C 18.49848,6.5903443 18.2311,6.0806307 18.808678,6.0806307 C 19.175075,6.0806307 19.536642,6.2993566 19.9771,6.2993566 C 19.993481,6.2993566 20.243799,6.0497294 20.288679,6.0077219"
       style="fill:#ffffff;fill-opacity:1;fill-rule:evenodd;stroke:#ffffff;stroke-width:0.35896298;stroke-linecap:butt;stroke-linejoin:miter;stroke-miterlimit:4;stroke-dasharray:none;stroke-opacity:1" />
    <path
       id="path3730"
       d="M 20.698181,6.8748265 C 21.222564,7.8310109 22.833772,10.128903 23.782995,11.556686 C 24.372211,12.442963 25.241963,13.52133 25.950702,14.232035 C 26.22014,14.502222 26.404222,14.584831 26.701061,14.733663"
       style="fill:none;fill-rule:evenodd;stroke:#ffffff;stroke-width:1.32560265px;stroke-linecap:butt;stroke-linejoin:miter;stroke-opacity:1" />
    <path
       id="path3732"
       d="M 18.113608,7.2928497 C 18.213152,7.3926701 19.607788,6.8440077 19.947821,6.7076172 C 20.387007,6.5314553 20.717962,6.3214782 21.115047,6.1223847"
       style="fill:none;fill-rule:evenodd;stroke:#ffffff;stroke-width:1.32560265px;stroke-linecap:butt;stroke-linejoin:miter;stroke-opacity:1" />
    <path
       id="path3734"
       d="M 22.282275,7.4600588 C 22.371009,7.4244667 23.869176,9.3305153 24.199861,9.7173841 C 24.578642,10.160523 24.984641,10.524288 25.116967,11.055058 C 25.255617,11.611197 25.708514,12.124658 26.034075,12.559942 C 26.32249,12.945562 26.517102,13.361466 26.701061,13.730407 C 26.901236,14.131865 26.944082,14.447262 27.034554,14.900872 C 27.136671,15.412876 27.18166,15.735311 26.867807,16.154941 C 26.591144,16.524849 25.829048,15.949346 25.700582,15.820523"
       style="fill:none;fill-rule:evenodd;stroke:#ffffff;stroke-width:1.32560265px;stroke-linecap:butt;stroke-linejoin:miter;stroke-opacity:1" />
    <path
       sodipodi:nodetypes="cssssc"
       id="path3736"
       d="M 5.3574892,13.312384 C 5.7276424,13.297536 6.5621354,12.991625 7.0249557,12.643547 C 7.5831749,12.223721 7.0249557,12.105016 7.0249557,11.473082 C 7.0249557,10.769577 8.1169817,10.796049 8.6090488,10.302617 C 8.9537991,9.95691 8.9515436,8.9559162 9.2760356,8.6305239 C 9.4159206,8.4902508 8.6448589,8.0217191 8.6090488,7.878082"
       style="fill:none;fill-rule:evenodd;stroke:#ffffff;stroke-width:1.32560265px;stroke-linecap:butt;stroke-linejoin:miter;stroke-opacity:1" />
    <rect
       transform="matrix(0.96281,-0.270178,0.268793,0.963198,0,0)"
       y="14.690502"
       x="3.3997509"
       height="7.1382389"
       width="11.496411"
       id="rect13212"
       style="fill:none;fill-opacity:1;stroke:none;stroke-width:1.55158257;stroke-linecap:round;stroke-linejoin:round;stroke-miterlimit:4;stroke-dasharray:none;stroke-opacity:1" />
    <g
       transform="matrix(2.120809,0,0,2.126693,-0.746527,-0.758939)"
       id="layer1"
       inkscape:label="Layer 1">
      <path
         style="fill:url(#linearGradient2285);fill-opacity:1;fill-rule:evenodd;stroke:none;stroke-width:1px;stroke-linecap:butt;stroke-linejoin:miter;stroke-opacity:1"
         d="M 7.9427597,0.86404707 C 4.0385897,0.86404707 0.84900969,4.0000455 0.84900969,7.8640471 C 0.84900969,8.0858123 0.86349668,8.4076816 0.88391068,8.6241956 C 1.3397607,8.3659402 1.7383699,8.0386301 2.2682039,7.8091296 C 3.7929949,7.1486588 5.5835057,6.4835094 7.5990097,6.1140471 C 9.6145137,5.7445847 11.805164,5.551547 14.13026,5.551547 C 14.274086,5.551547 14.393542,5.5812424 14.53651,5.582797 C 13.570792,2.8541184 11.028181,0.86404707 7.9427597,0.86404707 z"
         id="path2394"
         sodipodi:nodetypes="cscssscc" />
    </g>
  </g>
</svg>
