<?xml version="1.0" encoding="UTF-8" standalone="no"?>
<!-- Created with Inkscape (http://www.inkscape.org/) -->
<svg
   xmlns:dc="http://purl.org/dc/elements/1.1/"
   xmlns:cc="http://creativecommons.org/ns#"
   xmlns:rdf="http://www.w3.org/1999/02/22-rdf-syntax-ns#"
   xmlns:svg="http://www.w3.org/2000/svg"
   xmlns="http://www.w3.org/2000/svg"
   xmlns:xlink="http://www.w3.org/1999/xlink"
   xmlns:sodipodi="http://sodipodi.sourceforge.net/DTD/sodipodi-0.dtd"
   xmlns:inkscape="http://www.inkscape.org/namespaces/inkscape"
   version="1.0"
   width="48"
   height="48"
   id="svg1872"
   sodipodi:version="0.32"
   inkscape:version="0.45+devel"
   sodipodi:docname="emblem-money.svg"
   sodipodi:docbase="/usr/share/icons/Human/48x48/emblems"
   inkscape:output_extension="org.inkscape.output.svg.inkscape">
  <metadata
     id="metadata10">
    <rdf:RDF>
      <cc:Work
         rdf:about="">
        <dc:format>image/svg+xml</dc:format>
        <dc:type
           rdf:resource="http://purl.org/dc/dcmitype/StillImage" />
      </cc:Work>
    </rdf:RDF>
  </metadata>
  <sodipodi:namedview
     inkscape:window-height="701"
     inkscape:window-width="1024"
     inkscape:pageshadow="2"
     inkscape:pageopacity="0.0"
     guidetolerance="10.0"
     gridtolerance="10.0"
     objecttolerance="10.0"
     borderopacity="1.0"
     bordercolor="#666666"
     pagecolor="#ffffff"
     id="base"
     inkscape:zoom="12.71875"
     inkscape:cx="16.368455"
     inkscape:cy="5.3322358"
     inkscape:window-x="0"
     inkscape:window-y="24"
     inkscape:current-layer="svg1872"
     showgrid="true"
     width="48px"
     height="48px" />
  <defs
     id="defs1874">
    <linearGradient
       id="linearGradient9233">
      <stop
         id="stop9235"
         offset="0"
         style="stop-color:#eeeeec;stop-opacity:1;" />
      <stop
         id="stop9237"
         offset="1"
         style="stop-color:#eeeeec;stop-opacity:0;" />
    </linearGradient>
    <linearGradient
       inkscape:collect="always"
       xlink:href="#linearGradient9233"
       id="linearGradient16156"
       gradientUnits="userSpaceOnUse"
       gradientTransform="translate(22.43465,4.820297)"
       x1="-10.638614"
       y1="7.1375623"
       x2="-15.286263"
       y2="-6.2254333" />
  </defs>
  <g
     id="g16146"
     transform="matrix(3.3932945,0,0,3.4122192,-3.3932945,-3.183288)">
    <path
       id="path14961"
       style="fill:#ff7000;fill-opacity:1;fill-rule:evenodd;stroke:none;stroke-width:1px;stroke-linecap:butt;stroke-linejoin:miter;stroke-opacity:1"
       d="M 15.145545,7.999997 C 15.145545,11.865992 11.978957,15 8.0727727,15 C 4.1665882,15 1,11.865992 1,7.999997 C 1,4.134002 4.1665882,0.9999938 8.0727726,0.9999938 C 11.978957,0.9999938 15.145545,4.134002 15.145545,7.999997 L 15.145545,7.999997 z" />
    <path
       id="path15002"
       style="fill:none;fill-opacity:1;stroke:#ffffff;stroke-width:0.70260531;stroke-linecap:round;stroke-linejoin:round;stroke-miterlimit:4;stroke-dasharray:none;stroke-opacity:1"
       d="M 10.751457,3.8683552 C 9.0994102,3.5727388 7.2590954,3.6084322 5.822559,4.6151995 C 5.1733956,4.9777385 4.9216178,5.8783526 5.2439879,6.5575844 C 5.442147,7.0424882 5.8825771,7.3704229 6.3588185,7.5085184 C 7.7026344,8.2236064 9.2357519,8.4216033 10.585152,9.1226097 C 11.131819,9.5793227 11.092421,10.449315 10.714378,11.006963 C 10.272792,11.716061 9.4540974,12.066211 8.6812629,12.204583 C 7.3353196,12.399262 6.0079098,11.89936 4.809387,11.309679 C 5.6671668,11.920998 6.7235504,12.196144 7.7545998,12.221077 C 8.2893996,12.21212 8.8234803,12.107677 9.3318289,11.938131 C 9.9979885,11.677274 10.716627,11.165143 10.805071,10.370194 C 10.848176,9.9956829 10.697177,9.6223571 10.387634,9.4185726 C 9.5417376,8.734578 8.4238521,8.6912057 7.4549142,8.2970217 C 6.5166295,7.9778162 5.5006432,7.5047643 5.0340455,6.5392681 C 4.7253195,5.9922514 4.8825834,5.2725507 5.321041,4.8535303 C 5.9807561,4.2177338 6.879766,3.9455481 7.736673,3.7410966 C 8.8302557,3.4953117 9.9902446,3.4135429 11.075601,3.7468911 C 11.531961,3.9643639 10.859256,3.8694389 10.751457,3.8683552 z" />
    <path
       id="path16838"
       style="fill:none;fill-rule:evenodd;stroke:#ffffff;stroke-width:0.58606499;stroke-linecap:round;stroke-linejoin:miter;stroke-miterlimit:4;stroke-dasharray:none;stroke-opacity:1"
       d="M 7.2681416,2.3641888 C 7.2979107,13.79106 7.2979107,13.79106 7.2979107,13.79106" />
    <path
       id="path17729"
       style="fill:none;fill-rule:evenodd;stroke:#ffffff;stroke-width:0.58606499;stroke-linecap:round;stroke-linejoin:miter;stroke-miterlimit:4;stroke-dasharray:none;stroke-opacity:1"
       d="M 8.8804145,2.3919866 C 8.9101836,13.818857 8.9101836,13.818857 8.9101836,13.818857" />
    <g
       transform="translate(0.128427,-5.891005e-3)"
       id="g2901">
      <rect
         style="fill:none;fill-opacity:1;stroke:none;stroke-width:1.55158257;stroke-linecap:round;stroke-linejoin:round;stroke-miterlimit:4;stroke-dasharray:none;stroke-opacity:1"
         id="rect2942"
         width="5.4196706"
         height="3.3571696"
         x="1.8729681"
         y="7.4712706"
         transform="matrix(0.963005,-0.269485,0.269485,0.963005,0,0)" />
      <g
         inkscape:label="Layer 1"
         id="layer1"
         transform="translate(4.12207e-2,7.47524e-2)">
        <path
           sodipodi:nodetypes="cscssscc"
           id="path2394"
           d="M 7.9427597,0.86404707 C 4.0385897,0.86404707 0.84900969,4.0000455 0.84900969,7.8640471 C 0.84900969,8.0858123 0.86349668,8.4076816 0.88391068,8.6241956 C 1.3397607,8.3659402 1.7383699,8.0386301 2.2682039,7.8091296 C 3.7929949,7.1486588 5.5835057,6.4835094 7.5990097,6.1140471 C 9.6145137,5.7445847 11.805164,5.551547 14.13026,5.551547 C 14.274086,5.551547 14.393542,5.5812424 14.53651,5.582797 C 13.570792,2.8541184 11.028181,0.86404707 7.9427597,0.86404707 z"
           style="fill:url(#linearGradient16156);fill-opacity:1;fill-rule:evenodd;stroke:none;stroke-width:1px;stroke-linecap:butt;stroke-linejoin:miter;stroke-opacity:1" />
      </g>
    </g>
  </g>
</svg>
