<?xml version="1.0" encoding="UTF-8" standalone="no"?>
<!-- Created with Inkscape (http://www.inkscape.org/) -->
<svg
   xmlns:dc="http://purl.org/dc/elements/1.1/"
   xmlns:cc="http://creativecommons.org/ns#"
   xmlns:rdf="http://www.w3.org/1999/02/22-rdf-syntax-ns#"
   xmlns:svg="http://www.w3.org/2000/svg"
   xmlns="http://www.w3.org/2000/svg"
   xmlns:xlink="http://www.w3.org/1999/xlink"
   xmlns:sodipodi="http://sodipodi.sourceforge.net/DTD/sodipodi-0.dtd"
   xmlns:inkscape="http://www.inkscape.org/namespaces/inkscape"
   version="1.0"
   width="48"
   height="48"
   id="svg1872"
   sodipodi:version="0.32"
   inkscape:version="0.45+devel"
   sodipodi:docname="emblem-favorite.svg"
   sodipodi:docbase="/usr/share/icons/Human/48x48/emblems"
   inkscape:output_extension="org.inkscape.output.svg.inkscape">
  <metadata
     id="metadata10">
    <rdf:RDF>
      <cc:Work
         rdf:about="">
        <dc:format>image/svg+xml</dc:format>
        <dc:type
           rdf:resource="http://purl.org/dc/dcmitype/StillImage" />
      </cc:Work>
    </rdf:RDF>
  </metadata>
  <sodipodi:namedview
     inkscape:window-height="701"
     inkscape:window-width="1024"
     inkscape:pageshadow="2"
     inkscape:pageopacity="0.0"
     guidetolerance="10.0"
     gridtolerance="10.0"
     objecttolerance="10.0"
     borderopacity="1.0"
     bordercolor="#666666"
     pagecolor="#ffffff"
     id="base"
     inkscape:zoom="25.4375"
     inkscape:cx="10.096111"
     inkscape:cy="20.072711"
     inkscape:window-x="0"
     inkscape:window-y="24"
     inkscape:current-layer="svg1872"
     width="48px"
     height="48px"
     showgrid="true"
     gridspacingx="1px"
     gridspacingy="1px"
     gridoriginx="0px"
     inkscape:document-units="px"
     grid_units="px"
     gridempspacing="5" />
  <defs
     id="defs1874">
    <linearGradient
       id="linearGradient9233">
      <stop
         id="stop9235"
         offset="0"
         style="stop-color:#eeeeec;stop-opacity:1;" />
      <stop
         id="stop9237"
         offset="1"
         style="stop-color:#eeeeec;stop-opacity:0;" />
    </linearGradient>
    <linearGradient
       gradientTransform="translate(22.43465,4.820297)"
       gradientUnits="userSpaceOnUse"
       y2="-6.2254333"
       x2="-15.286263"
       y1="7.1375623"
       x1="-10.638614"
       id="linearGradient2403"
       xlink:href="#linearGradient9233"
       inkscape:collect="always" />
  </defs>
  <g
     transform="matrix(3.3932944,0,0,3.4027086,-2.8994163,-3.0406494)"
     id="g2060">
    <path
       id="path1880"
       style="fill:#ff7000;fill-opacity:1;fill-rule:evenodd;stroke:none;stroke-width:1px;stroke-linecap:butt;stroke-linejoin:miter;stroke-opacity:1"
       d="M 15,8.000003 C 15,11.865998 11.833412,15.000006 7.9272274,15.000006 C 4.0210429,15.000006 0.8544547,11.865998 0.8544547,8.000003 C 0.8544547,4.134008 4.0210429,0.99999983 7.9272273,0.99999983 C 11.833412,0.99999983 15,4.134008 15,8.000003 L 15,8.000003 z" />
    <path
       id="path2798"
       style="fill:none;fill-opacity:1;stroke:none"
       d="M 13.99999,7.9999989 C 13.99999,11.313708 11.313701,14 7.9999948,14 C 4.6862888,14 1.9999993,11.313708 1.9999993,7.9999989 C 1.9999993,4.6862899 4.6862888,1.999998 7.9999948,1.999998 C 11.313701,1.999998 13.99999,4.6862899 13.99999,7.9999989 L 13.99999,7.9999989 z" />
    <path
       d="M 7.8204955,12.173793 C 6.6895065,10.806301 4.9403607,9.9385828 4.137574,8.3218894 C 3.3383646,6.9627523 4.2946397,4.9897892 5.9183341,4.7325891 C 6.9221421,4.4904504 7.8736927,5.4895612 8.0274202,6.5538706"
       style="fill:#ffffff;fill-opacity:1;fill-rule:evenodd;stroke:#ffffff;stroke-width:0.54821855px;stroke-linecap:round;stroke-linejoin:miter;stroke-opacity:1"
       id="path11731" />
    <path
       d="M 7.9106291,12.245187 C 9.0416183,10.877695 10.993109,9.8942257 11.795895,8.2775314 C 12.595108,6.9183949 11.638831,4.9454283 10.015135,4.688231 C 9.0113269,4.4460914 8.1002447,5.5288365 7.9465171,6.593146"
       style="fill:#ffffff;fill-opacity:1;fill-rule:evenodd;stroke:#ffffff;stroke-width:0.54821855px;stroke-linecap:round;stroke-linejoin:miter;stroke-opacity:1"
       id="path12631" />
    <path
       d="M 8.0092311,6.072206 C 8.0502582,6.2292016 8.0369239,6.395537 8.0296697,6.5559809 C 8.0099663,6.9145696 8.0049416,7.2736639 8.0018185,7.6326473 C 8.0010336,7.8705763 8.001039,8.1085049 8.0016462,8.3464336 C 8.0025359,8.5256015 8.0035467,8.7047684 8.0042439,8.883937 C 8.0045731,9.0342682 8.0046773,9.1845985 8.005368,9.3349284 C 8.0061979,9.4403443 8.0071186,9.5457594 8.0079225,9.6511754 C 8.0083758,9.7292545 8.0083543,9.8073348 8.008418,9.8854147 C 8.0084886,9.9672315 8.0081835,10.049047 8.0077954,10.130862 C 8.006905,10.22404 8.0075963,10.317222 8.0079419,10.4104 C 8.0082682,10.489496 8.0083008,10.568592 8.0083813,10.647688 C 8.0084179,10.723903 8.0084052,10.80012 8.0084068,10.876335 C 8.0061103,10.951644 8.0100129,11.026996 8.0116361,11.102122 C 8.0165485,11.178461 8.0150617,11.255274 8.0148309,11.331648 C 8.0198708,11.369538 8.026328,11.407242 8.0320771,11.445043 L 7.4927101,11.708225 C 7.4865462,11.669724 7.4815257,11.631056 7.4742161,11.592708 C 7.4721576,11.516914 7.4695611,11.440681 7.4717487,11.364429 C 7.4674102,11.287525 7.4612451,11.210218 7.4651227,11.132699 C 7.4651243,11.056475 7.4651116,10.980252 7.4651482,10.904028 C 7.4652287,10.824794 7.4652617,10.74556 7.4655876,10.666326 C 7.4659322,10.573101 7.4666249,10.479873 7.465734,10.38665 C 7.4653451,10.30503 7.465041,10.223411 7.4651116,10.14179 C 7.4651758,10.063553 7.4651553,9.9853166 7.4656092,9.9070812 C 7.4664143,9.8008636 7.4673373,9.6946469 7.4681584,9.5884294 C 7.4688269,9.4377777 7.4689163,9.2871257 7.4691242,9.1364726 C 7.4696632,8.956507 7.4704158,8.7765425 7.4714276,8.5965787 C 7.4727699,8.3569941 7.4733227,8.1173807 7.480195,7.8778598 C 7.4889127,7.5188989 7.5036005,7.1600528 7.5073724,6.8010055 C 7.5081375,6.6520461 7.5158691,6.4993618 7.4741537,6.3543602 L 8.0092311,6.072206 z"
       style="fill:#ffffff;fill-opacity:1;stroke:#ffffff;stroke-width:0.2018525;stroke-linecap:round;stroke-linejoin:round;stroke-miterlimit:4;stroke-dasharray:none;stroke-opacity:1"
       id="path12875" />
    <g
       id="g2901"
       transform="translate(-2.882114e-2,-4.52025e-2)">
      <rect
         transform="matrix(0.963005,-0.269485,0.269485,0.963005,0,0)"
         y="7.4712706"
         x="1.8729681"
         height="3.3571696"
         width="5.4196706"
         id="rect2942"
         style="fill:none;fill-opacity:1;stroke:none;stroke-width:1.55158257;stroke-linecap:round;stroke-linejoin:round;stroke-miterlimit:4;stroke-dasharray:none;stroke-opacity:1" />
      <g
         transform="translate(4.12207e-2,7.47524e-2)"
         id="layer1"
         inkscape:label="Layer 1">
        <path
           style="fill:url(#linearGradient2403);fill-opacity:1;fill-rule:evenodd;stroke:none;stroke-width:1px;stroke-linecap:butt;stroke-linejoin:miter;stroke-opacity:1"
           d="M 7.9427597,0.86404707 C 4.0385897,0.86404707 0.84900969,4.0000455 0.84900969,7.8640471 C 0.84900969,8.0858123 0.86349668,8.4076816 0.88391068,8.6241956 C 1.3397607,8.3659402 1.7383699,8.0386301 2.2682039,7.8091296 C 3.7929949,7.1486588 5.5835057,6.4835094 7.5990097,6.1140471 C 9.6145137,5.7445847 11.805164,5.551547 14.13026,5.551547 C 14.274086,5.551547 14.393542,5.5812424 14.53651,5.582797 C 13.570792,2.8541184 11.028181,0.86404707 7.9427597,0.86404707 z"
           id="path2394"
           sodipodi:nodetypes="cscssscc" />
      </g>
    </g>
  </g>
</svg>
