<?xml version="1.0" encoding="UTF-8" standalone="no"?>
<!-- Created with Inkscape (http://www.inkscape.org/) -->
<svg
   xmlns:dc="http://purl.org/dc/elements/1.1/"
   xmlns:cc="http://creativecommons.org/ns#"
   xmlns:rdf="http://www.w3.org/1999/02/22-rdf-syntax-ns#"
   xmlns:svg="http://www.w3.org/2000/svg"
   xmlns="http://www.w3.org/2000/svg"
   xmlns:xlink="http://www.w3.org/1999/xlink"
   xmlns:sodipodi="http://sodipodi.sourceforge.net/DTD/sodipodi-0.dtd"
   xmlns:inkscape="http://www.inkscape.org/namespaces/inkscape"
   version="1.0"
   width="48"
   height="48"
   id="svg1872"
   sodipodi:version="0.32"
   inkscape:version="0.45+devel"
   sodipodi:docname="emblem-art.svg"
   sodipodi:docbase="/usr/share/icons/Human/48x48/emblems"
   inkscape:output_extension="org.inkscape.output.svg.inkscape">
  <metadata
     id="metadata14">
    <rdf:RDF>
      <cc:Work
         rdf:about="">
        <dc:format>image/svg+xml</dc:format>
        <dc:type
           rdf:resource="http://purl.org/dc/dcmitype/StillImage" />
      </cc:Work>
    </rdf:RDF>
  </metadata>
  <sodipodi:namedview
     inkscape:window-height="701"
     inkscape:window-width="1024"
     inkscape:pageshadow="2"
     inkscape:pageopacity="0.0"
     guidetolerance="10.0"
     gridtolerance="10.0"
     objecttolerance="10.0"
     borderopacity="1.0"
     bordercolor="#666666"
     pagecolor="#ffffff"
     id="base"
     inkscape:zoom="8.9935144"
     inkscape:cx="32.560401"
     inkscape:cy="10.61185"
     inkscape:window-x="0"
     inkscape:window-y="24"
     inkscape:current-layer="svg1872"
     width="48px"
     height="48px"
     showgrid="true"
     gridspacingx="0px"
     gridspacingy="0px"
     grid_units="pt" />
  <defs
     id="defs1874">
    <linearGradient
       id="linearGradient9233">
      <stop
         id="stop9235"
         offset="0"
         style="stop-color:#eeeeec;stop-opacity:1;" />
      <stop
         id="stop9237"
         offset="1"
         style="stop-color:#eeeeec;stop-opacity:0;" />
    </linearGradient>
    <linearGradient
       inkscape:collect="always"
       xlink:href="#linearGradient9233"
       id="linearGradient2011"
       gradientUnits="userSpaceOnUse"
       gradientTransform="translate(22.43465,4.820297)"
       x1="-10.638614"
       y1="7.1375623"
       x2="-15.286263"
       y2="-6.2254333" />
  </defs>
  <g
     id="g1999"
     transform="matrix(1.6032954,0,0,1.6143523,-1.5974679,-1.704548)">
    <path
       d="M 30.934703,15.987365 C 30.934703,24.16217 24.233592,30.789158 15.967352,30.789158 C 7.7011118,30.789158 1,24.16217 1,15.987365 C 1,7.8125597 7.7011118,1.1855709 15.967352,1.1855709 C 24.233592,1.1855709 30.934703,7.8125597 30.934703,15.987365 L 30.934703,15.987365 z"
       style="fill:#ff7000;fill-opacity:1;fill-rule:evenodd;stroke:none;stroke-width:1px;stroke-linecap:butt;stroke-linejoin:miter;stroke-opacity:1"
       id="path14961" />
    <path
       id="path22613"
       style="fill:#ffffff;fill-opacity:1;stroke-width:0.64700001;stroke-linecap:round;stroke-linejoin:round;stroke-miterlimit:4;stroke-dasharray:none;stroke-opacity:1"
       d="M 13.91309,20.882218 C 14.704843,20.404351 13.655602,17.226455 11.569789,13.784924 C 9.483975,10.343393 7.1517766,7.9420134 6.3612154,8.421847 C 5.569463,8.899715 6.618703,12.07761 8.7045168,15.519141 C 10.79033,18.960672 13.122529,21.362052 13.91309,20.882218 z" />
    <path
       id="path22617"
       style="fill:#ffffff;fill-opacity:1;fill-rule:evenodd;stroke:#ffffff;stroke-width:0.16795243;stroke-linecap:butt;stroke-linejoin:miter;stroke-miterlimit:4;stroke-dasharray:none;stroke-opacity:1"
       d="M 16.820154,26.170021 C 16.458519,25.200109 16.935165,24.193021 17.403834,23.323712 C 17.818804,22.52366 17.790545,21.423327 16.969662,20.83225 C 16.004788,20.102521 14.717805,19.91962 13.572953,19.514298 C 13.306796,19.084277 12.381396,19.448826 12.822437,19.877228 C 13.045136,20.830858 12.492948,21.725081 12.128226,22.589385 C 11.848729,23.378724 12.125631,24.343978 12.934994,24.802649 C 13.935539,25.507309 15.141675,25.990818 16.400967,26.173948 C 16.540432,26.183874 16.681004,26.18359 16.820154,26.170021 z" />
    <path
       d="M 23.850819,10.772304 C 23.30409,10.766085 22.73855,10.530815 22.205828,10.764524 C 21.94356,10.913119 21.980278,11.312216 22.115852,11.54908 C 22.465877,12.263931 23.262987,12.610586 23.975647,12.512488 C 24.200213,12.478973 24.469137,12.341885 24.490957,12.06136 C 24.523627,11.756269 24.443163,11.453835 24.408849,11.152965 C 24.410899,10.890633 24.184816,10.752698 23.985559,10.882042 C 23.916502,10.902084 23.854929,10.848002 23.850819,10.772304 z"
       style="fill:#ffffff;fill-opacity:1;fill-rule:evenodd;stroke:#ffffff;stroke-width:1.0118084px;stroke-linecap:butt;stroke-linejoin:miter;stroke-opacity:1"
       id="path23670" />
    <path
       d="M 20.74647,16.295307 C 20.034464,16.283149 19.297799,16.036046 18.603184,16.286708 C 18.269761,16.475246 18.294006,16.933503 18.507572,17.196013 C 19.056485,18.044309 20.271768,18.451853 21.27391,18.1209 C 21.622743,17.927656 21.656731,17.483945 21.541593,17.156331 C 21.486022,16.88568 21.548626,16.406018 21.137963,16.382614 C 21.006116,16.389326 20.810864,16.448025 20.74647,16.295307 z"
       style="fill:#ffffff;fill-opacity:1;fill-rule:evenodd;stroke:#ffffff;stroke-width:1.2140708px;stroke-linecap:butt;stroke-linejoin:miter;stroke-opacity:1"
       id="path23856" />
    <path
       d="M 16.422163,7.9569528 C 15.990732,7.9531023 15.544461,7.8074167 15.124084,7.9521359 C 14.917126,8.0441502 14.946099,8.2912808 15.053083,8.4379538 C 15.329291,8.8806076 15.9583,9.0952674 16.520665,9.0345229 C 16.697873,9.0137687 16.910083,8.9288805 16.9273,8.7551709 C 16.953082,8.5662515 16.889588,8.3789751 16.862509,8.1926692 C 16.864128,8.0302259 16.685722,7.9448112 16.528489,8.0249057 C 16.473993,8.037316 16.425405,8.0038259 16.422163,7.9569528 z"
       style="fill:#ffffff;fill-opacity:1;fill-rule:evenodd;stroke:#ffffff;stroke-width:0.70728105px;stroke-linecap:butt;stroke-linejoin:miter;stroke-opacity:1"
       id="path23880" />
    <g
       transform="matrix(2.116193,0,0,2.114541,-0.887534,-0.929259)"
       id="g2901">
      <rect
         style="fill:none;fill-opacity:1;stroke:none;stroke-width:1.55158257;stroke-linecap:round;stroke-linejoin:round;stroke-miterlimit:4;stroke-dasharray:none;stroke-opacity:1"
         id="rect2942"
         width="5.4196706"
         height="3.3571696"
         x="1.8729681"
         y="7.4712706"
         transform="matrix(0.963005,-0.269485,0.269485,0.963005,0,0)" />
      <g
         inkscape:label="Layer 1"
         id="layer1"
         transform="translate(4.12207e-2,7.47524e-2)">
        <path
           sodipodi:nodetypes="cscssscc"
           id="path2394"
           d="M 7.9427597,0.86404707 C 4.0385897,0.86404707 0.84900969,4.0000455 0.84900969,7.8640471 C 0.84900969,8.0858123 0.86349668,8.4076816 0.88391068,8.6241956 C 1.3397607,8.3659402 1.7383699,8.0386301 2.2682039,7.8091296 C 3.7929949,7.1486588 5.5835057,6.4835094 7.5990097,6.1140471 C 9.6145137,5.7445847 11.805164,5.551547 14.13026,5.551547 C 14.274086,5.551547 14.393542,5.5812424 14.53651,5.582797 C 13.570792,2.8541184 11.028181,0.86404707 7.9427597,0.86404707 z"
           style="fill:url(#linearGradient2011);fill-opacity:1;fill-rule:evenodd;stroke:none;stroke-width:1px;stroke-linecap:butt;stroke-linejoin:miter;stroke-opacity:1" />
      </g>
    </g>
  </g>
</svg>
