<?xml version="1.0" encoding="UTF-8" standalone="no"?>
<!-- Created with Inkscape (http://www.inkscape.org/) -->
<svg
   xmlns:dc="http://purl.org/dc/elements/1.1/"
   xmlns:cc="http://creativecommons.org/ns#"
   xmlns:rdf="http://www.w3.org/1999/02/22-rdf-syntax-ns#"
   xmlns:svg="http://www.w3.org/2000/svg"
   xmlns="http://www.w3.org/2000/svg"
   xmlns:xlink="http://www.w3.org/1999/xlink"
   xmlns:sodipodi="http://sodipodi.sourceforge.net/DTD/sodipodi-0.dtd"
   xmlns:inkscape="http://www.inkscape.org/namespaces/inkscape"
   version="1.0"
   width="48"
   height="48"
   id="svg1872"
   sodipodi:version="0.32"
   inkscape:version="0.45+devel"
   sodipodi:docname="emblem-handshake.svg"
   sodipodi:docbase="/usr/share/icons/Human/48x48/emblems"
   inkscape:output_extension="org.inkscape.output.svg.inkscape">
  <metadata
     id="metadata7">
    <rdf:RDF>
      <cc:Work
         rdf:about="">
        <dc:format>image/svg+xml</dc:format>
        <dc:type
           rdf:resource="http://purl.org/dc/dcmitype/StillImage" />
      </cc:Work>
    </rdf:RDF>
  </metadata>
  <sodipodi:namedview
     inkscape:window-height="701"
     inkscape:window-width="1024"
     inkscape:pageshadow="2"
     inkscape:pageopacity="0.0"
     guidetolerance="10.0"
     gridtolerance="10.0"
     objecttolerance="10.0"
     borderopacity="1.0"
     bordercolor="#666666"
     pagecolor="#ffffff"
     id="base"
     inkscape:zoom="12.71875"
     inkscape:cx="26.874055"
     inkscape:cy="4.2924916"
     inkscape:window-x="0"
     inkscape:window-y="24"
     inkscape:current-layer="svg1872"
     showgrid="true"
     width="48px"
     height="48px" />
  <defs
     id="defs1874">
    <linearGradient
       id="linearGradient9233">
      <stop
         id="stop9235"
         offset="0"
         style="stop-color:#eeeeec;stop-opacity:1;" />
      <stop
         id="stop9237"
         offset="1"
         style="stop-color:#eeeeec;stop-opacity:0;" />
    </linearGradient>
    <linearGradient
       inkscape:collect="always"
       xlink:href="#linearGradient9233"
       id="linearGradient16114"
       gradientUnits="userSpaceOnUse"
       gradientTransform="translate(22.43465,4.820297)"
       x1="-10.638614"
       y1="7.1375623"
       x2="-15.286263"
       y2="-6.2254333" />
  </defs>
  <g
     id="g16098"
     transform="matrix(3.3932944,0,0,3.3932522,-2.8994163,-2.8988034)">
    <path
       d="M 15,8.000003 C 15,11.865998 11.833412,15.000006 7.9272274,15.000006 C 4.0210429,15.000006 0.8544547,11.865998 0.8544547,8.000003 C 0.8544547,4.134008 4.0210429,0.99999983 7.9272273,0.99999983 C 11.833412,0.99999983 15,4.134008 15,8.000003 L 15,8.000003 z"
       style="fill:#ff7000;fill-opacity:1;fill-rule:evenodd;stroke:none;stroke-width:1px;stroke-linecap:butt;stroke-linejoin:miter;stroke-opacity:1"
       id="path1880" />
    <path
       id="path1878"
       d="M 3.4594594,5.5036852 C 4.351225,6.1778292 5.5171834,6.6233491 6.6394426,6.3567088 C 7.0650718,6.1983151 7.403542,5.8796936 7.8126627,5.6891193 C 8.6154886,5.7995124 9.0135658,6.7602811 9.8532569,6.763552 C 10.719626,6.8345618 11.518482,6.2757589 11.974097,5.5739098 C 12.12651,5.421468 12.286195,5.275267 12.461916,5.1498768"
       style="fill:none;fill-rule:evenodd;stroke:#ffffff;stroke-width:0.50121146;stroke-linecap:round;stroke-linejoin:round;stroke-miterlimit:4;stroke-dasharray:none;stroke-opacity:1" />
    <path
       sodipodi:nodetypes="ccccssc"
       id="path2018"
       d="M 7.9410318,5.6609333 C 7.3447392,6.0036614 6.7247661,6.3495956 6.2832055,6.8907943 C 6.1632097,7.2322233 6.3687489,7.5686845 6.5419636,7.8503741 C 6.6983176,8.2010862 6.8021648,8.4638116 7.0343168,8.7698786 C 7.1777364,9.0551997 7.5575624,9.1860167 7.9123569,9.1921527 C 8.4630545,9.2058197 8.8250125,8.7301281 8.5190638,8.2684783 C 8.3956502,8.0603331 7.9472844,7.7537363 7.9017198,7.5085992"
       style="fill:none;fill-rule:evenodd;stroke:#ffffff;stroke-width:0.43855998;stroke-linecap:round;stroke-linejoin:round;stroke-miterlimit:4;stroke-dasharray:none;stroke-opacity:1" />
    <path
       id="path2936"
       d="M 2.7911545,8.4127754 C 3.4550911,8.7752385 3.9439788,9.435773 4.697505,9.63457 C 5.1855646,9.983923 4.776012,10.767484 5.2940713,11.096235 C 6.0552973,11.527187 6.6984957,12.320612 7.6440664,12.302608 C 8.3145954,12.237554 9.024874,12.034848 9.4825571,11.509797 C 10.093538,11.247592 10.591476,10.753603 10.870641,10.154564 C 11.320754,9.638463 11.872999,9.2227048 12.333042,8.7168474 C 12.749543,8.3656335 13.236818,8.0971261 13.759214,7.9410319"
       style="fill:none;fill-rule:evenodd;stroke:#ffffff;stroke-width:0.43855998;stroke-linecap:round;stroke-linejoin:round;stroke-miterlimit:4;stroke-dasharray:none;stroke-opacity:1" />
    <path
       id="path2951"
       d="M 8.6188625,10.303114 C 8.8400341,10.515565 9.1537484,10.962582 9.3612436,11.357514 C 9.3957208,11.423136 9.4301981,11.488758 9.4646753,11.554379"
       style="fill:none;fill-rule:evenodd;stroke:#ffffff;stroke-width:0.43855998;stroke-linecap:round;stroke-linejoin:miter;stroke-miterlimit:4;stroke-dasharray:none;stroke-opacity:1" />
    <path
       sodipodi:nodetypes="csssc"
       id="path2955"
       d="M 9.4348893,7.9410315 C 9.5562343,8.0623766 9.7671923,8.1018068 10.02457,8.29484 C 10.229287,8.4483776 10.121516,8.3675492 10.339066,8.5307122 C 10.55479,8.6925049 10.68431,8.8206857 10.850123,9.0417687 C 10.922788,9.1386562 11.173113,9.4986312 11.243243,9.5921373"
       style="fill:none;fill-rule:evenodd;stroke:#ffffff;stroke-width:0.43855998;stroke-linecap:round;stroke-linejoin:round;stroke-miterlimit:4;stroke-dasharray:none;stroke-opacity:1" />
    <path
       id="path7412"
       d="M 9.5335682,9.391943 C 9.7511525,9.608067 10.057338,10.060273 10.258192,10.458624 C 10.291566,10.524814 10.32494,10.591003 10.358314,10.657193"
       style="fill:none;fill-rule:evenodd;stroke:#ffffff;stroke-width:0.43855989;stroke-linecap:round;stroke-linejoin:miter;stroke-miterlimit:4;stroke-dasharray:none;stroke-opacity:1" />
    <path
       id="path7414"
       d="M 6.2518145,9.995998 C 6.1169319,10.2939 5.91373,10.555805 5.6990486,10.800061"
       style="fill:none;fill-rule:evenodd;stroke:#ffffff;stroke-width:0.43855998;stroke-linecap:round;stroke-linejoin:miter;stroke-miterlimit:4;stroke-dasharray:none;stroke-opacity:1" />
    <path
       id="path7416"
       d="M 7.15599,10.841212 C 7.0211072,11.139114 6.8179051,11.401019 6.6032237,11.645275"
       style="fill:none;fill-rule:evenodd;stroke:#ffffff;stroke-width:0.43855998;stroke-linecap:round;stroke-linejoin:miter;stroke-miterlimit:4;stroke-dasharray:none;stroke-opacity:1" />
    <path
       sodipodi:nodetypes="csssc"
       id="path7500"
       d="M 4.50123,9.5921355 C 4.6995256,9.7842652 5.9484389,9.5551319 6.3690307,9.8607677 C 6.7035684,10.103869 6.5274547,9.9758904 6.8829634,10.234232 C 7.2354881,10.490405 7.4471428,10.693357 7.7181056,11.043405 C 7.836851,11.19681 8.1212711,11.566935 8.2358738,11.714986"
       style="fill:none;fill-rule:evenodd;stroke:#ffffff;stroke-width:0.43856004;stroke-linecap:round;stroke-linejoin:round;stroke-miterlimit:4;stroke-dasharray:none;stroke-opacity:1" />
    <g
       transform="translate(-2.882057e-2,-8.451479e-2)"
       id="g2901">
      <rect
         style="fill:none;fill-opacity:1;stroke:none;stroke-width:1.55158257;stroke-linecap:round;stroke-linejoin:round;stroke-miterlimit:4;stroke-dasharray:none;stroke-opacity:1"
         id="rect2942"
         width="5.4196706"
         height="3.3571696"
         x="1.8729681"
         y="7.4712706"
         transform="matrix(0.963005,-0.269485,0.269485,0.963005,0,0)" />
      <g
         inkscape:label="Layer 1"
         id="layer1"
         transform="translate(4.12207e-2,7.47524e-2)">
        <path
           sodipodi:nodetypes="cscssscc"
           id="path2394"
           d="M 7.9427597,0.86404707 C 4.0385897,0.86404707 0.84900969,4.0000455 0.84900969,7.8640471 C 0.84900969,8.0858123 0.86349668,8.4076816 0.88391068,8.6241956 C 1.3397607,8.3659402 1.7383699,8.0386301 2.2682039,7.8091296 C 3.7929949,7.1486588 5.5835057,6.4835094 7.5990097,6.1140471 C 9.6145137,5.7445847 11.805164,5.551547 14.13026,5.551547 C 14.274086,5.551547 14.393542,5.5812424 14.53651,5.582797 C 13.570792,2.8541184 11.028181,0.86404707 7.9427597,0.86404707 z"
           style="fill:url(#linearGradient16114);fill-opacity:1;fill-rule:evenodd;stroke:none;stroke-width:1px;stroke-linecap:butt;stroke-linejoin:miter;stroke-opacity:1" />
      </g>
    </g>
  </g>
</svg>
