<?xml version="1.0" encoding="UTF-8" standalone="no"?>
<!-- Created with Inkscape (http://www.inkscape.org/) -->
<svg
   xmlns:dc="http://purl.org/dc/elements/1.1/"
   xmlns:cc="http://creativecommons.org/ns#"
   xmlns:rdf="http://www.w3.org/1999/02/22-rdf-syntax-ns#"
   xmlns:svg="http://www.w3.org/2000/svg"
   xmlns="http://www.w3.org/2000/svg"
   xmlns:xlink="http://www.w3.org/1999/xlink"
   xmlns:sodipodi="http://sodipodi.sourceforge.net/DTD/sodipodi-0.dtd"
   xmlns:inkscape="http://www.inkscape.org/namespaces/inkscape"
   version="1.0"
   width="48"
   height="48"
   id="svg1872"
   sodipodi:version="0.32"
   inkscape:version="0.45+devel"
   sodipodi:docname="emblem-system.svg"
   sodipodi:docbase="/usr/share/icons/Human/48x48/emblems"
   inkscape:output_extension="org.inkscape.output.svg.inkscape">
  <metadata
     id="metadata10">
    <rdf:RDF>
      <cc:Work
         rdf:about="">
        <dc:format>image/svg+xml</dc:format>
        <dc:type
           rdf:resource="http://purl.org/dc/dcmitype/StillImage" />
      </cc:Work>
    </rdf:RDF>
  </metadata>
  <sodipodi:namedview
     inkscape:window-height="701"
     inkscape:window-width="1024"
     inkscape:pageshadow="2"
     inkscape:pageopacity="0.0"
     guidetolerance="10.0"
     gridtolerance="10.0"
     objecttolerance="10.0"
     borderopacity="1.0"
     bordercolor="#666666"
     pagecolor="#ffffff"
     id="base"
     inkscape:zoom="12.71875"
     inkscape:cx="21.414323"
     inkscape:cy="7.5556105"
     inkscape:window-x="0"
     inkscape:window-y="24"
     inkscape:current-layer="svg1872"
     showgrid="true"
     width="48px"
     height="48px" />
  <defs
     id="defs1874">
    <linearGradient
       id="linearGradient9233">
      <stop
         id="stop9235"
         offset="0"
         style="stop-color:#eeeeec;stop-opacity:1;" />
      <stop
         id="stop9237"
         offset="1"
         style="stop-color:#eeeeec;stop-opacity:0;" />
    </linearGradient>
    <linearGradient
       inkscape:collect="always"
       xlink:href="#linearGradient9233"
       id="linearGradient17244"
       gradientUnits="userSpaceOnUse"
       gradientTransform="translate(22.43465,4.820297)"
       x1="-10.638614"
       y1="7.1375623"
       x2="-15.286263"
       y2="-6.2254333" />
  </defs>
  <g
     id="g17235"
     transform="matrix(3.3932944,0,0,3.3932521,-2.8994163,-2.8988019)">
    <path
       id="path1880"
       style="fill:#ff7000;fill-opacity:1;fill-rule:evenodd;stroke:none;stroke-width:1px;stroke-linecap:butt;stroke-linejoin:miter;stroke-opacity:1"
       d="M 15,8.000003 C 15,11.865998 11.833412,15.000006 7.9272274,15.000006 C 4.0210429,15.000006 0.8544547,11.865998 0.8544547,8.000003 C 0.8544547,4.134008 4.0210429,0.99999983 7.9272273,0.99999983 C 11.833412,0.99999983 15,4.134008 15,8.000003 L 15,8.000003 z" />
    <path
       transform="matrix(1.150996,-0.252943,0.253334,1.109085,-1.33593,2.243337)"
       d="M 9.1597054,10.535626 C 8.5353139,10.932967 7.9870803,9.7868435 7.2581623,9.9149935 C 6.5292443,10.043144 6.404799,11.307529 5.6823257,11.14698 C 4.9598523,10.98643 5.3826241,9.7883391 4.7765854,9.363532 C 4.1705467,8.9387249 3.1884949,9.7447846 2.7911548,9.1203931 C 2.3938147,8.4960015 3.5399378,7.947768 3.4117877,7.2188499 C 3.2836377,6.4899319 2.0192519,6.3654866 2.1798015,5.6430133 C 2.3403511,4.9205399 3.5384422,5.3433117 3.9632493,4.737273 C 4.3880564,4.1312344 3.5819967,3.1491825 4.2063882,2.7518424 C 4.8307798,2.3545024 5.3790133,3.5006254 6.1079314,3.3724754 C 6.8368494,3.2443253 6.9612946,1.9799395 7.683768,2.1404891 C 8.4062413,2.3010388 7.9834696,3.4991298 8.5895083,3.9239369 C 9.1955469,4.348744 10.177599,3.5426843 10.574939,4.1670759 C 10.972279,4.7914674 9.8261558,5.3397009 9.9543059,6.068619 C 10.082456,6.797537 11.346842,6.9219823 11.186292,7.6444556 C 11.025743,8.366929 9.8276515,7.9441572 9.4028444,8.5501959 C 8.9780373,9.1562345 9.7840969,10.138286 9.1597054,10.535626 z"
       inkscape:randomized="0"
       inkscape:rounded="0.37"
       inkscape:flatsided="false"
       sodipodi:arg2="1.3967662"
       sodipodi:arg1="1.0040671"
       sodipodi:r2="3.3214295"
       sodipodi:r1="4.6130967"
       sodipodi:cy="6.6437345"
       sodipodi:cx="6.6830468"
       sodipodi:sides="8"
       id="path2806"
       style="fill:#ffffff;fill-opacity:1;stroke-width:1.06500006;stroke-linecap:round;stroke-linejoin:round;stroke-miterlimit:4;stroke-dasharray:none;stroke-opacity:1"
       sodipodi:type="star" />
    <path
       transform="matrix(1.349611,0,0,1.189061,-2.731052,-1.723202)"
       d="M 8.8845207,8.1769037 A 0.90417689,1.022113 0 1 1 7.0761669,8.1769037 A 0.90417689,1.022113 0 1 1 8.8845207,8.1769037 z"
       sodipodi:ry="1.022113"
       sodipodi:rx="0.90417689"
       sodipodi:cy="8.1769037"
       sodipodi:cx="7.9803438"
       id="path2808"
       style="fill:#ff7000;fill-opacity:1;stroke-width:1.06500006;stroke-linecap:round;stroke-linejoin:round;stroke-miterlimit:4;stroke-dasharray:none;stroke-opacity:1"
       sodipodi:type="arc" />
    <g
       transform="translate(-2.882084e-2,-8.451524e-2)"
       id="g2901">
      <rect
         style="fill:none;fill-opacity:1;stroke:none;stroke-width:1.55158257;stroke-linecap:round;stroke-linejoin:round;stroke-miterlimit:4;stroke-dasharray:none;stroke-opacity:1"
         id="rect2942"
         width="5.4196706"
         height="3.3571696"
         x="1.8729681"
         y="7.4712706"
         transform="matrix(0.963005,-0.269485,0.269485,0.963005,0,0)" />
      <g
         inkscape:label="Layer 1"
         id="layer1"
         transform="translate(4.12207e-2,7.47524e-2)">
        <path
           sodipodi:nodetypes="cscssscc"
           id="path2394"
           d="M 7.9427597,0.86404707 C 4.0385897,0.86404707 0.84900969,4.0000455 0.84900969,7.8640471 C 0.84900969,8.0858123 0.86349668,8.4076816 0.88391068,8.6241956 C 1.3397607,8.3659402 1.7383699,8.0386301 2.2682039,7.8091296 C 3.7929949,7.1486588 5.5835057,6.4835094 7.5990097,6.1140471 C 9.6145137,5.7445847 11.805164,5.551547 14.13026,5.551547 C 14.274086,5.551547 14.393542,5.5812424 14.53651,5.582797 C 13.570792,2.8541184 11.028181,0.86404707 7.9427597,0.86404707 z"
           style="fill:url(#linearGradient17244);fill-opacity:1;fill-rule:evenodd;stroke:none;stroke-width:1px;stroke-linecap:butt;stroke-linejoin:miter;stroke-opacity:1" />
      </g>
    </g>
  </g>
</svg>
