<?xml version="1.0" encoding="UTF-8" standalone="no"?>
<!-- Created with Inkscape (http://www.inkscape.org/) -->
<svg
   xmlns:dc="http://purl.org/dc/elements/1.1/"
   xmlns:cc="http://creativecommons.org/ns#"
   xmlns:rdf="http://www.w3.org/1999/02/22-rdf-syntax-ns#"
   xmlns:svg="http://www.w3.org/2000/svg"
   xmlns="http://www.w3.org/2000/svg"
   xmlns:xlink="http://www.w3.org/1999/xlink"
   xmlns:sodipodi="http://sodipodi.sourceforge.net/DTD/sodipodi-0.dtd"
   xmlns:inkscape="http://www.inkscape.org/namespaces/inkscape"
   version="1.0"
   width="48"
   height="48"
   id="svg1872"
   sodipodi:version="0.32"
   inkscape:version="0.45+devel"
   sodipodi:docname="emblem-urgent.svg"
   sodipodi:docbase="/usr/share/icons/Human/48x48/emblems"
   inkscape:output_extension="org.inkscape.output.svg.inkscape">
  <metadata
     id="metadata10">
    <rdf:RDF>
      <cc:Work
         rdf:about="">
        <dc:format>image/svg+xml</dc:format>
        <dc:type
           rdf:resource="http://purl.org/dc/dcmitype/StillImage" />
      </cc:Work>
    </rdf:RDF>
  </metadata>
  <sodipodi:namedview
     inkscape:window-height="701"
     inkscape:window-width="1024"
     inkscape:pageshadow="2"
     inkscape:pageopacity="0.0"
     guidetolerance="10.0"
     gridtolerance="10.0"
     objecttolerance="10.0"
     borderopacity="1.0"
     bordercolor="#666666"
     pagecolor="#ffffff"
     id="base"
     inkscape:zoom="25.4375"
     inkscape:cx="10.096111"
     inkscape:cy="18.500229"
     inkscape:window-x="0"
     inkscape:window-y="24"
     inkscape:current-layer="svg1872"
     width="48px"
     height="48px"
     showgrid="true"
     gridspacingx="1px"
     gridspacingy="1px"
     gridoriginx="0px"
     inkscape:document-units="px"
     grid_units="px"
     gridempspacing="5" />
  <defs
     id="defs1874">
    <linearGradient
       id="linearGradient9233">
      <stop
         id="stop9235"
         offset="0"
         style="stop-color:#eeeeec;stop-opacity:1;" />
      <stop
         id="stop9237"
         offset="1"
         style="stop-color:#eeeeec;stop-opacity:0;" />
    </linearGradient>
    <linearGradient
       inkscape:collect="always"
       xlink:href="#linearGradient9233"
       id="linearGradient2403"
       x1="-10.638614"
       y1="7.1375623"
       x2="-15.286263"
       y2="-6.2254333"
       gradientUnits="userSpaceOnUse"
       gradientTransform="translate(22.43465,4.820297)" />
  </defs>
  <path
     sodipodi:type="star"
     style="fill:#ffffff;fill-opacity:1;stroke:none"
     id="path2768"
     sodipodi:sides="5"
     sodipodi:cx="3.9643564"
     sodipodi:cy="4.3772278"
     sodipodi:r1="6.330698"
     sodipodi:r2="2.2157443"
     sodipodi:arg1="1.1453467"
     sodipodi:arg2="1.7736652"
     inkscape:flatsided="false"
     inkscape:rounded="0.4"
     inkscape:randomized="0"
     d="M 6.5772277,10.143565 C 4.8570598,10.923016 5.3677228,6.928033 3.5179278,6.5475329 C 1.6681329,6.1670327 0.56052903,10.039225 -0.71233418,8.6441122 C -1.9851974,7.2489989 1.9720605,6.5001507 1.7623196,4.6233101 C 1.5525787,2.7464695 -2.4723639,2.8896491 -1.5388686,1.2479705 C -0.60537345,-0.39370804 1.3296835,3.138461 3.0498514,2.35901 C 4.7700194,1.5795589 3.3900719,-2.2041441 5.2398669,-1.823644 C 7.0896618,-1.4431438 4.3283349,1.4887049 5.6011981,2.8838182 C 6.8740612,4.2789316 10.046149,1.797295 10.25589,3.6741356 C 10.465631,5.5509761 6.8239804,3.8307892 5.8904852,5.4724678 C 4.9569899,7.1141463 8.2973957,9.3641135 6.5772277,10.143565 z"
     transform="matrix(1.49165,-0.294911,0.296125,1.485543,4.726514,7.081159)" />
  <rect
     transform="matrix(0.962614,-0.270878,0.268098,0.963392,0,0)"
     y="11.685694"
     x="18.849617"
     height="5.2482886"
     width="8.4324255"
     id="rect2942"
     style="fill:none;fill-opacity:1;stroke:none;stroke-width:1.55158257;stroke-linecap:round;stroke-linejoin:round;stroke-miterlimit:4;stroke-dasharray:none;stroke-opacity:1" />
  <g
     id="g12966"
     transform="matrix(3.3855501,0,0,3.3744962,-2.7832513,-2.6174631)">
    <g
       style="fill:#ff7000;fill-opacity:1"
       id="layer1">
      <path
         id="path1880"
         style="fill:#ff7000;fill-opacity:1;fill-rule:evenodd;stroke:none;stroke-width:1px;stroke-linecap:butt;stroke-linejoin:miter;stroke-opacity:1"
         transform="matrix(1,0,0,0.980345,-0.226733,0.197767)"
         d="M 15.226733,7.9586635 C 15.226733,11.902168 12.060145,15.09901 8.1539604,15.09901 C 4.2477759,15.09901 1.0811877,11.902168 1.0811877,7.9586635 C 1.0811877,4.0151589 4.2477759,0.81831685 8.1539603,0.81831685 C 12.060145,0.81831685 15.226733,4.0151589 15.226733,7.9586635 L 15.226733,7.9586635 z" />
      <path
         id="path2798"
         style="fill:#ff7000;fill-opacity:1;stroke:#ffffff;stroke-width:0.625;stroke-opacity:1"
         transform="matrix(1.039718,0,0,1.039719,-2.117182,-2.874324)"
         d="M 15.001485,10.458911 C 15.001485,13.369889 12.641671,15.729703 9.7306929,15.729703 C 6.8197149,15.729703 4.4599009,13.369889 4.4599009,10.458911 C 4.4599009,7.5479329 6.8197149,5.1881189 9.7306929,5.1881189 C 12.641671,5.1881189 15.001485,7.5479329 15.001485,10.458911 L 15.001485,10.458911 z" />
      <path
         id="path3687"
         style="fill:#ff7000;fill-opacity:1;fill-rule:evenodd;stroke:#ffffff;stroke-width:0.74366081px;stroke-linecap:round;stroke-linejoin:miter;stroke-opacity:1"
         d="M 7.7393568,4.4583333 C 7.7393568,9.0416667 7.7393568,9.0416667 7.7393568,9.0416667" />
      <path
         id="path3689"
         style="fill:#ff7000;fill-opacity:1;fill-rule:evenodd;stroke:#ffffff;stroke-width:0.71383709px;stroke-linecap:round;stroke-linejoin:miter;stroke-opacity:1"
         d="M 10.969525,6.6700794 C 7.7062182,9.0685343 7.7062182,9.0685343 7.7062182,9.0685343" />
    </g>
    <g
       transform="translate(-6.813318e-2,-0.163139)"
       id="g2901">
      <rect
         style="fill:none;fill-opacity:1;stroke:none;stroke-width:1.55158257;stroke-linecap:round;stroke-linejoin:round;stroke-miterlimit:4;stroke-dasharray:none;stroke-opacity:1"
         id="rect12974"
         width="5.4196706"
         height="3.3571696"
         x="1.8729681"
         y="7.4712706"
         transform="matrix(0.963005,-0.269485,0.269485,0.963005,0,0)" />
      <g
         inkscape:label="Layer 1"
         id="g1989"
         transform="translate(4.12207e-2,7.47524e-2)">
        <path
           sodipodi:nodetypes="cscssscc"
           id="path2394"
           d="M 7.9427597,0.86404707 C 4.0385897,0.86404707 0.84900969,4.0000455 0.84900969,7.8640471 C 0.84900969,8.0858123 0.86349668,8.4076816 0.88391068,8.6241956 C 1.3397607,8.3659402 1.7383699,8.0386301 2.2682039,7.8091296 C 3.7929949,7.1486588 5.5835057,6.4835094 7.5990097,6.1140471 C 9.6145137,5.7445847 11.805164,5.551547 14.13026,5.551547 C 14.274086,5.551547 14.393542,5.5812424 14.53651,5.582797 C 13.570792,2.8541184 11.028181,0.86404707 7.9427597,0.86404707 z"
           style="fill:url(#linearGradient2403);fill-opacity:1;fill-rule:evenodd;stroke:none;stroke-width:1px;stroke-linecap:butt;stroke-linejoin:miter;stroke-opacity:1" />
      </g>
    </g>
  </g>
</svg>
