<?xml version="1.0" encoding="UTF-8" standalone="no"?>
<!-- Created with Inkscape (http://www.inkscape.org/) -->
<svg
   xmlns:dc="http://purl.org/dc/elements/1.1/"
   xmlns:cc="http://creativecommons.org/ns#"
   xmlns:rdf="http://www.w3.org/1999/02/22-rdf-syntax-ns#"
   xmlns:svg="http://www.w3.org/2000/svg"
   xmlns="http://www.w3.org/2000/svg"
   xmlns:xlink="http://www.w3.org/1999/xlink"
   xmlns:sodipodi="http://sodipodi.sourceforge.net/DTD/sodipodi-0.dtd"
   xmlns:inkscape="http://www.inkscape.org/namespaces/inkscape"
   version="1.0"
   width="48"
   height="48"
   id="svg1872"
   sodipodi:version="0.32"
   inkscape:version="0.45+devel"
   sodipodi:docname="emblem-sales.svg"
   sodipodi:docbase="/usr/share/icons/Human/48x48/emblems"
   inkscape:output_extension="org.inkscape.output.svg.inkscape">
  <metadata
     id="metadata10">
    <rdf:RDF>
      <cc:Work
         rdf:about="">
        <dc:format>image/svg+xml</dc:format>
        <dc:type
           rdf:resource="http://purl.org/dc/dcmitype/StillImage" />
      </cc:Work>
    </rdf:RDF>
  </metadata>
  <sodipodi:namedview
     inkscape:window-height="701"
     inkscape:window-width="1024"
     inkscape:pageshadow="2"
     inkscape:pageopacity="0.0"
     guidetolerance="10.0"
     gridtolerance="10.0"
     objecttolerance="10.0"
     borderopacity="1.0"
     bordercolor="#666666"
     pagecolor="#ffffff"
     id="base"
     inkscape:zoom="12.71875"
     inkscape:cx="17.61467"
     inkscape:cy="15.185623"
     inkscape:window-x="0"
     inkscape:window-y="24"
     inkscape:current-layer="svg1872"
     showgrid="true"
     width="48px"
     height="48px" />
  <defs
     id="defs1874">
    <linearGradient
       id="linearGradient9233">
      <stop
         id="stop9235"
         offset="0"
         style="stop-color:#eeeeec;stop-opacity:1;" />
      <stop
         id="stop9237"
         offset="1"
         style="stop-color:#eeeeec;stop-opacity:0;" />
    </linearGradient>
    <linearGradient
       inkscape:collect="always"
       xlink:href="#linearGradient9233"
       id="linearGradient17194"
       gradientUnits="userSpaceOnUse"
       gradientTransform="translate(22.43465,4.820297)"
       x1="-10.638614"
       y1="7.1375623"
       x2="-15.286263"
       y2="-6.2254333" />
  </defs>
  <g
     id="g17182"
     transform="matrix(3.3789702,0,0,3.3744976,-3.1763451,-2.617464)">
    <path
       id="path14961"
       style="fill:#ff7000;fill-opacity:1;fill-rule:evenodd;stroke:none;stroke-width:1px;stroke-linecap:butt;stroke-linejoin:miter;stroke-opacity:1"
       d="M 15.145545,7.999997 C 15.145545,11.865992 11.978957,15 8.0727727,15 C 4.1665882,15 1,11.865992 1,7.999997 C 1,4.134002 4.1665882,0.9999938 8.0727726,0.9999938 C 11.978957,0.9999938 15.145545,4.134002 15.145545,7.999997 L 15.145545,7.999997 z" />
    <path
       id="path15002"
       style="fill:none;fill-opacity:1;stroke:#ffffff;stroke-width:0.57960641;stroke-linecap:round;stroke-linejoin:round;stroke-miterlimit:4;stroke-dasharray:none;stroke-opacity:1"
       d="M 12.727654,7.2996881 C 11.701309,6.5452445 10.43559,5.9531581 9.1192847,6.1569975 C 8.5554457,6.1862358 8.0818786,6.7146594 8.0737051,7.2847588 C 8.0460823,7.6810417 8.2361538,8.0516705 8.5142887,8.3051327 C 9.1899685,9.2417373 10.16803,9.8899309 10.852237,10.818825 C 11.071496,11.312653 10.752886,11.891374 10.308319,12.144164 C 9.7696701,12.478714 9.0944898,12.442742 8.5215766,12.278043 C 7.539339,11.959704 6.8026693,11.175001 6.1839154,10.372382 C 6.5632753,11.075599 7.1906799,11.616611 7.8847391,11.978901 C 8.252085,12.151926 8.6509641,12.259744 9.0541464,12.31465 C 9.5954632,12.360285 10.256802,12.252538 10.583658,11.741301 C 10.738624,11.500932 10.760955,11.196359 10.618417,10.954035 C 10.271526,10.205352 9.5244922,9.8014331 8.9965833,9.2087187 C 8.4644119,8.677284 7.9309004,8.0151524 7.9368208,7.2019816 C 7.9099486,6.7264072 8.2584535,6.2894163 8.6976875,6.1511787 C 9.3603574,5.9395582 10.064107,6.0554739 10.716457,6.2033726 C 11.543909,6.4024183 12.361595,6.7352968 12.989219,7.3256121 C 13.227188,7.6264214 12.800731,7.3365302 12.727654,7.2996881 z" />
    <path
       id="path16838"
       style="fill:none;fill-rule:evenodd;stroke:#ffffff;stroke-width:0.46280602;stroke-linecap:round;stroke-linejoin:miter;stroke-miterlimit:4;stroke-dasharray:none;stroke-opacity:1"
       d="M 10.859035,5.109642 C 7.0470862,12.894113 7.0470862,12.894113 7.0470862,12.894113" />
    <path
       id="path17729"
       style="fill:none;fill-rule:evenodd;stroke:#ffffff;stroke-width:0.46280602;stroke-linecap:round;stroke-linejoin:miter;stroke-miterlimit:4;stroke-dasharray:none;stroke-opacity:1"
       d="M 11.948103,5.6685485 C 8.1361539,13.453019 8.1361539,13.453019 8.1361539,13.453019" />
    <path
       id="path1945"
       d="M 5.3071253,3.0663391 C 5.3071253,6.1719902 5.3071253,6.1719902 5.3071253,6.1719902"
       style="fill:none;fill-rule:evenodd;stroke:#ffffff;stroke-width:0.62795931px;stroke-linecap:round;stroke-linejoin:round;stroke-opacity:1" />
    <path
       id="path2834"
       d="M 3.7936118,4.6781328 C 6.8992629,4.6781328 6.8992629,4.6781328 6.8992629,4.6781328"
       style="fill:none;fill-rule:evenodd;stroke:#ffffff;stroke-width:0.62795931px;stroke-linecap:round;stroke-linejoin:round;stroke-opacity:1" />
    <g
       transform="translate(4.98031e-2,-0.163139)"
       id="g2901">
      <rect
         style="fill:none;fill-opacity:1;stroke:none;stroke-width:1.55158257;stroke-linecap:round;stroke-linejoin:round;stroke-miterlimit:4;stroke-dasharray:none;stroke-opacity:1"
         id="rect2942"
         width="5.4196706"
         height="3.3571696"
         x="1.8729681"
         y="7.4712706"
         transform="matrix(0.963005,-0.269485,0.269485,0.963005,0,0)" />
      <g
         inkscape:label="Layer 1"
         id="layer1"
         transform="translate(4.12207e-2,7.47524e-2)">
        <path
           sodipodi:nodetypes="cscssscc"
           id="path2394"
           d="M 7.9427597,0.86404707 C 4.0385897,0.86404707 0.84900969,4.0000455 0.84900969,7.8640471 C 0.84900969,8.0858123 0.86349668,8.4076816 0.88391068,8.6241956 C 1.3397607,8.3659402 1.7383699,8.0386301 2.2682039,7.8091296 C 3.7929949,7.1486588 5.5835057,6.4835094 7.5990097,6.1140471 C 9.6145137,5.7445847 11.805164,5.551547 14.13026,5.551547 C 14.274086,5.551547 14.393542,5.5812424 14.53651,5.582797 C 13.570792,2.8541184 11.028181,0.86404707 7.9427597,0.86404707 z"
           style="fill:url(#linearGradient17194);fill-opacity:1;fill-rule:evenodd;stroke:none;stroke-width:1px;stroke-linecap:butt;stroke-linejoin:miter;stroke-opacity:1" />
      </g>
    </g>
  </g>
</svg>
