<?xml version="1.0" encoding="UTF-8" standalone="no"?>
<!-- Created with Inkscape (http://www.inkscape.org/) -->
<svg
   xmlns:dc="http://purl.org/dc/elements/1.1/"
   xmlns:cc="http://creativecommons.org/ns#"
   xmlns:rdf="http://www.w3.org/1999/02/22-rdf-syntax-ns#"
   xmlns:svg="http://www.w3.org/2000/svg"
   xmlns="http://www.w3.org/2000/svg"
   xmlns:xlink="http://www.w3.org/1999/xlink"
   xmlns:sodipodi="http://sodipodi.sourceforge.net/DTD/sodipodi-0.dtd"
   xmlns:inkscape="http://www.inkscape.org/namespaces/inkscape"
   version="1.0"
   width="48"
   height="48"
   id="svg1872"
   sodipodi:version="0.32"
   inkscape:version="0.45+devel"
   sodipodi:docname="emblem-generic.svg"
   sodipodi:docbase="/usr/share/icons/Human/48x48/emblems"
   inkscape:output_extension="org.inkscape.output.svg.inkscape">
  <metadata
     id="metadata10">
    <rdf:RDF>
      <cc:Work
         rdf:about="">
        <dc:format>image/svg+xml</dc:format>
        <dc:type
           rdf:resource="http://purl.org/dc/dcmitype/StillImage" />
      </cc:Work>
    </rdf:RDF>
  </metadata>
  <sodipodi:namedview
     inkscape:window-height="701"
     inkscape:window-width="1024"
     inkscape:pageshadow="2"
     inkscape:pageopacity="0.0"
     guidetolerance="10.0"
     gridtolerance="10.0"
     objecttolerance="10.0"
     borderopacity="1.0"
     bordercolor="#666666"
     pagecolor="#ffffff"
     id="base"
     inkscape:zoom="25.4375"
     inkscape:cx="10.096111"
     inkscape:cy="21.645192"
     inkscape:window-x="0"
     inkscape:window-y="24"
     inkscape:current-layer="svg1872"
     width="48px"
     height="48px"
     showgrid="true"
     gridspacingx="1px"
     gridspacingy="1px"
     gridoriginx="0px"
     inkscape:document-units="px"
     grid_units="px"
     gridempspacing="5" />
  <defs
     id="defs1874">
    <linearGradient
       id="linearGradient9233">
      <stop
         id="stop9235"
         offset="0"
         style="stop-color:#eeeeec;stop-opacity:1;" />
      <stop
         id="stop9237"
         offset="1"
         style="stop-color:#eeeeec;stop-opacity:0;" />
    </linearGradient>
    <linearGradient
       y2="-6.2254333"
       x2="-15.286263"
       y1="7.1375623"
       x1="-10.638614"
       gradientTransform="translate(22.43465,4.820297)"
       gradientUnits="userSpaceOnUse"
       id="linearGradient1929"
       xlink:href="#linearGradient9233"
       inkscape:collect="always" />
  </defs>
  <g
     transform="matrix(3.3932944,0,0,3.4122178,-2.8994163,-3.1832875)"
     id="g1919">
    <path
       d="M 15,8.000003 C 15,11.865998 11.833412,15.000006 7.9272274,15.000006 C 4.0210429,15.000006 0.8544547,11.865998 0.8544547,8.000003 C 0.8544547,4.134008 4.0210429,0.99999983 7.9272273,0.99999983 C 11.833412,0.99999983 15,4.134008 15,8.000003 L 15,8.000003 z"
       style="fill:#ff7000;fill-opacity:1;fill-rule:evenodd;stroke:none;stroke-width:1px;stroke-linecap:butt;stroke-linejoin:miter;stroke-opacity:1"
       id="path1880" />
    <path
       d="M 13.480132,8.0000045 C 13.480132,11.026604 11.026591,13.480147 7.9999946,13.480147 C 4.9733983,13.480147 2.5198572,11.026604 2.5198572,8.0000045 C 2.5198572,4.9734052 4.9733983,2.5198618 7.9999946,2.5198618 C 11.026591,2.5198618 13.480132,4.9734052 13.480132,8.0000045 L 13.480132,8.0000045 z"
       style="fill:none;fill-opacity:1;stroke:#ffffff;stroke-width:0.47619626;stroke-opacity:1"
       id="path2798" />
    <path
       sodipodi:type="star"
       style="opacity:1;fill:#ffffff;fill-opacity:1;stroke-width:1.06500006;stroke-linecap:round;stroke-linejoin:round;stroke-miterlimit:4;stroke-dasharray:none;stroke-opacity:1"
       id="path1879"
       sodipodi:sides="6"
       sodipodi:cx="7.2727275"
       sodipodi:cy="6.3685503"
       sodipodi:r1="4.7970352"
       sodipodi:r2="1.1512884"
       sodipodi:arg1="0.86661447"
       sodipodi:arg2="1.3902132"
       inkscape:flatsided="false"
       inkscape:rounded="0.22"
       inkscape:randomized="0.008"
       d="M 10.414315,10.032655 C 9.7775641,10.584235 8.283725,7.3745534 7.448378,7.5190036 C 6.613031,7.6634538 6.4482754,11.165162 5.6526975,10.887899 C 4.8571197,10.610636 6.9216245,7.7297772 6.3672869,7.0868952 C 5.8129493,6.4440132 2.7117259,8.032959 2.569541,7.197512 C 2.4273561,6.3620651 5.8884502,6.7704179 6.1815113,5.9743809 C 6.4745723,5.1783439 3.5374377,3.2660137 4.1794458,2.7161021 C 4.8214539,2.1661906 6.2405388,5.3952018 7.0686316,5.2382517 C 7.8967244,5.0813016 8.0665814,1.5814325 8.8643109,1.8608577 C 9.6620403,2.1402828 7.5954653,4.9921349 8.1456628,5.6330661 C 8.6958604,6.2739974 11.830779,4.6475656 11.977883,5.4805156 C 12.124988,6.3134656 8.6273857,5.9745603 8.3354959,6.7658776 C 8.0436062,7.557195 11.051066,9.4810743 10.414315,10.032655 z"
       transform="matrix(0.754953,-0.275927,0.262833,0.719126,0.79503,5.369894)" />
    <g
       id="g2901"
       transform="translate(-2.882111e-2,-5.890703e-3)">
      <rect
         transform="matrix(0.963005,-0.269485,0.269485,0.963005,0,0)"
         y="7.4712706"
         x="1.8729681"
         height="3.3571696"
         width="5.4196706"
         id="rect2942"
         style="fill:none;fill-opacity:1;stroke:none;stroke-width:1.55158257;stroke-linecap:round;stroke-linejoin:round;stroke-miterlimit:4;stroke-dasharray:none;stroke-opacity:1" />
      <g
         transform="translate(4.12207e-2,7.47524e-2)"
         id="layer1"
         inkscape:label="Layer 1">
        <path
           style="fill:url(#linearGradient1929);fill-opacity:1;fill-rule:evenodd;stroke:none;stroke-width:1px;stroke-linecap:butt;stroke-linejoin:miter;stroke-opacity:1"
           d="M 7.9427597,0.86404707 C 4.0385897,0.86404707 0.84900969,4.0000455 0.84900969,7.8640471 C 0.84900969,8.0858123 0.86349668,8.4076816 0.88391068,8.6241956 C 1.3397607,8.3659402 1.7383699,8.0386301 2.2682039,7.8091296 C 3.7929949,7.1486588 5.5835057,6.4835094 7.5990097,6.1140471 C 9.6145137,5.7445847 11.805164,5.551547 14.13026,5.551547 C 14.274086,5.551547 14.393542,5.5812424 14.53651,5.582797 C 13.570792,2.8541184 11.028181,0.86404707 7.9427597,0.86404707 z"
           id="path2394"
           sodipodi:nodetypes="cscssscc" />
      </g>
    </g>
  </g>
</svg>
