<?xml version="1.0" encoding="UTF-8" standalone="no"?>
<!-- Created with Inkscape (http://www.inkscape.org/) -->
<svg
   xmlns:dc="http://purl.org/dc/elements/1.1/"
   xmlns:cc="http://creativecommons.org/ns#"
   xmlns:rdf="http://www.w3.org/1999/02/22-rdf-syntax-ns#"
   xmlns:svg="http://www.w3.org/2000/svg"
   xmlns="http://www.w3.org/2000/svg"
   xmlns:xlink="http://www.w3.org/1999/xlink"
   xmlns:sodipodi="http://sodipodi.sourceforge.net/DTD/sodipodi-0.dtd"
   xmlns:inkscape="http://www.inkscape.org/namespaces/inkscape"
   version="1.0"
   width="48"
   height="48"
   id="svg1872"
   sodipodi:version="0.32"
   inkscape:version="0.45+devel"
   sodipodi:docname="emblem-certified.svg"
   sodipodi:docbase="/usr/share/icons/Human/48x48/emblems"
   inkscape:export-filename="/usr/share/icons/Human/24x24/emblems/emblem-certified.png"
   inkscape:export-xdpi="90"
   inkscape:export-ydpi="90"
   inkscape:output_extension="org.inkscape.output.svg.inkscape">
  <metadata
     id="metadata10">
    <rdf:RDF>
      <cc:Work
         rdf:about="">
        <dc:format>image/svg+xml</dc:format>
        <dc:type
           rdf:resource="http://purl.org/dc/dcmitype/StillImage" />
      </cc:Work>
    </rdf:RDF>
  </metadata>
  <sodipodi:namedview
     inkscape:window-height="701"
     inkscape:window-width="1024"
     inkscape:pageshadow="2"
     inkscape:pageopacity="0.0"
     guidetolerance="10.0"
     gridtolerance="10.0"
     objecttolerance="10.0"
     borderopacity="1.0"
     bordercolor="#666666"
     pagecolor="#ffffff"
     id="base"
     inkscape:zoom="25.4375"
     inkscape:cx="10.096111"
     inkscape:cy="18.500229"
     inkscape:window-x="0"
     inkscape:window-y="24"
     inkscape:current-layer="svg1872"
     width="48px"
     height="48px"
     showgrid="true"
     gridspacingx="1px"
     gridspacingy="1px"
     gridoriginx="0px"
     inkscape:document-units="px"
     grid_units="px"
     gridempspacing="5" />
  <defs
     id="defs1874">
    <linearGradient
       id="linearGradient9233">
      <stop
         id="stop9235"
         offset="0"
         style="stop-color:#eeeeec;stop-opacity:1;" />
      <stop
         id="stop9237"
         offset="1"
         style="stop-color:#eeeeec;stop-opacity:0;" />
    </linearGradient>
    <linearGradient
       inkscape:collect="always"
       xlink:href="#linearGradient9233"
       id="linearGradient5083"
       gradientUnits="userSpaceOnUse"
       gradientTransform="translate(22.43465,4.820297)"
       x1="-10.638614"
       y1="7.1375623"
       x2="-15.286263"
       y2="-6.2254333" />
  </defs>
  <g
     id="g5073"
     transform="matrix(3.3932944,0,0,3.4027085,-2.8994163,-3.0406479)">
    <path
       d="M 15,8.000003 C 15,11.865998 11.833412,15.000006 7.9272274,15.000006 C 4.0210429,15.000006 0.8544547,11.865998 0.8544547,8.000003 C 0.8544547,4.134008 4.0210429,0.99999983 7.9272273,0.99999983 C 11.833412,0.99999983 15,4.134008 15,8.000003 L 15,8.000003 z"
       style="fill:#ff7000;fill-opacity:1;fill-rule:evenodd;stroke:none;stroke-width:1px;stroke-linecap:butt;stroke-linejoin:miter;stroke-opacity:1"
       id="path1880" />
    <path
       d="M 13.99999,7.9999989 C 13.99999,11.313708 11.313701,14 7.9999948,14 C 4.6862888,14 1.9999993,11.313708 1.9999993,7.9999989 C 1.9999993,4.6862899 4.6862888,1.999998 7.9999948,1.999998 C 11.313701,1.999998 13.99999,4.6862899 13.99999,7.9999989 L 13.99999,7.9999989 z"
       style="fill:none;fill-opacity:1;stroke:none"
       id="path2798" />
    <path
       d="M 9.2693464,13.008777 L 7.9360333,12.150701 L 6.5879178,12.986031 L 5.8687653,11.586198 L 4.2772773,11.645606 L 4.3649818,10.0791 L 2.9565592,9.3466675 L 3.8276204,8.0332317 L 2.9796489,6.705214 L 4.4006666,5.9967828 L 4.3403595,4.429021 L 5.9305731,4.515418 L 6.6740897,3.1279924 L 8.0074028,3.9860676 L 9.3555184,3.1507379 L 10.074671,4.5505708 L 11.666159,4.4911628 L 11.578454,6.0576692 L 12.986877,6.7901014 L 12.115816,8.1035373 L 12.963787,9.4315549 L 11.54277,10.139986 L 11.603076,11.707748 L 10.012863,11.621351 L 9.2693464,13.008777 z"
       style="fill:#ffffff;fill-opacity:1;stroke:#ffffff;stroke-width:0.48292202;stroke-linecap:round;stroke-opacity:1"
       id="path5461" />
    <path
       d="M 4.919595,7.9320504 C 7.1942215,9.6454466 7.1942215,9.6454466 7.1942215,9.6454466 C 10.784334,6.5753298 10.784334,6.5753298 10.784334,6.5753298"
       style="fill:none;fill-opacity:1;fill-rule:evenodd;stroke:#ff7000;stroke-width:0.62500006px;stroke-linecap:round;stroke-linejoin:miter;stroke-opacity:1"
       id="path5463" />
    <g
       transform="translate(-2.882102e-2,-4.520297e-2)"
       id="g2901">
      <rect
         style="fill:none;fill-opacity:1;stroke:none;stroke-width:1.55158257;stroke-linecap:round;stroke-linejoin:round;stroke-miterlimit:4;stroke-dasharray:none;stroke-opacity:1"
         id="rect2942"
         width="5.4196706"
         height="3.3571696"
         x="1.8729681"
         y="7.4712706"
         transform="matrix(0.963005,-0.269485,0.269485,0.963005,0,0)" />
      <g
         inkscape:label="Layer 1"
         id="layer1"
         transform="translate(4.12207e-2,7.47524e-2)">
        <path
           sodipodi:nodetypes="cscssscc"
           id="path2394"
           d="M 7.9427597,0.86404707 C 4.0385897,0.86404707 0.84900969,4.0000455 0.84900969,7.8640471 C 0.84900969,8.0858123 0.86349668,8.4076816 0.88391068,8.6241956 C 1.3397607,8.3659402 1.7383699,8.0386301 2.2682039,7.8091296 C 3.7929949,7.1486588 5.5835057,6.4835094 7.5990097,6.1140471 C 9.6145137,5.7445847 11.805164,5.551547 14.13026,5.551547 C 14.274086,5.551547 14.393542,5.5812424 14.53651,5.582797 C 13.570792,2.8541184 11.028181,0.86404707 7.9427597,0.86404707 z"
           style="fill:url(#linearGradient5083);fill-opacity:1;fill-rule:evenodd;stroke:none;stroke-width:1px;stroke-linecap:butt;stroke-linejoin:miter;stroke-opacity:1" />
      </g>
    </g>
  </g>
</svg>
