<?xml version="1.0" encoding="UTF-8" standalone="no"?>
<!-- Created with Inkscape (http://www.inkscape.org/) -->
<svg
   xmlns:dc="http://purl.org/dc/elements/1.1/"
   xmlns:cc="http://creativecommons.org/ns#"
   xmlns:rdf="http://www.w3.org/1999/02/22-rdf-syntax-ns#"
   xmlns:svg="http://www.w3.org/2000/svg"
   xmlns="http://www.w3.org/2000/svg"
   xmlns:xlink="http://www.w3.org/1999/xlink"
   xmlns:sodipodi="http://sodipodi.sourceforge.net/DTD/sodipodi-0.dtd"
   xmlns:inkscape="http://www.inkscape.org/namespaces/inkscape"
   version="1.0"
   width="48"
   height="48"
   id="svg1872"
   sodipodi:version="0.32"
   inkscape:version="0.45+devel"
   sodipodi:docname="emblem-personal.svg"
   sodipodi:docbase="/usr/share/icons/Human/48x48/emblems"
   inkscape:output_extension="org.inkscape.output.svg.inkscape">
  <metadata
     id="metadata15">
    <rdf:RDF>
      <cc:Work
         rdf:about="">
        <dc:format>image/svg+xml</dc:format>
        <dc:type
           rdf:resource="http://purl.org/dc/dcmitype/StillImage" />
      </cc:Work>
    </rdf:RDF>
  </metadata>
  <sodipodi:namedview
     inkscape:window-height="701"
     inkscape:window-width="1024"
     inkscape:pageshadow="2"
     inkscape:pageopacity="0.0"
     guidetolerance="10.0"
     gridtolerance="10.0"
     objecttolerance="10.0"
     borderopacity="1.0"
     bordercolor="#666666"
     pagecolor="#ffffff"
     id="base"
     inkscape:zoom="12.71875"
     inkscape:cx="17.910144"
     inkscape:cy="13.930706"
     inkscape:window-x="0"
     inkscape:window-y="24"
     inkscape:current-layer="svg1872"
     showgrid="true"
     width="48px"
     height="48px" />
  <defs
     id="defs1874">
    <linearGradient
       id="linearGradient9233">
      <stop
         id="stop9235"
         offset="0"
         style="stop-color:#eeeeec;stop-opacity:1;" />
      <stop
         id="stop9237"
         offset="1"
         style="stop-color:#eeeeec;stop-opacity:0;" />
    </linearGradient>
    <linearGradient
       inkscape:collect="always"
       xlink:href="#linearGradient9233"
       id="linearGradient16240"
       gradientUnits="userSpaceOnUse"
       gradientTransform="translate(22.43465,4.820297)"
       x1="-10.638614"
       y1="7.1375623"
       x2="-15.286263"
       y2="-6.2254333" />
  </defs>
  <g
     id="g16227"
     transform="matrix(3.3932945,0,0,3.4027099,-3.3932945,-3.0406485)">
    <path
       id="path14961"
       style="fill:#ff7000;fill-opacity:1;fill-rule:evenodd;stroke:none;stroke-width:1px;stroke-linecap:butt;stroke-linejoin:miter;stroke-opacity:1"
       d="M 15.145545,7.999997 C 15.145545,11.865992 11.978957,15 8.0727727,15 C 4.1665882,15 1,11.865992 1,7.999997 C 1,4.134002 4.1665882,0.9999938 8.0727726,0.9999938 C 11.978957,0.9999938 15.145545,4.134002 15.145545,7.999997 L 15.145545,7.999997 z" />
    <path
       id="path18669"
       style="fill:#ff7000;fill-opacity:1;fill-rule:evenodd;stroke:none;stroke-width:1px;stroke-linecap:butt;stroke-linejoin:miter;stroke-opacity:1"
       d="M 10.478586,5.9371933 C 10.478586,6.6943464 10.018634,7.3081402 9.4512553,7.3081402 C 8.8838765,7.3081402 8.4239253,6.6943464 8.4239253,5.9371933 C 8.4239253,5.1800404 8.8838765,4.5662466 9.4512553,4.5662466 C 10.018634,4.5662466 10.478586,5.1800404 10.478586,5.9371933 L 10.478586,5.9371933 z" />
    <path
       id="path18837"
       style="fill:#ffffff;fill-opacity:1;stroke:#ffffff;stroke-width:0.64864731;stroke-linecap:round;stroke-linejoin:round;stroke-miterlimit:4;stroke-dasharray:none;stroke-opacity:1"
       transform="matrix(0.965712,0,0,1.014672,1.272519,-0.899363)"
       d="M 9.3956594,6.3541603 C 9.3959231,7.5978813 8.3753146,8.6062546 7.116239,8.6062546 C 5.8571635,8.6062546 4.836555,7.5978813 4.8368187,6.3541603 C 4.836555,5.1104393 5.8571635,4.102066 7.116239,4.102066 C 8.3753146,4.102066 9.3959231,5.1104393 9.3956594,6.3541603 L 9.3956594,6.3541603 z" />
    <rect
       id="rect18841"
       style="fill:#ffffff;fill-opacity:1;stroke:#ffffff;stroke-width:0.64864731;stroke-linecap:round;stroke-linejoin:round;stroke-miterlimit:4;stroke-dasharray:none;stroke-opacity:1"
       y="10.496034"
       x="4.7812233"
       height="1.6678686"
       width="6.5046873" />
    <path
       id="path18847"
       style="fill:#ffffff;fill-opacity:1;stroke:#ffffff;stroke-width:0.64864731;stroke-linecap:round;stroke-linejoin:round;stroke-miterlimit:4;stroke-dasharray:none;stroke-opacity:1"
       transform="matrix(0.939254,0,0,1.126381,0.461892,-0.967421)"
       d="M 11.508294,9.6343012 C 11.508294,10.662906 9.9650515,11.496755 8.0613653,11.496755 C 6.1576791,11.496755 4.6144366,10.662906 4.6144366,9.6343012 C 4.6144366,8.6056966 6.1576791,7.7718479 8.0613653,7.7718479 C 9.9650515,7.7718479 11.508294,8.6056966 11.508294,9.6343012 z" />
    <path
       id="path18851"
       style="fill:none;fill-rule:evenodd;stroke:#ffffff;stroke-width:0.47657326px;stroke-linecap:butt;stroke-linejoin:miter;stroke-opacity:1"
       d="M 10.479774,8.3402146 C 10.479774,11.150771 10.479774,11.150771 10.479774,11.150771" />
    <path
       id="path3768"
       d="M 4.0884527,3.6560231 C 12.000233,12.999244 11.715123,12.697849 11.715123,12.697849"
       style="fill:#ff7000;fill-opacity:1;fill-rule:evenodd;stroke:#ff7000;stroke-width:1.12699401;stroke-linecap:round;stroke-linejoin:miter;stroke-miterlimit:4;stroke-dasharray:none;stroke-opacity:1" />
    <g
       transform="translate(0.128428,-4.520318e-2)"
       id="g2901">
      <rect
         style="fill:none;fill-opacity:1;stroke:none;stroke-width:1.55158257;stroke-linecap:round;stroke-linejoin:round;stroke-miterlimit:4;stroke-dasharray:none;stroke-opacity:1"
         id="rect2942"
         width="5.4196706"
         height="3.3571696"
         x="1.8729681"
         y="7.4712706"
         transform="matrix(0.963005,-0.269485,0.269485,0.963005,0,0)" />
      <g
         inkscape:label="Layer 1"
         id="layer1"
         transform="translate(4.12207e-2,7.47524e-2)">
        <path
           sodipodi:nodetypes="cscssscc"
           id="path2394"
           d="M 7.9427597,0.86404707 C 4.0385897,0.86404707 0.84900969,4.0000455 0.84900969,7.8640471 C 0.84900969,8.0858123 0.86349668,8.4076816 0.88391068,8.6241956 C 1.3397607,8.3659402 1.7383699,8.0386301 2.2682039,7.8091296 C 3.7929949,7.1486588 5.5835057,6.4835094 7.5990097,6.1140471 C 9.6145137,5.7445847 11.805164,5.551547 14.13026,5.551547 C 14.274086,5.551547 14.393542,5.5812424 14.53651,5.582797 C 13.570792,2.8541184 11.028181,0.86404707 7.9427597,0.86404707 z"
           style="fill:url(#linearGradient16240);fill-opacity:1;fill-rule:evenodd;stroke:none;stroke-width:1px;stroke-linecap:butt;stroke-linejoin:miter;stroke-opacity:1" />
      </g>
    </g>
  </g>
</svg>
