<?xml version="1.0" encoding="UTF-8" standalone="no"?>
<!-- Created with Inkscape (http://www.inkscape.org/) -->
<svg
   xmlns:dc="http://purl.org/dc/elements/1.1/"
   xmlns:cc="http://creativecommons.org/ns#"
   xmlns:rdf="http://www.w3.org/1999/02/22-rdf-syntax-ns#"
   xmlns:svg="http://www.w3.org/2000/svg"
   xmlns="http://www.w3.org/2000/svg"
   xmlns:xlink="http://www.w3.org/1999/xlink"
   xmlns:sodipodi="http://sodipodi.sourceforge.net/DTD/sodipodi-0.dtd"
   xmlns:inkscape="http://www.inkscape.org/namespaces/inkscape"
   version="1.0"
   width="48"
   height="48"
   id="svg1872"
   sodipodi:version="0.32"
   inkscape:version="0.45+devel"
   sodipodi:docname="emblem-danger.svg"
   sodipodi:docbase="/usr/share/icons/Human/48x48/emblems"
   inkscape:output_extension="org.inkscape.output.svg.inkscape">
  <metadata
     id="metadata20">
    <rdf:RDF>
      <cc:Work
         rdf:about="">
        <dc:format>image/svg+xml</dc:format>
        <dc:type
           rdf:resource="http://purl.org/dc/dcmitype/StillImage" />
      </cc:Work>
    </rdf:RDF>
  </metadata>
  <sodipodi:namedview
     inkscape:window-height="701"
     inkscape:window-width="1024"
     inkscape:pageshadow="2"
     inkscape:pageopacity="0.0"
     guidetolerance="10.0"
     gridtolerance="10.0"
     objecttolerance="10.0"
     borderopacity="1.0"
     bordercolor="#666666"
     pagecolor="#ffffff"
     id="base"
     inkscape:zoom="12.71875"
     inkscape:cx="18.325874"
     inkscape:cy="8.4410779"
     inkscape:window-x="0"
     inkscape:window-y="24"
     inkscape:current-layer="svg1872"
     showgrid="true"
     width="48px"
     height="48px" />
  <defs
     id="defs1874">
    <linearGradient
       id="linearGradient9233">
      <stop
         id="stop9235"
         offset="0"
         style="stop-color:#eeeeec;stop-opacity:1;" />
      <stop
         id="stop9237"
         offset="1"
         style="stop-color:#eeeeec;stop-opacity:0;" />
    </linearGradient>
    <linearGradient
       inkscape:collect="always"
       xlink:href="#linearGradient9233"
       id="linearGradient16059"
       gradientUnits="userSpaceOnUse"
       gradientTransform="translate(22.43465,4.820297)"
       x1="-10.638614"
       y1="7.1375623"
       x2="-15.286263"
       y2="-6.2254333" />
  </defs>
  <g
     id="g16038"
     transform="matrix(3.3932945,0,0,3.4027099,-3.3932945,-3.0406485)">
    <path
       id="path14961"
       style="fill:#ff7000;fill-opacity:1;fill-rule:evenodd;stroke:none;stroke-width:1px;stroke-linecap:butt;stroke-linejoin:miter;stroke-opacity:1"
       d="M 15.145545,7.999997 C 15.145545,11.865992 11.978957,15 8.0727727,15 C 4.1665882,15 1,11.865992 1,7.999997 C 1,4.134002 4.1665882,0.9999938 8.0727726,0.9999938 C 11.978957,0.9999938 15.145545,4.134002 15.145545,7.999997 L 15.145545,7.999997 z" />
    <path
       id="path18769"
       style="fill:#ffffff;fill-opacity:1;stroke:#ffffff;stroke-width:0.64864731;stroke-linecap:round;stroke-linejoin:round;stroke-miterlimit:4;stroke-dasharray:none;stroke-opacity:1"
       transform="matrix(0.972061,0,0,0.898263,-1.688048e-2,1.11798)"
       d="M 4.0028846,7.6328592 C 4.0028846,7.8938484 3.741529,8.105422 3.4191306,8.105422 C 3.0967322,8.105422 2.8353766,7.8938484 2.8353766,7.6328592 C 2.8353766,7.37187 3.0967322,7.1602964 3.4191306,7.1602964 C 3.741529,7.1602964 4.0028846,7.37187 4.0028846,7.6328592 z" />
    <path
       id="path18771"
       style="fill:#ffffff;fill-opacity:1;stroke:#ffffff;stroke-width:0.64864731;stroke-linecap:round;stroke-linejoin:round;stroke-miterlimit:4;stroke-dasharray:none;stroke-opacity:1"
       transform="matrix(0.972061,0,0,0.898263,8.602872,4.93835)"
       d="M 4.0028846,7.6328592 C 4.0028846,7.8938484 3.741529,8.105422 3.4191306,8.105422 C 3.0967322,8.105422 2.8353766,7.8938484 2.8353766,7.6328592 C 2.8353766,7.37187 3.0967322,7.1602964 3.4191306,7.1602964 C 3.741529,7.1602964 4.0028846,7.37187 4.0028846,7.6328592 z" />
    <path
       id="path18773"
       style="fill:none;fill-rule:evenodd;stroke:#ffffff;stroke-width:0.58505589px;stroke-linecap:butt;stroke-linejoin:miter;stroke-opacity:1"
       d="M 3.1716171,7.8494464 C 12.03456,11.944484 12.03456,11.944484 12.03456,11.944484" />
    <path
       id="path18661"
       style="fill:#ffffff;fill-opacity:1;stroke:#ffffff;stroke-width:0.64864731;stroke-linecap:round;stroke-linejoin:round;stroke-miterlimit:4;stroke-dasharray:none;stroke-opacity:1"
       transform="matrix(0.972061,0,0,-0.898263,0.985415,18.56602)"
       d="M 4.0028846,7.6328592 C 4.0028846,7.8938484 3.741529,8.105422 3.4191306,8.105422 C 3.0967322,8.105422 2.8353766,7.8938484 2.8353766,7.6328592 C 2.8353766,7.37187 3.0967322,7.1602964 3.4191306,7.1602964 C 3.741529,7.1602964 4.0028846,7.37187 4.0028846,7.6328592 z" />
    <path
       id="path18663"
       style="fill:#ffffff;fill-opacity:1;stroke:#ffffff;stroke-width:0.64864731;stroke-linecap:round;stroke-linejoin:round;stroke-miterlimit:4;stroke-dasharray:none;stroke-opacity:1"
       transform="matrix(0.972061,0,0,-0.898263,9.605168,14.74565)"
       d="M 4.0028846,7.6328592 C 4.0028846,7.8938484 3.741529,8.105422 3.4191306,8.105422 C 3.0967322,8.105422 2.8353766,7.8938484 2.8353766,7.6328592 C 2.8353766,7.37187 3.0967322,7.1602964 3.4191306,7.1602964 C 3.741529,7.1602964 4.0028846,7.37187 4.0028846,7.6328592 z" />
    <path
       id="path18665"
       style="fill:none;fill-rule:evenodd;stroke:#ffffff;stroke-width:0.58505589px;stroke-linecap:butt;stroke-linejoin:miter;stroke-opacity:1"
       d="M 4.1739126,11.834554 C 13.036855,7.7395157 13.036855,7.7395157 13.036855,7.7395157" />
    <g
       id="g18633"
       style="fill:#ffffff;fill-opacity:1;stroke:#ffffff;stroke-width:0.62610745;stroke-opacity:1"
       transform="matrix(0.871828,0,0,0.871962,1.130703,0.58769)">
      <path
         id="path18629"
         style="fill:#ffffff;fill-opacity:1;stroke:#ffffff;stroke-width:0.64864731;stroke-linecap:round;stroke-linejoin:round;stroke-miterlimit:4;stroke-dasharray:none;stroke-opacity:1"
         transform="translate(-0.444765,-1.223104)"
         d="M 11.67508,7.4660726 C 11.67508,9.2315879 10.256293,10.662821 8.5061295,10.662821 C 6.7559664,10.662821 5.3371789,9.2315879 5.3371789,7.4660726 C 5.3371789,5.7005573 6.7559664,4.2693243 8.5061294,4.2693243 C 10.256293,4.2693243 11.67508,5.7005573 11.67508,7.4660726 L 11.67508,7.4660726 z" />
      <rect
         id="rect18631"
         style="fill:#ffffff;fill-opacity:1;stroke:#ffffff;stroke-width:0.64864731;stroke-linecap:round;stroke-linejoin:round;stroke-miterlimit:4;stroke-dasharray:none;stroke-opacity:1"
         y="8.7169743"
         x="6.1155181"
         height="3.2801416"
         width="3.7249064" />
    </g>
    <path
       id="path18667"
       style="fill:#ff7000;fill-opacity:1;fill-rule:evenodd;stroke:none;stroke-width:1px;stroke-linecap:butt;stroke-linejoin:miter;stroke-opacity:1"
       d="M 7.8322776,5.9355507 C 7.8322776,6.6927038 7.3723264,7.3064976 6.8049476,7.3064976 C 6.2375688,7.3064976 5.7776176,6.6927038 5.7776176,5.9355507 C 5.7776176,5.1783978 6.2375688,4.564604 6.8049476,4.564604 C 7.3723264,4.564604 7.8322776,5.1783978 7.8322776,5.9355507 L 7.8322776,5.9355507 z" />
    <path
       id="path18669"
       style="fill:#ff7000;fill-opacity:1;fill-rule:evenodd;stroke:none;stroke-width:1px;stroke-linecap:butt;stroke-linejoin:miter;stroke-opacity:1"
       d="M 10.478586,5.9371933 C 10.478586,6.6943464 10.018634,7.3081402 9.4512553,7.3081402 C 8.8838765,7.3081402 8.4239253,6.6943464 8.4239253,5.9371933 C 8.4239253,5.1800404 8.8838765,4.5662466 9.4512553,4.5662466 C 10.018634,4.5662466 10.478586,5.1800404 10.478586,5.9371933 L 10.478586,5.9371933 z" />
    <path
       id="path18671"
       style="fill:#ff7000;fill-opacity:1;fill-rule:evenodd;stroke:none;stroke-width:1px;stroke-linecap:butt;stroke-linejoin:miter;stroke-opacity:1"
       d="M 7.1111912,9.834295 C 7.1111912,10.539903 6.9748232,11.111913 6.8066042,11.111913 C 6.6383852,11.111913 6.5020172,10.539903 6.5020172,9.834295 C 6.5020172,9.1286862 6.6383852,8.5566779 6.8066042,8.5566779 C 6.9748232,8.5566779 7.1111912,9.1286862 7.1111912,9.834295 L 7.1111912,9.834295 z" />
    <path
       id="path18673"
       style="fill:#ff7000;fill-opacity:1;fill-rule:evenodd;stroke:none;stroke-width:1px;stroke-linecap:butt;stroke-linejoin:miter;stroke-opacity:1"
       d="M 8.3659517,10.106865 C 8.3659517,10.781768 8.2295837,11.328887 8.0613647,11.328887 C 7.8931457,11.328887 7.7567777,10.781768 7.7567777,10.106865 C 7.7567777,9.4319604 7.8931457,8.884843 8.0613647,8.884843 C 8.2295837,8.884843 8.3659517,9.4319604 8.3659517,10.106865 L 8.3659517,10.106865 z" />
    <path
       id="path18675"
       style="fill:#ff7000;fill-opacity:1;fill-rule:evenodd;stroke:none;stroke-width:1px;stroke-linecap:butt;stroke-linejoin:miter;stroke-opacity:1"
       d="M 9.6446511,9.8288867 C 9.6446511,10.50379 9.5082831,11.050909 9.3400641,11.050909 C 9.1718451,11.050909 9.0354771,10.50379 9.0354771,9.8288867 C 9.0354771,9.1539819 9.1718451,8.6068648 9.3400641,8.6068648 C 9.5082831,8.6068648 9.6446511,9.1539819 9.6446511,9.8288867 L 9.6446511,9.8288867 z" />
    <g
       transform="translate(0.128428,-4.520345e-2)"
       id="g2901">
      <rect
         style="fill:none;fill-opacity:1;stroke:none;stroke-width:1.55158257;stroke-linecap:round;stroke-linejoin:round;stroke-miterlimit:4;stroke-dasharray:none;stroke-opacity:1"
         id="rect2942"
         width="5.4196706"
         height="3.3571696"
         x="1.8729681"
         y="7.4712706"
         transform="matrix(0.963005,-0.269485,0.269485,0.963005,0,0)" />
      <g
         inkscape:label="Layer 1"
         id="layer1"
         transform="translate(4.12207e-2,7.47524e-2)">
        <path
           sodipodi:nodetypes="cscssscc"
           id="path2394"
           d="M 7.9427597,0.86404707 C 4.0385897,0.86404707 0.84900969,4.0000455 0.84900969,7.8640471 C 0.84900969,8.0858123 0.86349668,8.4076816 0.88391068,8.6241956 C 1.3397607,8.3659402 1.7383699,8.0386301 2.2682039,7.8091296 C 3.7929949,7.1486588 5.5835057,6.4835094 7.5990097,6.1140471 C 9.6145137,5.7445847 11.805164,5.551547 14.13026,5.551547 C 14.274086,5.551547 14.393542,5.5812424 14.53651,5.582797 C 13.570792,2.8541184 11.028181,0.86404707 7.9427597,0.86404707 z"
           style="fill:url(#linearGradient16059);fill-opacity:1;fill-rule:evenodd;stroke:none;stroke-width:1px;stroke-linecap:butt;stroke-linejoin:miter;stroke-opacity:1" />
      </g>
    </g>
  </g>
</svg>
