<?xml version="1.0" encoding="UTF-8" standalone="no"?>
<!-- Created with Inkscape (http://www.inkscape.org/) -->
<svg
   xmlns:dc="http://purl.org/dc/elements/1.1/"
   xmlns:cc="http://creativecommons.org/ns#"
   xmlns:rdf="http://www.w3.org/1999/02/22-rdf-syntax-ns#"
   xmlns:svg="http://www.w3.org/2000/svg"
   xmlns="http://www.w3.org/2000/svg"
   xmlns:xlink="http://www.w3.org/1999/xlink"
   xmlns:sodipodi="http://sodipodi.sourceforge.net/DTD/sodipodi-0.dtd"
   xmlns:inkscape="http://www.inkscape.org/namespaces/inkscape"
   version="1.0"
   width="48"
   height="48"
   id="svg1872"
   sodipodi:version="0.32"
   inkscape:version="0.45+devel"
   sodipodi:docname="emblem-new.svg"
   sodipodi:docbase="/usr/share/icons/Human/48x48/emblems"
   inkscape:output_extension="org.inkscape.output.svg.inkscape">
  <metadata
     id="metadata10">
    <rdf:RDF>
      <cc:Work
         rdf:about="">
        <dc:format>image/svg+xml</dc:format>
        <dc:type
           rdf:resource="http://purl.org/dc/dcmitype/StillImage" />
      </cc:Work>
    </rdf:RDF>
  </metadata>
  <sodipodi:namedview
     inkscape:window-height="701"
     inkscape:window-width="1024"
     inkscape:pageshadow="2"
     inkscape:pageopacity="0.0"
     guidetolerance="10.0"
     gridtolerance="10.0"
     objecttolerance="10.0"
     borderopacity="1.0"
     bordercolor="#666666"
     pagecolor="#ffffff"
     id="base"
     inkscape:zoom="25.4375"
     inkscape:cx="10.792339"
     inkscape:cy="18.500229"
     inkscape:window-x="0"
     inkscape:window-y="24"
     inkscape:current-layer="svg1872"
     width="48px"
     height="48px"
     showgrid="true"
     gridspacingx="1px"
     gridspacingy="1px"
     gridoriginx="0px"
     inkscape:document-units="px"
     grid_units="px"
     gridempspacing="5" />
  <defs
     id="defs1874">
    <linearGradient
       id="linearGradient9233">
      <stop
         id="stop9235"
         offset="0"
         style="stop-color:#eeeeec;stop-opacity:1;" />
      <stop
         id="stop9237"
         offset="1"
         style="stop-color:#eeeeec;stop-opacity:0;" />
    </linearGradient>
    <linearGradient
       inkscape:collect="always"
       xlink:href="#linearGradient9233"
       id="linearGradient3797"
       gradientUnits="userSpaceOnUse"
       gradientTransform="matrix(1.55526,0,0,1.563934,34.57128,7.050953)"
       x1="-10.638614"
       y1="7.1375623"
       x2="-15.286263"
       y2="-6.2254333" />
  </defs>
  <g
     id="g3792"
     transform="matrix(2.1818181,0,0,2.1683789,-2.1818181,-1.8726982)">
    <path
       transform="matrix(1.55526,0,0,1.53192,-0.681528,-0.130483)"
       d="M 15.226733,7.9586635 A 7.0727725,7.1403465 0 1 1 1.0811877,7.9586635 A 7.0727725,7.1403465 0 1 1 15.226733,7.9586635 z"
       sodipodi:ry="7.1403465"
       sodipodi:rx="7.0727725"
       sodipodi:cy="7.9586635"
       sodipodi:cx="8.1539602"
       id="path1880"
       style="fill:#ff7000;fill-opacity:1;fill-rule:evenodd;stroke:none;stroke-width:1px;stroke-linecap:butt;stroke-linejoin:miter;stroke-opacity:1"
       sodipodi:type="arc" />
    <path
       transform="matrix(1.49165,-0.294911,0.296125,1.485543,4.726514,7.081159)"
       d="M 6.5772277,10.143565 C 4.8570598,10.923016 5.3677228,6.928033 3.5179278,6.5475329 C 1.6681329,6.1670327 0.56052903,10.039225 -0.71233418,8.6441122 C -1.9851974,7.2489989 1.9720605,6.5001507 1.7623196,4.6233101 C 1.5525787,2.7464695 -2.4723639,2.8896491 -1.5388686,1.2479705 C -0.60537345,-0.39370804 1.3296835,3.138461 3.0498514,2.35901 C 4.7700194,1.5795589 3.3900719,-2.2041441 5.2398669,-1.823644 C 7.0896618,-1.4431438 4.3283349,1.4887049 5.6011981,2.8838182 C 6.8740612,4.2789316 10.046149,1.797295 10.25589,3.6741356 C 10.465631,5.5509761 6.8239804,3.8307892 5.8904852,5.4724678 C 4.9569899,7.1141463 8.2973957,9.3641135 6.5772277,10.143565 z"
       inkscape:randomized="0"
       inkscape:rounded="0.4"
       inkscape:flatsided="false"
       sodipodi:arg2="1.7736652"
       sodipodi:arg1="1.1453467"
       sodipodi:r2="2.2157443"
       sodipodi:r1="6.330698"
       sodipodi:cy="4.3772278"
       sodipodi:cx="3.9643564"
       sodipodi:sides="5"
       id="path2768"
       style="fill:#ffffff;fill-opacity:1;stroke:none"
       sodipodi:type="star" />
    <path
       style="fill:url(#linearGradient3797);fill-opacity:1;fill-rule:evenodd;stroke:none;stroke-width:1px;stroke-linecap:butt;stroke-linejoin:miter;stroke-opacity:1"
       d="M 12.032625,0.8636396 C 5.960626,0.8636396 1,5.7681342 1,11.811178 C 1,12.158004 1.022531,12.661386 1.05428,13 C 1.763245,12.596105 2.383186,12.084214 3.207216,11.72529 C 5.578662,10.692358 8.363372,9.6521078 11.498005,9.0742931 C 14.632638,8.4964783 18.039668,8.1945801 21.655797,8.1945801 C 21.879484,8.1945801 22.065269,8.2410218 22.287622,8.243453 C 20.785679,3.9759798 16.831258,0.8636396 12.032625,0.8636396 z"
       id="path2394"
       sodipodi:nodetypes="cscssscc" />
  </g>
</svg>
