<?xml version="1.0" encoding="UTF-8" standalone="no"?>
<!-- Created with Inkscape (http://www.inkscape.org/) -->
<svg
   xmlns:dc="http://purl.org/dc/elements/1.1/"
   xmlns:cc="http://creativecommons.org/ns#"
   xmlns:rdf="http://www.w3.org/1999/02/22-rdf-syntax-ns#"
   xmlns:svg="http://www.w3.org/2000/svg"
   xmlns="http://www.w3.org/2000/svg"
   xmlns:xlink="http://www.w3.org/1999/xlink"
   xmlns:sodipodi="http://sodipodi.sourceforge.net/DTD/sodipodi-0.dtd"
   xmlns:inkscape="http://www.inkscape.org/namespaces/inkscape"
   version="1.0"
   width="48"
   height="48"
   id="svg1872"
   sodipodi:version="0.32"
   inkscape:version="0.45+devel"
   sodipodi:docname="emblem-readonly.svg"
   sodipodi:docbase="/usr/share/icons/Human/48x48/emblems"
   inkscape:output_extension="org.inkscape.output.svg.inkscape">
  <metadata
     id="metadata1940">
    <rdf:RDF>
      <cc:Work
         rdf:about="">
        <dc:format>image/svg+xml</dc:format>
        <dc:type
           rdf:resource="http://purl.org/dc/dcmitype/StillImage" />
      </cc:Work>
    </rdf:RDF>
  </metadata>
  <sodipodi:namedview
     inkscape:window-height="701"
     inkscape:window-width="1024"
     inkscape:pageshadow="2"
     inkscape:pageopacity="0.0"
     guidetolerance="10.0"
     gridtolerance="10.0"
     objecttolerance="10.0"
     borderopacity="1.0"
     bordercolor="#666666"
     pagecolor="#ffffff"
     id="base"
     inkscape:zoom="17.987029"
     inkscape:cx="4.7420428"
     inkscape:cy="16.885344"
     inkscape:window-x="0"
     inkscape:window-y="24"
     inkscape:current-layer="svg1872"
     showgrid="true"
     width="48px"
     height="48px" />
  <defs
     id="defs1874">
    <linearGradient
       id="linearGradient9233">
      <stop
         id="stop9235"
         offset="0"
         style="stop-color:#eeeeec;stop-opacity:1;" />
      <stop
         id="stop9237"
         offset="1"
         style="stop-color:#eeeeec;stop-opacity:0;" />
    </linearGradient>
    <linearGradient
       inkscape:collect="always"
       xlink:href="#linearGradient9233"
       id="linearGradient16002"
       gradientUnits="userSpaceOnUse"
       gradientTransform="translate(22.43465,4.820297)"
       x1="-10.638614"
       y1="7.1375623"
       x2="-15.286263"
       y2="-6.2254333" />
  </defs>
  <g
     id="g15990"
     transform="matrix(3.3870667,0,0,3.375026,-2.8060006,-2.6254103)">
    <path
       inkscape:transform-center-y="-0.27518428"
       id="path3818"
       d="M 8.1288172,5.9221913 C 11.122885,4.9983485 11.122885,4.9983485 11.122885,4.9983485"
       style="fill:none;fill-rule:evenodd;stroke:#ffffff;stroke-width:0.71943557px;stroke-linecap:round;stroke-linejoin:miter;stroke-opacity:1" />
    <path
       d="M 15,8.000003 C 15,11.865998 11.833412,15.000006 7.9272274,15.000006 C 4.0210429,15.000006 0.8544547,11.865998 0.8544547,8.000003 C 0.8544547,4.134008 4.0210429,0.99999983 7.9272273,0.99999983 C 11.833412,0.99999983 15,4.134008 15,8.000003 L 15,8.000003 z"
       style="fill:#ff7000;fill-opacity:1;fill-rule:evenodd;stroke:none;stroke-width:1px;stroke-linecap:butt;stroke-linejoin:miter;stroke-opacity:1"
       id="path1880" />
    <rect
       y="6.940424"
       x="4.7434855"
       height="4.68748"
       width="6.506278"
       id="rect8278"
       style="fill:#ffffff;fill-opacity:1;stroke:#ffffff;stroke-width:0.75355977;stroke-linecap:round;stroke-linejoin:round;stroke-miterlimit:4;stroke-dasharray:none;stroke-opacity:1" />
    <path
       transform="matrix(1.126632,0,0,1.527721,-0.936823,-4.042837)"
       d="M 10.339066,6.5847664 A 2.3587224,1.7886978 0 1 1 5.6216214,6.5847664 A 2.3587224,1.7886978 0 1 1 10.339066,6.5847664 z"
       sodipodi:ry="1.7886978"
       sodipodi:rx="2.3587224"
       sodipodi:cy="6.5847664"
       sodipodi:cx="7.9803438"
       id="path8305"
       style="fill:none;fill-opacity:1;stroke:#ffffff;stroke-width:0.66999191;stroke-linecap:round;stroke-linejoin:round;stroke-miterlimit:4;stroke-dasharray:none;stroke-opacity:1"
       sodipodi:type="arc" />
    <path
       transform="matrix(1.000184,0,0,0.85729,0.196001,0.887756)"
       d="M 8.3341525,8.9041767 A 0.55036855,0.68796068 0 1 1 7.2334154,8.9041767 A 0.55036855,0.68796068 0 1 1 8.3341525,8.9041767 z"
       sodipodi:ry="0.68796068"
       sodipodi:rx="0.55036855"
       sodipodi:cy="8.9041767"
       sodipodi:cx="7.7837839"
       id="path9196"
       style="fill:#ff7000;fill-opacity:1;stroke:#ff7000;stroke-width:0.66999191;stroke-linecap:round;stroke-linejoin:round;stroke-miterlimit:4;stroke-dasharray:none;stroke-opacity:1"
       sodipodi:type="arc" />
    <path
       transform="matrix(0.999858,1.684495e-2,-1.684495e-2,0.999858,9.974887,1.111523)"
       d="M -1.1400491,9.5135132 L -1.8409878,9.52508 L -2.5419264,9.5366466 L -2.2014742,8.9238326 L -1.8610219,8.3110186 L -1.5005354,8.9122659 L -1.1400491,9.5135132 z"
       inkscape:randomized="0"
       inkscape:rounded="0"
       inkscape:flatsided="false"
       sodipodi:arg2="1.5542961"
       sodipodi:arg1="0.5070985"
       sodipodi:r2="0.40474227"
       sodipodi:r1="0.80948442"
       sodipodi:cy="9.1203928"
       sodipodi:cx="-1.8476658"
       sodipodi:sides="3"
       id="path9198"
       style="fill:#888a85;fill-opacity:1;stroke:#ff7000;stroke-width:0.66999191;stroke-linecap:round;stroke-linejoin:round;stroke-miterlimit:4;stroke-dasharray:none;stroke-opacity:1"
       sodipodi:type="star" />
    <g
       transform="translate(-6.178476e-2,-0.160906)"
       id="g2901">
      <rect
         style="fill:none;fill-opacity:1;stroke:none;stroke-width:1.55158257;stroke-linecap:round;stroke-linejoin:round;stroke-miterlimit:4;stroke-dasharray:none;stroke-opacity:1"
         id="rect2942"
         width="5.4196706"
         height="3.3571696"
         x="1.8729681"
         y="7.4712706"
         transform="matrix(0.963005,-0.269485,0.269485,0.963005,0,0)" />
      <g
         inkscape:label="Layer 1"
         id="layer1"
         transform="translate(4.12207e-2,7.47524e-2)">
        <path
           sodipodi:nodetypes="cscssscc"
           id="path2394"
           d="M 7.9427597,0.86404707 C 4.0385897,0.86404707 0.84900969,4.0000455 0.84900969,7.8640471 C 0.84900969,8.0858123 0.86349668,8.4076816 0.88391068,8.6241956 C 1.3397607,8.3659402 1.7383699,8.0386301 2.2682039,7.8091296 C 3.7929949,7.1486588 5.5835057,6.4835094 7.5990097,6.1140471 C 9.6145137,5.7445847 11.805164,5.551547 14.13026,5.551547 C 14.274086,5.551547 14.393542,5.5812424 14.53651,5.582797 C 13.570792,2.8541184 11.028181,0.86404707 7.9427597,0.86404707 z"
           style="fill:url(#linearGradient16002);fill-opacity:1;fill-rule:evenodd;stroke:none;stroke-width:1px;stroke-linecap:butt;stroke-linejoin:miter;stroke-opacity:1" />
      </g>
    </g>
  </g>
</svg>
