<?xml version="1.0" encoding="UTF-8" standalone="no"?>
<!-- Created with Inkscape (http://www.inkscape.org/) -->
<svg
   xmlns:dc="http://purl.org/dc/elements/1.1/"
   xmlns:cc="http://creativecommons.org/ns#"
   xmlns:rdf="http://www.w3.org/1999/02/22-rdf-syntax-ns#"
   xmlns:svg="http://www.w3.org/2000/svg"
   xmlns="http://www.w3.org/2000/svg"
   xmlns:sodipodi="http://sodipodi.sourceforge.net/DTD/sodipodi-0.dtd"
   xmlns:inkscape="http://www.inkscape.org/namespaces/inkscape"
   width="16px"
   height="16px"
   id="svg3607"
   sodipodi:version="0.32"
   inkscape:version="0.46"
   sodipodi:docname="network-wired.svg"
   inkscape:output_extension="org.inkscape.output.svg.inkscape"
   inkscape:export-filename="/home/kwwii/bzr/human-icon-theme/22x22/status/network-wired.png"
   inkscape:export-xdpi="123.75"
   inkscape:export-ydpi="123.75">
  <defs
     id="defs3609">
    <inkscape:perspective
       sodipodi:type="inkscape:persp3d"
       inkscape:vp_x="0 : 8 : 1"
       inkscape:vp_y="0 : 1000 : 0"
       inkscape:vp_z="16 : 8 : 1"
       inkscape:persp3d-origin="8 : 5.3333333 : 1"
       id="perspective3615" />
  </defs>
  <sodipodi:namedview
     id="base"
     pagecolor="#ffffff"
     bordercolor="#666666"
     borderopacity="1.0"
     inkscape:pageopacity="0.0"
     inkscape:pageshadow="2"
     inkscape:zoom="22.197802"
     inkscape:cx="8"
     inkscape:cy="8"
     inkscape:current-layer="layer1"
     showgrid="true"
     inkscape:grid-bbox="true"
     inkscape:document-units="px" />
  <metadata
     id="metadata3612">
    <rdf:RDF>
      <cc:Work
         rdf:about="">
        <dc:format>image/svg+xml</dc:format>
        <dc:type
           rdf:resource="http://purl.org/dc/dcmitype/StillImage" />
      </cc:Work>
    </rdf:RDF>
  </metadata>
  <g
     id="layer1"
     inkscape:label="Layer 1"
     inkscape:groupmode="layer">
    <path
       style="opacity:1;fill:#ffffff;fill-opacity:1;fill-rule:nonzero;stroke:none;stroke-width:2;stroke-linecap:round;stroke-linejoin:round;marker:none;stroke-miterlimit:4;stroke-dasharray:none;stroke-dashoffset:0;stroke-opacity:1;visibility:visible;display:inline;overflow:visible;enable-background:accumulate"
       d="M 5.90625,2.0000003 C 5.39089,2.0485713 4.99777,2.4823663 5,3.0000003 L 3,3.0000003 C 2.44774,3.0000553 2.00006,3.4477383 2,4.0000003 L 2,5.0000003 L 1,5.0000003 C 0.44774,5.0000553 6e-05,5.4477383 0,6.0000003 L 0,13 C 6e-05,13.552262 0.44774,13.999945 1,14 L 15,14 C 15.55226,13.999945 15.99994,13.552262 16,13 L 16,6.0000003 C 15.99994,5.4477383 15.55226,5.0000553 15,5.0000003 L 14,5.0000003 L 14,4.0000003 C 13.99994,3.4477383 13.55226,3.0000553 13,3.0000003 L 11,3.0000003 C 10.99994,2.4477383 10.55226,2.0000553 9.9999999,2.0000003 L 6,2.0000003 C 5.96877,1.9985343 5.93748,1.9985343 5.90625,2.0000003 z M 6,3.0000003 L 9.9999999,3.0000003 L 9.9999999,4.0000003 L 13,4.0000003 L 13,6.0000003 L 15,6.0000003 L 15,12 L 1,12 L 1,6.0000003 L 3,6.0000003 L 3,4.0000003 L 6,4.0000003 L 6,3.0000003 z"
       id="path3605"
       sodipodi:nodetypes="ccccccccccccccccccccccccccccccccc" />
    <path
       style="opacity:1;fill:none;fill-opacity:1;fill-rule:nonzero;stroke:#535353;stroke-width:1;stroke-linecap:round;stroke-linejoin:round;marker:none;marker-start:none;marker-mid:none;marker-end:none;stroke-miterlimit:4;stroke-dasharray:none;stroke-dashoffset:0;stroke-opacity:1;visibility:visible;display:inline;overflow:visible;enable-background:accumulate"
       d="M 6,2.0000003 L 6,3.0000003 L 3,3.0000003 L 3,5.0000003 L 1,5.0000003 L 1,12 L 15,12 L 15,5.0000003 L 13,5.0000003 L 13,3.0000003 L 9.9999999,3.0000003 L 9.9999999,2.0000003 L 6,2.0000003 z"
       id="path3601"
       sodipodi:nodetypes="ccccccccccccc" />
    <path
       style="opacity:1;fill:#000000;fill-opacity:1;fill-rule:nonzero;stroke:none;stroke-width:2;stroke-linecap:round;stroke-linejoin:round;marker:none;marker-start:none;marker-mid:none;marker-end:none;stroke-miterlimit:4;stroke-dasharray:none;stroke-dashoffset:0;stroke-opacity:1;visibility:visible;display:inline;overflow:visible;enable-background:accumulate"
       d="M 6,2.0000003 L 6,3.0000003 L 3,3.0000003 L 3,5.0000003 L 1,5.0000003 L 1,12 L 15,12 L 15,5.0000003 L 13,5.0000003 L 13,3.0000003 L 9.9999999,3.0000003 L 9.9999999,2.0000003 L 6,2.0000003 z M 2,10 L 3,10 L 3,11 L 2,11 L 2,10 z M 4,10 L 5,10 L 5,11 L 4,11 L 4,10 z M 6,10 L 7,10 L 7,11 L 6,11 L 6,10 z M 8.9999999,10 L 9.9999999,10 L 9.9999999,11 L 8.9999999,11 L 8.9999999,10 z M 11,10 L 12,10 L 12,11 L 11,11 L 11,10 z M 13,10 L 14,10 L 14,11 L 13,11 L 13,10 z"
       id="path3603"
       sodipodi:nodetypes="ccccccccccccccccccccccccccccccccccccccccccc" />
  </g>
</svg>
