/* XPM */
static char *kbedic_icon[]={
"32 22 7 1",
"a c #000080",
"d c #00c000",
"e c #c00000",
"c c #c0c000",
"b c #c3c3c3",
". c #ff0000",
"# c #ffffff",
"###############...#aaaaaaaaa###.",
"##c############...#aaaaaaab##...",
"#ccc###########...#aaaaaa###...#",
"##c############...#aaaab##....#a",
"###############...#aaa###...#baa",
"###############...#ab##....#aaaa",
"###############...####...#baaaaa",
"###############...##....#aaaaaaa",
"ddddddddddddddd...##############",
"ddddddddddddddd.................",
"ddddddddddddddd.................",
"ddddddddddddddd.................",
"ddddddddddddddd.................",
"ddddddddddddddd...##############",
"ddddddddddddddd...#...###aaaaaaa",
"eeeeeeeeeeeeeee...##....##baaaaa",
"eeeeeeeeeeeeeee...#ab#...###aaaa",
"eeeeeeeeeeeeeee...#aaa#....##baa",
"eeeeeeeeeeeeeee...#aaaab#...###a",
"eeeeeeeeeeeeeee...#aaaaaa#....##",
"eeeeeeeeeeeeeee...#aaaaaaab#...#",
"eeeeeeeeeeeeeee...#aaaaaaaaa#..."};
