/* XPM */
static char *icon32x32[] = {
/* columns rows colors chars-per-pixel */
"32 32 150 2",
"   c #000000",
".  c #0C0000",
"X  c #0B0B0B",
"o  c #120101",
"O  c #160808",
"+  c #1A0202",
"@  c #1D0808",
"#  c #131313",
"$  c #1B1B1B",
"%  c #240101",
"&  c #210909",
"*  c #2A0202",
"=  c #2A0C0C",
"-  c #350202",
";  c #310F0F",
":  c #3B0404",
">  c #3F0A0A",
",  c #311212",
"<  c #3E1212",
"1  c #212121",
"2  c #2C2C2C",
"3  c #333333",
"4  c #3E3E3E",
"5  c #420404",
"6  c #410808",
"7  c #4B0000",
"8  c #490A0A",
"9  c #401616",
"0  c #4A1010",
"q  c #550303",
"w  c #510C0C",
"e  c #5A0101",
"r  c #5B0C0C",
"t  c #5B1717",
"y  c #5D1F1F",
"u  c #630303",
"i  c #630E0E",
"p  c #6F0000",
"a  c #6F0A0A",
"s  c #641313",
"d  c #641C1C",
"f  c #740202",
"g  c #710808",
"h  c #7F0202",
"j  c #780A0A",
"k  c #731111",
"l  c #7E1B1B",
"z  c #642424",
"x  c #414141",
"c  c #4C4C4C",
"v  c #515151",
"b  c #5C5C5C",
"n  c #646464",
"m  c #6B6B6B",
"M  c #727272",
"N  c #7B7B7B",
"B  c #840202",
"V  c #8A1010",
"C  c #8F1D1D",
"Z  c #950303",
"A  c #970808",
"S  c #9A0000",
"D  c #9B0F0F",
"F  c #961D1D",
"G  c #9E1616",
"H  c #842323",
"J  c #833030",
"K  c #922323",
"L  c #A00000",
"P  c #A60E0E",
"I  c #A21010",
"U  c #AD1414",
"Y  c #AC1B1B",
"T  c #B10C0C",
"R  c #B80F0F",
"E  c #B31313",
"W  c #BC1111",
"Q  c #AB3E3E",
"!  c #B72525",
"~  c #BD2929",
"^  c #BE3939",
"/  c #C60000",
"(  c #C80000",
")  c #C51414",
"_  c #CE1515",
"`  c #D20D0D",
"'  c #DA0909",
"]  c #D01414",
"[  c #D61B1B",
"{  c #DA1717",
"}  c #D91A1A",
"|  c #D72525",
" . c #D72C2C",
".. c #D92222",
"X. c #D82B2B",
"o. c #D63535",
"O. c #D23B3B",
"+. c #D83232",
"@. c #D83939",
"#. c #EE0303",
"$. c #E81313",
"%. c #EC1B1B",
"&. c #F10505",
"*. c #F50A0A",
"=. c #F80E0E",
"-. c #F11212",
";. c #F51C1C",
":. c #FE1313",
">. c #FE1D1D",
",. c #E62222",
"<. c #E82323",
"1. c #E53E3E",
"2. c #EB3737",
"3. c #F22323",
"4. c #FE2323",
"5. c #FE2B2B",
"6. c #FE3333",
"7. c #FE3B3B",
"8. c #C14646",
"9. c #C94343",
"0. c #E64343",
"q. c #E34D4D",
"w. c #EC4444",
"e. c #F24646",
"r. c #FF4242",
"t. c #FF4A4A",
"y. c #FE5454",
"u. c #FF5C5C",
"i. c #FF6464",
"p. c #FF6B6B",
"a. c #FF7373",
"s. c #FF7B7B",
"d. c #848484",
"f. c #8C8C8C",
"g. c #939393",
"h. c #9C9C9C",
"j. c #A4A4A4",
"k. c #ACACAC",
"l. c gray71",
"z. c gray74",
"x. c #FF8383",
"c. c #FF8A8A",
"v. c #C3C3C3",
"b. c #CACACA",
"n. c #D3D3D3",
"m. c #DCDCDC",
"M. c #E4E4E4",
"N. c #EDEDED",
"B. c #F4F4F4",
"V. c #FEFEFE",
/* pixels */
"( ( ( ( ( ( ( ( ( / ( / ( ( ( / ( ( ( ( / ( ( ( ( / ( / ( / ( ( ",
"( / ( ( ( ( ( ( ( ( ( ( / ( / / ( / ( / ( ( / ( ( ( ( ( ( ( ( / ",
"( ( ( ( ( ( ( ( ( ( ( ( ( ( ( / ( ( ( ( ( / ( ( / / ( / ( / / / ",
"5.5.5.5.4.4.4.4.>.>.>.>.:.:.:.:.=.=.=.=.*.=.*.*.*.&.&.&.#.#.#.#.",
"x.s.s.s.a.p.p.i.u.u.u.y.y.y.t.t.t.r.7.7.7.7.6.6.6.6.5.5.5.6.6.2.",
"c.x.x.s.s.s.a.a.a.p.p.i.i.u.u.u.u.y.y.y.t.7.r.r.7.o.! 5.C F ~ t ",
"s.s.s.s.a.a.a.p.a.p.p.i.u.u.u.u.6.6.5.6.6.H 8 ) >.: - 4.> F K l ",
"s.a.p.p.i.p.i.p.i.y.>.>.4.5.6.K 9 O G >.>.o   _ >.+ r 4.+ k 8 - ",
"y.>.5.6.7.t.q.Q J y ; R :.:.>.6     T >.:.    %.>.  * a   7 7 h ",
"y.:.:.:.=.:.g         R >.:.:.*     ) >.[     f j   - e f U ,.5.",
"e.:.:.:.:.:.a         ) >.:.:.+     T $.W   o e 7 u I } ;.5.6.6.",
"w.:.:.=.:.:.a         ` :.:.>..     - % + : g P ] ;.t.t.y.t.t.7.",
"0.:.:.:.=.:.a         Z ` $.-.      h S L E O.7.6.4.>.>.>.4.5.6.",
"0.:.:.:.:.:.u         p e : - - V U ) { 4.7.t.y.u.u.y.t.7.6.4.>.",
"1.:.:.:.:.:.q         S L L S B Y 4.4.4.4.>.>.>.4.6.r.t.y.u.u.u.",
"O.,./ ' =.=.q     . % q A _ w.u.u.u.y.r.6.4.4.4.>.>.>.>.4.5.6.t.",
"B S S f q h e G ..3.4.4.4.4.5.7.y.u.u.u.u.y.t.6.5.4.} _ [ <.>.>.",
"B S e * o   . q %.k 8 8 8 8 8 8 r & , 8.u.u.u.u.u.^   X X - >.4.",
"q o 2 f.l.k.M X w X f.f.f.f.f.n X j.N O 6.t.u.u.u.l b V.k.& 6.5.",
"  n V.V.V.V.V.b.O 2 V.V.V.V.V.g.2 V.m.  r i s d z = N V.d.< 9.9.",
"3 V.V.l.v b N.b.1 $ b l.V.b.b 2   v 3     X 3 2     h.V.b   X X ",
"h.V.m..     1         k.V.f.    M V.f.  v N.V.V.N   b.V.3 N V.m.",
"b.V.f.  m m.m.m.g.    n.V.b     h.V.n $ V.V.f.N b   N.V.M V.m.1 ",
"v.V.h.  d.n.B.V.d.    V.V.3     b.V.4 b V.z.      $ V.B.V.N.1 r ",
"d.V.V.b $ m V.V.2   2 V.V.X     N.V.# b V.n.  #   x V.v.m.V.c 8 ",
"X n.V.V.V.V.V.d.    c V.M.    # V.N.  # N.V.N.M.  m V.g.b V.M.O ",
"k X M l.v.j.c       4 g.M     1 g.M     3 k.v.N   v g.x   d.g.x ",
"5.Y 8 + . % > > > > > > 6 < < < 9 9 < < < @ o = 9 > > > 6 > > > ",
"<.} { [ } } } { } } [ } }  . .@.+.@.@.@.@.@.@.o.+. .X.| } [ } } ",
"} } [ [ [ [ [ [ [ [ [ [ [ ..X. .o.o.o.@.@.@.o.o.+.+. . . .| ....",
" . . . . . . . . . . . . . . . . . . . . . . . . . . . . . . . .",
" . . . . . . . . . . . . . . . . . . . . . . . . . . . . . . . ."
};
