<?xml version="1.0" encoding="UTF-8" standalone="no"?>
<!-- Generator: Adobe Illustrator 10.0, SVG Export Plug-In . SVG Version: 3.0.0 Build 76)  -->
<svg
   xmlns:a="http://ns.adobe.com/AdobeSVGViewerExtensions/3.0/"
   xmlns:dc="http://purl.org/dc/elements/1.1/"
   xmlns:cc="http://creativecommons.org/ns#"
   xmlns:rdf="http://www.w3.org/1999/02/22-rdf-syntax-ns#"
   xmlns:svg="http://www.w3.org/2000/svg"
   xmlns="http://www.w3.org/2000/svg"
   xmlns:xlink="http://www.w3.org/1999/xlink"
   xmlns:sodipodi="http://sodipodi.sourceforge.net/DTD/sodipodi-0.dtd"
   xmlns:inkscape="http://www.inkscape.org/namespaces/inkscape"
   width="100.19779"
   height="108.23701"
   viewBox="0 0 128.002 128.002"
   overflow="visible"
   enable-background="new 0 0 128.002 128.002"
   xml:space="preserve"
   id="svg2148"
   sodipodi:version="0.32"
   inkscape:version="0.46"
   sodipodi:docname="freepops-updater-zenity.svg"
   sodipodi:docbase="/home/tassi/Projects/freepops/svn/freepops/updater-ui/fltk"
   inkscape:export-filename="/home/tassi/Desktop/fp.png"
   inkscape:export-xdpi="22.499649"
   inkscape:export-ydpi="22.499649"
   inkscape:output_extension="org.inkscape.output.svg.inkscape"
   version="1.0"
   style="overflow:visible"><metadata
   id="metadata2386"><rdf:RDF><cc:Work
       rdf:about=""><dc:format>image/svg+xml</dc:format><dc:type
         rdf:resource="http://purl.org/dc/dcmitype/StillImage" /></cc:Work></rdf:RDF></metadata><defs
   id="defs2384"><inkscape:perspective
   sodipodi:type="inkscape:persp3d"
   inkscape:vp_x="0 : 64.000999 : 1"
   inkscape:vp_y="0 : 1000 : 0"
   inkscape:vp_z="128.002 : 64.000999 : 1"
   inkscape:persp3d-origin="64.000999 : 42.667333 : 1"
   id="perspective136" /><linearGradient
   id="linearGradient5384"><stop
     id="stop5386"
     offset="0"
     style="stop-color:black;stop-opacity:0.87755102;" /><stop
     id="stop5388"
     offset="1"
     style="stop-color:black;stop-opacity:0.79591835;" /></linearGradient><linearGradient
   id="linearGradient3284"><stop
     id="stop3286"
     offset="0"
     style="stop-color:black;stop-opacity:1;" /><stop
     style="stop-color:#fff606;stop-opacity:0.94897962;"
     offset="0.72000003"
     id="stop3290" /><stop
     id="stop3288"
     offset="1"
     style="stop-color:black;stop-opacity:0;" /></linearGradient><radialGradient
   inkscape:collect="always"
   xlink:href="#linearGradient3284"
   id="radialGradient3292"
   cx="-38.389332"
   cy="62.38129"
   fx="-38.389332"
   fy="62.38129"
   r="10.564039"
   gradientTransform="matrix(-4.526785,2.931176,-6.564843,-7.27135,327.95681,597.6506)"
   gradientUnits="userSpaceOnUse" />
		
	
			
			
			
			
			
			
			
			
			
			
			
			
		<linearGradient
   inkscape:collect="always"
   xlink:href="#linearGradient5384"
   id="linearGradient5378"
   x1="99.953506"
   y1="40.928833"
   x2="121.2251"
   y2="40.928833"
   gradientUnits="userSpaceOnUse"
   gradientTransform="matrix(1.039766,-0.967263,0.988811,0.588078,-20.293687,149.9341)" /><radialGradient
   inkscape:collect="always"
   xlink:href="#linearGradient3284"
   id="radialGradient5410"
   gradientUnits="userSpaceOnUse"
   gradientTransform="matrix(4.906465,-2.23834,5.432022,8.152471,37.840283,-532.66649)"
   cx="-38.389332"
   cy="62.38129"
   fx="-38.389332"
   fy="62.38129"
   r="10.564039" /><linearGradient
   inkscape:collect="always"
   xlink:href="#linearGradient5384"
   id="linearGradient5412"
   gradientUnits="userSpaceOnUse"
   gradientTransform="matrix(-1.169929,0.804969,-0.89228,-0.726237,316.94056,-38.873582)"
   x1="99.953506"
   y1="40.928833"
   x2="121.2251"
   y2="40.928833" /><radialGradient
   inkscape:collect="always"
   xlink:href="#XMLID_25_"
   id="radialGradient5442"
   gradientUnits="userSpaceOnUse"
   gradientTransform="matrix(1,0,0,-1,242.499,460.5)"
   cx="-183.7505"
   cy="452.68069"
   fx="-183.7505"
   fy="452.68069"
   r="21.349001" /><radialGradient
   inkscape:collect="always"
   xlink:href="#XMLID_26_"
   id="radialGradient5444"
   gradientUnits="userSpaceOnUse"
   gradientTransform="matrix(1,0,0,-1,242.499,460.5)"
   cx="-183.7686"
   cy="452.66891"
   fx="-183.7686"
   fy="452.66891"
   r="21.3736" /><radialGradient
   inkscape:collect="always"
   xlink:href="#XMLID_27_"
   id="radialGradient5446"
   gradientUnits="userSpaceOnUse"
   gradientTransform="matrix(1,0,0,-1,242.499,460.5)"
   cx="-183.7998"
   cy="451.16309"
   fx="-183.7998"
   fy="451.16309"
   r="9.0433998" /><radialGradient
   inkscape:collect="always"
   xlink:href="#XMLID_10_"
   id="radialGradient5524"
   gradientUnits="userSpaceOnUse"
   gradientTransform="matrix(1,0,0,-1,242.499,460.5)"
   cx="-140.0889"
   cy="389.30759"
   fx="-140.0889"
   fy="389.30759"
   r="21.349701" /><radialGradient
   inkscape:collect="always"
   xlink:href="#XMLID_11_"
   id="radialGradient5526"
   gradientUnits="userSpaceOnUse"
   gradientTransform="matrix(1,0,0,-1,242.499,460.5)"
   cx="-140.1064"
   cy="389.2959"
   fx="-140.1064"
   fy="389.2959"
   r="21.374201" /><radialGradient
   inkscape:collect="always"
   xlink:href="#XMLID_12_"
   id="radialGradient5528"
   gradientUnits="userSpaceOnUse"
   gradientTransform="matrix(1,0,0,-1,242.499,460.5)"
   cx="-140.1377"
   cy="387.79001"
   fx="-140.1377"
   fy="387.79001"
   r="9.0433998" /><radialGradient
   inkscape:collect="always"
   xlink:href="#XMLID_19_"
   id="radialGradient5558"
   gradientUnits="userSpaceOnUse"
   gradientTransform="matrix(1,0,0,-1,242.499,460.5)"
   cx="-228.0166"
   cy="417.2803"
   fx="-228.0166"
   fy="417.2803"
   r="21.349701" /><radialGradient
   inkscape:collect="always"
   xlink:href="#XMLID_20_"
   id="radialGradient5560"
   gradientUnits="userSpaceOnUse"
   gradientTransform="matrix(1,0,0,-1,242.499,460.5)"
   cx="-228.03419"
   cy="417.26859"
   fx="-228.03419"
   fy="417.26859"
   r="21.374201" /><radialGradient
   inkscape:collect="always"
   xlink:href="#XMLID_21_"
   id="radialGradient5562"
   gradientUnits="userSpaceOnUse"
   gradientTransform="matrix(1,0,0,-1,242.499,460.5)"
   cx="-228.0654"
   cy="415.7637"
   fx="-228.0654"
   fy="415.7637"
   r="9.0433998" /><radialGradient
   inkscape:collect="always"
   xlink:href="#XMLID_19_"
   id="radialGradient5598"
   gradientUnits="userSpaceOnUse"
   gradientTransform="matrix(1,0,0,-1,242.499,460.5)"
   cx="-228.0166"
   cy="417.2803"
   fx="-228.0166"
   fy="417.2803"
   r="21.349701" /><radialGradient
   inkscape:collect="always"
   xlink:href="#XMLID_20_"
   id="radialGradient5600"
   gradientUnits="userSpaceOnUse"
   gradientTransform="matrix(1,0,0,-1,242.499,460.5)"
   cx="-228.03419"
   cy="417.26859"
   fx="-228.03419"
   fy="417.26859"
   r="21.374201" /><radialGradient
   inkscape:collect="always"
   xlink:href="#XMLID_21_"
   id="radialGradient5602"
   gradientUnits="userSpaceOnUse"
   gradientTransform="matrix(1,0,0,-1,242.499,460.5)"
   cx="-228.0654"
   cy="415.7637"
   fx="-228.0654"
   fy="415.7637"
   r="9.0433998" /><radialGradient
   inkscape:collect="always"
   xlink:href="#XMLID_25_"
   id="radialGradient5604"
   gradientUnits="userSpaceOnUse"
   gradientTransform="matrix(1,0,0,-1,242.499,460.5)"
   cx="-183.7505"
   cy="452.68069"
   fx="-183.7505"
   fy="452.68069"
   r="21.349001" /><radialGradient
   inkscape:collect="always"
   xlink:href="#XMLID_26_"
   id="radialGradient5606"
   gradientUnits="userSpaceOnUse"
   gradientTransform="matrix(1,0,0,-1,242.499,460.5)"
   cx="-183.7686"
   cy="452.66891"
   fx="-183.7686"
   fy="452.66891"
   r="21.3736" /><radialGradient
   inkscape:collect="always"
   xlink:href="#XMLID_27_"
   id="radialGradient5608"
   gradientUnits="userSpaceOnUse"
   gradientTransform="matrix(1,0,0,-1,242.499,460.5)"
   cx="-183.7998"
   cy="451.16309"
   fx="-183.7998"
   fy="451.16309"
   r="9.0433998" /></defs><sodipodi:namedview
   inkscape:window-height="747"
   inkscape:window-width="1280"
   inkscape:pageshadow="2"
   inkscape:pageopacity="0.0"
   guidetolerance="10.0"
   gridtolerance="10.0"
   objecttolerance="10.0"
   borderopacity="1.0"
   bordercolor="#666666"
   pagecolor="#ffffff"
   id="base"
   inkscape:zoom="3.1796378"
   inkscape:cx="64.000999"
   inkscape:cy="64.000999"
   inkscape:window-x="0"
   inkscape:window-y="26"
   inkscape:current-layer="svg2148"
   showgrid="false" />
	<path
   d="M -9.16381,-5.314578 L -9.16381,122.68742 L 118.83819,122.68742 L 118.83819,-5.314578 L -9.16381,-5.314578 z"
   id="path2152"
   style="fill:none" /><g
   id="g2204"
   transform="translate(28.374026,-91.296884)">
				<path
   d="M 65.505,104.286 C 60.249,100.922 54.323,102.409 50.968,107.636 C 48.413,111.616 47.812,121.23 54.142,122.154 C 62.493,123.373 75.765,110.851 65.505,104.286 z"
   id="path2206"
   style="fill:#a060ff" />
				
					<radialGradient
   id="XMLID_7_"
   cx="-188.08791"
   cy="355.8223"
   r="21.350401"
   fx="-188.08791"
   fy="355.8223"
   gradientTransform="matrix(1,0,0,-1,242.499,460.5)"
   gradientUnits="userSpaceOnUse">
					<stop
   offset="0"
   style="stop-color:#000000;stop-opacity:0.0;"
   id="stop2209" />
					<stop
   offset="1"
   style="stop-color:#000000;stop-opacity:0.75;"
   id="stop2211" />
					<a:midPointStop
   offset="0"
   style="stop-color:#FFFFFF" />
					<a:midPointStop
   offset="0.5"
   style="stop-color:#FFFFFF" />
					<a:midPointStop
   offset="1"
   style="stop-color:#000000" />
				</radialGradient>
				<path
   d="M 65.505,104.286 C 60.249,100.922 54.323,102.409 50.968,107.636 C 48.413,111.616 47.812,121.23 54.142,122.154 C 62.493,123.373 75.765,110.851 65.505,104.286 z M 54.287,121.164 C 52.723,120.935 51.577,120.049 50.885,118.528 C 49.486,115.458 50.249,110.608 51.81,108.175 C 54.931,103.313 60.218,102.087 64.967,105.126 C 67.916,107.014 68.892,109.566 67.793,112.516 C 65.966,117.411 59.024,121.854 54.287,121.164 z"
   id="path2213"
   style="fill:url(#XMLID_7_)" />
				
					<radialGradient
   id="XMLID_8_"
   cx="-188.105"
   cy="355.81049"
   r="21.374201"
   fx="-188.105"
   fy="355.81049"
   gradientTransform="matrix(1,0,0,-1,242.499,460.5)"
   gradientUnits="userSpaceOnUse">
					<stop
   offset="0"
   style="stop-color:#000000;stop-opacity:0.0;"
   id="stop2216" />
					<stop
   offset="1"
   style="stop-color:#000000;stop-opacity:0.5;"
   id="stop2218" />
					<a:midPointStop
   offset="0"
   style="stop-color:#FFFFFF" />
					<a:midPointStop
   offset="0.5"
   style="stop-color:#FFFFFF" />
					<a:midPointStop
   offset="1"
   style="stop-color:#000000" />
				</radialGradient>
				<path
   d="M 51.809,108.177 C 50.248,110.609 49.485,115.458 50.884,118.529 C 51.576,120.05 52.722,120.937 54.286,121.166 C 59.023,121.857 65.965,117.413 67.791,112.52 C 68.892,109.573 67.914,107.018 64.965,105.13 C 60.217,102.089 54.93,103.313 51.809,108.177 z"
   id="path2220"
   style="fill:url(#XMLID_8_)" />
				
					<radialGradient
   id="XMLID_9_"
   cx="-188.1362"
   cy="354.30469"
   r="9.0433998"
   fx="-188.1362"
   fy="354.30469"
   gradientTransform="matrix(1,0,0,-1,242.499,460.5)"
   gradientUnits="userSpaceOnUse">
					<stop
   offset="0"
   style="stop-color:#FFFFFF;stop-opacity:0.75;"
   id="stop2223" />
					<stop
   offset="1"
   style="stop-color:#FFFFFF;stop-opacity:0.0;"
   id="stop2225" />
					<a:midPointStop
   offset="0"
   style="stop-color:#FFFFFF" />
					<a:midPointStop
   offset="0.5"
   style="stop-color:#FFFFFF" />
					<a:midPointStop
   offset="1"
   style="stop-color:#000000" />
				</radialGradient>
				<path
   d="M 51.809,108.177 C 50.076,111.368 49.665,114.992 50.853,118.448 C 53.289,118.144 55.167,117.361 56.443,115.538 C 58.047,113.307 60.737,110.486 63.068,109.038 C 66.323,106.866 65.271,104.126 60.755,103.579 C 57.082,103.132 53.754,105.146 51.809,108.177"
   id="path2227"
   style="fill:url(#XMLID_9_)" />
			</g><g
   id="g2229"
   transform="translate(2.8994354,-40.347687)">
				<path
   d="M 113.504,70.801 C 108.248,67.437 102.321,68.924 98.967,74.152 C 96.412,78.131 95.812,87.746 102.142,88.67 C 110.492,89.888 123.765,77.365 113.504,70.801 z"
   id="path2231"
   style="fill:#ff6000" />
				
					<radialGradient
   id="XMLID_10_"
   cx="-140.0889"
   cy="389.30759"
   r="21.349701"
   fx="-140.0889"
   fy="389.30759"
   gradientTransform="matrix(1,0,0,-1,242.499,460.5)"
   gradientUnits="userSpaceOnUse">
					<stop
   offset="0"
   style="stop-color:#000000;stop-opacity:0.0;"
   id="stop2234" />
					<stop
   offset="1"
   style="stop-color:#000000;stop-opacity:0.75;"
   id="stop2236" />
					<a:midPointStop
   offset="0"
   style="stop-color:#FFFFFF" />
					<a:midPointStop
   offset="0.5"
   style="stop-color:#FFFFFF" />
					<a:midPointStop
   offset="1"
   style="stop-color:#000000" />
				</radialGradient>
				<path
   d="M 113.504,70.801 C 108.248,67.437 102.321,68.924 98.967,74.152 C 96.412,78.131 95.812,87.746 102.142,88.67 C 110.492,89.888 123.765,77.365 113.504,70.801 z M 102.285,87.679 C 100.722,87.45 99.576,86.564 98.883,85.043 C 97.486,81.974 98.248,77.123 99.81,74.69 C 102.931,69.828 108.217,68.602 112.965,71.641 C 115.914,73.528 116.892,76.082 115.791,79.031 C 113.965,83.926 107.022,88.37 102.285,87.679 z"
   id="path2238"
   style="fill:url(#radialGradient5524)" />
				
					<radialGradient
   id="XMLID_11_"
   cx="-140.1064"
   cy="389.2959"
   r="21.374201"
   fx="-140.1064"
   fy="389.2959"
   gradientTransform="matrix(1,0,0,-1,242.499,460.5)"
   gradientUnits="userSpaceOnUse">
					<stop
   offset="0"
   style="stop-color:#000000;stop-opacity:0.0;"
   id="stop2241" />
					<stop
   offset="1"
   style="stop-color:#000000;stop-opacity:0.5;"
   id="stop2243" />
					<a:midPointStop
   offset="0"
   style="stop-color:#FFFFFF" />
					<a:midPointStop
   offset="0.5"
   style="stop-color:#FFFFFF" />
					<a:midPointStop
   offset="1"
   style="stop-color:#000000" />
				</radialGradient>
				<path
   d="M 99.81,74.69 C 98.248,77.123 97.486,81.971 98.883,85.043 C 99.576,86.564 100.722,87.45 102.285,87.679 C 107.022,88.37 113.965,83.926 115.791,79.033 C 116.892,76.086 115.914,73.531 112.965,71.644 C 108.217,68.604 102.931,69.828 99.81,74.69 z"
   id="path2245"
   style="fill:url(#radialGradient5526)" />
				
					<radialGradient
   id="XMLID_12_"
   cx="-140.1377"
   cy="387.79001"
   r="9.0433998"
   fx="-140.1377"
   fy="387.79001"
   gradientTransform="matrix(1,0,0,-1,242.499,460.5)"
   gradientUnits="userSpaceOnUse">
					<stop
   offset="0"
   style="stop-color:#FFFFFF;stop-opacity:0.75;"
   id="stop2248" />
					<stop
   offset="1"
   style="stop-color:#FFFFFF;stop-opacity:0.0;"
   id="stop2250" />
					<a:midPointStop
   offset="0"
   style="stop-color:#FFFFFF" />
					<a:midPointStop
   offset="0.5"
   style="stop-color:#FFFFFF" />
					<a:midPointStop
   offset="1"
   style="stop-color:#000000" />
				</radialGradient>
				<path
   d="M 99.81,74.69 C 98.076,77.881 97.664,81.505 98.853,84.961 C 101.289,84.658 103.166,83.874 104.443,82.051 C 106.047,79.82 108.738,77 111.068,75.551 C 114.324,73.379 113.271,70.64 108.755,70.092 C 105.08,69.646 101.754,71.66 99.81,74.69"
   id="path2252"
   style="fill:url(#radialGradient5528)" />
			</g><g
   id="g2304"
   transform="translate(16.422986,-23.993621)">
				<path
   d="M 25.576,42.828 C 20.32,39.464 14.394,40.951 11.039,46.178 C 8.484,50.158 7.883,59.772 14.213,60.696 C 22.563,61.915 35.835,49.392 25.576,42.828 z"
   id="path2306"
   style="fill:#0000d0" />
				
					<radialGradient
   id="XMLID_19_"
   cx="-228.0166"
   cy="417.2803"
   r="21.349701"
   fx="-228.0166"
   fy="417.2803"
   gradientTransform="matrix(1,0,0,-1,242.499,460.5)"
   gradientUnits="userSpaceOnUse">
					<stop
   offset="0"
   style="stop-color:#000000;stop-opacity:0.0;"
   id="stop2309" />
					<stop
   offset="1"
   style="stop-color:#000000;stop-opacity:0.75;"
   id="stop2311" />
					<a:midPointStop
   offset="0"
   style="stop-color:#FFFFFF" />
					<a:midPointStop
   offset="0.5"
   style="stop-color:#FFFFFF" />
					<a:midPointStop
   offset="1"
   style="stop-color:#000000" />
				</radialGradient>
				<path
   d="M 25.576,42.828 C 20.32,39.464 14.394,40.951 11.039,46.178 C 8.484,50.158 7.883,59.772 14.213,60.696 C 22.563,61.915 35.835,49.392 25.576,42.828 z M 14.357,59.706 C 12.793,59.477 11.647,58.591 10.955,57.07 C 9.556,54 10.319,49.15 11.88,46.718 C 15.001,41.855 20.288,40.63 25.037,43.669 C 27.986,45.556 28.962,48.11 27.863,51.058 C 26.037,55.953 19.095,60.397 14.357,59.706 z"
   id="path2313"
   style="fill:url(#radialGradient5598)" />
				
					<radialGradient
   id="XMLID_20_"
   cx="-228.03419"
   cy="417.26859"
   r="21.374201"
   fx="-228.03419"
   fy="417.26859"
   gradientTransform="matrix(1,0,0,-1,242.499,460.5)"
   gradientUnits="userSpaceOnUse">
					<stop
   offset="0"
   style="stop-color:#000000;stop-opacity:0.0;"
   id="stop2316" />
					<stop
   offset="1"
   style="stop-color:#000000;stop-opacity:0.5;"
   id="stop2318" />
					<a:midPointStop
   offset="0"
   style="stop-color:#FFFFFF" />
					<a:midPointStop
   offset="0.5"
   style="stop-color:#FFFFFF" />
					<a:midPointStop
   offset="1"
   style="stop-color:#000000" />
				</radialGradient>
				<path
   d="M 11.88,46.718 C 10.319,49.15 9.556,54 10.955,57.07 C 11.647,58.591 12.793,59.477 14.357,59.706 C 19.094,60.397 26.036,55.953 27.862,51.059 C 28.962,48.112 27.985,45.557 25.036,43.67 C 20.288,40.63 15.001,41.855 11.88,46.718 z"
   id="path2320"
   style="fill:url(#radialGradient5600)" />
				
					<radialGradient
   id="XMLID_21_"
   cx="-228.0654"
   cy="415.7637"
   r="9.0433998"
   fx="-228.0654"
   fy="415.7637"
   gradientTransform="matrix(1,0,0,-1,242.499,460.5)"
   gradientUnits="userSpaceOnUse">
					<stop
   offset="0"
   style="stop-color:#FFFFFF;stop-opacity:0.75;"
   id="stop2323" />
					<stop
   offset="1"
   style="stop-color:#FFFFFF;stop-opacity:0.0;"
   id="stop2325" />
					<a:midPointStop
   offset="0"
   style="stop-color:#FFFFFF" />
					<a:midPointStop
   offset="0.5"
   style="stop-color:#FFFFFF" />
					<a:midPointStop
   offset="1"
   style="stop-color:#000000" />
				</radialGradient>
				<path
   d="M 11.88,46.718 C 10.147,49.909 9.736,53.533 10.924,56.988 C 13.36,56.685 15.238,55.901 16.514,54.078 C 18.118,51.846 20.808,49.027 23.139,47.578 C 26.394,45.406 25.342,42.666 20.826,42.119 C 17.152,41.673 13.825,43.687 11.88,46.718"
   id="path2327"
   style="fill:url(#radialGradient5602)" />
			</g><g
   id="g2354"
   transform="translate(-2.1326026,-0.4060232)">
				<path
   d="M 69.841,7.428 C 64.585,4.064 58.659,5.551 55.305,10.778 C 52.75,14.758 52.149,24.372 58.479,25.296 C 66.829,26.515 80.101,13.992 69.841,7.428 z"
   id="path2356"
   style="fill:#d00000" />
				
					<radialGradient
   id="XMLID_25_"
   cx="-183.7505"
   cy="452.68069"
   r="21.349001"
   fx="-183.7505"
   fy="452.68069"
   gradientTransform="matrix(1,0,0,-1,242.499,460.5)"
   gradientUnits="userSpaceOnUse">
					<stop
   offset="0"
   style="stop-color:#000000;stop-opacity:0.0;"
   id="stop2359" />
					<stop
   offset="1"
   style="stop-color:#000000;stop-opacity:0.75;"
   id="stop2361" />
					<a:midPointStop
   offset="0"
   style="stop-color:#FFFFFF" />
					<a:midPointStop
   offset="0.5"
   style="stop-color:#FFFFFF" />
					<a:midPointStop
   offset="1"
   style="stop-color:#000000" />
				</radialGradient>
				<path
   d="M 69.841,7.428 C 64.585,4.064 58.659,5.551 55.305,10.778 C 52.75,14.758 52.149,24.372 58.479,25.296 C 66.829,26.515 80.101,13.992 69.841,7.428 z M 58.623,24.306 C 57.059,24.077 55.913,23.191 55.221,21.67 C 53.822,18.6 54.585,13.75 56.146,11.318 C 59.267,6.455 64.554,5.23 69.302,8.269 C 72.251,10.156 73.228,12.71 72.128,15.658 C 70.302,20.553 63.36,24.997 58.623,24.306 z"
   id="path2363"
   style="fill:url(#radialGradient5604)" />
				
					<radialGradient
   id="XMLID_26_"
   cx="-183.7686"
   cy="452.66891"
   r="21.3736"
   fx="-183.7686"
   fy="452.66891"
   gradientTransform="matrix(1,0,0,-1,242.499,460.5)"
   gradientUnits="userSpaceOnUse">
					<stop
   offset="0"
   style="stop-color:#000000;stop-opacity:0.0;"
   id="stop2366" />
					<stop
   offset="1"
   style="stop-color:#000000;stop-opacity:0.5;"
   id="stop2368" />
					<a:midPointStop
   offset="0"
   style="stop-color:#FFFFFF" />
					<a:midPointStop
   offset="0.5"
   style="stop-color:#FFFFFF" />
					<a:midPointStop
   offset="1"
   style="stop-color:#000000" />
				</radialGradient>
				<path
   d="M 56.146,11.318 C 54.585,13.75 53.822,18.599 55.221,21.67 C 55.913,23.191 57.059,24.077 58.623,24.306 C 63.36,24.997 70.302,20.553 72.128,15.659 C 73.228,12.712 72.251,10.157 69.302,8.27 C 64.554,5.23 59.267,6.455 56.146,11.318 z"
   id="path2370"
   style="fill:url(#radialGradient5606)" />
				
					<radialGradient
   id="XMLID_27_"
   cx="-183.7998"
   cy="451.16309"
   r="9.0433998"
   fx="-183.7998"
   fy="451.16309"
   gradientTransform="matrix(1,0,0,-1,242.499,460.5)"
   gradientUnits="userSpaceOnUse">
					<stop
   offset="0"
   style="stop-color:#FFFFFF;stop-opacity:0.75;"
   id="stop2373" />
					<stop
   offset="1"
   style="stop-color:#FFFFFF;stop-opacity:0.0;"
   id="stop2375" />
					<a:midPointStop
   offset="0"
   style="stop-color:#FFFFFF" />
					<a:midPointStop
   offset="0.5"
   style="stop-color:#FFFFFF" />
					<a:midPointStop
   offset="1"
   style="stop-color:#000000" />
				</radialGradient>
				<path
   d="M 56.146,11.318 C 54.413,14.509 54.002,18.133 55.19,21.588 C 57.626,21.285 59.504,20.501 60.78,18.678 C 62.384,16.446 65.074,13.627 67.404,12.178 C 70.661,10.006 69.607,7.266 65.091,6.719 C 61.418,6.273 58.091,8.287 56.146,11.318"
   id="path2377"
   style="fill:url(#radialGradient5608)" />
			</g><g
   id="g5390"
   transform="translate(-4.6485976,9.658016)"><g
     id="g2154">
				<path
   style="fill:#00ff00"
   id="path2156"
   d="M 90.001,32 C 68.976,18.543 45.27,24.49 31.85,45.4 C 21.634,61.318 19.228,99.773 44.547,103.47 C 77.948,108.349 131.034,58.261 90.001,32 z" />
				
					<radialGradient
   gradientUnits="userSpaceOnUse"
   gradientTransform="matrix(1,0,0,-1,242.499,460.5)"
   fy="417.24799"
   fx="-185.7485"
   r="56.661499"
   cy="417.24799"
   cx="-185.7485"
   id="XMLID_1_">
					<stop
   id="stop2159"
   style="stop-color:#000000;stop-opacity:0.0;"
   offset="0" />
					<stop
   id="stop2161"
   style="stop-color:#000000;stop-opacity:0.75;"
   offset="1" />
					<a:midPointStop
   style="stop-color:#FFFFFF"
   offset="0" />
					<a:midPointStop
   style="stop-color:#FFFFFF"
   offset="0.5" />
					<a:midPointStop
   style="stop-color:#000000"
   offset="1" />
				</radialGradient>
				<path
   style="fill:url(#XMLID_1_)"
   id="path2163"
   d="M 90.001,32 C 68.976,18.543 45.27,24.49 31.85,45.4 C 21.634,61.318 19.228,99.773 44.547,103.47 C 77.948,108.349 131.034,58.261 90.001,32 z M 45.125,99.513 C 38.866,98.599 34.287,95.052 31.515,88.97 C 25.917,76.689 28.973,57.289 35.216,47.562 C 47.699,28.112 68.849,23.212 87.845,35.37 C 99.638,42.916 103.546,53.136 99.15,64.921 C 91.845,84.499 64.075,102.278 45.125,99.513 z" />
				
					<radialGradient
   gradientUnits="userSpaceOnUse"
   gradientTransform="matrix(1,0,0,-1,242.499,460.5)"
   fy="427.49799"
   fx="-196.998"
   r="86.081703"
   cy="427.49799"
   cx="-196.998"
   id="XMLID_2_">
					<stop
   id="stop2166"
   style="stop-color:#000000;stop-opacity:0.0;"
   offset="0" />
					<stop
   id="stop2168"
   style="stop-color:#000000;stop-opacity:0.5;"
   offset="1" />
					<a:midPointStop
   style="stop-color:#FFFFFF"
   offset="0" />
					<a:midPointStop
   style="stop-color:#FFFFFF"
   offset="0.5" />
					<a:midPointStop
   style="stop-color:#000000"
   offset="1" />
				</radialGradient>
				<path
   style="fill:url(#XMLID_2_)"
   id="path2170"
   d="M 35.216,47.562 C 28.973,57.29 25.918,76.688 31.515,88.97 C 34.286,95.052 38.866,98.599 45.125,99.513 C 64.074,102.281 91.845,84.499 99.149,64.921 C 103.545,53.136 99.637,42.916 87.844,35.37 C 68.849,23.212 47.699,28.111 35.216,47.562 z" />
				
					<radialGradient
   gradientUnits="userSpaceOnUse"
   gradientTransform="matrix(1,0,0,-1,242.499,460.5)"
   fy="421.04791"
   fx="-196.9189"
   r="36.386902"
   cy="421.04791"
   cx="-196.9189"
   id="XMLID_3_">
					<stop
   id="stop2173"
   style="stop-color:#FFFFFF;stop-opacity:0.75;"
   offset="0" />
					<stop
   id="stop2175"
   style="stop-color:#FFFFFF;stop-opacity:0.0;"
   offset="1" />
					<a:midPointStop
   style="stop-color:#FFFFFF"
   offset="0" />
					<a:midPointStop
   style="stop-color:#FFFFFF"
   offset="0.5" />
					<a:midPointStop
   style="stop-color:#000000"
   offset="1" />
				</radialGradient>
				<path
   style="fill:url(#XMLID_3_)"
   id="path2177"
   d="M 35.216,47.561 C 28.28,60.329 26.643,74.825 31.391,88.64 C 41.133,87.431 48.649,84.293 53.75,77.001 C 60.165,68.073 70.926,56.798 80.25,51.001 C 93.269,42.313 89.062,31.353 70.996,29.165 C 56.306,27.386 42.998,35.437 35.216,47.561" />
			</g><path
     id="path2379"
     d="M 68.001,46 L 66.001,46 L 66.001,86 L 74.001,86 C 74.001,86 74.001,73.062 74.001,70 C 75.778,70 78.001,70 78.001,70 C 84.618,70 90.001,64.617 90.001,58 C 90.001,51.383 84.618,46 78.001,46 L 68.001,46 z M 78.001,54 C 80.207,54 82.001,55.794 82.001,58 C 82.001,60.206 80.207,62 78.001,62 C 78.001,62 75.778,62 74.001,62 C 74.001,59.778 74.001,56.222 74.001,54 C 75.778,54 78.001,54 78.001,54 z M 60.001,46 L 38,46 L 38,86 L 46,86 C 46,86 46,73.062 46,70 C 49.063,70 62,70 62,70 L 62,62 C 62,62 49.062,62 46,62 C 46,59.778 46,56.222 46,54 C 49.063,54 62,54 62,54 L 62,46 L 60.001,46 z" /><path
     style="fill:#ffff00"
     id="path2381"
     d="M 68.001,48 L 68.001,84 L 72.001,84 L 72.001,68 L 78.001,68 C 83.524,68 88.001,63.522 88.001,58 C 88.001,52.478 83.524,48 78.001,48 L 68.001,48 z M 78.001,64.001 C 78.001,64.001 74.881,64.001 72.001,64.001 L 72.001,52 C 74.881,52 78.001,52 78.001,52 C 81.31,52 84.001,54.692 84.001,58 C 84.001,61.308 81.31,64.001 78.001,64.001 z M 40,84.001 L 44,84.001 L 44,68.001 L 60,68.001 L 60,64.001 L 44,64.001 L 44,52.001 L 60,52.001 L 60,48.001 L 40,48.001 L 40,84.001 z" /></g>
</svg>