/* XPM */
static char *gtkwhiteboard[]={
"32 32 272 2",
"Qt c None",
"#n c #010101",
"#Z c #010102",
"bL c #020202",
"bl c #030303",
"aP c #020202",
"cg c #030304",
"#B c #060606",
"cn c #070707",
"#t c #060606",
"#Y c #0c0c0c",
"b2 c #080809",
"a9 c #0a0a0b",
"ac c #131314",
".# c #141415",
"ad c #0a0a0b",
".l c #181819",
"ar c #1d1e1f",
".R c #0e0f11",
".F c #222324",
"aI c #292a2b",
"as c #131315",
".f c #212225",
"bm c #141416",
".Y c #303032",
".8 c #151618",
"aZ c #37383b",
"#O c #1a1a1e",
"bT c #404142",
".a c #3e3f42",
"#e c #3f4042",
"cm c #4b4b4d",
"aJ c #1d1f23",
"bt c #494a4c",
"bD c #1e1f23",
"bd c #46474b",
"#o c #202126",
"#s c #4f5053",
"bK c #5c5d5f",
"bC c #616164",
"cf c #656568",
"#N c #5d5e62",
"bU c #292a30",
"#6 c #2a2c32",
"a0 c #2b2c33",
".b c #6b6c71",
".e c #6e7074",
"#5 c #6d6e73",
".G c #2c2d35",
"ca c #383a40",
"c# c #808084",
"ch c #696a6f",
"al c #7c7d83",
".m c #484953",
".v c #383a43",
".u c #86898e",
"be c #363841",
"am c #373941",
"#C c #373942",
"az c #8a8c93",
"cl c #9b9c9f",
".Z c #393b44",
".c c #95989e",
".Q c #96989e",
".g c #93959b",
"aO c #9799a1",
"aA c #3f424d",
".7 c #a5a8ae",
"bu c #41444e",
"#f c #41444e",
"a8 c #a6a8b1",
"#m c #b2b5bb",
"bk c #b3b4be",
"#A c #bbc0c7",
"ck c #d1d2d7",
"#0 c #484c59",
".d c #c1c6cd",
"ci c #cfd1d5",
"bM c #494d58",
"aQ c #494d59",
".h c #b4adb5",
"ce c #dbdce2",
"#X c #c4c7d1",
"cj c #e1e2e7",
"#u c #4f5360",
"ab c #cbcfd8",
"b3 c #5d606c",
".k c #d6d9e3",
"b. c #505360",
"ae c #4f5262",
"aq c #cdd2dc",
".E c #d9dde5",
"b1 c #cdd0d7",
".S c #565968",
"aH c #cfd3de",
".X c #dbdee8",
"at c #515463",
"a1 c #515563",
"bf c #525564",
"#P c #535665",
"bv c #535666",
"bY c #544e42",
"#7 c #545767",
"an c #565a69",
"bZ c #584e3b",
".9 c #595c6c",
"aR c #5b5f6f",
"#p c #5d6070",
"b# c #5f6272",
"bN c #616472",
"#D c #616475",
"bn c #626676",
"#1 c #656979",
"af c #6a6d7e",
".H c #6d7182",
"au c #707385",
"b7 c #746a5a",
".0 c #747888",
"aK c #777b8c",
"#g c #7c7f90",
"a2 c #7f8393",
"bX c #807b74",
"#v c #858899",
"b8 c #868178",
"bg c #878b9c",
"#Q c #8d91a1",
"bw c #9093a3",
"#8 c #969aaa",
".w c #9ea1b0",
"ao c #9ea2b1",
"aB c #a6aab8",
".T c #a6aab9",
"aS c #adb0bf",
"bW c #afaaa3",
"#. c #afb3c0",
"aE c #b3b5bf",
"ba c #b3b6c4",
"bs c #b6b8c6",
"#q c #b6bac7",
"#I c #b8c1ce",
"cb c #b9bbc4",
"aV c #b9bcc9",
"bO c #babdc7",
"bc c #bbbec9",
"bx c #bcbecb",
"br c #bdbfcc",
"#E c #bdc0cd",
"a4 c #bdc1cb",
"bj c #bec1cc",
".5 c #bec2cb",
"b4 c #c0c1ca",
"bq c #c0c2cf",
"b9 c #c1bdb9",
"bV c #c1c3cb",
"#b c #c1c4cc",
".z c #c1c4d0",
"bE c #c1c4d1",
"#2 c #c2c6d2",
"aW c #c3c5d0",
"by c #c3c5d2",
"bh c #c3c6d2",
".n c #c3c7d1",
"ag c #c7cad6",
"#F c #c7cbd5",
".L c #c8cad0",
"aj c #c8cbd5",
"#y c #c8cbd6",
"b5 c #c8cdd3",
"#J c #c8cdd8",
"a# c #c9ccd7",
"bo c #c9ccd8",
"b0 c #c9cdd3",
"#c c #c9cdd5",
"aM c #cacdd6",
"#V c #cacdd7",
"av c #cacdd9",
"ax c #caceda",
"#R c #cbced8",
"bi c #cbced9",
"## c #cbcfd9",
".o c #cccbd3",
"#z c #ccced9",
"bp c #cccfda",
"aL c #cccfdb",
".4 c #ccd0d8",
".q c #ccd1dd",
"aF c #cdced9",
"ak c #cdd0db",
"a3 c #cdd0dc",
"#U c #ced1da",
"bb c #ced1dc",
"ay c #ced1dd",
"#K c #ced2db",
"a7 c #ced2dd",
"a5 c #cfd1d9",
"#G c #cfd1dc",
"a. c #cfd2dd",
"aU c #cfd2de",
"#l c #cfd3dc",
"aD c #cfd3df",
".K c #d0d1d9",
"aY c #d0d3de",
"aT c #d0d3df",
"#k c #d0d4dd",
"ap c #d0d4df",
".3 c #d0d5e1",
"ai c #d1d4df",
"#a c #d1d5de",
".I c #d1d5df",
"aC c #d1d5e0",
"aa c #d2d5e0",
"aw c #d2d6e1",
"a6 c #d3d5df",
"bF c #d3d6e1",
"#4 c #d3d7e1",
"aX c #d4d6e2",
"aN c #d4d7df",
".p c #d4d7e0",
"ah c #d4d7e2",
".1 c #d4d8e2",
"aG c #d5d7e2",
"#9 c #d5d8e3",
"#T c #d5d9e3",
".y c #d5dae5",
".M c #d6d7df",
"#L c #d6d9e1",
"#M c #d6d9e3",
"#3 c #d6d9e4",
"#h c #d6dae4",
"bS c #d7d4d2",
"#S c #d7d9e2",
"bz c #d7d9e4",
"#W c #d7dae4",
"#w c #d7dae5",
"#H c #d7dbe5",
".J c #d7dbe6",
"#x c #d8dbe5",
"#j c #d8dce6",
".s c #d8dce7",
".C c #d9dae0",
".r c #d9dbe6",
".V c #d9dde6",
"#r c #d9dde7",
".i c #dadde6",
".6 c #dadde7",
"#i c #dadee7",
".B c #dbdce7",
".t c #dbdee7",
".x c #dbdee8",
".O c #dbdfe7",
"#d c #dbdfe8",
".2 c #dbdfe9",
".A c #dcdcea",
".W c #dcdfe5",
".U c #dce0e9",
"bG c #dddfe8",
".D c #dde0e9",
".P c #dde1ea",
".j c #dee2eb",
"bA c #e0e2eb",
"cc c #e2e5eb",
".N c #e3e5eb",
"b6 c #e5e6ed",
"bH c #e7e9f0",
"bB c #eaebf3",
"bP c #ebedf4",
"c. c #ededf1",
"cd c #edeef5",
"bI c #eff0f6",
"bR c #f0f1f6",
"bQ c #f1f2f8",
"bJ c #f2f3f9",
"QtQtQtQtQtQtQtQt.#.a.b.c.d.eQtQtQtQtQtQtQtQtQtQtQtQtQtQtQtQtQtQt",
"QtQtQtQtQt.f.g.h.i.j.j.j.j.k.lQtQtQtQtQtQtQtQtQtQtQtQtQtQtQtQtQt",
"QtQtQtQtQt.m.n.o.p.q.r.s.t.j.uQtQtQtQtQtQtQtQtQtQtQtQtQtQtQtQtQt",
"QtQtQtQtQt.v.w.x.y.z.A.B.C.D.E.FQtQtQtQtQtQtQtQtQtQtQtQtQtQtQtQt",
"QtQtQtQtQt.G.H.I.J.K.L.M.N.O.P.QQtQtQtQtQtQtQtQtQtQtQtQtQtQtQtQt",
"QtQtQtQtQt.R.S.T.U.U.V.W.O.U.U.X.YQtQtQtQtQtQtQtQtQtQtQtQtQtQtQt",
"QtQtQtQtQtQt.Z.0.1.2.2.3.4.5.6.2.7QtQtQtQtQtQtQtQtQtQtQtQtQtQtQt",
"QtQtQtQtQtQt.8.9#..x.x###a#b#c.x#d#eQtQtQtQtQtQtQtQtQtQtQtQtQtQt",
"QtQtQtQtQtQtQt#f#g#h#i#j#k#l.6#i#i#m#nQtQtQtQtQtQtQtQtQtQtQtQtQt",
"QtQtQtQtQtQtQt#o#p#q#r#r#r#r#r#r#r#r#sQtQtQtQtQtQtQtQtQtQtQtQtQt",
"QtQtQtQtQtQtQt#t#u#v#w#j#j#j#j#x#y#z#A#BQtQtQtQtQtQtQtQtQtQtQtQt",
"QtQtQtQtQtQtQtQt#C#D#E#F#G#H#I#J#K#L#M#NQtQtQtQtQtQtQtQtQtQtQtQt",
"QtQtQtQtQtQtQtQt#O#P#Q#R#S#T#U#V#W#W#W#X#YQtQtQtQtQtQtQtQtQtQtQt",
"QtQtQtQtQtQtQtQt#Z#0#1#2#3#3#3.I#4#3#3#3#5QtQtQtQtQtQtQtQtQtQtQt",
"QtQtQtQtQtQtQtQtQt#6#7#8#9#9#9a.a#aa#9#9abacQtQtQtQtQtQtQtQtQtQt",
"QtQtQtQtQtQtQtQtQtadaeafagahahaiajakahahahalQtQtQtQtQtQtQtQtQtQt",
"QtQtQtQtQtQtQtQtQtQtamanao#4#4#4apa.#4#4#4aqarQtQtQtQtQtQtQtQtQt",
"QtQtQtQtQtQtQtQtQtQtasatauavawawaaaxayawawawazQtQtQtQtQtQtQtQtQt",
"QtQtQtQtQtQtQtQtQtQtQtaA.9aBaCaCaDaEaFaGaCaCaHaIQtQtQtQtQtQtQtQt",
"QtQtQtQtQtQtQtQtQtQtQtaJataKaLaiaiaMaNa.aiaiaiaOQtQtQtQtQtQtQtQt",
"QtQtQtQtQtQtQtQtQtQtQtaPaQaRaSaTaTaUaVaWaXaTaTaYaZQtQtQtQtQtQtQt",
"QtQtQtQtQtQtQtQtQtQtQtQta0a1a2a3aUaUa4a5a6aUaUa7a8#nQtQtQtQtQtQt",
"QtQtQtQtQtQtQtQtQtQtQtQta9b.b#baa.a.a.a3bbavaLbca.bdQtQtQtQtQtQt",
"QtQtQtQtQtQtQtQtQtQtQtQtQtbebfbga3bhbibcaybjayayaybkblQtQtQtQtQt",
"QtQtQtQtQtQtQtQtQtQtQtQtQtbma1bnaVbobpbobqbrbsaka3aUbtQtQtQtQtQt",
"QtQtQtQtQtQtQtQtQtQtQtQtQtQtbubvbwa3a3a3bxbyaLbzbAbBbCQtQtQtQtQt",
"QtQtQtQtQtQtQtQtQtQtQtQtQtQtbDa1afbEa3bFbGbHbIbJbJbJbKQtQtQtQtQt",
"QtQtQtQtQtQtQtQtQtQtQtQtQtQtbLbMbNbObPbQbJbJbRbSbRbQbTQtQtQtQtQt",
"QtQtQtQtQtQtQtQtQtQtQtQtQtQtQtbUbNbVbQbJbWbXbYbZb0b1.#QtQtQtQtQt",
"QtQtQtQtQtQtQtQtQtQtQtQtQtQtQtb2b3b4b5b6b7b8b9c.bJc#QtQtQtQtQtQt",
"QtQtQtQtQtQtQtQtQtQtQtQtQtQtQtQtcacbcccdbJbJbQcecf#nQtQtQtQtQtQt",
"QtQtQtQtQtQtQtQtQtQtQtQtQtQtQtQtcgchcicjckclcmcnQtQtQtQtQtQtQtQt"};
