/* XPM */
static char *dummy[]={
"32 32 10 1",
". c #000000",
"h c #1c1c1c",
"a c #393939",
"c c #555555",
"# c #717171",
"g c #8e8e8e",
"e c #aaaaaa",
"b c #c6c6c6",
"d c #e3e3e3",
"f c #ffffff",
"........#a#a##bcde..............",
".........a.e#dffda..............",
"........a#gcffffffch............",
".........acfffffffbg............",
"........adfffffffffge...........",
"........adffffffffffda..........",
"........cbffffffdebfd#..........",
"........gffffffgdecfea..........",
".......affffffddffffff..........",
".......agfffffddffffgf#.........",
".......#fbgfffffffffbcgh........",
"......aecgfffffffffffggh........",
".......eaebffffffgcbgfde........",
".......aaabffffgffffffde........",
"......aacbeeffbgae..aaaee.....cb",
"........ffaecchc........e.....hg",
".......afffbhh..hhggcc...#..aa.#",
"......adcbgcgg.#bbffff..........",
"......aa...#...##.edbbea........",
"...................abc..........",
"......hh......cghhaae...........",
"......hh.....#cfggeee...........",
"......e.hc..hcgbbfbfffe.........",
"......a.hc..hcgbbgbfbca.........",
"..........aahhgg##eee#..........",
"............ghgg###.a#..........",
"..............###.a.............",
"..............aeeaa..#..........",
"..........e#..aahhcc............",
"..........a#.#..gggg............",
"..........bge.a...#.............",
"..........cga#a.aa.............."};
