<?xml version="1.0" encoding="UTF-8" standalone="no"?>
<!-- Created with Inkscape (http://www.inkscape.org/) -->
<svg
   xmlns:dc="http://purl.org/dc/elements/1.1/"
   xmlns:cc="http://creativecommons.org/ns#"
   xmlns:rdf="http://www.w3.org/1999/02/22-rdf-syntax-ns#"
   xmlns:svg="http://www.w3.org/2000/svg"
   xmlns="http://www.w3.org/2000/svg"
   xmlns:sodipodi="http://sodipodi.sourceforge.net/DTD/sodipodi-0.dtd"
   xmlns:inkscape="http://www.inkscape.org/namespaces/inkscape"
   width="86.295998"
   height="86.538002"
   id="svg3072"
   sodipodi:version="0.32"
   inkscape:version="0.46"
   version="1.0"
   sodipodi:docname="userful-logo.svg"
   inkscape:output_extension="org.inkscape.output.svg.inkscape">
  <defs
     id="defs3074">
    <inkscape:perspective
       sodipodi:type="inkscape:persp3d"
       inkscape:vp_x="0 : 32 : 1"
       inkscape:vp_y="0 : 1000 : 0"
       inkscape:vp_z="64 : 32 : 1"
       inkscape:persp3d-origin="32 : 21.333333 : 1"
       id="perspective3080" />
  </defs>
  <sodipodi:namedview
     id="base"
     pagecolor="#ffffff"
     bordercolor="#666666"
     borderopacity="1.0"
     inkscape:pageopacity="0.0"
     inkscape:pageshadow="2"
     inkscape:zoom="5.5"
     inkscape:cx="32"
     inkscape:cy="61.339743"
     inkscape:current-layer="layer1"
     showgrid="true"
     inkscape:document-units="px"
     inkscape:grid-bbox="true"
     inkscape:window-width="875"
     inkscape:window-height="812"
     inkscape:window-x="1557"
     inkscape:window-y="150" />
  <metadata
     id="metadata3077">
    <rdf:RDF>
      <cc:Work
         rdf:about="">
        <dc:format>image/svg+xml</dc:format>
        <dc:type
           rdf:resource="http://purl.org/dc/dcmitype/StillImage" />
      </cc:Work>
    </rdf:RDF>
  </metadata>
  <g
     id="layer1"
     inkscape:label="Layer 1"
     inkscape:groupmode="layer"
     transform="translate(-8.3065455,-2.54918)">
    <g
       transform="translate(-5.3794545,-131.58582)"
       id="g350">
	<g
   id="g352">
		<path
   d="M 68.87,163.862 C 63.398,154.967 52.467,151.833 42.973,155.822 C 46.42,150.524 47.079,143.852 44.113,138.501 C 43.724,137.803 43.288,137.156 42.81,136.551 C 45.952,144.043 42.658,153.498 34.956,158.334 C 27.494,163.02 18.467,161.749 13.686,155.713 C 13.892,156.205 14.127,156.687 14.388,157.161 C 18.02,163.711 25.907,166.16 33.242,163.541 C 27.89,170.86 27.054,180.885 31.881,188.731 C 32.266,189.356 32.678,189.952 33.115,190.519 C 28.985,180.777 32.49,168.811 41.775,162.568 C 51.36,156.123 63.696,158.068 70.337,166.709 C 69.923,165.738 69.438,164.785 68.87,163.862 z"
   id="path354"
   style="fill:#be1e2d" />

		<circle
   cx="31.000999"
   cy="150.40199"
   r="6.1279998"
   id="circle356"
   sodipodi:cx="31.000999"
   sodipodi:cy="150.40199"
   sodipodi:rx="6.1279998"
   sodipodi:ry="6.1279998"
   style="fill:#be1e2d" />

	</g>

	<g
   id="g358">
		<path
   d="M 75.66,155.49 C 70.691,148.214 71.611,139.143 77.46,134.135 C 76.976,134.361 76.502,134.614 76.039,134.893 C 69.632,138.776 67.49,146.751 70.39,153.979 C 62.871,148.914 52.821,148.463 45.166,153.588 C 44.556,153.998 43.975,154.432 43.426,154.889 C 53.004,150.388 65.094,153.431 71.691,162.467 C 78.501,171.797 77.034,184.199 68.653,191.167 C 69.61,190.716 70.543,190.196 71.442,189.593 C 80.121,183.78 82.832,172.738 78.477,163.404 C 83.904,166.645 90.597,167.046 95.829,163.875 C 96.511,163.461 97.145,163 97.729,162.5 C 90.364,165.926 80.788,162.999 75.66,155.49 z"
   id="path360"
   style="fill:#1b75bb" />

		<circle
   cx="83.836998"
   cy="151.36301"
   r="6.1279998"
   id="circle362"
   sodipodi:cx="83.836998"
   sodipodi:cy="151.36301"
   sodipodi:rx="6.1279998"
   sodipodi:ry="6.1279998"
   style="fill:#1b75bb" />

	</g>

	<g
   id="g364">
		<path
   d="M 41.298,192.543 C 34.797,182.998 36.669,170.649 45.274,163.959 C 44.302,164.377 43.352,164.869 42.434,165.443 C 33.57,170.968 30.499,181.916 34.546,191.387 C 29.228,187.97 22.552,187.35 17.219,190.347 C 16.523,190.742 15.876,191.18 15.274,191.662 C 22.748,188.475 32.224,191.715 37.104,199.387 C 41.832,206.822 40.617,215.855 34.607,220.673 C 35.097,220.464 35.58,220.226 36.052,219.961 C 42.58,216.29 44.983,208.389 42.321,201.07 C 49.67,206.38 59.7,207.158 67.52,202.285 C 68.143,201.896 68.738,201.48 69.301,201.042 C 59.582,205.228 47.596,201.795 41.298,192.543 z"
   id="path366"
   style="fill:#009345" />

		<circle
   cx="29.625999"
   cy="202.46001"
   r="6.1279998"
   id="circle368"
   sodipodi:cx="29.625999"
   sodipodi:cy="202.46001"
   sodipodi:rx="6.1279998"
   sodipodi:ry="6.1279998"
   style="fill:#009345" />

	</g>

	<g
   id="g370">
		<path
   d="M 99.252,197.598 C 95.502,191.115 87.572,188.809 80.286,191.559 C 85.505,184.145 86.161,174.107 81.193,166.35 C 80.795,165.732 80.372,165.142 79.925,164.581 C 84.23,174.249 80.943,186.275 71.773,192.686 C 62.304,199.304 49.936,197.584 43.139,189.061 C 43.57,190.025 44.075,190.973 44.659,191.885 C 50.291,200.678 61.277,203.614 70.698,199.451 C 67.347,204.81 66.809,211.493 69.871,216.789 C 70.272,217.481 70.72,218.122 71.209,218.719 C 67.933,211.285 71.054,201.77 78.666,196.794 C 86.043,191.979 95.092,193.081 99.982,199.031 C 99.766,198.544 99.523,198.065 99.252,197.598 z"
   id="path372"
   style="fill:#f6921e" />

		<circle
   cx="82.974998"
   cy="203.901"
   r="6.1279998"
   id="circle374"
   sodipodi:cx="82.974998"
   sodipodi:cy="203.901"
   sodipodi:rx="6.1279998"
   sodipodi:ry="6.1279998"
   style="fill:#f6921e" />

	</g>

</g>
  </g>
</svg>
