/* XPM */
static char * gnudoq_icon_xpm[] = {
"32 32 153 2",
"  	c None",
". 	c #D0C9C1",
"+ 	c #CDC5BD",
"@ 	c #CDC6BE",
"# 	c #D2CCC4",
"$ 	c #CEC7BE",
"% 	c #CFC9C0",
"& 	c #CCC5BD",
"* 	c #D1CBC3",
"= 	c #CFC7BF",
"- 	c #FAF9F8",
"; 	c #FDFCFC",
"> 	c #FBFAF9",
", 	c #BEB5AB",
"' 	c #E1DCD7",
") 	c #E6E3DF",
"! 	c #BDB3A9",
"~ 	c #F8F6F4",
"{ 	c #FCFBFB",
"] 	c #D3CDC6",
"^ 	c #CFC8C0",
"/ 	c #FDFDFC",
"( 	c #FFFFFF",
"_ 	c #BDB4AA",
": 	c #E4E0DB",
"< 	c #FCFCFC",
"[ 	c #F5F5F5",
"} 	c #FEFEFE",
"| 	c #EAE7E4",
"1 	c #BCB2A8",
"2 	c #FCFAFA",
"3 	c #FDFDFD",
"4 	c #F6F6F6",
"5 	c #FBFBFB",
"6 	c #D4CFC8",
"7 	c #E5E0DC",
"8 	c #DBDBDB",
"9 	c #717171",
"0 	c #F3F3F3",
"a 	c #C5C5C5",
"b 	c #939393",
"c 	c #B8B8B8",
"d 	c #F9F9F9",
"e 	c #868686",
"f 	c #EFEFEF",
"g 	c #858585",
"h 	c #E3E3E3",
"i 	c #7E7E7E",
"j 	c #8E8E8E",
"k 	c #A3A3A3",
"l 	c #8A8A8A",
"m 	c #4C4C4C",
"n 	c #BDB5AA",
"o 	c #F1F1F1",
"p 	c #767676",
"q 	c #CBCBCB",
"r 	c #F8F8F8",
"s 	c #E3E2E1",
"t 	c #BFBFBF",
"u 	c #949494",
"v 	c #D4CEC8",
"w 	c #EBEBEB",
"x 	c #ACACAC",
"y 	c #F5F5F4",
"z 	c #DFDFDF",
"A 	c #C0C0C0",
"B 	c #DCDCDC",
"C 	c #CFC7C0",
"D 	c #F9F9F8",
"E 	c #BFB6AC",
"F 	c #E0DCD7",
"G 	c #E3E1DD",
"H 	c #BDB4A9",
"I 	c #F7F7F6",
"J 	c #D2CCC6",
"K 	c #BCB3A8",
"L 	c #BAB1A6",
"M 	c #DCD7D0",
"N 	c #C8C1B8",
"O 	c #C9C2B8",
"P 	c #E3DEDA",
"Q 	c #DFDBD6",
"R 	c #CAC2BA",
"S 	c #D5CFC8",
"T 	c #D7D2CB",
"U 	c #C9C1B8",
"V 	c #DED9D3",
"W 	c #E1DDD8",
"X 	c #D0CAC2",
"Y 	c #E4DFDB",
"Z 	c #ECECEC",
"` 	c #F7F7F7",
" .	c #A4A4A4",
"..	c #9C9C9C",
"+.	c #D6D6D6",
"@.	c #5E5E5E",
"#.	c #8D8D8D",
"$.	c #CFCFCF",
"%.	c #999999",
"&.	c #A6A6A6",
"*.	c #E5E2DE",
"=.	c #E9E6E2",
"-.	c #E3E0DC",
";.	c #D7D2CC",
">.	c #D9D5D0",
",.	c #C8C0B7",
"'.	c #E2DFDA",
").	c #D2CBC3",
"!.	c #B9AFA4",
"~.	c #C7C0B6",
"{.	c #CEC6BE",
"].	c #F7F6F4",
"^.	c #F7F5F4",
"/.	c #DFDAD4",
"(.	c #E3DFDA",
"_.	c #F3F1EF",
":.	c #F9F7F6",
"<.	c #D2CCC5",
"[.	c #C4C4C3",
"}.	c #BABABA",
"|.	c #DBDBDA",
"1.	c #BDBDBD",
"2.	c #E1E0DF",
"3.	c #797979",
"4.	c #B9B9B9",
"5.	c #929292",
"6.	c #7B7B7B",
"7.	c #C6C6C6",
"8.	c #E8E8E8",
"9.	c #7C7C7C",
"0.	c #848484",
"a.	c #AEAEAE",
"b.	c #888888",
"c.	c #B0B0B0",
"d.	c #C7C7C7",
"e.	c #8C8C8C",
"f.	c #F8F7F6",
"g.	c #9B9B9B",
"h.	c #9A9A99",
"i.	c #909090",
"j.	c #FBFBFA",
"k.	c #B1B1B1",
"l.	c #969696",
"m.	c #CDCDCD",
"n.	c #F9F8F8",
"o.	c #E2DED9",
"p.	c #E7E4E0",
"q.	c #F9F8F7",
"r.	c #D3CDC7",
"s.	c #D1CBC4",
"t.	c #D1CCC5",
"u.	c #D0CAC3",
"v.	c #D1CCC4",
". + @ @ @ @ @ @ @ @ # $ @ @ @ @ @ @ @ @ % # & @ @ @ @ @ @ @ @ * ",
"= - ; ; ; ; ; ; ; > , ' ; ; ; ; ; ; ; ; ) ! ~ ; ; ; ; ; ; ; { ] ",
"^ / ( ( ( ( ( ( ( ( _ : ( ( < [ } ( ( ( | 1 2 ( ( 3 4 5 ( ( ( 6 ",
"^ / ( ( ( ( ( ( ( ( _ 7 ( ( 8 9 0 ( ( ( | 1 2 ( ( a b c ( ( ( 6 ",
"^ / ( ( ( ( ( ( ( ( _ 7 ( ( d e f ( ( ( | 1 2 ( < g h i ( ( ( 6 ",
"^ / ( ( ( ( ( ( ( ( _ : ( ( ( j f ( ( ( | 1 2 ( } k l m ( ( ( 6 ",
"^ / ( ( ( ( ( ( ( ( n : ( ( o p q r ( ( | 1 > ( ( s t u ( ( ( v ",
"^ / ( ( ( ( ( ( ( ( n 7 ( ( w x a y ( ( | 1 > ( ( z A B ( ( ( v ",
"^ / ( ( ( ( ( ( ( ( n 7 ( ( ( ( ( ( ( ( | 1 > ( ( ( ( ( ( ( ( v ",
"C > ( ( ( ( ( ( ( D E F ( ( ( ( ( ( ( ( G H I ( ( ( ( ( ( ( < J ",
"# K L L L L L L L _ M N L L L L L L L L O M _ L L L L L L L K # ",
"$ F P P P P P P P Q R S P P P P P P P P T U V P P P P P P P W X ",
"^ / ( ( ( ( ( ( ( ( _ Y ( ( ( ( ( ( ( ( | 1 2 ( ( ( ( ( ( ( ( 6 ",
"^ / ( ( d Z ` ( ( ( _ : ( ( ( ( ( ( ( ( | 1 2 ( ( ( ( ( ( ( ( 6 ",
"^ / ( (  ...+.( ( ( _ 7 ( ( ( ( ( ( ( ( | 1 > ( ( ( ( ( ( ( ( 6 ",
"^ / ( ( @.#.$.( ( ( _ 7 ( ( ( ( ( ( ( ( | 1 > ( ( ( ( ( ( ( ( 6 ",
"^ / ( ( i z l ( ( ( _ Y ( ( ( ( ( ( ( ( | 1 2 ( ( ( ( ( ( ( ( 6 ",
"^ / ( ( %.b &.( ( ( n : ( ( ( ( ( ( ( ( | 1 > ( ( ( ( ( ( ( ( 6 ",
"^ / ( ( ` Z 5 ( ( } _ 7 ( ( ( ( ( ( ( ( | 1 > ( ( ( ( ( ( ( ( 6 ",
"^ / ( ( ( ( ( ( ( } , 7 ( ( ( ( ( ( ( ( | 1 2 ( ( ( ( ( ( ( ( 6 ",
". *.=.=.=.=.=.=.=.-.R ;.=.=.=.=.=.=.=.=.>.,.'.=.=.=.=.=.=.=.) # ",
").L !.!.!.!.!.!.!.K M ~.!.!.!.!.!.!.!.!.,.M K !.!.!.!.!.!.!.L ).",
"{.].> > > > > > > ^.E /.> > > > > > > > (.H _.> > > > > > > :.<.",
"^ / ( ( ( ( ( ( ( ( n 7 ( ( ( ( ( ( ( ( | 1 > ( ( ( ( ( ( ( ( 6 ",
"^ / ( ( [.}.|.( ( ( n 7 ( ( ( ( ( ( ( ( | 1 2 ( ( t 1.2.( ( ( 6 ",
"^ / ( ( 3.4.5.( ( ( n : ( ( ( ( ( ( ( ( | 1 2 ( ( 6.7.8.( ( ( 6 ",
"^ / ( } 9.0.&.( ( ( _ : ( ( ( ( ( ( ( ( | 1 > ( ( a.b.c.( ( ( 6 ",
"^ ; ( r 6.d.e.( ( ( n 7 ( ( ( ( ( ( ( ( | 1 > ( } f.+.g.( ( ( 6 ",
"^ ; ( ( h.i.a ( ( ( _ Y ( ( ( ( ( ( ( ( | 1 j.( 4 k.l.m.( ( ( v ",
"^ / ( ( n.[ 3 ( ( ( _ : ( ( ( ( ( ( ( ( | 1 > ( } r 4 3 ( ( ( v ",
"^ { ( ( ( ( ( ( ( < , o.( ( ( ( ( ( ( ( p.! q.( ( ( ( ( ( ( 3 r.",
"* s.<.<.<.<.<.<.<.t.# X <.<.<.<.<.<.<.<.s.# u.<.<.<.<.<.<.<.v.# "};
