/* XPM */
static char * gcvs_32x32_lovely_xpm[] = {
"32 32 49 1",
" 	c None",
".	c #FFFFFF",
"+	c #101010",
"@	c #313131",
"#	c #424242",
"$	c #636363",
"%	c #737373",
"&	c #848484",
"*	c #BDBDBD",
"=	c #CECECE",
"-	c #EFEFEF",
";	c #FFEFCE",
">	c #FFD684",
",	c #FFAD00",
"'	c #FFCE63",
")	c #FFC642",
"!	c #FFB510",
"~	c #FFE7AD",
"{	c #FFD673",
"]	c #DEA508",
"^	c #CEA518",
"/	c #9CA531",
"(	c #849C42",
"_	c #739C5A",
":	c #52946B",
"<	c #429473",
"[	c #21948C",
"}	c #4AB5BD",
"|	c #1094A5",
"1	c #008C9C",
"2	c #9CD6DE",
"3	c #31A5B5",
"4	c #63BDCE",
"5	c #CEDEE7",
"6	c #8CADC6",
"7	c #BDCEDE",
"8	c #B5C6D6",
"9	c #9CB5CE",
"0	c #7394B5",
"a	c #527BA5",
"b	c #426B94",
"c	c #316394",
"d	c #6384AD",
"e	c #849CBD",
"f	c #104284",
"g	c #ADB5CE",
"h	c #00105A",
"i	c #313973",
"j	c #101863",
".......................-........",
".......................*.6......",
".....................*.8.=.0....",
"......................0-5.0.....",
"............-|1}5...-07226-*9...",
"............11241.....8g59......",
"...........21113|5.5-.5999-05...",
".....31|...-11111-...--68.g.....",
".....1|21...|111|...-..*...-....",
".....1111....55.................",
".....311-.......................",
"................................",
"...........................>))..",
"..}}4.....>!,,,)>.......;,,,,,..",
"..111...!,,,,,,,,,,~...',,,,,,..",
"...4..;,,,,,,,,,,,,,,.;,,,,,,{..",
".....;,,,,,,,,,,,,,,,,,,,,,,,...",
".....,^11_,,,,,,,,,,,,,,,,,,....",
"....,,13|1,,,,,,,,,,,,,,,,!.....",
"....,,(11[,,,,,,,,,,,,,,,;......",
"...~,,,^/,,,,,,,,,,,,,,,,,......",
"...;,,,,,,,,,,,,,,,,,,,,,,!.....",
"...;,,,,,,,,,,,,,,,,,,,,,,,!....",
"....',,,,,!,,,,,,,,,,,,,,,,,>...",
".....>))~>,,,,,,,,,,,!),,,,,,...",
"......~!,,,,,,,,,,,,-..~,,,,,...",
"........),,,,,,,,!;......!,,,...",
"................................",
"................................",
"................................",
"................................",
"................................"};
