/* XPM */
static char * tremulous_xpm[] = {
"32 32 26 1",
" 	c None",
".	c #020202",
"+	c #050505",
"@	c #040404",
"#	c #1B1B1B",
"$	c #191919",
"%	c #070707",
"&	c #000000",
"*	c #030303",
"=	c #090909",
"-	c #0D0D0D",
";	c #0A0A0A",
">	c #080808",
",	c #0E0E0E",
"'	c #1E1E1E",
")	c #0B0B0B",
"!	c #0C0C0C",
"~	c #010101",
"{	c #060606",
"]	c #1A1A1A",
"^	c #111111",
"/	c #101010",
"(	c #222222",
"_	c #232323",
":	c #121212",
"<	c #181818",
"                                ",
"                .+@#            ",
"              $%&&&*            ",
"              =&&&&&          - ",
" ;>           *&&&&&&       ;*. ",
"  **          .&&&&&*       *.  ",
"  ,..        '&&&&&&&)    )*@   ",
"   !~.       '&&&&&&&    ,*&,   ",
"    &&*       &&&&&&{   &&.;    ",
"     %&*      *&&&&&{  {&&;     ",
"      ~&@    ]~&&&&&^#*&~=      ",
"      *~~@   @&&&&&&@*&&=       ",
"       +&&*+*&&&&&&&&&~;        ",
"        %&&&&&&&&&&&&.          ",
"          *&&&&&&&&&&           ",
"          /+&&&&&&&&&&&&&&&&;   ",
"           {&&&&&&&&&&&~&&&&;   ",
"         @@~&&&&&&&&&&&.        ",
"     /+&&&&&&&&&&&&&&&;         ",
"    >&++ {~&&&&&&&&&&&          ",
"    (_     %&&&&&&&&&&/         ",
"           %&&&&&&&&&&*:        ",
"           {&&&&&&&&&&&&:       ",
"          !&&&&&&&&&.@*.+       ",
"          .@~~@&&&&.    .@      ",
"          &{   .&&~     +~      ",
"         *.      $       )+<    ",
"         .{               >!    ",
"         =&                ;    ",
"         =#                     ",
"         ;                      ",
"                                "};
