/* XPM */
static char * patchage_xpm[] = {
"32 32 29 1",
" 	c None",
".	c #1F2A3C",
"+	c #839CC9",
"@	c #000000",
"#	c #8899AA",
"$	c #3F5885",
"%	c #FFFFFF",
"&	c #A7B2C7",
"*	c #F8F9FB",
"=	c #8F9DB8",
"-	c #475F8A",
";	c #465E89",
">	c #8D9CB7",
",	c #A8B4C8",
"'	c #7D8EAD",
")	c #DEE2EA",
"!	c #FBFCFD",
"~	c #DCE0E9",
"{	c #7285A6",
"]	c #C0C8D7",
"^	c #60759A",
"/	c #455D89",
"(	c #8A99B5",
"_	c #F0F2F5",
":	c #566C94",
"<	c #E5E9EF",
"[	c #516890",
"}	c #D9DEE7",
"|	c #798AAA",
".......+++++@@@@@@@@@@@#$$$$$$$$",
"...........+++++@@@@@@@#$$$$$$$$",
"...........#@@@@+++++@@#$$$$$%&*",
"...........#@@@@@@@@@+++$$$$$%=-",
"...........#@@@@@@@@@@+#$$$$$%;$",
"...........#@@@@@@@@@+@#$$$$$%>;",
"...........#@@@@@@@@+@@#$$$$$%,*",
"...........#@@@@@@@+@@@#$$$$$%$$",
"...........#@@@@@@++@@@#$$$$$%$$",
"############@@@@@++@@@@#$$$$$$$$",
"$$$$$$$$$$$#@@@@++@@@@@#########",
"$$$$$$$$$$$#@@@++@@@@@@#........",
"$$$$$$$$$$$#@@@+@@@@@@@#########",
"%%%$$$$$$$$#@@+@@@@@@@@#$$$$$$$$",
"++%$$$$$$$$#@+@@@@@@@@@#$$$$$$$$",
"$$+++++$$$$#+@@@@@@@@@@#$$$$$$$$",
"$$%$$$$+++++@@@@@@@@@@@#$$$$$$$$",
"$$%$$$$$$$$+++++@@@@@@@#$$$$$$$$",
"$$%$$$$$$$$#@@@@+++++@@#$$$$$%&*",
"%%%%%$$$$$$#@@@@@@@@@+++$$$$$%=-",
"$$$$$$$$$$$#@@@@@@@@@@+#$$$$$%;$",
"$$$$$$$$$$$#@@@@@@@@@+@#$$$$$%>;",
"############@@@@@@@@+@@#$$$$$%,*",
"...........#@@@@@@@+@@@#$$$$$%$$",
"...........#@@@@@@+@@@@#$$$$$%$$",
"############@@@@@+@@@@@#########",
"$$$$$$$$$$$#@@@@+@@@@@@#........",
"$$$$$$$$$$$#@@@+@@@@@@@#########",
"')!~{$$$$$$#@@+@@@@@@@@@@@@@@@@@",
"]^/(_$$$$$$#@+@@@@@@@@@@@@@@@@@@",
"$$$:<$$$$$$#+@@@@@@@@@@@@@@@@@@@",
"$$[}|$$$$$$+@@@@@@@@@@@@@@@@@@@@"};
