/* XPM */
static char *ProjectCenter[] = {
/* columns rows colors chars-per-pixel */
"32 32 256 2",
"   c #007D00160014",
".  c #1873055705C0",
"X  c #107110F910F7",
"o  c #1B4019D919DE",
"O  c #2375077007CE",
"+  c #2A0B083308C8",
"@  c #2542090C090A",
"#  c #371609C40A02",
"$  c #385A10D210F9",
"%  c #26B91E832100",
"&  c #2359226323DA",
"*  c #24B5282D2942",
"=  c #35CA2C272BFF",
"-  c #270433763C30",
";  c #439E0E950F00",
":  c #485F0E770EFE",
">  c #4C13116A11ED",
",  c #48991E521EC0",
"<  c #53A6139D1432",
"1  c #5C33155B1623",
"2  c #56B819D81ADE",
"3  c #5AD319961A80",
"4  c #634515D316EC",
"5  c #63FE170917F4",
"6  c #656217FF18CE",
"7  c #6B2B19671A3A",
"8  c #736F1AF31BD8",
"9  c #7C591C6A1D48",
"0  c #42DE1F262096",
"q  c #63521F371FDF",
"w  c #79DC1F122055",
"e  c #52401FBA2167",
"r  c #5CE422D2232C",
"t  c #58DF282A28B5",
"y  c #496A39EF3D77",
"u  c #6DBA244B24EB",
"i  c #6A8B2D652D61",
"p  c #7BCF2CBA2D2A",
"a  c #790F2445267C",
"s  c #6F8A34353491",
"d  c #7CCE3278330B",
"f  c #7B6E3A4E3AD8",
"g  c #5C2546DE3218",
"h  c #38CF3D7F404A",
"j  c #30903C5F42C4",
"k  c #4CE93C654B44",
"l  c #3E824441467C",
"z  c #4D82453F4748",
"x  c #4B2E406950C0",
"c  c #587C5A015A1A",
"v  c #60D34C024C33",
"b  c #773B42844736",
"n  c #6B284B3F5667",
"m  c #7F6F5CFF5F61",
"M  c #7F5253285C8E",
"N  c #5E615F18616B",
"B  c #6DCA5E216096",
"V  c #78E65DA862F4",
"C  c #597D64AC6605",
"Z  c #4B5669B37C35",
"A  c #60666178632F",
"S  c #7131684F66A4",
"D  c #7E63785B6824",
"F  c #76C669A07995",
"G  c #6014708A7E46",
"H  c #76CF78467844",
"J  c #82BE1D001DDD",
"K  c #8C741DA91EC7",
"L  c #85321F0B1FF6",
"P  c #8F0D1F4D1FCD",
"I  c #83D822122343",
"U  c #8BCA21B62297",
"Y  c #83A42C442D8B",
"T  c #8C082A372BFD",
"R  c #9340228A2378",
"E  c #9B1423E624D5",
"W  c #9AD627692862",
"Q  c #9C0129302A30",
"!  c #97422EE230B1",
"~  c #85B337D13802",
"^  c #8A3F38BD394C",
"/  c #9C4B3A113AD3",
"(  c #960135003539",
")  c #A18C247A256A",
"_  c #A5DB26F327F4",
"`  c #A48C2AC42BD5",
"'  c #AB612A2E2B13",
"]  c #AB7B26A22778",
"[  c #B41129D02AEE",
"{  c #BC072CA92D96",
"}  c #AAEA2F983098",
"|  c #A4C8342E356D",
" . c #A3553B343C8E",
".. c #B2123A2A3AEE",
"X. c #BD1D31F432CB",
"o. c #C6B32E7F2F7F",
"O. c #CF922DE92F50",
"+. c #C5EA2EC62FBA",
"@. c #CF2D2F5A3050",
"#. c #D0B72F262FC7",
"$. c #C3FA339D3481",
"%. c #CEA231253226",
"&. c #C45E3B663C21",
"*. c #CC463C8A3D88",
"=. c #D14C32653360",
"-. c #D1493A7D3B7B",
";. c #A49C55F41D00",
":. c #9BA675EF1736",
">. c #97796D632DD1",
",. c #A40172CC2E30",
"<. c #87FC3F6641A0",
"1. c #94BC3C05407C",
"2. c #A8D03F0541E7",
"3. c #BFA53F15405E",
"4. c #95CC47314B43",
"5. c #82E358F74E42",
"6. c #90C049E551F9",
"7. c #88DF566F5772",
"8. c #916356FC5761",
"9. c #9AF950B553B1",
"0. c #AB0941D542CB",
"q. c #B1C446F647FA",
"w. c #B61E48704953",
"e. c #BCC24BC04C99",
"r. c #BDA04F665069",
"t. c #A8CB58BE5985",
"y. c #B82259145A52",
"u. c #BB2C567456B5",
"i. c #B41760C95D82",
"p. c #85205A65679C",
"a. c #90615FB35FE5",
"s. c #839F67BC67C3",
"d. c #82137A39665E",
"f. c #89956D1A7142",
"g. c #93396C547969",
"h. c #884579AD79A6",
"j. c #81637CFD7CE0",
"k. c #95207DDE7E2F",
"l. c #AB4066A56BBD",
"z. c #BCA9688E70A0",
"x. c #AB3C71B17218",
"c. c #BD1B70267108",
"v. c #C31F42834372",
"b. c #C2BB474C47E2",
"n. c #CC4149F14D12",
"m. c #CCA441744275",
"M. c #CE7E5616481F",
"N. c #C54350585172",
"B. c #CB1053505431",
"V. c #C2F859635A40",
"C. c #D6D458CC5A39",
"Z. c #D15355EC562E",
"A. c #C5297B6E7C06",
"S. c #ACCE897D3548",
"D. c #AD4E96593C9D",
"F. c #D3CEA5441686",
"G. c #DF92AE061838",
"H. c #E167AFA618A8",
"J. c #EC55B7071728",
"K. c #E911B5981B19",
"L. c #E678B2BC1938",
"P. c #C6069D6226A4",
"I. c #C1899F573DD2",
"U. c #D8EDAF062E70",
"Y. c #DB5BB110309B",
"T. c #E264B231251B",
"R. c #AA9B93B84931",
"E. c #B7499D874EC9",
"W. c #B3CD9A3A52E2",
"Q. c #AE97A1F44D10",
"!. c #B2F4A0B943DE",
"~. c #A30A98326DA1",
"^. c #B52098856695",
"/. c #A033A0A46253",
"(. c #ADC6A06E71A9",
"). c #C3B5A50D485B",
"_. c #3E556F388CA3",
"`. c #6F6F6C5B8025",
"'. c #6696745689DC",
"]. c #7F937CB98EDB",
"[. c #711B7DF891D5",
"{. c #9F9E7FD88015",
"}. c #9C217FDB883B",
"|. c #A0FC7C5E83F6",
" X c #AA047FF087A0",
".X c #73B986FF8C92",
"XX c #625887BB9F02",
"oX c #69568B079B68",
"OX c #7516827797CE",
"+X c #4D30803DA24E",
"@X c #55DC88F7A5CC",
"#X c #5EB58FC3AFA4",
"$X c #54A28587A5BD",
"%X c #648D9032A92E",
"&X c #6E099385A74E",
"*X c #70219A09A8A6",
"=X c #78C39C1AAC3E",
"-X c #6FED9CB5B03D",
";X c #6EA4A00FBC3B",
":X c #72BA9B50B479",
">X c #6B58A186BE1A",
",X c #71CCA28EBED0",
"<X c #7646A62BC231",
"1X c #7C03AB8DC69C",
"2X c #7E52B163CE0C",
"3X c #8725850985A7",
"4X c #8B098C4E8C4E",
"5X c #8DA98BC3831F",
"6X c #9FD487C887DA",
"7X c #91868A978B1F",
"8X c #9C988CC48CEF",
"9X c #9EF987CF9666",
"0X c #9F0A8860910B",
"qX c #9BA599AE9998",
"wX c #A2E5809D809C",
"eX c #BEE5897189AF",
"rX c #A15E8F9B998D",
"tX c #B2D18A5592D5",
"yX c #AC8E967E9B40",
"uX c #BE5198F1991A",
"iX c #BC75947F9E38",
"pX c #9D3F97E5A5F0",
"aX c #B1509D18A7FB",
"sX c #98ECA5E6ABEA",
"dX c #84E7A7FFBDB2",
"fX c #95EAA89BBA56",
"gX c #A94AA659A64A",
"hX c #A932A1EDA778",
"jX c #B8ADA8B2A8FA",
"kX c #B3F6AE0DB005",
"lX c #B666AFCEBC9C",
"zX c #C12881C883F4",
"xX c #8552B1F0CC36",
"cX c #9545B4B4C732",
"vX c #981CB9E9CB5F",
"bX c #86FAB88BD6B1",
"nX c #8CBABA99D4F4",
"mX c #8DBABE45DADA",
"MX c #92C4BC55D557",
"NX c #93DCBFF9D8C1",
"BX c #A0B6BE3CCF67",
"VX c #AD12B45BC527",
"CX c #966CC1A8DA58",
"ZX c #9A89C3BDDB72",
"AX c #AA55C38AD38A",
"SX c #A765C778D96B",
"DX c #AD44CAF1DCA5",
"FX c #A626C255D305",
"GX c #B132CBCCDCA6",
"HX c #AA5FCD8BE175",
"JX c #B294CFA6E075",
"KX c #D0D2D12FD12F",
"LX c #DA83D4DAD4D5",
"PX c #E500E579E579",
"IX c #F506F491F48D",
"UX c None",
/* pixels */
"UXUXUXUXUXUXUXUXUXUXUXUXUXUXUXUXUXUXUXUXUXUXUXUXUXUXUXUXUXUXUXUX",
"UXUXUXUXUXUXUXY 0.e.B.C.UXUXUXUXUXUXUXUXUXUXUXUXUXUXUXUXUXUXUXUX",
"UXUXUXUXUXUXUX5 5 3 u Y  .w.N.Z.UXUXUXUXUXUXUXUXUXUXUXUXUXUXUXUX",
"UXUXUXUXUXUXUX4 1 < > > > 2 q p ^ {.8XwXUXUXUXUXUXUXUXUXUXUXUXUX",
"UXUXUXUXUXUXUX5 5 4 1 1 1 < > > > t r i ~ 0.e.B.UXUXUXUXUXUXUXUX",
"UXUXUXUXUXUXUX6 6 7 7 6 5 4 1 1 > + + # : > 2 u ~ / q.N.C.UXUXUX",
"UXUXUXUXUXUXUX6 6 8 8 8 7 7 7 5 @     o , < > > > > < q p / | UX",
"UXUXF.H.F.UXUX5 7 9 9 9 9 8 8 7 . X o H yXr 1 1 < < > > ; 6 J UX",
"UXUXUXG.K.F.UX4 7 9 J J 9 9 9 9 $ c KXPXLXs 4 6 5 4 1 1 < 8 UXUX",
"UXUXUXUXJ.J.UX4 a 4.! P U L 8 2 q 6XIXIXjXu 8 8 7 7 6 5 5 L UXUX",
"UXUXUXUXR.U.L.;.g.AXyX .) E 7 & 2 T 8.a.d 9 9 9 8 8 8 8 8 U UXUX",
"UXUXUXUXUXd.).I.=XmXDXaX2.] 9 % 2 E K J J L L J I n x p 9 L UXUX",
"UXUX4XhX7.B 3X(./.-XbXHXhX<.u % e ` ` ` Q R U U |.cX@XF I J UXUX",
"UXUXs.3X7Xj.N D Y.Q.*XbXcXh = o 0 R ` ' } ' |  XDXZX,X].M k UXUX",
"UXUXp v 4XqXc A W.J.!.&X<Xj o * y w I U W | tXGXCX,XOXpXdX_.UXUX",
"UXv./ d b s.h.7X5XE.K.D.oXZ o * z 7 9 9 I |.DXCX,X:XfXXX#X+X@XUX",
"UX%.-.*...( p f m 3X^.T.S.G - o l V Y a }.DXNX,X:XBXDX%X@X$XUXUX",
"UX%.%.%.=.-.&.../ 7.3X~.P.,.y & C FXrX0XDXNX;X:XFXDXZX1X:XUXUXUX",
"UX%.%.%.%.%.=.=.-.v.l.f.g :.>.S .XvXJXDXMX<XdXAXDXnX,X`.b UXUXUX",
"UXUX%.%.%.%.%.%.@.=.eXx.9.5.,.^.sXvXDXMX1XvXDXZX2X&Xp.T UXUXUXUX",
"UXUX%.%.%.%.%.%.%.%.A.gXqXkXi.M.zXlXMXnXSXDXnX,X'.6.W R UXUXUXUX",
"UXUX=.=.%.%.%.%.%.O.V.gXk.uXy.O.=.n.z.iXVXxX>X[.1.` R L UXUXUXUX",
"UXUX[ { =.=.%.%.%.%.c.8Xt.&.%.%.%.O.#.=.n.l.9XtX| R R 7 UXUXUXUX",
"UXUXUXUXR { %.=.=.m.r...t.$.%.%.%.%.%.%.@.=.-.3.R R R 1 UXUXUXUX",
"UXUXUXUXUXUXL ' o.*.e.b.u.$.%.%.%.%.%.%.%.%.=.[ R R U ; UXUXUXUX",
"UXUXUXUXUXUXUXUXUXE X.v.&.%.%.%.%.%.%.%.%.%.%.[ R R 5 UXUXUXUXUX",
"UXUXUXUXUXUXUXUXUXUXUXR [ %.=.%.%.%.%.%.%.%.%.] R 9 O UXUXUXUXUX",
"UXUXUXUXUXUXUXUXUXUXUXUXUXJ ] +.%.=.%.%.%.%.%._ U > UXUXUXUXUXUX",
"UXUXUXUXUXUXUXUXUXUXUXUXUXUXUXUXE { %.=.%.%.%.) 5 UXUXUXUXUXUXUX",
"UXUXUXUXUXUXUXUXUXUXUXUXUXUXUXUXUXUXU ' %.=.%.U O UXUXUXUXUXUXUX",
"UXUXUXUXUXUXUXUXUXUXUXUXUXUXUXUXUXUXUXUXUX' [ < UXUXUXUXUXUXUXUX",
"UXUXUXUXUXUXUXUXUXUXUXUXUXUXUXUXUXUXUXUXUXUXUXUXUXUXUXUXUXUXUXUX"
};
