/* XPM */
static char * smith3_xpm[] = {
"48 48 30 1",
" 	c None",
".	c #E2A2AE",
"+	c #E199A8",
"@	c #E8B4BE",
"#	c #DB7F97",
"$	c #D56985",
"%	c #E092A4",
"&	c #D9738D",
"*	c #D46680",
"=	c #E7AFBA",
"-	c #DF899B",
";	c #DB7B92",
">	c #CF5575",
",	c #D05C77",
"'	c #E6A6B4",
")	c #C84463",
"!	c #B73B58",
"~	c #CE506E",
"{	c #C74161",
"]	c #CA4A68",
"^	c #AA364E",
"/	c #9D253E",
"(	c #B43A54",
"_	c #9B233C",
":	c #A22842",
"<	c #AF3955",
"[	c #A7334B",
"}	c #C13B5A",
"|	c #A42C45",
"1	c #E195A7",
".++@@@#$%@@@&$*%@=- +..&;;>=+-                  ",
"-+.++#=@@#&+@@+$.  .-   =#+   #=                ",
"=@@++..-#=@+$,$&$*'  %+   #%   +-               ",
"@=>+..%==+;.@;#+='$-  =# +$#$    #              ",
"#*=@.#.+$%@+$-@-;%=#,=  %. $ $#&# -.            ",
"#@@$;=+#@.$$@%&;@&$=+>,)%.-   +-#  +-           ",
"=+-&=#+@&$.'#-++#-.&-.$;   ;    &   =#          ",
"#=$@-+=$-.#.#$=&&.;,,>,#&=  ;  $=&    ;         ",
"%&@+$@>++&+$-#;###&-$+;#*&.  & =!&&'=+@;        ",
"-;=,@*.#$=>+$%$#;###$;$$&&$=  &   .*.>+ ;       ",
">++-=~@>@*+*-$;$#$;$$,>{-;$$   ;    &+* =#      ",
",.*+~-~@>@>+*$#~#,$>$;@-@@@#>#{ &    &   =-     ",
">+*@$@~*{;##*$,$>$,@@@#.@+++&;   &  #'&   -.    ",
"$@~+#@#-.)$#>$,*)$.@@@'&*=@@@&#  .+ $,#=   $    ",
".*.>,@])&#]!>#!*.@@+$$=@@#*..-$.  ;    ).>  ;   ",
"+>={.$$#-$]~$#!$..=-=@+$&@@$+@>,   &   '#%~ +.  ",
"*&*-,~&)-*!~~)!@@@$+.-$@=*;@$.';#  -.   #    ,  ",
",#*,;#>~>)>~>{{@#&#%+$@&*+#,+).$&   &  + )   .+ ",
"&~$$,,~>>!{!^!/-@&@=)@>+;;$.#>-#$~#+#. , ,    & ",
"$*>>>~){{!>*;@@;@$#-$#>;-&++++*@>;.. $ #~ # + + ",
"*$]*]{),$=@@$&.##@>@$~+>>=&;#*-,-&   ;   .,=$  #",
"$~>~),@@@+*$@+,+;;#+]>-&$,-*,*~*)#;  =-   #@(> &",
"~>~]=@+-$%@',#@$$##>~.,@)]=)]!,*)%*   &    #   #",
">>)==@@;@=$&=-;-$$$+.$#,*)~(_;@;#&$   &  - >    ",
":#=@=+,#@$-+;.&,##.#-&**{{~%',{^^*&   ,  >.*    ",
"!$@@@@+@@&@@&@!#$@=;.;)^)@@-^(!>]>#   $  *#&    ",
"({&$$]~$&!&$!#{$(;>>,!!((;;)~(^{<^$~- #    (#)# ",
"$;@@@@;-@]@+*=*+*@.>=,-*~>-==$!{,+#+% #    & *~ ",
"~$$.+.$@@@>++,.,#$#.;#$$))![_,%/_)$=  &    $ .. ",
"*~$@@@=~&.@#-+&%;*>#,.$+>##*{{#@@-#   #  - $    ",
">>~)#+=@.#-+.#*.#$#,,#}~&+#)>~},-~$   *  ,.,    ",
",)>){$@@-%+-;-@#*.*%)>+>,+*-&$)}^,;   $  !-*    ",
"*$>>>{{!-@@+'.-$+,@$%&.~;-=#$#+>=&$   $    ).+= ",
">>~$)>)](!!{&.~'@&@&&+,-$,$.@#]=##+   $    , *  ",
">**~>)))]>{)^^$@@$@@$@,##$#&#;@@#&   #    .+;|  ",
"$>#*)$>>!*)(*]+=&)'+;+@$*++>#$)+>&&& ,    ,    +",
"$$]&#>)>#${}{}.@@@;@+*,@@>,@=)#,--   *  { >    $",
"#,-*!+&~~$,~!)$-++*#@@@>*@@-)+=$$   &  $# $    $",
"##$%)#.~>$$>$))@@@@+#+#@'%&&@@=&#   $  *#$    .-",
",-*@$$@$#->~~$,~@@#%-;.@@-%.%+>>   #.    )##= * ",
";#~&$)-,.]{##>]$].@@@@=&)=@@@+#%   $    * &#  $ ",
"$>#>$#+~#~-$>,*$>$=@@@--@+#+-&>   ;=    * >> $  ",
"@+-#>@>#*##,;>#~$>,#+#@@@@@@&&    &    *     *  ",
"@+]@)=>+,.>-*-,&$$*~*#=@@@@+#;;  *  ,*=~    $   ",
"=={@].-$=]+,%$*-*;&$#~!~-.=&*~! #. &{@~    =&   ",
".@$.+].$+.~.$##>+**+>$)-[!$$    #  +#+.    >    ",
",+.$@&$+>.@~#+$###&-$*=>.**.   ,    -~##  #+    ",
")+.>;@#-+*&@**@'$@@$1@>.$;=   ,     ~@$+ =$     "};

