/* XPM */
static char * fprint_demo_xpm[] = {
"32 30 159 2",
"  	c None",
". 	c #000000",
"+ 	c #021517",
"@ 	c #031A22",
"# 	c #000507",
"$ 	c #012D37",
"% 	c #003A49",
"& 	c #00495A",
"* 	c #023E4F",
"= 	c #010D10",
"- 	c #010E11",
"; 	c #003844",
"> 	c #043642",
", 	c #011015",
"' 	c #002F3B",
") 	c #004454",
"! 	c #00495B",
"~ 	c #205B6A",
"{ 	c #21444F",
"] 	c #2A4A54",
"^ 	c #3C606B",
"/ 	c #073C4E",
"( 	c #003542",
"_ 	c #003846",
": 	c #003845",
"< 	c #003946",
"[ 	c #004251",
"} 	c #065465",
"| 	c #2C505D",
"1 	c #314E57",
"2 	c #042B34",
"3 	c #012730",
"4 	c #002A35",
"5 	c #00404E",
"6 	c #005062",
"7 	c #194C5A",
"8 	c #204A58",
"9 	c #335F6E",
"0 	c #395F6C",
"a 	c #36515C",
"b 	c #000404",
"c 	c #00313D",
"d 	c #003A48",
"e 	c #002B36",
"f 	c #003440",
"g 	c #004656",
"h 	c #004E62",
"i 	c #005063",
"j 	c #004958",
"k 	c #124351",
"l 	c #245C6D",
"m 	c #2C5A69",
"n 	c #2F525F",
"o 	c #3A5D68",
"p 	c #466774",
"q 	c #04323E",
"r 	c #042229",
"s 	c #002832",
"t 	c #003C4A",
"u 	c #003543",
"v 	c #002C37",
"w 	c #003541",
"x 	c #004051",
"y 	c #004D5D",
"z 	c #14596B",
"A 	c #1F4855",
"B 	c #30515C",
"C 	c #385763",
"D 	c #01252F",
"E 	c #002730",
"F 	c #003847",
"G 	c #00404F",
"H 	c #0B4754",
"I 	c #275664",
"J 	c #305967",
"K 	c #345864",
"L 	c #375661",
"M 	c #012831",
"N 	c #002E38",
"O 	c #004252",
"P 	c #003B4A",
"Q 	c #00313B",
"R 	c #004C5C",
"S 	c #044150",
"T 	c #124C59",
"U 	c #225665",
"V 	c #2D6171",
"W 	c #2F5765",
"X 	c #38606F",
"Y 	c #39616E",
"Z 	c #01252C",
"` 	c #004352",
" .	c #003C49",
"..	c #003F4D",
"+.	c #053F4F",
"@.	c #023E4C",
"#.	c #054150",
"$.	c #005769",
"%.	c #045465",
"&.	c #144E5D",
"*.	c #215462",
"=.	c #2E6272",
"-.	c #30616E",
";.	c #03232D",
">.	c #002932",
",.	c #004050",
"'.	c #003442",
").	c #003E4D",
"!.	c #004150",
"~.	c #045161",
"{.	c #165463",
"].	c #1F5262",
"^.	c #245A69",
"/.	c #003641",
"(.	c #003F4E",
"_.	c #024659",
":.	c #004759",
"<.	c #003A47",
"[.	c #025869",
"}.	c #085869",
"|.	c #065669",
"1.	c #004D5E",
"2.	c #01353F",
"3.	c #003642",
"4.	c #033E4D",
"5.	c #002E3A",
"6.	c #002D38",
"7.	c #003945",
"8.	c #043946",
"9.	c #004254",
"0.	c #00414F",
"a.	c #000406",
"b.	c #000408",
"c.	c #023A46",
"d.	c #00333F",
"e.	c #045062",
"f.	c #003E4E",
"g.	c #00343E",
"h.	c #003B4B",
"i.	c #012B33",
"j.	c #031C22",
"k.	c #00313E",
"l.	c #003441",
"m.	c #023D4B",
"n.	c #002934",
"o.	c #002731",
"p.	c #06404F",
"q.	c #003745",
"r.	c #004654",
"s.	c #003D4B",
"t.	c #00252F",
"u.	c #042E3B",
"v.	c #00313C",
"w.	c #002A34",
"x.	c #03191E",
"y.	c #010A0B",
"z.	c #031E26",
"A.	c #02232B",
"B.	c #031B21",
"                              . .                               ",
"                        . . . + @ # . . .                       ",
"                    . . $ %   &       * = .                     ",
"                  . - ;                   > .                   ",
"                . , ' ) !       ~ { ] ^     / .                 ",
"              . . (   _ : < [ }     | 1       2 .               ",
"              . 3 4 5     6     7 8 9 0 a       b               ",
"            . . c d e f g h i j k l m n o p     q .             ",
"            . r s t u v w x g y z   A   B C       .             ",
"            . D   E F     t f G   H   I J K L     .             ",
"            . M N O u P d Q w R S   T U V W X Y   .             ",
"            . Z t ( `  ...+.@.#.G $.%.&.*.=.-.    .             ",
"  .         . ;.>.,.  '.).!.) t ,.R   ~.{.].^.    .             ",
"  .         . .     /.   . .(._.:.<.    [.}.|.1.2..             ",
"        .     . 4 3.  4.5.6.7.8.9.) 0.      6 5 a.              ",
"        .     . b.4   c.d.[   e.f.g.h.&     g i..               ",
"        .       . j.  k.l.   .m.    6.f.5   n..                 ",
"        . .       . @ o.p.d.q.r.(.  s.: q.t.. .                 ",
"          .         . . 3 u.   .v.P   w.x.. . .                 ",
"          .           . . . y.z.A.B.. . . . . . .               ",
"            .               . . . . .       . . . .             ",
"              .                               . . . .           ",
"                                                . . . .         ",
"                  .                             . . . .         ",
"                                                  . . . .       ",
"                                                    . . . .     ",
"                                                      . . . .   ",
"                                                        . . . . ",
"                                                          . . . ",
"                                                            .   "};
