/* XPM */
static char *k_dsurf[] = {
/* columns rows colors chars-per-pixel */
"32 32 78 1",
"  c #003300",
". c #003B00",
"X c #004300",
"o c #004C00",
"O c #0B4F00",
"+ c #005300",
"@ c #085200",
"# c #005B00",
"$ c #1C5400",
"% c #205600",
"& c #2E5A00",
"* c #3F5100",
"= c #006300",
"- c #006C00",
"; c #007300",
": c #007B00",
"> c #544900",
", c #5D4A00",
"< c #4F5000",
"1 c #455C00",
"2 c #525200",
"3 c #644C00",
"4 c #6D4D00",
"5 c #744E00",
"6 c #635700",
"7 c #6F5300",
"8 c #745300",
"9 c #795400",
"0 c #755900",
"q c #7D5A00",
"w c #596400",
"e c #7C6300",
"r c #835B00",
"t c #8A5D00",
"y c #925F00",
"u c #866000",
"i c #8A6101",
"p c #806801",
"a c #896B01",
"s c #936200",
"d c #9B6700",
"f c #956900",
"g c #9B6A00",
"h c #897000",
"j c #987000",
"k c #A36C00",
"l c #AB6E00",
"z c #A37200",
"x c #AB7500",
"c c #AB7900",
"v c #B27400",
"b c #B87200",
"n c #B57A00",
"m c #BA7C00",
"M c #C47D00",
"N c #CC7E00",
"B c #008400",
"V c #008C00",
"C c #009300",
"Z c #009C00",
"A c #00A300",
"S c #00AB00",
"D c #00B200",
"F c #B68100",
"G c #BD8200",
"H c #C38400",
"J c #CB8400",
"K c #C78B00",
"L c #CB8A00",
"P c #D48C00",
"I c #DA8D00",
"U c #DD9100",
"Y c #E28D00",
"T c #E39300",
"R c #EB9400",
"E c #F19700",
"W c #F49900",
"Q c None",
/* pixels */
"QQQQQQQQQQQQQQQQQQQQQQQQQQQQQQQQ",
"QQQQQQQQQQQQQQQQVVVVBBBBQQQQQQQQ",
"QQQQQQQQQQQQBVCVCVCCVVVBVB:QQQQQ",
"QQQQQQQQQQVCVCCCZCZZVCCVV:BB;QQQ",
"QQQQQQQQBVVCCZZZAZAZZZVVBBB::;QQ",
"QQQQQQ:VVCCZAZSASASZACCVBBB:::QQ",
"QQQQQBVBCCZZSADSDSSAACCVBB;:;;-Q",
"QQQQ:BVVCZAASDDDDSDAACVBB;:---;Q",
"QQQ:B:BVCZZSADDDDDDZCCB:;;-----Q",
"QQQ::BBBVZZASSDDDSSZVB:--=====-Q",
"QQ;;::BVVVZZAASSAZCB:;=#+###==-Q",
"QQ;;::::BVVCCZZCVB:;-#+ooo+##=#Q",
"Q----;;;:;:BBB:;=#+ooX..Xoo+#=QQ",
"Q-------=----=#oXQQQQ.. .o++##QQ",
"Q====#####++oX.QQQQQQQ  .Xo##QQQ",
"QQ===###+oX...QQQQQQQQ .Xo#$QQQQ",
"QQ==##+ooX. .QQQQQQQ  .Xo+$49QQQ",
"QQQ###+ooX.  QQQQQ  .Xoo@*8887QQ",
"QQQQ##+oooX.     ..XXo@10qqrtsQQ",
"QQQQQ++++ooXXXXXXXoo%1agfsdsisQQ",
"QQQQQQQ+O@++oooo@&whmcmxvzfkkbQQ",
"QQQQQQQQ,3><26epjmcHGJmJcmMzgbQQ",
"QQQQQQQQ5489iukzcGFPHILJPnmJnvQQ",
"QQQQQQQQ7qrrdfxnmKHIPIILPImmJnQQ",
"QQQQQQQQrttkdvxHHPPPUPTIPPYGJQQQ",
"QQQQQQQQQyglzmcJJURPTLRTPIPYFQQQ",
"QQQQQQQQQglknnmIHPUPWTLRRLYPQQQQ",
"QQQQQQQQQQlxmMHJHPULTWUUTELQQQQQ",
"QQQQQQQQQQQmNnHLLRRPTTUTEPQQQQQQ",
"QQQQQQQQQQQQxmYYHUTUEWWLQQQQQQQQ",
"QQQQQQQQQQQQQQQHGUUPKQQQQQQQQQQQ",
"QQQQQQQQQQQQQQQQQQQQQQQQQQQQQQQQ"
};
