/* XPM */
static char *dcgui_my2[] = {
/* columns rows colors chars-per-pixel */
"32 32 10 1",
"  c black",
". c gray20",
"X c #7F0000",
"o c red",
"O c yellow",
"+ c gray60",
"@ c #b2b2b2",
"# c gray80",
"$ c gray90",
"% c None",
/* pixels */
"%%%%%%%%%%%%%%%%%%%%%%%%%%%%%%%%",
"%%%%%%%%%%%%%%%%%%%%%%%%%%%%%%%%",
"%%       %%%%%%%%%%%%%     %%%%%",
"%          %%%%%%%%%%         %%",
"% OOOOOOOO   %%%%%%  .OOOOOO.  %",
"% OOOOOOOOOO  %%%% .OOOOOOOOOO %",
"% OOOOOOOOOOO  %%  OOOOO..OOO. %",
"% OOO.   .oOoO  % .OOO.    .. %%",
"% OOO. %  .OOOO   Ooo.  %%     %",
"% OoO. %%% .OOo. .OoO. %%%%%%%%%",
"% OOO. %%% .Ooo. .OoO  %%%%%%%%%",
"% oOO. %%%% OoO. .Ooo %%%%%%%%%%",
"% ooo. %%%% oOO. .oOO %%%%%%%%%%",
"% oOo. %%% .ooo. .ooo  %%%%%%%%%",
"% ooo. %%% .oOo. .ooO. %%%%%%%%%",
"% oOO.    .Oooo   Ooo. %%%%    %",
"% ooo..  .oooo  % oooo#+   ... %",
"% oooooooooooo.%% .ooo++ ..ooo %",
"% oooooooooo..%%%% .oooXXooooo %",
"% o#@@@@@@@.#@%%%%#@..#@oooo.  %",
"%  @@@@@@@@.@@%%%%@@%.@@..    %%",
"%%%@@%%%%@@%@@%%%%@@%%@@%%%%%%%%",
"%%%##%%%%##%##%%%%##%%##%%%%%%%%",
"%%%########%##%%%%##%%##%%%%%%%%",
"%%%%#######%########%%##%%%%%%%%",
"%%%%%%%%%%$%$$$$$$$$%%$$%%%%%%%%",
"%%%%%%%%%%$%%%%%%%%%%%%%%%%%%%%%",
"%%%$$$$$$$$%%%%%%%%%%%%%%%%%%%%%",
"%%%$$$$$$$$%%%%%%%%%%%%%%%%%%%%%",
"%%%%%%%%%%%%%%%%%%%%%%%%%%%%%%%%",
"%%%%%%%%%%%%%%%%%%%%%%%%%%%%%%%%",
"%%%%%%%%%%%%%%%%%%%%%%%%%%%%%%%%"
};
