/* XPM */
static char *jabref__[] = {
/* columns rows colors chars-per-pixel */
"32 32 64 1",
"  c #4F5F8F",
". c #50608F",
"X c #536392",
"o c #586794",
"O c #5B6A96",
"+ c #5E6D98",
"@ c #606E99",
"# c #65739C",
"$ c #69779E",
"% c #6B789F",
"& c #6A77A0",
"* c #6D7AA1",
"= c #717DA4",
"- c #7582A6",
"; c #7984A6",
": c #7A86AA",
"> c #7F8AAA",
", c #828DAD",
"< c #8690AF",
"1 c #8691B1",
"2 c #8A94B3",
"3 c #8E98B5",
"4 c #939CB6",
"5 c #939DB9",
"6 c #97A1BB",
"7 c #9AA2BA",
"8 c #9FA7C1",
"9 c #A4ACC2",
"0 c #ABB2C5",
"q c #ADB5CA",
"w c #B0B7C9",
"e c #B3B9CC",
"r c #B9BECC",
"t c #B6BDD0",
"y c #B8BED1",
"u c #BCC2CF",
"i c #BDC2D2",
"p c #C2C6D3",
"a c #C5C9D5",
"s c #CACDD5",
"d c #C5CAD9",
"f c #C9CDD9",
"g c #CED0D6",
"h c #CDD1DD",
"j c #D0D2D7",
"k c #D3D5DA",
"l c #D6D8DE",
"z c #D8DADE",
"x c #D1D5E1",
"c c #D7DAE3",
"v c #DBDDE2",
"b c #DBDEE8",
"n c #DFE0E5",
"m c #DFE1EA",
"M c #E2E3E6",
"N c #E3E5EA",
"B c #E7E8EC",
"V c #EAEBEE",
"C c #EDEEF1",
"Z c #EFF0F2",
"A c #F3F3F5",
"S c #F7F7F9",
"D c #F7F8FA",
"F c #FDFDFD",
/* pixels */
"    .                      . .  ",
"   .                           .",
"  .  #=****&O  ++X        .. .  ",
".    -xBBNmNy+ =ddq1+X         .",
"     .3ZFFFFD2 XqDFDmq*X       .",
".. .  .5AFFFFiX @iFFFFN9O   .   ",
"       .6AFFFC$  *bFFFFSi+    . ",
".  .    oyFFFD2   :bFFFFDyO  .  ",
" .       *BFFF9    &hDDDDA2     ",
"   .. .  XtFSFy     &ySDSDio    ",
" .    .   1DSSiX     o9CDSh@    ",
"   ..     :VSSdo      &cAAdo    ",
" .  . .   *mAAdO     o6VAC9     ",
"   ..     #xAZd+   o2pCZAf+     ",
"  .  .    odZVa+  :pCAACf-    X ",
".      .  OdCVpO -bDAABe#       ",
"   .. . ..OpVBpO 9AZZV9X   .   .",
" .      ..OpMMro qAZZM&    . .  ",
".    .. . OpMMw. 8CCVN-        .",
"  .       OpMn9. :NVVB9X    ..  ",
"..   . .  Ounz7. oaVBVk% . .   .",
"  .  .  . #pzk4.  1nBNM6     .  ",
"          *gzj,   oqBMMs#      .",
"         .4kjs#    #aMMM9X  ..  ",
" X%X.....;akj0X.    -snnz<     .",
".#pw42<70skjs,..     %uzvp#     ",
" .wnzzjzljjg4X..      #wzv9X . .",
"  *pzzzjjja7O...       #9zl<    ",
"...@7rppu9;.   .     .  X>up%   ",
"... .#%%#X   .            +<>X  ",
".               .           X.  ",
".         . . .    .            "
};
