/* XPM */
static char * wings3d_xpm[] = {
"32 32 143 2",
"  	c None",
". 	c #0091CE",
"+ 	c #209ADE",
"@ 	c #1F97DC",
"# 	c #0A7ED3",
"$ 	c #0160C5",
"% 	c #015CC3",
"& 	c #0978D0",
"* 	c #3DB4E6",
"= 	c #0F8FDA",
"- 	c #1890DA",
"; 	c #295097",
"> 	c #0F81D4",
", 	c #015DC3",
"' 	c #1480D3",
") 	c #1E94DB",
"! 	c #076ECB",
"~ 	c #0770CD",
"{ 	c #4AB1E4",
"] 	c #23A4E2",
"^ 	c #0882D5",
"/ 	c #0574CF",
"( 	c #0C84D6",
"_ 	c #1688D6",
": 	c #2594DA",
"< 	c #0260C5",
"[ 	c #2586D2",
"} 	c #5CA3D5",
"| 	c #529DD2",
"1 	c #47B4E4",
"2 	c #1181D3",
"3 	c #056CCB",
"4 	c #2BA0DF",
"5 	c #59BAE5",
"6 	c #1697DE",
"7 	c #067AD2",
"8 	c #066FCC",
"9 	c #40A3DD",
"0 	c #36B6E9",
"a 	c #0981D5",
"b 	c #4DA2DC",
"c 	c #066DCB",
"d 	c #207BCE",
"e 	c #7CA9D3",
"f 	c #5598CE",
"g 	c #52B8E4",
"h 	c #1585D5",
"i 	c #0367C8",
"j 	c #0F88D7",
"k 	c #23A0E0",
"l 	c #229EDF",
"m 	c #26A1E0",
"n 	c #23A5E2",
"o 	c #0C8CDA",
"p 	c #0475D0",
"q 	c #096FCC",
"r 	c #509AD4",
"s 	c #5195CD",
"t 	c #3AB1E3",
"u 	c #159ADF",
"v 	c #127DD2",
"w 	c #3865AB",
"x 	c #1E8CD6",
"y 	c #0C68C7",
"z 	c #3967AD",
"A 	c #3966AC",
"B 	c #7FABD4",
"C 	c #5799CF",
"D 	c #4BB7E5",
"E 	c #1182D3",
"F 	c #046ECC",
"G 	c #0474CF",
"H 	c #0578D1",
"I 	c #0988D8",
"J 	c #057BD3",
"K 	c #0671CE",
"L 	c #6CAEDD",
"M 	c #75A5D1",
"N 	c #479DD3",
"O 	c #26ACE5",
"P 	c #0A82D5",
"Q 	c #6CAFDE",
"R 	c #4EA6DA",
"S 	c #086DCA",
"T 	c #529CD8",
"U 	c #3966AD",
"V 	c #78A7D2",
"W 	c #569DD1",
"X 	c #3EB2E4",
"Y 	c #0A79D0",
"Z 	c #0157C0",
"` 	c #0058C1",
" .	c #015FC5",
"..	c #077ED4",
"+.	c #4DA5DD",
"@.	c #5B98CD",
"#.	c #39AADF",
"$.	c #169BDF",
"%.	c #2C8CD6",
"&.	c #3865AD",
"*.	c #228CD6",
"=.	c #2077CC",
"-.	c #3866AD",
";.	c #6B9FCF",
">.	c #51A5D7",
",.	c #25A5E2",
"'.	c #046CCB",
").	c #0053BE",
"!.	c #0055BF",
"~.	c #0470CD",
"{.	c #289BDD",
"].	c #81ACD4",
"^.	c #499BD2",
"/.	c #29AEE5",
"(.	c #148CD8",
"_.	c #3866AC",
":.	c #56A6D9",
"<.	c #0E75CD",
"[.	c #5997CD",
"}.	c #3FB0E2",
"|.	c #0E8EDA",
"1.	c #0263C7",
"2.	c #0A7CD2",
"3.	c #629BCE",
"4.	c #40AADD",
"5.	c #1BA0E1",
"6.	c #72B5E1",
"7.	c #2F95D8",
"8.	c #7BA9D3",
"9.	c #4B9FD4",
"0.	c #20A4E2",
"a.	c #067CD3",
"b.	c #0473CF",
"c.	c #2E9EDE",
"d.	c #5E9DD0",
"e.	c #4CB4E3",
"f.	c #3965AB",
"g.	c #3294D8",
"h.	c #619BCE",
"i.	c #44A3D9",
"j.	c #29A4E0",
"k.	c #38A7E1",
"l.	c #3967AC",
"                                                                ",
"                                                                ",
"                                                                ",
"                                                                ",
"                                                                ",
"                                                                ",
"                                                                ",
"                                                                ",
"                                                                ",
"                  . .                                           ",
"                . + @ .                       . . .             ",
"              . # $ % & . .                 . * = - ;           ",
"            . > , ' ) ! ~ { .           . . ] ^ / ( _ ;         ",
"          . : < [ } | 1 2 3 4 . . . . . 5 6 7 8 9 0 a b ;       ",
"          . c d ; ; e f g h i j k l m n o p q r s t u v ; w     ",
"        . x y ; z A ; B C D E $ F G H I J K L ; M N O P Q ;     ",
"      . R S T ; U     ; V W X Y Z `  .p ..+.; z ; @.#.$.%.; &.  ",
"      . *.=.; z -.      ; ;.>.,.'.).!.~.{.; z A ; ].^./.(.; _.  ",
"    . :.<.; z A           ; [.}.|.1.% 2.; z A     ; 3.4.5.6.;   ",
"    . 7.; z A             ; 8.9.0.a.b.c.; U         ; d.e.; z f.",
"    . g.; U                 ; h.i.j.k.; z -.          ; ; z A   ",
"      ; l.-.                  ; ; ; ; z A               l.l.    ",
"        l.                      l._.z l.                        ",
"                                                                ",
"                                                                ",
"                                                                ",
"                                                                ",
"                                                                ",
"                                                                ",
"                                                                ",
"                                                                ",
"                                                                "};
