/* XPM */
static char * mlink_m_xpm[] = {
"32 32 5 1",
" 	c None",
".	c #9A9494",
"+	c #000000",
"@	c #FFFF00",
"#	c #FFFFFE",
"                                ",
"                                ",
"                                ",
"................................",
"++++++++++++++++++++++++++++++++",
"++++++@@@++@@@++++@@@++@@@++++++",
"+++@@@@@@++@@@@@@@++@++@@@@@@+++",
"+@@@@@@@+++++@@@@@@@++++@@@@@@@+",
"@@@@@+++++++@+++@@@@@++++++@@@@@",
"@@@@+++++++@@@@++@@@@+++++++@@@@",
"@@@@+++++++@@@@++@@@++++++++@@@@",
"+@@@@@++++++@@@@++++++++++@@@@@+",
"++@@@@@@@++@++@@@@@@@++@@@@@@@++",
"++++++@@@++@@@++++@@@++@@@++++++",
"++++++++++++++++++++++++++++++++",
"................................",
"++++++++++++++++++++++++++++++++",
"++++++###++###++++++++++++++++++",
"+++######++#######++++++++++++++",
"+#######+++++#######++++++++++++",
"#####+++++++++++#####+++++++++++",
"####+++++++++++++####+++++++++++",
"####+++++++++++++####+++++++++++",
"+#####+++++++++#####++++++++++++",
"++#######++########+++++++++++++",
"++++++###++###++++++++++++++++++",
"++++++++++++++++++++++++++++++++",
"................................",
"                                ",
"                                ",
"                                ",
"                                "};
