/* XPM */
static char * creox_xpm[] = {
"32 32 623 2",
"  	c None",
". 	c #D5D7E2",
"+ 	c #CAD1E1",
"@ 	c #A2B1CE",
"# 	c #AFB1C6",
"$ 	c #DFD9E8",
"% 	c #CEC9D9",
"& 	c #CCCCD1",
"* 	c #D7D8E1",
"= 	c #C9CCDC",
"- 	c #9DA7CD",
"; 	c #8899C9",
"> 	c #7992C5",
", 	c #6F8EC0",
"' 	c #6384B4",
") 	c #8A8DBD",
"! 	c #C4B2EC",
"~ 	c #A494C3",
"{ 	c #646589",
"] 	c #5F6A85",
"^ 	c #CFCDD4",
"/ 	c #D0CDDF",
"( 	c #B8B6C9",
"_ 	c #A1A2BF",
": 	c #A3A7C3",
"< 	c #A9AFC2",
"[ 	c #8897B5",
"} 	c #738FC0",
"| 	c #6A8DBE",
"1 	c #6189BA",
"2 	c #587EAC",
"3 	c #8F92C4",
"4 	c #B9AEE9",
"5 	c #A196C6",
"6 	c #6C6A8F",
"7 	c #5C6387",
"8 	c #546080",
"9 	c #DAD8E1",
"0 	c #AEA6CD",
"a 	c #A8A2CB",
"b 	c #A5A4C1",
"c 	c #9EA3C6",
"d 	c #8C97C6",
"e 	c #818EB6",
"f 	c #7A89A8",
"g 	c #718CB8",
"h 	c #658BBC",
"i 	c #5C88B8",
"j 	c #5486B7",
"k 	c #517BAA",
"l 	c #9599CE",
"m 	c #AEA8E2",
"n 	c #A098C8",
"o 	c #777397",
"p 	c #65678B",
"q 	c #5C6386",
"r 	c #4E5C7C",
"s 	c #AAAEB6",
"t 	c #C1BED9",
"u 	c #B2B1D9",
"v 	c #CBCBE0",
"w 	c #B3B7CA",
"x 	c #8893BA",
"y 	c #8692B3",
"z 	c #8594B1",
"A 	c #7790B0",
"B 	c #6288B6",
"C 	c #5785B5",
"D 	c #4A78A6",
"E 	c #47719D",
"F 	c #5675A1",
"G 	c #8A90BF",
"H 	c #A09FCF",
"I 	c #9C99C7",
"J 	c #7E789D",
"K 	c #6E6A8F",
"L 	c #66688B",
"M 	c #525F82",
"N 	c #97A0AF",
"O 	c #C9C9D3",
"P 	c #A1A3D2",
"Q 	c #959DD2",
"R 	c #A6B0D4",
"S 	c #A4B0C7",
"T 	c #8B9DBC",
"U 	c #7994BC",
"V 	c #678CBC",
"W 	c #5F86B7",
"X 	c #6388BA",
"Y 	c #6989BB",
"Z 	c #768EC2",
"` 	c #93A4DB",
" .	c #AAB4E6",
"..	c #CCCFE3",
"+.	c #E8E8EF",
"@.	c #A6A6AA",
"#.	c #827998",
"$.	c #776D94",
"%.	c #6F6A8F",
"&.	c #65738D",
"*.	c #AAAECC",
"=.	c #8E99CA",
"-.	c #8394C9",
";.	c #7990C3",
">.	c #718ABD",
",.	c #6D82B1",
"'.	c #74849E",
").	c #727E8E",
"!.	c #7D9DD5",
"~.	c #84A0DC",
"{.	c #8097CF",
"].	c #7E91C6",
"^.	c #889ACC",
"/.	c #808DB9",
"(.	c #979EB4",
"_.	c #ABAEB6",
":.	c #BCBECE",
"<.	c #A4A7B8",
"[.	c #74688A",
"}.	c #776E94",
"|.	c #68698C",
"1.	c #646A86",
"2.	c #525F80",
"3.	c #4B5D7C",
"4.	c #9DA5C2",
"5.	c #6D7AA5",
"6.	c #646F96",
"7.	c #5E6487",
"8.	c #5D5C7D",
"9.	c #5E5977",
"0.	c #5D5673",
"a.	c #65636B",
"b.	c #666667",
"c.	c #5B6C8D",
"d.	c #697BA6",
"e.	c #7180AD",
"f.	c #7886B4",
"g.	c #8797C8",
"h.	c #8497C9",
"i.	c #8197CB",
"j.	c #8090B8",
"k.	c #949DCF",
"l.	c #97A0D4",
"m.	c #716A8E",
"n.	c #776E93",
"o.	c #6F6A90",
"p.	c #848499",
"q.	c #9B9CA1",
"r.	c #545F79",
"s.	c #475B7D",
"t.	c #ADB0B8",
"u.	c #C7C8CA",
"v.	c #575C6E",
"w.	c #4C506C",
"x.	c #4A4D67",
"y.	c #4F5169",
"z.	c #5D5C75",
"A.	c #706E88",
"B.	c #737190",
"C.	c #6C6A8E",
"D.	c #7979A0",
"E.	c #8689B5",
"F.	c #939ACE",
"G.	c #969FD5",
"H.	c #919DD3",
"I.	c #8C9BD1",
"J.	c #899ACF",
"K.	c #8498CD",
"L.	c #8096CA",
"M.	c #758BBA",
"N.	c #828FC1",
"O.	c #919ED3",
"P.	c #797AA3",
"Q.	c #6F6B90",
"R.	c #90909C",
"S.	c #8F9198",
"T.	c #717683",
"U.	c #909CAB",
"V.	c #8C8C9A",
"W.	c #6C6B85",
"X.	c #8A85A5",
"Y.	c #9F98BF",
"Z.	c #ADA5D4",
"`.	c #B1A9DE",
" +	c #AEA8DF",
".+	c #A9A6DE",
"++	c #A5A5DB",
"@+	c #A1A3DA",
"#+	c #9DA1D8",
"$+	c #98A0D6",
"%+	c #939DD4",
"&+	c #8F9CD2",
"*+	c #8B9BD0",
"=+	c #8699CE",
"-+	c #8297CC",
";+	c #7E96CA",
">+	c #7891C4",
",+	c #7183AF",
"'+	c #8089B7",
")+	c #766D92",
"!+	c #6F6C90",
"~+	c #8E8E97",
"{+	c #636985",
"]+	c #727888",
"^+	c #485B7C",
"/+	c #5D6F88",
"(+	c #AC9FC5",
"_+	c #C2AEE8",
":+	c #C0AEE8",
"<+	c #BBADE6",
"[+	c #B6ABE4",
"}+	c #B1A9E2",
"|+	c #ACA7DF",
"1+	c #A7A6DD",
"2+	c #A4A4DB",
"3+	c #A0A3D8",
"4+	c #9CA2D7",
"5+	c #98A0D4",
"6+	c #949FD2",
"7+	c #8E9CD1",
"8+	c #8598CD",
"9+	c #8096CB",
"0+	c #7C94C9",
"a+	c #7893C7",
"b+	c #687EA9",
"c+	c #8699CF",
"d+	c #8594C7",
"e+	c #716A8F",
"f+	c #898994",
"g+	c #5B6182",
"h+	c #586484",
"i+	c #495B7E",
"j+	c #425979",
"k+	c #BFB2D6",
"l+	c #C1AFE8",
"m+	c #BDADE7",
"n+	c #B9ACE6",
"o+	c #B4AAE3",
"p+	c #AFA8E1",
"q+	c #ABA6DD",
"r+	c #A6A5DB",
"s+	c #A4A6D9",
"t+	c #A0A4D7",
"u+	c #9BA2D6",
"v+	c #979FD2",
"w+	c #96A0D1",
"x+	c #8F9CD1",
"y+	c #8899CE",
"z+	c #8296CC",
"A+	c #7E95CA",
"B+	c #7A93C8",
"C+	c #7593C6",
"D+	c #6C86B3",
"E+	c #7D92C5",
"F+	c #879BD1",
"G+	c #76789F",
"H+	c #898896",
"I+	c #5B607F",
"J+	c #546083",
"K+	c #3E5678",
"L+	c #A1A4AA",
"M+	c #C5C1CE",
"N+	c #BEACE5",
"O+	c #BCADE6",
"P+	c #B7ACE4",
"Q+	c #B3A9E2",
"R+	c #AEA7DF",
"S+	c #ABA8DD",
"T+	c #A5A5D6",
"U+	c #9FA1CC",
"V+	c #A3A7CC",
"W+	c #9FA4CA",
"X+	c #8F98C3",
"Y+	c #8E9CCE",
"Z+	c #8A9BCF",
"`+	c #8C9BCD",
" @	c #8296CB",
".@	c #7491C5",
"+@	c #728FC0",
"@@	c #8694B1",
"#@	c #909CB9",
"$@	c #7C7F94",
"%@	c #6E698E",
"&@	c #878698",
"*@	c #60657F",
"=@	c #546082",
"-@	c #52607A",
";@	c #3D5576",
">@	c #9BA6B3",
",@	c #BBACE1",
"'@	c #BAACE4",
")@	c #B6ABE3",
"!@	c #B1A9E0",
"~@	c #ADA9DD",
"{@	c #B3B1E0",
"]@	c #DCDCEF",
"^@	c #EAEAEF",
"/@	c #E3E4EA",
"(@	c #D9DAE5",
"_@	c #C8CADA",
":@	c #969EBA",
"<@	c #8695C3",
"[@	c #8B9CCC",
"}@	c #849ACA",
"|@	c #7692C6",
"1@	c #7290C4",
"2@	c #6F8FC2",
"3@	c #8C97A8",
"4@	c #CACCD0",
"5@	c #AAADB6",
"6@	c #696587",
"7@	c #7A7A92",
"8@	c #6F7284",
"9@	c #556083",
"0@	c #717782",
"a@	c #3C5474",
"b@	c #5D7288",
"c@	c #B4A8D8",
"d@	c #B7ABDF",
"e@	c #B3ABE0",
"f@	c #AFA9DC",
"g@	c #B0ADDE",
"h@	c #D9D9EC",
"i@	c #E8E9ED",
"j@	c #C4C5D1",
"k@	c #B4B7D1",
"l@	c #BABCD1",
"m@	c #D4D5DF",
"n@	c #DCDDE5",
"o@	c #929AB7",
"p@	c #8E9CC7",
"q@	c #8D9DCA",
"r@	c #7E96C8",
"s@	c #7593C5",
"t@	c #7090C3",
"u@	c #6C8EC1",
"v@	c #637EA7",
"w@	c #8097BE",
"x@	c #8BA2D1",
"y@	c #6B6D93",
"z@	c #6C6C8D",
"A@	c #82848D",
"B@	c #535E80",
"C@	c #747986",
"D@	c #3C5271",
"E@	c #3D5876",
"F@	c #C8C6D3",
"G@	c #BDABE4",
"H@	c #AFA6DE",
"I@	c #ADA8DE",
"J@	c #B3B1E1",
"K@	c #F2F2F6",
"L@	c #D8D8DC",
"M@	c #A1A6C8",
"N@	c #99A2D1",
"O@	c #9AA3D1",
"P@	c #B4BBD6",
"Q@	c #DCDDE2",
"R@	c #B8BDCA",
"S@	c #8898BE",
"T@	c #869AC9",
"U@	c #7D96C7",
"V@	c #7893C5",
"W@	c #6A8EC0",
"X@	c #5D80AF",
"Y@	c #6684B4",
"Z@	c #7592C7",
"`@	c #6D78A2",
" #	c #67678B",
".#	c #8F909A",
"+#	c #5A627C",
"@#	c #777C88",
"##	c #3D5371",
"$#	c #345273",
"%#	c #B4A4D7",
"&#	c #B7ACE1",
"*#	c #ACA8DD",
"=#	c #B7B6E2",
"-#	c #F5F5F7",
";#	c #C0C1CD",
">#	c #9BA1CF",
",#	c #949ED2",
"'#	c #919ED1",
")#	c #93A1D2",
"!#	c #9FABD0",
"~#	c #97A4C9",
"{#	c #899BC6",
"]#	c #889BC8",
"^#	c #7D97C6",
"/#	c #7492C3",
"(#	c #6D8FC1",
"_#	c #678CBE",
":#	c #6086B7",
"<#	c #5A7BA8",
"[#	c #7090C4",
"}#	c #6D84B3",
"|#	c #7A7D93",
"1#	c #9799A0",
"2#	c #85888C",
"3#	c #3F5575",
"4#	c #335274",
"5#	c #ABB5BF",
"6#	c #B1A3D6",
"7#	c #B1A8DE",
"8#	c #A9A5DD",
"9#	c #ACADDA",
"0#	c #E9E9EE",
"a#	c #C5C6D1",
"b#	c #949BC9",
"c#	c #929ED1",
"d#	c #8B9CCE",
"e#	c #8398CA",
"f#	c #8699C8",
"g#	c #8499C7",
"h#	c #7592C4",
"i#	c #658BBE",
"j#	c #618ABB",
"k#	c #4F6F96",
"l#	c #6980A0",
"m#	c #6D7E97",
"n#	c #5F6081",
"o#	c #636889",
"p#	c #90929A",
"q#	c #6A7281",
"r#	c #405778",
"s#	c #335273",
"t#	c #B2BBC2",
"u#	c #CBCAD5",
"v#	c #A9A4DB",
"w#	c #A7A5DD",
"x#	c #A4A5DA",
"y#	c #D9D9E4",
"z#	c #DCDDE4",
"A#	c #9398BC",
"B#	c #98A2D1",
"C#	c #94A0CF",
"D#	c #909FCE",
"E#	c #8B9CCB",
"F#	c #8699C9",
"G#	c #8799C7",
"H#	c #7891C3",
"I#	c #708EC2",
"J#	c #6D8EC1",
"K#	c #698DC0",
"L#	c #648BBD",
"M#	c #608ABC",
"N#	c #5C799B",
"O#	c #9F9F9F",
"P#	c #ABABAB",
"Q#	c #5B5C71",
"R#	c #5E6387",
"S#	c #5F6886",
"T#	c #50607F",
"U#	c #405779",
"V#	c #47607C",
"W#	c #A29FD0",
"X#	c #A5A5DC",
"Y#	c #A1A4DA",
"Z#	c #BBBED9",
"`#	c #F6F6F6",
" $	c #9B9FB5",
".$	c #8C99CE",
"+$	c #8899CD",
"@$	c #899DCE",
"#$	c #9AA8C6",
"$$	c #A1ABBC",
"%$	c #7285A5",
"&$	c #6E8FC1",
"*$	c #6B8EC0",
"=$	c #668CBF",
"-$	c #628BBC",
";$	c #5E89BB",
">$	c #557EAA",
",$	c #5B646D",
"'$	c #626C79",
")$	c #59657D",
"!$	c #5F6487",
"~$	c #4A5C7E",
"{$	c #3F5678",
"]$	c #A3AEBA",
"^$	c #C0BFD8",
"/$	c #A7A7DB",
"($	c #A0A3D9",
"_$	c #A4A9D7",
":$	c #E4E5EB",
"<$	c #DCDDE1",
"[$	c #848EB2",
"}$	c #8596CB",
"|$	c #869BCB",
"1$	c #D3DAE6",
"2$	c #E8E9EA",
"3$	c #7E8DA5",
"4$	c #6C8DBE",
"5$	c #648CBE",
"6$	c #5B88BA",
"7$	c #5786B7",
"8$	c #44658B",
"9$	c #4A6C94",
"0$	c #4C6B94",
"a$	c #5F6488",
"b$	c #555F83",
"c$	c #4A5B7E",
"d$	c #4F617C",
"e$	c #A5A6D8",
"f$	c #9DA2D8",
"g$	c #99A1D7",
"h$	c #AEB5D6",
"i$	c #E6E6E8",
"j$	c #DADCE2",
"k$	c #8C96B3",
"l$	c #7E8DB3",
"m$	c #98A6C3",
"n$	c #EAECF1",
"o$	c #CFD0D1",
"p$	c #768AA8",
"q$	c #678DBF",
"r$	c #628BBD",
"s$	c #5E89BA",
"t$	c #5A87B9",
"u$	c #5585B7",
"v$	c #466C95",
"w$	c #4E6D95",
"x$	c #4D6F98",
"y$	c #5B6487",
"z$	c #566083",
"A$	c #495A7C",
"B$	c #A2A7B3",
"C$	c #9EA0CE",
"D$	c #9BA1D7",
"E$	c #929ED3",
"F$	c #AAB2D2",
"G$	c #D5D7DB",
"H$	c #E5E5E7",
"I$	c #E6E7E9",
"J$	c #E3E3E4",
"K$	c #CECFD0",
"L$	c #949EAD",
"M$	c #708DBA",
"N$	c #5C89BA",
"O$	c #5787B8",
"P$	c #5384B6",
"Q$	c #4B78A5",
"R$	c #4E6A91",
"S$	c #516F99",
"T$	c #58698F",
"U$	c #555E80",
"V$	c #667188",
"W$	c #BDBFD7",
"X$	c #929DD3",
"Y$	c #949ED4",
"Z$	c #92A2CE",
"`$	c #9CA8C5",
" %	c #A3AEC5",
".%	c #9AA8C1",
"+%	c #879BBD",
"@%	c #7390BF",
"#%	c #678CBF",
"$%	c #5987B9",
"%%	c #5586B7",
"&%	c #5285B6",
"*%	c #4F82B3",
"=%	c #4C678D",
"-%	c #546F99",
";%	c #576E96",
">%	c #5B6585",
",%	c #BCBEC6",
"'%	c #959ED3",
")%	c #8D9BD1",
"!%	c #8899CF",
"~%	c #8497CC",
"{%	c #7F95CA",
"]%	c #7C95C8",
"^%	c #7693C5",
"/%	c #7190C3",
"(%	c #5F8ABB",
"_%	c #5786B8",
":%	c #5185B6",
"<%	c #4A6B93",
"[%	c #58719B",
"}%	c #577099",
"|%	c #777F99",
"1%	c #9CA4CF",
"2%	c #909DD2",
"3%	c #8B9AD0",
"4%	c #8698CD",
"5%	c #8196CB",
"6%	c #7391C4",
"7%	c #6F8FC3",
"8%	c #6B8EC1",
"9%	c #5184B6",
"0%	c #4A739F",
"a%	c #596F98",
"b%	c #5C7298",
"c%	c #8997CD",
"d%	c #8498CC",
"e%	c #7F96CA",
"f%	c #7591C5",
"g%	c #6E8EC1",
"h%	c #6F91C2",
"i%	c #698FBE",
"j%	c #6C93C0",
"k%	c #648EBB",
"l%	c #5284B5",
"m%	c #5082B4",
"n%	c #4B79A6",
"o%	c #4F7DAB",
"p%	c #4B75A3",
"q%	c #5F7396",
"r%	c #ABB1BD",
"s%	c #B4BFD8",
"t%	c #A3B0D2",
"u%	c #A7B3D3",
"v%	c #9DACCC",
"w%	c #9BAACA",
"x%	c #95A5C5",
"y%	c #A4B2CB",
"z%	c #8EA0BD",
"A%	c #ACB9CC",
"B%	c #A2B0C5",
"C%	c #B2BECF",
"D%	c #BBC6D3",
"E%	c #B6BFCD",
"F%	c #B7BCC4",
"                                                                ",
"                                                                ",
"                                        . + @ # $ % &           ",
"                              * = - ; > , ' ) ! ~ { ]           ",
"                    ^ / ( _ : < [ } | 1 2 3 4 5 6 7 8           ",
"              9 0 a b c d e f g h i j k l m n o p q r s         ",
"            t u v w x y z A B C D E F G H I J K L q M N         ",
"        O P Q R S T U V W X Y Z `  ...+.@.#.$.%.L q M &.        ",
"      *.=.-.;.>.,.'.).!.~.{.].^./.(._.:.<.[.}.K |.1.2.3.        ",
"    4.5.6.7.8.9.0.a.b.c.d.e.f.g.h.i.j.k.l.m.n.o.p.q.r.s.t.      ",
"u.v.w.x.y.z.A.B.C.D.E.F.G.H.I.J.K.L.M.N.O.P.}.Q.R.S.T.s.U.      ",
"V.W.X.Y.Z.`. +.+++@+#+$+%+&+*+=+-+;+>+,+I.'+)+!+~+{+]+^+/+      ",
"(+_+:+<+[+}+|+1+2+3+4+5+6+7+J.8+9+0+a+b+c+d+e+Q.f+g+h+i+j+      ",
"k+l+m+n+o+p+q+r+s+t+u+v+w+x+y+z+A+B+C+D+E+F+G+%.H+I+J+i+K+L+    ",
"M+N+O+P+Q+R+S+T+U+V+W+X+Y+Z+`+ @0+a+.@+@@@#@$@%@&@*@=@-@;@>@    ",
"  ,@'@)@!@~@{@]@^@/@(@_@:@<@[@}@B+|@1@2@3@4@5@6@7@8@9@0@a@b@    ",
"  c@d@e@f@g@h@i@j@k@l@m@n@o@p@q@r@s@t@u@v@w@x@y@z@A@B@C@D@E@    ",
"  F@G@H@I@J@K@L@M@N@O@P@Q@R@S@T@U@V@2@W@X@Y@Z@`@ #.#+#@###$#    ",
"    %#&#*#=#-#;#>#,#'#)#!#~#{#]#^#/#(#_#:#<#[#}# #|#1#2#3#4#5#  ",
"    6#7#8#9#0#a#b#c#x+d#^.e#f#g#h#2@W@i#j#k#l#m#n#o#p#q#r#s#t#  ",
"    u#v#w#x#y#z#A#B#C#D#E#F#G#H#I#J#K#L#M#N#O#P#Q#R#S#T#U#V#    ",
"      W#X#Y#Z#`# $.$J.+$@$#$$$%$&$*$=$-$;$>$,$'$)$!$9@~${$]$    ",
"      ^$/$($_$:$<$[$}$ @|$1$2$3$4$K#5$M#6$7$8$9$0$a$b$c$d$      ",
"        e$f$g$h$i$j$k$l$m$n$o$p$*$q$r$s$t$u$v$w$x$y$z$A$B$      ",
"        C$D$G.E$F$G$H$I$J$K$L$M$K#5$M#N$O$P$Q$R$S$T$U$V$        ",
"        W$X$Y$&+*+Z$`$ %.%+%@%*$#%-$;$$%%%&%*%=%-%;%>%,%        ",
"          '%X$)%!%~%{%]%^%/%&$K#5$(%6$_%P$:%:%<%[%}%|%          ",
"          1%2%3%4%5%0+a+6%7%8%q$r$s$$%u$9%:%:%0%a%b%            ",
"            c%J.d%e%B+f%/%g%h%i%j%k%7$l%m%n%o%p%q%r%            ",
"              s%t%u%v%w%x%y%T z%A%B%C%D%E%F%                    ",
"                                                                ",
"                                                                "};
