/* XPM */
static char *qliss3d[] = {
/* columns rows colors chars-per-pixel */
"32 29 219 2",
"   c #4F94D9",
".  c #5396DA",
"X  c #5698DA",
"o  c #5799DA",
"O  c #5899DB",
"+  c #5A9ADB",
"@  c #5B9BDB",
"#  c #5D9DDC",
"$  c #5E9DDC",
"%  c #62A0DD",
"&  c #65A1DD",
"*  c #65A2DD",
"=  c #66A2DE",
"-  c #67A2DE",
";  c #68A3DE",
":  c #69A4DE",
">  c #6AA4DE",
",  c #6BA5DF",
"<  c #6CA5DF",
"1  c #6EA7DF",
"2  c #6FA7E0",
"3  c #73AAE0",
"4  c #74AAE1",
"5  c #75ABE1",
"6  c #76ABE1",
"7  c #76ACE1",
"8  c #77ACE1",
"9  c #78ADE1",
"0  c #78ADE2",
"q  c #7AAEE2",
"w  c #7BAEE2",
"e  c #7CAFE2",
"r  c #7DB0E3",
"t  c #7FB1E3",
"y  c #82B3E4",
"u  c #83B3E4",
"i  c #84B4E4",
"p  c #87B6E5",
"a  c #88B6E5",
"s  c #88B7E5",
"d  c #89B7E5",
"f  c #8AB8E5",
"g  c #8BB8E6",
"h  c #8CB9E6",
"j  c #8DB9E6",
"k  c #8DBAE6",
"l  c #8EBAE6",
"z  c #8FBBE6",
"x  c #91BCE7",
"c  c #92BCE7",
"v  c #92BDE7",
"b  c #94BEE7",
"n  c #94BEE8",
"m  c #95BEE8",
"M  c #95BFE8",
"N  c #96BFE8",
"B  c #97C0E8",
"V  c #98C0E8",
"C  c #98C0E9",
"Z  c #99C1E9",
"A  c #9AC1E9",
"S  c #9BC2E9",
"D  c #9CC2E9",
"F  c #9CC3E9",
"G  c #9DC3E9",
"H  c #9DC3EA",
"J  c #9DC4EA",
"K  c #9EC4EA",
"L  c #9FC4EA",
"P  c #9FC5EA",
"I  c #A0C5EA",
"U  c #A1C5EA",
"Y  c #A1C6EA",
"T  c #A2C6EA",
"R  c #A2C6EB",
"E  c #A3C7EB",
"W  c #A4C7EB",
"Q  c #A5C8EB",
"!  c #A6C8EB",
"~  c #A6C9EB",
"^  c #A7C9EB",
"/  c #A7C9EC",
"(  c #A8CAEC",
")  c #A9CAEC",
"_  c #A9CBEC",
"`  c #AACBEC",
"'  c #ABCBEC",
"]  c #ABCCEC",
"[  c #ABCCED",
"{  c #ACCCED",
"}  c #ACCDED",
"|  c #ADCDED",
" . c #AECDED",
".. c #AECEED",
"X. c #AFCEED",
"o. c #B0CEED",
"O. c #B0CFED",
"+. c #B0CFEE",
"@. c #B1CFEE",
"#. c #B2D0EE",
"$. c #B3D1EE",
"%. c #B4D1EE",
"&. c #B4D1EF",
"*. c #B5D2EF",
"=. c #B6D2EF",
"-. c #B6D3EF",
";. c #B7D3EF",
":. c #B8D3EF",
">. c #B8D4EF",
",. c #B9D4EF",
"<. c #B9D4F0",
"1. c #B9D5F0",
"2. c #BAD5F0",
"3. c #BBD5F0",
"4. c #BBD6F0",
"5. c #BCD6F0",
"6. c #BDD6F0",
"7. c #BDD7F0",
"8. c #BED7F1",
"9. c #BED8F1",
"0. c #BFD8F1",
"q. c #C0D8F1",
"w. c #C0D9F1",
"e. c #C1D9F1",
"r. c #C2D9F1",
"t. c #C2DAF1",
"y. c #C2DAF2",
"u. c #C3DAF2",
"i. c #C3DBF2",
"p. c #C4DBF2",
"a. c #C5DBF2",
"s. c #C5DCF2",
"d. c #C6DCF2",
"f. c #C7DDF2",
"g. c #C7DDF3",
"h. c #C8DDF3",
"j. c #C8DEF3",
"k. c #C9DEF3",
"l. c #CADEF3",
"z. c #CADFF3",
"x. c #CBDFF3",
"c. c #CCE0F3",
"v. c #CCE0F4",
"b. c #CDE0F4",
"n. c #CDE1F4",
"m. c #CEE1F4",
"M. c #CFE1F4",
"N. c #CFE2F4",
"B. c #D0E2F4",
"V. c #D0E2F5",
"C. c #D0E3F5",
"Z. c #D1E3F5",
"A. c #D2E3F5",
"S. c #D2E4F5",
"D. c #D3E4F5",
"F. c #D4E4F5",
"G. c #D4E5F5",
"H. c #D5E5F5",
"J. c #D5E5F6",
"K. c #D5E6F6",
"L. c #D6E6F6",
"P. c #D7E6F6",
"I. c #D7E7F6",
"U. c #D8E7F6",
"Y. c #D9E7F6",
"T. c #D9E8F6",
"R. c #D9E8F7",
"E. c #DAE8F7",
"W. c #DAE9F7",
"Q. c #DBE9F7",
"!. c #DCE9F7",
"~. c #DCEAF7",
"^. c #DDEAF7",
"/. c #DEEBF7",
"(. c #DEEBF8",
"). c #DFEBF8",
"_. c #E0ECF8",
"`. c #E1ECF8",
"'. c #E2EDF8",
"]. c #E3EEF9",
"[. c #E4EEF9",
"{. c #E4EFF9",
"}. c #E5EFF9",
"|. c #E6EFF9",
" X c #E7F0FA",
".X c #E8F1FA",
"XX c #E9F1FA",
"oX c #EAF2FA",
"OX c #EBF2FA",
"+X c #ECF3FA",
"@X c #ECF3FB",
"#X c #ECF4FB",
"$X c #EDF4FB",
"%X c #EEF4FB",
"&X c #EEF5FB",
"*X c #EFF5FB",
"=X c #F0F6FB",
"-X c #F1F6FB",
";X c #F1F6FC",
":X c #F1F7FC",
">X c #F2F7FC",
",X c #F3F8FC",
"<X c #F4F8FC",
"1X c #F5F9FC",
"2X c #F6F9FD",
"3X c #F7FAFD",
"4X c #F8FAFD",
"5X c #F8FBFD",
"6X c #F9FBFD",
"7X c #FAFCFD",
"8X c #FAFCFE",
"9X c #FBFCFE",
"0X c #FBFDFE",
"qX c #FCFDFE",
"wX c #FDFDFE",
"eX c #FDFEFE",
"rX c #FEFEFE",
"tX c #FEFEFF",
"yX c gray100",
/* pixels */
"yXyXyXyXyXyXyXyXyXyXyXyXyXyXyXyXyXyXyXyXyXyXyXyXyXyXyXyXyXyXyXyX",
"yXyXyXyXyX3X%X3XyXyXyXyXyXyXyXyXyXyXyXyXyXyXyXyXyXyXyXyXyXyXyXyX",
"yXyXyXyX).$.,.,.].yXyX,XY.z.b.b.).,XyXyXyXyXyXyXyXyXyXyXyXyXyXyX",
"yXyX*Xs.F { A.g.,.V.g.P P $.,.=.,.u.g.%XyXyXoXf.9.,.s.A.,XyX,X6X",
",Xs.P ~ ~ @.W.Y.=.q q @.s.g.b.P.A.z.9.,.s./ Z ~ $.9.e.,.b.].V.6X",
"e.,.@.P / / b.M > p a z @.s.b.A.P.P.A.c X > ~ 9.b.V.P.P.,.p ).yX",
"6.A.).b.P e e 6 g.E.A.6.e.A.=.9.A.e.6 % t g z X.,.g.Y.g.3 Z ).yX",
"e.P.).W.P # > @.W.W.Y.Y.b.V.%XV.F 6 P s.P.P.s.6.A.e.s.3 z 9.e.yX",
"e.b.W.6.z g 1 9.P.).).W.Y.9.P.b.{ @.V.W.).Y.P.e.z.].6 6 b.u.9.3X",
"b.b.g.c P Z c ,.b.W.).W.W.g.p 9.yX%Xg.b.P.Y.Y.Y.g.~ > =.b.g.{ %X",
"oXs.c F ` F 6.9.s.g.Y.W.s.t ` ,.{.yX,Xg.b.P.Y.W.,.* e.$.b.g.` oX",
"yX{ g { X./ b.,.W.b.A.,.> { ).b.6.%XyX*Xe.b.).z.q / s.9.s.e.@.*X",
"yX/ M =.` P P.g.b.*XP # ~ W.).W.g.s.,XyXoXu.b.z X.A.e.` ,.e.@.3X",
",X=.P @.` ~ W.Y.g.=.* a P.).).).).A.g.6XyXY.z / Y.E.b.Z / @.@.yX",
"].9.@.P { { ).{.,.o P ).9.P.E.).W.P.e.b.yXP.~ 9.P.Y.V.Z g P V.yX",
"V.e.A.{ ~ / ).g.1 6 s.,X).s.Y.Y.W.Y.P.g.s.).,Xg.V.P.P.P q F *XyX",
"f.g.W.f.~ / e.3 6 A.V.b.6XW.e.P.).E.P.{ ` P.yXoXe.V.P.Z 6 S yXyX",
"s.b.Y.W.=.z 2 * 9.).E.s.E.yXb.e.Y.P.Z @.A.6.).yXg.s.A.z * { yXyX",
"e.g.E.).g.*   { ).W.W.P.g.P.,Xb.@.t / W.Y.P.z.{.{.,.6.+ g 9.oXyX",
"V.V.W.E.~ # > f.).).).W.W.e.s.{ o P W.W.E.E.P.e.oXs.a 3 b.,.g.yX",
"W.g.W.,.6 y { F { V.E.Y.z./ * . / g.P.Y.W.).Y.b.s.,.> e.P.,.e.yX",
"oX,.f.p B P.).=.B F P Z g 3 3 @.e.6.$.g.W.E.P.V.~ * a b.b.e.e.yX",
"yXg.g F E.).).P.,.F ~ Z p z V.W.P.b.X.M P F F c 1 Z ` S e.,.s.yX",
"yXe.Z A.W.).W.P.A.~ t q { W.W.W.W.P.V.6.B F P t x W.g.g c Z %XyX",
"%XP.{.u.g.b.b.e.@.` { 6.b.P.E.W.Y.P.P.P.=.B z F A.W.P.S M P.yXyX",
"yX6XyX%XW.z.b.b.A.*XyX,Xb.e.b.A.V.P.A.s.6.F F g.E.W.Y.B e.yXyXyX",
"yXyXyXyXyXyXyXyXyXyXyXyXyX%XP.e.e.6.,.9.s.oXOXz.b.P.A.` *XyXyXyX",
"yXyXyXyXyXyXyXyXyXyXyXyXyXyXyX6X>X%X*X3XyXyXyX,Xg.e.e.).yXyXyXyX",
"yXyXyXyXyXyXyXyXyXyXyXyXyXyXyXyXyXyXyXyXyXyXyXyXyX*X%XyXyXyXyXyX"
};
