<?xml version="1.0" encoding="UTF-8" standalone="no"?>
<!-- Created with Inkscape (http://www.inkscape.org/) -->
<svg
   xmlns:dc="http://purl.org/dc/elements/1.1/"
   xmlns:cc="http://web.resource.org/cc/"
   xmlns:rdf="http://www.w3.org/1999/02/22-rdf-syntax-ns#"
   xmlns:svg="http://www.w3.org/2000/svg"
   xmlns="http://www.w3.org/2000/svg"
   xmlns:xlink="http://www.w3.org/1999/xlink"
   xmlns:sodipodi="http://sodipodi.sourceforge.net/DTD/sodipodi-0.dtd"
   xmlns:inkscape="http://www.inkscape.org/namespaces/inkscape"
   id="svg2394"
   sodipodi:version="0.32"
   inkscape:version="0.45.1"
   width="128"
   height="128"
   version="1.0"
   sodipodi:docbase="/home/rugby471/MeMaker/mine/trunk/src"
   sodipodi:docname="logo.svg"
   inkscape:output_extension="org.inkscape.output.svg.inkscape">
  <metadata
     id="metadata2399">
    <rdf:RDF>
      <cc:Work
         rdf:about="">
        <dc:format>image/svg+xml</dc:format>
        <dc:type
           rdf:resource="http://purl.org/dc/dcmitype/StillImage" />
      </cc:Work>
    </rdf:RDF>
  </metadata>
  <defs
     id="defs2397">
    <linearGradient
       inkscape:collect="always"
       xlink:href="#linearGradient18439"
       id="linearGradient18447"
       x1="6.9999995"
       y1="16.500002"
       x2="38.624996"
       y2="43.000004"
       gradientUnits="userSpaceOnUse"
       gradientTransform="matrix(2.7398991,0,0,2.7398991,8.0141491,-1.8298011)" />
    <linearGradient
       inkscape:collect="always"
       xlink:href="#linearGradient19436"
       id="linearGradient19434"
       x1="42.703102"
       y1="47.068516"
       x2="351.29471"
       y2="156.25359"
       gradientUnits="userSpaceOnUse" />
    <linearGradient
       id="linearGradient18439">
      <stop
         style="stop-color:#ecc17e;stop-opacity:1;"
         offset="0"
         id="stop18441" />
      <stop
         style="stop-color:#df9726;stop-opacity:1;"
         offset="1"
         id="stop18443" />
    </linearGradient>
    <linearGradient
       id="linearGradient19436">
      <stop
         id="stop19438"
         offset="0"
         style="stop-color:#fdee73;stop-opacity:1;" />
      <stop
         id="stop19440"
         offset="1"
         style="stop-color:#eed404;stop-opacity:1;" />
    </linearGradient>
    <linearGradient
       inkscape:collect="always"
       xlink:href="#linearGradient18439"
       id="linearGradient2449"
       gradientUnits="userSpaceOnUse"
       x1="6.9999995"
       y1="16.500002"
       x2="38.624996"
       y2="43.000004" />
    <linearGradient
       inkscape:collect="always"
       xlink:href="#linearGradient19436"
       id="linearGradient2451"
       gradientUnits="userSpaceOnUse"
       x1="42.703102"
       y1="47.068516"
       x2="351.29471"
       y2="156.25359" />
  </defs>
  <sodipodi:namedview
     inkscape:window-height="629"
     inkscape:window-width="872"
     inkscape:pageshadow="2"
     inkscape:pageopacity="0.0"
     guidetolerance="10.0"
     gridtolerance="10.0"
     objecttolerance="10.0"
     borderopacity="1.0"
     bordercolor="#666666"
     pagecolor="#ffffff"
     id="base"
     showgrid="true"
     width="128px"
     height="128px"
     inkscape:zoom="2.9794831"
     inkscape:cx="53.720254"
     inkscape:cy="58.186827"
     inkscape:window-x="0"
     inkscape:window-y="0"
     inkscape:current-layer="svg2394" />
  <g
     id="g2598"
     transform="matrix(1.0391276,0,0,1.0391276,-12.563243,1.7816909)">
    <path
       id="path10192"
       d="M 38.006955,92.665819 C 37.251458,93.729267 36.267489,94.579904 35.021194,95.040446 C 30.952668,96.543886 25.99669,93.63619 23.957531,88.554379 C 21.918375,83.472567 23.570079,78.135627 27.638604,76.632187 C 28.875337,76.17518 30.189267,76.160667 31.483277,76.45556 C 31.542793,76.664104 31.586026,76.885836 31.646879,77.093373 C 32.267332,79.209397 32.95739,81.270198 33.712369,83.275251 C 34.467351,85.280303 35.285148,87.231495 36.16642,89.113691 C 36.741218,90.341333 37.381326,91.494619 38.006955,92.665819 z "
       style="fill:#8f5902;fill-opacity:1;stroke:#c17d11;stroke-width:2.73989916;stroke-linecap:round;stroke-linejoin:round;stroke-miterlimit:4;stroke-dasharray:none;stroke-opacity:1;display:inline" />
    <path
       sodipodi:nodetypes="cssscsssc"
       style="fill:none;fill-opacity:1;stroke:#fed797;stroke-width:2.73989868;stroke-linecap:round;stroke-linejoin:round;stroke-miterlimit:4;stroke-dasharray:none;stroke-opacity:1;display:inline"
       d="M 37.297707,90.475388 C 36.742875,91.234995 35.505635,92.084763 34.590369,92.413724 C 31.602477,93.487608 27.962847,91.410682 26.465306,87.78082 C 24.967764,84.150955 25.8175,80.142088 28.80539,79.068204 C 29.713637,78.741767 31.556463,78.685996 32.506772,78.896634 C 32.550482,79.045595 32.582232,79.203974 32.626922,79.352217 C 33.082576,80.86366 33.58935,82.335663 34.143799,83.767841 C 34.698253,85.200022 35.298833,86.593729 35.946033,87.938156 C 36.368161,88.815042 36.838251,89.638817 37.297707,90.475388 z "
       id="path11169" />
    <path
       style="fill:#8f5902;fill-opacity:1;stroke:#c17d11;stroke-width:2.73989916;stroke-linecap:round;stroke-linejoin:round;stroke-miterlimit:4;stroke-dasharray:none;stroke-opacity:1;display:inline"
       d="M 109.53649,92.665819 C 110.29199,93.729267 111.27596,94.579904 112.52225,95.040446 C 116.59078,96.543886 121.54676,93.63619 123.58591,88.554379 C 125.62507,83.472567 123.97337,78.135627 119.90484,76.632187 C 118.66811,76.17518 117.35418,76.160667 116.06017,76.45556 C 116.00065,76.664104 115.95742,76.885836 115.89657,77.093373 C 115.27611,79.209397 114.58606,81.270198 113.83108,83.275251 C 113.07609,85.280303 112.2583,87.231495 111.37703,89.113691 C 110.80223,90.341333 110.16212,91.494619 109.53649,92.665819 z "
       id="path12142" />
    <path
       sodipodi:nodetypes="cssscsssc"
       id="path12146"
       d="M 110.21547,90.505658 C 110.7703,91.265265 112.03781,92.084763 112.95308,92.413724 C 115.94097,93.487608 119.5806,91.410682 121.07814,87.78082 C 122.57568,84.150955 121.66236,80.039181 118.67447,78.965296 C 117.76622,78.638859 115.95671,78.716267 115.0064,78.926905 C 114.96269,79.075865 114.93094,79.234245 114.88625,79.382487 C 114.4306,80.89393 113.92382,82.365933 113.36938,83.798111 C 112.81492,85.230292 112.21434,86.623999 111.56714,87.968427 C 111.14501,88.845312 110.67492,89.669087 110.21547,90.505658 z "
       style="fill:none;fill-opacity:1;stroke:#fed797;stroke-width:2.73989868;stroke-linecap:round;stroke-linejoin:round;stroke-miterlimit:4;stroke-dasharray:none;stroke-opacity:1;display:inline" />
    <path
       style="fill:url(#linearGradient18447);fill-opacity:1;stroke:#c17d11;stroke-width:2.7398994;stroke-linecap:round;stroke-linejoin:round;stroke-miterlimit:4;stroke-dasharray:none;stroke-opacity:1;display:inline"
       d="M 118.98005,51.437695 C 118.98005,89.336916 98.726716,120.0957 73.771721,120.0957 C 48.816723,120.0957 28.563389,89.336916 28.563389,51.437695 C 28.563389,13.538471 48.816723,2.280042 73.771721,2.280042 C 98.726716,2.280042 118.98005,13.538471 118.98005,51.437695 z "
       id="path3827"
       sodipodi:nodetypes="csssc" />
    <path
       sodipodi:nodetypes="csssc"
       id="path4800"
       d="M 116.24016,51.891192 C 116.24016,88.027655 97.214297,117.3558 73.771723,117.3558 C 50.329144,117.3558 31.303282,88.027655 31.303282,51.891192 C 31.303282,15.754726 50.329144,5.0199466 73.771723,5.0199466 C 97.214297,5.0199466 116.24016,15.754726 116.24016,51.891192 z "
       style="fill:none;fill-opacity:1;stroke:#fed797;stroke-width:2.7398994;stroke-linecap:round;stroke-linejoin:round;stroke-miterlimit:4;stroke-dasharray:none;stroke-opacity:1;display:inline" />
    <path
       transform="matrix(1.3261355,0,0,1.3261355,87.888796,36.705131)"
       d="M -13.744388 31.891224 A 4.1321554 4.1321554 0 1 1  -22.008698,31.891224 A 4.1321554 4.1321554 0 1 1  -13.744388 31.891224 z"
       sodipodi:ry="4.1321554"
       sodipodi:rx="4.1321554"
       sodipodi:cy="31.891224"
       sodipodi:cx="-17.876543"
       id="path13123"
       style="opacity:1;color:#000000;fill:#3465a4;fill-opacity:1;fill-rule:nonzero;stroke:#eeeeec;stroke-width:2.06607771;stroke-linecap:square;stroke-linejoin:round;marker:none;marker-start:none;marker-mid:none;marker-end:none;stroke-miterlimit:4;stroke-dasharray:none;stroke-dashoffset:0;stroke-opacity:1;visibility:visible;display:inline;overflow:visible;enable-background:accumulate"
       sodipodi:type="arc" />
    <path
       sodipodi:type="arc"
       style="opacity:1;color:#000000;fill:#3465a4;fill-opacity:1;fill-rule:nonzero;stroke:#eeeeec;stroke-width:2.06607771;stroke-linecap:square;stroke-linejoin:round;marker:none;marker-start:none;marker-mid:none;marker-end:none;stroke-miterlimit:4;stroke-dasharray:none;stroke-dashoffset:0;stroke-opacity:1;visibility:visible;display:inline;overflow:visible;enable-background:accumulate"
       id="path13492"
       sodipodi:cx="-17.876543"
       sodipodi:cy="31.891224"
       sodipodi:rx="4.1321554"
       sodipodi:ry="4.1321554"
       d="M -13.744388 31.891224 A 4.1321554 4.1321554 0 1 1  -22.008698,31.891224 A 4.1321554 4.1321554 0 1 1  -13.744388 31.891224 z"
       transform="matrix(1.3261355,0,0,1.3261355,107.06809,36.705131)" />
    <path
       transform="matrix(1.3699495,0,0,1.3699495,70.004362,-5.9396552)"
       d="M -3.25 62 A 1 1 0 1 1  -5.25,62 A 1 1 0 1 1  -3.25 62 z"
       sodipodi:ry="1"
       sodipodi:rx="1"
       sodipodi:cy="62"
       sodipodi:cx="-4.25"
       id="path13494"
       style="opacity:1;color:#000000;fill:#000000;fill-opacity:1;fill-rule:nonzero;stroke:none;stroke-width:3;stroke-linecap:square;stroke-linejoin:round;marker:none;marker-start:none;marker-mid:none;marker-end:none;stroke-miterlimit:4;stroke-dasharray:none;stroke-dashoffset:0;stroke-opacity:1;visibility:visible;display:inline;overflow:visible;enable-background:accumulate"
       sodipodi:type="arc" />
    <path
       sodipodi:type="arc"
       style="opacity:1;color:#000000;fill:#000000;fill-opacity:1;fill-rule:nonzero;stroke:none;stroke-width:3;stroke-linecap:square;stroke-linejoin:round;marker:none;marker-start:none;marker-mid:none;marker-end:none;stroke-miterlimit:4;stroke-dasharray:none;stroke-dashoffset:0;stroke-opacity:1;visibility:visible;display:inline;overflow:visible;enable-background:accumulate"
       id="path14465"
       sodipodi:cx="-4.25"
       sodipodi:cy="62"
       sodipodi:rx="1"
       sodipodi:ry="1"
       d="M -3.25 62 A 1 1 0 1 1  -5.25,62 A 1 1 0 1 1  -3.25 62 z"
       transform="matrix(1.3699495,0,0,1.3699495,89.183656,-5.9396552)" />
    <path
       transform="matrix(1.3699495,0,0,1.3699495,86.443757,-8.6795543)"
       d="M -3.25 62 A 1 1 0 1 1  -5.25,62 A 1 1 0 1 1  -3.25 62 z"
       sodipodi:ry="1"
       sodipodi:rx="1"
       sodipodi:cy="62"
       sodipodi:cx="-4.25"
       id="path14467"
       style="opacity:1;color:#000000;fill:#eeeeec;fill-opacity:1;fill-rule:nonzero;stroke:none;stroke-width:3;stroke-linecap:square;stroke-linejoin:round;marker:none;marker-start:none;marker-mid:none;marker-end:none;stroke-miterlimit:4;stroke-dasharray:none;stroke-dashoffset:0;stroke-opacity:1;visibility:visible;display:inline;overflow:visible;enable-background:accumulate"
       sodipodi:type="arc" />
    <path
       sodipodi:type="arc"
       style="opacity:1;color:#000000;fill:#eeeeec;fill-opacity:1;fill-rule:nonzero;stroke:none;stroke-width:3;stroke-linecap:square;stroke-linejoin:round;marker:none;marker-start:none;marker-mid:none;marker-end:none;stroke-miterlimit:4;stroke-dasharray:none;stroke-dashoffset:0;stroke-opacity:1;visibility:visible;display:inline;overflow:visible;enable-background:accumulate"
       id="path14469"
       sodipodi:cx="-4.25"
       sodipodi:cy="62"
       sodipodi:rx="1"
       sodipodi:ry="1"
       d="M -3.25 62 A 1 1 0 1 1  -5.25,62 A 1 1 0 1 1  -3.25 62 z"
       transform="matrix(1.3699495,0,0,1.3699495,67.264463,-8.6795543)" />
    <path
       sodipodi:nodetypes="cc"
       id="path14478"
       d="M 58.702279,70.777519 C 58.702279,70.777519 63.868131,67.309834 69.661875,70.777519"
       style="opacity:1;color:#000000;fill:none;fill-opacity:1;fill-rule:nonzero;stroke:#c17d11;stroke-width:2.73989916;stroke-linecap:square;stroke-linejoin:round;marker:none;marker-start:none;marker-mid:none;marker-end:none;stroke-miterlimit:4;stroke-dasharray:none;stroke-dashoffset:0;stroke-opacity:1;visibility:visible;display:inline;overflow:visible;enable-background:accumulate" />
    <path
       style="opacity:1;color:#000000;fill:none;fill-opacity:1;fill-rule:nonzero;stroke:#c17d11;stroke-width:2.73989916;stroke-linecap:square;stroke-linejoin:round;marker:none;marker-start:none;marker-mid:none;marker-end:none;stroke-miterlimit:4;stroke-dasharray:none;stroke-dashoffset:0;stroke-opacity:1;visibility:visible;display:inline;overflow:visible;enable-background:accumulate"
       d="M 77.881569,70.777519 C 77.881569,70.777519 83.047422,67.309834 88.841168,70.777519"
       id="path15449"
       sodipodi:nodetypes="cc" />
    <path
       sodipodi:nodetypes="cc"
       id="path16439"
       d="M 68.262532,89.956812 C 51.778107,101.82913 91.177954,107.07641 81.937878,89.956812"
       style="opacity:1;color:#000000;fill:#e9b96e;fill-opacity:1;fill-rule:nonzero;stroke:#c17d11;stroke-width:2.73989892;stroke-linecap:square;stroke-linejoin:round;marker:none;marker-start:none;marker-mid:none;marker-end:none;stroke-miterlimit:4;stroke-dasharray:none;stroke-dashoffset:0;stroke-opacity:1;visibility:visible;display:inline;overflow:visible;enable-background:accumulate" />
    <path
       sodipodi:nodetypes="cc"
       inkscape:transform-center-y="-0.79544857"
       id="path16442"
       d="M 66.921981,111.87601 C 78.126771,111.6846 83.967576,108.21698 91.581073,103.65631"
       style="opacity:1;color:#000000;fill:none;fill-opacity:1;fill-rule:nonzero;stroke:#c17d11;stroke-width:2.73989892;stroke-linecap:square;stroke-linejoin:round;marker:none;marker-start:none;marker-mid:none;marker-end:none;stroke-miterlimit:4;stroke-dasharray:none;stroke-dashoffset:0;stroke-opacity:1;visibility:visible;display:inline;overflow:visible;enable-background:accumulate" />
    <path
       style="opacity:1;color:#000000;fill:none;fill-opacity:1;fill-rule:nonzero;stroke:#c17d11;stroke-width:2.73989844;stroke-linecap:square;stroke-linejoin:round;marker:none;marker-start:none;marker-mid:none;marker-end:none;stroke-miterlimit:4;stroke-dasharray:none;stroke-dashoffset:0;stroke-opacity:1;visibility:visible;display:inline;overflow:visible;enable-background:accumulate"
       d="M 77.881591,114.61591 C 81.616523,114.5521 83.563457,113.39619 86.101291,111.8759"
       id="path16448"
       inkscape:transform-center-y="-0.26515099"
       sodipodi:nodetypes="cc" />
    <path
       sodipodi:type="inkscape:offset"
       inkscape:radius="3.8517396"
       inkscape:original="M 200.78125 5.125 C 180.10557 5.125 160.39143 7.4361674 142.46875 12.84375 C 124.54609 18.251332 108.4028 26.763436 94.84375 39.15625 C 81.284698 51.549064 70.30358 67.825553 62.71875 88.78125 C 55.133921 109.73695 50.937498 135.37253 50.9375 166.46875 L 93 125.84375 L 125.84375 166.46875 L 160.25 123.5625 L 200.78125 166.46875 L 235.9375 119.71875 L 275.6875 166.46875 L 304.71875 116.65625 L 350.59375 166.46875 C 350.59375 135.37252 346.39731 109.73694 338.8125 88.78125 C 331.22767 67.825555 320.24657 51.549064 306.6875 39.15625 C 293.12845 26.763436 276.98516 18.251332 259.0625 12.84375 C 241.13983 7.4361674 221.45693 5.1250001 200.78125 5.125 z "
       style="fill:url(#linearGradient19434);fill-opacity:1;stroke:#edd400;stroke-width:9.08161831;stroke-linecap:round;stroke-linejoin:round;stroke-miterlimit:4;stroke-dasharray:none;stroke-opacity:1;display:inline"
       id="path6742"
       d="M 200.78125,1.28125 C 179.81853,1.28125 159.72367,3.6107113 141.34375,9.15625 C 122.96329,14.701957 106.28452,23.485115 92.25,36.3125 C 78.215695,49.13969 66.866261,65.99452 59.09375,87.46875 C 51.321522,108.94221 47.093748,135.026 47.09375,166.46875 C 47.088364,168.0178 48.011394,169.41939 49.436616,170.0263 C 50.861838,170.63322 52.511955,170.32737 53.625,169.25 L 92.65625,131.53125 L 122.84375,168.875 C 123.57499,169.78286 124.67802,170.31075 125.84375,170.31075 C 127.00948,170.31075 128.11251,169.78286 128.84375,168.875 L 160.46875,129.4375 L 197.96875,169.125 C 198.75038,169.95842 199.86166,170.40183 201.00233,170.33545 C 202.143,170.26906 203.19533,169.69972 203.875,168.78125 L 236.125,125.90625 L 272.75,168.96875 C 273.56084,169.91468 274.7791,170.41004 276.01998,170.29836 C 277.26085,170.18668 278.37109,169.48175 279,168.40625 L 305.40625,123.09375 L 347.75,169.0625 C 348.82284,170.22908 350.5007,170.6195 351.97835,170.0464 C 353.456,169.47329 354.43182,168.05363 354.4375,166.46875 C 354.4375,135.02599 350.20971,108.94219 342.4375,87.46875 C 334.66499,65.994523 323.31558,49.139692 309.28125,36.3125 C 295.24673,23.485115 278.56796,14.701957 260.1875,9.15625 C 241.80878,3.6110686 221.74397,1.2812501 200.78125,1.28125 z "
       transform="matrix(0.312017,0,0,0.2917187,11.129449,1.9062787)" />
    <path
       sodipodi:nodetypes="csscccccczczccssc"
       id="path7715"
       d="M 73.77631,5.0199411 C 67.609342,5.0199411 61.69769,5.6239847 56.290551,7.0619742 C 50.88325,8.5000047 45.976568,10.777527 41.847789,14.103739 C 37.719074,17.4299 34.380214,21.800453 32.093639,27.36884 C 29.072793,34.038527 28.10673,40.726889 28.738904,47.3209 L 40.3833,36.568323 C 43.320096,40.104151 47.17038,45.241799 50.360697,48.250877 L 61.060666,35.982593 C 64.750822,39.70277 69.991827,45.091845 73.884161,48.300094 C 79.863141,40.534116 83.604835,35.392755 83.975179,35.420642 C 84.297651,35.444923 89.715207,41.829951 96.852433,48.247663 C 102.39321,38.445633 106.90155,34.422072 107.24593,34.461981 C 107.63258,34.50679 112.80382,41.21674 119.4981,47.839843 C 118.55554,40.407505 117.81504,34.384437 115.4926,27.882571 C 113.20603,22.314184 109.82436,17.429903 105.69564,14.103739 C 101.56686,10.777527 96.660177,8.5000047 91.252877,7.0619742 C 85.846092,5.6240779 79.943278,5.0199411 73.77631,5.0199411 z "
       style="fill:none;fill-opacity:1;stroke:#fff69a;stroke-width:2.73989868;stroke-linecap:butt;stroke-linejoin:miter;stroke-miterlimit:4;stroke-opacity:1;display:inline" />
  </g>
</svg>
