/* XPM */
static char * subcommander_xpm[] = {
"32 32 33 1",
" 	c None",
".	c #1B0A72",
"+	c #1B0A71",
"@	c #1A0A6D",
"#	c #190968",
"$	c #170963",
"%	c #1A0A6F",
"&	c #19096A",
"*	c #180966",
"=	c #15085A",
"-	c #0D0535",
";	c #12074B",
">	c #1A0A6C",
",	c #1A0A6E",
"'	c #1B0A70",
")	c #110649",
"!	c #180968",
"~	c #16085C",
"{	c #0F0640",
"]	c #13074E",
"^	c #080322",
"/	c #1A0A70",
"(	c #19096B",
"_	c #150857",
":	c #190969",
"<	c #170860",
"[	c #140855",
"}	c #180964",
"|	c #130750",
"1	c #180963",
"2	c #1A096C",
"3	c #140856",
"4	c #0A042A",
"                                ",
"                                ",
"                                ",
"                                ",
"         ....         .....     ",
"     ........      ........     ",
"    .....+@#$    ......%&#*     ",
"    ..+         +...@           ",
"    ..         =..+             ",
"    ..+-       +.+              ",
"     ..+;      ..               ",
"      +..>     ..               ",
"       ,..'    ..)              ",
"        !..+   ..#              ",
"         ~...   ..{             ",
"          ]+..  ..%^            ",
"            /..  ..(            ",
"             '.'  ..(           ",
"              .._ (..@          ",
"              %.:  :../         ",
"              ..@   $..+        ",
"             ...<    [+..%      ",
"           .....       ,..+     ",
"        .......         }...    ",
"  ..........+            |+..+  ",
".........,1                #... ",
" ..'2}3                     |+( ",
"                              4 ",
"                                ",
"                                ",
"                                ",
"                                "};
