/* XPM */
static char * sixpack_xpm[] = {
"32 32 318 2",
"  	c None",
". 	c #FFFFFF",
"+ 	c #FFF5FF",
"@ 	c #F8FCFD",
"# 	c #FFF5E9",
"$ 	c #9D1C09",
"% 	c #FFF2E8",
"& 	c #EEFCFD",
"* 	c #FFF8FF",
"= 	c #FAF8F9",
"- 	c #A11B02",
"; 	c #A21F0D",
"> 	c #A2171A",
", 	c #AF8070",
"' 	c #9F8B73",
") 	c #8B1E17",
"! 	c #B40F09",
"~ 	c #AB1C0E",
"{ 	c #AA1705",
"] 	c #FBFAFF",
"^ 	c #C11008",
"/ 	c #AB1C0C",
"( 	c #C7D1C8",
"_ 	c #D7E0DD",
": 	c #DBDFDE",
"< 	c #DDDDDD",
"[ 	c #DCDEDD",
"} 	c #D7E1D8",
"| 	c #D5E5DA",
"1 	c #B81413",
"2 	c #A91002",
"3 	c #FEFCFD",
"4 	c #FFF5F3",
"5 	c #AE110A",
"6 	c #DDDBCE",
"7 	c #DDDCD8",
"8 	c #DEDCDD",
"9 	c #DDDCE1",
"0 	c #E0E9E4",
"a 	c #AF160E",
"b 	c #F9FBED",
"c 	c #B8180C",
"d 	c #D2DDD9",
"e 	c #DADFDB",
"f 	c #DDE4DD",
"g 	c #030079",
"h 	c #01006C",
"i 	c #DDDDDB",
"j 	c #E7D7E4",
"k 	c #A8180D",
"l 	c #A05B4C",
"m 	c #B3121A",
"n 	c #AF0C11",
"o 	c #DEDDD9",
"p 	c #DED9DF",
"q 	c #E0DDE4",
"r 	c #D8DDD6",
"s 	c #010048",
"t 	c #010066",
"u 	c #020167",
"v 	c #DEE0D3",
"w 	c #00016D",
"x 	c #010050",
"y 	c #E4E0DF",
"z 	c #E1DDDE",
"A 	c #DCDEDB",
"B 	c #81271E",
"C 	c #B5120B",
"D 	c #F5FFFC",
"E 	c #FDFEF9",
"F 	c #ECFFFF",
"G 	c #B11008",
"H 	c #DCDAE7",
"I 	c #02035D",
"J 	c #02006D",
"K 	c #D2D2D2",
"L 	c #DADDE4",
"M 	c #000166",
"N 	c #DDDED9",
"O 	c #DCDED0",
"P 	c #00006C",
"Q 	c #010372",
"R 	c #DEDDDB",
"S 	c #DADFD8",
"T 	c #9A0A13",
"U 	c #F3D6C6",
"V 	c #FDFFFA",
"W 	c #F9FFFD",
"X 	c #A81913",
"Y 	c #DADBDD",
"Z 	c #01035A",
"` 	c #DFDCD5",
" .	c #010068",
"..	c #02036D",
"+.	c #E5DFE3",
"@.	c #DDDFD2",
"#.	c #000065",
"$.	c #DDDDDF",
"%.	c #000064",
"&.	c #DCDED9",
"*.	c #DDDBE6",
"=.	c #06056B",
"-.	c #DEDFD1",
";.	c #B7190E",
">.	c #FEFBF2",
",.	c #9F290D",
"'.	c #DEDCDF",
").	c #100D42",
"!.	c #090858",
"~.	c #E3DEE5",
"{.	c #D1D4C9",
"].	c #00005E",
"^.	c #DAD9FF",
"/.	c #000364",
"(.	c #00005C",
"_.	c #D5D6DB",
":.	c #08086C",
"<.	c #010165",
"[.	c #000067",
"}.	c #A31803",
"|.	c #FDFFFE",
"1.	c #FBFFFE",
"2.	c #AF1709",
"3.	c #05036E",
"4.	c #000062",
"5.	c #000261",
"6.	c #000056",
"7.	c #04044E",
"8.	c #E0DAE6",
"9.	c #08026C",
"0.	c #000070",
"a.	c #020065",
"b.	c #B7B9B6",
"c.	c #DCDCDC",
"d.	c #A4150D",
"e.	c #FDFDFD",
"f.	c #FFFEFF",
"g.	c #9A151A",
"h.	c #D7DDDB",
"i.	c #00006F",
"j.	c #D8DBCA",
"k.	c #030268",
"l.	c #01017D",
"m.	c #DEDFD9",
"n.	c #D7E0E7",
"o.	c #B0180B",
"p.	c #F9FEF8",
"q.	c #A91A0C",
"r.	c #D9DBDA",
"s.	c #03016E",
"t.	c #CCD2C8",
"u.	c #DBD9E4",
"v.	c #D9DCE5",
"w.	c #E2E0E5",
"x.	c #030569",
"y.	c #DEDEDC",
"z.	c #AC1608",
"A.	c #FDFDFF",
"B.	c #F9FCFF",
"C.	c #AC150E",
"D.	c #E0DBDF",
"E.	c #02006B",
"F.	c #E5E0E4",
"G.	c #110E65",
"H.	c #E0DDD6",
"I.	c #0E105A",
"J.	c #000164",
"K.	c #DCD9E0",
"L.	c #BE0B0E",
"M.	c #FBFFFB",
"N.	c #FFFBF6",
"O.	c #A51811",
"P.	c #E0DCDD",
"Q.	c #14106F",
"R.	c #DBDBD9",
"S.	c #DDDFEB",
"T.	c #D6DBD7",
"U.	c #DF686E",
"V.	c #FBFFF1",
"W.	c #B0171C",
"X.	c #DBDBE7",
"Y.	c #CDCDC1",
"Z.	c #DDDEE2",
"`.	c #DED9E0",
" +	c #E7D5C9",
".+	c #9F1C21",
"++	c #FFF6ED",
"@+	c #AB191A",
"#+	c #E0DFDB",
"$+	c #E2DEDF",
"%+	c #D8D8D6",
"&+	c #040065",
"*+	c #01006F",
"=+	c #01006A",
"-+	c #E0E0E0",
";+	c #DDE2CE",
">+	c #E6E3DE",
",+	c #D3D9CF",
"'+	c #E8D5CE",
")+	c #A1221C",
"!+	c #F1FFFF",
"~+	c #BA1815",
"{+	c #00036C",
"]+	c #030069",
"^+	c #020266",
"/+	c #010163",
"(+	c #000269",
"_+	c #100968",
":+	c #DAD7EA",
"<+	c #DDDCE2",
"[+	c #D2535C",
"}+	c #9A1A0F",
"|+	c #E4E6E5",
"1+	c #000168",
"2+	c #000267",
"3+	c #0A0363",
"4+	c #B70F0C",
"5+	c #F6FFFE",
"6+	c #FEFEFE",
"7+	c #AD1508",
"8+	c #DADEDD",
"9+	c #00026D",
"0+	c #C2C3C5",
"a+	c #E0DDD4",
"b+	c #DDDFEE",
"c+	c #00016B",
"d+	c #DCDDE1",
"e+	c #DDE0CD",
"f+	c #AE150D",
"g+	c #FFFAFF",
"h+	c #A02021",
"i+	c #DADAD8",
"j+	c #DADBE0",
"k+	c #030365",
"l+	c #DEDED6",
"m+	c #D6DFE6",
"n+	c #B00E01",
"o+	c #FFFCFF",
"p+	c #A9150B",
"q+	c #DED9DD",
"r+	c #03006D",
"s+	c #020169",
"t+	c #AE0D12",
"u+	c #FAFAFC",
"v+	c #FEFEFC",
"w+	c #B61608",
"x+	c #DFDFD5",
"y+	c #DBDCDE",
"z+	c #DEDEDE",
"A+	c #A6180E",
"B+	c #FEFFFD",
"C+	c #FFFDF9",
"D+	c #A9140D",
"E+	c #030166",
"F+	c #DCDDD8",
"G+	c #DDDBDE",
"H+	c #E4D8DC",
"I+	c #AE130E",
"J+	c #F8F9FD",
"K+	c #F6FFFA",
"L+	c #B01206",
"M+	c #DFDDE8",
"N+	c #020070",
"O+	c #0C0960",
"P+	c #040464",
"Q+	c #B21619",
"R+	c #FFF4ED",
"S+	c #FCFEFD",
"T+	c #952C28",
"U+	c #C11511",
"V+	c #05046C",
"W+	c #AC121C",
"X+	c #CA2020",
"Y+	c #FDFEFF",
"Z+	c #FEFFFF",
"`+	c #F6FFFB",
" @	c #A8130F",
".@	c #DDE8EC",
"+@	c #D3E2DD",
"@@	c #DEE2EE",
"#@	c #00025F",
"$@	c #010075",
"%@	c #DAD9DE",
"&@	c #E2D7DF",
"*@	c #B40C03",
"=@	c #FFFCF7",
"-@	c #AB1507",
";@	c #CAE4DB",
">@	c #DEDDE3",
",@	c #E0DCD9",
"'@	c #D3E2DF",
")@	c #E0E4E3",
"!@	c #BC0F15",
"~@	c #FFFEF1",
"{@	c #FCFFFF",
"]@	c #AA1710",
"^@	c #AD1406",
"/@	c #DCDDDF",
"(@	c #E0D9E0",
"_@	c #BC1E1B",
":@	c #AB160F",
"<@	c #FEFFFA",
"[@	c #FEFFF9",
"}@	c #AA1D01",
"|@	c #B6110B",
"1@	c #AB1B10",
"2@	c #AB120D",
"3@	c #A91A1C",
"4@	c #AD131D",
"5@	c #A81A18",
"6@	c #AA160C",
"7@	c #A31B0D",
"8@	c #A81B00",
"9@	c #FFF9F0",
"0@	c #FFFFFB",
"a@	c #FDFCEA",
"b@	c #F7FFE8",
"c@	c #F5FFFA",
". . . . . . . . . . . . . . . . . . . . . . . . . . . . . . . . ",
". . . . . . . . . . . . + @ # $ $ % & * . . . . . . . . . . . . ",
". . . . . . . . . = $ $ - ; > , ' ) ! ~ { $ ] . . . . . . . . . ",
". . . . . . . . ^ / ( _ : < < < < < < [ } | 1 2 3 . . . . . . . ",
". . . . . . 4 5 6 7 8 < < < < < < < < < < < 9 0 a $ . . . . . . ",
". . . . . b c d e < < < < f < g h < i < < < < < j k l . . . . . ",
". . . . m n o o p q < < < r s t u < < < v w x y z A B C D . . . ",
". . E F G 8 H I J I K < < < L t M N < < < O t P Q R S T U V . . ",
". . W X A Y Z `  ...+.@.< < L t #.< < < < $.%.u &.*.=.-.;.>.. . ",
". . ,.'.< ).!.~.< {.].t < < ^.t /.N < < < < (.M _.:.<.[.d }.|.. ",
". 1.2.e < 3. .4.I 5.t t 6.< 7.t #.o 8.!.!.9.[.u 0.a.b.c.c.d.e.. ",
"f.g.h.< < < t t I < < t i.j.0.t <.5.<  .k.< l.u m.< < < < n.o.p.",
". q.$.< < N < < < < r.t s.< < t.u.v.w.< < < x.t y.< < < < < z.A.",
"B.C.D.< < < < %.t E.F.G.I < < < < < < < H.I.J.t K.< < < < < L.M.",
"N.O.P.< < < N u  .I Q.I < < < < < < < < R.S.[.t T.< < < < < U.$ ",
"V.W.< < < < < X.< Y.Z.< < < < < < < < < < < `.< t t < < < <  +.+",
"++@+#+$.$+%+&+*+=+-+$.< < < < < < < < < < < ;+< t t >+< ,+< '+)+",
"!+~+{+]+^+/+/+(+h _+i < < < < < < < < t t t :+t t < < < <+< [+$ ",
"f.}+|+1+/.t E.< 2+3+<  . . .< < < < < [ t t t t t < < < < < 4+5+",
"6+7+8+9+0+N <.a+b+c+d+<  . .< < < < < < < t t t < < e+t t < f+g+",
". h+8+i+< j+t k+t t < l+<  . .< <  . . . .< t t t t t t t m+n+o+",
". f.p+q+< < r+t t t s+ . . . .<  . . . . .< t t t t t t < t+u+. ",
". v+w+x+< < < y+< ]+t < <  . .<  . .< < < < < t t < < < z+A+B+. ",
". . C+D+< < < < c.E+t F+G+ .t <  . .< < < < < < t t < H+I+J+. . ",
". . 6+K+L+< < < M+ .N+O+< P+t <  . .< < <  .t < t t < Q+R+. . . ",
". . . S+T+U+< < '.V+t t t t t K.<  . . . . .t < < < W+X+Y+. . . ",
". . . . Z+`+ @.@+@< 9 9 @@r+#@$@9  . . . .%@< < &@*@$ 1.. . . . ",
". . . . . 6+=@-@$ ;@d+< 9 $.i >@< < < N ,@< '@)@!@~@{@. . . . . ",
". . . . . . . . $ ]@^@< A /@< < < < [ ,@(@_@:@$ <@f.. . . . . . ",
". . . . . . . . . . [@}@|@1@2@3@4@5@6@7@8@9@0@. . . . . . . . . ",
". . . . . . . . . . . . . . . a@b@>.c@. 6+. . . . . . . . . . . ",
". . . . . . . . . . . . . . . . . . . . . . . . . . . . . . . . "};
