/* XPM */
static char * slune_32_xpm[] = {
"32 32 461 2",
"  	c None",
". 	c #1C1B19",
"+ 	c #212020",
"@ 	c #242321",
"# 	c #1A1917",
"$ 	c #191816",
"% 	c #171515",
"& 	c #151314",
"* 	c #191718",
"= 	c #727271",
"- 	c #767675",
"; 	c #1F1F1E",
"> 	c #1A1919",
", 	c #181818",
"' 	c #171717",
") 	c #171617",
"! 	c #161416",
"~ 	c #7E7E7E",
"{ 	c #5F5F5F",
"] 	c #3E3E3E",
"^ 	c #191919",
"/ 	c #151515",
"( 	c #18161A",
"_ 	c #717171",
": 	c #0D0D0D",
"< 	c #505050",
"[ 	c #1B1B1B",
"} 	c #121212",
"| 	c #121213",
"1 	c #121015",
"2 	c #12110E",
"3 	c #6F6F6F",
"4 	c #322F33",
"5 	c #444441",
"6 	c #1D1D1F",
"7 	c #151214",
"8 	c #131313",
"9 	c #100F12",
"0 	c #100F0E",
"a 	c #765421",
"b 	c #846440",
"c 	c #8B6845",
"d 	c #5F3818",
"e 	c #553415",
"f 	c #1F1B13",
"g 	c #111012",
"h 	c #100F0F",
"i 	c #C28D4D",
"j 	c #DB8E32",
"k 	c #D77E1A",
"l 	c #CE6F14",
"m 	c #C96D13",
"n 	c #C36611",
"o 	c #924E16",
"p 	c #1F1A17",
"q 	c #0F0F10",
"r 	c #B67227",
"s 	c #CB7309",
"t 	c #D77803",
"u 	c #E07F05",
"v 	c #E98B03",
"w 	c #F08D05",
"x 	c #B67010",
"y 	c #372715",
"z 	c #19191B",
"A 	c #111111",
"B 	c #0D0C0E",
"C 	c #0D0B09",
"D 	c #CE8B23",
"E 	c #F49906",
"F 	c #FB9908",
"G 	c #FC9B08",
"H 	c #F09915",
"I 	c #503415",
"J 	c #181718",
"K 	c #191A1A",
"L 	c #161616",
"M 	c #141414",
"N 	c #0D0D0E",
"O 	c #0C0B0B",
"P 	c #0A0A07",
"Q 	c #D4952C",
"R 	c #EDA018",
"S 	c #ECA01F",
"T 	c #7D541B",
"U 	c #171417",
"V 	c #191817",
"W 	c #1A1A19",
"X 	c #0F0F0F",
"Y 	c #0B0B09",
"Z 	c #080804",
"` 	c #9C7A46",
" .	c #342A22",
"..	c #141511",
"+.	c #1C191C",
"@.	c #1B1C1D",
"#.	c #101010",
"$.	c #0E0E0D",
"%.	c #0A0908",
"&.	c #8C8F89",
"*.	c #232420",
"=.	c #17141B",
"-.	c #0E0E0E",
";.	c #0C0D0D",
">.	c #0A0A0B",
",.	c #0A0A06",
"'.	c #474641",
").	c #C1C0BA",
"!.	c #333331",
"~.	c #0A0B0B",
"{.	c #0A0B0C",
"].	c #0B0B06",
"^.	c #96968E",
"/.	c #E9E9E0",
"(.	c #62625F",
"_.	c #1A1A1A",
":.	c #0C0E0E",
"<.	c #0C0C0E",
"[.	c #090904",
"}.	c #C6C6BB",
"|.	c #F5F5E7",
"1.	c #BCBCB5",
"2.	c #292A2A",
"3.	c #1B181B",
"4.	c #191819",
"5.	c #0E0F0F",
"6.	c #0B0C0D",
"7.	c #DEEAE8",
"8.	c #E5F0E8",
"9.	c #D8E1DD",
"0.	c #9B9F9D",
"a.	c #2F2F2C",
"b.	c #161615",
"c.	c #0E0F0D",
"d.	c #0B0B0D",
"e.	c #080907",
"f.	c #64B2D4",
"g.	c #87CEE5",
"h.	c #85CCE1",
"i.	c #71BFD9",
"j.	c #62B3D1",
"k.	c #67B5D2",
"l.	c #7EC4DC",
"m.	c #82C9DE",
"n.	c #82C7DB",
"o.	c #B1CACF",
"p.	c #7A7D7C",
"q.	c #131314",
"r.	c #090906",
"s.	c #479AC4",
"t.	c #47B1DD",
"u.	c #71C7EA",
"v.	c #7CCEEB",
"w.	c #6EC6E5",
"x.	c #5CBCE1",
"y.	c #53B5DC",
"z.	c #52B4DC",
"A.	c #52B5E0",
"B.	c #5BB6DB",
"C.	c #A0B2B9",
"D.	c #6B6B68",
"E.	c #131514",
"F.	c #0D0E0D",
"G.	c #0C0C0D",
"H.	c #090A07",
"I.	c #5389A3",
"J.	c #46ABDB",
"K.	c #49B2DC",
"L.	c #63BDE1",
"M.	c #76CAE8",
"N.	c #74C7E4",
"O.	c #64BDE0",
"P.	c #58B7DB",
"Q.	c #56B4DB",
"R.	c #54B3DC",
"S.	c #65B3D7",
"T.	c #B8BABD",
"U.	c #7E8078",
"V.	c #141514",
"W.	c #0B0B0C",
"X.	c #090908",
"Y.	c #60B6E1",
"Z.	c #44ADDE",
"`.	c #51B6E3",
" +	c #67C2E4",
".+	c #70C6E4",
"++	c #68C2E3",
"@+	c #5FBCDE",
"#+	c #5CBADD",
"$+	c #5BB7DD",
"%+	c #82C1D9",
"&+	c #C9C8C6",
"*+	c #B7B9B4",
"=+	c #3F3F3E",
"-+	c #0C0C0C",
";+	c #0B0B0B",
">+	c #090909",
",+	c #5FBDE5",
"'+	c #42ADDC",
")+	c #52B4E4",
"!+	c #51B2DE",
"~+	c #5CBBE2",
"{+	c #69C1E1",
"]+	c #6AC3E4",
"^+	c #64C0E1",
"/+	c #62BEE0",
"(+	c #63BBDD",
"_+	c #98C8D5",
":+	c #C4C2BB",
"<+	c #B1B4AF",
"[+	c #6E6C6C",
"}+	c #0A0A0A",
"|+	c #080808",
"1+	c #0B0A06",
"2+	c #79C5E6",
"3+	c #5BBCE4",
"4+	c #41AADA",
"5+	c #4AAEDF",
"6+	c #4FB1E0",
"7+	c #52B4DE",
"8+	c #5CBAE0",
"9+	c #61BCE1",
"0+	c #67C0E2",
"a+	c #67C4E3",
"b+	c #72C1DF",
"c+	c #ADC9CC",
"d+	c #BBBCB5",
"e+	c #ACADAA",
"f+	c #82837F",
"g+	c #252523",
"h+	c #070707",
"i+	c #090907",
"j+	c #6FC7EB",
"k+	c #52B9E3",
"l+	c #3EA7D9",
"m+	c #42A9DB",
"n+	c #49ADDD",
"o+	c #4BAFDB",
"p+	c #52B3DE",
"q+	c #58B7E0",
"r+	c #5FBBDF",
"s+	c #63C2E3",
"t+	c #B3C4C2",
"u+	c #B5B6B0",
"v+	c #A8A8A5",
"w+	c #878883",
"x+	c #2C2D2A",
"y+	c #0F0F0E",
"z+	c #7DC5E0",
"A+	c #65C4EB",
"B+	c #4CB3E4",
"C+	c #3BA7DB",
"D+	c #3DA6DA",
"E+	c #41A9DA",
"F+	c #45ACDA",
"G+	c #4AAEDA",
"H+	c #4FB0DB",
"I+	c #53B4DC",
"J+	c #5ABBE2",
"K+	c #8AC0CF",
"L+	c #B9C0BB",
"M+	c #ADAEA9",
"N+	c #9F9F9C",
"O+	c #858681",
"P+	c #30302D",
"Q+	c #080806",
"R+	c #76C8EC",
"S+	c #62BFEA",
"T+	c #4DAFE4",
"U+	c #3CA6DE",
"V+	c #42A9E1",
"W+	c #46ACDF",
"X+	c #47ACDC",
"Y+	c #4BAEDC",
"Z+	c #4EAFDB",
"`+	c #50B2D8",
" @	c #53B6DC",
".@	c #94BFC8",
"+@	c #B8BBB4",
"@@	c #A7A7A3",
"#@	c #989895",
"$@	c #7D7F7A",
"%@	c #2B2D2A",
"&@	c #0C0D0E",
"*@	c #0C090B",
"=@	c #0B080B",
"-@	c #080809",
";@	c #070708",
">@	c #080709",
",@	c #070906",
"'@	c #5FBAE3",
")@	c #6FCBEF",
"!@	c #5EBFE7",
"~@	c #4BB3DF",
"{@	c #38A7DB",
"]@	c #3DAADE",
"^@	c #4AB5E1",
"/@	c #4EB7E0",
"(@	c #50B5DD",
"_@	c #52B5DC",
":@	c #50B4DF",
"<@	c #51B4D9",
"[@	c #A3BBC5",
"}@	c #B1B2A8",
"|@	c #9E9E96",
"1@	c #92928C",
"2@	c #71716C",
"3@	c #23221F",
"4@	c #070A09",
"5@	c #050808",
"6@	c #060706",
"7@	c #080705",
"8@	c #090806",
"9@	c #070905",
"0@	c #5ABEE7",
"a@	c #75CAEC",
"b@	c #63BFE7",
"c@	c #51B2DF",
"d@	c #3BA7DA",
"e@	c #3EA8DC",
"f@	c #4CB4DE",
"g@	c #5ABBE3",
"h@	c #5EBCE2",
"i@	c #5EBADE",
"j@	c #57B9E0",
"k@	c #5DB4D3",
"l@	c #ACB7B6",
"m@	c #ABABA1",
"n@	c #989893",
"o@	c #8A8B89",
"p@	c #5B5D57",
"q@	c #151612",
"r@	c #0A0B09",
"s@	c #050A07",
"t@	c #060705",
"u@	c #080607",
"v@	c #080708",
"w@	c #070909",
"x@	c #060909",
"y@	c #895C77",
"z@	c #8780A2",
"A@	c #9099B4",
"B@	c #8295B4",
"C@	c #748DB0",
"D@	c #6382AC",
"E@	c #627FA9",
"F@	c #6D88A9",
"G@	c #778FAC",
"H@	c #8397B2",
"I@	c #8698B2",
"J@	c #8A95AB",
"K@	c #8B8EA2",
"L@	c #AF8182",
"M@	c #AA8079",
"N@	c #A47469",
"O@	c #9D675A",
"P@	c #762B27",
"Q@	c #5B0C0C",
"R@	c #56090A",
"S@	c #52070B",
"T@	c #520708",
"U@	c #600506",
"V@	c #800C0B",
"W@	c #85100C",
"X@	c #861410",
"Y@	c #891211",
"Z@	c #A61B16",
"`@	c #CE221C",
" #	c #C61418",
".#	c #C7120C",
"+#	c #D00E09",
"@#	c #D50C09",
"##	c #D5120F",
"$#	c #D5201E",
"%#	c #D22020",
"&#	c #CC1D1D",
"*#	c #C5181D",
"=#	c #C3171B",
"-#	c #C71A1C",
";#	c #CD201E",
">#	c #D62825",
",#	c #D42522",
"'#	c #C91F1E",
")#	c #C41A1A",
"!#	c #CD1814",
"~#	c #D21D1A",
"{#	c #D6211C",
"]#	c #D21E17",
"^#	c #D4100A",
"/#	c #D20A05",
"(#	c #D00904",
"_#	c #D00903",
":#	c #D50C06",
"<#	c #DD0F09",
"[#	c #E2150F",
"}#	c #E00E0A",
"|#	c #DA0908",
"1#	c #D10805",
"2#	c #CC0804",
"3#	c #D80C05",
"4#	c #E30905",
"5#	c #E10C07",
"6#	c #DF0D07",
"7#	c #D80B04",
"8#	c #D40802",
"9#	c #D30602",
"0#	c #D60703",
"a#	c #DA0C05",
"b#	c #DF110A",
"c#	c #E2150E",
"d#	c #DE130D",
"e#	c #D30C07",
"f#	c #D00A05",
"g#	c #D20B05",
"h#	c #D40C06",
"i#	c #D40D07",
"j#	c #CF0B08",
"k#	c #C80605",
"l#	c #C70604",
"m#	c #CA0702",
"n#	c #CE0803",
"o#	c #D70E09",
"p#	c #D6140A",
"q#	c #D9150B",
"r#	c #D81007",
"s#	c #D20B07",
"t#	c #CD0805",
"u#	c #C80603",
"v#	c #C00602",
"w#	c #BD0602",
"x#	c #E10A08",
"y#	c #DA0A08",
"z#	c #D40803",
"A#	c #D10501",
"B#	c #D20601",
"C#	c #D70502",
"D#	c #D70905",
"E#	c #D90F0A",
"F#	c #DD1810",
"G#	c #D9150C",
"H#	c #D30F07",
"I#	c #D4100D",
"J#	c #D11410",
"K#	c #CB110C",
"L#	c #C70B08",
"M#	c #C40704",
"N#	c #C20502",
"O#	c #C10502",
"P#	c #C40503",
"Q#	c #C80705",
"R#	c #CF0B07",
"S#	c #D3130C",
"T#	c #D2180F",
"U#	c #D1110B",
"V#	c #CD0A07",
"W#	c #C80803",
"X#	c #C00504",
"Y#	c #BD0404",
"Z#	c #B90604",
"`#	c #BA0604",
" $	c #BB0404",
"                                      . +                       ",
"                                  @ # $ % & *                   ",
"                                = - ; > , ' ) !                 ",
"                                ~ { ] ^ , / , (                 ",
"                                _ : < [ / } | 1 2               ",
"                                3 4 5 6 7 8 } 9 0               ",
"                              a b c d e f / 8 g h               ",
"                          i j k l m n o p ' 8 q :               ",
"                        r s t u v w x y z ' A : B C             ",
"                          D E F G H I J K L M A N O P           ",
"                            Q R S T U V W ' L L 8 X Y Z         ",
"                                `  ...+.@.[ ^ , } #.$.%.        ",
"                                &.*.=.$ K ^ ^ ' X -.;.>.,.      ",
"                              '.).!.^ ^ ^ , L 8 X : ~.{.].      ",
"                              ^./.(._.^ , , / } A X :.<.[.      ",
"                              }.|.1.2.3.4.' ' / M } 5.6.,.      ",
"                              7.8.9.0.a.b.' , / 8 } c.d.e.      ",
"                  f.g.h.i.j.k.l.m.n.o.p.q./ L M A A c.d.r.      ",
"                s.t.u.v.w.x.y.z.A.B.C.D.E./ 8 8 A X F.G.H.      ",
"              I.J.K.L.M.N.O.P.Q.R.S.T.U.V.8 8 } A -.: W.X.      ",
"              Y.Z.`.R. +.+++@+#+$+%+&+*+=+8 A #.X -.-+;+>+C     ",
"              ,+'+)+!+~+{+]+^+/+(+_+:+<+[+' #.#.-.: ;+}+|+1+    ",
"            2+3+4+5+6+7+8+9+0+a+b+c+d+e+f+g+X X -.: }+|+h+i+    ",
"            j+k+l+m+n+o+p+q+r+s+l.t+u+v+w+x+y+-.-.: }+|+h+H.    ",
"          z+A+B+C+D+E+F+G+H+I+J+K+L+M+N+O+P+-.: -+;+>+|+h+Q+    ",
"          R+S+T+U+V+W+X+Y+Z+`+ @.@+@@@#@$@%@&@G.*@=@-@;@>@,@    ",
"        '@)@!@~@{@]@^@/@(@_@:@<@[@}@|@1@2@3@-+~.4@5@6@7@8@9@    ",
"        0@a@b@c@d@e@f@g@h@i@j@k@l@m@n@o@p@q@r@>+s@t@u@v@w@x@    ",
"      y@z@A@B@C@D@E@F@G@H@I@J@K@L@M@N@O@P@Q@R@S@T@U@V@W@X@Y@Z@`@",
" #.#+#@###$#%#&#*#=#-#;#>#,#'#)#!#~#{#]#^#/#(#_#:#<#[#[#}#|#1#2#",
"3#4#5#6#7#8#9#0#a#b#c#d#e#f#g#h#i#j#k#l#m#n#o#p#q#r#s#t#u#v#w#w#",
"x#y#z#A#B#C#D#E#F#G#H#I#J#K#L#M#N#O#P#Q#R#S#T#U#V#W#X#Y#Z#`# $ $"};
