/* XPM */
static char * gcolor2_xpm[] = {
"32 32 312 2",
"  	c None",
". 	c #443C3F",
"+ 	c #262532",
"@ 	c #272A3F",
"# 	c #292C40",
"$ 	c #9E9BA7",
"% 	c #686A71",
"& 	c #32343A",
"* 	c #101320",
"= 	c #1F3972",
"- 	c #2850A9",
"; 	c #2F5AB2",
"> 	c #2A303C",
", 	c #3F393F",
"' 	c #757A78",
") 	c #1B2025",
"! 	c #080F20",
"~ 	c #0F2048",
"{ 	c #2A54AD",
"] 	c #4285EE",
"^ 	c #4788FC",
"/ 	c #4281F4",
"( 	c #4481EF",
"_ 	c #20468C",
": 	c #1B2335",
"< 	c #4D4E59",
"[ 	c #474A4A",
"} 	c #18181B",
"| 	c #121C37",
"1 	c #254795",
"2 	c #386BCD",
"3 	c #4380EF",
"4 	c #488AFB",
"5 	c #498BFE",
"6 	c #478AFC",
"7 	c #4889FC",
"8 	c #4181E9",
"9 	c #254B91",
"0 	c #21293C",
"a 	c #6B616B",
"b 	c #2C3535",
"c 	c #0D1524",
"d 	c #0E1943",
"e 	c #3569CC",
"f 	c #4687FA",
"g 	c #4180F3",
"h 	c #0E224C",
"i 	c #091228",
"j 	c #555656",
"k 	c #14172C",
"l 	c #213E84",
"m 	c #386ECB",
"n 	c #4585F4",
"o 	c #488AFD",
"p 	c #4689FB",
"q 	c #3971D4",
"r 	c #2D59AF",
"s 	c #2F3036",
"t 	c #6D6265",
"u 	c #4E5252",
"v 	c #0F1318",
"w 	c #213D80",
"x 	c #3D78E2",
"y 	c #3E78E4",
"z 	c #1A3A77",
"A 	c #292E3B",
"B 	c #75767C",
"C 	c #27393D",
"D 	c #1C191A",
"E 	c #1B2344",
"F 	c #3567C6",
"G 	c #417FEE",
"H 	c #4187F6",
"I 	c #407AEB",
"J 	c #3D77E1",
"K 	c #294080",
"L 	c #2A2F3C",
"M 	c #243D36",
"N 	c #71292B",
"O 	c #982924",
"P 	c #3F121F",
"Q 	c #2E4993",
"R 	c #3E7BE3",
"S 	c #4888FA",
"T 	c #4584F7",
"U 	c #3F79E5",
"V 	c #3761AB",
"W 	c #29495C",
"X 	c #399831",
"Y 	c #2E382C",
"Z 	c #2E4944",
"` 	c #6A272B",
" .	c #CA3C3D",
"..	c #9B2D2E",
"+.	c #2F1826",
"@.	c #284A92",
"#.	c #427DE8",
"$.	c #3D69D4",
"%.	c #212D7B",
"&.	c #215E31",
"*.	c #31B439",
"=.	c #3CCA3A",
"-.	c #3C3942",
";.	c #294A42",
">.	c #632829",
",.	c #D54143",
"'.	c #FC534F",
").	c #D0403E",
"!.	c #431317",
"~.	c #20152F",
"{.	c #345DB2",
"].	c #3D78E6",
"^.	c #478BFC",
"/.	c #498CFE",
"(.	c #498DFE",
"_.	c #4583F3",
":.	c #3F78E2",
"<.	c #3460B3",
"[.	c #223C5A",
"}.	c #163F15",
"|.	c #2DAE27",
"1.	c #41FD3C",
"2.	c #42FE40",
"3.	c #42D842",
"4.	c #423948",
"5.	c #28473C",
"6.	c #FA4F4C",
"7.	c #F34F4C",
"8.	c #9C3230",
"9.	c #460F19",
"0.	c #1E1C3A",
"a.	c #2857B3",
"b.	c #438AF8",
"c.	c #498EFE",
"d.	c #4A90FF",
"e.	c #3463C0",
"f.	c #192E6C",
"g.	c #15242B",
"h.	c #27792B",
"i.	c #36D337",
"j.	c #3DEE3C",
"k.	c #42FE41",
"l.	c #5C2627",
"m.	c #CD3B3C",
"n.	c #F74A4A",
"o.	c #F24949",
"p.	c #F85351",
"q.	c #B93C41",
"r.	c #922A2B",
"s.	c #751912",
"t.	c #2E305E",
"u.	c #3462BA",
"v.	c #3F79EB",
"w.	c #4381F4",
"x.	c #305AAE",
"y.	c #1A2C5A",
"z.	c #0D2F14",
"A.	c #246E20",
"B.	c #3FEE3D",
"C.	c #3CEE3C",
"D.	c #532123",
"E.	c #CD3F3F",
"F.	c #F94D4B",
"G.	c #F74C4B",
"H.	c #EE4E4E",
"I.	c #A43034",
"J.	c #8B262B",
"K.	c #952D2E",
"L.	c #341F36",
"M.	c #3265C7",
"N.	c #3971DD",
"O.	c #132141",
"P.	c #051616",
"Q.	c #2AAC2C",
"R.	c #3ADD39",
"S.	c #41FC40",
"T.	c #233834",
"U.	c #522123",
"V.	c #C7373A",
"W.	c #F34949",
"X.	c #CF3F3F",
"Y.	c #942D2E",
"Z.	c #C83C3D",
"`.	c #321115",
" +	c #142634",
".+	c #27962D",
"++	c #3BE73A",
"@+	c #F64A4A",
"#+	c #EF4948",
"$+	c #DB4142",
"%+	c #A22B30",
"&+	c #3E1319",
"*+	c #235C28",
"=+	c #3CDB3A",
"-+	c #41FA40",
";+	c #213028",
">+	c #3F1215",
",+	c #C13638",
"'+	c #FC5150",
")+	c #4E2521",
"!+	c #226B22",
"~+	c #41EC3D",
"{+	c #1A2B23",
"]+	c #C43B3C",
"^+	c #4C241F",
"/+	c #274639",
"(+	c #411A1D",
"_+	c #C53C3D",
":+	c #FA4F4B",
"<+	c #FB504E",
"[+	c #3D1F1D",
"}+	c #1D6922",
"|+	c #3F191D",
"1+	c #C33A3D",
"2+	c #F84C4A",
"3+	c #401E1A",
"4+	c #3E1A1B",
"5+	c #C33B3D",
"6+	c #341915",
"7+	c #1B6821",
"8+	c #3CEC3C",
"9+	c #2E4934",
"0+	c #361916",
"a+	c #BE3A3B",
"b+	c #7D8375",
"c+	c #603030",
"d+	c #AF3335",
"e+	c #F34E4C",
"f+	c #F94E4B",
"g+	c #F84C4B",
"h+	c #F74B4A",
"i+	c #321912",
"j+	c #19681E",
"k+	c #3CE33B",
"l+	c #38D737",
"m+	c #19141F",
"n+	c #3C1643",
"o+	c #544E50",
"p+	c #3D0D12",
"q+	c #C9393A",
"r+	c #FB514F",
"s+	c #FD5451",
"t+	c #F94D4C",
"u+	c #247C26",
"v+	c #103B11",
"w+	c #352836",
"x+	c #576467",
"y+	c #232525",
"z+	c #8D2F2F",
"A+	c #E94848",
"B+	c #FC5352",
"C+	c #371A14",
"D+	c #1A691F",
"E+	c #41FB40",
"F+	c #2AAD29",
"G+	c #113210",
"H+	c #2F2E2F",
"I+	c #7D8487",
"J+	c #372628",
"K+	c #A73131",
"L+	c #F24E4D",
"M+	c #451F18",
"N+	c #206B21",
"O+	c #3EF03D",
"P+	c #28A728",
"Q+	c #0F2E0E",
"R+	c #282526",
"S+	c #4C484A",
"T+	c #632325",
"U+	c #CD4240",
"V+	c #F44D4B",
"W+	c #FB514C",
"X+	c #EC4A47",
"Y+	c #2E1511",
"Z+	c #3BE93B",
"`+	c #41FD41",
" @	c #3BE83A",
".@	c #32CE31",
"+@	c #152516",
"@@	c #232324",
"#@	c #261617",
"$@	c #701E22",
"%@	c #DB4645",
"&@	c #DA4642",
"*@	c #27160E",
"=@	c #38E238",
"-@	c #40FB40",
";@	c #259420",
">@	c #0E400E",
",@	c #594B5A",
"'@	c #7E777F",
")@	c #5E6E70",
"!@	c #332632",
"~@	c #AF3E42",
"{@	c #B0363A",
"]@	c #21130C",
"^@	c #2FB730",
"/@	c #1C411D",
"(@	c #433F43",
"_@	c #6F827A",
":@	c #3C2825",
"<@	c #621D1E",
"[@	c #18160A",
"}@	c #196A1E",
"|@	c #173D18",
"1@	c #504D55",
"2@	c #ADB9AD",
"3@	c #3C403B",
"4@	c #130D20",
"5@	c #3C2F49",
"6@	c #43394A",
"7@	c #645A6B",
"                            . + @ # $                           ",
"                        % & * = - ; > ,                         ",
"                    ' ) ! ~ { ] ^ / ( _ : <                     ",
"                  [ } | 1 2 3 4 5 6 7 8 9 0 a                   ",
"              b c d e f 5 5 5 5 5 5 5 5 g f h i                 ",
"            j k l m n o 5 5 5 5 5 5 5 5 p o q r s t             ",
"        u v w x g f 5 5 5 5 5 5 5 5 5 5 5 5 5 5 y z A B         ",
"      C D E F G H o 5 5 5 5 5 5 5 5 5 5 5 5 5 5 I J K L         ",
"      M N O P Q R S 5 5 5 5 5 5 5 5 5 5 5 5 T U V W X Y         ",
"      Z `  ...+.@.#.5 5 5 5 5 5 5 5 5 5 5 5 $.%.&.*.=.-.        ",
"      ;.>.,.'.).!.~.{.].^./.5 5 5 (._.:.<.[.}.|.1.2.3.4.        ",
"      5.>.,.6.7.8.9.0.a.b.c.5 5 5 d.e.f.g.h.i.j.2.k.3.4.        ",
"      5.l.m.n.o.p.q.r.s.t.u.v.w.x.y.z.A.B.C.k.k.k.k.3.4.        ",
"      ;.D.E.F.n.G.H.I.J.K.L.M.N.O.P.Q.R.S.S.k.k.k.k.3.4.        ",
"      T.U.V.n.n.n.n.W.X.Y.Z.`. +.+++k.k.k.k.k.k.k.k.3.4.        ",
"      T.U.V.n.n.n.n.@+#+$+%+&+*+=+-+k.k.k.k.k.k.k.k.3.4.        ",
"      ;+>+,+n.n.n.n.n.n.n.'+)+!+~+k.k.k.k.k.k.k.k.k.3.4.        ",
"      {+>+]+F.n.n.n.n.n.n.'+^+!+~+k.k.k.k.k.k.k.k.k.3.4.        ",
"      /+(+_+:+<+F.n.n.n.n.'+[+}+~+k.k.k.k.k.k.k.k.k.3.4.        ",
"      /+|+1+:+2+n.n.n.n.n.'+3+}+~+k.k.k.k.k.k.k.k.k.3.4.        ",
"      /+4+5+:+n.n.n.n.n.n.'+6+7+8+k.k.k.k.k.k.k.k.k.3.4.        ",
"      9+0+a+:+n.n.n.n.n.n.'+6+7+8+k.k.k.k.k.k.k.k.k.3.4.        ",
"      b+c+d+e+f+g+h+n.n.n.'+i+j+8+k.k.k.k.k.k.k.k+l+m+n+        ",
"        o+p+q+r+s+t+n.n.n.'+i+j+8+k.k.k.k.k.k.k.u+v+w+          ",
"          x+y+z+A+B+n.n.n.<+C+D+8+k.k.k.E+8+F+G+H+              ",
"            I+J+K+L+n.n.n.:+M+N+8+k.k.k.O+P+Q+R+                ",
"                S+T+U+V+W+X+Y+j+Z+`+ @.@+@@@                    ",
"                  #@$@%@r+&@*@j+=@-@;@>@,@'@                    ",
"                    )@!@~@{@]@j+^@/@(@                          ",
"                      _@:@<@[@}@|@1@                            ",
"                        2@3@4@5@                                ",
"                            6@7@                                "};
