/* XPM */
static char *gnubik_xpm[] = {
/* columns rows colors chars-per-pixel */
"32 32 11 1",
"  c None",
". c #00007f",
"X c #7f0000",
"o c #7f007f",
"O c #7f7f00",
"+ c blue",
"@ c green",
"# c cyan",
"$ c red",
"% c magenta",
"& c yellow",
/* pixels */
"                                ",
"                                ",
"                                ",
"                                ",
"      @@@@@ $$$$$&&             ",
"       %%%%%%$$$$$$ #####       ",
"        ++++++ ++++++&&&&&&     ",
"       %$                  &&&  ",
"     @ %$$$$$$$ @@@@@@@+++++.+  ",
"     @%%$$$$$$$ @@@@@@@+++++++  ",
"     @%%$X$$$$$ @@@@@@@+++++++  ",
"    #@%%$$$$$$$ @@@@@@ +++++++  ",
"    #+% $$$X$$$ @@@@@@ ++++++   ",
"    #+  $$$$$$$ @@@@@@ ++++++   ",
"    #++ $$$$$$$ @@@@@@ ++++++   ",
"    #++ &&&&&&& %%%%%% @@@@@@   ",
"     ++ &&&&&&&%%%%%%% @@@@@@   ",
"    $++ O&&&&&&%%%%%%% @@@@@@   ",
"    $++ &&&&&& %o%%%%% @@@@@@   ",
"    $$+ &&&&&& %%%%%%%@@@@@@@   ",
"    $$+ &&&&&& %%%%%%%@@@@@@    ",
"    $$@ &&&&&& %%%%%% @@@@@@    ",
"    $$@                 ####    ",
"     $@%%%%%%% @@@@@@ ######    ",
"     $@%%%%%%% @@@@@@ ######    ",
"     $@%%%%o%% @@@@@@ ######    ",
"      @%%%%%%% @@@@@@ ######    ",
"      @%%%%%%% @@@@@@ ######    ",
"       %%%%%%% @@@@@@ ##        ",
"                                ",
"                                ",
"                                "
};
