/* XPM */
static char * panex_m_xpm[] = {
"32 32 6 1",
" 	c None",
".	c #000000",
"+	c #8F8F8F",
"@	c #FF55FF",
"#	c #FF7C00",
"$	c #FF7D00",
"                                ",
"                                ",
"    ........................    ",
"    ..         ..         ..    ",
"++++++++++     ..     ++++++++++",
"++++++++++     ..     ++++++++++",
"++++@@++++     ..     ++++#$++++",
"++++++++++     ..     ++++++++++",
"++++@@++++     ..     ++++$#++++",
"++++@@++++     ..     ++++#$++++",
"++++++++++     ..     ++++++++++",
"++++@@++++     ..     ++++#$++++",
"+++@@@@+++     ..     +++#$#$+++",
"++++++++++     ..     ++++++++++",
"+++@@@@+++     ..     +++$#$#+++",
"+++@@@@+++     ..     +++#$#$+++",
"++++++++++     ..     ++++++++++",
"+++@@@@+++     ..     +++#$#$+++",
"++@@@@@@++     ..     ++#$#$#$++",
"++++++++++     ..     ++++++++++",
"++@@@@@@++     ..     ++$#$#$#++",
"++@@@@@@++     ..     ++#$#$#$++",
"++++++++++     ..     ++++++++++",
"++@@@@@@++     ..     ++#$#$#$++",
"+@@@@@@@@+     ..     +#$#$#$#$+",
"++++++++++     ..     ++++++++++",
"+@@@@@@@@+     ..     +$#$#$#$#+",
"+@@@@@@@@+     ..     +#$#$#$#$+",
"++++++++++     ..     ++++++++++",
"+@@@@@@@@+     ..     +#$#$#$#$+",
"@@@@@@@@@@     ..     #$#$#$#$#$",
"++++++++++            ++++++++++"};
