/* XPM */
static char * lincity_xpm[] = {
"32 32 12 1",
" 	c None",
".	c #800000",
"+	c #008080",
"@	c #FF0000",
"#	c #808080",
"$	c #008000",
"%	c #C0C0C0",
"&	c #FFFFFF",
"*	c #000000",
"=	c #808000",
"-	c #00FFFF",
";	c #FFFF00",
"................................",
".++++++++++++++++++++++++++++++.",
".+++@.@.@#@.@.++++++$$$$$+%&%++.",
".++@.@.###.@.@.++++$#####%%&&++.",
".++.@+###**+++++++$#####%%&%%++.",
".++@.###**#*#++++$#####%%&%%+++.",
".++.@#*#*****#++$##=###%%%%++++.",
".++@.#*******#++$===##.%%%+$$++.",
".++.@###**#*#*#+$===##..#==$$$+.",
".++@.##*******++$##=###==#@$$$+.",
".+++@.@.@.@.@.++$#####=#==#$$$+.",
".++@.@.@.@.@.@.++$##=====@$$$$+.",
".++.@+++@@++++++++$$@=@#@$$$$$+.",
".++@.++@@@@@++++++++$$$$$$$$$$+.",
".++.@+@@@@@..+++++++++$$$$$$$$+.",
".++@.@@@@.....++++++++++$$$$+++.",
".++.@.@.@.@.@.+++++++++++++++++.",
".++@.@.@.@.@.@.++++++++++++++++.",
".+++++%%%%%%%+++++++$$$$$++++++.",
".++++%-%%%%%+$+++++$#####$+++++.",
".+++%%%%%;%%%$$+++$#######$$+++.",
".++++%-%;%;%+$$$+$#####..##$$++.",
".+++%%%%%;%%%$$$$##=##...@=$$$+.",
".++++%-%;%;%+$$$$===##..@=.$$$$.",
".+++%%%%%;%%%$$$$===##@@#.=$$$$.",
".++++%-%;%;%+$$$$##=###=.#.$$$$.",
".+++%%#%%%-%%$$$+$###@@#=.$$$$$.",
".++++#%#%#%#%$$$++$@@@=#=$$$$$$.",
".+++#%+%+%+%$$$$+++$$$$$$$$$$$$.",
".++++$$$$$$$$$$$++++$$$$$$$$$$$.",
".+++++$$$$$$$$$$++++$$$$$$$$$$$.",
"................................"};
