/* XPM */
static char *e[] = {
/* columns rows colors chars-per-pixel */
"32 32 175 2",
"   c black",
".  c #1F24777A7FCA",
"X  c #3D855EC162F0",
"o  c #2F3068EE6FE5",
"O  c #2379704B7991",
"+  c #2BDB6F3A7570",
"@  c #220973BF7CC8",
"#  c #2068787A807E",
"$  c #2B4370B576E8",
"%  c #2D3D7D457E4F",
"&  c #376C621567D9",
"*  c #3290680C6DF4",
"=  c #323769156ED2",
"-  c #3DCF634B65C9",
";  c #3CE7670E689F",
":  c #3D696CBF6C47",
">  c #356C7E977B8C",
",  c #3A11740E72C0",
"<  c #399478EF764A",
"1  c #3A137E777998",
"2  c #5FF63CDE3D6D",
"3  c #668925EF2B10",
"4  c #64F229112DDD",
"5  c #625D352E36FA",
"6  c #627B3B3A3B1B",
"7  c #6A5F34833321",
"8  c #44995BDC5DE0",
"9  c #4D5955AB55F2",
"0  c #4DA258E857E5",
"q  c #4B525BC15ADE",
"w  c #53DF4D514D88",
"e  c #5E05451C43A7",
"r  c #5DAC495D46B1",
"t  c #5287506E5032",
"y  c #5158514B514A",
"u  c #49B560E05F0E",
"i  c #40AB686A67DB",
"p  c #421B6D346A89",
"a  c #410E71A56E07",
"s  c #1E797CD78408",
"d  c #205078DE80CE",
"f  c #2FF781247FEA",
"g  c #359284E77FDE",
"h  c #17F584AD897F",
"j  c #1CE0817E879D",
"k  c #1CCE85E68B02",
"l  c #1B768AED8F06",
"z  c #17558F3491F6",
"x  c #1A948F429243",
"c  c #16E594669618",
"v  c #177897E49926",
"b  c #160E9D699D48",
"n  c #197B943B962B",
"m  c #18379812992A",
"M  c #189F998D9A39",
"N  c #1698A0D79FE8",
"B  c #0F40A7DDA4D5",
"V  c #0E89AB77A7E3",
"C  c #0B75ADF8A993",
"Z  c #0DECB3C5AE5B",
"A  c #0B2BB7DBB10F",
"S  c #0D4ABD56B5DF",
"D  c #08CCBEA0B9F3",
"F  c #14C8A4C9A2F7",
"G  c #1335AA47A739",
"H  c #12E4AE3CAA4C",
"J  c #1119B35AAE23",
"K  c #1D3EB498AA53",
"L  c #1133B710B108",
"P  c #1118BB03B40D",
"I  c #1FE7B7F2B30D",
"U  c #1EC9BD55B733",
"Y  c #273E848A85F3",
"T  c #23DF82668905",
"R  c #26D18B508AAF",
"E  c #2EDE863183BD",
"W  c #2D998A5886D8",
"Q  c #203E989599F1",
"!  c #258C9ED29C3E",
"~  c #2B5E9A2D9C62",
"^  c #3516872B819F",
"/  c #349C8AAC842A",
"(  c #31D1918389E0",
")  c #34E49B629E33",
"_  c #23A0A3579BF3",
"`  c #2595AABEA02B",
"'  c #235CA310A2B5",
"]  c #2527ABCEA0D6",
"[  c #20A8B495B0BD",
"{  c #077AC5E1BDEC",
"}  c #0733C9A2BF55",
"|  c #0968C0EBB838",
" . c #0CA0C49BBBA2",
".. c #0BABC9BDBFA3",
"X. c #1391C3BAB88F",
"o. c #1606C739BA1D",
"O. c #1909C3DEB65D",
"+. c #1DA2C0C9BA35",
"@. c #27B2C6DFBFE5",
"#. c #056ECD95C23D",
"$. c #0B2FCE39C342",
"%. c #0632D47EC782",
"&. c #03BCD74EC9AE",
"*. c #0668DD82CF05",
"=. c #0A0CD335C71B",
"-. c #0948D734CA3E",
";. c #0860DAB2CCD9",
":. c #0705E07AD177",
">. c #05CBE476D475",
",. c #040FE9B8D872",
"<. c #03A7ED24DB42",
"1. c #0857E442D33A",
"2. c #1300ED39DCB1",
"3. c #0000FFFFF78D",
"4. c #3F4AC6E3C1E5",
"5. c #478BA4D1A707",
"6. c #574FAD62AF79",
"7. c #5F2CA814ABCC",
"8. c #560EC061BE66",
"9. c #5D57B35DB4D7",
"0. c #6004BF53BE55",
"q. c #66A2AEC3B1AB",
"w. c #66D7B199B3E2",
"e. c #77BDB0C1B4DD",
"r. c #4DD1C86CC457",
"t. c #5F2BC66DC3FE",
"y. c #5E45CA94C73F",
"u. c #5DEDCDE8C9ED",
"i. c #5C1CD402CE7D",
"p. c #583BDEF9D6CC",
"a. c #5B49D85AD1FB",
"s. c #5A45DCA7D55C",
"d. c #5681E6E2DD0C",
"f. c #58A5E363DA55",
"g. c #60D3C26BC0CD",
"h. c #68B7D4DFD047",
"j. c #6ED5D556D130",
"k. c #8F27C84AC973",
"l. c #829CD27FD07B",
"z. c #8C36D26DD161",
"x. c #8A48DBBAD885",
"c. c #9AB5D5F4D565",
"v. c #9916DD5FDB22",
"b. c #9756E16BDE2B",
"n. c #A02EE767E3AC",
"m. c #9DD6F055EA94",
"M. c #93BBF344EC1C",
"N. c #9D95F185EB83",
"B. c #A5C7CFF1D15E",
"V. c #A910D0A6D245",
"C. c #A755D1EDD355",
"Z. c #A513DD0FDBDF",
"A. c #AA0CD68BD712",
"S. c #AD8ED85AD8E7",
"D. c #A8F8DA58D9FD",
"F. c #A5C0E1D4DFB3",
"G. c #AFB4E196E05F",
"H. c #A3D1E69EE34A",
"J. c #A40EEB3CE712",
"K. c #A346EED2E9D6",
"L. c #AD93E53CE327",
"P. c #A210F31FED33",
"I. c #BF1BEC3BEA10",
"U. c #BF62F316EF8D",
"Y. c #C22AE7ADE6A7",
"T. c #C185EA11E895",
"R. c #C121EED8EC71",
"E. c #DAA0F045EF91",
"W. c #D6A2F338F1AC",
"Q. c #DB2BF337F206",
"!. c #E768F753F656",
"~. c #ED29F99BF89C",
"^. c #EFE5FA7DF98C",
"/. c #F51CFC7FFB95",
"(. c None",
/* pixels */
"(.(.(.(.(.(.(.(.t w a / / / ^ ^ ^ p w w (.(.(.(.(.(.(.(.(.(.(.(.",
"(.(.(.(.(.4 3 q / K O.,.>.1.*.*.-.K _ 1 q 5 5 (.(.(.(.(.(.(.(.(.",
"(.(.(.(.(.i / O.>.<.,.>.*.*.-.-.=.$.$.S ' < q (.(.(.(.(.(.(.(.(.",
"(.(.(.(.y ] <.<.<.>.>.*.*.;.-.$.$.$.o... .P W 9 (.(.(.(.(.(.(.(.",
"(.(.(.0 ] <.<.<.,.:.:.*.;.=.=.$.$.{  .S P P J ^ 9 (.(.(.(.(.(.(.",
"(.(.u ` <.2.M.P.N.N.N.m.K.K.K.J.J.n.n.H.j.A J H E q (.(.(.(.(.(.",
"(.3 / <.<.2.M.P.U./.^.U.J.J.H.H.I.^.^./.H.J H H F : 2 (.(.(.(.(.",
"(.u O.<.,.,.>.:.f.^.^.f.} ....| 4.a.W./.Z.H H G F R 9 (.(.(.(.(.",
"r / 1.,.1.>.:.;.f.^.^.s.}  . . .S A r.Q.Z.H G F F m : w (.(.(.(.",
"w K <.>.1.*.;.&.f.^.^.s. . .S +.U J Z F.Z.F F b b M % w (.(.(.(.",
"a X.,.1.*.*.-.%.s.^.^.a.|  .S v.v.J H G.Z.F F b M n Y 8 7 (.(.(.",
"/ >.1.*.*.-.=.#.s.^.^.i.D A 4.Q.Z.H G 8.z.F b v m n x : e (.(.(.",
"/ 1.*.;.;.=.$.#.s.^.^.i.A A x./.Z.G F F ' b M n n x x ; e (.(.(.",
"^ *.;.-.-.$.$.{ s.^.^.I.H.L.~.^.v.G F F b v n n x l k - e (.(.(.",
"^ ;.-.=.$.$...{ i.^.^.I.H.L.~./.Z.F b M v n n x l k k - e (.(.(.",
"^ -.=.$.$...X.D i.^.^.y.C H l.~.Z.b M M c x x l l T j - e (.(.(.",
"d =.$.$.....S D i.^.^.y.V G F G.D.v v M 9.) l k k s d - r (.(.(.",
"p K $.$.S  .P A u.^.^.t.B F F c.c.v n ~ Q.q.h j s s + q 6 (.(.(.",
"r _ $.o.S S P A u.^.^.g.B b b ' ! n n 6.!.q.s s s d = y (.(.(.(.",
"r 1 S o.S P L Z y.^.^.g.F b b c n x x S.!.7.s s s @ X y (.(.(.(.",
"(.q _ P P L J C t.^.^.w.b v v c x 5.k.^.S.T s . @ = y (.(.(.(.(.",
"(.5 < P Z I v.Z.I.^./.I.D.D.Z.A.A.E././.B.s s . @ X r (.(.(.(.(.",
"(.(.q W H I v.Z.Z.Z.Z.Z.D.A.A.A.C.C.B.B.e.. @ O & 9 (.(.(.(.(.(.",
"(.(.(.9 E G G F b b v v c x l l k j s s s @ O X y y (.(.(.(.(.(.",
"(.(.(.(.9 ^ b F b M m n x x l k k s d @ d O & y y y y (.(.(.(.(.",
"(.(.(.(.(.9 : R n m n x x k k s d s d O o 8 9 y y y y y (.(.(.(.",
"(.(.(.(.(.2 2 9 : % Y l k k T s d $ * X 9 e r (.y y y y y (.(.(.",
"(.(.(.(.(.(.(.(.w w 8 ; ; X ; - - u t t (.(.(.(.(.y y y y y (.(.",
"(.(.(.(.(.(.(.(.(.(.e e e e e e r e (.(.(.(.(.(.(.(.y y y y y (.",
"(.(.(.(.(.(.(.(.(.(.(.(.(.(.(.(.(.(.(.(.(.(.(.(.(.(.(.y y y y y ",
"(.(.(.(.(.(.(.(.(.(.(.(.(.(.(.(.(.(.(.(.(.(.(.(.(.(.(.(.y y y y ",
"(.(.(.(.(.(.(.(.(.(.(.(.(.(.(.(.(.(.(.(.(.(.(.(.(.(.(.(.(.y y y "
};
