/* XPM */
static char *tom_[] = {
/* columns rows colors chars-per-pixel */
"24 32 214 2",
"   c #00A800AE00AF",
".  c #078807560710",
"X  c #0B6E09B305E8",
"o  c #05DE07430829",
"O  c #0637081C09E9",
"+  c #0ABC0B910C33",
"@  c #05BA0BD0135B",
"#  c #0A990E0C12CE",
"$  c #052310161363",
"%  c #0EB6114F136A",
"&  c #0F83170E1937",
"*  c #132A13B7137D",
"=  c #1A1117261479",
"-  c #1D9019CE14D5",
";  c #13BC170419E1",
":  c #166C1A031DB8",
">  c #1BF51C1A1C3A",
",  c #20031669134D",
"<  c #248D19901616",
"1  c #2D211B3715B3",
"2  c #22CC1D761BCB",
"3  c #29281D54199F",
"4  c #34F31C1C146D",
"5  c #3A1A1F8A16FE",
"6  c #35651F1B182C",
"7  c #251222021DD9",
"8  c #2D7525F81BDE",
"9  c #3D8920631727",
"0  c #3424229D1A0C",
"q  c #3D882DCF18A4",
"w  c #127C17CD20F4",
"e  c #25711F7921A9",
"r  c #1D16200E2110",
"t  c #1EA622472A50",
"y  c #1CD3239F3122",
"u  c #1D9726DD3B62",
"i  c #23D320B72444",
"p  c #2B4924C32312",
"a  c #2D5F286426E9",
"s  c #23C722862AA9",
"d  c #35F62F042C96",
"f  c #22182A153B6C",
"g  c #34F131483041",
"h  c #3AE8384A3C4B",
"j  c #4CA316F9062C",
"k  c #4FAF1D8E0D84",
"l  c #65231F8109CE",
"z  c #69211CC10D0D",
"x  c #42CD202F153C",
"c  c #4DB820DC1312",
"v  c #55D521D511F4",
"b  c #5BCD226910ED",
"n  c #4C51346414DD",
"m  c #4310311018C7",
"M  c #514136211196",
"N  c #566B3AB71613",
"B  c #5D283D371265",
"V  c #699F243A0EB5",
"C  c #725420B90707",
"Z  c #78901FED0470",
"A  c #75FD244A0ACC",
"S  c #7D7D255809B5",
"D  c #6D48327D0696",
"F  c #6DB035370AAF",
"G  c #70F439370D3B",
"H  c #6656252A10C2",
"J  c #578C35172C1E",
"K  c #5B243A493089",
"L  c #6287347525FA",
"P  c #696743C31269",
"I  c #768A4AE41004",
"U  c #7C304E1711C2",
"Y  c #492441D63FBE",
"T  c #62CE460A210D",
"R  c #67B64BA425C3",
"E  c #624749962815",
"W  c #7D2D56DC2F3D",
"Q  c #655941533661",
"!  c #7506565A31CF",
"~  c #0F22274D57E0",
"^  c #1B622D6D5468",
"/  c #1B6B2F285A5E",
"(  c #1B6C30B05F57",
")  c #249C301F48BC",
"_  c #2F3D3D275ABB",
"`  c #1D4D33706414",
"'  c #13B731186DEF",
"]  c #1ADB349E6D10",
"[  c #13B1323471AC",
"{  c #1BC636E7725B",
"}  c #1537368C7B66",
"|  c #195839907DD6",
" . c #3390481E6BB8",
".. c #470B43DE4319",
"X. c #4D7045BA4286",
"o. c #52BB49234684",
"O. c #6BF65D6E5949",
"+. c #735C64335FDF",
"@. c #8C211F9E0038",
"#. c #9BC8138B0000",
"$. c #954C180B0332",
"%. c #98B11E0F03C2",
"&. c #86A025810709",
"*. c #8B0525F706A8",
"=. c #94392599041F",
"-. c #9EB925940064",
";. c #A3CA267D003A",
":. c #ACCA243C00EE",
">. c #A52827DF0153",
",. c #AB7B2862001F",
"<. c #BC4E26FD0000",
"1. c #B31B2A0700DE",
"2. c #AEBF34CB0EC4",
"3. c #B924307406D0",
"4. c #A25D2C681961",
"5. c #A5E42FC415E5",
"6. c #B7783934120C",
"7. c #A9663C1A26EA",
"8. c #86674BF9005E",
"9. c #80BC4EE20BE1",
"0. c #8D8E535E04F7",
"q. c #858052090AD6",
"w. c #8AA854EB09CE",
"e. c #97B1598605EE",
"r. c #9A8B5B3C0631",
"t. c #98885ADD07FF",
"y. c #80EB50DE11F7",
"u. c #823F57C91F96",
"i. c #94D2602D191B",
"p. c #9D9B67F31F91",
"a. c #AEEA636101A5",
"s. c #B33766CE0073",
"d. c #BD2B6C1C006A",
"f. c #B6FB44942C99",
"g. c #AF10480237CE",
"h. c #B759542C3529",
"j. c #B914550B362D",
"k. c #BE1B59CA3ABB",
"l. c #923C64512628",
"z. c #8653639C3441",
"x. c #8991652833A0",
"c. c #AE017B443660",
"v. c #C59770A50000",
"b. c #CCF473F6002C",
"n. c #C33D76140E54",
"m. c #CD4F798E0A4C",
"M. c #D1C07677003B",
"N. c #D84979E50000",
"B. c #DB077B360000",
"V. c #C17050262CE3",
"C. c #C4CC5C873C32",
"Z. c #C5577EFE201F",
"A. c #9223584C4685",
"S. c #AC9F5AB04147",
"D. c #855F65915BEF",
"F. c #BDFA61CC4545",
"G. c #B1EF66214EDF",
"H. c #B5516DB757BD",
"J. c #830370BC6BC6",
"K. c #8980706E6892",
"L. c #898476C571A4",
"P. c #C9336AE24DBF",
"I. c #C6E17F3E6F3A",
"U. c #D77B81B80EE6",
"Y. c #C880866F2D3C",
"T. c #D3B293E93D06",
"R. c #E6A997FA2D39",
"E. c #AF2A827C44C7",
"W. c #A47F850A7C8C",
"Q. c #AC3F8A7D7F79",
"!. c #CA0F94514A99",
"~. c #D4BF9B574D66",
"^. c #E494A3EA4BA1",
"/. c #E993AF5B5FAE",
"(. c #D7BE86986DB8",
"). c #D42386F67533",
"_. c #D37788FA7240",
"`. c #D39097527FBC",
"'. c #D7BDA98469C0",
"]. c #D9E4AB036A66",
"[. c #0E2634948312",
"{. c #0E0A36A889C5",
"}. c #150F37A78316",
"|. c #174D39D283EE",
" X c #1A293BC5850B",
".X c #1AAB3DE98AEB",
"XX c #1AC63F939050",
"oX c #215D40878406",
"OX c #24D446248B93",
"+X c #2DB64DD79326",
"@X c #43D8604E9C4B",
"#X c #4B1A66F0A1AE",
"$X c #5A0A73E7A966",
"%X c #65ED7F8CB4C9",
"&X c #9D9E86F08065",
"*X c #9EED8DA39869",
"=X c #A75B8E068714",
"-X c #A97B8DEF8648",
";X c #A5A18E92880C",
":X c #ADFE942C8CDC",
">X c #AD2896A1906A",
",X c #AE2599C39CD2",
"<X c #BC5FA17B9A07",
"1X c #DAB7A3159028",
"2X c #CDEAAE71A5D0",
"3X c #DEB1B014A243",
"4X c #E59AB171A06F",
"5X c #E752C46AB8E7",
"6X c #EAD0C4E5BBED",
"7X c #F0B5C5BDB96D",
"8X c #F25ECB7CC038",
"9X c #EDECCCA5C388",
"0X c #F4EDD172C783",
"qX c #FAA8D28EC758",
/* pixels */
"          O @ @ @ @ @ o o                       ",
"      + : 8 n B B B n 8 % +                     ",
"    # 8 q.d.v.b.v.m.T.!.z.2 #                   ",
"  . 2 r.b.d.d.d.d.Z.'.'.^.9.:                   ",
"o # q v.d.d.d.d.d.v.Z.Y.n.s.> %                 ",
"+ 2 B w.q.w.w.w.w.w.8.8.0.w.n 7 +               ",
"+ p n n F F G F V F ! ! P M B p +               ",
". % @ > $.$.7._.S.7.4X>X<X) @ * +               ",
"      3 %.#.5.1X1X3X5X1XQ.X.*     O .           ",
"      ; z :.f.).9XqX7X4Xd * a > * Y 7           ",
"      + ; J W.-X=X=X:XK.> + O.+.L.L.; *         ",
"  + ; 2 2 : ; ; = - - > r @ J.qX2XJ.J.i .       ",
"  > V =.6 > 6 - < A H > < j D.9X6X2XX.> .       ",
"o 2 ,.V 3 =.F.H.J * < L S.3.Z <X6X:XW.g +       ",
"o 2 >.5 b <.h._.).A.G.(.P.1.;.K ..* % ;         ",
"o 2 ,.b 2 =.:.6.k.C.V.6.-.V < > + .             ",
". 2 ;.>.x > 9 C %.:.@.k > a Q 3 o               ",
". 7 -.,.,.&.c 7 3 0 > 0 A 2.j.< o               ",
"o 3 >.,.>.1.1.>.A v *.1.1.:.=.2 .               ",
"o > S >.-.-.-.;.,.:.>.;.;.,.H :                 ",
"  # > i s s s i i i i i e 4 2 O                 ",
"    + t |..X|.| | | | } OX .= +                 ",
"      - u ] | .X.X|..X|.OX%X_ - .               ",
"      * < ^ ( / | .X.X.X|.@X%X) * .             ",
"  o = t [ XX.X{ ^ ]  X.X X|.@X$Xf *             ",
"  X s |..X X X.X.Xu y |. X X|.+XoXt *           ",
"  X f .X.X.X.X.X Xi - { .X X.X|.XX` =           ",
"  + t [ ' [ ' ' ' w * ' {.[.}.[.}.~ % @ +       ",
"  + m 0.w.w.w.w.0.l.E P y.U U U U u.x.R 8 % .   ",
"  @ N B.b.M.b.M.M.R.E.s.B.M.M.M.M.U.^./.~.T *   ",
"  + m r.e.e.r.r.e.r.I q.r.e.r.e.r.e.e.p.c.i.> . ",
"  + i : w : : : : w : 2 w w : : : : : ; * > > . "
};
