/* XPM */
static char *xnc2[] = {
/* columns rows colors chars-per-pixel */
"48 48 256 2",
"   c #000000",
".  c #060709",
"X  c #08090c",
"o  c #060711",
"O  c #14120b",
"+  c #101215",
"@  c #181c26",
"#  c #1a1e2b",
"$  c #1b202c",
"%  c #262211",
"&  c #26292f",
"*  c #232a38",
"=  c #313131",
"-  c #2f3045",
";  c #5f5532",
":  c #61562e",
">  c #625931",
",  c #434344",
"<  c #535354",
"1  c #404c65",
"2  c #48546f",
"3  c #495675",
"4  c #505e7c",
"5  c #56637f",
"6  c #616266",
"7  c #77797f",
"8  c #656576",
"9  c #1d2297",
"0  c #232897",
"q  c #2c3191",
"w  c #363ba4",
"e  c #1b25e1",
"r  c #1721fd",
"t  c #1a25fe",
"y  c #1e29fd",
"u  c #262ec2",
"i  c #2029d1",
"p  c #2d34c4",
"a  c #2931d5",
"s  c #373ec4",
"d  c #313ad2",
"f  c #212be0",
"g  c #212cfe",
"h  c #242ef1",
"j  c #2730f0",
"k  c #2631fe",
"l  c #2a34fe",
"z  c #2f39ff",
"x  c #323cfe",
"c  c #313bf1",
"v  c #3f4392",
"b  c #3e44c3",
"n  c #3b44fe",
"m  c #3f48ff",
"M  c #4a4e9f",
"N  c #4a4eaa",
"B  c #4e58b6",
"V  c #556383",
"C  c #586789",
"Z  c #5a6a8c",
"A  c #5e6093",
"S  c #5d6d92",
"D  c #5e6fa9",
"F  c #5466b7",
"G  c #696b97",
"H  c #607196",
"J  c #63749b",
"K  c #66789e",
"L  c #6d7a98",
"P  c #6e6f8b",
"I  c #6367a8",
"U  c #6a6eb8",
"Y  c #6475a2",
"T  c #6678a2",
"R  c #6a7ca4",
"E  c #6a7ca9",
"W  c #6a75a6",
"Q  c #6a7db1",
"!  c #6a79bd",
"~  c #7475a1",
"^  c #4249d2",
"/  c #4b53db",
"(  c #575dd7",
")  c #414aff",
"_  c #4c54fe",
"`  c #4f58fd",
"'  c #565ce0",
"]  c #525aff",
"[  c #5058f4",
"{  c #5e71c3",
"}  c #5b62fd",
"|  c #676cdc",
" . c #6d72c8",
".. c #737ac6",
"X. c #6067f8",
"o. c #646cfe",
"O. c #666df1",
"+. c #6d74fe",
"@. c #7479e5",
"#. c #7077ff",
"$. c #767cfe",
"%. c #6e81ac",
"&. c #6d81b3",
"*. c #7084ad",
"=. c #7987a6",
"-. c #7185b3",
";. c #7285bb",
":. c #7489b5",
">. c #758aba",
",. c #788dbb",
"<. c #7b90bd",
"1. c #768bc3",
"2. c #788ec4",
"3. c #788ec9",
"4. c #7f87de",
"5. c #7b87d4",
"6. c #7c93c3",
"7. c #7c92cb",
"8. c #7d94d2",
"9. c #7c82ff",
"0. c #86783c",
"q. c #9e8d4c",
"w. c #a49350",
"e. c #c3af5c",
"r. c #c3b05c",
"t. c #c3af61",
"y. c #c7b460",
"u. c #dec66b",
"i. c #e0c867",
"p. c #e3cb6a",
"a. c #e9d069",
"s. c #f6db6e",
"d. c #f6dc70",
"f. c #f9de70",
"g. c #8a8a8d",
"h. c #878798",
"j. c #8f8f98",
"k. c #8b8c94",
"l. c #99999b",
"z. c #929399",
"x. c #868bad",
"c. c #8188a5",
"v. c #858dbd",
"b. c #8a93aa",
"n. c #8796b7",
"m. c #9d9da2",
"M. c #9599a9",
"N. c #989db4",
"B. c #9da0a9",
"V. c #9aa2b3",
"C. c #98a3ba",
"Z. c #a2a2a3",
"A. c #a4a5a9",
"S. c #ababab",
"D. c #aaabba",
"F. c #a7abb2",
"G. c #b3b3b4",
"H. c #b3b4b9",
"J. c #bababb",
"K. c #8096c6",
"L. c #8097c8",
"P. c #859ac5",
"I. c #829acb",
"U. c #8a9dc5",
"Y. c #849dd2",
"T. c #829ada",
"R. c #8097d1",
"E. c #9597ca",
"W. c #8086fe",
"Q. c #8389fe",
"!. c #898eff",
"~. c #859ee0",
"^. c #8c92fe",
"/. c #9196ff",
"(. c #9499ff",
"). c #989df8",
"_. c #979be7",
"`. c #8da2cc",
"'. c #86a0d2",
"]. c #88a1d4",
"[. c #8ba5da",
"{. c #8ea8dd",
"}. c #98a7c8",
"|. c #90aadf",
" X c #98abd4",
".X c #9db0d8",
"XX c #87a0e4",
"oX c #88a1e5",
"OX c #8aa5ea",
"+X c #8ea9e1",
"@X c #8ea9ea",
"#X c #8ea9f0",
"$X c #91ace3",
"%X c #91aceb",
"&X c #91acf2",
"*X c #9ea2fd",
"=X c #95b1e9",
"-X c #98b4ed",
";X c #94b0e7",
":X c #95b0f1",
">X c #9ab6f0",
",X c #a1a4c2",
"<X c #adafd1",
"1X c #a3b3d2",
"2X c #a7b7da",
"3X c #bcbdca",
"4X c #b8bcc7",
"5X c #b6bbdb",
"6X c #b7b8d7",
"7X c #a1a6ff",
"8X c #a5a9ff",
"9X c #a8acff",
"0X c #aeb2fd",
"qX c #bbbded",
"wX c #b4b8ff",
"eX c #babdfe",
"rX c #b3b6f9",
"tX c #a7ace7",
"yX c #b3c1dd",
"uX c #bbc4db",
"iX c #bdc0fe",
"pX c #bdc0f7",
"aX c #c4c4c4",
"sX c #cacacc",
"dX c #c2c4cd",
"fX c #c2c6d5",
"gX c #ceced0",
"hX c #cfd3da",
"jX c #d2d2d3",
"kX c #d3d3da",
"lX c #dadadc",
"zX c #c5cbe5",
"xX c #c1c4fe",
"cX c #cacdfe",
"vX c #cdd6e7",
"bX c #dfdfe6",
"nX c #d8dceb",
"mX c #d2d4fe",
"MX c #d6d8ff",
"NX c #d8dff0",
"BX c #d9daff",
"VX c #d3d5f1",
"CX c #dfe1ff",
"ZX c #dee0f5",
"AX c #e6e7eb",
"SX c #e3e4fd",
"DX c #e7e8ff",
"FX c #ececf3",
"GX c #ecedfe",
"HX c #e5e9f2",
"JX c #eef0f4",
"KX c #eff0fc",
"LX c #f3f3f4",
"PX c #f3f4fe",
"IX c #fcfdfe",
"UX c #f7f8fb",
/* pixels */
"                                                                                                ",
"  -X-X=X=X$X$X|.|.{.[.[.].].[.].].].'.'.'.'.'.].].].].].[.[.[.|.|.$X$X$X=X=X-X-X-X-X-X-X-X-X-X  ",
"  -X=X$X{.{.[.[.].].'..X.X.X1XyXyXyXyXyXyXyX.X XP.I.I.I.I.Y.'.].].{.{.{.$X{.$X$X$X-X=X-X-X-X-X  ",
"  %X[.].[.[.5XzXNXJXIXIXIXIXIXIXIXIXIXIXIXIXIXIXIXHXvX2XP.6.I.P.I.Y.].].[.{.{.;X$X$X=X$X=X=X-X  ",
"  ].....tX5XvXLXUXIXIXIXIXIXIXIXIXIXIXIXIXIXIXIXIXIXIXIXIXnX1X`.K.P.I.Y.'.[.{.{.$X;X;X;X;X$X$X  ",
"  3.I N / ^ ' *XcXPXUXIXIXIXIXIXIXIXIXIXIXIXIXIXIXIXIXIXIXIXIXHX1X<.6.I.I.Y.[.[.|.{.;X$X;X$X-X  ",
"  7.~ w d i i l m W.xXBXUXIXIXIXIXIXIXIXIXIXIXIXIXIXIXIXIXIXIXIXIXnXU.U.I.P.Y.].].{.{.{.;X;X;X  ",
"  8.M.G  .^ e t y g x ` 8XMXUXUXIXIXIXIXIXIXIXIXIXIXIXIXIXIXIXIXIXIXUX}.:.6.P.I.'.].{.{.{.;X|.  ",
"  Y.C.l.3X6X@.X.x t t y x ] 7XMXPXUXIXIXIXIXIXIXIXIXIXIXIXIXIXIXIXIXLXsXx.Q ,.K.I.Y.].[.[.{.$X  ",
"  '.C.l.3XgXkXZXxX#.] g y g l _ *XGXPXIXIXIXIXIXIXIXIXIXIXIXIXIXIXUXlXm.M.v.Q 2.6.I.I.].].{.{.  ",
"  Y.C.m.J.jXlXLXPXGXmX(.) g r y k #.SXPXUXIXIXUXIXIXUXUXUXUXUXUXUXUXsXz.j.N.uXn.,.<.6.I.'.].{.  ",
"  ].C.Z.J.jXlXLXUXUXPXGXcXo.g y r y } eXPXPXUXPXSXcXeXwX*X*X*X7X9XeXD.g.g.M.bXUXzX}.P.P.I.'.[.  ",
"  Y.C.S.G.sXlXLXUXUXUXUXPXGX9Xo.y t t l Q.SXBX(.o.] ) n x z l x _ @.x.g.j.m.bXDXwX(.MXuXK.I.].  ",
"  '.n.S.G.gXlXLXIXUXUXUXPXPXKXDX#.y t t g ] _ l l x n n n x n x _ | ~ h.k.N.qX$.m r (.U.<.K.Y.  ",
"  '.n.S.S.gXlXLXIXIXIXIXUXUXPXKXGX9.y t t y l ) ] #.W.!.!.^.^.8X*X| N A G U [ y l ` rX%.,.6.I.  ",
"  '.<.G.A.aXjXLXUXIXIXIXUXUXPXKXPXGX^.) t t x o.(.wXSXGXPXPXUXUXmX( 9 9 0 w y x $.cXuX%.:.<.L.  ",
"  Y.>.G.Z.sXjXUXIXIXIXIXUXUXPXPXGX^.g g y t l +.iXGXIXIXIXIXIXIXPXE.v 9 9 a ] (.SXIXn.R -.>.6.  ",
"  '.<.G.Z.sXjXLXIXIXIXIXIXPXPXGX/.z g l x l y x (.GXIXIXIXIXIXIXLXD.P G I _.cXPXIXLXL T E :.6.  ",
"  ].P.H.Z.aXjXLXIXIXIXIXIXPXPX7Xm z l z /.(._ g 0 G z.IXIXIXIXIXAXA.g.g.D.FXUXIXIXfXS J E -.2.  ",
"  ].n.S.Z.aXjXLXIXIXIXIXIXUXwX] m x l ^.GXGXwX)   %   FXIXIX          j.fXUXIXg., & @ # * J ,.  ",
"  ].I.F.Z.aXgXLXUXIXIXIXUXcXo._ ) x !.GXPXPXPX8X  a.. 8 IXUX  f.f.s.  M.nXIXl.  f.f.f.f.O J >.  ",
"  ].7.V.Z.J.gXLXIXIXIXUXGXW.x n n ^.GXGXPXPXUXGX  f.0.  uXUX  f.f.d.  N.DXlX+ d.f.f.f.r.* K <.  ",
"  ].`.C.Z.J.gXLXUXIXUXGXW.l g x !.GXGXPXGXPXUXIX  f.f.t.- KX  f.f.d.  D.GX, w.f.f.f.r.. C :.6.  ",
"  [.7.N.S.J.gXLXUXUXUX8Xx r z W.GXGXPXGXGXPXPXUX  f.f.f.  P   f.f.d.  <XH.  f.f.f.i.. V %.:.6.  ",
"  [.6.n.S.G.gXLXUXIXmX_ y k _ cXPXPXPXPXPXPXPXUX  f.f.f.f.o   f.f.d.  zX< p.f.f.f.  2 R -.,.6.  ",
"  [.`.<.S.J.gXLXUXGX^.l t ) 0XPXPXUXPXUXPXUXPXPX  f.f.f.f.;   f.f.d.  5X  d.f.f.: * J R :.,.L.  ",
"  [.'.=.S.G.gXJXPXeXm y z ^.PXPXUXUXUXIXUXUXUXUX  f.f.f.f.f.  f.f.f.  h.w.f.f.f.. C Y %.:.2.7.  ",
"  {.'.%.S.G.gXFXFX$.g g +.GXPXUXUXIXIXIXIXIXIXUX  f.f.f.f.f.u.f.f.d.  6 d.f.f.e.* H T %.;.6.8.  ",
"  {.`.*.S.S.gXFX0Xx y x 0XPXUXUXIXIXIXIXIXIXIXIX  f.f.f.f.f.f.f.f.d.  , f.f.f.  3 S Q Q >.7.R.  ",
"  {.I.:.A.G.sXvX} y g $.GXIXIXIXIXIXIXIXIXIXIXIX  f.f.f.f.f.f.f.f.d.    f.f.f.X S J Q :.1.7.Y.  ",
"  {.'.:.B.S.dX).j y m iXUXIXIXLXuXV.M.V.3XhXLXIX  f.f.f.y.f.f.f.f.f.    f.f.f.  S J Q ;.1.7.T.  ",
"  {.'.<.M.S.4XO.y k 9.GXUXAXM.5 4 4 V V V V V =.  f.f.f.  f.f.f.f.f.    f.f.d.  J Q Q ;.3.8.T.  ",
"  [.].P.b.A.E.c t x eXPX4XC V V C C Z Z Z S S S   f.f.f.    f.f.f.f.    f.f.s.  T %.;.1.3.8.~.  ",
"  {.].L.b.m. .j y o.ZXx.Z Z Z S Z S H K K L K K   f.f.f.  , w.f.f.f.    f.f.s.  E %.;.3.8.8.~.  ",
"  +X].I.x.c.w h c R.W S H H J J K K %.%.%.*.*.*.  f.f.f.  L   f.f.d.    f.f.f.  %.;.1.7.8.T.~.  ",
"  +X[.I.~ D d c / D W W T T R R %.*.*.:.:.,.,.:.  f.f.s.  Y   f.f.f.  = f.f.f.  Y >.2.7.T.T.~.  ",
"  $X[.Y.W N ^ ^ F %.%.%.%.%.-.-.:.,.<.<.6.6.6.7.  f.f.d.  E   f.f.f.  < s.f.f.q.1 2.7.8.T.~.~.  ",
"  $X{.Y.>.U B F ;.>.:.:.:.>.<.<.<.<.6.'.].'.].8.  f.f.d.  ;.  f.f.d.  7 q.f.f.s.+ 7.8.T.T.~.OX  ",
"  %X{.[.8.5.{ 1.6.6.6.<.6.6.6.I.'.'.'.[.[.{.[.[.  f.f.d.  3.  f.f.d.  %.  s.f.f.  3 T.T.~.~.OX  ",
"  $X{.{.].R.Y.Y.I.7.6.I.I.I.I.'.'.[.{.|.|.$X+X@X  f.f.f.  8.  f.f.d.  6.@ s.f.f.d.o Q ~.~.OXOX  ",
"  $X{.{.[.[.].Y.'.'.'.'.`.'.[.[.+X+X+X;X%X;X%X%X  f.f.d.  T.  f.f.d.  7.4   f.f.f.y.# 8.~.OXOX  ",
"  =X$X$X{.{.[.[.].].[.[.].[.[.+X+X;X%X=X%X&X:X#X  f.f.f.  ~.  f.f.f.  I.8.  p.f.f.f.> # T.OXOX  ",
"  =X$X$X{.$X{.{.[.{.{.{.+X+X@X@X%X%X:X:X:X:X:X&X  f.f.d.  OX  f.f.d.  T.T.J   f.f.f.f.> # 7.OX  ",
"  =X$X$X$X$X$X{.{.{.|.{.+X+X@X@X@X:X:X&X:X&X:X&X  f.f.d.  OX  f.f.d.  ~.~.~.    f.f.f.f.O 7.OX  ",
"  =X%X$X$X$X$X$X$X$X$X@X@X@X%X%X&X&X:X:X&X&X:X#X          OX          oX~.~.OX          # 8.OX  ",
"  %X$X%X$X$X$X%X@X$X$X@X@X@X@X@X#X&X#X&X&X&X&X#X#X#X#X#XOX#X#XOXOXOXOXOXOXOXOXOXOXOXOXOXOXOXOX  ",
"  #X%X@X@X@X+X@X@X@X@X@X#X@X#X#X#X#X#X#X&X&X%X#X#X#X#X#X#X#XOX#X@XOXOXOXOXOXOX#XOXOXOXOXOXOXOX  ",
"                                          .     .                                               "
};
