/* XPM */
static char * freewheeling_xpm[] = {
"32 32 797 2",
"  	c None",
". 	c #7C7672",
"+ 	c #AFACAA",
"@ 	c #C8C4C2",
"# 	c #C3BFBB",
"$ 	c #C0BBB8",
"% 	c #CBC3BE",
"& 	c #D4CDC7",
"* 	c #CECAC7",
"= 	c #A7A4A3",
"- 	c #706B68",
"; 	c #A8A4A2",
"> 	c #CBC5C3",
", 	c #DED5CE",
"' 	c #E3D7CA",
") 	c #DEC7B3",
"! 	c #A48972",
"~ 	c #9B7E67",
"{ 	c #D7B69C",
"] 	c #DCBCA2",
"^ 	c #D8C0AB",
"/ 	c #D0C2B7",
"( 	c #D1C7C0",
"_ 	c #D3CDC9",
": 	c #B7B2AD",
"< 	c #969491",
"[ 	c #D8D5D4",
"} 	c #CBBCB4",
"| 	c #D5BBAA",
"1 	c #E0BC9A",
"2 	c #E8BE93",
"3 	c #EFC6A2",
"4 	c #E7B78E",
"5 	c #CE9568",
"6 	c #F3BB8F",
"7 	c #F4C298",
"8 	c #F1C299",
"9 	c #E5AF86",
"0 	c #E1B28E",
"a 	c #E8CCB4",
"b 	c #E8D8CA",
"c 	c #E4DFDB",
"d 	c #9A9591",
"e 	c #C5C2C0",
"f 	c #D5CEC9",
"g 	c #C0AC9D",
"h 	c #DAB291",
"i 	c #E8B58D",
"j 	c #F5C59A",
"k 	c #F9CAA1",
"l 	c #FACEA9",
"m 	c #FAC594",
"n 	c #F1AB75",
"o 	c #FBBE8D",
"p 	c #FCC79A",
"q 	c #FBC495",
"r 	c #F7BA89",
"s 	c #F6BE90",
"t 	c #F5C9A0",
"u 	c #EBC3A3",
"v 	c #E9D7C7",
"w 	c #E4DDD6",
"x 	c #C0BCB8",
"y 	c #C3C1BF",
"z 	c #D4CDC9",
"A 	c #D3B39C",
"B 	c #DCAE85",
"C 	c #F0B882",
"D 	c #F9C08A",
"E 	c #F8C398",
"F 	c #FBCDAC",
"G 	c #FACEAB",
"H 	c #FDC997",
"I 	c #F5AC74",
"J 	c #FDC090",
"K 	c #FECBA0",
"L 	c #FCC293",
"M 	c #F7BE92",
"N 	c #FACAA2",
"O 	c #FBD1AD",
"P 	c #F4D0B2",
"Q 	c #E5CAB1",
"R 	c #A7907D",
"S 	c #D2CBC6",
"T 	c #C2BFBC",
"U 	c #C6C3C1",
"V 	c #CBC5BF",
"W 	c #927C6B",
"X 	c #D6A989",
"Y 	c #F7C090",
"Z 	c #F7B984",
"` 	c #F6BF8F",
" .	c #F8C295",
"..	c #FDC79B",
"+.	c #FACFAE",
"@.	c #FECA99",
"#.	c #F7B278",
"$.	c #FEC291",
"%.	c #FFCB9F",
"&.	c #FCBD8C",
"*.	c #FAC08C",
"=.	c #FCD0A5",
"-.	c #F8D4B3",
";.	c #FAD7B7",
">.	c #D8AD8D",
",.	c #98745F",
"'.	c #988276",
").	c #CEC5BE",
"!.	c #C5C1BE",
"~.	c #C4C2C0",
"{.	c #E6E0DB",
"].	c #A5907F",
"^.	c #A98567",
"/.	c #C98E5E",
"(.	c #F6B578",
"_.	c #FBBC80",
":.	c #F8BA8A",
"<.	c #FAC295",
"[.	c #FCC699",
"}.	c #FACFAC",
"|.	c #FECA9A",
"1.	c #F6B47C",
"2.	c #FDC190",
"3.	c #FFCB9D",
"4.	c #FCBD8A",
"5.	c #FCC396",
"6.	c #FDD4B2",
"7.	c #FAD3B4",
"8.	c #F7C99F",
"9.	c #C3844F",
"0.	c #C48C5D",
"a.	c #A37958",
"b.	c #9C7E69",
"c.	c #D9D0C9",
"d.	c #C2BEBB",
"e.	c #979492",
"f.	c #D2CDC8",
"g.	c #C7AD98",
"h.	c #E9C5A4",
"i.	c #F2C49B",
"j.	c #F3AF76",
"k.	c #F5A25D",
"l.	c #FDB571",
"m.	c #FCBC82",
"n.	c #FAC091",
"o.	c #F9C69E",
"p.	c #FACDA8",
"q.	c #FECB9D",
"r.	c #F4B783",
"s.	c #FEC99B",
"t.	c #F9BD8E",
"u.	c #FDCAAA",
"v.	c #FDD0B5",
"w.	c #FDCEA6",
"x.	c #F0A76B",
"y.	c #F09A4E",
"z.	c #F6A354",
"A.	c #D79256",
"B.	c #B48561",
"C.	c #E3C7AD",
"D.	c #E1D7D0",
"E.	c #8F8885",
"F.	c #D6D5D4",
"G.	c #B2A59B",
"H.	c #C39C7D",
"I.	c #F5C296",
"J.	c #FCCB9C",
"K.	c #FCC899",
"L.	c #F8B27A",
"M.	c #F1A365",
"N.	c #FBBC7E",
"O.	c #FCBC88",
"P.	c #F9C195",
"Q.	c #FAC9A0",
"R.	c #FECB9F",
"S.	c #F7BF90",
"T.	c #FCC292",
"U.	c #FEC899",
"V.	c #F9C193",
"W.	c #FDD3AE",
"X.	c #FDD6AC",
"Y.	c #FBBA80",
"Z.	c #F59A53",
"`.	c #FC9F53",
" +	c #F8984A",
".+	c #F8AB6D",
"++	c #FAC49B",
"@+	c #F1C29E",
"#+	c #EBD5C3",
"$+	c #DFDBD7",
"%+	c #746D69",
"&+	c #A5A3A3",
"*+	c #B7B1AC",
"=+	c #816853",
"-+	c #B1805A",
";+	c #F1AA71",
">+	c #FDB87F",
",+	c #FDCB9F",
"'+	c #FCC99E",
")+	c #F7B886",
"!+	c #F0A56A",
"~+	c #FEBB7E",
"{+	c #FEBE88",
"]+	c #FECFA5",
"^+	c #F6C49B",
"/+	c #FBC191",
"(+	c #FEC392",
"_+	c #FCC89C",
":+	c #FDD4A8",
"<+	c #F7C389",
"[+	c #F19D55",
"}+	c #F9A056",
"|+	c #F69F61",
"1+	c #FCB27D",
"2+	c #FDC191",
"3+	c #FCC89F",
"4+	c #F8C6A0",
"5+	c #ECC2A3",
"6+	c #E4D5C9",
"7+	c #B0A9A6",
"8+	c #CBCAC8",
"9+	c #B1A8A1",
"0+	c #947761",
"a+	c #A87247",
"b+	c #EC9958",
"c+	c #FC9F56",
"d+	c #FDB072",
"e+	c #FDC494",
"f+	c #FECA9B",
"g+	c #F9B67D",
"h+	c #F7AD6E",
"i+	c #FDBB82",
"j+	c #FDBE8B",
"k+	c #FDCDA6",
"l+	c #F5C8A3",
"m+	c #FCC596",
"n+	c #FDC291",
"o+	c #FECDA5",
"p+	c #F3CCA6",
"q+	c #DE9B65",
"r+	c #F69C53",
"s+	c #FBA661",
"t+	c #FBBC88",
"u+	c #FBC69A",
"v+	c #FBC79F",
"w+	c #FCCAA4",
"x+	c #FCCBA6",
"y+	c #F6C9A7",
"z+	c #EAD2BF",
"A+	c #D9D3CF",
"B+	c #D8D5D3",
"C+	c #D6C7BC",
"D+	c #EDD4BF",
"E+	c #E9C19E",
"F+	c #F4B27D",
"G+	c #F69E58",
"H+	c #F79B4F",
"I+	c #F6A766",
"J+	c #FCB77B",
"K+	c #FEC284",
"L+	c #FBB97C",
"M+	c #F1B079",
"N+	c #F8BF8F",
"O+	c #F6C59E",
"P+	c #E5BA95",
"Q+	c #F6C39A",
"R+	c #F0CAA8",
"S+	c #CE9E7A",
"T+	c #DB9765",
"U+	c #F9B274",
"V+	c #FFBE82",
"W+	c #FECB98",
"X+	c #F8CC9E",
"Y+	c #FACFA8",
"Z+	c #FCCFAD",
"`+	c #FDD1AE",
" @	c #FAD3B0",
".@	c #EBCDB0",
"+@	c #E8DFD8",
"@@	c #7C7470",
"#@	c #A7A7A7",
"$@	c #DAD4D0",
"%@	c #DEC6B0",
"&@	c #F6DBC5",
"*@	c #FBE0C9",
"=@	c #FCDFC2",
"-@	c #FCD7AC",
";@	c #FAC18B",
">@	c #F3AF75",
",@	c #F2A86B",
"'@	c #EAA569",
")@	c #F7BF87",
"!@	c #EDB787",
"~@	c #D3A67E",
"{@	c #EABC97",
"]@	c #DBB08C",
"^@	c #D8AE8D",
"/@	c #DFBEA0",
"(@	c #C5AB90",
"_@	c #AC825F",
":@	c #E1B38B",
"<@	c #F8CBA1",
"[@	c #FACAA0",
"}@	c #FDD1AA",
"|@	c #FCD4B1",
"1@	c #FDD9BC",
"2@	c #FCD8C0",
"3@	c #FCD9BE",
"4@	c #FBDABE",
"5@	c #EFD3BA",
"6@	c #E8DFD7",
"7@	c #AFACA9",
"8@	c #C4C2C1",
"9@	c #CBBCAD",
"0@	c #E0C4A4",
"a@	c #F2D8BB",
"b@	c #F5E2CB",
"c@	c #F6E2CA",
"d@	c #F9E1C8",
"e@	c #FDE2C6",
"f@	c #FEE1BD",
"g@	c #FAD3A9",
"h@	c #EFC194",
"i@	c #CB976A",
"j@	c #BF936B",
"k@	c #B89575",
"l@	c #A88465",
"m@	c #B99478",
"n@	c #A58469",
"o@	c #D5BBA1",
"p@	c #9B7A61",
"q@	c #D7B499",
"r@	c #F3CDAF",
"s@	c #F5D2B3",
"t@	c #FBD3B3",
"u@	c #FEDBBE",
"v@	c #FCDDC3",
"w@	c #FCDCC3",
"x@	c #FEDABE",
"y@	c #FDD8BC",
"z@	c #F5D0B3",
"A@	c #E5C8AE",
"B@	c #C9BAAC",
"C@	c #C4C0BD",
"D@	c #BEBCBB",
"E@	c #C6B09E",
"F@	c #E5BF9C",
"G@	c #F8D1AE",
"H@	c #FBD8BA",
"I@	c #FCDABC",
"J@	c #FCD9BC",
"K@	c #FBD9BC",
"L@	c #FBD9B8",
"M@	c #FEDDBA",
"N@	c #FDDCB8",
"O@	c #F8D9B6",
"P@	c #E9CBAC",
"Q@	c #C6AA90",
"R@	c #A68B74",
"S@	c #937965",
"T@	c #8C735F",
"U@	c #947A64",
"V@	c #BEA189",
"W@	c #EFCAAC",
"X@	c #FAD5B2",
"Y@	c #FCD3AD",
"Z@	c #FCD4AE",
"`@	c #F9CAA7",
" #	c #FAC8A3",
".#	c #FDC599",
"+#	c #FAC296",
"@#	c #F3C097",
"##	c #CBAB8F",
"$#	c #CAC1B9",
"%#	c #B8B6B5",
"&#	c #AC9587",
"*#	c #E6B492",
"=#	c #F9BE96",
"-#	c #FABF97",
";#	c #FEBF94",
">#	c #FDBE91",
",#	c #FBC496",
"'#	c #FCC89B",
")#	c #F8C89E",
"!#	c #F4C8A1",
"~#	c #ECC6A4",
"{#	c #DBBA9C",
"]#	c #BDA38B",
"^#	c #957C68",
"/#	c #887464",
"(#	c #A08D7F",
"_#	c #A99484",
":#	c #CCB39F",
"<#	c #C7AD99",
"[#	c #D3B49D",
"}#	c #D8B298",
"|#	c #D6AE93",
"1#	c #D4AE92",
"2#	c #D5B198",
"3#	c #D6B197",
"4#	c #D6AF8E",
"5#	c #D8AE8C",
"6#	c #D3A886",
"7#	c #BA9171",
"8#	c #B99D87",
"9#	c #CDC6C0",
"0#	c #B8B5B5",
"a#	c #957E6E",
"b#	c #D9A67D",
"c#	c #F9BD8F",
"d#	c #FCBF91",
"e#	c #FDBF8E",
"f#	c #FEC18D",
"g#	c #FDC18C",
"h#	c #FEC591",
"i#	c #FDC694",
"j#	c #FBC392",
"k#	c #F8C292",
"l#	c #E5B185",
"m#	c #A98366",
"n#	c #8F745F",
"o#	c #917E6F",
"p#	c #B5A79C",
"q#	c #B6A599",
"r#	c #C4AF9F",
"s#	c #C6B5A6",
"t#	c #D8C7B7",
"u#	c #E3CCB9",
"v#	c #EFD6C0",
"w#	c #F2D9C2",
"x#	c #F1D9C4",
"y#	c #EEDBCA",
"z#	c #ECDDCD",
"A#	c #F0DBC8",
"B#	c #F6DDC8",
"C#	c #F7DBC7",
"D#	c #E7D4C6",
"E#	c #DED8D5",
"F#	c #BDBAB9",
"G#	c #B39D89",
"H#	c #E1B083",
"I#	c #FABF8A",
"J#	c #FAC38F",
"K#	c #F9C393",
"L#	c #FBC393",
"M#	c #F8BE8D",
"N#	c #FBBF8E",
"O#	c #F9BB88",
"P#	c #F8B881",
"Q#	c #F1B57A",
"R#	c #F2B780",
"S#	c #BD936E",
"T#	c #8F6F55",
"U#	c #958170",
"V#	c #B7A99E",
"W#	c #BCAA9A",
"X#	c #C8AF98",
"Y#	c #E3C5AA",
"Z#	c #DFBB9D",
"`#	c #E9C3A2",
" $	c #EAC3A1",
".$	c #EBC4A3",
"+$	c #EACAAD",
"@$	c #ECD1B8",
"#$	c #F0D0B3",
"$$	c #F6D0B2",
"%$	c #E2C6B1",
"&$	c #D9D2CD",
"*$	c #BDBBBB",
"=$	c #A4968B",
"-$	c #DAAC85",
";$	c #F5B880",
">$	c #FDB97E",
",$	c #FCB982",
"'$	c #FBB784",
")$	c #F9B582",
"!$	c #F7B17D",
"~$	c #F9B883",
"{$	c #FCC28B",
"]$	c #F9BE86",
"^$	c #ECAE76",
"/$	c #E9B485",
"($	c #D2AB87",
"_$	c #BAA188",
":$	c #B9A999",
"<$	c #C7B8A9",
"[$	c #E2CEBC",
"}$	c #EACDB5",
"|$	c #E5C3A8",
"1$	c #ECC8AC",
"2$	c #F4CDAE",
"3$	c #F0C6A5",
"4$	c #EDC2A0",
"5$	c #E9BE9B",
"6$	c #EABE98",
"7$	c #ECBB91",
"8$	c #CA996F",
"9$	c #B68C68",
"0$	c #BEAB9A",
"a$	c #C1BDBA",
"b$	c #AAA9A9",
"c$	c #C3BDB8",
"d$	c #B99373",
"e$	c #E8B07E",
"f$	c #F5B37C",
"g$	c #F3AF7B",
"h$	c #F5B380",
"i$	c #FCBC87",
"j$	c #FDC28D",
"k$	c #FDC48F",
"l$	c #F7B883",
"m$	c #F5B37E",
"n$	c #FABF90",
"o$	c #EAC29E",
"p$	c #C8A88F",
"q$	c #DAC4B3",
"r$	c #CAB3A3",
"s$	c #EFD4C0",
"t$	c #F0D1BA",
"u$	c #EECDB3",
"v$	c #EBC8AC",
"w$	c #EBC4A6",
"x$	c #F3CAAA",
"y$	c #F5CAA9",
"z$	c #F2C8A7",
"A$	c #F0C6A3",
"B$	c #F0BE92",
"C$	c #DBA476",
"D$	c #956943",
"E$	c #C4B9B0",
"F$	c #A6A4A2",
"G$	c #C9C6C4",
"H$	c #90765F",
"I$	c #B08158",
"J$	c #EAB281",
"K$	c #F9BF8E",
"L$	c #FCC08E",
"M$	c #FEC58F",
"N$	c #FDC28C",
"O$	c #F1B17B",
"P$	c #F6B581",
"Q$	c #FEC08D",
"R$	c #FDC08E",
"S$	c #FCC394",
"T$	c #EDBB95",
"U$	c #D5AE94",
"V$	c #E5C7B5",
"W$	c #E1C3B0",
"X$	c #E4C2AA",
"Y$	c #F2D2B9",
"Z$	c #F0D0B7",
"`$	c #EFCDB2",
" %	c #EDC8AB",
".%	c #E9C1A3",
"+%	c #ECC4A3",
"@%	c #F5CEAD",
"#%	c #F4CBA8",
"$%	c #F8C498",
"%%	c #EDB586",
"&%	c #B9906E",
"*%	c #CCC5BF",
"=%	c #6C6968",
"-%	c #C7C6C5",
";%	c #A6988C",
">%	c #C9A585",
",%	c #F3C196",
"'%	c #FCC496",
")%	c #FCC390",
"!%	c #F4B77E",
"~%	c #F0B17B",
"{%	c #FABA87",
"]%	c #FEBF8D",
"^%	c #FDC08F",
"/%	c #FBBD8E",
"(%	c #FDC697",
"_%	c #EDB78F",
":%	c #E2B89B",
"<%	c #EAC8B2",
"[%	c #ECC8B1",
"}%	c #E7BEA2",
"|%	c #F4D1B7",
"1%	c #F0D2BA",
"2%	c #EFCFB5",
"3%	c #F0CCB1",
"4%	c #EFC9AB",
"5%	c #ECC4A4",
"6%	c #E7BE9D",
"7%	c #ECC09A",
"8%	c #F0BF95",
"9%	c #E8B98F",
"0%	c #D6BCA7",
"a%	c #C3BFBC",
"b%	c #AFADAC",
"c%	c #BEB8B1",
"d%	c #BDA186",
"e%	c #E9BC94",
"f%	c #F6BB8C",
"g%	c #F4AF7B",
"h%	c #F5B27B",
"i%	c #F9B983",
"j%	c #FFC18D",
"k%	c #F8BE8F",
"l%	c #FDC798",
"m%	c #FABF8C",
"n%	c #EFBA90",
"o%	c #DDB594",
"p%	c #ECC8AE",
"q%	c #F4CFB2",
"r%	c #EEC4A2",
"s%	c #F2CFB4",
"t%	c #EFD2BB",
"u%	c #F1D2B8",
"v%	c #F0CCAF",
"w%	c #F0CAAB",
"x%	c #F2C5A1",
"y%	c #DEAA7E",
"z%	c #B3865D",
"A%	c #B89778",
"B%	c #DACEC4",
"C%	c #A9A5A2",
"D%	c #D9D8D7",
"E%	c #B7AA9E",
"F%	c #B18967",
"G%	c #D39768",
"H%	c #ECA671",
"I%	c #FDBB86",
"J%	c #FDBD8A",
"K%	c #FDC390",
"L%	c #F6C192",
"M%	c #FECB9C",
"N%	c #FBC08C",
"O%	c #EFBC90",
"P%	c #F0C8A6",
"Q%	c #EECDB1",
"R%	c #F2CEAE",
"S%	c #EDC39E",
"T%	c #E7C4A7",
"U%	c #F1D4BE",
"V%	c #F1D4BD",
"W%	c #F1CCB0",
"X%	c #F1CAAC",
"Y%	c #F5C49C",
"Z%	c #F4BB8B",
"`%	c #B88F6B",
" &	c #B3A598",
".&	c #D6D4D2",
"+&	c #A2A09E",
"@&	c #CFCBC7",
"#&	c #836C58",
"$&	c #A37551",
"%&	c #F0B789",
"&&	c #F8C18F",
"*&	c #FBC391",
"=&	c #F7BD8D",
"-&	c #F5BB8B",
";&	c #FECD9D",
">&	c #FEC493",
",&	c #FBBA83",
"'&	c #EDB88C",
")&	c #EDC8A8",
"!&	c #EACDB6",
"~&	c #EECFB5",
"{&	c #EFC7A7",
"]&	c #E5BD9B",
"^&	c #F3D4B9",
"/&	c #EBD2BF",
"(&	c #EFD1BD",
"_&	c #F3CAAB",
":&	c #F6C8A4",
"<&	c #F3C096",
"[&	c #E6B387",
"}&	c #B6967B",
"|&	c #CEC8C2",
"1&	c #938F8D",
"2&	c #C9C8C7",
"3&	c #D1CCC9",
"4&	c #A9907B",
"5&	c #DBB087",
"6&	c #F2BC88",
"7&	c #F2BA88",
"8&	c #FAC696",
"9&	c #FDCB9D",
"0&	c #F8BE90",
"a&	c #F4B889",
"b&	c #E2B28C",
"c&	c #E7CDB9",
"d&	c #ECD1BB",
"e&	c #ECCAAE",
"f&	c #EDC19B",
"g&	c #EEC7A6",
"h&	c #F2D3BE",
"i&	c #F1CEB7",
"j&	c #FBCDA8",
"k&	c #F3C197",
"l&	c #EBBD95",
"m&	c #DAB99D",
"n&	c #D1C9C2",
"o&	c #C0BEBC",
"p&	c #CDC7C1",
"q&	c #B3967C",
"r&	c #DFB589",
"s&	c #ECBC8D",
"t&	c #EFBA8B",
"u&	c #FCCA9A",
"v&	c #FDC393",
"w&	c #F6BA8B",
"x&	c #EFB98F",
"y&	c #E5B995",
"z&	c #EEC9AD",
"A&	c #EBCCB4",
"B&	c #F0D0B6",
"C&	c #F0CAAD",
"D&	c #EFBE95",
"E&	c #E1B38F",
"F&	c #F5D0B5",
"G&	c #F6CDAF",
"H&	c #F8C79F",
"I&	c #EFBF94",
"J&	c #D1B092",
"K&	c #D9D0C8",
"L&	c #C1BEBC",
"M&	c #CAC8C7",
"N&	c #D0CBC7",
"O&	c #9B8772",
"P&	c #927255",
"Q&	c #ECC29C",
"R&	c #F6C496",
"S&	c #F9BB86",
"T&	c #F1AF7A",
"U&	c #D19D73",
"V&	c #D2A37C",
"W&	c #F4C8A4",
"X&	c #EFC39F",
"Y&	c #F9CCA8",
"Z&	c #F6C6A0",
"`&	c #EAB88D",
" *	c #AC805B",
".*	c #E2BCA1",
"+*	c #F1CAAD",
"@*	c #E6B893",
"#*	c #DABA9A",
"$*	c #E5DDD4",
"%*	c #C4C2BF",
"&*	c #CAC9C7",
"**	c #CCC9C6",
"=*	c #BAB1A8",
"-*	c #C3AA93",
";*	c #CFA988",
">*	c #CEA077",
",*	c #B88257",
"'*	c #9A704F",
")*	c #AC805E",
"!*	c #ECBD97",
"~*	c #E9B88F",
"{*	c #F7C9A0",
"]*	c #F3C39B",
"^*	c #D0A580",
"/*	c #917054",
"(*	c #A28772",
"_*	c #C3A691",
":*	c #DDCBBD",
"<*	c #DBD3CD",
"[*	c #DBDAD9",
"}*	c #C3BDB9",
"|*	c #AA9E94",
"1*	c #7D6959",
"2*	c #735C4A",
"3*	c #786251",
"4*	c #93765F",
"5*	c #D2AD90",
"6*	c #C39A78",
"7*	c #DAB190",
"8*	c #D7B192",
"9*	c #91745A",
"0*	c #7D6B5C",
"a*	c #9C928B",
"b*	c #C4BDB8",
"c*	c #DCD9D8",
"d*	c #9A9695",
"e*	c #B4B3B1",
"f*	c #CCCBCA",
"g*	c #C9C7C5",
"h*	c #BFBCB9",
"i*	c #928B85",
"j*	c #93867C",
"k*	c #AD9C90",
"l*	c #958375",
"m*	c #B3A294",
"n*	c #A19388",
"o*	c #C1BBB6",
"p*	c #C9C7C6",
"q*	c #ACAAA9",
"r*	c #BDBCBB",
"s*	c #CAC9C8",
"t*	c #C4C1C0",
"u*	c #C2C0BF",
"v*	c #C2C0BE",
"                      . + @ # $ % & * = -                       ",
"                  ; > , ' ) ! ~ { ] ^ / ( _ :                   ",
"              < [ } | 1 2 3 4 5 6 7 8 9 0 a b c d               ",
"            e f g h i j k l m n o p q r s t u v w x             ",
"          y z A B C D E F G H I J K L M N O P Q R S T           ",
"        U V W X Y Z `  ...+.@.#.$.%.&.*.=.-.;.>.,.'.).!.        ",
"      ~.{.].^./.(._.:.<.[.}.|.1.2.3.4.5.6.7.8.9.0.a.b.c.d.      ",
"    e.f.g.h.i.j.k.l.m.n.o.p.q.r.2.s.t.u.v.w.x.y.z.A.B.C.D.E.    ",
"    F.G.H.I.J.K.L.M.N.O.P.Q.R.S.T.U.V.W.X.Y.Z.`. +.+++@+#+$+%+  ",
"  &+*+=+-+;+>+,+'+)+!+~+{+T.]+^+/+(+_+:+<+[+}+|+1+2+3+4+5+6+7+  ",
"  8+9+0+a+b+c+d+e+f+g+h+i+j+k+l+m+n+o+p+q+r+s+t+u+v+w+x+y+z+A+  ",
"  B+C+D+E+F+G+H+I+J+K+L+M+N+O+P+Q+^+R+S+T+U+V+W+X+Y+Z+`+ @.@+@@@",
"#@$@%@&@*@=@-@;@>@,@'@)@!@~@{@]@^@/@(@_@:@<@[@}@|@1@2@3@4@5@6@7@",
"8@9@0@a@b@c@d@e@f@g@h@i@j@k@l@m@n@o@p@q@r@s@t@u@v@w@x@y@z@A@B@C@",
"D@E@F@G@H@I@J@K@L@M@N@O@P@Q@R@S@T@U@V@W@X@Y@Z@x+`@ #.#5.+#@###$#",
"%#&#*#=#-#;#>#,#'#)#!#~#{#]#^#/#(#_#:#<#[#}#|#1#2#3#4#5#6#7#8#9#",
"0#a#b#c#d#e#f#g#h#i#j#k#l#m#n#o#p#q#r#s#t#u#v#w#x#y#z#A#B#C#D#E#",
"F#G#H#I#J#K#L#M#N#O#P#Q#R#S#T#U#G.V#W#X#Y#Z#`# $.$+$@$#$$$r@%$&$",
"*$=$-$;$>$,$'$)$!$~${$]$^$/$($_$:$<$[$}$|$1$2$3$4$5$6$7$8$9$0$a$",
"b$c$d$e$f$g$h$i$j$k$l$m$t+n$o$p$q$r$s$t$u$v$w$x$y$z$A$B$C$D$E$F$",
"  G$H$I$J$K$L$M$N$O$P$Q$R$S$T$U$V$W$X$Y$Z$`$ %.%+%@%#%$%%%&%*%=%",
"  -%;%>%,%'%)%!%~%{%]%^%/%(%_%:%<%[%}%|%1%2%3%4%5%6%7%8%9%0%a%  ",
"  b%c%d%e%f%g%h%i%j%n+k%l%m%n%o%p%q%r%s%t%u%s%v%w%x%y%z%A%B%C%  ",
"    D%E%F%G%H%I%J%K%N+L%M%N%O%P%Q%R%S%T%U%V%2%W%X%Y%Z%`% &.&    ",
"    +&@&#&$&%&&&*&=&-&;&>&,&'&)&!&~&{&]&^&/&(&_&:&<&[&}&|&1&    ",
"      2&3&4&5&6&J#7&8&9&0&a&b&|$c&d&e&f&g&h&i&j&k&l&m&n&o&      ",
"        2&p&q&r&s&t&u&v&w&x&y&z&A&B&C&D&E&F&G&H&I&J&K&L&        ",
"          M&N&O&P&Q&R&S&T&U&V&W&X&Y&Z&`& *.*+*@*#*$*%*          ",
"            &***=*-*;*>*,*'*)*!*~*{*]*^*/*(*_*:*<*e             ",
"              +&[*}*|*1*2*3*4*5*6*7*8*9*0*a*b*c*d*              ",
"                  e*f*g*h*i*j*k*l*m*n*o*G$p*q*                  ",
"                        r*s*t*u*v*U f*%#                        "};
