/* XPM */
static char * clusterssh_32x32_xpm[] = {
"32 32 465 2",
"  	c None",
". 	c #000000",
"+ 	c #E7E5E2",
"@ 	c #E6E4E0",
"# 	c #E9E7E3",
"$ 	c #EAE8E5",
"% 	c #EAE9E4",
"& 	c #EBEAE5",
"* 	c #EBEBE6",
"= 	c #EBEAE6",
"- 	c #E8E6E1",
"; 	c #E5E3DE",
"> 	c #E2E1DB",
", 	c #E0DED9",
"' 	c #DDDBD5",
") 	c #D6D4CE",
"! 	c #D0CDC6",
"~ 	c #CCC8C2",
"{ 	c #C5C2BC",
"] 	c #C1BDB7",
"^ 	c #BBB8B2",
"/ 	c #B5B3AB",
"( 	c #B1ADA6",
"_ 	c #ACA7A0",
": 	c #E7E5E1",
"< 	c #D7D5CC",
"[ 	c #C8C6BE",
"} 	c #CAC7C0",
"| 	c #CBC9C2",
"1 	c #CCCAC3",
"2 	c #CDCBC4",
"3 	c #CDCAC4",
"4 	c #CDCAC3",
"5 	c #CBC8C2",
"6 	c #C8C6BF",
"7 	c #C7C3BC",
"8 	c #C4C0B9",
"9 	c #C1BDB6",
"0 	c #BDBAB2",
"a 	c #BBB6AF",
"b 	c #B4B1AA",
"c 	c #B0ACA4",
"d 	c #AAA69F",
"e 	c #A5A299",
"f 	c #9F9B93",
"g 	c #A7A39A",
"h 	c #A19C94",
"i 	c #9D9990",
"j 	c #E8E6E2",
"k 	c #C7C5BD",
"l 	c #5F5F5A",
"m 	c #1E1E1C",
"n 	c #2A2A27",
"o 	c #2A2A28",
"p 	c #2A2B28",
"q 	c #292826",
"r 	c #282725",
"s 	c #272725",
"t 	c #262623",
"u 	c #252522",
"v 	c #232320",
"w 	c #21211F",
"x 	c #20201E",
"y 	c #6E6D65",
"z 	c #A09C93",
"A 	c #98948B",
"B 	c #282826",
"C 	c #5B6259",
"D 	c #5D645C",
"E 	c #62685F",
"F 	c #656C63",
"G 	c #686F67",
"H 	c #6A7168",
"I 	c #6A7169",
"J 	c #6D736C",
"K 	c #6C716A",
"L 	c #676D65",
"M 	c #656A64",
"N 	c #626760",
"O 	c #5E645D",
"P 	c #5B5F59",
"Q 	c #545A53",
"R 	c #4D524C",
"S 	c #484C47",
"T 	c #3E433C",
"U 	c #172E2A",
"V 	c #A8A49A",
"W 	c #949087",
"X 	c #4B504A",
"Y 	c #8D908D",
"Z 	c #909390",
"` 	c #939693",
" .	c #969996",
"..	c #979A97",
"+.	c #989B98",
"@.	c #949894",
"#.	c #919491",
"$.	c #8D918D",
"%.	c #898D89",
"&.	c #848784",
"*.	c #7A7D7A",
"=.	c #6F736F",
"-.	c #5F635F",
";.	c #525552",
">.	c #2B2F2B",
",.	c #152D2B",
"'.	c #A6A197",
").	c #8E8A81",
"!.	c #E4E2DE",
"~.	c #C3C0B9",
"{.	c #5E635D",
"].	c #9A9D9A",
"^.	c #9EA29E",
"/.	c #A2A6A2",
"(.	c #A4A7A4",
"_.	c #A6A9A6",
":.	c #A6AAA6",
"<.	c #A5A8A5",
"[.	c #A3A6A3",
"}.	c #A1A4A1",
"|.	c #9EA19E",
"1.	c #9A9E9A",
"2.	c #8D928D",
"3.	c #FFFFFF",
"4.	c #777B77",
"5.	c #656A65",
"6.	c #585D58",
"7.	c #373B37",
"8.	c #182F2D",
"9.	c #A29D93",
"0.	c #89847C",
"a.	c #E2DFDB",
"b.	c #BFBCB4",
"c.	c #272624",
"d.	c #525550",
"e.	c #929592",
"f.	c #9DA09D",
"g.	c #9FA39F",
"h.	c #9DA19D",
"i.	c #858885",
"j.	c #7D817D",
"k.	c #636663",
"l.	c #535853",
"m.	c #464B46",
"n.	c #2E322E",
"o.	c #192F2E",
"p.	c #9C988D",
"q.	c #837F76",
"r.	c #DFDDD8",
"s.	c #BBB7B0",
"t.	c #262624",
"u.	c #646862",
"v.	c #9CA09C",
"w.	c #A0A4A0",
"x.	c #A7ABA7",
"y.	c #ABAFAB",
"z.	c #ACB1AC",
"A.	c #A7ACA7",
"B.	c #A4A8A4",
"C.	c #9FA49F",
"D.	c #8B8F8B",
"E.	c #818781",
"F.	c #696E69",
"G.	c #585E58",
"H.	c #4B514B",
"I.	c #393D39",
"J.	c #19302F",
"K.	c #989389",
"L.	c #7D7A71",
"M.	c #D8D6D1",
"N.	c #B5B1A9",
"O.	c #747874",
"P.	c #E8E9E8",
"Q.	c #FDFDFD",
"R.	c #979B97",
"S.	c #CBCECB",
"T.	c #F7F7F7",
"U.	c #8E938E",
"V.	c #C3C5C3",
"W.	c #F5F5F5",
"X.	c #686D68",
"Y.	c #A5A7A5",
"Z.	c #F4F4F4",
"`.	c #F0F0F0",
" +	c #7B7C7B",
".+	c #1A302F",
"++	c #928D82",
"@+	c #77736A",
"#+	c #D2D0CA",
"$+	c #242322",
"%+	c #E2E3E2",
"&+	c #C1C3C1",
"*+	c #999C99",
"=+	c #999E99",
"-+	c #9BA09B",
";+	c #FAFAFA",
">+	c #C0C4C0",
",+	c #959B95",
"'+	c #919791",
")+	c #B1B4B1",
"!+	c #808580",
"~+	c #757B75",
"{+	c #6E756E",
"]+	c #545A54",
"^+	c #787C78",
"/+	c #EEEEEE",
"(+	c #8D887E",
"_+	c #726E65",
":+	c #CCCAC5",
"<+	c #A9A59D",
"[+	c #232220",
"}+	c #FCFCFC",
"|+	c #7E837E",
"1+	c #737973",
"2+	c #6E736E",
"3+	c #DADBDA",
"4+	c #F5F6F5",
"5+	c #BDC0BD",
"6+	c #9FA29F",
"7+	c #DCDDDC",
"8+	c #F3F4F3",
"9+	c #B0B3B0",
"0+	c #575D57",
"a+	c #4A4F4A",
"b+	c #3F433F",
"c+	c #363A36",
"d+	c #1A312F",
"e+	c #888378",
"f+	c #6C675F",
"g+	c #C8C6C1",
"h+	c #A4A097",
"i+	c #22211F",
"j+	c #B6B8B6",
"k+	c #7C827C",
"l+	c #727772",
"m+	c #6E746E",
"n+	c #686F68",
"o+	c #FAFBFA",
"p+	c #797F79",
"q+	c #8A8F8A",
"r+	c #646A64",
"s+	c #555C55",
"t+	c #4A4E4A",
"u+	c #414541",
"v+	c #847F74",
"w+	c #67635A",
"x+	c #C3C0BA",
"y+	c #9D988F",
"z+	c #201F1E",
"A+	c #727571",
"B+	c #E3E4E3",
"C+	c #B7BAB7",
"D+	c #F2F2F2",
"E+	c #A8ABA8",
"F+	c #515651",
"G+	c #464C46",
"H+	c #3E423E",
"I+	c #383C38",
"J+	c #7F7B6F",
"K+	c #625E55",
"L+	c #BDBBB5",
"M+	c #969289",
"N+	c #1F1E1C",
"O+	c #5C625B",
"P+	c #5E635E",
"Q+	c #6D736D",
"R+	c #6A706A",
"S+	c #676E67",
"T+	c #646964",
"U+	c #5E655E",
"V+	c #5A605A",
"W+	c #545954",
"X+	c #4A504A",
"Y+	c #464A46",
"Z+	c #323632",
"`+	c #19302E",
" @	c #7C776C",
".@	c #5D5A51",
"+@	c #8D8A81",
"@@	c #1D1C1A",
"#@	c #4A4D48",
"$@	c #575C57",
"%@	c #5A5F5A",
"&@	c #565B56",
"*@	c #4C514C",
"=@	c #666C66",
"-@	c #626862",
";@	c #5D635D",
">@	c #4E534E",
",@	c #474C47",
"'@	c #434643",
")@	c #404340",
"!@	c #282B28",
"~@	c #172E2C",
"{@	c #777367",
"]@	c #58554C",
"^@	c #ACA8A1",
"/@	c #88847B",
"(@	c #1B1A18",
"_@	c #555A54",
":@	c #4F544F",
"<@	c #2F322F",
"[@	c #746F63",
"}@	c #545148",
"|@	c #A39F99",
"1@	c #817C73",
"2@	c #1A1917",
"3@	c #41453F",
"4@	c #494D49",
"5@	c #474A47",
"6@	c #222622",
"7@	c #162D2B",
"8@	c #706B5F",
"9@	c #4F4B42",
"0@	c #9D9A93",
"a@	c #7A766D",
"b@	c #181715",
"c@	c #484B47",
"d@	c #4A514A",
"e@	c #4C534C",
"f@	c #4D544D",
"g@	c #515551",
"h@	c #505550",
"i@	c #4E544E",
"j@	c #4C524C",
"k@	c #323732",
"l@	c #2C312C",
"m@	c #2A2E2A",
"n@	c #252A25",
"o@	c #0D2422",
"p@	c #6D685B",
"q@	c #4B483F",
"r@	c #95928A",
"s@	c #736E65",
"t@	c #4C4C44",
"u@	c #272A22",
"v@	c #232520",
"w@	c #252722",
"x@	c #262724",
"y@	c #272925",
"z@	c #272A25",
"A@	c #292A26",
"B@	c #282925",
"C@	c #272825",
"D@	c #242522",
"E@	c #232420",
"F@	c #22221F",
"G@	c #20211E",
"H@	c #1F1F1C",
"I@	c #252721",
"J@	c #45483C",
"K@	c #6A6658",
"L@	c #4B483E",
"M@	c #908D85",
"N@	c #767268",
"O@	c #827E73",
"P@	c #898478",
"Q@	c #898579",
"R@	c #898479",
"S@	c #878377",
"T@	c #858175",
"U@	c #837E73",
"V@	c #807B70",
"W@	c #7E796D",
"X@	c #7A7569",
"Y@	c #767266",
"Z@	c #736E63",
"`@	c #706C60",
" #	c #6D695D",
".#	c #6B675A",
"+#	c #686457",
"@#	c #666155",
"##	c #646053",
"$#	c #625E51",
"%#	c #605C4F",
"&#	c #5F5B4E",
"*#	c #555146",
"=#	c #87847C",
"-#	c #6F6B61",
";#	c #706B61",
">#	c #706C61",
",#	c #716B61",
"'#	c #6F6A60",
")#	c #6E695F",
"!#	c #6B675C",
"~#	c #696459",
"{#	c #666257",
"]#	c #635F54",
"^#	c #605C52",
"/#	c #5E5A4F",
"(#	c #5B574C",
"_#	c #59554A",
":#	c #565348",
"<#	c #555247",
"[#	c #534F45",
"}#	c #514E43",
"|#	c #4F4C42",
"1#	c #4E4A40",
"2#	c #4D493F",
"3#	c #4C483E",
"4#	c #827F76",
"5#	c #6A665C",
"6#	c #6B675D",
"7#	c #6A665B",
"8#	c #69645A",
"9#	c #676358",
"0#	c #646056",
"a#	c #625E53",
"b#	c #5F5B50",
"c#	c #5D594E",
"d#	c #5B574D",
"e#	c #575449",
"f#	c #545045",
"g#	c #524E44",
"h#	c #504D43",
"i#	c #4F4B40",
"j#	c #4C493F",
"k#	c #373530",
"l#	c #49463F",
"m#	c #504D45",
"n#	c #524F47",
"o#	c #54514A",
"p#	c #57544C",
"q#	c #58554E",
"r#	c #5A574F",
"s#	c #59564F",
"t#	c #57554D",
"u#	c #55524B",
"v#	c #524E48",
"w#	c #504C46",
"x#	c #4C4942",
"y#	c #4A4740",
"z#	c #48453E",
"A#	c #45423B",
"B#	c #423F37",
"C#	c #3F3C35",
"D#	c #3E3B33",
"E#	c #3D3A33",
"F#	c #3D3A32",
"G#	c #32302A",
"H#	c #050505",
"I#	c #191919",
"J#	c #020202",
"K#	c #373531",
"L#	c #4B4941",
"M#	c #525049",
"N#	c #595750",
"O#	c #615F59",
"P#	c #686560",
"Q#	c #6F6D68",
"R#	c #716F6A",
"S#	c #6F6D67",
"T#	c #6C6964",
"U#	c #686661",
"V#	c #65635E",
"W#	c #5C5B54",
"X#	c #57564F",
"Y#	c #52504A",
"Z#	c #4B4942",
"`#	c #46443D",
" $	c #44413A",
".$	c #434038",
"+$	c #444038",
"@$	c #1F1E1A",
"#$	c #0E0E0E",
"                                                                ",
"                                                                ",
"    . . . . . . . . . . . . . . . . . . . . . . . . . . . .     ",
"    . + @ # $ % & * = * = % - @ ; > , ' ) ! ~ { ] ^ / ( _ .     ",
"    . : < [ } | 1 2 3 2 4 5 } 6 7 8 9 0 a b c d e f g h i .     ",
"    . j k l m n n o o p o o o n n q r s t u v w x m y z A .     ",
"    . # [ B C D E F G H I J K I G L M N O P Q R S T U V W .     ",
"    . : 7 s X Y Z `  .....+. .@.` #.$.%.&.*.=.-.;.>.,.'.)..     ",
"    . !.~.s {.].^./.(._.:._.<.[.}.|.1.@.2.3.4.5.6.7.8.9.0..     ",
"    . a.b.c.d.e. .].f.g.g.g.h.]...` $.i.j.3.k.l.m.n.o.p.q..     ",
"    . r.s.t.u.v.w.<.x.y.z.y.A.B.C.1.@.D.E.3.F.G.H.I.J.K.L..     ",
"    . M.N.u O.P.Q.3.R.S.T.3.3.U.V.W.3.3.X.3.Y.Z.`. +.+++@+.     ",
"    . #+c $+%+&+*+=+-+;+>+-+,+'+;+)+!+~+{+3.g.]+^+/+J.(+_+.     ",
"    . :+<+[+}+|+1+2+X.R.3+4+5+1+6+7+8+9+0+3.a+b+c+3.d+e+f+.     ",
"    . g+h+i+%+j+k+~+l+m+n+*+o+p+~+l+q+;+r+3.s+t+u+3..+v+w+.     ",
"    . x+y+z+A+B+Q.3.0+3.3.Z.C+2+3.3.D+E+F+3.G+H+I+3.J.J+K+.     ",
"    . L+M+N+O+2+m+n+r+P+s+|+p+~+Q+R+S+T+U+V+W+X+Y+Z+`+ @.@.     ",
"    . b +@@@#@$@%@&@F+*@G+=@-@;@0+&@l.F+>@a+,@'@)@!@~@{@]@.     ",
"    . ^@/@(@_@P+S+T+U+V+W+2+m+n+Q+R+S+T+U+V+W+:@*@<@~@[@}@.     ",
"    . |@1@2@3@,@l.F+>@a+,@$@%@&@Q+R+S+T+U+V+4@5@5@6@7@8@9@.     ",
"    . 0@a@b@c@d@e@f@g@g@g@h@i@j@g@g@h@i@j@a+k@l@m@n@o@p@q@.     ",
"    . r@s@t@u@v@w@x@y@z@A@A@A@A@B@C@x@u D@E@F@G@H@I@J@K@L@.     ",
"    . M@N@O@P@Q@R@P@S@T@U@V@W@X@Y@Z@`@ #.#+#@###$#%#&#*#L@.     ",
"    . =#-#;#;#>#,#'#)#!#~#{#]#^#/#(#_#:#<#[#}#|#1#2#3#L@L@.     ",
"    . 4#5#6#6#6#6#7#8#9#0#a#b#c#d#_#e#<#f#g#h#i#1#j#L@L@L@.     ",
"    . . k#l#m#n#o#p#q#r#s#t#u#v#w#x#y#z#A#B#C#D#E#E#F#G#. H#    ",
"      I#J#K#L#M#N#O#P#Q#R#S#T#U#V#O#W#X#Y#Z#`# $.$.$+$@$#$      ",
"        . . . . . . . . . . . . . . . . . . . . . . . .         ",
"                                                                ",
"                                                                ",
"                                                                ",
"                                                                "};
