/* XPM */
static char *pyracerz[] = {
/* columns rows colors chars-per-pixel */
"32 32 128 2",
"   c #050405",
".  c #070905",
"X  c #021024",
"o  c #04111C",
"O  c #001133",
"+  c #0C1113",
"@  c #131412",
"#  c #181C1F",
"$  c #072553",
"%  c #1F241C",
"&  c #0A284D",
"*  c #1A2837",
"=  c #252729",
"-  c #1D2A42",
";  c #043170",
":  c #272B37",
">  c #1C2E5E",
",  c #202F4E",
"<  c #162F70",
"1  c #2C3032",
"2  c #09376E",
"3  c #123961",
"4  c #203756",
"5  c #0C3F72",
"6  c #014281",
"7  c #273B4F",
"8  c #273863",
"9  c #044498",
"0  c #253C72",
"q  c #14448C",
"w  c #3B3F41",
"e  c #194874",
"r  c #284468",
"t  c #414750",
"y  c #214E89",
"u  c #0D53A6",
"i  c #454A4C",
"p  c #2E4C82",
"a  c #21509D",
"s  c #1B5795",
"d  c #2A5483",
"f  c #22549D",
"g  c #BE1E17",
"h  c #1658B4",
"j  c #1D599F",
"k  c #105DAF",
"l  c #514F52",
"z  c #285798",
"x  c #48525E",
"c  c #5D551B",
"v  c #3A5679",
"b  c #505457",
"n  c #295D9E",
"m  c #565755",
"M  c #4F5A5B",
"N  c #1A63C8",
"B  c #2162BD",
"V  c #2762AD",
"C  c #066FD6",
"Z  c #445F83",
"A  c #176AC3",
"S  c #2267BB",
"D  c #545F77",
"F  c #1D6CCD",
"G  c #3469AB",
"H  c #436694",
"J  c #3E6BA1",
"K  c #2573CD",
"L  c #796B14",
"P  c #2A73C7",
"I  c #3371BE",
"U  c #3F75AE",
"Y  c #6D6F6C",
"T  c #287DE0",
"R  c #587495",
"E  c #387AD6",
"W  c #69788A",
"Q  c #4280CF",
"!  c #4081D7",
"~  c #4682C4",
"^  c #7D7F7C",
"/  c #428CE8",
"(  c #5C89BC",
")  c #4F8EDE",
"_  c #A28D16",
"`  c #968E64",
"'  c #5896E6",
"]  c #6595DB",
"[  c #6797D6",
"{  c #919390",
"}  c #6F9CCF",
"|  c #6F9FDE",
" . c #BAA710",
".. c #6FA5EB",
"X. c #9F9E96",
"o. c #97A2B0",
"O. c #78ABE8",
"+. c #81ACE0",
"@. c #AEB1AE",
"#. c #8BB9EF",
"$. c #A9B4C2",
"%. c #A8BDD2",
"&. c #A4C4EE",
"*. c #A9C5DC",
"=. c #ACC4E4",
"-. c #B6C6D9",
";. c #C8CCBB",
":. c #C6CFCA",
">. c #AED3F6",
",. c #F5D925",
"<. c #CBD4D5",
"1. c #D8D2D1",
"2. c #CFD9E4",
"3. c #CBDBEE",
"4. c #F6E456",
"5. c #C9DDF7",
"6. c #E0DCD4",
"7. c #E4E0DB",
"8. c #DFE5E7",
"9. c #D8E6F8",
"0. c #E9EBE8",
"q. c #E3ECF4",
"w. c #EFEAE8",
"e. c #F4F7F3",
"r. c #F1F8FC",
"t. c #FEF6E8",
"y. c #FFFEF4",
"u. c #FDFFFC",
/* pixels */
"                    % c L c %                                   ",
"                  c  .,.,.,.,.c             %   %               ",
"                % ,. .{ ;.{  .,._ #     c _ ,.,.,.L             ",
"                 . .;.8.0.0.8. .4.,.,. .,._ { `  .4.4.          ",
"              L ,.{ 0.0.0.0.0.` 4.,.,.,._ 8.8.0.q. .4.L         ",
"               . .0.r.8.0.0.0.@.,.,.,._ 8.0.0.0.8.@.,. .        ",
"            c ,. .8.0.r.8.0.8.@.,.,.,.@.e.8.r.0.0.8. .,.%       ",
"          %  .,._ 0.0.0.0.r.0.@.,.,.,.@.8.0.0.0.0.0._ 4.c       ",
"          L ,.,. .0.0.0.;.% @.` ,.,.,.;.0.0.0.0.0.8._ ,.c       ",
"        =  .,. .,.@.0.0.;.% Y  .,.,.,.{ % M 0.8.r.;.,.,. .      ",
"        L  .,.,.,._ 0.0.@.{ _  . . . .` % Y 0.0.0.@.4.,.,.%     ",
"        _ ,.,. .,.,.L  .,.,.,.4.,.,.,. .` ;.0.0.8. .,.,.4.L     ",
"        L  .4.,. . .,.,.,.,.,.,.,.4.,.,.,.,.` {  .,.4.,.,._     ",
"        %  .,. ._ ,.,.,.,.,.,.4.,.,.,.,.4.,.4._ 4.,.,.,.4. .    ",
"          %  ._ ,.,.,.,.,.,.,.,.,.4.,.,.,.,.4.4._ ,.,.4.4.`     ",
"          % L L ,.,.,.,.,.,.,.,.,.,.,.,. .,.,.,.4. .4.,.4.c     ",
"          s P O._ ,.,.,.4.,.4.,.,.,.,.,.,.,.,.4.,._ ,.,.L       ",
"          1.8.9.c ,.,.,.,.,.,.,.4.,.4.,.,.4.,.,.,._ _ #         ",
"          <.e.u.t.c ,.,.4.,.,.4.,.,.,.,.,.,.,.,.c c L           ",
"          E ..#.} %.q._ ,.,.,.,.4.,.4.,.4.,.,.c z z n           ",
"          7.r.9.} ) P k c c _ ,.,.,.,. ._ c c , > y z           ",
"        9 ! O.+.&.3.r.6.b i 1 c c c c T E ( 1 1 = r.u.          ",
"        h ( %.) N N h H m b w * Z y.u.u.2.o.= = = v             ",
"        ] -.:.+.Q P S q t m i 7 y O.>.w.7.X.= = Y e.            ",
"          ] <.( V I S h 8 t x H ~ Q K F Q Z : : o.w.            ",
"          ] <.V f f q 6 ; 8 5 Z 4 r 6 U n z p 0 y J             ",
"                 ._ _ ; < f F F k q & r 8 I V z n z             ",
"              c ,.,.,.,.,.,._ F F A > f V I V n [               ",
"              L L  .,.,.,.,.,.4.,._ _ j V I n |                 ",
"              c _ _ ,.,.,.,.,.,.,.,.L  .,._ %                   ",
"              c _ _ L _ ,.,.,.,.,. . . . .c %                   ",
"            % c _ _ _ _ c c L c L _  .4. .%                     "
};
