/* XPM */
static char * oct_m_xpm[] = {
"32 32 5 1",
".	c #000000",
"+	c #FFFF00",
"@	c #FF4CFF",
"#	c #00FF00",
"$	c #FF6969",
"................................",
"...++++++++++++..++++++++++++...",
"....++++++++++.++.++++++++++....",
".@...++++++++.++++.++++++++...#.",
".@@...++++++.++++++.++++++...##.",
".@@@...++++.++++++++.++++...###.",
".@@@@...++.++++++++++.++...####.",
".@@@@@....................#####.",
".@@@@@@...++++++++++++...######.",
".@@@@@@....++++++++++....######.",
".@@@@@..@...++++++++...#..#####.",
".@@@@.@.@@...++++++...##.#.####.",
".@@@.@@.@@@...++++...###.##.###.",
".@@.@@@.@@@@...++...####.###.##.",
".@.@@@@.@@@@@......#####.####.#.",
"..@@@@@.@@@@@@....######.#####..",
"..@@@@@.@@@@@@....######.#####..",
".@.@@@@.@@@@@......#####.####.#.",
".@@.@@@.@@@@...$$...####.###.##.",
".@@@.@@.@@@...$$$$...###.##.###.",
".@@@@.@.@@...$$$$$$...##.#.####.",
".@@@@@..@...$$$$$$$$...#..#####.",
".@@@@@@....$$$$$$$$$$....######.",
".@@@@@@...$$$$$$$$$$$$...######.",
".@@@@@....................#####.",
".@@@@...$$.$$$$$$$$$$.$$...####.",
".@@@...$$$$.$$$$$$$$.$$$$...###.",
".@@...$$$$$$.$$$$$$.$$$$$$...##.",
".@...$$$$$$$$.$$$$.$$$$$$$$...#.",
"....$$$$$$$$$$.$$.$$$$$$$$$$....",
"...$$$$$$$$$$$$..$$$$$$$$$$$$...",
"................................"};
