/* XPM */
static char * cubes_m_xpm[] = {
"32 32 5 1",
".	c #808080",
"+	c #BEBEBE",
"@	c #000000",
"#	c #843C24",
"$	c #636363",
"................................",
".++++++@@++++++@@++++++@@++++++.",
".+++#++@@++##++@@++##++@@++##++.",
".+++#++@@+++#++@@+++#++@@+#+#++.",
".+++#++@@++#+++@@++##++@@+####+.",
".+++#++@@++##++@@++##++@@+++#++.",
".++++++@@++++++@@++++++@@++++++.",
".@@@@@@@@@@@@@@@@@@@@@@@@@@@@@@.",
".@@@@@@@@@@@@@@@@@@@@@@@@@@@@@@.",
".++++++@@++++++@@++++++@@++++++.",
".++##++@@++##++@@++###+@@++##++.",
".++#+++@@++#+++@@++++#+@@++##++.",
".+++#++@@++##++@@+++##+@@+#++#+.",
".++##++@@++##++@@+++#++@@+####+.",
".++++++@@++++++@@++++++@@++++++.",
".@@@@@@@@@@@@@@@@@@@@@@@@@@@@@@.",
".@@@@@@@@@@@@@@@@@@@@@@@@@@@@@@.",
".++++++@@++++++@@++++++@@++++++.",
".++##++@@+#+##+@@++#+#+@@+#+##+.",
".++##++@@+#+##+@@++#+#+@@+#++#+.",
".+++#++@@+#+##+@@++#+#+@@+#+#++.",
".+++#++@@+#+##+@@++#+#+@@+#+##+.",
".++++++@@++++++@@++++++@@++++++.",
".@@@@@@@@@@@@@@@@@@@@@@@@@@@@@@.",
".@@@@@@@@@@@@@@@@@@@@@@@$$$$$$$.",
".++++++@@++++++@@++++++@$$$$$$$.",
".+#+##+@@+#+##+@@+#+##+@$$$$$$$.",
".+#++#+@@+##+#+@@+#+#++@$$$$$$$.",
".+#+##+@@+#####@@+#++#+@$$$$$$$.",
".+#+##+@@+#++#+@@+#+##+@$$$$$$$.",
".++++++@@++++++@@++++++@$$$$$$$.",
"................................"};
