/* XPM */
static char * activity_etoys_xpm[] = {
"32 28 67 1",
" 	c None",
".	c #010101",
"+	c #0F0F0F",
"@	c #0C0C0C",
"#	c #080808",
"$	c #9B9B9B",
"%	c #4C4C4C",
"&	c #040404",
"*	c #868686",
"=	c #F8F8F8",
"-	c #727272",
";	c #111111",
">	c #212121",
",	c #161616",
"'	c #090909",
")	c #050505",
"!	c #5C5C5C",
"~	c #F5F5F5",
"{	c #FFFFFF",
"]	c #939393",
"^	c #353535",
"/	c #D3D3D3",
"(	c #C9C9C9",
"_	c #A8A8A8",
":	c #808080",
"<	c #898989",
"[	c #E9E9E9",
"}	c #B5B5B5",
"|	c #6F6F6F",
"1	c #E5E5E5",
"2	c #363636",
"3	c #020202",
"4	c #AAAAAA",
"5	c #FEFEFE",
"6	c #E8E8E8",
"7	c #A9A9A9",
"8	c #565656",
"9	c #222222",
"0	c #030303",
"a	c #2F2F2F",
"b	c #F3F3F3",
"c	c #C2C2C2",
"d	c #252525",
"e	c #F1F1F1",
"f	c #8C8C8C",
"g	c #282828",
"h	c #060606",
"i	c #8F8F8F",
"j	c #959595",
"k	c #1E1E1E",
"l	c #E4E4E4",
"m	c #E3E3E3",
"n	c #101010",
"o	c #999999",
"p	c #F9F9F9",
"q	c #C6C6C6",
"r	c #7F7F7F",
"s	c #5B5B5B",
"t	c #AFAFAF",
"u	c #D9D9D9",
"v	c #393939",
"w	c #FCFCFC",
"x	c #CBCBCB",
"y	c #141414",
"z	c #B8B8B8",
"A	c #191919",
"B	c #5A5A5A",
"                .               ",
"               ...              ",
"              .+@.              ",
"             .#$%.              ",
"     .....  .&*=-.              ",
"     ..;>,'.)!~{].              ",
"      .^/(_:<[{{}..             ",
"       .|={{{{{{123..           ",
"       .;4{{{{{{567890..        ",
"        .ab{{{{{{{{=ca..        ",
"        .de{{{{{{{[fg..         ",
"        hi{{{{{{=jk).           ",
"       .^l{5=5{{mn.             ",
"       .opqrst{{u.              ",
"      .'v;...#_wx.              ",
"      ....   .y4z.              ",
"              .AB.              ",
"    ..  ..  .. ...              ",
"    ..  ..  ..  ..              ",
"   ..  ..  ..                   ",
"  ..  ..  ..                    ",
"  ..  ..  ..                    ",
" ..  ..  ..                     ",
"..  ..  ..                      ",
"..  ..  ..                      ",
"                                ",
"                                ",
"                                "};
