/* XPM */
static char * msn_xpm[] = {
"32 32 456 2",
"  	c None",
". 	c #877754",
"+ 	c #97845C",
"@ 	c #98845D",
"# 	c #917D57",
"$ 	c #8B7855",
"% 	c #837252",
"& 	c #7A6C50",
"* 	c #AC9970",
"= 	c #B09C6F",
"- 	c #A49065",
"; 	c #98835B",
"> 	c #958059",
", 	c #927C53",
"' 	c #8D774C",
") 	c #8A7349",
"! 	c #675635",
"~ 	c #857547",
"{ 	c #BAA77B",
"] 	c #AC986C",
"^ 	c #A08C62",
"/ 	c #937D54",
"( 	c #856C3F",
"_ 	c #785D2A",
": 	c #6F521C",
"< 	c #4F3A13",
"[ 	c #A58A4B",
"} 	c #A8905B",
"| 	c #9B8451",
"1 	c #856C38",
"2 	c #70531E",
"3 	c #8E703E",
"4 	c #CDAD84",
"5 	c #EDD2B2",
"6 	c #E5CBA8",
"7 	c #6E5126",
"8 	c #A88F51",
"9 	c #957B3D",
"0 	c #866B30",
"a 	c #CEA675",
"b 	c #E0B88A",
"c 	c #F7D2AB",
"d 	c #F6D6B2",
"e 	c #F2D0AD",
"f 	c #F9DFC6",
"g 	c #BA9773",
"h 	c #4A4A4A",
"i 	c #525252",
"j 	c #595858",
"k 	c #515151",
"l 	c #383838",
"m 	c #7A683A",
"n 	c #A68D50",
"o 	c #92773A",
"p 	c #96773F",
"q 	c #F2C597",
"r 	c #F2C99B",
"s 	c #F2CAA1",
"t 	c #D9A479",
"u 	c #E7BE9B",
"v 	c #D4A67D",
"w 	c #595959",
"x 	c #6F6F6E",
"y 	c #6C6C6C",
"z 	c #686868",
"A 	c #656565",
"B 	c #616161",
"C 	c #5F5F5F",
"D 	c #4A4948",
"E 	c #887541",
"F 	c #A28A4F",
"G 	c #BA8F59",
"H 	c #CAA06F",
"I 	c #EEC192",
"J 	c #F1C496",
"K 	c #F3CCA3",
"L 	c #F5D3AE",
"M 	c #F7D8B6",
"N 	c #F6D7B5",
"O 	c #EDC299",
"P 	c #444444",
"Q 	c #5C5C5C",
"R 	c #5B5B5B",
"S 	c #5A5A5A",
"T 	c #535252",
"U 	c #806C3B",
"V 	c #9E854B",
"W 	c #A17943",
"X 	c #E9B889",
"Y 	c #ECBF92",
"Z 	c #EEC091",
"` 	c #F2C89C",
" .	c #F4CEA6",
"..	c #F2CDA7",
"+.	c #DBA476",
"@.	c #674E34",
"#.	c #E6C9A9",
"$.	c #E0C9B2",
"%.	c #DAC3AA",
"&.	c #D5BC9F",
"*.	c #CEB293",
"=.	c #A8927A",
"-.	c #484848",
";.	c #454545",
">.	c #46423D",
",.	c #6B5A31",
"'.	c #9A8046",
").	c #84682E",
"!.	c #A97F4B",
"~.	c #EAC095",
"{.	c #EBBC8D",
"].	c #EDC093",
"^.	c #F1C79D",
"/.	c #F4CEA5",
"(.	c #F5D0A8",
"_.	c #E0B486",
":.	c #B18B66",
"<.	c #FADFC0",
"[.	c #FBE4CA",
"}.	c #FAE0C1",
"|.	c #F8D8B6",
"1.	c #F4CB9E",
"2.	c #635B53",
"3.	c #4C423C",
"4.	c #92783E",
"5.	c #7F632A",
"6.	c #71541F",
"7.	c #E6B685",
"8.	c #EABD8F",
"9.	c #EBBA8B",
"0.	c #EDBF92",
"a.	c #F0C699",
"b.	c #F1C699",
"c.	c #D4A876",
"d.	c #554118",
"e.	c #CB976A",
"f.	c #E3B58D",
"g.	c #CA8B5D",
"h.	c #D1976A",
"i.	c #F2CEA9",
"j.	c #F5CFA8",
"k.	c #F2C89B",
"l.	c #7D6E5F",
"m.	c #4D4B48",
"n.	c #473D37",
"o.	c #70592A",
"p.	c #7B5E26",
"q.	c #D3A875",
"r.	c #E8B78A",
"s.	c #EABA8E",
"t.	c #E9B98A",
"u.	c #ECBE8F",
"v.	c #F0C293",
"w.	c #B38D53",
"x.	c #5B451A",
"y.	c #EEC398",
"z.	c #F6D6B3",
"A.	c #F8DBBB",
"B.	c #F6D8B7",
"C.	c #F3CBA2",
"D.	c #F0C396",
"E.	c #CFA983",
"F.	c #C99B71",
"G.	c #41342A",
"H.	c #676550",
"I.	c #77643D",
"J.	c #BF9864",
"K.	c #F6C793",
"L.	c #EABA8A",
"M.	c #E9B88A",
"N.	c #DDAC7C",
"O.	c #967B3D",
"P.	c #4B3916",
"Q.	c #D89F6F",
"R.	c #F3CEA9",
"S.	c #F7D6B3",
"T.	c #F5D3AF",
"U.	c #F2CDA6",
"V.	c #F0C69A",
"W.	c #ECBE91",
"X.	c #B78960",
"Y.	c #415B6D",
"Z.	c #709CBB",
"`.	c #77A2C0",
" +	c #779FBA",
".+	c #D8BA98",
"++	c #F9CE9D",
"@+	c #F9CE9C",
"#+	c #F7CB99",
"$+	c #9D9489",
"%+	c #413B31",
"&+	c #6D592C",
"*+	c #E0B487",
"=+	c #F4D0A9",
"-+	c #F3CDA4",
";+	c #F0C69D",
">+	c #EBBE8F",
",+	c #ECC197",
"'+	c #E0AD7C",
")+	c #82512E",
"!+	c #567891",
"~+	c #7AA4C1",
"{+	c #85ABC6",
"]+	c #8AAFC9",
"^+	c #90B2CC",
"/+	c #9BA9B3",
"(+	c #F2C69A",
"_+	c #FAD2A4",
":+	c #F9D0A4",
"<+	c #8EADBE",
"[+	c #8BAFC9",
"}+	c #5A7586",
"|+	c #D2A67A",
"1+	c #F3C89C",
"2+	c #F1C89E",
"3+	c #EEC498",
"4+	c #EBBC8F",
"5+	c #E9BC8D",
"6+	c #E7B689",
"7+	c #A97449",
"8+	c #648CA8",
"9+	c #84AAC6",
"0+	c #8FB3CC",
"a+	c #95B7CE",
"b+	c #9BBBD1",
"c+	c #A1BFD3",
"d+	c #A1BED1",
"e+	c #D8DADD",
"f+	c #EACFB9",
"g+	c #ECD8C6",
"h+	c #99B5C8",
"i+	c #A2BFD4",
"j+	c #94B6CD",
"k+	c #A67E58",
"l+	c #EFC193",
"m+	c #EDBE90",
"n+	c #EABB8B",
"o+	c #E9BA8E",
"p+	c #F2C18E",
"q+	c #B48154",
"r+	c #4D6C82",
"s+	c #7FA7C4",
"t+	c #96B7CF",
"u+	c #9EBCD2",
"v+	c #A5C1D6",
"w+	c #ABC5D8",
"x+	c #B0C9DA",
"y+	c #B5CCDD",
"z+	c #B7CAD8",
"A+	c #FFFFFF",
"B+	c #F4F4F4",
"C+	c #A9C0CE",
"D+	c #AEC8DA",
"E+	c #A6C2D6",
"F+	c #5D798D",
"G+	c #E8B787",
"H+	c #E9B88B",
"I+	c #F3C38F",
"J+	c #F8CA96",
"K+	c #8C8748",
"L+	c #314916",
"M+	c #6C97B6",
"N+	c #94B6CE",
"O+	c #A0BED3",
"P+	c #A8C3D7",
"Q+	c #B7CEDE",
"R+	c #BDD2E1",
"S+	c #C3D6E4",
"T+	c #B9CDDA",
"U+	c #F9FAFC",
"V+	c #F5F5F5",
"W+	c #B4C6D3",
"X+	c #B6CDDD",
"Y+	c #80A1B7",
"Z+	c #543C28",
"`+	c #B09059",
" @	c #F3C491",
".@	c #F9CD99",
"+@	c #F9CD9B",
"@@	c #E6C28E",
"#@	c #5F8430",
"$@	c #517A23",
"%@	c #456B1A",
"&@	c #729EBD",
"*@	c #99B9D0",
"=@	c #AAC4D8",
"-@	c #B1CADB",
";@	c #B9CFDF",
">@	c #C0D4E2",
",@	c #C6D8E5",
"'@	c #CBDBE7",
")@	c #D4DFE7",
"!@	c #B5C7D2",
"~@	c #B5CDDD",
"{@	c #90B2CA",
"]@	c #5C862E",
"^@	c #769645",
"/@	c #FAD1A3",
"(@	c #F8CFA1",
"_@	c #969F5D",
":@	c #6F9942",
"<@	c #6A933E",
"[@	c #648B38",
"}@	c #4F7924",
"|@	c #2B4410",
"1@	c #76A1C0",
"2@	c #95B6CD",
"3@	c #9CBBD2",
"4@	c #A4C0D5",
"5@	c #ABC5D9",
"6@	c #B2CADC",
"7@	c #B9CFDE",
"8@	c #BED3E1",
"9@	c #C1D5E3",
"0@	c #B9CBD9",
"a@	c #ACC0CE",
"b@	c #ADC6D9",
"c@	c #A5C2D5",
"d@	c #84A7C1",
"e@	c #68913A",
"f@	c #7BA250",
"g@	c #80A558",
"h@	c #EACCB0",
"i@	c #E7C0A2",
"j@	c #D7CEB3",
"k@	c #87AD5D",
"l@	c #86AE5B",
"m@	c #81A856",
"n@	c #7BA051",
"o@	c #74974C",
"p@	c #5D8332",
"q@	c #385914",
"r@	c #78A2C1",
"s@	c #93B5CD",
"t@	c #9BBAD1",
"u@	c #A1BFD4",
"v@	c #A8C4D7",
"w@	c #ADC7D9",
"x@	c #B1C9DB",
"y@	c #A1BBCF",
"z@	c #EEEFF0",
"A@	c #9DB7C9",
"B@	c #9FBDD2",
"C@	c #7EA0B7",
"D@	c #355116",
"E@	c #7EA355",
"F@	c #8BB062",
"G@	c #95B371",
"H@	c #B1CA95",
"I@	c #9EC573",
"J@	c #9AC071",
"K@	c #95BA6C",
"L@	c #8FB267",
"M@	c #87A960",
"N@	c #7EA059",
"O@	c #587F2D",
"P@	c #29410F",
"Q@	c #709DBD",
"R@	c #7DA6C2",
"S@	c #87ADC8",
"T@	c #8EB2CA",
"U@	c #95B6CE",
"V@	c #9ABAD0",
"W@	c #9EBDD2",
"X@	c #A3B9C8",
"Y@	c #7D9CB0",
"Z@	c #536D7E",
"`@	c #53782A",
" #	c #8CAE66",
".#	c #95B86F",
"+#	c #A5BF88",
"@#	c #FDFEFB",
"##	c #A9CB83",
"$#	c #B1D589",
"%#	c #ACD085",
"&#	c #A6C981",
"*#	c #9EC07A",
"=#	c #96B772",
"-#	c #8CAC6A",
";#	c #7B9C56",
">#	c #446C19",
",#	c #53748C",
"'#	c #6388A1",
")#	c #7196B1",
"!#	c #7A9FB8",
"~#	c #82A5BF",
"{#	c #83A6BD",
"]#	c #7B9CB2",
"^#	c #6D8A9E",
"/#	c #597182",
"(#	c #658C3B",
"_#	c #8DAE68",
":#	c #96B971",
"<#	c #A8C18F",
"[#	c #D7E3C7",
"}#	c #B7DC8E",
"|#	c #BADF92",
"1#	c #B4D88D",
"2#	c #ADCF87",
"3#	c #A5C67F",
"4#	c #9BBC77",
"5#	c #92B26E",
"6#	c #87A765",
"7#	c #4B751D",
"8#	c #5E8633",
"9#	c #84A75E",
"0#	c #8EB266",
"a#	c #9FBB82",
"b#	c #B1CD93",
"c#	c #ADD781",
"d#	c #B0D982",
"e#	c #ABD37F",
"f#	c #A4CB7A",
"g#	c #9CC273",
"h#	c #94B86C",
"i#	c #8BAE65",
"j#	c #82A45D",
"k#	c #537C26",
"l#	c #628936",
"m#	c #7FA555",
"n#	c #8DAD6A",
"o#	c #F2F2F1",
"p#	c #90B767",
"q#	c #9BC66C",
"r#	c #9EC96E",
"s#	c #9CC76C",
"t#	c #96C168",
"u#	c #90B964",
"v#	c #88AF5D",
"w#	c #80A656",
"x#	c #769C4F",
"y#	c #577F2A",
"z#	c #2F4A11",
"A#	c #4C6D25",
"B#	c #6F9547",
"C#	c #AFC19A",
"D#	c #81AD51",
"E#	c #87B455",
"F#	c #89B758",
"G#	c #88B657",
"H#	c #85B153",
"I#	c #80AB50",
"J#	c #79A34A",
"K#	c #709A44",
"L#	c #688F3D",
"M#	c #4E7820",
"N#	c #486229",
"O#	c #527928",
"P#	c #5F8B30",
"Q#	c #6A9838",
"R#	c #6E9E3B",
"S#	c #6D9C39",
"T#	c #679535",
"U#	c #608D2E",
"V#	c #558027",
"W#	c #466B1C",
"                                                                ",
"                                                                ",
"                                                                ",
"              . + @ # $ % &                                     ",
"            * = - ; > > , ' ) !                                 ",
"          ~ { ] ^ / ( _ : : : <                                 ",
"          [ } | 1 2 3 4 5 6 7                                   ",
"          8 9 0 a b c d e f g           h i j k l               ",
"        m n o p q r s t t u v       w x y z A B C D             ",
"        E F G H I J K L M N O     P Q R S S C B Q T             ",
"        U V W X Y Z `  .L ..+.    @.#.$.%.&.*.=.-.;.>.          ",
"        ,.'.).!.~.{.].^./.(._.    :.<.[.}.|.c 1.2.P 3.          ",
"          4.5.6.7.8.9.0.a.b.c.d.  e.f.g.h.i.j.k.l.m.n.          ",
"          o.p.: q.r.s.t.u.v.w.x.  y.z.A.B.L C.D.E.F.G.          ",
"            H.I.J.K.L.M.X N.O.P.  Q.R.S.T.U.V.W.L.X.            ",
"        Y.Z.`. +.+++@+#+$+%+&+    *+ .=+-+;+>+,+'+)+            ",
"      !+~+{+]+^+/+(+_+:+<+[+}+    |+1+2+3+4+5+6+7+              ",
"    8+9+0+a+b+c+d+e+f+g+h+i+j+    k+l+m+n+t.o+p+q+              ",
"  r+s+t+u+v+w+x+y+z+A+B+C+D+E+F+    G+t.M.H+I+J+K+L+            ",
"  M+N+O+P+x+Q+R+S+T+U+V+W+X+D+Y+    Z+`+ @.@+@@@#@$@%@          ",
"  &@*@i+=@-@;@>@,@'@)@V+!@~@D+{@    ]@^@/@/@(@_@:@<@[@}@|@      ",
"  1@2@3@4@5@6@7@8@9@0@B+a@b@c@d@  e@f@g@h@i@j@k@l@m@n@o@p@q@    ",
"r+r@[+s@t@u@v@w@x@6@y@z@A@B@C@  D@E@F@G@B+A+H@I@J@K@L@M@N@O@P@  ",
"  Q@R@S@T@U@V@W@u@i+B@X@Y@Z@    `@ #.#+#V+@###$#%#&#*#=#-#;#>#  ",
"    ,#'#)#!#~#{#]#^#/#          (#_#:#<#V+[#}#|#1#2#3#4#5#6#7#  ",
"                                8#9#0#a#B+b#c#d#e#f#g#h#i#j#k#  ",
"                                  l#m#n#o#p#q#r#s#t#u#v#w#x#y#z#",
"                                    A#B#C#D#E#F#G#H#I#J#K#L#M#  ",
"                                        N#O#P#Q#R#S#T#U#V#W#    ",
"                                                                ",
"                                                                ",
"                                                                "};
