/* XPM */
static char *aqualung[] = {
/* columns rows colors chars-per-pixel */
"32 32 214 2",
"   c #000001",
".  c #04090D",
"X  c #0E0E0E",
"o  c #070E12",
"O  c #0B0D10",
"+  c #071016",
"@  c #0C1319",
"#  c #151414",
"$  c #1C1919",
"%  c #04192B",
"&  c #151E25",
"*  c #121E2A",
"=  c #1A232B",
"-  c #01263C",
";  c #0D263A",
":  c #172634",
">  c #182735",
",  c #1A2837",
"<  c #13283C",
"1  c #182A3D",
"2  c #1C313F",
"3  c #202325",
"4  c #2C2C2B",
"5  c #302E2E",
"6  c #242F3A",
"7  c #273137",
"8  c #353434",
"9  c #383937",
"0  c #3C3C3B",
"q  c #0B2340",
"w  c #0B2E4A",
"e  c #0E314C",
"r  c #102E52",
"t  c #17375E",
"y  c #13395C",
"u  c #183A5D",
"i  c #2F3D46",
"p  c #1C3E65",
"a  c #32414D",
"s  c #394857",
"d  c #3D4D5B",
"f  c #3D515E",
"g  c #1D4369",
"h  c #044C7A",
"j  c #37516C",
"k  c #26527A",
"l  c #3E5B77",
"z  c #36587A",
"x  c #3E617E",
"c  c #444544",
"v  c #484947",
"b  c #464A4D",
"n  c #4A4B4A",
"m  c #4D4F52",
"M  c #40505E",
"N  c #535453",
"B  c #575857",
"V  c #555758",
"C  c #56595C",
"Z  c #595B5A",
"A  c #5F6262",
"S  c #636463",
"D  c #686767",
"F  c #656768",
"G  c #6A6B6A",
"H  c #6F706F",
"J  c #6E7174",
"K  c #757675",
"L  c #777977",
"P  c #7D7F7E",
"I  c #065C8E",
"U  c #224981",
"Y  c #2A5F98",
"T  c #3E6283",
"R  c #31688A",
"E  c #1859A7",
"W  c #155DAC",
"Q  c #1C5DAA",
"!  c #0C6CA9",
"~  c #1962AE",
"^  c #1E73AE",
"/  c #0D6FB1",
"(  c #1866B1",
")  c #116EB0",
"_  c #186AB6",
"`  c #196EB8",
"'  c #0777B3",
"]  c #0D74B3",
"[  c #0C78B4",
"{  c #1272B2",
"}  c #1F74B5",
"|  c #1078B6",
" . c #1673BF",
".. c #1B74BD",
"X. c #1D7CBB",
"o. c #2363AE",
"O. c #326FA0",
"+. c #366FAA",
"@. c #3070AC",
"#. c #2167B1",
"$. c #2B67B1",
"%. c #216DB6",
"&. c #2A6BB3",
"*. c #316EB5",
"=. c #2372B3",
"-. c #2E75B6",
";. c #2573BB",
":. c #2C74BA",
">. c #247ABD",
",. c #2979BF",
"<. c #3472B7",
"1. c #3976B4",
"2. c #377AB7",
"3. c #3375BA",
"4. c #3875BA",
"5. c #347BBD",
"6. c #3B7CBC",
"7. c #436282",
"8. c #4E6B83",
"9. c #43739E",
"0. c #537391",
"q. c #747F89",
"w. c #4F7FA7",
"e. c #1D79C1",
"r. c #227AC1",
"t. c #2C7DC0",
"y. c #3D7EC0",
"u. c #738292",
"i. c #5986A6",
"p. c #5F8BAE",
"a. c #4280BC",
"s. c #4F84BF",
"d. c #5D8AB5",
"f. c #748EAC",
"g. c #638BB5",
"h. c #1B85C0",
"j. c #2E80C3",
"k. c #268AC2",
"l. c #2B8CC3",
"z. c #3282C3",
"x. c #3B83C4",
"c. c #3D89C3",
"v. c #3392C6",
"b. c #4184C4",
"n. c #4886C3",
"m. c #468EC2",
"M. c #4E8CC3",
"N. c #448BC8",
"B. c #4B8CC9",
"V. c #5289C3",
"C. c #5D8FC7",
"Z. c #528ECB",
"A. c #4D90CD",
"S. c #4698CE",
"D. c #5F94C1",
"F. c #5591CC",
"G. c #5993CD",
"H. c #5695D0",
"J. c #5996D0",
"K. c #5698D1",
"L. c #5E9DD4",
"P. c #6290C7",
"I. c #639ED5",
"U. c #5AA1D6",
"Y. c #7BA3CD",
"T. c #64A1D6",
"R. c #6EA2D1",
"E. c #6CA8D5",
"W. c #66A3D9",
"Q. c #6BA7DA",
"!. c #6CA9DD",
"~. c #77A2D0",
"^. c #71ACDE",
"/. c #71AEE1",
"(. c #74B2E2",
"). c #7CB7E5",
"_. c #7EBCE8",
"`. c #818382",
"'. c #878888",
"]. c #8A8C8A",
"[. c #8F908F",
"{. c #949594",
"}. c #9C9E9E",
"|. c #9FA09F",
" X c #99A3AE",
".X c #ABACAD",
"XX c #84ACD6",
"oX c #8AAFD6",
"OX c #9EBCDC",
"+X c #83BCE7",
"@X c #8ABDE6",
"#X c #81BDE9",
"$X c #9ABFE0",
"%X c #BFC0C1",
"&X c #A7C1DE",
"*X c #89C1EA",
"=X c #8EC8EF",
"-X c #9CC4E3",
";X c #9CCEF1",
":X c #A5C8E5",
">X c #BBD3E8",
",X c #A5D3F3",
"<X c #BDDEF4",
"1X c #C7C9CA",
"2X c #CBDBEC",
"3X c #CADFF0",
"4X c #C3E3F7",
"5X c #D0E2F1",
"6X c #D2E9F7",
"7X c #D4EBFA",
"8X c #DDF0F8",
"9X c #E3F3FA",
"0X c #EEF9FA",
"qX c None",
/* pixels */
"qXqXqXqXqXqXqXqXqXqXqXqXqXqXqXqXqXqXqXqXqXqXqXqXqXqXqXqXqXqXqXqX",
"qXqXqXqXqXqXqXqXqXqXqXqXqXqX' qXqXqXqXqXqXqXqXqXqXqXqXqXqXqXqXqX",
"qXqXqXqXqXqXqXqXqXqXqXqXqXqX| [ qXqXqXqXqXqXqXqXqXqXqXqXqXqXqXqX",
"qXqXqXqXqXqXqXqXqXqXqXqXqX% ^ ^ -       qXqXqXqXqXqXqXqXqXqXqXqX",
"qXqXqXqXqXqXqXqXqXqX    qXI 5.6.] qXqXqX    qXqXqXqXqXqXqXqXqXqX",
"qXqXqXqXqXqXqXqX  qXqXqXqX[ b.4.=.qXqXqXqXqXqX  qXqXqXqXqXqXqXqX",
"qXqXqXqXqXqXqX  qXqXqXqXqX>.N.4.3.) qXqXqXqXqXqX  qXqXqXqXqXqXqX",
"qXqXqXqXqXqX  qXqXqXqXqXh.N.B.y.<.-./ qXqXqXqXqXqX  qXqXqXqXqXqX",
"qXqXqXqXqX  qXqXqXqXqXqXk.L.H.b.<.*.=.qXqXqXqXqXqXqX  qXqXqXqXqX",
"qXqXqXqX  qXqXqXqXqXqXk.L.W.L.B.5.&.*.{ qXqXqXqXqXqXqX  qXqXqXqX",
"qXqXqXqX  qXqXqXqXqXqXS.!.!.W.K.x.&.$.<.{ qXqXqXqXqXqX  qXqXqXqX",
"qXqXqX  qXqXqXqXqXqXv.!.(.(.!.L.N.:.o.$.3.[ qXqXqXqXqXqX  qXqXqX",
"qXqXqX  qXqXqXqXqXl.Q.+X*X).!.T.A.t.#.o.*.} qXqXqXqXqXqX  qXqXqX",
"qXqXqXqXqXqXqXqXl.U.+X3X;X_.^.T.F.x.%.o.$.4.{ qXqXqXqXqXqXqXqXqX",
"qXqX  qXqXqXqXqXS.).6X8X,X#X(.W.H.N.;.~ Q &.6.[ qXqXqXqXqXqXqXqX",
"qXqX  qXqXqXqXl.^.<X0X9X,X_.!.T.H.N.t.( E o.3.>.qXqXqXqXqX  qXqX",
"qXqX  qXqXqXk.L.+X9X0X9X;X_.^.I.H.B.t._ W Q $.y.| qXqXqXqX  qXqX",
"qXqX  S C C R Q.+X4X6X<X=X).!.I.G.B.t.` W E ( 4.X.qXm C G   qXqX",
"qXqXc `.F b a D.i.F j i 7 = @ .   . @ & * % ; t k 6 b A {.B # qX",
"qXN `..XZ O O @ = J }.%X1X.Xb l 8.b .X1X%X}.J 3 q @ X n }.{.S qX",
"X K ].{.V     x  X2X2X3X3X5Xq.7.0.q.5X3X2X2X2X Xj +   c '.P K 0 ",
"# G G {.N     x u.-XOX$X-X:XM 9.w.d :X-X$XOX&Xq.7.o   c L D D 9 ",
"# N Z L m     T 6 f.~.R.E.p.> M.H.> p.E.R.~.f.6 g..   0 S B n 4 ",
"X 5 v Z n     z G.s > < ; w -.B.B.-.e ; < , s XXd.    0 B n 5 $ ",
"qX$ 9 n c     O.G.G.G.F.F.Z.B.N.z.e.e...y.~.>XXXm..   9 n 0 $ qX",
"qXqX8 v 8     [ c.F.Z.B.B.b.x.z.r. ...4.D.oXXXM.qX    4 c 0 qXqX",
"qXqXqXn 0     qX[ j.B.x.z.t.r.e.r.,.y.V.P.C.a.2.qX    4 B qXqXqX",
"qXqXqXqXqXqXqXqXqXqX] X.j.r.>.r.5.n.V.V.6.@.qXqXqXqXqXqXqXqXqXqX",
"qXqXqXqXqXqXqXqXqXqXqXh ! { =.-.2.1.+.Y U qXqXqXqXqXqXqXqXqXqXqX",
"qXqXqXqXqXqXqXqXqXqXqXqXqXw y g g p t r qXqXqXqXqXqXqXqXqXqXqXqX",
"qXqXqXqXqXqXqXqXqXqXqXqXqXqXqXqXqXqXqXqXqXqXqXqXqXqXqXqXqXqXqXqX",
"qXqXqXqXqXqXqXqXqXqXqXqXqXqXqXqXqXqXqXqXqXqXqXqXqXqXqXqXqXqXqXqX"
};
