/* XPM */
static char *audio-x-generic[] = {
/* columns rows colors chars-per-pixel */
"48 48 122 2",
"   c #597D66871648",
".  c #5AD467C31829",
"X  c #5DD06A911C02",
"o  c #61726E431EBD",
"O  c #62696EC122CF",
"+  c #6521718924BD",
"@  c #692575932818",
"#  c #6A3076082CFC",
"$  c #6FB37BE12F87",
"%  c #6C7A780730EF",
"&  c #6DB3792832A7",
"*  c #72E47EE53383",
"=  c #73DB7ED53B4B",
"-  c #75B7818E3715",
";  c #771C825F3C34",
":  c #7AB3863C3D85",
">  c #7F388C743600",
",  c #77778228405C",
"<  c #7D26888640B9",
"1  c #7DC487F74935",
"2  c #7EEE89F84489",
"3  c #7F1789494A66",
"4  c #9DB6B0C42960",
"5  c #A0C5B33B300D",
"6  c #A273B49633B9",
"7  c #A69CB7F03CCE",
"8  c #A7CAB8E43F61",
"9  c #81B58CC646C7",
"0  c #83688DE34C40",
"q  c #85938F2A542A",
"w  c #874091ED4E44",
"e  c #8797913A5594",
"r  c #8B029569536E",
"t  c #8C5595D45AB0",
"y  c #8EE498FF58CE",
"u  c #92B69CAD5D18",
"i  c #8F4A981D61CC",
"p  c #95E89F66631B",
"a  c #97B5A11E6539",
"s  c #9A96A3F567FE",
"d  c #9C61A55D6C31",
"f  c #9F64A8D76BA7",
"g  c #9F31A6C6781F",
"h  c #A860B95D40A9",
"j  c #AA13BABC445F",
"k  c #AD46BD4F4B5A",
"l  c #AFE5BF6D5115",
"z  c #A3B5AC4D753C",
"x  c #A771AF857BF6",
"c  c #A904B38F6CBB",
"v  c #A88BB1237976",
"b  c #A8C3B1FD7562",
"n  c #A955B15E7DEB",
"m  c #B39DBCAD7FFA",
"M  c #B1F5C1165595",
"N  c #B56AC3E05D22",
"B  c #B83AC6246347",
"V  c #B9DBC77466D4",
"C  c #BCDBC9DF6D61",
"Z  c #BF8ECC0C7347",
"A  c #C1CACDDA7829",
"S  c #ADD6B5598560",
"D  c #B32DBB478616",
"F  c #B6F0BE888CCA",
"G  c #B67ABD4391DC",
"H  c #BB1DC3D488E2",
"J  c #BD2DC41496E9",
"K  c #BD7AC3909CBD",
"L  c #C528CD619506",
"P  c #C5F2CD7E9A45",
"I  c #C6DDD1F1833D",
"U  c #CA65D4C98AF3",
"Y  c #D029D96F9789",
"T  c #D0B9D9E398C4",
"R  c #D0DCDA009912",
"E  c #C20AC7B1A39D",
"W  c #C512CADBA560",
"Q  c #C877CD81AD5C",
"!  c #C9A3CECFAD89",
"~  c #CBA1D289A38D",
"^  c #CDD6D36EAE57",
"/  c #CE1DD2C9B4CF",
"(  c #D17FD7E0AC3C",
")  c #D56EDBCFAFB3",
"_  c #D2EED7EAB6EA",
"`  c #D348D74ABDD4",
"'  c #D37ED945B212",
"]  c #D5FFDA86BCB0",
"[  c #D8DEDD66BF29",
"{  c #DAC2E1FAAEAE",
"}  c #DC3AE329B1E3",
"|  c #DF84E5D0B911",
" . c #E2D7E87EC054",
".. c #D783DB1CC448",
"X. c #DAB0DEB8C424",
"o. c #DC93DFB0CC02",
"O. c #DE6EE2C6C54F",
"+. c #DFD8E368CBD2",
"@. c #E0A3E35BD232",
"#. c #E0EBE5CFC3CE",
"$. c #E290E651CCE5",
"%. c #E4F0EA2FC4E7",
"&. c #E77AEC3BCA74",
"*. c #E2D2E582D45A",
"=. c #E580E7C1D995",
"-. c #E773EA80D5EC",
";. c #E7D6E9DFDD1F",
":. c #EB1EEF2AD267",
">. c #EB70EDE7DD5D",
",. c #ED93F126D7C6",
"<. c #EF69F24BDE09",
"1. c #F12FF40DDFA5",
"2. c #EDF8EF9CE529",
"3. c #EF96F1B9E338",
"4. c #F01EF165E97E",
"5. c #F315F520E6E9",
"6. c #F3A5F4E6ECBE",
"7. c #F869F9E1EF6E",
"8. c #F6D9F791F328",
"9. c #F893F990F2D7",
"0. c #F9D3FA8AF5C5",
"q. c #FFF8FFF9FFF4",
/* pixels */
"q.q.q.q.q.q.q.q.q.q.q.q.q.q.q.q.q.q.q.q.q.q.q.q.q.q.q.q.q.q.q.q.q.q.q.q.q.q.q.q.q.q.q.q.q.q.q.q.",
"q.q.q.q.q.q.q.q.q.q.q.q.q.q.q.q.q.q.q.q.q.q.q.q.q.q.q.q.q.q.q.q.q.q.q.q.q.q.q.q.q.q.q.q.q.q.q.q.",
"q.q.q.q.q.q.q.q.q.q.q.q.q.q.q.q.q.q.q.q.q.q.q.q.q.q.q.q.q.q.q.q.q.q.q.q.q.q.q.q.q.q.q.q.q.q.q.q.",
"q.q.q.q.q.q.q.q.q.q.q.q.q.q.q.q.q.q.q.q.q.q.q.q.q.q.q.q.q.q.q.q.q.q.q.q.q.q.q.q.q.q.q.q.q.q.q.q.",
"q.q.q.q.q.q.q.q.q.q.q.q.q.q.q.q.q.q.q.q.q.q.q.q.q.q.q.q.q.q.q.q.q.q.q.q.q.q.q.q.q.q.q.q.q.q.q.q.",
"q.q.q.q.q.q.q.q.q.q.q.q.q.q.q.q.q.q.q.q.q.q.q.q.q.q.q.q.q.q.q.q.q.q.q.q.q.q.q.q.q.q.q.q.q.q.q.q.",
"q.q.q.q.q.q.q.q.q.q.q.q.q.q.q.q.q.q.q.q.q.q.q.q.q.q.q.q.q.q.q.q.q.q.q.q.q.q.q.q.q.q.q.q.q.q.q.q.",
"q.q.q.q.q.q.q.q.q.q.q.q.q.q.q.q.q.q.q.q.q.q.q.q.q.q.q.q.q.q.q.q.q.q.q.q.q.q.q.0.7.=.;.q.q.q.q.q.",
"q.q.q.q.q.q.q.q.q.q.q.q.q.q.q.q.q.q.q.q.q.q.q.q.q.q.q.q.q.q.q.q.8.*./ D p * . X + # - q.q.q.q.q.",
"q.q.q.q.q.q.q.q.q.q.q.q.q.q.q.q.q.q.q.q.q.q.q.q.6.@.! D y $     X # 1 d J O.0.q.q.0.: q.q.q.q.q.",
"q.q.q.q.q.q.q.q.q.q.q.q.q.q.q.q.q.q.*.n r @     . O ; u D ( <.q.q.q.q.<.{ A V k V 9.< q.q.q.q.q.",
"q.q.q.q.q.q.q.q.q.q.q.q.q.q.q.q.q.q.x > c L %.0.q.q.q.0.%.R Z l 7 6 4 4 4 4 6 h V 7.< q.q.q.q.q.",
"q.q.q.q.q.q.q.q.q.q.q.q.q.q.q.q.q.q.x F 1.{ I V k 6 4 4 4 4 4 4 6 k C Y &.q.q.q.| 6.9 q.q.q.q.q.",
"q.q.q.q.q.q.q.q.q.q.q.q.q.q.q.q.q.q.x F } 4 4 4 4 6 h N A } 5.q.q.q.6.Q g 0 % D | 3.9 q.q.q.q.q.",
"q.q.q.q.q.q.q.q.q.q.q.q.q.q.q.q.q.q.x F } C Y &.q.q.q.q.+.G p = O @ p G o.8.n D | 3.w q.q.q.q.q.",
"q.q.q.q.q.q.q.q.q.q.q.q.q.q.q.q.q.q.x F } 9.^ x 0 % X O r G ..6.q.q.q.q.q.q.x D | >.w q.q.q.q.q.",
"q.q.q.q.q.q.q.q.q.q.q.q.q.q.q.q.q.q.x F } 7.- S ..2.q.q.q.q.q.q.q.q.q.q.q.q.n D | >.w q.q.q.q.q.",
"q.q.q.q.q.q.q.q.q.q.q.q.q.q.q.q.q.q.x F } 6.- q.q.q.q.q.q.q.q.q.q.q.q.q.q.q.x D | -.r q.q.q.q.q.",
"q.q.q.q.q.q.q.q.q.q.q.q.q.q.q.q.q.q.x F } 5.: q.q.q.q.q.q.q.q.q.q.q.q.q.q.q.x D | -.y q.q.q.q.q.",
"q.q.q.q.q.q.q.q.q.q.q.q.q.q.q.q.q.q.x F } 3.: q.q.q.q.q.q.q.q.q.q.q.q.q.q.q.x D | $.u q.q.q.q.q.",
"q.q.q.q.q.q.q.q.q.q.q.q.q.q.q.q.q.q.x F } <.< q.q.q.q.q.q.q.q.q.q.q.q.q.q.q.x D | +.u q.q.q.q.q.",
"q.q.q.q.q.q.q.q.q.q.q.q.q.q.q.q.q.q.x F } >.9 q.q.q.q.q.q.q.q.q.q.q.q.q.q.q.x D | +.p q.q.q.q.q.",
"q.q.q.q.q.q.q.q.q.q.q.q.q.q.q.q.q.q.x F } >.9 q.q.q.q.q.q.q.q.q.q.q.q.q.q.q.x D | X.p q.q.q.q.q.",
"q.q.q.q.q.q.q.q.q.q.q.q.q.q.q.q.q.q.x F } -.0 q.q.q.q.q.q.q.q.q.q.q.q.q.q.q.x D | X.s q.q.q.q.q.",
"q.q.q.q.q.q.q.q.q.q.q.q.q.q.q.q.q.q.x F } -.w q.q.q.q.q.q.q.q.q.q.q.q.q.q.q.n D | ] a q.q.q.q.q.",
"q.q.q.q.q.q.q.q.q.q.q.q.q.q.q.q.q.q.x F } *.w q.q.q.q.q.q.q.q.q.q.q.q.q.q.q.x D | ] g q.q.q.q.q.",
"q.q.q.q.q.q.q.q.q.q.q.q.q.q.q.q.q.q.x F } $.r q.q.q.q.q.q.q.q.q.q.q.q.q.q.q.x D | _ z q.q.q.q.q.",
"q.q.q.q.q.q.q.q.q.q.q.q.q.q.q.q.q.q.x F { $.r q.q.q.q.q.q.q.q.q.q.q.q.q.q.q.x D | ' z q.q.q.q.q.",
"q.q.q.q.q.q.q.q.q.q.q.q.q.q.q.q.q.q.x F } O.y q.q.q.q.q.q.q.q.q.q.q.q.q.q.q.x D | ^ z q.q.q.q.q.",
"q.q.q.q.q.q.q.q.q.q.q.q.q.q.q.q.q.q.x F } X.u q.q.q.q.q.q.q.q.0.;.o./ / ` *.x D | ^ x q.q.q.q.q.",
"q.q.q.q.q.q.q.q.q.q.q.q.q.q.q.q.q.q.x F } X.u q.q.q.q.q.q.K *   + , e t e , @ D | ! n q.q.q.q.q.",
"q.q.q.q.q.q.q.q.q.q.q.q.q.0.4.2.6.0.x F } [ p q.q.q.q...  & P q.q.q.0.9.0.q.q.q.| Q n q.q.q.q.q.",
"q.q.q.q.q.q.q.q.q.0.*.z             . F } [ p q.q.q./ X ~ q.%.B 6 4 4 4 4 4 6 l | E S q.q.q.q.q.",
"q.q.q.q.q.q.q.q.W   @ x O.q.q.q.q.q.0.' } ] a q.q.0.. $.5.j 4 4 4 4 4 4 4 4 4 B q.& ..q.q.q.q.q.",
"q.q.q.q.q.q.2.@ ; $.q.<.U N h 8 7 k V Y U _ d q.q.` 3 q.6 4 4 4 4 4 4 4 4 4 A q.s + q.q.q.q.q.q.",
"q.q.q.q.q.6.  D q.R 7 4 4 4 4 4 4 4 4 4 :.z F q.q.` = q.N 4 4 4 4 4 5 j U q.q.3 - 9.q.q.q.q.q.q.",
"q.q.q.q.q.< b q.k 4 4 4 4 4 4 4 4 4 6 { q.O 6.q.q.q.o z q.q.,.%.&.7.q.q.$.t . G 0.q.q.q.q.q.q.q.",
"q.q.q.q.q.  9.V 4 4 4 4 4 4 4 4 7 I q.-.# ! q.q.q.q.8.p X 1 d n x t = X : K 0.q.q.q.q.q.q.q.q.q.",
"q.q.q.q.q.+ H q.A k 8 h k V Y 5.q.<.q . o.q.q.q.q.q.q.q.0.+.E G J Q =.0.q.q.q.q.q.q.q.q.q.q.q.q.",
"q.q.q.q.q.@.  s <.q.q.q.q.9.' s # X ! q.q.q.q.q.q.q.q.q.q.q.q.q.q.q.q.q.q.q.q.q.q.q.q.q.q.q.q.q.",
"q.q.q.q.q.q.8.S o           * G 2.q.q.q.q.q.q.q.q.q.q.q.q.q.q.q.q.q.q.q.q.q.q.q.q.q.q.q.q.q.q.q.",
"q.q.q.q.q.q.q.q.q.q.q.q.q.q.q.q.q.q.q.q.q.q.q.q.q.q.q.q.q.q.q.q.q.q.q.q.q.q.q.q.q.q.q.q.q.q.q.q.",
"q.q.q.q.q.q.q.q.q.q.q.q.q.q.q.q.q.q.q.q.q.q.q.q.q.q.q.q.q.q.q.q.q.q.q.q.q.q.q.q.q.q.q.q.q.q.q.q.",
"q.q.q.q.q.q.q.q.q.q.q.q.q.q.q.q.q.q.q.q.q.q.q.q.q.q.q.q.q.q.q.q.q.q.q.q.q.q.q.q.q.q.q.q.q.q.q.q.",
"q.q.q.q.q.q.q.q.q.q.q.q.q.q.q.q.q.q.q.q.q.q.q.q.q.q.q.q.q.q.q.q.q.q.q.q.q.q.q.q.q.q.q.q.q.q.q.q.",
"q.q.q.q.q.q.q.q.q.q.q.q.q.q.q.q.q.q.q.q.q.q.q.q.q.q.q.q.q.q.q.q.q.q.q.q.q.q.q.q.q.q.q.q.q.q.q.q.",
"q.q.q.q.q.q.q.q.q.q.q.q.q.q.q.q.q.q.q.q.q.q.q.q.q.q.q.q.q.q.q.q.q.q.q.q.q.q.q.q.q.q.q.q.q.q.q.q.",
"q.q.q.q.q.q.q.q.q.q.q.q.q.q.q.q.q.q.q.q.q.q.q.q.q.q.q.q.q.q.q.q.q.q.q.q.q.q.q.q.q.q.q.q.q.q.q.q."
};
