/* XPM */
static char * billard_gl_xpm[] = {
"48 48 699 2",
"  	c None",
". 	c #171616",
"+ 	c #262626",
"@ 	c #363636",
"# 	c #454444",
"$ 	c #494949",
"% 	c #434343",
"& 	c #353535",
"* 	c #252525",
"= 	c #141414",
"- 	c #292929",
"; 	c #515151",
"> 	c #706F6F",
", 	c #818181",
"' 	c #8C8C8C",
") 	c #909090",
"! 	c #939393",
"~ 	c #969696",
"{ 	c #8B8B8B",
"] 	c #7E7E7E",
"^ 	c #6F6E6E",
"/ 	c #4A4A4A",
"( 	c #161616",
"_ 	c #454545",
": 	c #737373",
"< 	c #8A8A8A",
"[ 	c #989898",
"} 	c #A1A1A1",
"| 	c #A9A9A9",
"1 	c #AEAEAE",
"2 	c #B3B3B3",
"3 	c #B4B4B4",
"4 	c #B6B6B6",
"5 	c #ADADAD",
"6 	c #A8A8A8",
"7 	c #9F9F9F",
"8 	c #959595",
"9 	c #898989",
"0 	c #6F6F6F",
"a 	c #3C3B3B",
"b 	c #464646",
"c 	c #7B7B7B",
"d 	c #A2A2A2",
"e 	c #B7B7B7",
"f 	c #BFBFBF",
"g 	c #C5C5C5",
"h 	c #C9C9C9",
"i 	c #CCCCCC",
"j 	c #D1D1D1",
"k 	c #C5C3BE",
"l 	c #BEB4A0",
"m 	c #B8A173",
"n 	c #AB8B4D",
"o 	c #A17A2F",
"p 	c #916A1E",
"q 	c #735315",
"r 	c #402B03",
"s 	c #292928",
"t 	c #6C6B6B",
"u 	c #919191",
"v 	c #B1B1B1",
"w 	c #BCBCBC",
"x 	c #C6C6C6",
"y 	c #CECECE",
"z 	c #D6D6D6",
"A 	c #DCDCDC",
"B 	c #E0E0DF",
"C 	c #E4E4E3",
"D 	c #E5E5E4",
"E 	c #E3DFD8",
"F 	c #E3D2B0",
"G 	c #DFB666",
"H 	c #DCA02F",
"I 	c #D6910B",
"J 	c #CE8801",
"K 	c #C58200",
"L 	c #BD7C00",
"M 	c #AF7300",
"N 	c #A16A00",
"O 	c #8D5D00",
"P 	c #664302",
"Q 	c #251902",
"R 	c #828282",
"S 	c #9B9B9B",
"T 	c #BDBDBD",
"U 	c #D4D4D4",
"V 	c #DDDDDC",
"W 	c #EAEAEA",
"X 	c #EFEFEE",
"Y 	c #F3F3F3",
"Z 	c #F5F5F5",
"` 	c #F8F8F6",
" .	c #F9EFD1",
"..	c #F9D178",
"+.	c #F6B22E",
"@.	c #F6A405",
"#.	c #F29F00",
"$.	c #EF9D00",
"%.	c #E89900",
"&.	c #E39500",
"*.	c #DC9100",
"=.	c #D28A00",
"-.	c #C88300",
";.	c #BC7B00",
">.	c #AC7100",
",.	c #996500",
"'.	c #7D5301",
").	c #3D2902",
"!.	c #545454",
"~.	c #A4A4A4",
"{.	c #C7C7C7",
"].	c #D3D3D3",
"^.	c #DEDEDE",
"/.	c #E7E7E7",
"(.	c #EFEFEF",
"_.	c #F6F6F6",
":.	c #FBFBFB",
"<.	c #FDFDFD",
"[.	c #FFFDF4",
"}.	c #FFE9AC",
"|.	c #FFCC4A",
"1.	c #FFB409",
"2.	c #FFB000",
"3.	c #FEAD00",
"4.	c #FDAB00",
"5.	c #FDA900",
"6.	c #FAA600",
"7.	c #F5A100",
"8.	c #EE9D00",
"9.	c #E69700",
"0.	c #DD9100",
"a.	c #D18900",
"b.	c #C38000",
"c.	c #B57700",
"d.	c #A16900",
"e.	c #895A00",
"f.	c #4B3202",
"g.	c #545453",
"h.	c #BBBBBB",
"i.	c #CACACA",
"j.	c #DADADA",
"k.	c #F7F7F7",
"l.	c #FFFEFE",
"m.	c #FFFAE8",
"n.	c #FFE394",
"o.	c #FFC933",
"p.	c #FFBA07",
"q.	c #FFBF1E",
"r.	c #FFCD49",
"s.	c #FFDC7A",
"t.	c #FFE190",
"u.	c #FFE192",
"v.	c #FFDA73",
"w.	c #FFC947",
"x.	c #FFBA1B",
"y.	c #FEAD02",
"z.	c #FCA800",
"A.	c #F6A200",
"B.	c #E49600",
"C.	c #D78E00",
"D.	c #C98400",
"E.	c #B97900",
"F.	c #A66D00",
"G.	c #8C5C00",
"H.	c #533703",
"I.	c #AAAAAA",
"J.	c #CFCFCF",
"K.	c #EAEAE9",
"L.	c #FCFCFC",
"M.	c #FFFFFF",
"N.	c #FFFCEF",
"O.	c #FFE38F",
"P.	c #FFC624",
"Q.	c #FFBC03",
"R.	c #FFCA1F",
"S.	c #FFE79A",
"T.	c #FFFAE6",
"U.	c #FFFFFC",
"V.	c #FFFEFB",
"W.	c #FFFAE5",
"X.	c #FFE396",
"Y.	c #FEC02C",
"Z.	c #FEAD01",
"`.	c #FCA700",
" +	c #F4A000",
".+	c #E99900",
"++	c #DB9000",
"@+	c #CD8700",
"#+	c #BC7C00",
"$+	c #A56C00",
"%+	c #404040",
"&+	c #A7A7A7",
"*+	c #D0D0D0",
"=+	c #E1E1E1",
"-+	c #EDEDED",
";+	c #F9F9F9",
">+	c #FEFEFE",
",+	c #FFFBED",
"'+	c #FFE28C",
")+	c #FFC41E",
"!+	c #FFBF00",
"~+	c #FFC303",
"{+	c #FFDD64",
"]+	c #FFFBEA",
"^+	c #FFDF88",
"/+	c #FFB50D",
"(+	c #F8A400",
"_+	c #EC9B00",
":+	c #DD9200",
"<+	c #CE8800",
"[+	c #342303",
"}+	c #FEFCF1",
"|+	c #FFE49A",
"1+	c #FFC62B",
"2+	c #FFBE02",
"3+	c #FFC300",
"4+	c #FFC802",
"5+	c #FFE373",
"6+	c #FFFDF5",
"7+	c #858585",
"8+	c #B8B8B8",
"9+	c #FFFFFD",
"0+	c #FFEAB0",
"a+	c #FFBC1A",
"b+	c #FEAB00",
"c+	c #B77800",
"d+	c #A06900",
"e+	c #7A5001",
"f+	c #1E1402",
"g+	c #6A6A6A",
"h+	c #9A9A9A",
"i+	c #F9F9F7",
"j+	c #FEF0C4",
"k+	c #FFCA3F",
"l+	c #FFBD03",
"m+	c #FFC000",
"n+	c #FFC500",
"o+	c #FFCB00",
"p+	c #FFE149",
"q+	c #FFFEF6",
"r+	c #121212",
"s+	c #000000",
"t+	c #5B5B5B",
"u+	c #F1F0F0",
"v+	c #FFFFFE",
"w+	c #FFEBB4",
"x+	c #FFB80D",
"y+	c #EB9B00",
"z+	c #B37500",
"A+	c #956200",
"B+	c #624102",
"C+	c #414040",
"D+	c #8F8F8F",
"E+	c #F8F1DA",
"F+	c #FFD260",
"G+	c #FFB608",
"H+	c #FFBB00",
"I+	c #FFC200",
"J+	c #FFC700",
"K+	c #FFCD00",
"L+	c #FFD71B",
"M+	c #FFF9D8",
"N+	c #1B1B1A",
"O+	c #030303",
"P+	c #3F3F3F",
"Q+	c #8E8E8E",
"R+	c #FFDF84",
"S+	c #FFB300",
"T+	c #D68D00",
"U+	c #AA6F00",
"V+	c #885900",
"W+	c #312102",
"X+	c #787878",
"Y+	c #E4E2DE",
"Z+	c #EFD49E",
"`+	c #FEB81F",
" @	c #FFB401",
".@	c #FFD400",
"+@	c #FFEF73",
"@@	c #FAFAFA",
"#@	c #CBCBCB",
"$@	c #8C8C8B",
"%@	c #C2C2C2",
"&@	c #A0A0A0",
"*@	c #606060",
"=@	c #FFC31F",
"-@	c #FDAA00",
";@	c #F3A000",
">@	c #E29500",
",@	c #D08900",
"'@	c #B87900",
")@	c #9C6600",
"!@	c #734C01",
"~@	c #3E3D3D",
"{@	c #DED6C8",
"]@	c #EEBA55",
"^@	c #FBA804",
"/@	c #FFB100",
"(@	c #FFB900",
"_@	c #FFD600",
":@	c #FFDD08",
"<@	c #FFFACA",
"[@	c #5D5D5D",
"}@	c #555554",
"|@	c #E8E8E8",
"1@	c #373737",
"2@	c #3E3E3E",
"3@	c #DDDDDD",
"4@	c #333333",
"5@	c #555555",
"6@	c #E1E0E0",
"7@	c #FFE286",
"8@	c #FFB901",
"9@	c #FBA600",
"0@	c #EE9C00",
"a@	c #C68200",
"b@	c #AD7100",
"c@	c #8D5C00",
"d@	c #2E1F02",
"e@	c #BCBBBA",
"f@	c #D1BE9A",
"g@	c #E9A41D",
"h@	c #FFB600",
"i@	c #FFBE00",
"j@	c #FFC600",
"k@	c #FFD900",
"l@	c #FFE428",
"m@	c #FFFEF1",
"n@	c #646464",
"o@	c #F5F5F4",
"p@	c #A5A5A5",
"q@	c #FFF7D2",
"r@	c #FFC20D",
"s@	c #FEAC00",
"t@	c #888888",
"u@	c #AAA9A8",
"v@	c #C3A873",
"w@	c #DD960D",
"x@	c #FFB200",
"y@	c #FFD200",
"z@	c #FFDA00",
"A@	c #FFEC45",
"B@	c #FFFEFA",
"C@	c #B1B1B0",
"D@	c #464545",
"E@	c #797979",
"F@	c #7A7A7A",
"G@	c #D2D2D2",
"H@	c #FFFDF1",
"I@	c #FFCB25",
"J@	c #D98F00",
"K@	c #C48100",
"L@	c #A96E00",
"M@	c #815501",
"N@	c #1A1202",
"O@	c #959493",
"P@	c #B49454",
"Q@	c #CD8905",
"R@	c #FFC800",
"S@	c #FFD800",
"T@	c #FFE200",
"U@	c #FFF057",
"V@	c #FBFBFA",
"W@	c #605F5F",
"X@	c #BEBEBE",
"Y@	c #E2E2E2",
"Z@	c #1A1A1A",
"`@	c #FFD340",
" #	c #F4A100",
".#	c #E09300",
"+#	c #CC8600",
"@#	c #905E00",
"##	c #3B2702",
"$#	c #686765",
"%#	c #A08042",
"&#	c #BE7D00",
"*#	c #FFBA00",
"=#	c #FFD300",
"-#	c #FFDD00",
";#	c #FFE500",
">#	c #FFF052",
",#	c #4B4B4B",
"'#	c #CDCDCD",
")#	c #767676",
"!#	c #FFFFFB",
"~#	c #FFD83D",
"{#	c #E89800",
"]#	c #D38B00",
"^#	c #9B6500",
"/#	c #5D3D02",
"(#	c #7A6439",
"_#	c #A66D02",
":#	c #DA8F00",
"<#	c #FFBC00",
"[#	c #FFE300",
"}#	c #FFEE34",
"|#	c #FFFEF4",
"1#	c #636363",
"2#	c #1E1E1E",
"3#	c #B5B5B5",
"4#	c #FFD52D",
"5#	c #FDA800",
"6#	c #D88E00",
"7#	c #C17F00",
"8#	c #A46C00",
"9#	c #764E01",
"0#	c #231C10",
"a#	c #8B5D06",
"b#	c #C88400",
"c#	c #E19400",
"d#	c #FFB700",
"e#	c #FFCF00",
"f#	c #FFDB00",
"g#	c #FFF113",
"h#	c #FFFDDE",
"i#	c #525252",
"j#	c #9E9E9E",
"k#	c #FFFCDE",
"l#	c #FFD615",
"m#	c #FFB500",
"n#	c #F09E00",
"o#	c #DE9200",
"p#	c #AB7000",
"q#	c #7E5301",
"r#	c #160F01",
"s#	c #8E5D00",
"t#	c #B17400",
"u#	c #CB8600",
"v#	c #F7A200",
"w#	c #FEAE00",
"x#	c #FFB800",
"y#	c #FFC100",
"z#	c #FFCA00",
"A#	c #FFDF00",
"B#	c #FFEA00",
"C#	c #FFF100",
"D#	c #FFF989",
"E#	c #656565",
"F#	c #C0C0C0",
"G#	c #ACACAC",
"H#	c #505050",
"I#	c #343333",
"J#	c #444444",
"K#	c #F4F4F4",
"L#	c #FFF2A9",
"M#	c #FFD303",
"N#	c #AE7200",
"O#	c #231802",
"P#	c #412C02",
"Q#	c #FFE000",
"R#	c #FFEC00",
"S#	c #FFF426",
"T#	c #FFFEE9",
"U#	c #646463",
"V#	c #F8F8F8",
"W#	c #FFE843",
"X#	c #2F2002",
"Y#	c #432D03",
"Z#	c #8F5E00",
"`#	c #FFE100",
" $	c #FFEE00",
".$	c #FFF501",
"+$	c #FFFA80",
"@$	c #FFF8B9",
"#$	c #FFDB03",
"$$	c #B47600",
"%$	c #342202",
"&$	c #432D02",
"*$	c #E39600",
"=$	c #FFF500",
"-$	c #FFFA09",
";$	c #FFFAAD",
">$	c #D9D9D9",
",$	c #FFFDDD",
"'$	c #FFE826",
")$	c #FFB102",
"!$	c #F7AA13",
"~$	c #E3A93B",
"{$	c #CFA658",
"]$	c #B49861",
"^$	c #917A4F",
"/$	c #322713",
"($	c #FFED00",
"_$	c #FFF400",
":$	c #FFFA00",
"<$	c #FFFA12",
"[$	c #FFFAA9",
"}$	c #FFFFFA",
"|$	c #FFFDDF",
"1$	c #FFED43",
"2$	c #FFE101",
"3$	c #FFCD03",
"4$	c #FFC920",
"5$	c #FFD565",
"6$	c #FFE9AB",
"7$	c #F6EED9",
"8$	c #CDCCCC",
"9$	c #B2B2B2",
"0$	c #8E8D8D",
"a$	c #2E2E2D",
"b$	c #B27500",
"c$	c #CE8700",
"d$	c #FEAF00",
"e$	c #FFF200",
"f$	c #FFFA08",
"g$	c #FFFB6C",
"h$	c #FFFDEA",
"i$	c #FFFBC8",
"j$	c #FFEF30",
"k$	c #FFE501",
"l$	c #FFDE0C",
"m$	c #FFE457",
"n$	c #FFF2AE",
"o$	c #E3E3E2",
"p$	c #AFAFAF",
"q$	c #8D8D8D",
"r$	c #242424",
"s$	c #2C1D02",
"t$	c #FFC900",
"u$	c #FFD000",
"v$	c #FFDC00",
"w$	c #FFE700",
"x$	c #FFF700",
"y$	c #FFFA18",
"z$	c #FFFA79",
"A$	c #FFFCCA",
"B$	c #FFFDEE",
"C$	c #FFFCBE",
"D$	c #FFF554",
"E$	c #FFF109",
"F$	c #FFE904",
"G$	c #FFEB2F",
"H$	c #FFF487",
"I$	c #FFFDE8",
"J$	c #F3F3F2",
"K$	c #DFDFDE",
"L$	c #C8C8C8",
"M$	c #ABABAB",
"N$	c #151515",
"O$	c #A96F00",
"P$	c #C78300",
"Q$	c #FFB400",
"R$	c #FFBD00",
"S$	c #FFCE00",
"T$	c #FFD700",
"U$	c #FFE400",
"V$	c #FFF300",
"W$	c #FFFA01",
"X$	c #FFFB0C",
"Y$	c #FFFA23",
"Z$	c #FFF944",
"`$	c #FFFB58",
" %	c #FFF943",
".%	c #FFF923",
"+%	c #FFF307",
"@%	c #FFF20C",
"#%	c #FFF446",
"$%	c #FFF9B5",
"%%	c #C4C4C4",
"&%	c #A6A6A6",
"*%	c #777776",
"=%	c #724B01",
"-%	c #A46B00",
";%	c #BF7D00",
">%	c #EB9A00",
",%	c #FFCC00",
"'%	c #FFF000",
")%	c #FFF409",
"!%	c #FFF75D",
"~%	c #FFFCC4",
"{%	c #616060",
"]%	c #563902",
"^%	c #976300",
"/%	c #F8A300",
"(%	c #FFF900",
"_%	c #FFF810",
":%	c #FFF865",
"<%	c #FFFCD6",
"[%	c #949494",
"}%	c #414141",
"|%	c #8A5B00",
"1%	c #F19F00",
"2%	c #FFC400",
"3%	c #FFF800",
"4%	c #FFF711",
"5%	c #FFF861",
"6%	c #FFFCD3",
"7%	c #F0F0F0",
"8%	c #878787",
"9%	c #1F1F1F",
"0%	c #774E01",
"a%	c #C07E00",
"b%	c #D58C00",
"c%	c #EA9A00",
"d%	c #F9A500",
"e%	c #FFE800",
"f%	c #FFEF00",
"g%	c #FFF205",
"h%	c #FFF654",
"i%	c #FFFCCE",
"j%	c #6C6C6C",
"k%	c #523602",
"l%	c #946100",
"m%	c #CA8500",
"n%	c #FFF003",
"o%	c #FFF442",
"p%	c #FFF9BE",
"q%	c #F1F1F0",
"r%	c #929292",
"s%	c #3D3D3D",
"t%	c #1F1502",
"u%	c #835601",
"v%	c #A76E00",
"w%	c #E79800",
"x%	c #FFEA25",
"y%	c #FFF7A2",
"z%	c #E7E7E6",
"A%	c #A3A3A3",
"B%	c #593B02",
"C%	c #FFDB0A",
"D%	c #FFF170",
"E%	c #FFFDE6",
"F%	c #ECECEC",
"G%	c #DBDBDB",
"H%	c #424242",
"I%	c #181102",
"J%	c #784F01",
"K%	c #BB7B00",
"L%	c #CF8800",
"M%	c #FFCD02",
"N%	c #FFE03D",
"O%	c #E1E1E0",
"P%	c #6B6B6B",
"Q%	c #3A2703",
"R%	c #BF7E00",
"S%	c #D48B00",
"T%	c #FFC711",
"U%	c #FFE784",
"V%	c #F2F2F2",
"W%	c #838383",
"X%	c #5B3C02",
"Y%	c #AF7200",
"Z%	c #C28000",
"`%	c #D48C00",
" &	c #FFC328",
".&	c #FFF0C3",
"+&	c #E3E3E3",
"@&	c #D5D5D5",
"#&	c #C3C3C3",
"$&	c #6B4601",
"%&	c #966300",
"&&	c #EF9E03",
"*&	c #F9C55B",
"=&	c #FEF9E7",
"-&	c #EEEEEE",
";&	c #5D5C5C",
">&	c #191102",
",&	c #B07300",
"'&	c #C27F00",
")&	c #D18A03",
"!&	c #DEB86D",
"~&	c #EAE7E1",
"{&	c #C1C1C1",
"]&	c #626161",
"^&	c #6D4802",
"/&	c #AD7203",
"(&	c #BE9D5D",
"_&	c #CBCAC8",
":&	c #E4E4E4",
"<&	c #D8D8D8",
"[&	c #616161",
"}&	c #130D01",
"|&	c #5F3F02",
"1&	c #8C6B2C",
"2&	c #A2A2A0",
"3&	c #DBDBDA",
"4&	c #453D2F",
"5&	c #7F7F7F",
"6&	c #999999",
"7&	c #E6E6E6",
"8&	c #7D7D7D",
"9&	c #393939",
"0&	c #222121",
"a&	c #646363",
"b&	c #9C9C9C",
"c&	c #2D2D2D",
"d&	c #5A5959",
"e&	c #252524",
"f&	c #484848",
"g&	c #6D6C6C",
"h&	c #1C1C1C",
"i&	c #191818",
"j&	c #2F2E2E",
"k&	c #565656",
"l&	c #666665",
"m&	c #696969",
"n&	c #626262",
"o&	c #2E2D2D",
"p&	c #171717",
"                                      . + @ # $ $ % & * =                                       ",
"                                - ; > , ' ) ! ~ ~ ! ) { ] ^ / +                                 ",
"                          ( _ : < [ } | 1 2 3 4 4 3 2 5 6 7 8 9 0 a                             ",
"                        b c ! d 1 e f g h i j j j j i h k l m n o p q r                         ",
"                    s t u d v w x y z A B C D D D E F G H I J K L M N O P Q                     ",
"                  b R S 1 T h U V C W X Y Z `  ...+.@.#.$.%.&.*.=.-.;.>.,.'.).                  ",
"                !.' ~.4 {.].^./.(._.:.<.[.}.|.1.2.2.3.4.5.6.7.8.9.0.a.b.c.d.e.f.                ",
"              g.) | h.i.j.D (.k.<.l.m.n.o.p.q.r.s.t.u.v.w.x.y.z.A.8.B.C.D.E.F.G.H.              ",
"            !.) I.T J.A K.Z L.M.N.O.P.Q.R.S.T.U.M.M.M.M.V.W.X.Y.Z.`. +.+++@+#+$+G.f.            ",
"          %+' &+T *+=+-+;+>+,+'+)+!+~+{+]+M.M.M.M.M.M.M.M.M.M.[.^+/+4.(+_+:+<+#+F.e.[+          ",
"        + , ~.h.J.=+-+;+}+|+1+2+3+4+5+6+M.M.M.M.M.<.y 7+] 8+Z M.9+0+a+b+(+_+:+@+c+d+e+f+        ",
"        g+h+4 h A -+i+j+k+l+m+n+o+p+q+M.M.M.M.M.>+d r+s+s+s+t+u+M.v+w+x+3.(+y+++D.z+A+B+        ",
"      C+D+5 g j.K.E+F+G+H+I+J+K+L+M+M.M.M.M.M.M.^.N+s+O+P+s+s+Q+M.M.9+R+S+b+(+%.T+b.U+V+W+      ",
"      X+} h.j Y+Z+`+ @H+I+J+K+.@+@v+M.@@#@$@A M.%@s+s+&@_.0 s+*@>+M.M.N.=@S+-@;@>@,@'@)@!@      ",
"    ~@u 1 x {@]@^@/@(@m+J+K+_@:@<@M.A [@s+s+}@;+|@1@2@_.3@4@s+5@6@M.M.M.7@8@2.9@0@++a@b@c@d@    ",
"    0 &@e@f@g@A.3.h@i@j@K+.@k@l@m@M.n@s+s+s+s+h.M.Y o@<.t+s+s+s+O+p@<.M.q@r@h@s@A.9.,@E.)@B+    ",
"  + t@u@v@w@8.z.x@H+3+o+y@k@z@A@B@M.C@D@E@s+s+/ @@M.M.M.3 !.F@$ s+r+G@M.H@I@H+/@`.0@J@K@L@M@N@  ",
"  / O@P@Q@&.A.3.h@!+R@K+S@z@T@U@9+M.>+V@>+W@s+s+X@M.M.M.M.<.M.Y@Z@s+' M.B@`@i@h@s@ #.#+#z+@###  ",
"  $#%#&#T+%.9@2.*#I+o+=#k@-#;#>#U.M.M.M.M.J.  s+,#_.M.G@t@].@@'#O+s+)#M.!#~#I+*#2.6.{#]#;.^#/#  ",
"  (#_#K@:#$.5.S+<#j@K+_@k@[#;#}#|#M.M.M.M.L.1#s+s+h.M.n@s+r+a 2#s+s+3#M.q+4#n+<#S+5#0@6#7#8#9#  ",
"0#a#b@b#c##.s@d#!+R@e#k@f#;#;#g#h#M.M.M.M.M.J.s+s+i#;+j#s+s+s+s+s+i#Y M.k#l#R@!+m#4.n#o#b#p#q#r#",
"W+s#t#u#>@v#w#x#y#z#=#k@A#;#B#C#D#M.M.M.M.M.L.E#s+s+F#:.G#H#I#J#< K#M.M.L#M#z#m+x#3.v#>@b#N#O O#",
"P#s#c.a.&.A.2.x#I+o+=#k@Q#;#R#C#S#T#M.M.M.M.M.].s+s+U#M.M.@@K#V#>+M.M.!#W#=#z#I+d#w#A.>@@+t#s#X#",
"Y#Z#c+=.B.v#2.H+I+K+=#k@`#;# $C#.$+$v+M.M.M.M.>+n@s+X+M.M.M.M.M.M.M.M.@$#$=#K+I+x#2.v#&.,@$$s#%$",
"&$Z#c+=.*$A.2.H+I+K+=#k@Q#;# $C#=$-$;$9+M.M.M.M.k.>$;+M.M.M.M.M.M.M.,$'$k@=#K+I+d#)$!$~${$]$^$/$",
"P#s#c.=.*$A.2.(@I+K+=#k@Q#;#($C#_$:$<$[$}$M.M.M.M.M.M.M.M.M.M.M.M.|$1$2$k@=#3$4$5$6$7$Y+8$9$0$a$",
"%$s#b$c$>@v#d$x#I+z#=#k@`#;#B#C#e$:$:$f$g$h$M.M.M.M.M.M.M.M.M.9+i$j$k$`#l$m$n$,+v+M.Z o$#@p$q$r$",
"s$s#N#-.>@7.3.d#!+t$u$k@v$;#w$C#C#x$:$:$:$y$z$A$B$U.M.v+U.B$C$D$E$F$G$H$I$v+M.M.M.M.J$K$L$M$, N$",
"N@q#O$P$*.n#-@Q$R$j@S$T$k@U$;#R#C#V$:$:$:$:$W$X$Y$Z$`$`$ %.%+%@%#%$%m@M.M.M.M.M.M.<.X A %%&%*%  ",
"  =%-%;%6#>%`./@*#3+,%.@k@Q#;#w$'%C#V$:$:$:$:$:$:$:$:$:$:$)%!%~%B@M.M.M.M.M.M.M.M.:.W z T 7 {%  ",
"  ]%^%'@,@9./%w#x#m+R@e#k@z@U$;#B#C#C#V$(%:$:$:$:$:$:$_%:%<%v+M.M.M.M.M.M.M.M.M.M.k.C y 4 [%}%  ",
"  X#|%M D.o#1%-@S+R$2%,%.@k@v$;#;#R#'%C#C#_$=$3%3%4%5%6%U.M.M.M.M.M.M.M.M.M.M.M.<.7%A x M$8%9%  ",
"    0%-%a%b%c%d%2.d#m+R@S$_@k@Q#;#;#e%f%C#C#C#g%h%i%9+M.M.M.M.M.M.M.M.M.M.M.M.M.;+|@U w &@j%    ",
"    k%l%$$m%c#1%5.S+H+I+z#u$S@k@-#U$;#;#e%n%o%p%v+M.M.M.M.M.M.M.M.M.M.M.M.M.M.<.q%^.h v r%s%    ",
"    t%u%v%a%T+w%/%w#h@R$2%z#u$S@k@v$T@k$x%y%|#M.M.M.M.M.M.M.M.M.M.M.M.M.M.M.>+_.z%U X@A%X+      ",
"      B%A+t#D.0.8.`.2.h@i@n+z#S$_@k@C%D%E%M.M.M.M.M.M.M.M.M.M.M.M.M.M.M.M.M.@@F%G%{.1 u H%      ",
"      I%J%d.K%L%c#1%z./@h@i@3+t$M%N%<@v+M.M.M.M.M.M.M.M.M.M.M.M.M.M.M.M.M.L.7%O%y 8+j#P%        ",
"        Q%e.v%R%S%&.1%z./@h@<#T%U%H@M.M.M.M.M.M.M.M.M.M.M.M.M.M.M.M.M.M.L.V%Y@j T p@W%s         ",
"          X%l%Y%Z%`%&.1%`.w# &.&9+M.M.M.M.M.M.M.M.M.M.M.M.M.M.M.M.M.M.L.V%+&@&#&G#) $           ",
"            $&%&M K@S%>@&&*&=&M.M.M.M.M.M.M.M.M.M.M.M.M.M.M.M.M.M.>+;+-&=+G@#&G#! ;&            ",
"            >&=%^%,&'&)&!&~&Z L.>+M.M.M.M.M.M.M.M.M.M.M.M.M.M.>+L.K#K.^.J.{&5 [%]&              ",
"              f+^&l%/&(&_&>$:&-&Z @@>+M.M.M.M.M.M.M.M.M.M.>+@@o@-++&<&#@w I.! [&                ",
"                }&|&1&2&3##&J.3&o$W 7%Z ;+:.L.<.<.L.:.V#Z (.K.Y@>$y #&3 A%9 i#                  ",
"                    4&5&6&M$8+%%y z ^.o$7&K.F%-+-+F%K.7&o$3@@&'#%%8+| 6&8&9&                    ",
"                      0&a&{ b&G#3#f {.i j U <&>$>$<&U j #@x X@3#| b&8%;&Z@                      ",
"                          c&[&7+8 &@I.9$e h.T f f T h.4 v I.&@8 W%d&e&                          ",
"                              9%f&g&W%D+~ b&7 &@&@j#b&8 Q+R t % h&                              ",
"                                    i&j&# k&l&m&m&n&5@%+o&p&                                    "};
