/* XPM */
static char * biloba_icon_xpm[] = {
"32 32 711 2",
"  	c None",
". 	c #F1F1F1",
"+ 	c #F1F0F1",
"@ 	c #F0F0F0",
"# 	c #F0F1F1",
"$ 	c #F2F2F2",
"% 	c #F3F3F3",
"& 	c #F3F4F4",
"* 	c #F5F3F2",
"= 	c #EDEEEE",
"- 	c #D9DCDC",
"; 	c #A7BEC5",
"> 	c #B9BBBC",
", 	c #9C9E9D",
"' 	c #A9ABAB",
") 	c #B9BCBD",
"! 	c #CAD2D4",
"~ 	c #E8E8E9",
"{ 	c #F1F2F2",
"] 	c #F2F1F1",
"^ 	c #F1F0F0",
"/ 	c #F0F0F1",
"( 	c #CAD8DF",
"_ 	c #6A9CAC",
": 	c #999D9F",
"< 	c #5E8D9E",
"[ 	c #568C9C",
"} 	c #AEAFB0",
"| 	c #949696",
"1 	c #969897",
"2 	c #9A9C9D",
"3 	c #9AA4A6",
"4 	c #5A8C9C",
"5 	c #4C8497",
"6 	c #B0B6B6",
"7 	c #AFC4CC",
"8 	c #E0E8EB",
"9 	c #ECECEC",
"0 	c #AEB3B4",
"a 	c #759098",
"b 	c #9EA2A2",
"c 	c #A4A8A9",
"d 	c #95A7AE",
"e 	c #A0ADB2",
"f 	c #BEC1C2",
"g 	c #B2B9BC",
"h 	c #87A8B5",
"i 	c #ACB4B6",
"j 	c #B6BABA",
"k 	c #A6AEB1",
"l 	c #97A4A7",
"m 	c #A3A5A6",
"n 	c #7E9398",
"o 	c #7795A0",
"p 	c #DEDFDF",
"q 	c #DCDCDC",
"r 	c #959898",
"s 	c #818483",
"t 	c #868989",
"u 	c #ACAEAF",
"v 	c #8CA3AD",
"w 	c #729CAC",
"x 	c #4F91AA",
"y 	c #D4D5D3",
"z 	c #84AABA",
"A 	c #4A8EAA",
"B 	c #73A5B3",
"C 	c #C7CACD",
"D 	c #84A4B3",
"E 	c #3182A2",
"F 	c #A1ADB1",
"G 	c #929494",
"H 	c #858686",
"I 	c #848888",
"J 	c #C0C2C2",
"K 	c #D0D2D2",
"L 	c #727472",
"M 	c #949798",
"N 	c #898B8B",
"O 	c #969898",
"P 	c #BDC0C2",
"Q 	c #ACB6BA",
"R 	c #8EB2BE",
"S 	c #C9CFD0",
"T 	c #DBDEE0",
"U 	c #D3D8DB",
"V 	c #BACED5",
"W 	c #D6D8DA",
"X 	c #D5D8D9",
"Y 	c #ACBFC5",
"Z 	c #82A9B5",
"` 	c #B3B6B8",
" .	c #A9ACAC",
"..	c #8E9090",
"+.	c #868988",
"@.	c #818484",
"#.	c #A6A7A6",
"$.	c #DFDFE0",
"%.	c #787979",
"&.	c #ACAFB0",
"*.	c #B3B4B6",
"=.	c #C6C9CA",
"-.	c #CDD1D3",
";.	c #D8DBDD",
">.	c #E5E8EA",
",.	c #D6DFE4",
"'.	c #92BACA",
").	c #D2DCDF",
"!.	c #DDE1E3",
"~.	c #CED0D2",
"{.	c #C6CACB",
"].	c #C2C4C6",
"^.	c #BEC0C2",
"/.	c #B5B6B8",
"(.	c #AAACAD",
"_.	c #A0A2A3",
":.	c #787B7A",
"<.	c #B2B4B3",
"[.	c #ECEDEE",
"}.	c #929696",
"|.	c #919494",
"1.	c #9DA0A0",
"2.	c #A2A6A5",
"3.	c #AFB2B2",
"4.	c #CDCFD1",
"5.	c #C4C7C8",
"6.	c #D1D4D5",
"7.	c #DDE0E1",
"8.	c #ECEFF1",
"9.	c #B6CEDC",
"0.	c #9DC4D4",
"a.	c #5E9CB4",
"b.	c #EAE9EA",
"c.	c #D1D4D6",
"d.	c #BCBFC0",
"e.	c #C3C7C8",
"f.	c #A4A8A7",
"g.	c #9B9E9E",
"h.	c #A6A9A9",
"i.	c #949697",
"j.	c #8D9192",
"k.	c #D0D1D0",
"l.	c #EFEFF1",
"m.	c #D1CA94",
"n.	c #85888B",
"o.	c #878A89",
"p.	c #A9AEAE",
"q.	c #ACB0B0",
"r.	c #B7BABB",
"s.	c #CFD2D4",
"t.	c #C9CCCD",
"u.	c #E2E4E6",
"v.	c #EFF2F4",
"w.	c #A3C6D4",
"x.	c #4A94AE",
"y.	c #C3D6DE",
"z.	c #E8ECEE",
"A.	c #D6D9DB",
"B.	c #CCCED0",
"C.	c #C2C4C5",
"D.	c #CCCFD1",
"E.	c #AEB2B2",
"F.	c #A6A9A8",
"G.	c #7F8181",
"H.	c #9DA299",
"I.	c #EEF0E9",
"J.	c #F1ECC8",
"K.	c #D2C065",
"L.	c #85888A",
"M.	c #B5B8B9",
"N.	c #B2B5B6",
"O.	c #BEC2C3",
"P.	c #C9CCCE",
"Q.	c #D4D8D9",
"R.	c #DADDDF",
"S.	c #E2E6E8",
"T.	c #EAEEEF",
"U.	c #EEF1F3",
"V.	c #F3F5F6",
"W.	c #F6F8F8",
"X.	c #E9ECEE",
"Y.	c #E4E7E9",
"Z.	c #DCE0E2",
"`.	c #D5D9DB",
" +	c #CED1D2",
".+	c #C3C6C8",
"++	c #B6B8BA",
"@+	c #B1B3B4",
"#+	c #A1A3A3",
"$+	c #868888",
"%+	c #9EA398",
"&+	c #CADC93",
"*+	c #F2F1F4",
"=+	c #F2F1F2",
"-+	c #C8C6A8",
";+	c #A0A49F",
">+	c #A8ACAD",
",+	c #C8CBCD",
"'+	c #D2D6D8",
")+	c #D2D5D6",
"!+	c #EDF1F3",
"~+	c #EAEEF0",
"{+	c #EAEDF0",
"]+	c #E8EAEC",
"^+	c #D4D7D9",
"/+	c #CCCFD0",
"(+	c #D4D8DA",
"_+	c #C0C2C4",
":+	c #BBBEC0",
"<+	c #B8BCBD",
"[+	c #AEB0B4",
"}+	c #A0A2A5",
"|+	c #A0AC80",
"1+	c #EDEDEF",
"2+	c #ECECEE",
"3+	c #BAB37E",
"4+	c #9D9F9C",
"5+	c #E1D69B",
"6+	c #E3CE56",
"7+	c #BABDC2",
"8+	c #B1B4B5",
"9+	c #C8CCCD",
"0+	c #D5D8DA",
"a+	c #EDF0F2",
"b+	c #EAEDEF",
"c+	c #E8EBED",
"d+	c #ECEFF2",
"e+	c #DEE2E4",
"f+	c #D7DADC",
"g+	c #C1C4C5",
"h+	c #B6B9B9",
"i+	c #B0B3B4",
"j+	c #BCC0BB",
"k+	c #C6D78D",
"l+	c #A2AA8C",
"m+	c #9CA48D",
"n+	c #D2D4D2",
"o+	c #F0F0EF",
"p+	c #DFDED9",
"q+	c #F6DF66",
"r+	c #B4B49F",
"s+	c #FBE26B",
"t+	c #E6CD4C",
"u+	c #BCBFC4",
"v+	c #A9AEB0",
"w+	c #C8CBCC",
"x+	c #C2C7CA",
"y+	c #CFD4D4",
"z+	c #D2D4D4",
"A+	c #D9DADC",
"B+	c #E6E8EA",
"C+	c #E9EBEE",
"D+	c #D9DADA",
"E+	c #C9CECF",
"F+	c #BEC0C1",
"G+	c #D7D9DA",
"H+	c #C4C8CA",
"I+	c #BCBEBE",
"J+	c #B2B6B6",
"K+	c #C2C7BF",
"L+	c #BFD672",
"M+	c #A4B75E",
"N+	c #C4D09D",
"O+	c #B8C398",
"P+	c #F2F2F1",
"Q+	c #C0C2BF",
"R+	c #C9B95E",
"S+	c #A3A6AC",
"T+	c #C9C290",
"U+	c #B9BBB2",
"V+	c #B9BFC0",
"W+	c #DE9B6D",
"X+	c #DEA77E",
"Y+	c #9EA0A0",
"Z+	c #C1B1A3",
"`+	c #E6854B",
" @	c #DEBFA6",
".@	c #EA7324",
"+@	c #D2BFAF",
"@@	c #B7B8BA",
"#@	c #D8DADA",
"$@	c #E6E8E9",
"%@	c #CFBEAC",
"&@	c #E7742B",
"*@	c #C8B4A5",
"=@	c #A5A4A4",
"-@	c #CCCECE",
";@	c #C7CACB",
">@	c #B9BDBE",
",@	c #B6C19A",
"'@	c #A7AD9D",
")@	c #A1AC87",
"!@	c #9EAA81",
"~@	c #ACAEAE",
"{@	c #96999B",
"]@	c #A9ACAD",
"^@	c #C5C4AE",
"/@	c #BCBEBD",
"(@	c #BEBEBB",
"_@	c #EB6A16",
":@	c #E0A476",
"<@	c #C4AD98",
"[@	c #D4B8A3",
"}@	c #E79A63",
"|@	c #EC9A64",
"1@	c #EC792C",
"2@	c #CAC5BD",
"3@	c #DBA784",
"4@	c #D9AE8E",
"5@	c #BABCBA",
"6@	c #E09B65",
"7@	c #EB6B16",
"8@	c #DCAB89",
"9@	c #BCB0A1",
"0@	c #BCB3A8",
"a@	c #CCA489",
"b@	c #CDAA92",
"c@	c #BDB0A6",
"d@	c #A6A9AA",
"e@	c #B8BEB4",
"f@	c #B0B4B0",
"g@	c #A0A4A5",
"h@	c #8E9293",
"i@	c #EDEDED",
"j@	c #989B9A",
"k@	c #7E807E",
"l@	c #B4B4AA",
"m@	c #FCEB95",
"n@	c #DFCC68",
"o@	c #CCAB95",
"p@	c #E76910",
"q@	c #E6A46E",
"r@	c #E8732C",
"s@	c #E97F3E",
"t@	c #EB955F",
"u@	c #EA6E1C",
"v@	c #E9AA78",
"w@	c #E8711C",
"x@	c #EBA36F",
"y@	c #EB7D38",
"z@	c #EBAA78",
"A@	c #E77425",
"B@	c #E68C50",
"C@	c #E88740",
"D@	c #EB8840",
"E@	c #EB6C1D",
"F@	c #E2A980",
"G@	c #EA630B",
"H@	c #DCB698",
"I@	c #9F9F9C",
"J@	c #D3DFAB",
"K@	c #ACC161",
"L@	c #929496",
"M@	c #777978",
"N@	c #EAEAEA",
"O@	c #F3F2F2",
"P@	c #969998",
"Q@	c #B4B4A4",
"R@	c #FCDE46",
"S@	c #D8C662",
"T@	c #D1A07C",
"U@	c #E68E52",
"V@	c #E58241",
"W@	c #EB9458",
"X@	c #EE6007",
"Y@	c #EB8B48",
"Z@	c #ED5B00",
"`@	c #EC965B",
" #	c #EC5F0A",
".#	c #DFC0A1",
"+#	c #ED660E",
"@#	c #E6965C",
"##	c #EA610B",
"$#	c #DFBC9F",
"%#	c #EC6615",
"&#	c #E6A670",
"*#	c #EB6204",
"=#	c #E2AC82",
"-#	c #EE6005",
";#	c #E4A474",
">#	c #9EA1A0",
",#	c #B4CC64",
"'#	c #A7BD55",
")#	c #919396",
"!#	c #767877",
"~#	c #A8AAAA",
"{#	c #96999C",
"]#	c #A8ABAD",
"^#	c #C4C0A9",
"/#	c #B6B9B7",
"(#	c #AEAEAC",
"_#	c #C4A994",
":#	c #C6AA93",
"<#	c #A7A9A8",
"[#	c #CCAA90",
"}#	c #C4B19F",
"|#	c #D0A88C",
"1#	c #BAAFA2",
"2#	c #C2AE9C",
"3#	c #D4A885",
"4#	c #C7AE9A",
"5#	c #A2A8A9",
"6#	c #C3AD9B",
"7#	c #D4A887",
"8#	c #C3AD9A",
"9#	c #A0A5A5",
"0#	c #C6AC93",
"a#	c #BEAC9B",
"b#	c #C8AB94",
"c#	c #A7A5A1",
"d#	c #9C9E9E",
"e#	c #B8BDAF",
"f#	c #AEB1AD",
"g#	c #8E9092",
"h#	c #ECECEB",
"i#	c #B8B9B9",
"j#	c #CABF7C",
"k#	c #A4A7AC",
"l#	c #CCC8A0",
"m#	c #BEBFB6",
"n#	c #B8BBBB",
"o#	c #A0A09E",
"p#	c #9B9C9A",
"q#	c #A3A3A3",
"r#	c #A1A2A1",
"s#	c #9D9D9C",
"t#	c #9D9D9D",
"u#	c #A5A6A4",
"v#	c #A6A8A8",
"w#	c #A4A4A3",
"x#	c #A0A0A0",
"y#	c #A8AAAC",
"z#	c #9D9E9D",
"A#	c #A6A7A7",
"B#	c #9B9C9B",
"C#	c #9A9B9A",
"D#	c #B3B7B8",
"E#	c #BCC6A8",
"F#	c #AAAEA1",
"G#	c #ABB29D",
"H#	c #9AA481",
"I#	c #D5D6D1",
"J#	c #F8DE5C",
"K#	c #B4B29E",
"L#	c #FBEEA7",
"M#	c #E8CE4E",
"N#	c #BDC1C6",
"O#	c #AEB0B2",
"P#	c #C5C8C9",
"Q#	c #C8CCCE",
"R#	c #CBCED0",
"S#	c #D0D2D4",
"T#	c #D8DCDE",
"U#	c #E1E5E8",
"V#	c #CDD0D2",
"W#	c #D3D6D8",
"X#	c #B2B4B5",
"Y#	c #B0B2B3",
"Z#	c #C2C6BF",
"`#	c #D7E4AA",
" $	c #A6B862",
".$	c #C1CF96",
"+$	c #ABB78A",
"@$	c #E6E7EA",
"#$	c #B8AE6C",
"$$	c #9DA09F",
"%$	c #E2CC56",
"&$	c #E4CB50",
"*$	c #B0B4B4",
"=$	c #B8BBBC",
"-$	c #CDD0D1",
";$	c #D3D5D8",
">$	c #E0E4E6",
",$	c #DCDFE2",
"'$	c #DADEE0",
")$	c #E6E9EB",
"!$	c #D6D9DC",
"~$	c #B6B9BA",
"{$	c #BBC0B9",
"]$	c #ADCA46",
"^$	c #A0A88A",
"/$	c #9BA57E",
"($	c #C3C6C3",
"_$	c #B9B8A4",
":$	c #A1A39F",
"<$	c #ACAEB0",
"[$	c #BDC0C1",
"}$	c #BABDBE",
"|$	c #C1C4C6",
"1$	c #CCD0D2",
"2$	c #D5D8DB",
"3$	c #D6D8DB",
"4$	c #E1E4E6",
"5$	c #D6D9DA",
"6$	c #B2B4B6",
"7$	c #A3A5A7",
"8$	c #A1AC89",
"9$	c #E6E7E8",
"0$	c #F2ECD0",
"a$	c #D4C267",
"b$	c #888A8D",
"c$	c #949796",
"d$	c #B4B9BA",
"e$	c #B2B5B5",
"f$	c #D3D6D7",
"g$	c #D9DCDE",
"h$	c #DBE0E2",
"i$	c #DCE4E7",
"j$	c #B3B6B7",
"k$	c #A1A4A4",
"l$	c #888B8A",
"m$	c #A0A599",
"n$	c #C7D894",
"o$	c #EFEFEF",
"p$	c #EEEEEF",
"q$	c #C8BD81",
"r$	c #888B8E",
"s$	c #8A8C8C",
"t$	c #AAAEAF",
"u$	c #A2A5A5",
"v$	c #A9ADAD",
"w$	c #B4B6B7",
"x$	c #C6C8CA",
"y$	c #BBBEBF",
"z$	c #C3C6C7",
"A$	c #D4DAD9",
"B$	c #D9B5AC",
"C$	c #D97160",
"D$	c #CCB4B2",
"E$	c #D6DADA",
"F$	c #BEC1C3",
"G$	c #B8BABB",
"H$	c #A4A6A7",
"I$	c #ACAFAF",
"J$	c #949797",
"K$	c #818382",
"L$	c #969C8E",
"M$	c #E1E4DA",
"N$	c #EEEEEE",
"O$	c #868A8A",
"P$	c #919495",
"Q$	c #A0A3A3",
"R$	c #A0A4A4",
"S$	c #B4B8B9",
"T$	c #B9BCBE",
"U$	c #CFD4D5",
"V$	c #E6917A",
"W$	c #E16F58",
"X$	c #CD595A",
"Y$	c #B6B9BB",
"Z$	c #B4B7B9",
"`$	c #C0C3C5",
" %	c #9B9C9D",
".%	c #ACAEAD",
"+%	c #EBEBEB",
"@%	c #B8BAB9",
"#%	c #797B7A",
"$%	c #AAADAE",
"%%	c #B5B8B8",
"&%	c #B8BABC",
"*%	c #CACFD1",
"=%	c #C89897",
"-%	c #D26463",
";%	c #BDB2B2",
">%	c #C7CCCC",
",%	c #BCBEC0",
"'%	c #ABAEAF",
")%	c #9FA2A2",
"!%	c #7F8281",
"~%	c #8D8F8E",
"{%	c #E8E8E8",
"]%	c #E6E6E6",
"^%	c #E4E4E4",
"/%	c #A0A2A1",
"(%	c #717472",
"_%	c #969899",
":%	c #B8BABD",
"<%	c #B4AFAE",
"[%	c #C89E9A",
"}%	c #B9BABC",
"|%	c #C5C8C8",
"1%	c #BFBDBD",
"2%	c #C8B4B2",
"3%	c #C0C4C6",
"4%	c #C2B3B0",
"5%	c #C69692",
"6%	c #B3B6B6",
"7%	c #A4A7A7",
"8%	c #909292",
"9%	c #8A8D8C",
"0%	c #808381",
"a%	c #E3E3E3",
"b%	c #E0E0E0",
"c%	c #D8D8D8",
"d%	c #D6D6D6",
"e%	c #A3A4A4",
"f%	c #888B8C",
"g%	c #838585",
"h%	c #868887",
"i%	c #A7ABAD",
"j%	c #CC9483",
"k%	c #E78067",
"l%	c #CC5352",
"m%	c #BBC4C6",
"n%	c #E49E8A",
"o%	c #E2634C",
"p%	c #C47577",
"q%	c #BFBABA",
"r%	c #E89A82",
"s%	c #E1362A",
"t%	c #B7A7A8",
"u%	c #8F9090",
"v%	c #878B8B",
"w%	c #8B8E8D",
"x%	c #DADADA",
"y%	c #E1E1E1",
"z%	c #D7D7D7",
"A%	c #D2D2D2",
"B%	c #CCCCCC",
"C%	c #C6C6C6",
"D%	c #C1C1C1",
"E%	c #A3A3A2",
"F%	c #939190",
"G%	c #B19790",
"H%	c #A4A2A3",
"I%	c #BB7C7D",
"J%	c #B09A9A",
"K%	c #BA8B88",
"L%	c #C96665",
"M%	c #ACA2A2",
"N%	c #AFB1B1",
"O%	c #B68988",
"P%	c #AE9696",
"Q%	c #A3A8A8",
"R%	c #A69E99",
"S%	c #B07976",
"T%	c #9EA1A1",
"U%	c #D0D0D0",
"V%	c #D4D4D4",
"W%	c #DEDEDE",
"X%	c #E2E2E2",
"Y%	c #E7E7E7",
"Z%	c #D5D5D5",
"`%	c #CECECE",
" &	c #C8C8C8",
".&	c #C0C0C0",
"+&	c #B8B8B8",
"@&	c #AFAFAF",
"#&	c #A6A6A6",
"$&	c #BF867B",
"%&	c #B75B5A",
"&&	c #9D9C9A",
"*&	c #DB9581",
"=&	c #BD625F",
"-&	c #A4AAAA",
";&	c #8A8F8F",
">&	c #AA9E9B",
",&	c #D98E7B",
"'&	c #B95B58",
")&	c #CA847A",
"!&	c #B5A6A6",
"~&	c #BDBDBD",
"{&	c #C4C4C4",
"]&	c #DDDDDD",
"^&	c #E5E5E5",
"/&	c #CFCFCF",
"(&	c #B6B6B6",
"_&	c #ACACAC",
":&	c #A2A2A2",
"<&	c #989898",
"[&	c #8E8D8D",
"}&	c #7A7F7F",
"|&	c #787A7A",
"1&	c #886E6C",
"2&	c #936564",
"3&	c #8A8E8D",
"4&	c #777A78",
"5&	c #787A79",
"6&	c #808382",
"7&	c #8A8280",
"8&	c #936C6A",
"9&	c #848383",
"0&	c #929292",
"a&	c #9CA0A0",
"b&	c #A8A7A7",
"c&	c #B2B2B2",
"d&	c #BCBCBC",
"e&	c #D3D3D3",
"f&	c #D9D9D9",
"g&	c #CDCDCD",
"h&	c #C5C5C5",
"i&	c #A7A7A7",
"j&	c #9C9C9C",
"k&	c #919191",
"l&	c #868686",
"m&	c #7C7C7C",
"n&	c #737373",
"o&	c #6C6C6C",
"p&	c #666464",
"q&	c #616060",
"r&	c #5F5F5F",
"s&	c #606060",
"t&	c #636363",
"u&	c #686868",
"v&	c #6F6F6F",
"w&	c #797878",
"x&	c #828282",
"y&	c #8D8D8D",
"z&	c #AEAEAE",
"A&	c #B7B7B7",
"B&	c #C9C9C9",
". . . . . . . . . + @ @ @ # $ % & $ $ @ @ @ @ . . . . . . . . . ",
". . . . . . . @ @ @ * = - ; > , , ' ) ! ~ { ] @ @ . . . . . . . ",
". . . . . . ^ @ / ( _ : < [ } | 1 2 3 4 5 6 7 8 @ @ . . . . . . ",
". . . . . @ @ 9 0 a b c d e f g h i j k l m n o p . @ @ . . . . ",
". . . . . # q r s t u v w x y z A B C D E F G H I J $ @ . . . . ",
". . . @ @ K L M N O P Q R S T U V W X Y Z `  ...+.@.#.{ @ . . . ",
". . ^ @ $.%.G &.*.) =.=.-.;.>.,.'.).!.~.{.].^./.(._.:.<.$ @ . . ",
". @ @ [.}.|.b 1.2.3.4.5.6.7.8.9.0.a.b.c.=.d.e.f.g.h.i.j.k.@ / . ",
". @ l.m.n.o.p.2.q.r.s.t.W u.v.w.x.y.z.A.B.C.D.E.F. .G G.H.I.@ . ",
". @ J.K.L.G M.N.O.P.Q.R.S.T.U.V.W.v.X.Y.Z.`. +.+++@+#+$+%+&+*+. ",
"@ =+-+;+>+N.P r.d.,+'+)+R.Y.!+~+{+]+8.T ^+/+(+_+:+r.<+[+}+|+1+@ ",
"@ 2+3+4+5+6+7+8+) 9+(+0+T >.a+b+~+c+d+e+f+s.f+g+h+i+j+k+l+m+n+@ ",
"o+p+q+r+s+t+u+v+0 ) w+x+e.y+z+A+B+C+D+E+F+^.G+H+I+J+K+L+M+N+O+P+",
"@ Q+R+S+T+U+V+W+X+Y+Z+`+ @.@+@@@#@$@%@&@*@=@-@;@J >@_+,@'@)@!@P+",
"$ ~@{@]@^@/@(@_@:@<@[@}@|@1@2@3@4@5@6@7@8@9@0@a@b@c@d@e@f@g@h@i@",
"% j@k@l@m@n@o@p@q@r@s@t@u@v@w@x@y@z@A@B@C@D@E@F@G@H@I@J@K@L@M@N@",
"O@P@k@Q@R@S@T@U@V@W@X@Y@Z@`@ #.#+#@###$#%#&#*#=#-#;#>#,#'#)#!#N@",
"$ ~#{#]#^#/#(#_#:#<#[#}#|#1#2#3#4#5#6#7#8#9#0#a#b#c#d#e#f#g@g#h#",
". i#j#k#l#m#n#o#p#q#r#s#t#u#v#w#x#y#~@r#z##.A#B#C#, D#E#F#G#H#@ ",
"o+I#J#K#L#M#N#O#N.P#Q#5.R#S#Z.^+A.T#U#V#P.9+W#r.X#Y#Z#`# $.$+$$ ",
"@ @$#$$$%$&$7+*$=$9+-.-$;$f+>$,$Z.'$)$!$s./+f+^.~$N.{$]$^$/$($@ ",
"@ $ _$:$<$X#[$M.}$|$1$P./+'+e+2$3$W#4$V#V#=.5$[$}$r.=$6$7$8$9$@ ",
"@ @ 0$a$b$c$d$e$O.{.V#f$0+g$g$h$i$T f+T#Q.s.B.|$r.j$k$l$m$n$*+@ ",
"o$o$p$q$r$s$t$u$v$w$x$~$y$z$A$B$C$D$E$F$:+G$,+~@H$I$J$K$L$M$o$@ ",
"N$N$i@D+O$P$Q$>#R$]@.+X#S$T$U$V$W$X$U$Y$Z$X#`$m  %]@r j..%@ o$o$",
"9 9 +%+%@%#%M $%Y#%%[$G$&%> *%=%-%;%>%> &%) ,%j$'%)%!%~%9 i@N$N$",
"N@{%]%^%^%/%(%_%N | :%<%[%}%|%1%2%O.3%4%5%6%7%8%9%$+0%a%{%N@+%9 ",
"]%a%b%q c%d%e%f%g%h%i%j%k%l%m%n%o%p%q%r%s%t%u%+.v%w%x%y%^%]%{%N@",
"b%q z%A%B%C%D%E%F%G%)%H%I%J%6 K%L%M%N%O%P%Q%R%S%T%U%V%x%W%X%]%Y%",
"x%Z%`% &.&+&@&#&x#$&%&&&*&=&-&s$;&G >&,&'&C#)&!&~&{&B%A%z%]&y%^&",
"d%/& &.&(&_&:&<&[&g%}&|&1&2&3&4&5&6&7&8&9&0&a&b&c&d&{&B%e&f&W%X%",
"V%g&h&d&c&i&j&k&l&m&n&o&p&q&r&s&t&u&v&w&x&y&<&q#z&A&D%B&A%z%]&X%"};
