/* XPM */
static char * bitmeter_xpm[] = {
"32 32 7 1",
" 	c None",
".	c #000000",
"+	c #00FF00",
"@	c #FFC300",
"#	c #00CECE",
"$	c #0000FF",
"%	c #919191",
"                                ",
"                                ",
"                                ",
"                                ",
"                                ",
"                                ",
"                                ",
"                                ",
"... ........... ........... ....",
"++. .+++++++++. .+++++++++. .+++",
"++. .+++...+.+. .++++.++++. .+++",
"++. .++.+++.++. .++++.++++. .+++",
"++. .++.++..++. .++++.++++. .+++",
"++. .++.+.+.++. .++++.++++. .+++",
"++. .++..++.++. .++++.++++. .+++",
"++. .++.+++.++. .++++.++++. .+++",
"++. .+.+...+++. .++++.++++. .+++",
"++. .+++++++++. .+++++++++. .+++",
"... ........... ........... ....",
"                                ",
"                                ",
" ..... ..... ..... ..... .....  ",
" .@@@. .+++. .###. .$$$. .%%%.  ",
" .@@@. .+++. .###. .$$$. .%%%.  ",
" .@@@. .+++. .###. .$$$. .%%%.  ",
" ..... ..... ..... ..... .....  ",
"                                ",
"                                ",
"                                ",
"                                ",
"                                ",
"                                "};
