/* XPM */
static char * bittornado_xpm[] = {
"32 32 170 2",
"  	c None",
". 	c #8D8D8D",
"+ 	c #131313",
"@ 	c #000000",
"# 	c #1E1E1E",
"$ 	c #505050",
"% 	c #1B1B1B",
"& 	c #010101",
"* 	c #2E2E2E",
"= 	c #5D5D5D",
"- 	c #6C6C6C",
"; 	c #696969",
"> 	c #6D6D6D",
", 	c #787878",
"' 	c #888888",
") 	c #858585",
"! 	c #404040",
"~ 	c #373737",
"{ 	c #474747",
"] 	c #0A0A0A",
"^ 	c #464646",
"/ 	c #595959",
"( 	c #4E4E4E",
"_ 	c #626262",
": 	c #737373",
"< 	c #717171",
"[ 	c #7F7F7F",
"} 	c #8E8E8E",
"| 	c #919191",
"1 	c #5C5C5C",
"2 	c #616161",
"3 	c #A1A1A1",
"4 	c #252525",
"5 	c #5E5E5E",
"6 	c #7C7C7C",
"7 	c #757575",
"8 	c #7A7A7A",
"9 	c #909090",
"0 	c #949494",
"a 	c #232323",
"b 	c #B1B1B1",
"c 	c #BFBFBF",
"d 	c #C7C7C7",
"e 	c #C0C0C0",
"f 	c #5A5A5A",
"g 	c #383838",
"h 	c #636363",
"i 	c #818181",
"j 	c #7B7B7B",
"k 	c #7D7D7D",
"l 	c #1D1D1D",
"m 	c #171717",
"n 	c #323232",
"o 	c #2A2A2A",
"p 	c #646464",
"q 	c #4D4D4D",
"r 	c #9A9A9A",
"s 	c #8B8B8B",
"t 	c #606060",
"u 	c #5B5B5B",
"v 	c #242424",
"w 	c #222222",
"x 	c #111111",
"y 	c #B3B3B3",
"z 	c #4C4C4C",
"A 	c #707070",
"B 	c #575757",
"C 	c #8A8A8A",
"D 	c #898989",
"E 	c #6E6E6E",
"F 	c #484848",
"G 	c #434343",
"H 	c #141414",
"I 	c #555555",
"J 	c #A3A3A3",
"K 	c #CECECE",
"L 	c #CACACA",
"M 	c #C2C2C2",
"N 	c #B0B0B0",
"O 	c #A0A0A0",
"P 	c #979797",
"Q 	c #8C8C8C",
"R 	c #5F5F5F",
"S 	c #444444",
"T 	c #121212",
"U 	c #303030",
"V 	c #2D2D2D",
"W 	c #333333",
"X 	c #969696",
"Y 	c #C4C4C4",
"Z 	c #B4B4B4",
"` 	c #A4A4A4",
" .	c #9B9B9B",
"..	c #929292",
"+.	c #727272",
"@.	c #545454",
"#.	c #202020",
"$.	c #B2B2B2",
"%.	c #393939",
"&.	c #666666",
"*.	c #676767",
"=.	c #6A6A6A",
"-.	c #9C9C9C",
";.	c #ABABAB",
">.	c #A8A8A8",
",.	c #A2A2A2",
"'.	c #424242",
").	c #3F3F3F",
"!.	c #3E3E3E",
"~.	c #313131",
"{.	c #292929",
"].	c #0F0F0F",
"^.	c #212121",
"/.	c #A7A7A7",
"(.	c #AAAAAA",
"_.	c #808080",
":.	c #4F4F4F",
"<.	c #272727",
"[.	c #363636",
"}.	c #B7B7B7",
"|.	c #B5B5B5",
"1.	c #848484",
"2.	c #6B6B6B",
"3.	c #525252",
"4.	c #080808",
"5.	c #191919",
"6.	c #3A3A3A",
"7.	c #1F1F1F",
"8.	c #656565",
"9.	c #A5A5A5",
"0.	c #C9C9C9",
"a.	c #CBCBCB",
"b.	c #747474",
"c.	c #3C3C3C",
"d.	c #414141",
"e.	c #2B2B2B",
"f.	c #454545",
"g.	c #C3C3C3",
"h.	c #C6C6C6",
"i.	c #ADADAD",
"j.	c #A9A9A9",
"k.	c #262626",
"l.	c #767676",
"m.	c #ACACAC",
"n.	c #878787",
"o.	c #4A4A4A",
"p.	c #353535",
"q.	c #0D0D0D",
"r.	c #686868",
"s.	c #9D9D9D",
"t.	c #868686",
"u.	c #070707",
"v.	c #797979",
"w.	c #B9B9B9",
"x.	c #6F6F6F",
"y.	c #777777",
"z.	c #0E0E0E",
"A.	c #151515",
"B.	c #838383",
"C.	c #9E9E9E",
"D.	c #565656",
"E.	c #494949",
"F.	c #585858",
"G.	c #8F8F8F",
"H.	c #2C2C2C",
"I.	c #1C1C1C",
"J.	c #060606",
"K.	c #515151",
"L.	c #A6A6A6",
"M.	c #BDBDBD",
"                                    . + @ @ @ @ @ #             ",
"                              $ % & * = - ; > , ' ) !           ",
"                        ~ { ] ^ / ( ( _ : < : [ } | :           ",
"                    1 2 3 <     1 4 5 6 , 7 8 ' 9 0 , =         ",
"                a 7 b c d e f g h } ' i j k _ l m n o p         ",
"              q r s f t > u @ @ @ @ v 5 - 6 - h ; - @ @ w       ",
"                < @ x y 7 @ @ z : : A { B C . 9 0 9 D E F G x   ",
"                  5 H I J K L M N O P 9 } Q Q 9 } [ > R f { S   ",
"            T U V v W X Y K L M Z `  .P ..| Q } C ) +.B ( @.W   ",
"        F #.S ' $.# %.I &.*.=.-.;.>.,.-.| _ { ^ S '.).!.!.@.    ",
"        ~.{.].# ^.x ( 7     5 > /.(.`  .8 _.:.!.s               ",
"          <.@ [.    @ f p < }.M |.1.u 2.p @ @ @ 3.+ 4.5.        ",
"              6.7.l 8.9.M 0.a.M N b.c.@ @ @ @ d.    &.e.        ",
"          1 ].f.= e.: Z g.h.L M |.i.>.j.X 8./ H                 ",
"        q B -.  3.E R 1 < k.b.G l.i.m.i.n.5.  o.p.              ",
"          [ - ^ k.h q.[ ] - r._./.s.1.t.- 2.B l ].              ",
"            u.v.4.z / D Y w.x.:.& [.8 1.k , S !.!.              ",
"            q <.%.:.y.b h.| ; z.q.                              ",
"        !.A.!.C ^ k.' e t.I -.|.,                               ",
"      4.~.B.: &.t t C.9.6 / { q                                 ",
"      D.    - E.v F.D B.=.a i.                                  ",
"                *.1 p.G.                                        ",
"      #       D.1.o.u t #.                                      ",
"  z.I       ( } >.- _ 5 2.                                      ",
"! `         *.&.^ f.      Y                                     ",
"H.      h , /.b.).        I.J.U                                 ",
"[.      t.Q : >.f.          z.                                  ",
"          A   4.        I z.                                    ",
"              p.    a G e.                                      ",
"      ^ <   K.u     L.                                          ",
"            '.    A M.                                          ",
"            X   u  .                                            "};
