/* XPM */
static char *blackbox[] = {
/* columns rows colors chars-per-pixel */
"48 48 225 2",
"   c black",
".  c #010100",
"X  c #010101",
"o  c #020201",
"O  c #020202",
"+  c #030302",
"@  c gray1",
"#  c #070707",
"$  c gray4",
"%  c #161615",
"&  c #1C1C1B",
"*  c #212020",
"=  c #252524",
"-  c #2E2E2D",
";  c #333332",
":  c #383837",
">  c #393837",
",  c #3E3D3C",
"<  c #41413F",
"1  c #444442",
"2  c #474644",
"3  c #474645",
"4  c #474745",
"5  c #4E4D4B",
"6  c #4E4E4C",
"7  c #555452",
"8  c #565553",
"9  c #585755",
"0  c #5A5957",
"q  c #5A5A57",
"w  c #5B5A58",
"e  c #5C5B59",
"r  c #5C5B5A",
"t  c #5D5C5A",
"y  c #5D5C5B",
"u  c #5E5D5B",
"i  c #5E5D5C",
"p  c #5F5E5C",
"a  c #605F5D",
"s  c #605F5E",
"d  c #61605E",
"f  c #61605F",
"g  c #62615F",
"h  c #636260",
"j  c #636261",
"k  c #646361",
"l  c #646362",
"z  c #646461",
"x  c #656462",
"c  c #666563",
"v  c #666564",
"b  c #676664",
"n  c #686764",
"m  c #686765",
"M  c #696866",
"N  c #6A6967",
"B  c #6B6A68",
"V  c #6C6B69",
"C  c #6E6D6B",
"Z  c #6F6E6C",
"A  c #6F6F6C",
"S  c #706F6D",
"D  c #71706D",
"F  c #71706E",
"G  c #72716E",
"H  c #72716F",
"J  c #747370",
"K  c #747371",
"L  c #747471",
"P  c #757471",
"I  c #757472",
"U  c #767572",
"Y  c #767573",
"T  c #777674",
"R  c #787774",
"E  c #797875",
"W  c #7C7A78",
"Q  c #7C7B78",
"!  c #7C7B79",
"~  c #7D7C79",
"^  c #81807D",
"/  c #82817E",
"(  c #83827F",
")  c #848380",
"_  c #858481",
"`  c #868582",
"'  c #878582",
"]  c #878683",
"[  c #888683",
"{  c #888783",
"}  c #888784",
"|  c #898885",
" . c #898985",
".. c #8A8985",
"X. c #8A8986",
"o. c #8B8A86",
"O. c #8B8A87",
"+. c #8C8B87",
"@. c #8C8B88",
"#. c #8D8C88",
"$. c #8D8C89",
"%. c #8F8E8A",
"&. c #8F8E8B",
"*. c #908F8B",
"=. c #908F8C",
"-. c #918F8C",
";. c #91908D",
":. c #92908D",
">. c #92918D",
",. c #93928E",
"<. c #949390",
"1. c #959390",
"2. c #959490",
"3. c #959491",
"4. c #969591",
"5. c #969592",
"6. c #979692",
"7. c #989794",
"8. c #999894",
"9. c #999895",
"0. c #9A9995",
"q. c #9A9996",
"w. c #9B9A96",
"e. c #9C9B97",
"r. c #9F9E9A",
"t. c #9F9E9B",
"y. c #A09F9B",
"u. c #A19F9C",
"i. c #A1A09C",
"p. c #A2A19D",
"a. c #A3A29E",
"s. c #A5A4A0",
"d. c #A6A5A1",
"f. c #A7A6A1",
"g. c #A7A6A2",
"h. c #A8A7A3",
"j. c #A9A8A4",
"k. c #ABAAA6",
"l. c #ACABA6",
"z. c #ACABA7",
"x. c #ADABA7",
"c. c #ADACA8",
"v. c #AFAEA9",
"b. c #B3B1AD",
"n. c #B5B3AF",
"m. c #BAB9B4",
"M. c #BEBDB8",
"N. c #BFBEB9",
"B. c #C0BEB9",
"V. c #C0BEBA",
"C. c #C1BFBB",
"Z. c #C1C0BB",
"A. c #C2C1BC",
"S. c #C3C1BC",
"D. c #C3C1BD",
"F. c #C3C2BD",
"G. c #C4C2BE",
"H. c #C6C4BF",
"J. c #C7C5C0",
"K. c #C7C6C1",
"L. c #C8C7C1",
"P. c #C8C6C2",
"I. c #C8C7C2",
"U. c #C9C7C2",
"Y. c #CAC9C4",
"T. c #CBC9C5",
"R. c #CBCAC5",
"E. c #CCCAC5",
"W. c #CCCBC6",
"Q. c #CDCBC6",
"!. c #CDCCC6",
"~. c #CDCCC7",
"^. c #CECCC7",
"/. c #CECCC8",
"(. c #CECDC8",
"). c #CFCDC8",
"_. c #CFCDC9",
"`. c #CFCEC8",
"'. c #CFCEC9",
"]. c #D0CEC9",
"[. c #D0CFCA",
"{. c #D1CFCA",
"}. c #D1D0CB",
"|. c #D2D0CB",
" X c #D2D1CC",
".X c #D3D0CC",
"XX c #D3D1CC",
"oX c #D3D2CC",
"OX c #D3D2CD",
"+X c #D4D2CD",
"@X c #D4D3CD",
"#X c #D5D2CD",
"$X c #D4D3CE",
"%X c #D5D2CE",
"&X c #D5D3CE",
"*X c #D6D3CE",
"=X c #D5D4CE",
"-X c #D6D4CF",
";X c #D6D5CF",
":X c #D7D4CF",
">X c #D7D5CF",
",X c #D7D5D0",
"<X c #D8D6D0",
"1X c #D8D6D1",
"2X c #D9D7D2",
"3X c #DAD8D2",
"4X c #DAD8D3",
"5X c #DAD9D3",
"6X c #DBD9D4",
"7X c #DCDAD5",
"8X c #DCDBD5",
"9X c #DDDAD5",
"0X c #DDDBD5",
"qX c #DDDBD6",
"wX c #DEDCD6",
"eX c #DEDCD7",
"rX c #DFDDD8",
"tX c #E1DFD9",
"yX c #E1DFDA",
"uX c #E2DFDA",
"iX c #E2E0DA",
"pX c #E2E0DB",
"aX c #E4E2DD",
"sX c #E6E3DE",
"dX c #E7E5E0",
/* pixels */
"&X&X&X&X&X&X&X&X&X&X&X&X&X&X&X&X&X&X&X&X*X$X*X*X$X*X*X*X*X*X$X*X&X&X&X&X&X&X&X&X&X&X&X&X*X$X*X$X",
"&X&XXX&X&XXXXX&X&X&X&X|.&X&X&X&XXX&X&XXX*X*XXX$X$XXXXX$X$XXXXX$X&X&XXX&X&XXX&X&XXX&X&XXX$X*X$X*X",
"&X&X&X&X&X*X&X&X*X*X*X*X&X*X*X,X*X*X*X*X*X*X,X*X*X,X*X*X<X*X*X*X,X&X&X,X&X&X*X*X*X*X*X*XXX*X&X&X",
"&X&X&X*X|.'.'.'.'.'.'.'.^.~.^.Q.^.Q.R.^.R.R.^.^.^.R.R.^.^.R.R.^.Q.Q.Q.Q.Q.Q.Q.Q.^.Q.R.^.*X*XXX&X",
"*X*XXXwXXX'.XX'.~.'.|.'.|.|...V D D D D D D M $.$.V D D A D D D V -.O.B J D D D D D B $.2X&X&X&X",
"*X*XXX6X&X&X*X2XiXwX&X&X*X*X( g M n M M M M a ..} g M n n n M M p .._ j n n n n n M g ..8XXXXX&X",
"$X*XXX6X&X&X,XF.w.b.2XXXXX$X_ x M M N N M V x ....z V M N N M V j O.} j B B B M B B j ..,XXX&X&X",
"*X$XXX6X&X'.aXx a 6 y.eX|.XX( x V M N N M V g ....j V N N M M V j ..} j B B M B B B j ..2XXX&X&X",
"$X*XXX8X&X'.sXn 8 , x.6XXX&X_ j B M B M M B j ..} j V M M B M V g +.{ g B M B M N N g +.4X&X&X&X",
"*X$XXX8X*X'.aXx -.g +.uX|.XX_ j B B M B B M j ....g V M B M M V j +.{ j B B M B N N g +.4X|.|.&X",
"$X$XXX8X&X'.eX:.P.G.-.6XXX&X_ j B B B M M B j ....j B M M M M V g +.{ l B M B M N V g +.4X|.&X&X",
"$XXXXX8X&X&X&X6X&X>X6X&X&X$X_ x V B B B B V l ....j V B V B V V l +.} l V B B B N V g +.4X|.|.&X",
"$X$X&X6X&X&X,X&X&X&X&X*X*X*X/ p x j g j j x u ] _ u x j z j j v u } ) p x l l l l x a { 4X|.&X&X",
"$X$X&X6XQ.P.P.P.U.P.U.U.I.U.s.2.w.r.r.r.t.w.<.s.s.2.w.w.w.7.7.w.<.h.s.2.w.7.7.7.7.w.<.h.*X&X&X&X",
"*X$X&X6X&X'.'.'.|.|.'.'.|.|.$.L R 7 ; - 4 D Y &.,.D R I Y Y I Y D <.-.J R I T I T R S :.4X&X&X&X",
"$X*X&X6X&X&X&X6X>X*X2X&X*XXX_ r & X X X X $ 4 $.] a M x v x v v p } _ p n x x x n M p } 4X|.|.&X",
"$X$XXX8X*XXX,XN.R.^.M.*X&XXX..= X X X X X X # / ..l B M B M B B j ..} l M N N N N N l +.4X|.&X&X",
"$XXXXX8X*X|.aXv m.R.u iX'.,XI X X X X X X X X 0 -.g B B M B M B j +.} j V N N N N V l ..2X&X|.>X",
"$X$XXX8X*X'.aXn 4 6 0 iX'.6Xa X X X X X X X X < $.g B M B M B B g +.{ l N N N N M V g ..4X|.&X&X",
"$X$XXX8X*X|.aXv <.p.w iX|.2Xj X X X X X X X X 1 ,.g B M M B M B g +.{ g V M N N V M l ..2X'.&X&X",
"*X$X&X6X$XXX8X2.G.~.,.8XXX*X~ X X X X X X X X x -.g B M B M B B l +.{ g V N N N M V j ..,X&X&X&X",
"$X*X&X6X*XXXXX6X,X*X6X'.*X|.$.: X X X X X X % O...x V M M B M V l O.} l V N N M M V l O.,X&X&X&X",
"&X&X&X6X*X*X,XXX*X*X&X,X*X*X/ j : X X X X * 9 } _ p x l x x x v p } ) p x x l x x l p } 4X&X&X&X",
"&X&X&X6X^.K.I.U.U.U.P.P.U.U.s.2.y.-.J A _ r.w.s.g.2.w.7.w.7.w.w.2.j.s.2.w.w.7.w.w.w.2.j.>X&X'.&X",
"&X&X&X6X{.'.&X{.|.|.|.|.|.'.$.A I Y ~ ~ R I V ,.&.A I I I I I I S -.-.S I I K I I T S :.,X&X&X&X",
"&X&X&X6X&X&X&X&X$X*X*X$X*X$X/ g M x x x v M p _ ..p v v v n x M p } _ p n n n v n n p } 4X{.&X&X",
"&X&X{.6X&X{.&X&XXX$X*XXXXXXX_ x B M B M M V j } ..j B B N N M V l +.{ l B B M B N N g +.4X|.|.&X",
"&X&X&X6X&X&X&X&X*X$X*X$X*X$X_ z B B M B M B j ..} j B B N M M V g +.{ l B M B M N N g +.4X&X&X&X",
"&X&X&X6X&X&X&X&X*X$X*XXX*XXX_ l B B M B M B j ....x V N N N N V l +.{ g V N N N N N l +.4X|.&X&X",
"&X&X&X6X&X&X&X&X$X*X$X$X*X&X_ x B M B M B B j ....g V N N N M V g +.{ g N N N N N V g ..4X{.&X&X",
"&X&X&X6X&X&X&X&X*X*X*X$X*XXX_ x B M M B M B j ....g N M N M M V l +.{ g V M M N N N g +.4X&X{.&X",
"&X&X{.6X&X&X{.&XXX$XXXXX$XXX_ v V B B B B B l ....x V V V N V V l O.} l V V V N V V l +.4X{.&X&X",
"&X&X{.6X,X,X*X&X&X,X&X*X>X&X^ u v j j j j z r _ _ w v j j j j v w ] ) r x j j j j x u _ 2XXX&X&X",
"&X&X&X6XU.C.G.G.C.G.G.G.G.G.x.y.p.p.p.p.p.p.u.c.c.u.p.p.p.p.p.p.p.c.c.t.p.p.p.p.p.p.u.c.,X&XXX&X",
"&X&X&X&X'.'.'.'.'.'.'.'.~.*X*X2X8X,X2X2X8X,X8X~.~.8X2X2X8X,X2X2X8X~.~.6X2X2X,X,X8X2X8XXX|.&X&X&X",
"&X&X&X&X&X*X,X*X>X*X>X*X&XwX&X|.XX*XXX$XXXXX&XR.Q.*XXX&XXX$XXXXX&XR.^.*XXXXX6X8XXXXXXXQ.|.&XXX&X",
"&X&X{.&X&X&X&X{.XXXXXX&X&X6X*X&X$XXX*XXX*XXX,XR.R.,X$XXX*XXXXX$X*XQ.R.,XXX,Xk.n.,XXX*X'.|.&X&X&X",
"&X&X&X&X&X&X&X&X,X*X*X&X|.6XXX&XXX$X*X$X*XXX*X^.R.*XXX$X$X,X*X*X*XR.^.*X*XXX8 w pX|.*X'.|.&XXX&X",
"&X&X&X&X&X&X&X&X*X$X&X&XXX8X*XXX$X*X*X$X$XXX,XR.^.,XXX*X*X$X*XXX,XQ.Q.,XXXwXF.B dX|.*X~.|.&X&X&X",
"&X&X&X&X&X&X&X&X$X*X&X&XXX8X$X$XXX*X$X*X*X$X*XQ.R.,XXX*X$X*X$XXX*XR.Q.*XXX2X&.4 P.*X*X~.|.&XXX&X",
"&X&X&X&X&X&X&X&X*X$X*X$XXX8XXXXX&X&X&X&X&X&X*X^.Q.&X&X&X&X&X&X&X$XR.Q.,X,X~.D u w.wXXX~.XX*XXX*X",
"&X&X&X&X&X&X&X&X$X*X$X*XXX8X&X$X&X&X&X|.|.&X*XQ.Q.&X&X&X{.&X&X&X,XQ.Q.,X&X&XiXaX6XXX*X~.XX*X$X*X",
"&X&X&X&X&X&X&X&X*X$X*X$X{.8X,X,X>X*X*X*X&X,X,X^.Q.,X&X&X$X,X,X*X,XQ.~.,X,X&XXXXX*X*X,X~.XX$XXX*X",
"&X&X&X&X&X&X&X&X$X*X$X*XXX8XK.N.G.N.G.G.F.N.G.N.N.G.F.F.C.G.C.G.G.N.M.C.F.F.F.F.F.F.F.F.XX*X$X$X",
"&X&X&X&X&X&X&X&X&X&X&X&X$X$X{.'.'.'.'.'.'.'.'.'.'.'.'.'.'.'.'.{.'.'.{.'.~.|.~.~.|.~.~.|.$X*XXX*X",
"&X&X&X&X&X&X&X&X&X&X&X&X$X&X$X$X*X&X*X,X,X*X*X&X&X,X,X*X*X*X*X*X$X&X*X,X*X,X,X,X*X,X,X*X*XXX*X$X",
"&X&X&X&X&X&X&X&X&X&X&X&X&X&X&X&X&X&X{.&X&X&X&X&X{.&X&X&X&X&X&X{.&X&X&X&XXX$X$XXXXX*XXX$X$X*X$X*X",
"&X&X&X&X&X&X&X&X&X&X&X&X&X&X&X&X&X*X*X&X&X&X&X&X&X&X&X&X$X*X$X&X&X&X&X&X*X$X*X*X$X*X$X*X$X$X*X$X"
};
