/* XPM */
static char * black_box_xpm[] = {
"32 32 174 2",
"  	c None",
". 	c #020204",
"+ 	c #051C04",
"@ 	c #072404",
"# 	c #0C3404",
"$ 	c #0E3E04",
"% 	c #124C04",
"& 	c #155C04",
"* 	c #1A6C04",
"= 	c #1C7604",
"- 	c #1F8404",
"; 	c #163D0C",
"> 	c #0A0A0C",
", 	c #1E7C04",
"' 	c #228A04",
") 	c #122A0C",
"! 	c #121214",
"~ 	c #161614",
"{ 	c #1E6E05",
"] 	c #229004",
"^ 	c #259C04",
"/ 	c #161A14",
"( 	c #1A1A19",
"_ 	c #1E1E1C",
": 	c #0E3A04",
"< 	c #26A204",
"[ 	c #1A4D0C",
"} 	c #031404",
"| 	c #0A2C04",
"1 	c #135404",
"2 	c #27A804",
"3 	c #182211",
"4 	c #0F4404",
"5 	c #176404",
"6 	c #1B7204",
"7 	c #239604",
"8 	c #2AAE04",
"9 	c #1E6204",
"0 	c #1A3613",
"a 	c #2AB304",
"b 	c #030C04",
"c 	c #2EBA04",
"d 	c #322ADC",
"e 	c #3E3AEC",
"f 	c #120AEC",
"g 	c #0C140C",
"h 	c #16330D",
"i 	c #0E0E0C",
"j 	c #172611",
"k 	c #0E2204",
"l 	c #222223",
"m 	c #151E11",
"n 	c #262624",
"o 	c #2A2A2C",
"p 	c #2E2E2D",
"q 	c #323233",
"r 	c #363634",
"s 	c #1A420C",
"t 	c #3A3A3C",
"u 	c #3E3E3D",
"v 	c #424244",
"w 	c #4B4B4C",
"x 	c #464644",
"y 	c #565654",
"z 	c #5C5C5C",
"A 	c #1D5E0B",
"B 	c #626264",
"C 	c #1C1516",
"D 	c #1B550C",
"E 	c #0B1B04",
"F 	c #1A12C4",
"G 	c #3212DC",
"H 	c #0E06B4",
"I 	c #1C0204",
"J 	c #2C0204",
"K 	c #340204",
"L 	c #440204",
"M 	c #4C0204",
"N 	c #5C0204",
"O 	c #6C0204",
"P 	c #7C0204",
"Q 	c #840204",
"R 	c #140204",
"S 	c #0C0204",
"T 	c #3C0204",
"U 	c #1D1208",
"V 	c #240204",
"W 	c #540204",
"X 	c #640204",
"Y 	c #740204",
"Z 	c #8C0204",
"` 	c #1D0C0A",
" .	c #241214",
"..	c #251E1D",
"+.	c #2D0E0B",
"@.	c #9C0204",
"#.	c #350C06",
"$.	c #2E262C",
"%.	c #3E160C",
"&.	c #A60204",
"*.	c #AB0204",
"=.	c #820A04",
"-.	c #240E0E",
";.	c #241613",
">.	c #3E2624",
",.	c #4E0E0C",
"'.	c #940204",
").	c #B30204",
"!.	c #231A0F",
"~.	c #461E1C",
"{.	c #160E04",
"].	c #240A0A",
"^.	c #421A14",
"/.	c #3E1204",
"(.	c #130A09",
"_.	c #BC0204",
":.	c #33120F",
"<.	c #460A04",
"[.	c #282224",
"}.	c #2B1A1C",
"|.	c #2C0A07",
"1.	c #2B120E",
"2.	c #3E2204",
"3.	c #321E04",
"4.	c #3E02EC",
"5.	c #1262EC",
"6.	c #1A4AC4",
"7.	c #727274",
"8.	c #AAAAAC",
"9.	c #E2E2E4",
"0.	c #FEFEFC",
"a.	c #C6C6C4",
"b.	c #8E8E8C",
"c.	c #182E11",
"d.	c #162A13",
"e.	c #1A3E0C",
"f.	c #651304",
"g.	c #920A04",
"h.	c #224A0C",
"i.	c #663204",
"j.	c #522A04",
"k.	c #3A2E04",
"l.	c #22320C",
"m.	c #521A04",
"n.	c #1A1604",
"o.	c #7A1204",
"p.	c #5D0A64",
"q.	c #731E7C",
"r.	c #6D1674",
"s.	c #560664",
"t.	c #5A067C",
"u.	c #640A64",
"v.	c #63025C",
"w.	c #6C0A64",
"x.	c #791674",
"y.	c #6B025C",
"z.	c #62067C",
"A.	c #740A64",
"B.	c #7C1E7C",
"C.	c #59025C",
"D.	c #7A0E44",
"E.	c #841674",
"F.	c #5E025C",
"G.	c #7C0A64",
"H.	c #75025C",
"I.	c #8B1E7C",
"J.	c #8B1674",
"K.	c #921674",
"L.	c #841E7C",
"M.	c #941E7C",
"N.	c #820A64",
"O.	c #0E6EB4",
"P.	c #1A5E84",
"Q.	c #1A3214",
"                              p.q.                              ",
"                            p.s.r.r.                            ",
"                          p.p.p.r.r.r.                          ",
"                        p.s.p.p.r.r.r.p.                        ",
"                      s.p.p.p.s.r.r.r.r.t.                      ",
"                    t.t.p.p.p.p.r.q.r.r.t.t.                    ",
"                  t.t.t.p.p.u.u.r.r.r.r.t.t.t.                  ",
"                t.t.t.t.u.u.u.u.r.r.r.q.t.t.t.t.                ",
"              t.t.t.t.t.u.u.u.w.x.x.r.r.t.t.t.t.t.              ",
"            t.t.t.t.t.z.u.w.w.w.x.x.x.r.t.t.t.t.t.t.            ",
"          t.t.t.t.t.t.z.u.w.w.A.x.x.x.x.t.t.t.t.t.t.t.          ",
"        s.s.s.C.C.F.F.v.v.w.A.A.E.E.x.x.v.F.t.C.s.s.s.s.        ",
"      s.s.s.C.C.F.F.v.v.v.A.A.A.L.E.E.v.v.v.C.C.C.s.s.s.s.      ",
"    s.s.C.C.C.C.F.F.v.y.y.H.H.D.J.E.y.y.y.v.v.F.C.C.C.s.s.s.    ",
"  s.s.C.C.C.F.v.v.v.v.w.A.H.H.N.J.H.H.w.z.w.v.v.F.C.C.C.s.s.s.  ",
"r.r.r.q.q.q.B.B.B.B.L.L.I.M.M.M.M.M.I.M.L.L.B.L.B.B.q.q.r.r.r.r.",
"  q.q.q.q.q.q.q.B.B.L.L.L.J.K.N.J.J.J.L.L.B.B.x.x.q.q.q.r.q.q.  ",
"    q.q.q.x.x.q.B.B.B.B.I.I.G.G.J.E.E.J.E.E.B.B.B.q.r.q.q.q.    ",
"      q.q.q.q.x.x.q.B.B.B.A.A.G.E.E.E.x.L.B.q.q.x.q.q.q.q.      ",
"        q.q.q.q.q.q.B.B.w.A.A.A.E.x.E.x.B.B.q.B.q.q.q.q.        ",
"          t.t.t.t.t.z.z.u.w.w.A.x.x.B.x.t.z.t.t.t.t.t.          ",
"            t.t.t.z.t.t.u.w.w.A.x.x.x.r.z.t.t.t.t.t.            ",
"              t.t.t.t.t.v.u.u.w.x.x.r.r.t.t.t.t.t.              ",
"                t.t.t.t.u.u.u.w.r.q.r.r.t.t.t.t.                ",
"                  t.t.t.p.u.u.u.x.r.r.r.t.t.t.                  ",
"                    t.t.F.u.p.u.r.r.r.r.t.t.                    ",
"                      t.p.F.p.u.x.r.r.r.t.                      ",
"                        p.s.u.p.q.r.r.r.                        ",
"                          p.s.p.r.r.r.                          ",
"                            p.p.r.r.                            ",
"                              p.r.                              ",
"                                                                "};
