/* XPM */
static char *blobwars[] = {
/* columns rows colors chars-per-pixel */
"32 24 134 2",
"   c #232323",
".  c #2A2523",
"X  c #2C2B25",
"o  c #362323",
"O  c #302C26",
"+  c #303027",
"@  c #353428",
"#  c #393326",
"$  c #38372A",
"%  c #3A392A",
"&  c #452323",
"*  c #4C2323",
"=  c #413C2A",
"-  c #483228",
";  c #4B3E26",
":  c #4D3C2C",
">  c #512323",
",  c #5C2423",
"<  c #523328",
"1  c #51392C",
"2  c #5F352A",
"3  c #5B3E2C",
"4  c #632323",
"5  c #6C2423",
"6  c #6F2924",
"7  c #653126",
"8  c #64392A",
"9  c #683529",
"0  c #6C3E2C",
"q  c #722323",
"w  c #7B2423",
"e  c #782825",
"r  c #72362A",
"t  c #45452D",
"y  c #4A462D",
"u  c #4B482E",
"i  c #4C4B30",
"p  c #52462E",
"a  c #544A2E",
"s  c #5C452E",
"d  c #5D492C",
"f  c #524C30",
"g  c #5E502B",
"h  c #565131",
"j  c #5A5331",
"k  c #5B5936",
"l  c #5E5D38",
"z  c #64442D",
"x  c #604C29",
"c  c #6C452D",
"v  c #6B4C2E",
"b  c #62532D",
"n  c #6B522C",
"m  c #655730",
"M  c #645932",
"N  c #605F39",
"B  c #6B5330",
"V  c #6B5D31",
"C  c #72452D",
"Z  c #70492C",
"A  c #784028",
"S  c #73522E",
"D  c #7B5E2E",
"F  c #616039",
"G  c #6E6032",
"H  c #68673B",
"J  c #6C6B3D",
"K  c #746332",
"L  c #716F3F",
"P  c #7A6531",
"I  c #7D6A32",
"U  c #71703F",
"Y  c #842323",
"T  c #8E2323",
"R  c #932323",
"E  c #922825",
"W  c #9B2323",
"Q  c #A12323",
"!  c #AA2323",
"~  c #B42323",
"^  c #83442C",
"/  c #834B2E",
"(  c #8C462E",
")  c #8B4C2E",
"_  c #80582E",
"`  c #8B542E",
"'  c #885F30",
"]  c #93462E",
"[  c #924F2E",
"{  c #9F462E",
"}  c #994B2E",
"|  c #97552E",
" . c #9B5C2E",
".. c #8F692F",
"X. c #826C32",
"o. c #8F6631",
"O. c #8C6F32",
"+. c #847133",
"@. c #8B7333",
"#. c #90622F",
"$. c #926732",
"%. c #9E6531",
"&. c #937433",
"*. c #947934",
"=. c #9A7C34",
"-. c #AB462E",
";. c #B25F2E",
":. c #A37C33",
">. c #B56D2E",
",. c #CD6F2E",
"<. c #CB722E",
"1. c #D46D2E",
"2. c #D7722E",
"3. c #EC722E",
"4. c #F6782E",
"5. c #9E8035",
"6. c #A38234",
"7. c #A2843A",
"8. c #AA8435",
"9. c #B38433",
"0. c #B38935",
"q. c #B98433",
"w. c #BB8C35",
"e. c #C18734",
"r. c #C29139",
"t. c #CC9135",
"y. c #D29536",
"u. c #D69738",
"i. c #D89636",
"p. c #DC9836",
"a. c #E49937",
"s. c #EB9B37",
"d. c #F39E39",
"f. c None",
/* pixels */
"f.f.f.f.f.f.f.f.f.f.f.f.F k l J J U U U f.f.f.f.f.f.f.f.f.f.f.f.",
"f.f.f.f.f.f.f.f.f.f.k h u u k k F l l l l H f.f.f.f.f.f.f.f.f.f.",
"f.f.f.f.f.f.f.f., c C 0 z 3 8 8 - < < 1 3 s f < f.f.f.f.f.f.f.f.",
"f.f.f.f.> > Y W R T Q R q 5 q 4 & > > * & > & , q 4 ~ f.f.f.f.f.",
"f.f.f.f.* > T ! W R Q R w q w 4 & > > * & & & , q q R f.f.f.f.f.",
"f.f.f.f., , T ~ W & 5 Q w 6 e 6 & > > & & o . , q q W f.f.f.f.f.",
"f.f.f.f.* , r A Z D # X b V a t y t t = X X t : 8 9 E f.f.f.f.f.",
"f.f.f.f.* * z h n I P =   $ t t t t $   @ t t t t i f f.f.f.f.f.",
"f.f.f.f.> * ..@.P X.&.K u + $ t t $ + % t t t t t t p M f.f.f.f.",
"f.f.f.f.#.* q.q.I O.6.D u t t t t u i t t t t t t t s f f.f.f.f.",
"f.f.f.f.#.> q.w.I +.;     $ t t t t $   . X t t t t C C f.f.f.f.",
"f.f.f.f.' , =.:.I g         t t t t .       % t t y ( / f.f.f.f.",
"f.f.f.f.$.> K q.:.g x .   . u g t t B O   o z t t z } / f.f.f.f.",
"f.f.f.f.%.7 M i.6.I a X . g +.K f t % .   : t t z ( ) / f.f.f.f.",
"f.f.f.f.^ r G 9.5.@.6.:.8.w.5.@.V u t t y i t s { ] z [ f.f.f.f.",
"f.f.f.f.q C O.+.*.=.w.w.w.0.8.=.I f t t j h t / -.c v ;.f.f.f.f.",
"f.f.f.f.5 c =.+.+.*.q.w.0.8.6.6.@.M u t h i p ] / p  .f.f.f.f.f.",
"f.f.f.f.q 0 7.0.*.=.w.8.*.+.X.@.@.K G M f t z c p | 1.f.f.f.f.f.",
"f.f.f.f.5 & 7.5.8.8.a.s.t.+.j M I I @.I j u z y ` 3.f.f.f.f.f.f.",
"f.f.f.f.4 * a.*.5.0.i.a.s.0.m f k G @.I g p p Z 2.4.f.f.f.f.f.f.",
"f.f.f.f.f.f.f.w.w.u.p.u.y.0.K h h M X.P l a D >.<.f.f.f.f.f.f.f.",
"f.f.f.f.f.f.f.f.r.d.d.y.0.=.K k f f V M M n ,.<.f.f.f.f.f.f.f.f.",
"f.f.f.f.f.f.f.f.f.f.r.8.@.K V K G j j k h %.f.f.f.f.f.f.f.f.f.f.",
"f.f.f.f.f.f.f.f.f.f.f.f.h m K K M f a t f.f.f.f.f.f.f.f.f.f.f.f."
};
