/* XPM */
static char *Boa[] = {
/* columns rows colors chars-per-pixel */
"32 32 24 1",
"  c black",
". c #191919",
"X c gray20",
"o c #00007F",
"O c #007F00",
"+ c #007F7F",
"@ c #7F0000",
"# c #7F007F",
"$ c #7F7F00",
"% c #4C4C4C",
"& c #666667",
"* c gray50",
"= c blue",
"- c green",
"; c cyan",
": c red",
"> c magenta",
", c yellow",
"< c gray60",
"1 c #B2B2B2",
"2 c gray80",
"3 c gray90",
"4 c gray100",
"5 c None",
/* pixels */
"4444444  5   4444444444444444444",
"444444 == === 44444444444444443<",
"44212       == 121212122212121<*",
"44121 $, $,$ = 212121211121211**",
"4412< , $,  $= *<*<******<<422**",
"4421* , $,  $= 211121121111412**",
"4412< $, $,$ =  22112212121412**",
"4421    =   ===    22121212421**",
"44  =========== ===  112121421<*",
"4 =============; ==== 22122412**",
" ===========;=;;; ==== 1212412**",
" = == ====;=;;;;; ==== 2121421**",
" =======;=;;  ;;; ===== 212412**",
" ;;=;=;=;;;  ;=; ;===== 121421**",
" ;;;;;;;;   =;; ;;;==== 211421<*",
"4 ;=;=;=   ;=;  ==;==== 122411**",
"44   ::   =;; 2 ;;;==== 121421<*",
"44  ::  =;;; 21 =;==== 2212412**",
"44 ::;=;;;  12 ;;===== 2112412**",
"44::;;;;  12 ==;===== 12221421**",
"4::     221 ;;;===== 121212412**",
":4:2<1211 ==;;===== 2212121421* ",
"44:1*12  ;;;====== 21121211412  ",
"4412<1 ===;======    212   42 = ",
"4421<1 ;;;====== ==== 2 ===  == ",
"4412* ;;;;===== ====== ======== ",
"4421< ===;==================== <",
"4412* ;;;;===============  ;; **",
"44211 ;;;;;=====;======= 21  1<*",
"442112 ===;;;;;  ;;;;;  212112**",
"44***** ;;;=;  **     *****<****",
"4******<     <*****<************"
};
