/* XPM */
static char *bomberclone[] = {
/* columns rows colors chars-per-pixel */
"32 32 77 1",
"  c #0C0A06",
". c #0E0D0D",
"X c #120F0D",
"o c #131008",
"O c #141313",
"+ c #191715",
"@ c #1D1914",
"# c #1D1B1B",
"$ c #201E1E",
"% c #211F20",
"& c #22211E",
"* c #2C2415",
"= c #2D271A",
"- c #3D341D",
"; c #242222",
": c #292624",
"> c #2C2927",
", c #2E2B29",
"< c #332D22",
"1 c #312E2C",
"2 c #34302E",
"3 c #3F3621",
"4 c #3B352C",
"5 c #363331",
"6 c #393534",
"7 c #3C3836",
"8 c #3E3A3A",
"9 c #423C31",
"0 c #413D3C",
"q c #4C422E",
"w c #43403F",
"e c #4D4333",
"r c #54472C",
"t c #584C35",
"y c #5E5134",
"u c #5F5239",
"i c #605338",
"p c #6D5D3A",
"a c #74623C",
"s c #444241",
"d c #484645",
"f c #4A4847",
"g c #4D4B4A",
"h c #514E4D",
"j c #5C5B5A",
"k c #615F5F",
"l c #63605F",
"z c #796844",
"x c #636061",
"c c #6C6C6C",
"v c #726F6F",
"b c #72706F",
"n c #747474",
"m c #7C7A79",
"M c #816E45",
"N c #807E7E",
"B c #81807F",
"V c #868584",
"C c #888787",
"Z c #898887",
"A c #8C8A8A",
"S c #908E8E",
"D c #969493",
"F c #9C9A9A",
"G c #A09F9E",
"H c #A5A5A5",
"J c #A8A7A6",
"K c #ABAAA9",
"L c #B3B3B3",
"P c #BEBEBE",
"I c #CDCCCC",
"U c #D5D5D5",
"Y c #DDDDDC",
"T c #E3E3E3",
"R c #EBEBEB",
"E c #F6F6F6",
"W c #FEFEFE",
/* pixels */
"WWWWWWWWWEEWWWWWWWWWWWWWWWWWWWWW",
"WWWWWWWWWWWWWWWWWWWWWWWWWWWWWWWW",
"WWWWWWWWWLxEWWWWWWWWWWWWWWWWWWWW",
"WWWWWWEc.OcWWWWWWWWWWWWWWWWWWWWW",
"WWWWWW8;PEWWWWWWWWWWWWWWWWWWWWWW",
"WWWEWn5WWWEWWWWWWWWWWWWWWWWWWWWW",
"WWWWWbcWEWWWWWWWWWWWWWWWWWWWWWWW",
"WWWWWR.LWRUWWWWEWEWWWWWWWWWWWWWW",
"WWWWWWHwWxZWIAxhggkSYWWWWWWWWWWW",
"WWWWWWWd5,sk7>,,,,<:6mYWWWWWWWWW",
"WWWWWWL05751552,14994>0IWWWWWWWW",
"WWWWWWF656765,:;<9iie917IWWWWWWW",
"WWWWWWWJ,665,:%$<iMzt921dYWWWWWW",
"WWWWWWWF:765>;##*rape<<5,VWWWWWW",
"WWWWWWEd5661>%#O@*-3<=>16wYWWWWW",
"WWWWWWJ:6651>%#O  o@@$:,62HWWWWW",
"WWWWEWD;7671:;#O   .O%;17,FWWWWW",
"WWWWWWx,6651,;#+OX.O#%:181BWWWWW",
"WWWWWWj,65551:%##O+#%;,587jEWWWW",
"WWWWWWj,66661,:;$$$;;:1586kEWWWW",
"WWWWWWm:656662,>::::,15801VWWWWW",
"WWWWWWJ>755656521,11557701JWWWWW",
"WWWWWWY855566666556677887sYWWWWW",
"WWWWWWEC;756666676777770,CWWWWWW",
"WWWWWWWTg,66566666767675gRWWWWWW",
"WWWWWWWWU7,7665666677050UWWWWWWW",
"WWWWWWWWWUf;577677776,gUWWWWWWWW",
"WWWWWWWWWWRV7:>111,17mTWWWWWWWWW",
"WWWWWWWWWWWWYHvjjjvJUEWWWWWWWWWW",
"WWWWWWWWWWWWWWWWWWWWWWWWWWWWWWWW",
"WWWWWWWWWWWWWWWWWWWEWWWWWWWWWWWW",
"WWWWWWWWWWWWWWWWWWWWWWWWWWWWWWWW"
};
