/* XPM */
static char *bridges[] = {
/* columns rows colors chars-per-pixel */
"48 48 82 1",
"  c #020202",
". c gray4",
"X c #100F0F",
"o c #131212",
"O c #1D1D1C",
"+ c #20201F",
"@ c #232322",
"# c #282827",
"$ c #2B2B2A",
"% c #302F2E",
"& c #30302F",
"* c #343332",
"= c #383837",
"- c #3D3C3B",
"; c #40403E",
": c #444342",
"> c #484846",
", c #4D4C4A",
"< c #52514F",
"1 c #555553",
"2 c #585755",
"3 c #595856",
"4 c #5E5D5B",
"5 c #605F5D",
"6 c #61605E",
"7 c #636361",
"8 c #6A6966",
"9 c #6E6D6A",
"0 c #706F6C",
"q c #72706E",
"w c #737371",
"e c #787774",
"r c #7B7A77",
"t c #7D7C7A",
"y c #807E7B",
"u c #82817E",
"i c #858380",
"p c #888683",
"a c #8A8986",
"s c #8D8D8B",
"d c #908E8B",
"f c #92918E",
"g c #959490",
"h c #989795",
"j c #9A9996",
"k c #9D9C99",
"l c #A09F9B",
"z c #A3A29E",
"x c #A5A3A1",
"c c #A8A6A2",
"v c #ABA9A5",
"b c #ADACA8",
"n c #B1AFAB",
"m c #B2B1AC",
"M c #B6B5B0",
"N c #B8B7B2",
"B c #BAB9B5",
"V c #BDBCBA",
"C c #C0BEB9",
"Z c #C3C1BC",
"A c #C6C5C0",
"S c #C8C6C1",
"D c #CCCAC5",
"F c #CECCC8",
"G c #D0CECA",
"H c #D4D2CD",
"J c #D6D4D0",
"K c #D8D6D1",
"L c #DBD9D4",
"P c #DEDDD8",
"I c #E0DED9",
"U c #E4E2DC",
"Y c #E5E4E0",
"T c #E8E6E0",
"R c #ECEBE5",
"E c #ECEBE9",
"W c #F1EEE9",
"Q c #F5F3ED",
"! c #F4F3F0",
"~ c #F8F6F0",
"^ c #FBFAF4",
"/ c #FEFEFE",
/* pixels */
"HHHJHJHHHHHHKHKHHHHHHKHHHHHHHHHHHHHHHHHHHHHHHHHJ",
"HHHHHHHHHHHHHHHHHHKHHHHHHHHGGHHHHHHFHHHHHGHHHJHH",
"HHHHJHJHHKHJHHHHHHHHHHHHHLUUUULHHHIUJGHLUIHHHHHJ",
"HHHJHHHHHHHHHHJHHHHHHHHHLnpaduzHHLguBUInykKHHHHH",
"HHJHHHJHHHHHHHHHHKHHHHJHJVb$okBGU9 0!//R4 uTGHHH",
"HHHHHHHHKHHHHHJHHHHHKHHHHH/9=/JLc k/PzH//u BLGHH",
"JHHHHHHHHHHHHJHHHHHHHHHHHF/9*/GU:>/Q52&Z//$3TGHH",
"HHHJHHHJHHJHHHHHHHHKHHHHHF/9*/HD V/^Q/7d//zXJHHH",
"HHHHHHHHHHJHHHHHHHHHHHHHHG/9*/HD V/^/g,Q^/l.KHHH",
"HJHHHJHJHHHHHHHHHHHHHHHHHF/9*/HF.b//9.nE^/dOLHHJ",
"JHJHHHHHHHHHHHHHGGHGHHHHHF/9*/GU,$/^41>n/^O7UHHH",
"HHHHHHHHHJHHHHGLUUUUPHHHHF/9*/HKV.r//////7oDHHHH",
"HHHHHHHHHHHHHHUSt$$,zILHHF/9&/HGUa ,I/^K- jIHHHH",
"HHHHHHHHHKHHGLfXo11- ,SJHF/9*/GHGPnO @@ #VLHHHHH",
"HHHLHHHHHHHHUg 2LQQTc.$LHD/9*/GHHGLPH@=JLLGHHHHH",
"HHLBSKHHHHHLZo2RHauGUZ 9ID/9*/GHHHGG/:6/DHHHHHHJ",
"HGUdjIHHHHHUuoJKm:$HGUyoHG/9*/GHHJHG/-4/FHHHJHHH",
"HHUu3UGHHHGU&2TGJG=FHJS xK/9*/GHHHHH/;4/FHHHHHHH",
"HHUi3TGHHHHU%2TGLH=IJJS zL/9*/GHHHHG/-4/GHHHHHHH",
"HGUaqUGHHHHU,;UHSeOuSIm.NH/9*/GHHHGG/:4/FJHHHJHH",
"HHPjmLHHHHHIz cTN172ZT-$ID/9*/FHHHHG/;4/FHJHHHJH",
"HHHHHHHHHHHHI,XZTRTWTq nJJ/9=/IGGHHH/:4/FHHHHJHH",
"HHHHHHHHHHHGKD# tZSn- rITz1. :sUJHHG/:4/FHHHHHJH",
"HHHHHHHHHHHHGJI8.   #mIH3 :jj4 -SJGH/-4/FHHHHHHH",
"HHHHHGHHHGHHHGGIHzzmIJT4 b////F+*IJF/:4/FHKHHHHH",
"HHGI//////////////////V c/b77m/J eYD/-4/FHHHHHJH",
"HGPl+$#$$$$$#$$$#####&o1/^ggt*Q/u@LG/-4/FHHHHKHH",
"HHKCypuuupuuiiuiiiiuua h/^^7+3//D ZH/:4/FHHHHHHH",
"HHHHSSSSSSSSSSSSSSSSAFXg/^^/P&W/S CH/;4/FHHHHHHH",
"HHIf                 . 9/^t952^/hOJF/:4/FHHHHHHK",
"HHGI^^^^^^^^^^^^^^^^Q/k D/FskE/EO3TS/:5/DHKHHHHH",
"HHHJIIIIPPPPIIPPPPIIPLR:@L////E>OHGI/-3/PGHHHHKH",
"HHHHHGGGGGHGGFHGGGHGHFHS$ uGFkoobII9@  #rUJJGHHH",
"HHHHHHHHHHHHHHGHHHHGHHHHUqO  o3HIN@.iZZe *AKHHHH",
"HHHJPKLLJLLLLPKKLLLPJPPKKEIASLWKI$*U////J@;IGHHH",
"HHLvI/^/^/^//^/^//^^^^^//^^//^^/t.P/u,1b/D iUGHH",
"HHIg X.........................X s/Qkx8,//8=IGHH",
"HGUp>DmNNNNNNNNNNNNNNNNNNNNNNmBn V/^E1Oe//x.LHHH",
"HGUp-cfgggggggfgggggfgfjffgfgfjs V/^Q/A=//x.LHHH",
"HHIfo+OOOOO+OO+OOO+OO+OO++++++O# u/Q41-a//4-IGHH",
"HGLnY///////////////////////////s G/PnF^/V fIGHH",
"HHHLLHHJJHJHHHHHJHHJHHJJHHHHHHHHU=@F/^//VX,THHHH",
"HHHGGHHHHHHHHHHHHHHHHHHHHHHHHHHHJA- 8cv5 >FHHHHH",
"HHHHHHHHHHHHHHHHHHHHHHHHHHHHHHHHJKUi&  *fUHHHHHH",
"HHHHHHJHJHJHHJHHHHHHHHHHHHHJHHHHJGFUPHHUIHHHHHHH",
"HJJHHHHHHHHHHHHHHJHJHHJHHHHHJHHJGJHGHHHHHHHHHHHH",
"HHHHJHHHHHHHHJJHHHJHJHHJJHHHHHHHHHHHHHHHHHHJHJHH",
"HJHHHHHJHHJHHHHHHHHHHHHHHHHJJHHJHHHHHHHHHHHHHHHH"
};
