/* XPM */
static char *brutalchess-1[] = {
/* columns rows colors chars-per-pixel */
"32 32 30 1",
"  c #040404",
". c #0C0C0C",
"X c #161616",
"o c gray11",
"O c #330000",
"+ c #330033",
"@ c #222222",
"# c gray16",
"$ c gray20",
"% c #393939",
"& c #663333",
"* c gray26",
"= c gray30",
"- c #555555",
"; c #5F5F5F",
": c gray40",
"> c #777777",
", c #993333",
"< c #993366",
"1 c #996666",
"2 c #CC6699",
"3 c #868686",
"4 c gray59",
"5 c gray60",
"6 c #ADA990",
"7 c #A0A0A4",
"8 c #B2B2B2",
"9 c #CC9999",
"0 c #C0C0C0",
"q c gray80",
/* pixels */
"qqqqqqqqqqqqqqqqqqqqq0,,,2qqqqqq",
"qqqqqqqqqqqqqqq88000q9,,,1000088",
"qqqqqqqqqqqqqq,,1961,,,,,,,19691",
"qqqqqqqqqqqqqq9<9qqqq6,,:,qqqqq1",
"qqqqqqqqqqqqqqqqqqqqq9,>3,qqqqqq",
"qqqqqqqqqqqqqqqqqqqqq1<:>18qqqqq",
"qqqqqqqqqqqqqqqqqqqqq1,:>,0qqqqq",
"qqqqqqqqqqqqqqqqqq07>*XXX#:5qqqq",
"qqqqqqqqqq0qqqqqq*=         =0q8",
"043333444430q>:30.           X08",
"q8>>355333>33#X#;     .%X     :5",
"q0>>3qqq083>>$o-o     O;*     =5",
"q0>>3qqqqq8>>43:o     +&#     X$",
"q0>:3qqqqqq>30qqo     &<=       ",
"q0>13qqqqq835007.     &,*       ",
"q0>1>qqq080qqq08.     &,-#====-*",
"q0>,>3333>>48q00.     &,;1qqq0q8",
"q0>,>qqq05>11307.     &,11qqqqqq",
"q0>,>qqqqq03,,4q.     &,;&57878q",
"q0:,>qqqqqq0>,>q.     &,&     #q",
"q0:,>qqqqqqq4,3q@     &,&     %q",
"qq1,>qqqqqqq517q$     &,&     *q",
"qq1,>qqqqqq034qq*     +,&     *q",
"qq1,1qqqq0848qq0@     .O.     :q",
"qq>,13445435883*;@           *0q",
"qq08800qq0043-3433>%       .3qqq",
"qqqqqqqqq34344qqqqqq7>#Oo#30qq0q",
"qqqqqqqq080qqqqqqqqqqq,,,,qqqq00",
"qqqqqqqqqqqqqqqqqqqqqq,,,,qqqqqq",
"qqqqqqqqqqqqqqqqqqqqqq,,,,qqqqqq",
"qqqqqqqqqqqqqqqqqqqqqq,,,,qqqqqq",
"qqqqqqqqqqqqqqqqqqqqqq,,,,qqqqqq"
};
