/* XPM */
static char * bugsx_xpm[] = {
"32 32 2 1",
" 	c None",
".	c #101010",
"                                ",
"                                ",
"                                ",
"                                ",
"  ......                        ",
"  .     ...                     ",
" ..      ..         ..          ",
"  .        .        ..          ",
" .          .       ..          ",
"  .          .      .           ",
"  .           .     .      ...  ",
"  ..          .    ..     .  .  ",
"   .        .. ..  . .   .   .  ",
"    .       . ........  .   .   ",
"    .     ....... .  ...    .   ",
"     . ...  .    ..   .... .    ",
"      . .   .    ..   .   .     ",
"     .   .  .    ..  ....  .    ",
"    ..      ... .......     ..  ",
"    .       . ...... .  .    .  ",
"   .        ..     ...   .   .  ",
"  .           .     .     ....  ",
"  .          ..     .       ..  ",
"             .      ..          ",
" .         ..       ..          ",
"  .        .        ..          ",
"  .       .          .          ",
"  ..    ..                      ",
"  .....                         ",
"                                ",
"                                ",
"                                "};
