/* XPM */
static char * rdf_xpm[] = {
"30 32 32 1",
" 	c None",
".	c #85A3CE",
"+	c #1A53A3",
"@	c #4875B6",
"#	c #F1F4F9",
"$	c #2A5EA9",
"%	c #4875B5",
"&	c #678CC2",
"*	c #396AAF",
"=	c #E1E9F3",
"-	c #D2DDED",
";	c #C2D1E6",
">	c #B3C6E1",
",	c #1A52A3",
"'	c #C3D2E7",
")	c #7698C8",
"!	c #3869AF",
"~	c #95AFD4",
"{	c #5881BC",
"]	c #EFF3F8",
"^	c #A4BADA",
"/	c #E0E8F2",
"(	c #295EA9",
"_	c #668CC1",
":	c #7597C7",
"<	c #B2C5E0",
"[	c #A3BADA",
"}	c #94AED4",
"|	c #5780BB",
"1	c #D1DCEC",
"2	c #FFFFFF",
"3	c #0B479D",
"                    @3,%33'   ",
"                   3|22.%:3&  ",
"                  +_22333333- ",
"                  32223333333 ",
"                 .|2333333333 ",
"                 @._333333333 ",
"                 {_3333333333 ",
"                 33(333333333 ",
"                *33!33333333~ ",
"               +33333333333+  ",
"    #..'     .3333.'333333{   ",
"  =33(%33*.$3333#    #333$    ",
" -3:22:%.33333~       *33#    ",
" 3}2233333333#        '33     ",
"~32223333333-          33     ",
"$.]333333333           33     ",
"3;!333333333           33     ",
"@.3333333333=          33     ",
"'333333333333         -33-    ",
" 3%33333333333>       $33$    ",
"  33333333333333=    ~3333.   ",
"   $33333=   ^3333{.33/22;.3  ",
"               ~3333,22333333 ",
"                #333222333333~",
"                 =3!2.:3333333",
"                  3.}333333333",
"                  3.3333333333",
"                  @33333333333",
"                  #3:33333333'",
"                   @33333333+ ",
"                    @333333$  ",
"                      {33@#   "};
