/* XPM */
static char * chemtool_xpm[] = {
"48 48 198 2",
"  	c None",
". 	c #9B9B9B",
"+ 	c #999999",
"@ 	c #9A9A9A",
"# 	c #FFFFFF",
"$ 	c #4C6F7F",
"% 	c #5D889D",
"& 	c #A9C5D2",
"* 	c #A7C4D1",
"= 	c #AAC5D2",
"- 	c #C5C7C8",
"; 	c #6899B0",
"> 	c #C7D7DE",
", 	c #95AEB9",
"' 	c #6999B0",
") 	c #B3CBD7",
"! 	c #EBEBEB",
"~ 	c #ACACAC",
"{ 	c #C5C5C5",
"] 	c #D4D4D4",
"^ 	c #DADADA",
"/ 	c #A1A1A1",
"( 	c #FEFEFE",
"_ 	c #A5A5A5",
": 	c #FCFCFC",
"< 	c #E8E8E8",
"[ 	c #EDEDED",
"} 	c #F9F9F9",
"| 	c #FDFDFD",
"1 	c #E5E5E5",
"2 	c #B1B1B1",
"3 	c #8D8D8D",
"4 	c #919191",
"5 	c #959595",
"6 	c #949494",
"7 	c #939393",
"8 	c #9C9C9C",
"9 	c #DCDCDC",
"0 	c #FBFBFB",
"a 	c #EEEEEE",
"b 	c #C9C9C9",
"c 	c #868686",
"d 	c #4B4B4B",
"e 	c #717171",
"f 	c #000000",
"g 	c #BCBCBC",
"h 	c #BBBBBB",
"i 	c #AEAEAE",
"j 	c #828282",
"k 	c #BFBFBF",
"l 	c #FAFAFA",
"m 	c #F3F3F3",
"n 	c #D7D7D7",
"o 	c #A4A4A4",
"p 	c #787878",
"q 	c #555555",
"r 	c #636363",
"s 	c #C3C3C3",
"t 	c #F4F4F4",
"u 	c #F8F8F8",
"v 	c #E3E3E3",
"w 	c #B3B3B3",
"x 	c #878787",
"y 	c #848484",
"z 	c #727272",
"A 	c #B5B5B5",
"B 	c #E7E7E7",
"C 	c #C2C2C2",
"D 	c #929292",
"E 	c #A6A6A6",
"F 	c #AFAFAF",
"G 	c #ECECEC",
"H 	c #F2F2F2",
"I 	c #D0D0D0",
"J 	c #9D9D9D",
"K 	c #CECECE",
"L 	c #D3D3D3",
"M 	c #DFDFDF",
"N 	c #DEDEDE",
"O 	c #ABABAB",
"P 	c #858585",
"Q 	c #909090",
"R 	c #C1C1C1",
"S 	c #E9E9E9",
"T 	c #B2B2B2",
"U 	c #E2E2E2",
"V 	c #F7F7F7",
"W 	c #838383",
"X 	c #C6C6C6",
"Y 	c #A7A7A7",
"Z 	c #A0A0A0",
"` 	c #E1E1E1",
" .	c #E0E0E0",
"..	c #C4C4C4",
"+.	c #B7B7B7",
"@.	c #A8A8A8",
"#.	c #A9A9A9",
"$.	c #E6E6E6",
"%.	c #C7C7C7",
"&.	c #7C7C7C",
"*.	c #5C5C5C",
"=.	c #626262",
"-.	c #CDCDCD",
";.	c #424242",
">.	c #353535",
",.	c #F0F0F0",
"'.	c #D2D2D2",
").	c #9F9F9F",
"!.	c #777777",
"~.	c #4E4E4E",
"{.	c #292929",
"].	c #6B6B6B",
"^.	c #ADADAD",
"/.	c #6F6F6F",
"(.	c #2B2B2B",
"_.	c #3B3B3B",
":.	c #B9B9B9",
"<.	c #323232",
"[.	c #1A1A1A",
"}.	c #8F8F8F",
"|.	c #DBDBDB",
"1.	c #EAEAEA",
"2.	c #A3A3A3",
"3.	c #F6F6F6",
"4.	c #F5F5F5",
"5.	c #CACACA",
"6.	c #989898",
"7.	c #CBCBCB",
"8.	c #AAAAAA",
"9.	c #3A3A3A",
"0.	c #0C0C0C",
"a.	c #494949",
"b.	c #B6B6B6",
"c.	c #707070",
"d.	c #747474",
"e.	c #C8C8C8",
"f.	c #414141",
"g.	c #080808",
"h.	c #1F1F1F",
"i.	c #969696",
"j.	c #646464",
"k.	c #B8B8B8",
"l.	c #EFEFEF",
"m.	c #0A0A0A",
"n.	c #676767",
"o.	c #575757",
"p.	c #8E8E8E",
"q.	c #484848",
"r.	c #090909",
"s.	c #020202",
"t.	c #333333",
"u.	c #BEBEBE",
"v.	c #818181",
"w.	c #1D1D1D",
"x.	c #0E0E0E",
"y.	c #101010",
"z.	c #0D0D0D",
"A.	c #040404",
"B.	c #121212",
"C.	c #888888",
"D.	c #474747",
"E.	c #010101",
"F.	c #050505",
"G.	c #535353",
"H.	c #D5D5D5",
"I.	c #D6D6D6",
"J.	c #797979",
"K.	c #242424",
"L.	c #030303",
"M.	c #0F0F0F",
"N.	c #2D2D2D",
"O.	c #4F4F4F",
"P.	c #515151",
"Q.	c #525252",
"R.	c #545454",
"S.	c #585858",
"T.	c #5A5A5A",
"U.	c #737373",
"V.	c #BABABA",
"W.	c #4C4C4C",
"X.	c #060606",
"Y.	c #191919",
"Z.	c #898989",
"`.	c #7B7B7B",
" +	c #2A2A2A",
".+	c #0B0B0B",
"++	c #272727",
"@+	c #5F5F5F",
"#+	c #F1F1F1",
"$+	c #666666",
"%+	c #1C1C1C",
"&+	c #181818",
"*+	c #E4E4E4",
"=+	c #7E7E7E",
"-+	c #444444",
";+	c #363636",
">+	c #CCCCCC",
",+	c #9E9E9E",
". + + + + + + + + + + + + + + + + + + + + + + + + + + + + + + + + + + + + + + + + + + + + + @ # ",
"+ $ $ % & % & & & & & & & & & * = = = = = = = = = = = = = = = = = = = = = = % $ $ % = $ $ - + # ",
"+ $ $ % ; % ; ; ; ; ; ; ; ; ; ; ; ; ; ; ; ; ; ; ; ; ; ; ; ; ; ; ; ; ; ; ; ; % $ $ % ; $ $ > + # ",
"+ , ' % ' % ' ' ' ' $ ' $ ' ' $ ' ' $ ' ' $ ' ' $ ' ' ' $ ' ' $ ' ' $ ' $ ' % ' ' % ' % ) # + ! ",
"+ ~ { { { { { { { { { { { { { { { { { { { { { { { { { { { { { { { { { { { { { { { { { { { ] + { ",
"+ + + + + + + + + + + + + + + + + + + + + + + + + + + + + + + + + + + + + + + + + + + + + + @ ^ ",
"+ ~ # # # # # # # # # # # # # # # # # # # # # # # # # # # # # # # # # # # # # # # # # # # / / # ",
"+ ~ # # # # # # # # # # # # # # # # # # # # # # # # # # # # # # # # # # # # # # # # # # # / / # ",
"+ ~ # # # # # # # # # # # # # # # # # # # # # # # # # # ( ( ( ( ( ( ( ( ( ( ( ( ( # # # # / / # ",
"+ _ # # # # # # # # # # # # # # # # # # # # ( : # # # # # # # < < < < < < < < [ } ( # # # / / # ",
"+ @ # # # # # # # # # # # # # # # # # # # | } 1 2 3 4 # # 5 5 5 5 5 5 5 5 6 7 8 9 : # # # / / # ",
"+ @ # # # # # # # # # # # # # # # # # | 0 a b c d e 2 # # f # # g g g g g h i j k l # # # / / # ",
"+ @ # # # # # # # # # # # # # # # ( : m n o p q r s t } } f f # } } } } } u v 7 g } ( # # / / # ",
"+ @ # # # # # # # # # # # # # ( | u v w x y j z A m | ( ( f f f ( ( ( ( ( | B 6 g } ( # # / / # ",
"+ @ # # # # # # # # # # # # | l ! C D y E F j _ G | # # # f f f f # # # # ( < 5 g } ( # # / / # ",
"+ . # # # # # # # # # # ( 0 H I J j J K L 4 4 M : # # # # f f f f f # # # ( < 5 g } ( # # / / # ",
"+ 8 # # # # # # # # # ( } N O P Q R S S E P K } ( # # # # f f f f f f # # ( < 5 g } ( # # / / # ",
"+ 8 # # # # # # # # # | M 7 x T U V m g W h t ( # # # # # f f f f f f f # ( < 5 g } ( # # / / # ",
"+ J # # # # # # # # # 0 X c b m : } K x Y G | # # # # # # f f f f f f f f # < 5 g } ( # # / / # ",
"+ Z # # # # # # # # # l s 4 ` | : ` D D  .: # # # # # # # f f f f f # # # ( < 5 g } ( # # / / # ",
"+ / # # # # # # # # # l ..D v | V +.P K } ( # # # # # # # f f # f f # # # ( < 5 g } ( # # / / # ",
"+ / # # # # # # # # # l ..D v | m _ Z a | # # # # # # # # f # # # f f # # ( < 5 g } ( # # / / # ",
"+ / # # # # # # # # # l ..D v | H o @.t ( # # # # # # # # # # # # f f # # ( < 5 g } ( # # / / # ",
"+ / # # # # # # # # # l ..D v | H o #.t ( # # # # # # # # # # # # # f f # | $.7 g } ( # # / / # ",
"+ / # # # # # # # # # l ..D v | H o #.t ( # # # # # # # # # # # # # f f # t %.&.h } # # # / / # ",
"+ / # # # # # # # # # l ..D v | H o #.t ( # # # # # # # # # # # # ( | u # @.*.=.-.: # # # / / # ",
"+ / # # # # # # # # # l ..D v | H o #.t ( # # # # # # # # # # # | l G ..P ;.>.@ ,.( # # # / / # ",
"+ Z # # # # # # # # # l ..D v | H o #.t ( # # # # # # # # # ( 0 H '.).!.~.{.].M : # # # # / / # ",
"+ + # # # # # # # # # l ..D v | H o #.t ( # # # # # # # ( : V N ^.P P /.(._.:.} ( # # # # / / # ",
"+ + # # # # # # # # # l s D U : H o @.m ( ( ( ( ( ( ( | } < g 3 c E D <.[.j G | # # # # # / / # ",
"+ + # # # # # # # # # l C }.|.t 1.).2.G 3.3.3.3.3.3.4.G 5.6.W / 7.8.9.0.a.I 0 # # # # # # / / # ",
"+ + # # # # # # # # ( u b.z J ^.E c.d.Y i F F F F i ^.. W 5 e.$.:.f.g.h.Z t ( # # # # # # / / # ",
"+ + # # # # # # # # : v Q d.i.8 5 j.j.D + @ @ @ @ @ + J k. .l.R a.g.m.n.U | # # # # # # # / / # ",
"+ + # # # # # # # | a 8.P X ! ! I /.o.c p.}.}.}.}.}.}.4 i.@ p.q.r.s.t.u.} # # # # # # # # / / # ",
"+ + # # # # # # ( 3.k v.b.H t -.z w.r.x.y.y.y.y.y.y.y.y.y.y.z.A.f B.x a ( # # # # # # # # / / # ",
"+ + # # # # # ( l L C./ B B Y D.x.E.f E.s.A.A.A.A.A.A.A.A.F.F.F.0.G.H.: # # # # # # # # # / / # ",
"+ + # # # # # : U i.4 I.K J.K.A.f L.M.N.D.O.P.P.P.P.P.Q.R.o.S.T.U.R V ( # # # # # # # # # / / # ",
"+ + # # # # | a @.W V.Y W.y.s.X.Y.D.Z.s ^ N M M M M M M  . .` ` 1.u ( # # # # # # # # # # / / # ",
"+ + # # # ( 4.g `.D p  +r..+++@+2.n #+l | ( ( ( ( ( ( ( ( ( ( ( ( ( # # # # # # # # # # # / / # ",
"+ + # # ( l I &.$+d %+&+9.p :.*+V : ( # # # # # # # # # # # # # # # # # # # # # # # # # # / / # ",
"+ + # # : N =+-+;+<.R.D >+[ } | ( # # # # # # # # # # # # # # # # # # # # # # # # # # # # / / # ",
"+ + # ( 3.#.D.d !.^.9 m 0 | # # # # # # # # # # # # # # # # # # # # # # # # # # # # # # # / / # ",
"+ + # ( u { ).{ < V : ( # # # # # # # # # # # # # # # # # # # # # # # # # # # # # # # # # / / # ",
"+ + # # | V 4.l | ( # # # # # # # # # # # # # # # # # # # # # # # # # # # # # # # # # # # / / # ",
"+ + # # # ( ( # # # # # # # # # # # # # # # # # # # # # # # # # # # # # # # # # # # # # # / / # ",
"+ + { { { { { { { { { { { { { { { { { { { { { { { { { { { { { { { { { { { { { { { { { { { 8 ).# ",
"v ,+@ @ @ @ @ @ @ @ @ @ @ @ @ @ @ @ @ @ @ @ @ @ @ @ @ @ @ @ @ @ @ @ @ @ @ @ @ @ @ @ @ @ @ + @.# ",
"# # # # # # # # # # # # # # # # # # # # # # # # # # # # # # # # # # # # # # # # # # # # # # # # "};
