/* XPM */
static char * clips_xpm[] = {
"48 48 732 2",
"  	c None",
". 	c #5CA959",
"+ 	c #439C43",
"@ 	c #439D42",
"# 	c #369533",
"$ 	c #339632",
"% 	c #339534",
"& 	c #389636",
"* 	c #369736",
"= 	c #339233",
"- 	c #138414",
"; 	c #047A05",
"> 	c #007A00",
", 	c #007F00",
"' 	c #007E00",
") 	c #008000",
"! 	c #008100",
"~ 	c #008001",
"{ 	c #018001",
"] 	c #037E03",
"^ 	c #148613",
"/ 	c #2F9530",
"( 	c #218822",
"_ 	c #057A05",
": 	c #007B01",
"< 	c #007C00",
"[ 	c #008600",
"} 	c #008900",
"| 	c #008800",
"1 	c #008A00",
"2 	c #008300",
"3 	c #067E06",
"4 	c #228C24",
"5 	c #369136",
"6 	c #067905",
"7 	c #008500",
"8 	c #008C00",
"9 	c #008E00",
"0 	c #008F00",
"a 	c #009000",
"b 	c #009400",
"c 	c #078007",
"d 	c #3E9B3E",
"e 	c #218521",
"f 	c #017B01",
"g 	c #007B00",
"h 	c #008D00",
"i 	c #009300",
"j 	c #009500",
"k 	c #009600",
"l 	c #198819",
"m 	c #1F841F",
"n 	c #009200",
"o 	c #009A00",
"p 	c #009D00",
"q 	c #00A000",
"r 	c #009E00",
"s 	c #00A100",
"t 	c #009700",
"u 	c #1C8B1B",
"v 	c #278B26",
"w 	c #027902",
"x 	c #009B00",
"y 	c #00A400",
"z 	c #00A300",
"A 	c #00A700",
"B 	c #00A500",
"C 	c #00A900",
"D 	c #00AB00",
"E 	c #00A600",
"F 	c #009800",
"G 	c #228C23",
"H 	c #2E8B2D",
"I 	c #027803",
"J 	c #008B00",
"K 	c #00AC00",
"L 	c #018201",
"M 	c #248B24",
"N 	c #0B790C",
"O 	c #008400",
"P 	c #009900",
"Q 	c #009C00",
"R 	c #009F00",
"S 	c #038002",
"T 	c #3A9338",
"U 	c #268524",
"V 	c #007900",
"W 	c #008700",
"X 	c #09820A",
"Y 	c #367436",
"Z 	c #316D31",
"` 	c #366C36",
" .	c #346B34",
"..	c #316F31",
"+.	c #326D33",
"@.	c #356E36",
"#.	c #317031",
"$.	c #336C34",
"%.	c #2F6F31",
"&.	c #356C35",
"*.	c #317032",
"=.	c #366E36",
"-.	c #336D33",
";.	c #306B32",
">.	c #2C772C",
",.	c #029102",
"'.	c #10820F",
").	c #308B2F",
"!.	c #FEC837",
"~.	c #FFC434",
"{.	c #FDC036",
"].	c #FEBC36",
"^.	c #FBB43A",
"/.	c #FEB63E",
"(.	c #338833",
"_.	c #027703",
":.	c #447E44",
"<.	c #1E7F1F",
"[.	c #219321",
"}.	c #81AA7C",
"|.	c #F7C83C",
"1.	c #FBBE05",
"2.	c #FAB804",
"3.	c #F7AF06",
"4.	c #F9AA05",
"5.	c #FAA605",
"6.	c #FB9E02",
"7.	c #F9A623",
"8.	c #0F7C11",
"9.	c #008200",
"0.	c #039703",
"a.	c #518A51",
"b.	c #F7AD3D",
"c.	c #FC9E0D",
"d.	c #FE9D04",
"e.	c #FCA51D",
"f.	c #F9B042",
"g.	c #348D37",
"h.	c #289E28",
"i.	c #F7D784",
"j.	c #FACA32",
"k.	c #FAC92C",
"l.	c #FBBE0C",
"m.	c #F6BD0D",
"n.	c #DAB044",
"o.	c #F09F17",
"p.	c #F9A414",
"q.	c #2E832C",
"r.	c #017404",
"s.	c #029902",
"t.	c #5E975E",
"u.	c #A76D27",
"v.	c #B46D14",
"w.	c #986D3B",
"x.	c #B56B0E",
"y.	c #9C7349",
"z.	c #AF6D19",
"A.	c #AA732F",
"B.	c #379238",
"C.	c #01AA01",
"D.	c #2BA62B",
"E.	c #F7D381",
"F.	c #FAC011",
"G.	c #F7BF09",
"H.	c #E8BD21",
"I.	c #F5BE0E",
"J.	c #F7C00D",
"K.	c #F0C847",
"L.	c #F7A817",
"M.	c #F69B11",
"N.	c #137815",
"O.	c #007701",
"P.	c #009100",
"Q.	c #049F04",
"R.	c #599559",
"S.	c #383837",
"T.	c #0E121B",
"U.	c #181C22",
"V.	c #1F242C",
"W.	c #262E38",
"X.	c #28313D",
"Y.	c #272F3B",
"Z.	c #2A343C",
"`.	c #252D39",
" +	c #1F252F",
".+	c #181C23",
"++	c #0E1016",
"@+	c #44484B",
"#+	c #5DA65D",
"$+	c #F4D079",
"%+	c #F8BE16",
"&+	c #F9BB08",
"*+	c #DFB437",
"=+	c #DDBD3B",
"-+	c #FBBC03",
";+	c #FCBC03",
">+	c #FDB504",
",+	c #FDB006",
"'+	c #FBA906",
")+	c #FA9D02",
"!+	c #F29F22",
"~+	c #3E8B3F",
"{+	c #027305",
"]+	c #007801",
"^+	c #04A204",
"/+	c #F6B64D",
"(+	c #896730",
"_+	c #141C24",
":+	c #1D2430",
"<+	c #25313D",
"[+	c #2D3947",
"}+	c #323B4A",
"|+	c #333D4C",
"1+	c #2F3C4D",
"2+	c #2D3846",
"3+	c #26313C",
"4+	c #1F2831",
"5+	c #161B22",
"6+	c #886335",
"7+	c #F9B448",
"8+	c #FCB84D",
"9+	c #FCC04D",
"0+	c #F7C04D",
"a+	c #F8C14C",
"b+	c #FBBC18",
"c+	c #F9B306",
"d+	c #DDB43E",
"e+	c #DDB335",
"f+	c #E1AB2C",
"g+	c #E1A42C",
"h+	c #E0A62D",
"i+	c #E0A12D",
"j+	c #E09D32",
"k+	c #288229",
"l+	c #007203",
"m+	c #00AA00",
"n+	c #02A102",
"o+	c #5EA05E",
"p+	c #FA9B09",
"q+	c #A76A0E",
"r+	c #1E222B",
"s+	c #26333F",
"t+	c #2F3C4C",
"u+	c #37475A",
"v+	c #3A4E63",
"w+	c #3B5269",
"x+	c #394C61",
"y+	c #37485C",
"z+	c #2F3B4B",
"A+	c #1F242D",
"B+	c #97570D",
"C+	c #F59506",
"D+	c #FAA204",
"E+	c #F8A305",
"F+	c #F9A504",
"G+	c #FBAF04",
"H+	c #F4AE09",
"I+	c #DCAD3D",
"J+	c #046D08",
"K+	c #007303",
"L+	c #019401",
"M+	c #04A404",
"N+	c #599D59",
"O+	c #D59C4E",
"P+	c #6E583E",
"Q+	c #212C38",
"R+	c #2C3947",
"S+	c #384658",
"T+	c #3E5368",
"U+	c #465D74",
"V+	c #465F75",
"W+	c #455E76",
"X+	c #415466",
"Y+	c #39485C",
"Z+	c #2D3847",
"`+	c #212B35",
" @	c #6F5740",
".@	c #CE9849",
"+@	c #D69F48",
"@@	c #D6A247",
"#@	c #D5A647",
"$@	c #D2A64A",
"%@	c #FAC426",
"&@	c #FCBE1E",
"*@	c #FDBB1F",
"=@	c #FCB121",
"-@	c #FEAD20",
";@	c #FEAB25",
">@	c #328233",
",@	c #006C06",
"'@	c #007502",
")@	c #1C7F1C",
"!@	c #348934",
"~@	c #329032",
"{@	c #359635",
"]@	c #2F9C2D",
"^@	c #05A205",
"/@	c #04A704",
"(@	c #599859",
"_@	c #716147",
":@	c #26323D",
"<@	c #333F4F",
"[@	c #3A4E62",
"}@	c #465D73",
"|@	c #4F6980",
"1@	c #56718D",
"2@	c #4F6983",
"3@	c #475F75",
"4@	c #3B5066",
"5@	c #354150",
"6@	c #27323B",
"7@	c #736252",
"8@	c #F7C52D",
"9@	c #FDBC01",
"0@	c #F2B710",
"a@	c #ECAA18",
"b@	c #EEA917",
"c@	c #EEA518",
"d@	c #FAA002",
"e@	c #F9A018",
"f@	c #1B771E",
"g@	c #006B06",
"h@	c #3E943F",
"i@	c #0DA70D",
"j@	c #02A602",
"k@	c #5EA55E",
"l@	c #FE9E06",
"m@	c #A96D10",
"n@	c #27333F",
"o@	c #314357",
"p@	c #415363",
"q@	c #48627A",
"r@	c #57748F",
"s@	c #5E7998",
"t@	c #5C758C",
"u@	c #486177",
"v@	c #3F5567",
"w@	c #2F4255",
"x@	c #29353E",
"y@	c #9E5910",
"z@	c #FA9702",
"A@	c #FD9C01",
"B@	c #FDA801",
"C@	c #FCA701",
"D@	c #FCB101",
"E@	c #FCB401",
"F@	c #FEBC00",
"G@	c #FEBC02",
"H@	c #FABE05",
"I@	c #FBBE03",
"J@	c #F5BF11",
"K@	c #F1A420",
"L@	c #F9A113",
"M@	c #096A0D",
"N@	c #208921",
"O@	c #249420",
"P@	c #249B22",
"Q@	c #25A125",
"R@	c #27A527",
"S@	c #06A606",
"T@	c #04A604",
"U@	c #599C59",
"V@	c #D8A24C",
"W@	c #866536",
"X@	c #24313F",
"Y@	c #334151",
"Z@	c #3F5263",
"`@	c #556F83",
" #	c #587591",
".#	c #516F89",
"+#	c #475F76",
"@#	c #405163",
"##	c #334354",
"$#	c #27323E",
"%#	c #806035",
"&#	c #D79B44",
"*#	c #D6A142",
"=#	c #D6A342",
"-#	c #D7A343",
";#	c #D5A741",
">#	c #D4AA41",
",#	c #D4A846",
"'#	c #D6B041",
")#	c #D5BB45",
"!#	c #D5BC41",
"~#	c #F2C51A",
"{#	c #FABF08",
"]#	c #F6C63C",
"^#	c #FBBD26",
"/#	c #F9BA2B",
"(#	c #F8BB3C",
"_#	c #F9A40D",
":#	c #F69F10",
"<#	c #2C792A",
"[#	c #016505",
"}#	c #006B05",
"|#	c #018202",
"1#	c #04A504",
"2#	c #59A359",
"3#	c #3F464D",
"4#	c #252E36",
"5#	c #2E3C4C",
"6#	c #38495D",
"7#	c #465667",
"8#	c #4B6177",
"9#	c #4B647D",
"0#	c #49627A",
"a#	c #44586B",
"b#	c #3B4A5B",
"c#	c #303D4C",
"d#	c #222C35",
"e#	c #475261",
"f#	c #D9BF3F",
"g#	c #F8BB06",
"h#	c #FCB901",
"i#	c #FAB002",
"j#	c #FCAB01",
"k#	c #FCA501",
"l#	c #F89F04",
"m#	c #E9A12D",
"n#	c #2B762D",
"o#	c #006204",
"p#	c #006A07",
"q#	c #007104",
"r#	c #00A800",
"s#	c #5BA45B",
"t#	c #FCAF36",
"u#	c #A07027",
"v#	c #1E2733",
"w#	c #2A3641",
"x#	c #344151",
"y#	c #394B60",
"z#	c #3F5265",
"A#	c #455668",
"B#	c #415465",
"C#	c #3B4B5E",
"D#	c #37414F",
"E#	c #2A3645",
"F#	c #20262D",
"G#	c #986428",
"H#	c #F8AB36",
"I#	c #FBB331",
"J#	c #FBB934",
"K#	c #FEBC34",
"L#	c #FBBD35",
"M#	c #F9C43A",
"N#	c #186A19",
"O#	c #006103",
"P#	c #04A104",
"Q#	c #5DAC5D",
"R#	c #EE9B20",
"S#	c #9B6616",
"T#	c #161F28",
"U#	c #1F2A35",
"V#	c #293743",
"W#	c #2D3C4C",
"X#	c #364254",
"Y#	c #394456",
"Z#	c #374253",
"`#	c #313D4D",
" $	c #293643",
".$	c #202934",
"+$	c #181E27",
"@$	c #8E5917",
"#$	c #E9981C",
"$$	c #EF9D1A",
"%$	c #EEA11A",
"&$	c #EAA51B",
"*$	c #ECA717",
"=$	c #FAB104",
"-$	c #F6BA1C",
";$	c #0A610B",
">$	c #006003",
",$	c #006806",
"'$	c #006D05",
")$	c #03A003",
"!$	c #58A358",
"~$	c #45413D",
"{$	c #0F151D",
"]$	c #151E26",
"^$	c #1E2832",
"/$	c #24303B",
"($	c #283540",
"_$	c #2B3845",
":$	c #1C2632",
"<$	c #192129",
"[$	c #0D131A",
"}$	c #4C4D4A",
"|$	c #E6AA2E",
"1$	c #F9B603",
"2$	c #FBC01D",
"3$	c #FDC011",
"4$	c #FCB90A",
"5$	c #FCB50A",
"6$	c #FEB107",
"7$	c #FDA408",
"8$	c #FDA210",
"9$	c #F6AC2D",
"0$	c #477547",
"a$	c #025802",
"b$	c #006605",
"c$	c #007403",
"d$	c #049E04",
"e$	c #5CAD5E",
"f$	c #2E3434",
"g$	c #61421F",
"h$	c #6A431C",
"i$	c #464644",
"j$	c #554F3C",
"k$	c #6B481C",
"l$	c #545141",
"m$	c #42464A",
"n$	c #66471E",
"o$	c #5E4221",
"p$	c #2D3432",
"q$	c #41A83E",
"r$	c #1CB219",
"s$	c #57BB59",
"t$	c #E3B32D",
"u$	c #FABB04",
"v$	c #FBC213",
"w$	c #FCCE45",
"x$	c #F8C327",
"y$	c #F7BE07",
"z$	c #E9B221",
"A$	c #E9AA20",
"B$	c #E9A920",
"C$	c #E5A327",
"D$	c #F7A008",
"E$	c #FBA211",
"F$	c #347535",
"G$	c #09670A",
"H$	c #035D03",
"I$	c #006906",
"J$	c #006F05",
"K$	c #007D01",
"L$	c #049D04",
"M$	c #55A155",
"N$	c #E99D30",
"O$	c #EE9311",
"P$	c #E3A348",
"Q$	c #F49207",
"R$	c #DFA958",
"S$	c #ED971B",
"T$	c #E7A13E",
"U$	c #38A238",
"V$	c #00A200",
"W$	c #0A9F0A",
"X$	c #4DB651",
"Y$	c #ECB822",
"Z$	c #F7BF08",
"`$	c #FABE03",
" %	c #F5C112",
".%	c #F1A623",
"+%	c #F79F13",
"@%	c #417740",
"#%	c #4C9A4C",
"$%	c #5AA459",
"%%	c #368A37",
"&%	c #036708",
"*%	c #019701",
"=%	c #319D31",
"-%	c #209C20",
";%	c #0B970A",
">%	c #54B355",
",%	c #D7B44D",
"'%	c #D7BA45",
")%	c #E5BF2A",
"!%	c #FAC11D",
"~%	c #FABC1C",
"{%	c #FAB61C",
"]%	c #FBB424",
"^%	c #FBA105",
"/%	c #F89E14",
"(%	c #527F52",
"_%	c #628D62",
":%	c #579555",
"<%	c #0D6C0E",
"[%	c #007602",
"}%	c #0B960A",
"|%	c #3EA53B",
"1%	c #40A840",
"2%	c #45AC44",
"3%	c #40A941",
"4%	c #42AB43",
"5%	c #41AA43",
"6%	c #42AB40",
"7%	c #40AB40",
"8%	c #44AC44",
"9%	c #40AA42",
"0%	c #45AC45",
"a%	c #3BA63B",
"b%	c #30A22F",
"c%	c #019801",
"d%	c #078907",
"e%	c #3F9A3B",
"f%	c #4C9F4F",
"g%	c #EDB81D",
"h%	c #F0B419",
"i%	c #EEAB17",
"j%	c #EFAC16",
"k%	c #F0A317",
"l%	c #EC9D1A",
"m%	c #E2A23E",
"n%	c #437E44",
"o%	c #026104",
"p%	c #007204",
"q%	c #019D01",
"r%	c #017A01",
"s%	c #258325",
"t%	c #357936",
"u%	c #005C01",
"v%	c #137A15",
"w%	c #3A733A",
"x%	c #005A00",
"y%	c #005F02",
"z%	c #006706",
"A%	c #007F01",
"B%	c #077907",
"C%	c #5A8F5A",
"D%	c #3A703A",
"E%	c #005600",
"F%	c #007A01",
"G%	c #007C01",
"H%	c #008201",
"I%	c #017603",
"J%	c #448D45",
"K%	c #396939",
"L%	c #004D00",
"M%	c #006505",
"N%	c #08730B",
"O%	c #366437",
"P%	c #004300",
"Q%	c #005000",
"R%	c #005D01",
"S%	c #006E05",
"T%	c #008601",
"U%	c #086D0E",
"V%	c #5B7B5C",
"W%	c #10550F",
"X%	c #014301",
"Y%	c #004F00",
"Z%	c #005800",
"`%	c #006304",
" &	c #006907",
".&	c #007D00",
"+&	c #08680C",
"@&	c #477D46",
"#&	c #3E7E3E",
"$&	c #205F20",
"%&	c #136013",
"&&	c #11630F",
"*&	c #0E640E",
"=&	c #016003",
"-&	c #006A06",
";&	c #007004",
">&	c #007902",
",&	c #006404",
"'&	c #08630A",
")&	c #567556",
"!&	c #688968",
"~&	c #81AF7F",
"{&	c #8FBC8C",
"]&	c #8EBB8C",
"^&	c #85B884",
"/&	c #217122",
"(&	c #085D09",
"_&	c #677767",
":&	c #5D7A5F",
"<&	c #607C61",
"[&	c #547E54",
"}&	c #166115",
"|&	c #005500",
"1&	c #006B07",
"2&	c #006705",
"3&	c #005E02",
"4&	c #005900",
"5&	c #085608",
"6&	c #084608",
"7&	c #004C00",
"8&	c #005200",
"9&	c #005A01",
"0&	c #005B00",
"a&	c #006203",
"b&	c #006002",
"c&	c #005700",
"d&	c #005400",
"e&	c #084908",
"f&	c #3B7C3A",
"g&	c #4C9747",
"h&	c #4D9A49",
"i&	c #4D9B48",
"j&	c #4E9B49",
"k&	c #4B9D47",
"l&	c #4EA04A",
"m&	c #4A9D46",
"n&	c #4BA048",
"o&	c #4B9F46",
"p&	c #4B9F47",
"q&	c #4D9F48",
"r&	c #48A045",
"s&	c #4CA047",
"t&	c #4C9E48",
"u&	c #4C9F4A",
"v&	c #4C9F48",
"w&	c #4B9A47",
"x&	c #4C9E49",
"y&	c #4D9A48",
"z&	c #4B9948",
"A&	c #397B37",
"B&	c #6A8A68",
"C&	c #83A181",
"D&	c #83A083",
"E&	c #81A582",
"F&	c #83A683",
"G&	c #84A883",
"H&	c #81A981",
"I&	c #83AB82",
"J&	c #84AA83",
"K&	c #85AB84",
"L&	c #80AB80",
"M&	c #84AB83",
"N&	c #82AC81",
"O&	c #85A984",
"P&	c #82AC82",
"Q&	c #86A985",
"R&	c #82A682",
"S&	c #83A782",
"T&	c #83A283",
"U&	c #83A284",
"V&	c #84A183",
"W&	c #6A876B",
"                                                                                                ",
"                                                                                                ",
"                                                                                                ",
"                                  . + @ # $ $ % & *                                             ",
"                              = - ; > , , ' ) ! ~ { ] ^ /                                       ",
"                          ( _ : < ) [ [ [ } | } [ [ 1 2 ~ 3 4                                   ",
"                      5 6 > ) 7 [ 8 9 0 a b a b b 0 1 9 } } , c d                               ",
"                    e f g ! [ 8 h i b b b j k j j b b a a 8 | 2 { l                             ",
"                  m > ' 2 8 9 n i b o p q r s s r s p t b b n } | ! u                           ",
"                v w ' 7 1 a b k x y z A B C D E E E z z r F b i 9 [ ! G                         ",
"              H I < 2 J i b F s y B C K K K K K K K K C B q r j a 9 | L M                       ",
"              N > O } 0 b P x Q p z z y C C K K K A z s r s R p k b h } S T                     ",
"            U V O W a b t X Y Z `  ...+.@.#.$.%.&.*...=.-.;.>.,.r b a h '.).    !.~.{.].^./.    ",
"          (._.> 7 h i F k :.                                  <.y Q j [.}.    |.1.2.3.4.5.6.7.  ",
"          8.> 9.} b b p 0.a.        b.c.    d.    e.f.        g.E z h.  i.j.k.l.m.n.      o.p.  ",
"        q.r.> 7 } b x z s.t.        u.v.  w.x.y.  z.A.        B.C.D.  E.F.G.H.I.J.K.      L.M.  ",
"        N.O.< W P.j r y Q.R.    S.T.U.V.W.X.Y.Z.`. +.+++@+      #+  $+%+&+*+  =+-+;+>+,+'+)+!+  ",
"      ~+{+]+' [ n k r C ^+R.  /+(+_+:+<+[+}+|+1+2+3+4+5+6+7+8+9+0+a+b+c+d+      e+f+g+h+i+j+    ",
"      k+l+> 2 h n x s m+n+o+  p+q+r+s+t+u+v+w+x+y+z+s+A+B+C+D+E+F+G+H+I+                        ",
"      J+K+> 2 h L+P z m+M+N+  O+P+Q+R+S+T+U+V+W+X+Y+Z+`+ @.@+@@@#@$@            %@&@*@=@-@;@    ",
"    >@,@'@)@!@~@{@]@^@K /@(@    _@:@<@[@}@|@1@2@3@4@5@6@7@                    8@9@0@a@b@c@d@e@  ",
"    f@g@K+h@        i@K j@k@  l@m@n@o@p@q@r@s@t@u@v@w@x@y@z@A@B@C@D@E@F@G@H@F@I@J@        K@L@  ",
"    M@,@K+N@O@P@Q@R@S@m+T@U@  V@W@X@Y@Z@3@`@ #.#+#@###$#%#&#*#=#-#;#>#,#'#)#!#~#{#]#^#/#(#_#:#  ",
"  <#[#}#K+> |#} b P s K 1#2#    3#4#5#6#7#8#9#0#a#b#c#d#e#                    f#g#h#i#j#k#l#m#  ",
"  n#o#p#q#O.2 | b F q r#T@s#  t#u#v#w#x#y#z#A#B#C#D#E#F#G#H#I#J#K#L#M#                          ",
"  N#O#p#q#O.' O a j r B P#Q#  R#S#T#U#V#W#X#Y#Z#`# $.$+$@$#$$$%$&$*$=$-$                        ",
"  ;$>$,$'$'@: 2 0 b x s )$!$    ~${$]$^$/$($_$($6@:$<$[$}$          |$1$2$      3$4$5$6$7$8$9$  ",
"0$a$>$b$,@c$]+9.} b j R d$e$      f$g$h$i$j$k$l$m$n$o$p$      q$r$s$  t$u$v$w$x$y$z$A$B$C$D$E$  ",
"F$G$H$[#I$J$]+K$W J b P L$M$        N$O$  P$Q$R$  S$T$        U$V$W$X$  Y$Z$I@`$ %        .%+%  ",
"@%#%$%%%&%,@l+V ) | i t *%=%                                  -%r F ;%>%  ,%'%)%1.!%~%{%]%^%/%  ",
"  (%_%:%<%p#q#[%> 2 J n b }%|%1%2%3%4%5%2%6%7%8%8%1%9%2%0%a%b%c%k t a d%e%f%    g%h%i%j%k%l%m%  ",
"      n%o%b$,@p%]+' O J b j o r z A C C C m+m+C C C C C y q q%k b a W ! r%s%                    ",
"      t%u%o#p#g@l+]+~ [ h b t F Q R z r#K K K K K K B z R p b b a | 9.> v%                      ",
"      w%x%y%z%p#J$c$> A%7 | n b t p o R z V$y B R q R o P b b 9 | ! > B%C%                      ",
"      D%E%u%y%b$p#J$c$F%G%H%W 9 n j b o t Q o x t t j t b 0 J O ) > I%J%                        ",
"      K%L%E%u%y%M%p#J$K+]+> ) 2 W 9 9 i b b b b b b b 9 1 | 2 g > [%N%                          ",
"      O%P%Q%E%R%>$M%p#S%q#[%> ' ' ) 7 W [ J | } 1 1 O T%) > > ]+K+J$U%                          ",
"      V%W%X%Y%Z%u%>$`% &p#J$K+c$V > A%.&! ) H%! , < ' g > O.'@q#S%p#+&                          ",
"        @&#&$&%&&&*&=&O#b$-&,@J$;&l+'@O.]+]+> ]+>&V ]+[%l+;&S% &b$,&'&                          ",
"        )&!&~&{&]&^&/&u%>$,&b$p#,@,@S%;&p%q#q#q#p%;&J$,@,@I$I$`%O#y%(&                          ",
"            _&:&<&[&}&|&u%u%y%O#`%z%I$ &-&-&1&1&1& &-&2&b$o#>$3&x%4&5&                          ",
"                    6&7&8&E%9&0&R%y%a&o#`%`%a&,&,&b&O#a&R%R%x%c&d&Y%e&                          ",
"                    f&g&h&i&j&k&k&l&m&n&o&p&p&q&r&s&q&t&u&v&w&x&y&z&A&                          ",
"                    B&C&D&E&E&F&G&H&I&J&K&L&M&N&O&H&P&H&Q&R&S&T&U&V&W&                          ",
"                                                                                                ",
"                                                                                                ",
"                                                                                                ",
"                                                                                                "};
