/* XPM */
static char * logo_xpm[] = {
"32 32 9 1",
" 	c None",
".	c #FFFFFF",
"+	c #E5E5E5",
"@	c #CCCCCC",
"#	c #B2B2B2",
"$	c #FFFF00",
"%	c #7F7F00",
"&	c #999999",
"*	c #7F7F7F",
"...........++@@+@@++++..........",
"........++++.......+++++........",
".......+++.............+@+......",
".....+++.................++.....",
".........+................++....",
"....#$+....................++...",
"..+++$$$$@+++......+........++..",
"..+.+$$$$$$$$$@@+............+..",
".++..$$$$$$$$%$$$$$@+..+.....++.",
".++.++$$$$$$$$$$$$$$$$$#@+....+.",
"++....$$$$$$$$$%%$$$$$$$$$$$$@++",
"++....$$$$$$$$%$$%%$$$$$$$$$$$$@",
"++....@$%$$$%%$$$$$%$$$$$$$$$$$#",
"+......$$$$$$$%$$%$$$$$%$$$$$$$&",
"+......$$$$$%$%$$%$%$$$$$$$$$$$%",
"@......@%$$$$$$%%$$$%$$$$$$$$$$$",
"@......+$$$$%$$%%$$$$$$$$$$$$%$%",
"+......+*$$$%$$$$%$%%$$$$$$$$$$%",
"+.......@$$$$$$$$$$%$$$$$$$$$$$&",
"++......+$$$$%$%%$$%$$$$$$$$$$$#",
"++.......$$$$%$$$$%$$$%$$$$$$$$#",
".+.......@$$$$$%$%$$$$$$$$$$$$%+",
".++......+$$%$$$$$$$$$$$$$$$$$@.",
".++......+$$$$$$$$%$$$$$$$$$$%+.",
"..++......@$$$$$$$$$$$$$$$$$$#..",
"...+......+$$$$$$$$$$$$$$$$$*+..",
"...+++.....$$$$$$$$$$$$$$$$$@...",
"....++.....$$$$$$$$$$$$$$$%+....",
"......++...+$$$$$$$$$$$$$*@.....",
".......+++..$$$$$$$$$$$%&.......",
"........++++@$$$$$$$$%&+........",
"..........++@&%*$%&#@+.........."};
