/* XPM */
static char *cube[] = {
/* columns rows colors chars-per-pixel */
"48 48 227 2",
"   c #0404B1",
".  c #0000BC",
"X  c #0404BE",
"o  c #0707BD",
"O  c #0808BD",
"+  c #0909BE",
"@  c #0F0FBB",
"#  c #1515B9",
"$  c #0101C0",
"%  c #0000C2",
"&  c #0101C2",
"*  c #0101C3",
"=  c #0000C5",
"-  c #0404C0",
";  c #0707C0",
":  c #0E0ECE",
">  c #0505D4",
",  c #0000DB",
"<  c #0000DC",
"1  c #0000DD",
"2  c #0000DE",
"3  c #0000DF",
"4  c #0202DC",
"5  c #0202DD",
"6  c #0303DC",
"7  c #0202DE",
"8  c #0505D9",
"9  c #0404DA",
"0  c #0404DB",
"q  c #0504DB",
"w  c #0505DA",
"e  c #0505DB",
"r  c #0707D8",
"t  c #0707D9",
"y  c #0404DC",
"u  c #0505DC",
"i  c #0504DE",
"p  c #0505DF",
"a  c #0707DE",
"s  c #0707DF",
"d  c #0808D8",
"f  c #1313D1",
"g  c #1414D0",
"h  c #1514D2",
"j  c #0000E0",
"k  c #0000E3",
"l  c #0303E2",
"z  c #0000E4",
"x  c #0000E5",
"c  c #0000E6",
"v  c #0000E7",
"b  c #0202E4",
"n  c #0505E2",
"m  c #0000E8",
"M  c #0000E9",
"N  c #0101E9",
"B  c #0000EA",
"V  c #0000ED",
"C  c #0000F6",
"Z  c #0000F9",
"A  c #0000FA",
"S  c #0000FB",
"D  c #0101FB",
"F  c #0000FC",
"G  c #0000FD",
"H  c #0101FC",
"J  c #0101FD",
"K  c #0000FE",
"L  c blue",
"P  c #0202FF",
"I  c #494988",
"U  c #5E5DBD",
"Y  c #6463CD",
"T  c #8B8A9A",
"R  c #999894",
"E  c #9D9BA1",
"W  c #9E9DA3",
"Q  c #A09FA0",
"!  c #A1A09E",
"~  c #A2A19D",
"^  c #A3A29E",
"/  c #A4A29E",
"(  c #A4A39F",
")  c #A5A39F",
"_  c #A3A2A3",
"`  c #A4A2A1",
"'  c #A4A3A1",
"]  c #A4A2A3",
"[  c #A6A4A0",
"{  c #A7A5A2",
"}  c #A7A6A2",
"|  c #A7A5A4",
" . c #A8A6A2",
".. c #A9A8A3",
"X. c #AAA9A3",
"o. c #AAA9A5",
"O. c #A3A1B5",
"+. c #A3A2B4",
"@. c #A4A2B5",
"#. c #A4A2B6",
"$. c #A6A4BC",
"%. c #A8A6BA",
"&. c #B4B3AF",
"*. c #B5B3AF",
"=. c #B4B3B0",
"-. c #B6B5B0",
";. c #B6B5B1",
":. c #B8B6B2",
">. c #B9B7B3",
",. c #B8B6B8",
"<. c #B8B7B8",
"1. c #B9B7B9",
"2. c #B9B8B3",
"3. c #BBB9B5",
"4. c #BBB9B6",
"5. c #BBBAB6",
"6. c #BCBAB6",
"7. c #BCBBB6",
"8. c #BDBBB7",
"9. c #BDBCB7",
"0. c #BEBCB7",
"q. c #BFBEB5",
"w. c #BCBAB9",
"e. c #BCBBB9",
"r. c #BDBBB9",
"t. c #BDBCBA",
"y. c #BEBCB8",
"u. c #BEBDB8",
"i. c #BEBDB9",
"p. c #BFBDB9",
"a. c #BEBDBE",
"s. c #C1BFB9",
"d. c #C0BEBA",
"f. c #C0BFBA",
"g. c #C1BFBA",
"h. c #C1BFBB",
"j. c #C1C0BB",
"k. c #C2C0BB",
"l. c #C2C1BB",
"z. c #C3C1BB",
"x. c #C2C0BC",
"c. c #C3C1BC",
"v. c #C3C1BD",
"b. c #C3C1BF",
"n. c #C3C2BD",
"m. c #C4C2BB",
"M. c #C4C2BD",
"N. c #C4C2BE",
"B. c #C4C2BF",
"V. c #C4C3BE",
"C. c #C5C3BF",
"Z. c #C5C4BC",
"A. c #C5C4BF",
"S. c #C6C4BC",
"D. c #C6C4BD",
"F. c #C6C5BD",
"G. c #C6C4BF",
"H. c #C8C6B4",
"J. c #CCCABC",
"K. c #D0CEBF",
"L. c #C6C5C0",
"P. c #C7C5C0",
"I. c #C7C5C1",
"U. c #C7C5C3",
"Y. c #C7C6C0",
"T. c #C7C6C1",
"R. c #C8C6C1",
"E. c #C9C7C0",
"W. c #C8C6C2",
"Q. c #C9C7C2",
"!. c #C9C7C3",
"~. c #CBC9C5",
"^. c #CDCBC6",
"/. c #CDCBC7",
"(. c #CECCC7",
"). c #D0CEC9",
"_. c #D2D0C0",
"`. c #D2D0C2",
"'. c #D6D4CF",
"]. c #DDDBC7",
"[. c #D8D6D2",
"{. c #D8D6D3",
"}. c #D8D7D2",
"|. c #D9D7D2",
" X c #D9D7D3",
".X c #DAD8D3",
"XX c #DAD8D4",
"oX c #DBD9D4",
"OX c #DCDAD5",
"+X c #DEDCD7",
"@X c #DBD9D8",
"#X c #DEDCD9",
"$X c #DFDDD8",
"%X c #DFDDDA",
"&X c #E0DED8",
"*X c #E0DED9",
"=X c #E1DED9",
"-X c #E1DFD9",
";X c #E0DEDA",
":X c #E1DFDA",
">X c #E2DFD9",
",X c #E2DFDA",
"<X c #E2E0D9",
"1X c #E2E0DA",
"2X c #E2E0DB",
"3X c #E3E1DA",
"4X c #E3E1DC",
"5X c #E5E3DE",
"6X c #E6E4D9",
"7X c #E6E4DA",
"8X c #E7E5DA",
"9X c #E6E4DE",
"0X c #E6E4DF",
"qX c #E7E5DF",
"wX c #EAE8DE",
"eX c #F0EED2",
"rX c #E6E4E1",
"tX c #E8E5E0",
"yX c #E8E6E0",
"uX c #E8E6E1",
"iX c #E9E6E1",
"pX c #E9E7E0",
"aX c #E9E7E1",
"sX c #EAE7E1",
"dX c #EAE8E0",
"fX c #EAE8E1",
"gX c #EEECE1",
/* pixels */
"OXOXOXOXOXoXOXOXOXOXOXoXOXOXOXOXOXOXOXOXOXOXOXOXOXOXOXOXOXOXOXOXoXOXOXOXOXOXOXOXOXOXOXOXOXOXOXOX",
"OXoXOXoXoXoX XoXoX.XoXoX XoXOX X|.OX X XoXoXoX XoXoXoXoXoXoXoXoXoXoXoXoXoXoXoXoXoXoXoXoXoXOXoXOX",
"OXOXoXOX;X;X;X;X;X;X>X>X;X;X;X;X;X>X;X;X;X>X>X>X;X;X>X>X:X:X:X:X>X:X>X#X:X:X:X:X:X>X:X:XOXoXOXOX",
"OXoXOX|.F.F.F.F.S.F.F.S.F.F.F.F.F.F.F.F.S.S.F.F.v.v.v.v.v.v.v.v.v.v.v.v.v.v.v.v.v.v.v.B..XOXoXOX",
"oXoX;XF.@ p d t > d d t n o O p d d > d d d a O ` v.5.5.e.e.0.8.v.^ } z.0.e.0.e.e.5.z.! n.>XoXOX",
"OXoX>XS.d L L L L L L L L j , L L L L L L L L p v.aX;X>X:X:X:X>XsXF.L.aX>X:X>X>X:X>XaXv.v.>XoXOX",
"OXoX>XF.d L D L D L L D L 3 , L D L D L L D L , 5.:X|..X.X.XoX.X>Xe.e.>X}.oXoXoXoX.X%X0.v.%XOXOX",
"oXoX;XS.t L D L L L L L L j , L L L L L L L L 3 e.4XoXOXOXOXOX.X>Xe.v.#XoXoXOXOXOXoX>Xe.v.>XoXOX",
"oXoX;XF.t L L L L L L L L j 3 L L L L L L L L y a.3XoXOXOXOXOX X>Xe.v.>XoXoXOXOXoXoX>X0.v.:XoXOX",
"OXoX;XM.t L D L L L L D L j , L D L L L L L L 3 e.3X XOXOXOXOXoX>Xh.z.>XoXoXOXoXoXoX:X0.v.:XoXOX",
"OXoX>XF.d L L L L L L L L j , L L L L L L D L y e.3XOXOXOXOXOX|.:Xe.v.>XoXoXoXoXOXoX:Xe.v.:XoXOX",
"OXoX;XF.d L D L D L D D L 3 , L D D D L D L L , e.3X|.oXoX|.oX|.>Xe.e.#X}..XoXoXoX.X>Xe.v.:XoXOX",
"OX X;XF.d L L L L L L L L 3 3 L L L L L L L L p M.sX;X;X;X;X;X;XrXv.L.aX>X#X>X>X#X>XaXz.v.:XoXOX",
"OXoX;XF.o c j j j 3 j j c = % M 3 3 3 3 3 3 c % | F.h.z.h.h.h.h.L.} X.L.j.j.j.z.v.e.L.} v.:XoXOX",
"OXoX;Xv.Q a.<.1.<.<.<.<.a._ X j , , 3 , 3 , j % ` M.e.e.h.e.0.8.v.} } v.e.e.e.f.e.0.v.^ v.:XoXOX",
"OXoX;XM.M.sX>X>X3X3X3X3XsXJ.i L L L L L L L L j v.sX;X>X>X>X3X;XsXv.L.aX>X>X:X>X>X%XaXv.v.:XoXOX",
"oXoX:Xv.5.#X.X.XoXoXoX{.;Xh.t L D D L D D L L , 0.>X|.oX.XoXoX|.;X8.h.;X|. XoX.X.X|.;X8.v.:XoXOX",
"OXoX:Xv.e.>X.XOXoXoXoXoX>Xz., L L L L L L L L 3 e.3XoXOXoXoXoX.X4X5.h.;X XOXOXOXOX.X>X8.v.:XoXOX",
"OXoX>Xv.0.>X.XOXoXOXoXoX>Xz.0 L L L L L L D L p e.3XoXOXoXoXoX|.;X8.h.;X X.X.XoX.X.X:Xe.v.:XoXOX",
"OXoX>XM.e.:X.XOXOXOXoXoX>Xz.0 L D L L L L D L 3 e.7XoXOXOXoX#X>XaXM.F.aX3X3X>X>X4XOX;X0.v.>XoXOX",
"OXoX:Xv.8.>X.XoXOXoXoXoX>Xz.0 L L L L L L D L p e.>XoX#XoX#X).&.h.! ( h.:.5.2.2.;.'.0X8.v.;XoXOX",
"OXoX:Xv.8.;X.X.XoXoXoX{.;Xh.0 L D D L D L D L 3 e.;X{.oX|.>X&.&.^.G.F.G.G.G.F././ / :Xh.v.;XoXOX",
"OXoX:Xv.z.aX#X>X:X>X:X%XaXF.t L L L L L L L L 3 L.sX:X:X>XsX0./.4X;X;X;X;X;X#X0X8.z.0.:.M.>XoXOX",
"OXoX:Xv.} L.e.h.z.e.v.e.F.X.% c , 3 3 3 3 , j % _ M.5.e.e.v.! !.+X.X.XoXOXOXoX:X*.^.OXR v.>XoXoX",
"OXoX:Xv.} F.e.h.e.v.e.e.L.X.X c , 3 , 3 3 3 j % % c , y y c # K.#XoXOXOXOXOXoX:X;.L.aX5.v.:XoXOX",
"OXoX:Xv.v.rX;X>X>X>X3X>XaXL.p L L L L L L L L 3 3 L L L L L h K.#XoXOXOXOXOXoX:X;.!.0X5.v.:XoXOX",
"OXoX:Xv.5.>X.X.XoX.X.X{.>Xh.9 L D L D L D D L , 3 L D D D L h K.#XoXOXOXOXOX.X:X;.!.0X5.v.>XoXOX",
"OXoX:Xv.e.>X.XOXOXoXoXoX>Xv.9 L D L L L L L L 3 3 L L L P P h K.#XoXOXOXOXOX.X>X&.!.0Xe.v.>XoXOX",
"OXoX>Xv.0.:XoXoXOXOXOXoX>Xz.t L L L L L L D L 3 3 L L L D L g K.OX X X.X|.oX|.;X;.!.0X0.n.:XoXOX",
"OXoX%Xv.0.>XoXOXOXOXOXoX>Xz.3 L D L L L L L L 3 3 L D L L L h ].wX7X0X7X7X7X7XgX0.G.0X0.n.%XoXOX",
"OXoX>Xv.e.:XoXoXOXOXoX.X>Xz., L D L L L L D L 3 , L L L L L : R $.O.#.#.#.#.#.%.T K.rX5.v.>XoXOX",
"OXoX>Xv.8.;X|.oX.X.X.X.X;Xz.t L D L D L L D L , 3 L D D L L D - j V c M M M M M M U eX5.v.%XoXOX",
"OXoX:Xv.v.sX>X>X>X4X>X%XaXL.p L L L L L L L L 3 3 L L L L L L D 3 D L L L L L L L D Y J.M.;XOXOX",
"OXoX:Xv.( v.5.e.e.e.0.0.n.} O l t , 9 9 9 9 n % X n , t 9 y 9 p >   , t t , 0 0 t a j I J.;XoXOX",
"OXoX:Xv.} L.e.z.z.v.z.f.L.X.X.F.z.z.z.v.z.z.F.X.X.F.z.z.v.z.z.z.U. .X.F.z.z.z.z.z.s.G.R M.;XoXOX",
"OXoX:Xv.v.rX>X>X>X>X%X%XrXL.v.aX;X>X;X:X>X;XaXM.B.aX>X>X>X>X;X#XaXM.G.aX>X>X;X;X;X;XsXS.v.;XoXOX",
"OXoX:Xv.5.:X.X.X.XoX.X.X;Xe.0.>X.XoXoXoXoXoX:Xe.e.;XoXoX XoXoX{.;X0.e.;X.XoXoXoXoX.X>X0.v.>XoXOX",
"OXoX:Xv.e.:X.XOXoXoXoX.X>Xv.e.:XoXoXoXoXoXoX:Xf.z.>XoXOXoXoXoXoX>Xe.z.>X.XOXOXOXoXoX>Xe.v.;XoXOX",
"OXoX:Xv.e.:XoXOXOXOXOXoX;Xh.e.3XoXoXOXOXoXoX:Xf.e.>XoXoXoXOXOXoX:Xh.h.>X.XOXOXOXoXoX:Xe.v.>XoXOX",
"OXoX:Xv.0.>XoXOXOXOXoX.X>Xz.h.:XoXOXOXoXoXoX>Xf.z.>XoXoXOXOXOXoX4Xe.h.;X.XOXOXOXoX.X>Xe.v.>XoXOX",
"OXoX:Xv.e.>XoXOXOXOXoXoX#Xv.e.>X.XOXOXOXOX.X>Xf.f.>XoXoXOXoXoXoX3Xe.j.>X.XOXOXOXoXoX>Xe.v.>XoXOX",
"OXoX:Xv.5.>X.XoX.XoX.X.X>Xe.e.>X.XoX.X.X.X.X>Xe.e.#X}.oXoX.XoX.X>Xe.e.>X.X.XoXoX.X.X>X5.v.>XoXOX",
"OXoX:Xv.v.sX>X:X>X>X:X>XaXL.F.sX>X>X:X>X>X>XaXn.L.sX>X>X>X:X>X:XsXF.L.rX>X>X>X:X>X>XsXv.n.>XoXOX",
"OXoX>Xn.! z.5.e.e.0.e.0.z.} ^ v.0.e.e.e.5.5.v.} } z.0.0.e.e.e.5.v.( } z.5.e.e.e.e.5.v.! B.%XoXOX",
"OXoXOXoXB.v.v.v.v.v.v.v.v.v.v.v.v.v.v.v.v.n.v.v.v.v.v.v.v.v.v.v.v.v.v.v.v.v.v.v.v.v.n.n..XOXoXOX",
"OXOXoXoX:X:X>X:X:X:X:X:X#X>X:X:X:X:X:X:X:X%X>X>X;X>X%X>X:X:X:X:X>X%X>X>X:X:X:X:X:X>X>X%XOXoXOXOX",
"OXoXoXoXoXoXoXoXoXoXoXoXoXoXoXoXoXoXoXoXoXoXoXoXoXoXoXoXoXoXoXoXoXoXoXoXoXoXoXoXoXoXoXoXoXOXoXOX",
"OXOXOXOXOXOXOXOXOXOXOXOXOXOXOXoXOXOXOXOXOXOXOXOXOXOXOXOXOXOXOXOXOXOXOXOXOXOXOXOXOXOXOXOXOXOXOXOX"
};
