/* XPM */
static char * cultivation_xpm[] = {
"32 32 799 2",
"  	c #0000FF",
". 	c #0001FB",
"+ 	c #0104F6",
"@ 	c #0208F0",
"# 	c #040EEB",
"$ 	c #030AEE",
"% 	c #0208EF",
"& 	c #040EE1",
"* 	c #0512D9",
"= 	c #0511DB",
"- 	c #040FE0",
"; 	c #030AE9",
"> 	c #0208EE",
", 	c #0207EF",
"' 	c #0003F8",
") 	c #0000FE",
"! 	c #0107F0",
"~ 	c #0717DE",
"{ 	c #123ACF",
"] 	c #184FBC",
"^ 	c #1036BA",
"/ 	c #0C29B4",
"( 	c #123F9B",
"_ 	c #144692",
": 	c #154792",
"< 	c #10379F",
"[ 	c #0D2EAD",
"} 	c #081DC4",
"| 	c #0717CF",
"1 	c #040FDF",
"2 	c #0207F0",
"3 	c #0002FA",
"4 	c #0002FB",
"5 	c #0206F2",
"6 	c #040DE4",
"7 	c #081ACA",
"8 	c #123CA9",
"9 	c #257A92",
"0 	c #33AA73",
"a 	c #257C77",
"b 	c #216F66",
"c 	c #216E5C",
"d 	c #1F6958",
"e 	c #206D55",
"f 	c #27824E",
"g 	c #1F695F",
"h 	c #1A5974",
"i 	c #13418E",
"j 	c #0C2BAE",
"k 	c #0718CD",
"l 	c #040EE2",
"m 	c #0106F2",
"n 	c #0001FD",
"o 	c #0510DD",
"p 	c #0A22BF",
"q 	c #174E92",
"r 	c #1A597E",
"s 	c #206C66",
"t 	c #33AA51",
"u 	c #3FCF48",
"v 	c #35AF44",
"w 	c #2C9537",
"x 	c #298931",
"y 	c #2B9128",
"z 	c #2B9129",
"A 	c #2B902A",
"B 	c #247B34",
"C 	c #288839",
"D 	c #278345",
"E 	c #206A5F",
"F 	c #164B88",
"G 	c #0C29B6",
"H 	c #0410DD",
"I 	c #0614D5",
"J 	c #0A24B4",
"K 	c #134289",
"L 	c #247957",
"M 	c #227350",
"N 	c #28853B",
"O 	c #39BD2B",
"P 	c #44E133",
"Q 	c #3CE23A",
"R 	c #33B826",
"S 	c #30A016",
"T 	c #33AA14",
"U 	c #33AC17",
"V 	c #30A119",
"W 	c #31A518",
"X 	c #2E9C1C",
"Y 	c #2B8F25",
"Z 	c #267F35",
"` 	c #247A4E",
" .	c #1C6074",
"..	c #0F34AD",
"+.	c #0104F5",
"@.	c #0000FD",
"#.	c #0615D3",
"$.	c #0D2CA6",
"%.	c #185176",
"&.	c #1F6953",
"*.	c #288736",
"=.	c #257D2C",
"-.	c #2C931E",
";.	c #39BE19",
">.	c #49E93A",
",.	c #3EFA59",
"'.	c #33E043",
").	c #31B724",
"!.	c #31A717",
"~.	c #33AC13",
"{.	c #31A513",
"].	c #2D9913",
"^.	c #30A115",
"/.	c #2C951D",
"(.	c #27832F",
"_.	c #206C50",
":.	c #206C69",
"<.	c #0F35AA",
"[.	c #0103F7",
"}.	c #0208ED",
"|.	c #0C2BAB",
"1.	c #1B5A6C",
"2.	c #247A43",
"3.	c #2A8D2A",
"4.	c #40A921",
"5.	c #48A521",
"6.	c #3AA818",
"7.	c #3FB71F",
"8.	c #51E447",
"9.	c #44F95E",
"0.	c #33F559",
"a.	c #33D83F",
"b.	c #38CA2B",
"c.	c #3DCA1A",
"d.	c #41C11B",
"e.	c #38B116",
"f.	c #34AE14",
"g.	c #32A814",
"h.	c #2E9A14",
"i.	c #298C1A",
"j.	c #298B2E",
"k.	c #22734E",
"l.	c #154786",
"m.	c #0A25BD",
"n.	c #030BE9",
"o.	c #0511DA",
"p.	c #0B26B1",
"q.	c #164D77",
"r.	c #268140",
"s.	c #2D9726",
"t.	c #339C1E",
"u.	c #5EAA36",
"v.	c #7CB941",
"w.	c #63B330",
"x.	c #5FB33A",
"y.	c #63DB58",
"z.	c #4EFA5D",
"A.	c #3BFB59",
"B.	c #3DF645",
"C.	c #42EF36",
"D.	c #52EA28",
"E.	c #7BEE40",
"F.	c #71E738",
"G.	c #4FD822",
"H.	c #3FCD19",
"I.	c #3CC417",
"J.	c #39BA18",
"K.	c #36B321",
"L.	c #309F35",
"M.	c #247860",
"N.	c #1F6785",
"O.	c #0C2ACD",
"P.	c #0104FB",
"Q.	c #030AEA",
"R.	c #081DC3",
"S.	c #134285",
"T.	c #1F6B4C",
"U.	c #2D9825",
"V.	c #2FA016",
"W.	c #3B9D21",
"X.	c #67A845",
"Y.	c #86BE4E",
"Z.	c #82D043",
"`.	c #7BD244",
" +	c #74E655",
".+	c #5DFC5F",
"++	c #42FB4F",
"@+	c #40F83F",
"#+	c #43E527",
"$+	c #61D739",
"%+	c #9AE45E",
"&+	c #95F151",
"*+	c #75EC3A",
"=+	c #62E52B",
"-+	c #68DF25",
";+	c #65DA2D",
">+	c #5BD839",
",+	c #4FCE47",
"'+	c #3BB755",
")+	c #2A8B80",
"!+	c #1D62A9",
"~+	c #0614EF",
"{+	c #0104F4",
"]+	c #0513D7",
"^+	c #0C2BA7",
"/+	c #1A5A5F",
"(+	c #27852E",
"_+	c #2C931A",
":+	c #31A215",
"<+	c #43A52E",
"[+	c #63A052",
"}+	c #78CF4D",
"|+	c #81F047",
"1+	c #6BE634",
"2+	c #6ADF3B",
"3+	c #68F74E",
"4+	c #4BFB47",
"5+	c #4CEF37",
"6+	c #4DC534",
"7+	c #5FB347",
"8+	c #7EBD55",
"9+	c #7FD148",
"0+	c #72CF3D",
"a+	c #64C831",
"b+	c #82B029",
"c+	c #7A9A27",
"d+	c #629035",
"e+	c #61A54F",
"f+	c #4ABA50",
"g+	c #2F9C61",
"h+	c #237687",
"i+	c #0E2FCA",
"j+	c #0719C9",
"k+	c #154985",
"l+	c #217146",
"m+	c #298B22",
"n+	c #319F18",
"o+	c #409E3A",
"p+	c #59AC5A",
"q+	c #68D651",
"r+	c #64E538",
"s+	c #50CA2B",
"t+	c #49C723",
"u+	c #84EA45",
"v+	c #8AFB46",
"w+	c #88EC49",
"x+	c #70AB60",
"y+	c #5B935B",
"z+	c #68A952",
"A+	c #76BB4B",
"B+	c #67B73C",
"C+	c #408721",
"D+	c #1F2C0D",
"E+	c #0B0C02",
"F+	c #030401",
"G+	c #090B06",
"H+	c #163315",
"I+	c #1D5F40",
"J+	c #227563",
"K+	c #1444A0",
"L+	c #030BE8",
"M+	c #0209EB",
"N+	c #0921BD",
"O+	c #1E6667",
"P+	c #216E3C",
"Q+	c #2B911A",
"R+	c #31A514",
"S+	c #35AF16",
"T+	c #3FC528",
"U+	c #4CD135",
"V+	c #55C63C",
"W+	c #4EC131",
"X+	c #4FB529",
"Y+	c #69C335",
"Z+	c #92E54E",
"`+	c #C1FA4A",
" @	c #C2F047",
".@	c #7FC54C",
"+@	c #54A749",
"@@	c #51A943",
"#@	c #5CC03A",
"$@	c #499F29",
"%@	c #0C1F06",
"&@	c #000000",
"*@	c #363636",
"=@	c #45594D",
"-@	c #1A5656",
";@	c #10389E",
">@	c #071AD4",
",@	c #030DE4",
"'@	c #0C2AAB",
")@	c #1D615F",
"!@	c #26812F",
"~@	c #32A917",
"{@	c #35B215",
"]@	c #40D319",
"^@	c #46E71B",
"/@	c #54D618",
"(@	c #6FA415",
"_@	c #65AA1E",
":@	c #75A827",
"<@	c #89B345",
"[@	c #82DF4C",
"}@	c #B8F84D",
"|@	c #D5F73F",
"1@	c #B2D742",
"2@	c #69BE3B",
"3@	c #57B235",
"4@	c #5FB930",
"5@	c #315D1B",
"6@	c #080808",
"7@	c #121212",
"8@	c #A7A7A7",
"9@	c #C3C6C4",
"0@	c #2A5A45",
"a@	c #195580",
"b@	c #0B26C3",
"c@	c #0206F1",
"d@	c #0511DC",
"e@	c #0E30A1",
"f@	c #206D56",
"g@	c #27842C",
"h@	c #33AB1B",
"i@	c #3ECE18",
"j@	c #45E31B",
"k@	c #42D819",
"l@	c #48BD13",
"m@	c #69A50D",
"n@	c #77A20D",
"o@	c #809F15",
"p@	c #80AF35",
"q@	c #7FCD4F",
"r@	c #95F445",
"s@	c #CEFB41",
"t@	c #CBE237",
"u@	c #84C843",
"v@	c #72C53C",
"w@	c #87B032",
"x@	c #5A633F",
"y@	c #8C8C8C",
"z@	c #353535",
"A@	c #1D1D1D",
"B@	c #383839",
"C@	c #979797",
"D@	c #F4F4F4",
"E@	c #EBECEB",
"F@	c #3F5F4D",
"G@	c #227462",
"H@	c #133FAC",
"I@	c #0513D8",
"J@	c #144593",
"K@	c #247953",
"L@	c #31A32C",
"M@	c #3FCF1B",
"N@	c #49DD1A",
"O@	c #3BAE17",
"P@	c #22670F",
"Q@	c #194609",
"R@	c #2B5009",
"S@	c #4F740A",
"T@	c #7E8508",
"U@	c #809E15",
"V@	c #7BAD31",
"W@	c #87D264",
"X@	c #B3F26A",
"Y@	c #CBE45E",
"Z@	c #A0C866",
"`@	c #85D356",
" #	c #95C841",
".#	c #6E7B4D",
"+#	c #F2F2F2",
"@#	c #E6E6E6",
"##	c #D6D6D6",
"$#	c #E7E7E7",
"%#	c #FCFCFC",
"&#	c #FFFFFF",
"*#	c #E5E6E5",
"=#	c #375548",
"-#	c #195775",
";#	c #174F9E",
">#	c #0104F9",
",#	c #164B9A",
"'#	c #309F53",
")#	c #3BC32F",
"!#	c #42D21A",
"~#	c #408313",
"{#	c #111C05",
"]#	c #010301",
"^#	c #010100",
"/#	c #0D0F06",
"(#	c #445313",
"_#	c #758018",
":#	c #7D8B34",
"<#	c #81AD7A",
"[#	c #96CA88",
"}#	c #A1DB79",
"|#	c #99DB6F",
"1#	c #8AF464",
"2#	c #9AF153",
"3#	c #719538",
"4#	c #CECFCD",
"5#	c #FEFEFE",
"6#	c #FDFDFD",
"7#	c #B3B5B4",
"8#	c #2A5F3F",
"9#	c #216E70",
"0#	c #22728C",
"a#	c #081CEA",
"b#	c #0410E4",
"c#	c #1C5D99",
"d#	c #2F9C60",
"e#	c #33A93D",
"f#	c #2F9815",
"g#	c #0D1E05",
"h#	c #383838",
"i#	c #91948F",
"j#	c #4F5B49",
"k#	c #708D77",
"l#	c #78CB6F",
"m#	c #8FD379",
"n#	c #8ED965",
"o#	c #91D162",
"p#	c #7EDC53",
"q#	c #7BDE4E",
"r#	c #7AB543",
"s#	c #6A7858",
"t#	c #D9DAD9",
"u#	c #CFD1CF",
"v#	c #527355",
"w#	c #39A346",
"x#	c #2F9C6C",
"y#	c #267CA1",
"z#	c #0E2FE5",
"A#	c #0209EE",
"B#	c #123EAC",
"C#	c #257C63",
"D#	c #2A8E37",
"E#	c #215D18",
"F#	c #262825",
"G#	c #060606",
"H#	c #010101",
"I#	c #1A1A1A",
"J#	c #A9A9A9",
"K#	c #F1F1F1",
"L#	c #606D71",
"M#	c #5B8399",
"N#	c #68BB74",
"O#	c #82D164",
"P#	c #91DB5F",
"Q#	c #89C14E",
"R#	c #72A73C",
"S#	c #679556",
"T#	c #778078",
"U#	c #61804D",
"V#	c #57604B",
"W#	c #888C83",
"X#	c #A1A6A0",
"Y#	c #8C998C",
"Z#	c #45763E",
"`#	c #35A325",
" $	c #33A73F",
".$	c #309E61",
"+$	c #1D62AE",
"@$	c #091FE8",
"#$	c #0C28B3",
"$$	c #1E6566",
"%$	c #257E3A",
"&$	c #325E2F",
"*$	c #BDBEBD",
"=$	c #898989",
"-$	c #575757",
";$	c #6C6C6C",
">$	c #BABABA",
",$	c #F9F9F9",
"'$	c #6A707E",
")$	c #425DA2",
"!$	c #4D8087",
"~$	c #64B954",
"{$	c #79D251",
"]$	c #7AAE61",
"^$	c #648E5B",
"/$	c #5C8E5A",
"($	c #677F67",
"_$	c #6D7262",
":$	c #678349",
"<$	c #5D713A",
"[$	c #3F7925",
"}$	c #2E8B18",
"|$	c #30A014",
"1$	c #2B921E",
"2$	c #288538",
"3$	c #2A8B56",
"4$	c #1649A0",
"5$	c #030BEA",
"6$	c #091EC1",
"7$	c #1D6171",
"8$	c #268142",
"9$	c #326D2F",
"0$	c #D4D5D3",
"a$	c #F8F8F8",
"b$	c #FBFBFB",
"c$	c #F3F3F3",
"d$	c #556363",
"e$	c #486886",
"f$	c #4A8769",
"g$	c #4C9555",
"h$	c #599B6B",
"i$	c #618F90",
"j$	c #526B92",
"k$	c #4E836A",
"l$	c #5F8C5A",
"m$	c #648550",
"n$	c #677B45",
"o$	c #6C623E",
"p$	c #49811F",
"q$	c #2E9511",
"r$	c #2A8E10",
"s$	c #28881C",
"t$	c #267F3B",
"u$	c #237562",
"v$	c #1342A7",
"w$	c #0105F3",
"x$	c #071BCD",
"y$	c #174F85",
"z$	c #227351",
"A$	c #247128",
"B$	c #818E7F",
"C$	c #F7F7F7",
"D$	c #B9BABA",
"E$	c #405153",
"F$	c #65826E",
"G$	c #637D60",
"H$	c #445F6E",
"I$	c #457B83",
"J$	c #4D9794",
"K$	c #438F85",
"L$	c #3F6F86",
"M$	c #549653",
"N$	c #5D8E44",
"O$	c #5D7343",
"P$	c #485E34",
"Q$	c #2C6419",
"R$	c #20670C",
"S$	c #27830F",
"T$	c #267F18",
"U$	c #1F6B45",
"V$	c #216E6F",
"W$	c #0C29C2",
"X$	c #0104F7",
"Y$	c #040EE0",
"Z$	c #0D2BAC",
"`$	c #1A586E",
" %	c #237740",
".%	c #2B6527",
"+%	c #8A908A",
"@%	c #E4E4E4",
"#%	c #F5F5F5",
"$%	c #BABABC",
"%%	c #47555B",
"&%	c #5A8760",
"*%	c #778D6F",
"=%	c #83767E",
"-%	c #667274",
";%	c #517886",
">%	c #549D94",
",%	c #4E91A0",
"'%	c #429671",
")%	c #45A444",
"!%	c #4C8746",
"~%	c #415E52",
"{%	c #2E553D",
"]%	c #3B5625",
"^%	c #613609",
"/%	c #465B0B",
"(%	c #267A18",
"_%	c #19573D",
":%	c #113C91",
"<%	c #0615D7",
"[%	c #0616D2",
"}%	c #113998",
"|%	c #206E5A",
"1%	c #2B8F30",
"2%	c #368C29",
"3%	c #496A50",
"4%	c #5E6C6A",
"5%	c #5B686F",
"6%	c #3B5467",
"7%	c #457D79",
"8%	c #5FA56E",
"9%	c #6F9F6F",
"0%	c #838685",
"a%	c #847B85",
"b%	c #639272",
"c%	c #60AA8C",
"d%	c #6AC48D",
"e%	c #67C86B",
"f%	c #4C9C55",
"g%	c #408261",
"h%	c #31704D",
"i%	c #2A553F",
"j%	c #872B0B",
"k%	c #BA1A02",
"l%	c #9F2103",
"m%	c #3B3919",
"n%	c #13433F",
"o%	c #071BA2",
"p%	c #030DE7",
"q%	c #164BA4",
"r%	c #288570",
"s%	c #36B440",
"t%	c #41C62C",
"u%	c #50A857",
"v%	c #509269",
"w%	c #478D61",
"x%	c #3E9051",
"y%	c #3FA243",
"z%	c #4D9455",
"A%	c #637F70",
"B%	c #7D7D88",
"C%	c #77A56B",
"D%	c #5AD43E",
"E%	c #6CE567",
"F%	c #7AED6E",
"G%	c #76DD64",
"H%	c #549E64",
"I%	c #3B7668",
"J%	c #2E6951",
"K%	c #2F5042",
"L%	c #942107",
"M%	c #C81702",
"N%	c #9F3305",
"O%	c #465822",
"P%	c #164A50",
"Q%	c #0618B9",
"R%	c #0206F4",
"S%	c #1036CB",
"T%	c #257B92",
"U%	c #35AF50",
"V%	c #31A335",
"W%	c #39A030",
"X%	c #408B43",
"Y%	c #3AA32B",
"Z%	c #2C8E15",
"`%	c #278013",
" &	c #2B6F23",
".&	c #3E743C",
"+&	c #4F734E",
"@&	c #4EB635",
"#&	c #4EF230",
"$&	c #5AD650",
"%&	c #54AF48",
"&&	c #519B48",
"*&	c #4A8E4B",
"=&	c #365B48",
"-&	c #316747",
";&	c #2E6942",
">&	c #4F3A21",
",&	c #842807",
"'&	c #633516",
")&	c #1D4D45",
"!&	c #0D2B7D",
"~&	c #0615DE",
"{&	c #0001FC",
"]&	c #0718E3",
"^&	c #1442B5",
"/&	c #247A6B",
"(&	c #267F47",
"_&	c #28842E",
":&	c #2E961C",
"<&	c #2F9E14",
"[&	c #298B0F",
"}&	c #2A6E1E",
"|&	c #3F4F58",
"1&	c #445C5A",
"2&	c #387930",
"3&	c #2C9216",
"4&	c #38C129",
"5&	c #3AA436",
"6&	c #489E34",
"7&	c #64A923",
"8&	c #63A921",
"9&	c #377727",
"0&	c #2A5D2F",
"a&	c #2A5343",
"b&	c #205C2C",
"c&	c #22612A",
"d&	c #164641",
"e&	c #0C2A6C",
"f&	c #0411BE",
"g&	c #0105F5",
"h&	c #0106F3",
"i&	c #0D2CAE",
"j&	c #1A5A74",
"k&	c #22724C",
"l&	c #2A8D2C",
"m&	c #288719",
"n&	c #1D630D",
"o&	c #39375A",
"p&	c #5C3C9B",
"q&	c #5C369E",
"r&	c #3F5D52",
"s&	c #23730E",
"t&	c #288715",
"u&	c #319221",
"v&	c #68AD14",
"w&	c #92D409",
"x&	c #8ED20A",
"y&	c #529D11",
"z&	c #1E5D22",
"A&	c #215F41",
"B&	c #22714A",
"C&	c #195559",
"D&	c #081F88",
"E&	c #0208CB",
"F&	c #0003F6",
"G&	c #0D2CB1",
"H&	c #1D6271",
"I&	c #278249",
"J&	c #257C2B",
"K&	c #1F6817",
"L&	c #3D405F",
"M&	c #5A4295",
"N&	c #5A4194",
"O&	c #3B5C4B",
"P&	c #1F680E",
"Q&	c #227313",
"R&	c #288117",
"S&	c #63B20F",
"T&	c #A4D707",
"U&	c #99D809",
"V&	c #5C9B13",
"W&	c #134236",
"X&	c #195856",
"Y&	c #174D8F",
"Z&	c #0E32B4",
"`&	c #030CE3",
" *	c #0002F9",
".*	c #0B28B7",
"+*	c #174E87",
"@*	c #1E655A",
"#*	c #206B30",
"$*	c #276634",
"%*	c #39415D",
"&*	c #3A465B",
"**	c #235A2A",
"=*	c #1F691F",
"-*	c #227430",
";*	c #237725",
">*	c #367A1E",
",*	c #73A60E",
"'*	c #68A015",
")*	c #317630",
"!*	c #174E4B",
"~*	c #1A597C",
"{*	c #0719D2",
"]*	c #0209EC",
"^*	c #0103F9",
"/*	c #030CE4",
"(*	c #0718D0",
"_*	c #1340AE",
":*	c #1D6174",
"<*	c #1E6546",
"[*	c #14443B",
"}*	c #185234",
"|*	c #1D6232",
"1*	c #1A5A4A",
"2*	c #1F6965",
"3*	c #195557",
"4*	c #1A5940",
"5*	c #29843C",
"6*	c #20684D",
"7*	c #18505F",
"8*	c #0F319A",
"9*	c #081BE6",
"0*	c #0104FC",
"a*	c #0717E3",
"b*	c #0A23D5",
"c*	c #0A23B2",
"d*	c #081E91",
"e*	c #0A2582",
"f*	c #134280",
"g*	c #123F9A",
"h*	c #1445A4",
"i*	c #1A57A1",
"j*	c #174F97",
"k*	c #134194",
"l*	c #154899",
"m*	c #0C27C9",
"n*	c #0719F4",
"o*	c #0308FF",
"p*	c #0001FF",
"q*	c #0105F4",
"r*	c #030BE5",
"s*	c #030DE3",
"t*	c #030BF0",
"u*	c #0615FA",
"v*	c #0A22F5",
"w*	c #081AF1",
"x*	c #040DF7",
"                  . + @ # $ % & * = - ; > , ' )                 ",
"                ) ! ~ { ] ^ / ( _ : < [ } | 1 2 3 )             ",
"            4 5 6 7 8 9 0 a b c d e f g h i j k l m n           ",
"        4 , o p q r s t u v w x y z A B C D E F G H +           ",
"      ) 2 I J K L M N O P Q R S T U V W X Y Z `  ...1 +.@.      ",
"    3 > #.$.%.&.*.=.-.;.>.,.'.).!.T ~.{.].^./.(._.:.<.- [.      ",
"  n }.#.|.1.2.3.4.5.6.7.8.9.0.a.b.c.d.e.f.g.h.i.j.k.l.m.n.      ",
") + o.p.q.r.s.t.u.v.w.x.y.z.A.B.C.D.E.F.G.H.I.J.K.L.M.N.O.P.    ",
"n Q.R.S.T.U.V.W.X.Y.Z.`. +.+++@+#+$+%+&+*+=+-+;+>+,+'+)+!+~+    ",
"{+]+^+/+(+_+:+<+[+}+|+1+2+3+4+5+6+7+8+9+0+a+b+c+d+e+f+g+h+i++.) ",
"}.j+k+l+m+^.n+o+p+q+r+s+t+u+v+w+x+y+z+A+B+C+D+E+F+G+H+I+J+K+L+3 ",
"M+N+O+P+Q+R+S+T+U+V+W+X+Y+Z+`+ @.@+@@@#@$@%@&@&@&@&@*@=@-@;@>@+ ",
",@'@)@!@~@{@]@^@/@(@_@:@<@[@}@|@1@2@3@4@5@6@&@&@&@7@8@9@0@a@b@c@",
"d@e@f@g@h@i@j@k@l@m@n@o@p@q@r@s@t@u@v@w@x@y@z@A@B@C@D@E@F@G@H@+ ",
"I@J@K@L@M@N@O@P@Q@R@S@T@U@V@W@X@Y@Z@`@ #.#+#@###$#%#&#*#=#-#;#>#",
"I@,#'#)#!#~#{#]#&@^#/#(#_#:#<#[#}#|#1#2#3#4#5#&#&#&#6#7#8#9#0#a#",
"b#c#d#e#f#g#&@&@&@&@h#i#j#k#l#m#n#o#p#q#r#s#t#%#5#6#u#v#w#x#y#z#",
"A#B#C#D#E#F#G#&@H#I#J#K#L#M#N#O#P#Q#R#S#T#U#V#W#X#Y#Z#`# $.$+$@$",
"Q.#$$$%$&$*$=$-$;$>$,$%#'$)$!$~${$]$^$/$($_$:$<$[$}$|$1$2$3$4$5$",
"M+6$7$8$9$0$6#a$b$&#&#c$d$e$f$g$h$i$j$k$l$m$n$o$p$q$r$s$t$u$v$w$",
"c@x$y$z$A$B$C$&#&#&#5#D$E$F$G$H$I$J$K$L$M$N$O$P$Q$R$S$T$U$V$W$X$",
"+ Y$Z$`$ %.%+%@%a$#%$%%%&%*%=%-%;%>%,%'%)%!%~%{%]%^%/%(%_%:%<%+ ",
"n + [%}%|%1%2%3%4%5%6%7%8%9%0%a%b%c%d%e%f%g%h%i%j%k%l%m%n%o%L+. ",
"    p%q%r%s%t%u%v%w%x%y%z%A%B%C%D%E%F%G%H%I%J%K%L%M%N%O%P%Q%+.  ",
"    R%S%T%U%V%W%X%Y%Z%`% &.&+&@&#&$&%&&&*&=&-&;&>&,&'&)&!&~&n   ",
"    {&]&^&/&(&_&:&<&[&}&|&1&2&3&4&5&6&7&8&9&0&a&b&c&d&e&f&g&    ",
"      h&d@i&j&k&l&m&n&o&p&q&r&s&t&u&v&w&x&y&z&A&B&C&D&E&F&)     ",
"      {&+ d@G&H&I&J&K&L&M&N&O&P&Q&R&S&T&U&V&W&X&Y&Z&`& *        ",
"          m o..*+*@*#*$*%*&***=*-*;*>*,*'*)*!*~*{*]*^*)         ",
"          {&w$/*(*_*:*<*[*}*|*1*2*3*4*5*6*7*8*9*0*              ",
"              3 c@a*b*c*d*e*f*g*h*i*j*k*l*m*n*o*p*              ",
"                  ' q*+ > r*s*L+t*u*v*w*x*P.)                   "};
