/* XPM */
static char * dcgui_xpm[] = {
"64 64 40 1",
" 	c None",
".	c #000000",
"+	c #E9DF03",
"@	c #EAD704",
"#	c #EACF04",
"$	c #EAC705",
"%	c #EAC005",
"&	c #EAB805",
"*	c #EBB006",
"=	c #EBA806",
"-	c #EBA106",
";	c #EB9907",
">	c #EB9107",
",	c #EC8908",
"'	c #EC8208",
")	c #EC7A08",
"!	c #EC7209",
"~	c #EC6A09",
"{	c #EC6309",
"]	c #ED5B0A",
"^	c #ED530A",
"/	c #ED4B0B",
"(	c #ED440B",
"_	c #ED3C0B",
":	c #AFAFAF",
"<	c #EE340C",
"[	c #EE2C0C",
"}	c #EE250C",
"|	c #EE1D0D",
"1	c #B7B7B7",
"2	c #EE150D",
"3	c #C0C0C0",
"4	c #EF0D0D",
"5	c #C9C9C9",
"6	c #D2D2D2",
"7	c #DBDBDB",
"8	c #E4E4E4",
"9	c #EDEDED",
"0	c #F6F6F6",
"a	c #FFFFFF",
"                                                                ",
"                                                                ",
"                                                                ",
"                                                                ",
"                                                                ",
"                                                                ",
"                                                                ",
"                                                                ",
"                                                                ",
"                                                                ",
"      ......  ..                             .........          ",
"   ..................                      ...............      ",
"   .++++++++++++++......                 ...++++++++++++...     ",
"   .++++++++++++++++++...               ..++++++++++++++++..    ",
"   .++++++++++++++++++++..            ..++++++++++++++++++++.   ",
"   .++++++++++++++++++++++.          ..+++++++++++++++++++++.   ",
"   .@@@@@@@@@@@@@@@@@@@@@@@.        ..@@@@@@@@@@@@@@@@@@@@@@.   ",
"   .########################.       ..##########...########.    ",
"   .$$$$$$$.......$$$$$$$$$$.      ..$$$$$$$$$.........$$$..    ",
"   .%%%%%%%..   ....%%%%%%%%%.     .%%%%%%%%%..      ....%.     ",
"   .&&&&&&&..     ...&&&&&&&&&.   ..&&&&&&&&..                  ",
"   .*******..      ...********..  ..*******..                   ",
"   .=======..        .=========.  .========.                    ",
"   .-------..        ..--------.  .--------.                    ",
"   .;;;;;;;..         .;;;;;;;;.  .;;;;;;;..                    ",
"   .>>>>>>>..         ..>>>>>>>.  .>>>>>>>..                    ",
"   .,,,,,,,..          .,,,,,,,.  .,,,,,,,.                     ",
"   .'''''''..          .'''''''.  .'''''''.                     ",
"   .))))))).          ..))))))). ..))))))).                     ",
"   .!!!!!!!..         ..!!!!!!!. ..!!!!!!!.                     ",
"   .~~~~~~~..         ..~~~~~~~. ..~~~~~~~..                    ",
"   .{{{{{{{..         .{{{{{{{{. ..{{{{{{{..                    ",
"   .]]]]]]]..         .]]]]]]]]. ..]]]]]]]].                    ",
"   .^^^^^^^..        ..^^^^^^^^.  .^^^^^^^^.                    ",
"   .///////.        ..////////..  ..///////..                   ",
"   .(((((((..     ...(((((((((.   ..((((((((.          .....    ",
"   ._______........._________.     .______:::.        ...__.    ",
"   .<<<<<<<........<<<<<<<<<.      ..<<<<<:::..........<<<<..   ",
"   .[[[[[[[[[[[[[[[[[[[[[[[[.       .[[[[[[...[......[[[[[[[..  ",
"   .}}}}}}}}}}}}}}}}:::::::::: :::   .}::}:::}}}}}}}}}}}}}}}..  ",
"   .||||||||||||||||1111111111 111   ..11|111||||||||||||||||   ",
"   .2222222222222222333.....33.333.   .33.333.22222222222222.   ",
"   .4444444444444444555.....55.555.    55.555.444444444444..    ",
"   .4444444444444444666     66.666.    66.666.4444444444...     ",
"   .................7777777777.7777777777.777..444444.....      ",
"    ...             8888888888.8888888888.888.........          ",
"                     .......99. .......... ...                  ",
"                     .......00. .......... ...                  ",
"                            aa.                                 ",
"                    aaaaaaaaaa.                                 ",
"                    aaaaaaaaaa.                                 ",
"                     ..........                                 ",
"                     ..........                                 ",
"                                                                ",
"                                                                ",
"                                                                ",
"                                                                ",
"                                                                ",
"                                                                ",
"                                                                ",
"                                                                ",
"                                                                ",
"                                                                ",
"                                                                "};
