/* XPM */
static char * gnome_mime_application_x_deb_xpm[] = {
"32 32 549 2",
"  	c None",
". 	c #AEA594",
"+ 	c #675834",
"@ 	c #C6C2B8",
"# 	c #B5AA8A",
"$ 	c #9D9377",
"% 	c #ACA697",
"& 	c #B1A68A",
"* 	c #A69874",
"= 	c #907F50",
"- 	c #3C321B",
"; 	c #CECAC0",
"> 	c #D4CDB7",
", 	c #CAC1A1",
"' 	c #B9AE89",
") 	c #A89D7E",
"! 	c #9F9A8A",
"~ 	c #B6B0A2",
"{ 	c #BCB299",
"] 	c #ACA07E",
"^ 	c #A3946D",
"/ 	c #9E8C5B",
"( 	c #998752",
"_ 	c #8E7D3E",
": 	c #38331B",
"< 	c #D4CDB9",
"[ 	c #CDC4A5",
"} 	c #C1B58F",
"| 	c #B0A788",
"1 	c #8F8770",
"2 	c #B3AD9F",
"3 	c #BEB5A0",
"4 	c #B4A887",
"5 	c #AB9D79",
"6 	c #A5976D",
"7 	c #A0905D",
"8 	c #9A8953",
"9 	c #95844E",
"0 	c #918046",
"a 	c #7F6F32",
"b 	c #373014",
"c 	c #B9B6AF",
"d 	c #D1CCC0",
"e 	c #D5CDB6",
"f 	c #CABF9F",
"g 	c #C0B592",
"h 	c #ABA181",
"i 	c #9D9785",
"j 	c #ADA898",
"k 	c #C5BBA3",
"l 	c #B2A582",
"m 	c #AFA17B",
"n 	c #AC9D75",
"o 	c #A6966C",
"p 	c #A49466",
"q 	c #9F8E59",
"r 	c #998650",
"s 	c #8F7E44",
"t 	c #8C7A3D",
"u 	c #8C793A",
"v 	c #84702C",
"w 	c #372C0E",
"x 	c #C0BDB6",
"y 	c #D4CFC2",
"z 	c #D2C9B2",
"A 	c #CDC2A4",
"B 	c #C7BB98",
"C 	c #C3B894",
"D 	c #A7A08B",
"E 	c #AFAA9C",
"F 	c #C9C2B0",
"G 	c #B9AD8D",
"H 	c #AC9E77",
"I 	c #AB9C74",
"J 	c #AA9B72",
"K 	c #A5966B",
"L 	c #A39364",
"M 	c #9E8C57",
"N 	c #97834C",
"O 	c #907E41",
"P 	c #8C793C",
"Q 	c #8A7734",
"R 	c #8B783E",
"S 	c #7F692E",
"T 	c #4C350E",
"U 	c #DEDAD0",
"V 	c #D5CFBD",
"W 	c #C8BEA2",
"X 	c #C6BB9B",
"Y 	c #C4B895",
"Z 	c #C1B693",
"` 	c #A19775",
" .	c #B5AFA0",
"..	c #C9C1AD",
"+.	c #AC9D76",
"@.	c #AB9D75",
"#.	c #A99B72",
"$.	c #A89971",
"%.	c #A59569",
"&.	c #A29160",
"*.	c #9D8A53",
"=.	c #96834C",
"-.	c #917E45",
";.	c #8E7C40",
">.	c #8B7738",
",.	c #85702C",
"'.	c #755916",
").	c #533613",
"!.	c #E7E3DA",
"~.	c #A8A498",
"{.	c #C7C1AF",
"].	c #D8D2C2",
"^.	c #CEC6AE",
"/.	c #C2B89C",
"(.	c #A09779",
"_.	c #CCC4B1",
":.	c #B3A684",
"<.	c #AB9C75",
"[.	c #AA9B73",
"}.	c #A6996F",
"|.	c #A6986F",
"1.	c #A39366",
"2.	c #A1905E",
"3.	c #9B8852",
"4.	c #98844D",
"5.	c #948249",
"6.	c #8F7C40",
"7.	c #7E6820",
"8.	c #6B4D13",
"9.	c #5B1E11",
"0.	c #2D1414",
"a.	c #D3CDB3",
"b.	c #DAD3BB",
"c.	c #D6D1C0",
"d.	c #A5A298",
"e.	c #9D988D",
"f.	c #B2AA98",
"g.	c #ABA28D",
"h.	c #998B6D",
"i.	c #AD9D8F",
"j.	c #CDC5B2",
"k.	c #B4A785",
"l.	c #AA9C76",
"m.	c #A89972",
"n.	c #A6986E",
"o.	c #A49569",
"p.	c #A39262",
"q.	c #A1905C",
"r.	c #9D8B56",
"s.	c #97844C",
"t.	c #87732F",
"u.	c #776016",
"v.	c #633812",
"w.	c #5C1E11",
"x.	c #733B16",
"y.	c #372716",
"z.	c #CDC5A6",
"A.	c #C1B687",
"B.	c #C7BD94",
"C.	c #D1CAAB",
"D.	c #CDCABF",
"E.	c #9D988A",
"F.	c #77715D",
"G.	c #7D6128",
"H.	c #6B3E25",
"I.	c #86837D",
"J.	c #AEA17D",
"K.	c #A79870",
"L.	c #A49567",
"M.	c #A29060",
"N.	c #A08F5B",
"O.	c #968346",
"P.	c #857126",
"Q.	c #715815",
"R.	c #663213",
"S.	c #6A2A13",
"T.	c #6D2F14",
"U.	c #733C16",
"V.	c #372816",
"W.	c #CDC4A3",
"X.	c #C1B686",
"Y.	c #C0B484",
"Z.	c #BEB280",
"`.	c #BDB17E",
" +	c #D2CAAB",
".+	c #DFDAC6",
"++	c #A8A49C",
"@+	c #8D8160",
"#+	c #654A33",
"$+	c #86736A",
"%+	c #B3A787",
"&+	c #A6966D",
"*+	c #A39467",
"=+	c #9D8C57",
"-+	c #8F7B3F",
";+	c #7A6117",
">+	c #673F13",
",+	c #691E13",
"'+	c #6F1E14",
")+	c #733115",
"!+	c #763916",
"~+	c #7A4817",
"{+	c #3A2A17",
"]+	c #CFC7A5",
"^+	c #C2B789",
"/+	c #C0B485",
"(+	c #BDAD80",
"_+	c #BBA67B",
":+	c #BBA677",
"<+	c #C0B084",
"[+	c #CEC4A2",
"}+	c #D4D0C0",
"|+	c #C2BBAD",
"1+	c #8A7768",
"2+	c #AB9C7C",
"3+	c #C3BAA2",
"4+	c #AA9E79",
"5+	c #998957",
"6+	c #8A7631",
"7+	c #765A1C",
"8+	c #662513",
"9+	c #6D1C14",
"0+	c #742316",
"a+	c #773316",
"b+	c #7D4717",
"c+	c #804A18",
"d+	c #835618",
"e+	c #3C2D17",
"f+	c #D1C9A7",
"g+	c #C4B38A",
"h+	c #B46D5A",
"i+	c #A0070A",
"j+	c #9F191C",
"k+	c #9D131B",
"l+	c #A73028",
"m+	c #B8896E",
"n+	c #B9A976",
"o+	c #D3CCB3",
"p+	c #BBB8AD",
"q+	c #DBD8D1",
"r+	c #A29778",
"s+	c #836F35",
"t+	c #6A3814",
"u+	c #671713",
"v+	c #741615",
"w+	c #761E16",
"x+	c #7C3717",
"y+	c #804618",
"z+	c #875219",
"A+	c #8B581A",
"B+	c #8B601A",
"C+	c #3E3017",
"D+	c #D2CAA9",
"E+	c #C18C77",
"F+	c #A80F18",
"G+	c #B7735E",
"H+	c #BA9074",
"I+	c #B78871",
"J+	c #AC6553",
"K+	c #AA173F",
"L+	c #AF7A57",
"M+	c #B9AB76",
"N+	c #B8A974",
"O+	c #C7BD9C",
"P+	c #DCD7CB",
"Q+	c #C2BAA7",
"R+	c #774225",
"S+	c #6E1414",
"T+	c #741515",
"U+	c #771A16",
"V+	c #7C2F17",
"W+	c #824318",
"X+	c #885019",
"Y+	c #8E5B1A",
"Z+	c #8F5F1A",
"`+	c #90641A",
" @	c #403318",
".@	c #D3CCAD",
"+@	c #C27E77",
"@@	c #B02950",
"#@	c #C4B88D",
"$@	c #C2B78A",
"%@	c #BFB082",
"&@	c #B9A77C",
"*@	c #B9A078",
"=@	c #A24136",
"-@	c #B07556",
";@	c #B8A675",
">@	c #B8AA77",
",@	c #D4CEB4",
"'@	c #C1A093",
")@	c #7B1A17",
"!@	c #7A1717",
"~@	c #7A1916",
"{@	c #7C2417",
"]@	c #813A18",
"^@	c #894E1A",
"/@	c #905C1B",
"(@	c #96631C",
"_@	c #95681C",
":@	c #936C1D",
"<@	c #41341A",
"[@	c #D5CDAF",
"}@	c #C47F7C",
"|@	c #B44C5B",
"1@	c #C4BA8E",
"2@	c #B38E73",
"3@	c #AC876D",
"4@	c #BAA57B",
"5@	c #B79B75",
"6@	c #A70F2B",
"7@	c #AE7856",
"8@	c #B8AA75",
"9@	c #CDC5A4",
"0@	c #C7A89D",
"a@	c #7C2117",
"b@	c #7B1717",
"c@	c #7C1F17",
"d@	c #803518",
"e@	c #864619",
"f@	c #8F581A",
"g@	c #95631C",
"h@	c #9B6C1D",
"i@	c #9A6D1C",
"j@	c #977023",
"k@	c #42361F",
"l@	c #D6CEB1",
"m@	c #C8B292",
"n@	c #B1455A",
"o@	c #C5B98F",
"p@	c #C4B98E",
"q@	c #B38A73",
"r@	c #BDAC84",
"s@	c #BEB083",
"t@	c #BCAE7F",
"u@	c #AF6957",
"v@	c #A22E31",
"w@	c #B8A776",
"x@	c #CEC5A3",
"y@	c #C9ABA0",
"z@	c #812A18",
"A@	c #7E2217",
"B@	c #812C18",
"C@	c #87431A",
"D@	c #8E4F1A",
"E@	c #945F1C",
"F@	c #9B691D",
"G@	c #9F721E",
"H@	c #9E7320",
"I@	c #9D7830",
"J@	c #433824",
"K@	c #D7CFB3",
"L@	c #CABB96",
"M@	c #B13937",
"N@	c #C0A084",
"O@	c #C5BC91",
"P@	c #B07B6D",
"Q@	c #BBA180",
"R@	c #C2B689",
"S@	c #B99174",
"T@	c #A51A37",
"U@	c #B9A677",
"V@	c #CDC3A1",
"W@	c #CBAEA1",
"X@	c #843219",
"Y@	c #832F19",
"Z@	c #853719",
"`@	c #8D4A1A",
" #	c #91551B",
".#	c #98641C",
"+#	c #9E6D1E",
"@#	c #A1741E",
"##	c #9F7625",
"$#	c #9E7A34",
"%#	c #443825",
"&#	c #D8D0B4",
"*#	c #CDC29E",
"=#	c #C39584",
"-#	c #BA5D6B",
";#	c #C5BB93",
">#	c #C2A587",
",#	c #BA7676",
"'#	c #BDA983",
")#	c #BBA880",
"!#	c #BA9D79",
"~#	c #A42621",
"{#	c #BBA87A",
"]#	c #CBC19E",
"^#	c #CDB1A1",
"/#	c #893B1A",
"(#	c #893B19",
"_#	c #8B431A",
":#	c #91501B",
"<#	c #955B1C",
"[#	c #9A671D",
"}#	c #9F6F1E",
"|#	c #A27620",
"1#	c #A17A2B",
"2#	c #A07E40",
"3#	c #443927",
"4#	c #D8D2B7",
"5#	c #CEC4A0",
"6#	c #CBBE9C",
"7#	c #B6666C",
"8#	c #C4AE8F",
"9#	c #C6BD94",
"0#	c #BF9082",
"a#	c #BB8D78",
"b#	c #B68D75",
"c#	c #A45A52",
"d#	c #9F3031",
"e#	c #BDAC7E",
"f#	c #CBC19D",
"g#	c #CFB4A2",
"h#	c #B58A77",
"i#	c #C8ADA5",
"j#	c #C9B0A5",
"k#	c #CAB4A6",
"l#	c #CCB8A6",
"m#	c #CDBCA6",
"n#	c #CFBEA7",
"o#	c #CFC0A9",
"p#	c #CFC2AC",
"q#	c #CFC3B2",
"r#	c #B0ACAA",
"s#	c #C7C6CB",
"t#	c #D9D8DE",
"u#	c #E2E1E7",
"v#	c #E5E4EA",
"w#	c #C2C0C4",
"x#	c #DBD3BA",
"y#	c #CFC7A4",
"z#	c #CDC4A0",
"A#	c #C3948A",
"B#	c #B95F72",
"C#	c #C9BF98",
"D#	c #C6BD93",
"E#	c #C2B08A",
"F#	c #B99A7D",
"G#	c #B59278",
"H#	c #BBA580",
"I#	c #CDC3A0",
"J#	c #CFB5A2",
"K#	c #736D8F",
"L#	c #9692AB",
"M#	c #9590AA",
"N#	c #8D88A4",
"O#	c #6D6689",
"P#	c #625B81",
"Q#	c #938FA9",
"R#	c #7E7998",
"S#	c #46415C",
"T#	c #08070B",
"U#	c #B2A885",
"V#	c #CFC6A3",
"W#	c #CCC09E",
"X#	c #BF8882",
"Y#	c #BC9081",
"Z#	c #C9BD97",
"`#	c #C3B98E",
" $	c #C2B78B",
".$	c #C2B788",
"+$	c #D0B6A2",
"@$	c #CAB2A6",
"#$	c #FFFFFF",
"$$	c #9994AD",
"%$	c #C6C3D1",
"&$	c #BEBBCB",
"*$	c #6E678A",
"=$	c #B9B6C7",
"-$	c #C3C1CF",
";$	c #E3E2E9",
">$	c #544623",
",$	c #9E926A",
"'$	c #C8BE98",
")$	c #CEC3A0",
"!$	c #BF9A86",
"~$	c #C19F88",
"{$	c #C8BD94",
"]$	c #C6BB90",
"^$	c #C5BA8F",
"/$	c #C4B88B",
"($	c #D1B6A2",
"_$	c #CBB2A6",
":$	c #F9F8FA",
"<$	c #908BA6",
"[$	c #C7C5D2",
"}$	c #D7D6DF",
"|$	c #736947",
"1$	c #B4A77A",
"2$	c #CDBE9D",
"3$	c #C7AD90",
"4$	c #CBC19B",
"5$	c #C7BD93",
"6$	c #C5BA8E",
"7$	c #CFC6A5",
"8$	c #CBB3A6",
"9$	c #6D678A",
"0$	c #F8F8F9",
"a$	c #8F8AA5",
"b$	c #C5C2D0",
"c$	c #E2E1E8",
"d$	c #857648",
"e$	c #B0A277",
"f$	c #CAC098",
"g$	c #CCC29B",
"h$	c #C8BE94",
"i$	c #CFC6A4",
"j$	c #D1B7A1",
"k$	c #CCB3A6",
"l$	c #9995AD",
"m$	c #BCB9C9",
"n$	c #D8D6E0",
"o$	c #40361D",
"p$	c #958451",
"q$	c #C1B589",
"r$	c #CBC19A",
"s$	c #C7BD92",
"t$	c #CEC5A1",
"u$	c #9591AA",
"v$	c #6C6589",
"w$	c #928DA7",
"x$	c #777192",
"y$	c #50451F",
"z$	c #948758",
"A$	c #BDB082",
"B$	c #C8BE96",
"C$	c #D2CAAA",
"D$	c #D0B7A1",
"E$	c #8A6244",
"F$	c #251612",
"G$	c #110B0F",
"H$	c #0A0A0E",
"I$	c #0B0A0F",
"J$	c #0B0B10",
"K$	c #0C0B10",
"L$	c #060608",
"M$	c #211D10",
"N$	c #634F2A",
"O$	c #AA9C64",
"P$	c #CCC3A2",
"Q$	c #964F1C",
"R$	c #38140B",
"S$	c #0D0505",
"T$	c #201807",
"U$	c #7A6F4D",
"V$	c #AE9B88",
"W$	c #342113",
"X$	c #42403D",
"                                      . +                       ",
"                      @ # $       % & * = -                     ",
"                  ; > , ' ) ! ~ { ] ^ / ( _ :                   ",
"              ; < [ } | 1 2 3 4 5 6 7 8 9 0 a b                 ",
"        c d e f g h i j k l m n o p q r s t u v w               ",
"    x y z A B C D E F G H H I J K L M N O P Q R S T             ",
"  U V W X Y Z `  ...I +.@.I #.$.%.&.*.=.-.;.>.,.'.).            ",
"  !.~.{.].^./.(.j _.:.<.I [.}.|.1.2.3.4.5.6.7.8.9.0.            ",
"  a.b.c.d.e.f.g.h.i.j.k.l.m.n.o.p.q.r.s.t.u.v.w.x.y.            ",
"  z.A.B.C.D.E.F.G.H.I.j.J.K.6 L.M.N.O.P.Q.R.S.T.U.V.            ",
"  W.X.Y.Z.`. +.+++@+#+$+_.%+&+*+=+-+;+>+,+'+)+!+~+{+            ",
"  ]+^+/+(+_+:+<+[+}+|+1+2+3+4+5+6+7+8+9+0+a+b+c+d+e+            ",
"  f+g+h+i+j+k+l+m+n+B.o+p+q+r+s+t+u+v+w+x+y+z+A+B+C+            ",
"  D+E+F+G+H+I+J+K+L+M+N+O+P+Q+R+S+T+U+V+W+X+Y+Z+`+ @            ",
"  .@+@@@#@$@%@&@*@=@-@;@>@,@'@)@!@~@{@]@^@/@(@_@:@<@            ",
"  [@}@|@1@#@2@3@4@5@6@7@8@9@0@a@b@c@d@e@f@g@h@i@j@k@            ",
"  l@m@n@o@p@q@r@s@t@u@v@w@x@y@z@A@B@C@D@E@F@G@H@I@J@            ",
"  K@L@M@N@O@P@Q@R@s@S@T@U@V@W@X@Y@Z@`@ #.#+#@###$#%#            ",
"  &#*#=#-#;#>#,#'#)#!#~#{#]#^#/#(#_#:#<#[#}#|#1#2#3#            ",
"  4#5#6#7#8#9#0#a#b#c#d#e#f#g#h#i#j#k#l#m#n#o#p#q#r#s#t#u#v#w#  ",
"  x#y#z#A#B#C#D#E#F#G#H#/+I#J#j#K#L#M#N#O#P#L#L#L#K#L#L#Q#R#S#T#",
"  U#V#y#W#X#Y#Z#D#O@`# $.$z#+$@$L##$$$%$&$*$#$=$L#K##$=$-$;$S#T#",
"    >$,$'$)$!$~$'${$]$^$/$x@($_$L##$P#*$:$<$#$=$L#K##$=$[$}$S#T#",
"        |$1$2$3$4$C#5$]$6$7$+$8$L##$P#9$0$a$#$=$L#K##$=$b$c$S#T#",
"            d$e$f$g$C#h$]$i$j$k$L##$l$b$m$9$#$=$L#K##$=$-$n$S#T#",
"              o$p$q$r$C#s$t$j$k$K#L#u$N#v$P#L#L#L#K#L#L#w$x$S#T#",
"                  y$z$A$B$C$D$E$F$G$H$I$I$J$K$K$K$K$K$K$K$K$K$L$",
"                    M$N$O$P$D$Q$R$S$                            ",
"                        T$U$V$W$                                ",
"                            X$                                  ",
"                                                                ",
"                                                                "};
