/* XPM */
static char *dominosa[] = {
/* columns rows colors chars-per-pixel */
"48 48 72 1",
"  c black",
". c #090909",
"X c #10100F",
"o c gray8",
"O c #1B1B1B",
"+ c #21201F",
"@ c #222221",
"# c #2A2929",
"$ c #343333",
"% c #393937",
"& c #3C3C3B",
"* c #40403E",
"= c #444342",
"- c #484746",
"; c #484846",
": c #4C4B4A",
"> c #504F4D",
", c #51504E",
"< c #545452",
"1 c #585755",
"2 c #585856",
"3 c #5B5B5A",
"4 c #62615E",
"5 c #646361",
"6 c #686764",
"7 c #6A6966",
"8 c #6C6C6A",
"9 c #73726F",
"0 c #747371",
"q c #7A7976",
"w c #7A7978",
"e c #81807D",
"r c #858482",
"t c #888683",
"y c #8A8885",
"u c #8D8C89",
"i c #908E8B",
"p c #92918D",
"a c #939291",
"s c #989793",
"d c #9B9A96",
"f c #9A9A99",
"g c #A09E9B",
"h c #A3A19E",
"j c #A3A3A1",
"k c #A8A6A3",
"l c #ACAAA6",
"z c #ACABAA",
"x c #B0AEAA",
"c c #B3B1AD",
"v c #B4B3B1",
"b c #B9B7B3",
"n c #BCBAB6",
"m c #BEBCB9",
"M c #C0BEBA",
"N c #C2C1BC",
"B c #C6C5C1",
"V c #C8C6C2",
"C c #CAC8C4",
"Z c #CDCCC8",
"A c #D0CEC9",
"S c #D4D2CD",
"D c #D6D5D0",
"F c #D8D6D1",
"G c #DBD9D4",
"H c #DFDDD8",
"J c #E0DED9",
"K c #E3E1DC",
"L c #E6E4E1",
"P c #E8E6E0",
"I c #EBE9E4",
"U c #F6F4EE",
/* pixels */
"GGGGGGGGGGGGGGGGGGGGGGGGGGGGGGGGHGGGHGHGGGGGGGGG",
"GGGGGGGGGGGGFGGGGGGGGGGGGGGGGGDGFGFGGFGFFGGGGGGG",
"GGGGGFGGGGGGGGGGGGGGGGDGGGGGGGGGGGGGGGGGGGFFGGGG",
"GGGGJKGGHGGGGHGGGHGGGGKJGKGHHGGHGHGHHGHGHGJLGGGG",
"GGFKN$O@@@@@+@@@@@@@@+%NJ4O@@@@@@@@@@@@@+@+sKDGG",
"GGFI7                  qN                  #HGGG",
"GGFI5   :$         ,@  0n   o3@       @<.  @GGGG",
"GGFI5  .fu        -L2  0n   fj*       &B@  @GGGG",
"GGFI4   $r       of83  9n  Om0w        u#  @HGGG",
"GGFI4   7zX      $vmm  9n  oa:j       oz3  @GGGG",
"GGFI4  .wu&        $%  9n   $u#       -u0. @GGGG",
"HGFI6                  9m                  @HGGG",
"GGGKxo............... ObJ* .......... .... wLDGG",
"GGGGKDNVCCVVVVVVVVVVCNFKGHVVVVVCCCNADDSSSSGIFHGG",
"GGGGGGKJHHJJHHJHHHHHJKGFGGJHHHJJJGIg=;-;;-;zJGGG",
"GGGGGGFFHLFGFGFGGGGJGGGGGGGGJKGGFGAo       $HGGG",
"GGGGGGFKMbKGGGGGGGHnCJGGGGGGbkAJGJV.   %@  @HGFG",
"GGGJGFKb>,hKGGGGFKvXiIDGGFHA5><JFJV.  7z2  @HFGG",
"GGGGGFUqhN7IFGGGGA5wiIDGGGFLM:1KDJN.  ni0  @GGGG",
"GGGGGFKpqyeKFGGFLk$=*HGGGGHAck-GGJC.  f$zO @HGGG",
"GGGGGGGF84FJGGGGGDCiiKDGGGJD8<kKDJV.  $g<  @HGGG",
"GGGGGGGGKKJGGGGGGGJPKGGGGGGGPPKFGJV.       @GGFG",
"GGJGGGGGGFFGGGGGGGGDGGGGGFGGFFFGGJV.       @HGFG",
"GGGGGGGGGGGGGGGGGGGGGGGGGGGGGGGGDHV.       @GGGH",
"GGGGGGFGFGGFGGGFGGGGGGGGGGGGGFGGFHV.       @GGGG",
"GGGJGGGGGJFJGGGJGGHKGGGGGGGGGKGGGHV.       +GGGG",
"GGGGGGFJSAKFGFGGGGCNHGGGGGGGANGGGHV.  X@o  @GGGG",
"GGGGGGKN,:bKFJGFJM3,qKFGGGJA5<5KFHV.  zf3  +HGGG",
"GGGJGFIedc8IFGGGGJd$9KGGGGGKz*,KGHV.  va:  +HGGG",
"GGGGGFUeyh9IFGGGGSCp2KGGGGGSNz;HGHV.  %@vO @GGGG",
"GGGGGFGA3,NJFGGFJN2,hKSGGGGS4,iKFHC.  0h8  @GGGG",
"GGGGGGGJJHJGGGGGFHGGKGGGGGGGHSKGGHV.   .   @HGGG",
"GGGGDDDDDDDDGGGJHJJJHJJHGKJHHJHJJJG#       ;KFGG",
"GGFJIPIIIIPIKGAMMMMMMMnASMMNMMMNMNKNyyyyytiAJGGG",
"GGJCuiipuiiycKAnMMnMMMnZSnMMMMMMMNHJKIIIKKIHGGGG",
"GFKx         cKJHKHHJJKGHKHHJJHJJHGGFFFSGGGGGGGG",
"GFKc .       iIDGDGKGGFGGGFGHGKFGGGGGGJJGGGGGGGG",
"GFKx    #Z#  pIDFKS$dPFGGGGS4:xKFGGGFKg*VJGGGGGG",
"GFKx    rj&  iIDGKq>sIFGGGGSGi6IFGGGGGS,vKFGHGGG",
"GGKx   4zf0  iIAKl%62KFGGGGKv,NKGGGGGFU7MKGGGGGG",
"GFKx   #3vw  uISKNu<2KFGGGGS@%hKGGGGFKg@2SGGGGGG",
"GGKx     ..  uIFFJIKJGGGGGGFCMCHGGGGGGCNNGGGGGGG",
"GFKz         kKGGGFGGGGGGGGGKKKFGGGGGGHKKGGGGGGG",
"GGKN45554553uJGGGGGGFGGGGGGFGDGGGGGGGGGGGGGGGGGG",
"GGGJIIIIIIIIPGGGGGGGGGGGGGGGGGGGGGGGGGGGGGGGGGGG",
"GGGGFFFFFFFFFGGGHGGGHGGGGGGGGGGGGGGGGGGGGGHGGGGG",
"GGGGGGGGGGGGGGGGGGGGGGGGGHGGGGGGGGGGGGGGGGGGGGGH",
"GGGGGHGGGGGGGGGGGGGGGGGGGGGGGGGGGGGGHGGGGGGGGGGG"
};
