/* XPM */
static char * droidbattles_xpm[] = {
"26 22 91 1",
" 	c None",
".	c #1C1E1C",
"+	c #20211F",
"@	c #232522",
"#	c #282927",
"$	c #2B2D2A",
"%	c #313330",
"&	c #1B4912",
"*	c #174C0D",
"=	c #373836",
"-	c #3A3C39",
";	c #185616",
">	c #3E3F3D",
",	c #2D4F26",
"'	c #414341",
")	c #1D6119",
"!	c #216313",
"~	c #484947",
"{	c #4B4D4A",
"]	c #456148",
"^	c #575956",
"/	c #5D5F5C",
"(	c #636562",
"_	c #676866",
":	c #686A67",
"<	c #3E893D",
"[	c #429036",
"}	c #6E706D",
"|	c #747572",
"1	c #767875",
"2	c #7C7D7B",
"3	c #54A246",
"4	c #3FB32B",
"5	c #818380",
"6	c #828481",
"7	c #3EBA28",
"8	c #858784",
"9	c #8B8D8A",
"0	c #41C629",
"a	c #8F918E",
"b	c #929491",
"c	c #979996",
"d	c #9B9D9A",
"e	c #81B37A",
"f	c #9EA09D",
"g	c #A0A29F",
"h	c #8AB287",
"i	c #A4A6A3",
"j	c #A7A9A6",
"k	c #AAACA9",
"l	c #88CB7B",
"m	c #AFB1AE",
"n	c #9EBDA1",
"o	c #8DCD8A",
"p	c #B2B4B1",
"q	c #A6BDA2",
"r	c #ADB7B2",
"s	c #94CC8A",
"t	c #B1B7AD",
"u	c #9FC39F",
"v	c #92CD92",
"w	c #B4B6B3",
"x	c #7FDD73",
"y	c #8DD388",
"z	c #57FC41",
"A	c #6CED5A",
"B	c #63F54F",
"C	c #7AE56B",
"D	c #B7B9B6",
"E	c #B9BBB8",
"F	c #89E07E",
"G	c #82E674",
"H	c #BBBDBA",
"I	c #9DD593",
"J	c #79F267",
"K	c #BDC0BC",
"L	c #AFCBA8",
"M	c #76F662",
"N	c #C0C2BF",
"O	c #8DEA80",
"P	c #A6DF9C",
"Q	c #C7C9C6",
"R	c #C8CFC4",
"S	c #CCCECA",
"T	c #C8D1CC",
"U	c #A9EAA5",
"V	c #C9DCC8",
"W	c #D4D7D3",
"X	c #C8E0C4",
"Y	c #D8DAD7",
"Z	c #DCDEDB",
"     @^                   ",
"   ;7qp=          @. )!   ",
"   3smij9     (--2mbh4&   ",
"  #mb62NE|g:2rvEKSpp      ",
"  |pa6cKNNErFSzVYQp       ",
"  aEESQg8QSQJUOFk         ",
" =wSwd228EWYPJqsk         ",
" bg9828fDNQSHum_          ",
"=pf2akKEDwDw2_a( @  {a~<z*",
" wmmNDwppma   bfar2kDpj]  ",
"  ~2mppqfbb  /kqvCQYSpk   ",
"     |=7ebcapELBRzRKb~    ",
"       )ykppNSYMPGI2      ",
"      (kmmpENQYPyr9>      ",
"      bpDHKjfYSw1         ",
"     'DKDf882EQD>         ",
"     gkb226dHQk.          ",
"    =jf28fSSjND+          ",
"    =mkfKHg28ii@          ",
"     #2bHEi6dDk           ",
"        >cEmILf+          ",
"          =[4,            "};
