/* XPM */
static char * sun_xpm[] = {
"48 48 3 1",
" 	c None",
".	c #04ACCE",
"+	c #E6D913",
"                                                ",
"                                                ",
"                  ............                  ",
"               ..................               ",
"             ..+++......+......++..             ",
"            ....+++.....+.......+...            ",
"           ......+++...++......+++....          ",
"          .......+++...++......+++.....         ",
"         ........+++...++.....++++......        ",
"        .+.......+++...+++..+++++.....+..       ",
"       ...++.....++++..+++.+++++....++....      ",
"      .....++....++++.++++.++++....+++....      ",
"     ......++++..++++++++++++++...+++......     ",
"     .......++++.++++++++++++++.++++........    ",
"    ........++++++++++++++++++.+++++........    ",
"    .+++++...+++++++++++++++++++++++.......+.   ",
"   .+++++++...+++++++++++++++++++++.......++.   ",
"   ....+++++..++++++++++++++++++++.+++++++++.   ",
"   .....+++++++++++++++++++++++++++++++++++...  ",
"   ......+++++++++++++++++++++++++++++++++....  ",
"  ........++++++++++++++++++++++++++++........  ",
"  .........+++++++++++++++++++++++++..........  ",
"  ..........+++++++++++++++++++++++++.........  ",
"  .....+++++++++++++++++++++++++++++++++++....  ",
"  ..+++++++++++++++++++++++++++++++++++++++++.  ",
"  .......+++++++++++++++++++++++++++++++......  ",
"  ...........+++++++++++++++++++++++..........  ",
"  ..........++++++++++++++++++++++++++........  ",
"  .....++++++++++++++++++++++++++++++++.......  ",
"   ...++++++++++++++++++++++++++++++++++......  ",
"   ..+++++++++++++++++++++++++++++++++++.....   ",
"   ..++...+++.++++++++++++++++++++...+++++.++   ",
"    ++.......++++++++++++++++++++++...++++++.   ",
"    .........+++++++++++++++++++++++...++++.    ",
"     .......+++++.++++++++++++++++++........    ",
"     .......++++..+++++++++++++..++++......     ",
"      .....+++...+++++++++.+++++..+++......     ",
"      ....++.....+++++++++..++++....++....      ",
"       ...+.....+++++..+++..++++.....++..       ",
"        .+.....+++++...+++..+++.......+.        ",
"         ......+++.....++...+++........         ",
"          .....++......++...+++.......          ",
"           ....++......++....+++.....           ",
"            ...++.......+.....+++...            ",
"              ..+.................              ",
"                ................                ",
"                    ........                    ",
"                                                "};
