/* XPM */
static char * Video_DVDRip_xpm[] = {
"32 32 401 2",
"  	c None",
". 	c #AEB1BE",
"+ 	c #E9ECF7",
"@ 	c #E4E7F5",
"# 	c #DDE1F3",
"$ 	c #CDD0EC",
"% 	c #BDC2E4",
"& 	c #787C95",
"* 	c #AEB2CE",
"= 	c #E1E4F4",
"- 	c #EBEDF7",
"; 	c #F4F5FA",
"> 	c #F5F6FB",
", 	c #F1F2F9",
"' 	c #EAECF6",
") 	c #D9DCEE",
"! 	c #DEE1F3",
"~ 	c #DBDEF2",
"{ 	c #727692",
"] 	c #5C5F77",
"^ 	c #BCC1E3",
"/ 	c #EEF0F9",
"( 	c #F5F7FB",
"_ 	c #FDFDFD",
": 	c #FEFEFE",
"< 	c #F8F9FC",
"[ 	c #F0F2FA",
"} 	c #EFF2FA",
"| 	c #F6F8FB",
"1 	c #E1E4F3",
"2 	c #A3A8CF",
"3 	c #555A84",
"4 	c #8A8FB9",
"5 	c #C5C9E7",
"6 	c #D5D9F0",
"7 	c #DADEF2",
"8 	c #DDE0F3",
"9 	c #EDEFF8",
"0 	c #FBFCFD",
"a 	c #F9FAFC",
"b 	c #EFF1F9",
"c 	c #E8EAF7",
"d 	c #E9EBF7",
"e 	c #EBEDF8",
"f 	c #F6F7FB",
"g 	c #C0C3DC",
"h 	c #5A5E82",
"i 	c #9399C8",
"j 	c #BFC4E6",
"k 	c #C6CBEA",
"l 	c #C9CDEB",
"m 	c #C7CCEA",
"n 	c #D9DCF1",
"o 	c #ECEEF8",
"p 	c #E2E4F4",
"q 	c #DBDFF2",
"r 	c #DFE3F4",
"s 	c #F3F5FA",
"t 	c #7A7FAC",
"u 	c #2C2E47",
"v 	c #6C7199",
"w 	c #B4B9E1",
"x 	c #B6BBE1",
"y 	c #B9BEE4",
"z 	c #BBBFE4",
"A 	c #B7BCE2",
"B 	c #C1C6E6",
"C 	c #D0D4ED",
"D 	c #DADDF2",
"E 	c #D1D5EE",
"F 	c #D7DAF1",
"G 	c #BEC3E3",
"H 	c #7177AA",
"I 	c #6E73A1",
"J 	c #AAAFDA",
"K 	c #A9AFDB",
"L 	c #ABB1DC",
"M 	c #ADB3DC",
"N 	c #A8AEDA",
"O 	c #A1A7D5",
"P 	c #ADB3DD",
"Q 	c #C1C6E7",
"R 	c #C9CEEB",
"S 	c #CACFEB",
"T 	c #DFE2F4",
"U 	c #F4F6FB",
"V 	c #FCFCFD",
"W 	c #E8EBF6",
"X 	c #C3C7E6",
"Y 	c #9399CA",
"Z 	c #787EB6",
"` 	c #4F5480",
" .	c #3C4060",
"..	c #A4AAD6",
"+.	c #ACB2DC",
"@.	c #A6ACD9",
"#.	c #A5ABD8",
"$.	c #9BA0D1",
"%.	c #9399CB",
"&.	c #8E94C8",
"*.	c #8D93C7",
"=.	c #BDC2E6",
"-.	c #C8CDEB",
";.	c #F7F7FB",
">.	c #FAFAFC",
",.	c #E2E5F4",
"'.	c #B8BDE0",
").	c #8D92C6",
"!.	c #6C72A9",
"~.	c #62689E",
"{.	c #5F6499",
"].	c #525681",
"^.	c #8D92C2",
"/.	c #9FA5D4",
"(.	c #9EA4D3",
"_.	c #9DA3D3",
":.	c #878DC3",
"<.	c #7A81B8",
"[.	c #747AB2",
"}.	c #7177B0",
"|.	c #9096C9",
"1.	c #B2B7DF",
"2.	c #CACFEC",
"3.	c #CDD2ED",
"4.	c #E2E5F5",
"5.	c #D5D9EF",
"6.	c #A0A5D2",
"7.	c #6D73A7",
"8.	c #5C6195",
"9.	c #585D8C",
"0.	c #535885",
"a.	c #545986",
"b.	c #575C8C",
"c.	c #6E729A",
"d.	c #A3A9D6",
"e.	c #9CA1D1",
"f.	c #9EA3D3",
"g.	c #9196C9",
"h.	c #7C82B9",
"i.	c #6E74AD",
"j.	c #5B6091",
"k.	c #595E8F",
"l.	c #777DB4",
"m.	c #A7ACD8",
"n.	c #CCD1ED",
"o.	c #DCE0F2",
"p.	c #999ECC",
"q.	c #666C9E",
"r.	c #4A507B",
"s.	c #494F79",
"t.	c #474C76",
"u.	c #4D527D",
"v.	c #525783",
"w.	c #505479",
"x.	c #9FA4D2",
"y.	c #B1B7DF",
"z.	c #ACB1DC",
"A.	c #A4AAD7",
"B.	c #A0A5D4",
"C.	c #979CCE",
"D.	c #7B81B8",
"E.	c #646AA1",
"F.	c #525784",
"G.	c #3D4269",
"H.	c #424770",
"I.	c #575C8B",
"J.	c #7176A2",
"K.	c #8489AD",
"L.	c #9499B9",
"M.	c #D1D4E8",
"N.	c #EEF1F9",
"O.	c #CACEEA",
"P.	c #9BA1CE",
"Q.	c #40456D",
"R.	c #3C4169",
"S.	c #3A3F65",
"T.	c #545985",
"U.	c #51557D",
"V.	c #B9BEE3",
"W.	c #B3B9DF",
"X.	c #ABB1DB",
"Y.	c #898FC4",
"Z.	c #7278B0",
"`.	c #545988",
" +	c #3B4067",
".+	c #2D3256",
"++	c #252A4B",
"@+	c #232849",
"#+	c #292E51",
"$+	c #262B4D",
"%+	c #3A4061",
"&+	c #8B90B6",
"*+	c #5E6395",
"=+	c #3F446D",
"-+	c #353A60",
";+	c #31365B",
">+	c #383D64",
",+	c #41466F",
"'+	c #515682",
")+	c #5C6194",
"!+	c #6F75A9",
"~+	c #6E7290",
"{+	c #CBD0EC",
"]+	c #BCC1E5",
"^+	c #8A90C5",
"/+	c #696EA7",
"(+	c #454A73",
"_+	c #2B3053",
":+	c #1E2343",
"<+	c #393E65",
"[+	c #585D8E",
"}+	c #5E6397",
"|+	c #5C6193",
"1+	c #565B89",
"2+	c #141935",
"3+	c #2F3458",
"4+	c #393D64",
"5+	c #2C3155",
"6+	c #282D50",
"7+	c #353A5F",
"8+	c #434872",
"9+	c #5F6498",
"0+	c #6A70A9",
"a+	c #7076AE",
"b+	c #51546F",
"c+	c #7A7D97",
"d+	c #E1E5F4",
"e+	c #D4D8EF",
"f+	c #CED2ED",
"g+	c #C8CDEA",
"h+	c #B4B9E0",
"i+	c #9BA1D0",
"j+	c #777DB3",
"k+	c #505582",
"l+	c #32375C",
"m+	c #3D436B",
"n+	c #6369A1",
"o+	c #60659D",
"p+	c #5F649A",
"q+	c #505581",
"r+	c #3F446C",
"s+	c #0C122C",
"t+	c #222748",
"u+	c #2E3357",
"v+	c #34395F",
"w+	c #3E436B",
"x+	c #474B75",
"y+	c #555A88",
"z+	c #5D6296",
"A+	c #6C72AB",
"B+	c #747AB3",
"C+	c #9AA0CF",
"D+	c #A6ABCA",
"E+	c #FAFBFD",
"F+	c #F3F4FA",
"G+	c #F0F2F9",
"H+	c #F2F3FA",
"I+	c #E8EBF7",
"J+	c #D7DBF0",
"K+	c #BEC3E5",
"L+	c #9FA5D1",
"M+	c #595E89",
"N+	c #6E74A9",
"O+	c #606599",
"P+	c #3D426A",
"Q+	c #3D426C",
"R+	c #393E66",
"S+	c #272C4E",
"T+	c #232848",
"U+	c #525684",
"V+	c #515683",
"W+	c #5A5F91",
"X+	c #62679E",
"Y+	c #777DB5",
"Z+	c #7E84BB",
"`+	c #B2B6CD",
" @	c #EBEEF8",
".@	c #DBDEF1",
"+@	c #7B80AF",
"@@	c #868CC2",
"#@	c #858BC1",
"$@	c #686D9D",
"%@	c #8D93C5",
"&@	c #6A70A1",
"*@	c #494E7A",
"=@	c #5B6092",
"-@	c #282D4E",
";@	c #61669D",
">@	c #5E6398",
",@	c #656AA3",
"'@	c #797FB7",
")@	c #8F95C8",
"!@	c #B1B4CB",
"~@	c #F9F9FC",
"{@	c #DADDF0",
"]@	c #C0C5E4",
"^@	c #7A7FB1",
"/@	c #9197CA",
"(@	c #8389BF",
"_@	c #8B90C5",
":@	c #989ECF",
"<@	c #9197C9",
"[@	c #646AA2",
"}@	c #4A4F7D",
"|@	c #282D51",
"1@	c #555A89",
"2@	c #585D8D",
"3@	c #7076AF",
"4@	c #7278B1",
"5@	c #7379B2",
"6@	c #A3A8C7",
"7@	c #F2F4FA",
"8@	c #EAECF7",
"9@	c #CBCFEA",
"0@	c #A9AED8",
"a@	c #8F95C6",
"b@	c #6C71A1",
"c@	c #858BBE",
"d@	c #9DA2D2",
"e@	c #A2A8D5",
"f@	c #9FA5D3",
"g@	c #979DCE",
"h@	c #6F75AE",
"i@	c #464B77",
"j@	c #1A1F3D",
"k@	c #363B61",
"l@	c #41466E",
"m@	c #4C507C",
"n@	c #5D6295",
"o@	c #63689F",
"p@	c #676DA6",
"q@	c #686EA7",
"r@	c #8E94C6",
"s@	c #2F62C6",
"t@	c #3365C7",
"u@	c #4673CC",
"v@	c #3969C8",
"w@	c #1A4AAF",
"x@	c #0F3FA4",
"y@	c #3A61B5",
"z@	c #D0DBF1",
"A@	c #6584C6",
"B@	c #002E93",
"C@	c #2C51A5",
"D@	c #C5CFE6",
"E@	c #5875B8",
"F@	c #0C3898",
"G@	c #3256A8",
"H@	c #385CAB",
"I@	c #1F479F",
"J@	c #254CA3",
"K@	c #0C3797",
"L@	c #18419D",
"M@	c #1F469F",
"N@	c #5573B7",
"O@	c #254CA2",
"P@	c #2B51A5",
"Q@	c #18429D",
"R@	c #718AC3",
"S@	c #6480BD",
"T@	c #E2E7F2",
"U@	c #8DA1CE",
"V@	c #A9B8DA",
"W@	c #CBD4E8",
"X@	c #DBE1EF",
"Y@	c #6A85C0",
"Z@	c #C6D0E6",
"`@	c #DEE4F0",
" #	c #C2CCE6",
".#	c #F1F3F8",
"+#	c #A6B6D9",
"@#	c #708AC2",
"##	c #3E61AD",
"$#	c #F7F8FC",
"%#	c #93A6D1",
"&#	c #778FC5",
"*#	c #19429D",
"=#	c #3E60AD",
"-#	c #4B6BB3",
";#	c #A3B3D7",
">#	c #063295",
",#	c #224AA1",
"'#	c #25489F",
")#	c #CED3E6",
"!#	c #B9C5E0",
"~#	c #1C459F",
"{#	c #C2CDE5",
"]#	c #E4E9F3",
"^#	c #5473B6",
"/#	c #9FB0D6",
"(#	c #96A9D2",
"_#	c #5E7ABA",
":#	c #D8DFEE",
"<#	c #93A6D2",
"[#	c #BFCAE3",
"}#	c #153F9C",
"|#	c #C9D3EA",
"1#	c #2A54AE",
"2#	c #648AD4",
"3#	c #7496D8",
"4#	c #3667C8",
"                          . + @ # # $ %                         ",
"                    & * = - ; > ; , ' ) ! ~ {                   ",
"                ] ^ # / ( _ : < [ } | _ : : 1 2 3               ",
"              4 5 6 7 8 9 0 a b c d e ( : : : f g h             ",
"            i j k k l m n o + p q q r s : : : : : / t u         ",
"          v w x y z z A B C D E E F 8 ( : : : : : > G H         ",
"        I J K L K M N O O P Q R S S T U : : : V W X Y Z `       ",
"       ...+.N @.#.#.$.%.&.*.M =.-.S T ;.: : >.,.'.).!.~.{.].    ",
"      ^.#./.O (.#._.:.<.[.}.|.1.2.3.4.< _ < 5.6.7.8.9.0.a.b.    ",
"    c...#.d._.e.f.g.h.i.j.k.l.m.2.n.r a > o.p.q.r.s.s.t.u.v.w.  ",
"    x.y.z.A.B.C.).D.E.F.G.H.I.J.K.L.M.N.O.P.k.H.Q.R.S.Q.u.T.U.  ",
"    A V.W.X.d.e.Y.Z.`. +.+++@+#+#+$+%+&+P.*+=+-+;+;+>+,+'+)+!+  ",
"  ~+6 {+]+A z.A.^+/+(+_+:+<+[+}+|+1+ +2+3+4+5+6+3+7+8+` 9+0+a+b+",
"  c+d+e+f+g+j h+i+j+k+l+m+n+o+p+b.1+q+r+s+t+u+v+w+x+y+z+A+B+[.C+",
"  D+E+U F+G+H+I+J+K+L+M+N+B+O+P+Q+R+a.9.S+T+U+V+W+X+0+Z.Y+h.Z+g.",
"  `+_ _ : : : V (  @.@+@@@#@O+$@%@&@*@=@w+-@;@>@,@0+}.'@h.h.h.)@",
"  !@_ _ : : 0 ~@@ {@]@^@/@%.(@_@:@<@[@n+}@|@1@2@9+[@A+3@B+4@5@)@",
"  6@| 7@H+8@! 9@0@a@b@x+c@d@O e@f@g@4@h@i@j@k@l@m@y+n@o@p@p@q@r@",
"s@s@s@s@s@s@s@s@s@s@s@s@s@s@s@s@s@t@u@u@v@s@s@s@s@s@s@s@s@s@s@s@",
"s@w@x@x@x@x@x@x@x@x@x@x@x@x@x@x@x@y@z@z@A@x@x@x@x@x@x@x@x@x@w@s@",
"s@x@B@B@B@B@B@B@B@B@B@B@B@B@B@B@B@C@D@D@E@B@B@B@B@B@B@B@B@B@x@s@",
"s@x@F@G@H@I@B@J@H@H@B@K@H@H@L@E@E@M@N@N@O@B@P@H@J@Q@R@S@K@B@x@s@",
"s@x@H@T@: U@B@V@: : B@H@: : W@: X@Y@: : R@B@Z@: `@`@: :  #J@x@s@",
"s@x@H@T@: U@B@V@: : B@H@: : .#+#@###: : R@B@Z@: $#%#%#$#E+&#x@s@",
"s@x@*#S@R@=#B@-#R@R@B@H@: : ;#>#B@H@: : R@B@Z@: W@,#'#)#: !#x@s@",
"s@x@B@B@B@B@B@B@B@B@B@H@: : &#B@B@H@: : R@B@Z@: D@~#~#{#: Z@x@s@",
"s@x@H@T@: U@B@V@: : B@H@: : R@B@B@H@: : R@B@Z@: ]#^#^#]#: /#x@s@",
"s@x@H@T@: U@B@V@: : B@H@: : R@B@B@H@: : R@B@Z@: : `@`@: .#^#x@s@",
"s@x@J@(#V@_#B@@#V@V@B@J@V@V@-#B@B@J@V@V@-#B@Z@: :#<#D@[#_#>#x@s@",
"s@x@B@B@B@B@B@B@B@B@B@B@B@B@B@B@B@B@B@B@B@B@Z@: D@~#~#}#B@B@x@s@",
"s@w@x@x@x@x@x@x@x@x@x@x@x@x@x@x@x@x@x@x@x@x@|#: |#1#x@x@x@x@w@s@",
"s@s@s@s@s@s@s@s@s@s@s@s@s@s@s@s@s@s@s@s@s@s@2#3#2#4#s@s@s@s@s@s@"};
