/* XPM */
static char * dxicon_xpm[] = {
"30 23 12 1",
" 	c None",
".	c #CCCCCC",
"+	c #B2B2B2",
"@	c #E5E5E5",
"#	c #0000FF",
"$	c #999999",
"%	c #FF00FF",
"&	c #666667",
"*	c #7F7F7F",
"=	c #191919",
"-	c #FF0000",
";	c #000000",
"                      .+@     ",
"                     @##@     ",
"                    @###$     ",
"                   .####.     ",
"                  +####.      ",
"                 +####$       ",
"                @#####+       ",
"                #####$@  @@   ",
"              @######  .%%.   ",
"             @+#####@@%%%%    ",
"             +#####.@%%%%%.   ",
"            @#####$ %%%%%%.   ",
"          @.&####+ +%%%%%%    ",
"       @*=======&+.%%%%%%@ @  ",
"      *==& +$##&===&%%%+ @--$ ",
"    +;=.  +####@@%&==&% @---$ ",
"   *;+    ##### %%%%&=&.---$ @",
"  *=.     ####@@%%%%%&=&---   ",
" $=@     +###+ $%%%$@--=-+    ",
" =$      ###+ .%%%% .--=-     ",
"$=      .###. %%%% @---=&     ",
"=+      +##.  $%%   +--+      ",
"         .@   @@    @+        "};
