/* XPM */
static char *earth[] = {
/* columns rows colors chars-per-pixel */
"32 32 198 2",
"   c #003201420087",
".  c #0000000007B8",
"X  c #0ACA0C820DEF",
"o  c #00F5163E01EF",
"O  c #007B18A30000",
"+  c #0B4A0FC60B5E",
"@  c #0000067313AF",
"#  c #0BA80BD510C1",
"$  c #000009801CD9",
"%  c #008A1DB11DE7",
"&  c #162B195F162B",
"*  c #162E162E1AFD",
"=  c #0000239A0000",
"-  c #00002FF0015A",
";  c #000038030000",
":  c #09A8397504C9",
">  c #0CFF362D0C0B",
",  c #00003773102E",
"<  c #0000000023AD",
"1  c #000000002CAE",
"2  c #000000002FC5",
"3  c #23461BF82346",
"4  c #000031872136",
"5  c #00002D8D3A80",
"6  c #27462AB02746",
"7  c #2BE329792BE3",
"8  c #2594385A2594",
"9  c #341234163389",
"0  c #386B36F63009",
"q  c #3AEA36503AEA",
"w  c #3BB737BC3AF1",
"e  c #00B643A800B6",
"r  c #000049B60000",
"t  c #0000568C0000",
"y  c #00A75D280ED2",
"u  c #000040131DC6",
"i  c #1245449C1245",
"p  c #127B59B8127B",
"a  c #000065A900B1",
"s  c #00006C180000",
"d  c #000070E60000",
"f  c #00007A460000",
"g  c #00007E950861",
"h  c #000079D712F6",
"j  c #3AA7445639BC",
"k  c #00006A082367",
"l  c #000066E92DC1",
"z  c #000072372B58",
"x  c #000000004719",
"c  c #000001284B53",
"v  c #0000000050EF",
"b  c #0000098B550A",
"n  c #000029994B9F",
"m  c #000038755A7E",
"M  c #26B926DD417F",
"N  c #0288028964E2",
"B  c #0000000068B2",
"V  c #0000000073FF",
"C  c #00000E48758E",
"Z  c #0000216C6B21",
"A  c #00003AB66671",
"S  c #0000436D436D",
"D  c #00004C024BB3",
"F  c #00004C39525B",
"G  c #000045C85BA8",
"H  c #00007CAA4D50",
"J  c #00007F8F5695",
"K  c #00004BF36C62",
"L  c #000042D97B50",
"P  c #0000545176B5",
"I  c #00006DEC6DFA",
"U  c #00007862601C",
"Y  c #00006CF570ED",
"T  c #5A3A5A1E566B",
"R  c #582454805807",
"E  c #5C0A5AE95B5B",
"W  c #64D062E364EB",
"Q  c #6E9F6D626E9F",
"!  c #73F073F973A6",
"~  c #7DE87DD27DE8",
"^  c #000081BB0209",
"/  c #000089F40000",
"(  c #00008B500EA7",
")  c #000093200000",
"_  c #00009B1F05C2",
"`  c #0000975E1A97",
"'  c #0000BD6F03E1",
"]  c #0000B77F0C4B",
"[  c #0000AF451779",
"{  c #0000AC521B22",
"}  c #0000B10814E1",
"|  c #0000B85819E4",
" . c #00009CB32F62",
".. c #00009BDC348A",
"X. c #000096E33860",
"o. c #0000A5652566",
"O. c #0000A4B32E94",
"+. c #0000A55031C1",
"@. c #0039C2B900D6",
"#. c #003ACCD8001B",
"$. c #0000D77D1E0A",
"%. c #0000EE750000",
"&. c #0000E5250D7E",
"*. c #0000F455021B",
"=. c #0000ED6F25CA",
"-. c #000083BB51BC",
";. c #000088EE5972",
":. c #0000923E5216",
">. c #0000A9BA5123",
",. c #00008089751B",
"<. c #000087A17FB6",
"1. c #00008F557AF5",
"2. c #0000939376B6",
"3. c #0000AFFB6FE2",
"4. c #0352FDC243CE",
"5. c #36CFDD527DA7",
"6. c #0000E72E6822",
"7. c #682CC4DB71AA",
"8. c #0000000083FC",
"9. c #00000000949D",
"0. c #000017129FEA",
"q. c #00001B5F9DEC",
"w. c #00002A1285A0",
"e. c #000022198F71",
"r. c #000039529687",
"t. c #00000739A1CE",
"y. c #00000000AB1C",
"u. c #00000C9EAB83",
"i. c #000017FCA5AE",
"p. c #000001A3B51C",
"a. c #00000261BE9B",
"s. c #000009E5BE9D",
"d. c #00003E63AD25",
"f. c #00002559B54A",
"g. c #00003778B623",
"h. c #00003AF3B1B4",
"j. c #00005D8C83C1",
"k. c #000055748D14",
"l. c #0000421791E9",
"z. c #00004EB997B2",
"x. c #0000514E9402",
"c. c #000041EDA98D",
"v. c #000001C6C20C",
"b. c #00000000CE46",
"n. c #00000000D26F",
"m. c #00000D2BD4F5",
"M. c #000000B3DBF3",
"N. c #000014C7D669",
"B. c #00001E86D775",
"V. c #00001B79DB80",
"C. c #00002445CF71",
"Z. c #00003B9BCE6D",
"A. c #00002420D160",
"S. c #0000021DE475",
"D. c #00000000EDFC",
"F. c #00000D0AEF09",
"G. c #0000158DE35F",
"H. c #00001862E1A9",
"J. c #000010C2E98C",
"K. c #000002D6F50F",
"L. c #00000059FEE5",
"P. c #0000264DE568",
"I. c #00002B1AEC40",
"U. c #000029A5FFFF",
"Y. c #00003075FBED",
"T. c #05EA5454FEB8",
"R. c #0AEB90E39CF0",
"E. c #0407A7E2A7BC",
"W. c #0000BC86A802",
"Q. c #2624DA758BA0",
"!. c #16B3FA7CBCC6",
"~. c #00008D39D97F",
"^. c #000086A5EF03",
"/. c #00009999E8A8",
"(. c #0EE6F5C1D334",
"). c #0000CEB5ED09",
"_. c #1F16CFE0F6DD",
"`. c #0000D501FFFF",
"'. c #1D95D0D6F949",
"]. c #0313E76EE76E",
"[. c #02BEE9DBE788",
"{. c #0238EAFDEAFD",
"}. c #0E2AFCBCFCB9",
"|. c #16F9FBA5FA7B",
" X c #34EBF04BF21D",
".X c #5630CB75CB43",
"XX c #7EE0D98EDCC3",
"oX c #74C2E0C7D046",
"OX c #43ACEFC1EFC1",
"+X c #53BEEF7CEF34",
"@X c #4F27E864F119",
"#X c #6E40E064E080",
"$X c #60CAEA88E541",
"%X c #61A9E97CE88E",
"&X c #848584888485",
"*X c #8536CEACD8EB",
"=X c #931FD375D5EA",
"-X c None",
/* pixels */
"-X-X-X-X-X-X-X-X-X-X-X-X-X-X-X-X-X-X-X-X-X-X-X-X-X-X-X-X-X-X-X-X",
"-X-X-X-X-X-X-X-X-X-X-X-X-X-X-X-X-X-X-X-X-X-X-X-X-X-X-X-X-X-X-X-X",
"-X-X-X-X-X-X-X-X-X-X-X-X-X-X-X-X-X-X-X-X-X-X-X-X-X-X-X-X-X-X-X-X",
"-X-X-X-X-X-X-X-X-X-X-X-X              -X-X-X-X-X-X-X-X-X-X-X-X-X",
"-X-X-X-X-X-X-X-X-X-X-XS D D D D D n c 1 -X-X-X-X-X-X-X-X-X-X-X-X",
"-X-X-X-X-X-X-X-X.   % E.{.[.].[.[.^.m.c     -X-X-X-X-X-X-X-X-X-X",
"-X-X-X-X-X-X-X1 8.r.R..X+X}.OX%X|.`./.H a r = -X-X-X-X-X-X-X-X-X",
"-X-X-X-X-X-X< c f.~.(.oXXX X#X*X_.`.).3.` ^ e o -X-X-X-X-X-X-X-X",
"-X-X-X-X-X. 8.f.>.=.4.!.@X=X$X'.T.U.Y.P.l.h f t o -X-X-X-X-X-X-X",
"-X-X-X-X-X. m <.$.%.&.6.Q.7.5.W.I.L.L.L.N.L z s O 3 -X-X-X-X-X-X",
"-X-X-X-X-X@ ( *.#.@.@.@.@.@.#...A.L.L.L.L.K.K s = 9 ! -X-X-X-X-X",
"-X-X-X-Xx t.:.*.#.' ' @.@.@.@. .A.L.L.L.L.K.K f a i 6 -X-X-X-X-X",
"-X-X-X  v S.2.*.#.@.' X.X.' #. .A.L.L.L.L.K.K g l 4 . 9 -X-X-X-X",
"-X-X-X  v S.1.*.#.@.} c.d.{ #. .A.L.L.L.L.K.K k e.B # T &X-X-X-X",
"-X-X-X  c S.Z.,.| #.[ g.J.z...O.C.L.L.L.K.M.q.w.s.V # T &X-X-X-X",
"-X-X-X  c S.L.V.J ] [ h.L.K.j.-.B.L.L.L.D.v.u.0.0.b # T &X-X-X-X",
"-X-X-X  c S.L.K.V.I { d.L.L.G.B.K.L.L.L.D.v.A k k , X E &X-X-X-X",
"-X-X-X  c S.L.L.L.k.} U x.x.C.L.L.L.L.L.K.v.F / / r + E &X-X-X-X",
"-X-X-X  x n.L.L.F.j.' @.' ] j.F.L.L.L.L.D.v.F ^ f e & E &X-X-X-X",
"-X-X-X-X< v p.H.Y o.' @.@.@.o.I V.L.L.S.n.a.F d ; 8 E ! &X-X-X-X",
"-X-X-X-X-X. 9.A.+.#.@.@.@.@.#.O.A.L.L.n.v.a.F s O q &X&X-X-X-X-X",
"-X-X-X-X-X. 9.C.X.@.@.@.@.@.@...A.L.K.n.v.p.F a O w ~ -X-X-X-X-X",
"-X-X-X-X-X-Xc C l.;.@.@.@.' -.c.F.K.M.n.i.G u > j W ~ -X-X-X-X-X",
"-X-X-X-X-X-X-X1 p.L _ ' @.' k.L.K.S.a.y.Z y : 7 Q &X&X-X-X-X-X-X",
"-X-X-X-X-X-X-X-X2 $ - ) #.' P n.n.b.p.v @ o j Q ~ &X-X-X-X-X-X-X",
"-X-X-X-X-X-X-X-X-X3 9 p s a 5 B B B N M 0 w W &X&X-X-X-X-X-X-X-X",
"-X-X-X-X-X-X-X-X-X-X! 6   + X # # X * E &X~ ~ &X-X-X-X-X-X-X-X-X",
"-X-X-X-X-X-X-X-X-X-X-X-X9 R E T T T E ! &X-X-X-X-X-X-X-X-X-X-X-X",
"-X-X-X-X-X-X-X-X-X-X-X-X-X&X&X&X&X&X&X&X-X-X-X-X-X-X-X-X-X-X-X-X",
"-X-X-X-X-X-X-X-X-X-X-X-X-X-X-X-X-X-X-X-X-X-X-X-X-X-X-X-X-X-X-X-X",
"-X-X-X-X-X-X-X-X-X-X-X-X-X-X-X-X-X-X-X-X-X-X-X-X-X-X-X-X-X-X-X-X",
"-X-X-X-X-X-X-X-X-X-X-X-X-X-X-X-X-X-X-X-X-X-X-X-X-X-X-X-X-X-X-X-X"
};
