/* XPM */
static char *easychem[] = {
/* columns rows colors chars-per-pixel */
"32 32 80 1",
"  c #000600060006",
". c #021802180218",
"X c #031F031F031F",
"o c #050205020502",
"O c #070C070C070C",
"+ c #086208620862",
"@ c #0B790B790B79",
"# c #0C6A0C6A0C6A",
"$ c #0E8F0E8F0E8F",
"% c #13E513E513E5",
"& c #145714571457",
"* c #157B157B157B",
"= c #16AC16AC16AC",
"- c #17C817C817C8",
"; c #184718471847",
": c #19D519D519D5",
"> c #1D6E1D6E1D6E",
", c #1E951E951E95",
"< c #234F234F234F",
"1 c #362836283628",
"2 c #36DE36DE36DE",
"3 c #37A737A737A7",
"4 c #393339333933",
"5 c #3A063A063A06",
"6 c #469A469A469A",
"7 c #488B488B488B",
"8 c #498D498D498D",
"9 c #509150915091",
"0 c #550555055505",
"q c #57EE57EE57EE",
"w c #58EE58EE58EE",
"e c #59B659B659B6",
"r c #5AF25AF25AF2",
"t c #664A664A664A",
"y c #679067906790",
"u c #688868886888",
"i c #706670667066",
"p c #78B878B878B8",
"a c #7DBA7DBA7DBA",
"s c #824582458245",
"d c #82FB82FB82FB",
"f c #92E992E992E9",
"g c #950B950B950B",
"h c #977797779777",
"j c #9AEA9AEA9AEA",
"k c #A50DA50DA50D",
"l c #A649A649A649",
"z c #A706A706A706",
"x c #A7F1A7F1A7F1",
"c c gray67",
"v c #AF6EAF6EAF6E",
"b c #B4C8B4C8B4C8",
"n c #B5C6B5C6B5C6",
"m c #B727B727B727",
"M c #B892B892B892",
"N c #B920B920B920",
"B c #B9D1B9D1B9D1",
"V c #C4A6C4A6C4A6",
"C c #C5F9C5F9C5F9",
"Z c #C6CCC6CCC6CC",
"A c #D24FD24FD24F",
"S c #DAA1DAA1DAA1",
"D c #DC66DC66DC66",
"F c #E04FE04FE04F",
"G c #E122E122E122",
"H c #E293E293E293",
"J c #E7CFE7CFE7CF",
"K c #E807E807E807",
"L c #E97DE97DE97D",
"P c #EA46EA46EA46",
"I c #EB58EB58EB58",
"U c #F05AF05AF05A",
"Y c #F269F269F269",
"T c #F3AAF3AAF3AA",
"R c #F7ADF7ADF7AD",
"E c #F8BEF8BEF8BE",
"W c #FAFDFAFDFAFD",
"Q c #FC3CFC3CFC3C",
"! c #FDC1FDC1FDC1",
"~ c gray100",
/* pixels */
"~~~~~~~~~~~~~~~~~~~~~~~~~~~~~~~~",
"~~~~~~~~~~~~~~~~~~~~~~~~~~~~~~~~",
"~~~~~~~~~~~~~~~~~~~~~~~~~~~~~~~~",
"~~~~~~~~~~~~~~~~~~~~~~~~~~~~~~~~",
"~~~~~~~~~~~~~~~~~~~~~~~~~~~~~~~~",
"~~~~~Uuqqqqqq0f~~~~~~~~~~~~~~~~~",
"~~~~~K-       q~~~~~~~~~~~~~~~~~",
"~~~~~K- =---=<N~~~~~~~~~~~~~~~~~",
"~~~~~K==AKJJJK~~~~~~~~~~~~~~~~~~",
"~~~~~K==J~~~~~~~~~~~~~~~~~~~~~~~",
"~~~~~K=$hzzzzvR~~~~~~~~~~~~~~~~~",
"~~~~~K-      odStqqmU~~~~~~~~~~~",
"~~~~~K-       +=   $8H~~~~~~~~~~",
"~~~~~K=$hxzxi  $---=+z~~~~~~~~~~",
"~~~~~K==K~~~p >mKKKKmV~~~~~~~~~~",
"~~~~~K==K~~S=-N~~~~~~~~~~~~~~~~~",
"~~~~~K=-K~~t j~~~~~~~~~~~~~~~~~~",
"~~~~~K-o9qq> 1h~~~~~~~~~~~~~~~~~",
"~~~~~K=       q~~~~~~~~~~~~~~~~~",
"~~~~~Wa=---+ >N~~~~~~~~~~~~~~~~~",
"~~~~~~RJKKKd uW~~~~~~~~~~~~~~~~~",
"~~~~~~~~~~~K=%S~~~~~~~~~~~~~~~~~",
"~~~~~~~~~~~U8 6H~~~~HF~~~~~~~~~~",
"~~~~~~~~~~~~H4 4qqqq1z~~~~~~~~~~",
"~~~~~~~~~~~~~h1     >C~~~~~~~~~~",
"~~~~~~~~~~~~~~FzzzzzC~~~~~~~~~~~",
"~~~~~~~~~~~~~~~~~~~~~~~~~~~~~~~~",
"~~~~~~~~~~~~~~~~~~~~~~~~~~~~~~~~",
"~~~~~~~~~~~~~~~~~~~~~~~~~~~~~~~~",
"~~~~~~~~~~~~~~~~~~~~~~~~~~~~~~~~",
"~~~~~~~~~~~~~~~~~~~~~~~~~~~~~~~~",
"~~~~~~~~~~~~~~~~~~~~~~~~~~~~~~~~"
};
