/* XPM */
static char * easycrypt_xpm[] = {
"32 32 382 2",
"  	c None",
". 	c #7E7E7E",
"+ 	c #B3B3B3",
"@ 	c #DEDEDE",
"# 	c #EAEAEA",
"$ 	c #E2E2E2",
"% 	c #B5B5B5",
"& 	c #8A8A8A",
"* 	c #B0B0B0",
"= 	c #EFEFEF",
"- 	c #F0F0F0",
"; 	c #EDEDED",
"> 	c #E7E7E7",
", 	c #AEAEAE",
"' 	c #EBEBEB",
") 	c #B8B8B8",
"! 	c #7D7D7D",
"~ 	c #7F7F7F",
"{ 	c #868686",
"] 	c #9B9B9B",
"^ 	c #DCDCDC",
"/ 	c #B6B6B6",
"( 	c #8B8B8B",
"_ 	c #E8E8E8",
": 	c #898989",
"< 	c #656565",
"[ 	c #C6C6C6",
"} 	c #E4E4E4",
"| 	c #8C8C8C",
"1 	c #C5C5C5",
"2 	c #A7A7A7",
"3 	c #6D6D6D",
"4 	c #D6D6D6",
"5 	c #C1C1C1",
"6 	c #E5E5E5",
"7 	c #6E6E6E",
"8 	c #ABABAB",
"9 	c #D4D4D4",
"0 	c #646464",
"a 	c #7B7B7B",
"b 	c #DADADA",
"c 	c #4D4D4D",
"d 	c #848484",
"e 	c #686868",
"f 	c #EEEEEE",
"g 	c #434343",
"h 	c #787878",
"i 	c #D7D7D7",
"j 	c #666666",
"k 	c #D0D0D0",
"l 	c #707070",
"m 	c #D5D5D5",
"n 	c #616161",
"o 	c #040404",
"p 	c #746363",
"q 	c #DEC4C5",
"r 	c #BAA7A8",
"s 	c #3A2C2C",
"t 	c #625758",
"u 	c #C5AFB0",
"v 	c #524647",
"w 	c #444444",
"x 	c #BEBEBE",
"y 	c #9A9A9A",
"z 	c #725C54",
"A 	c #B35821",
"B 	c #D47A2B",
"C 	c #DC8F2E",
"D 	c #DC902D",
"E 	c #DC912D",
"F 	c #DD902D",
"G 	c #DD8F2D",
"H 	c #DC8D2D",
"I 	c #DB8C36",
"J 	c #CB6917",
"K 	c #973101",
"L 	c #4E4E4E",
"M 	c #D9D9D9",
"N 	c #909090",
"O 	c #888888",
"P 	c #A2A2A2",
"Q 	c #9F9F9F",
"R 	c #7D7B78",
"S 	c #BB9B65",
"T 	c #F3CD75",
"U 	c #FEE780",
"V 	c #FFE982",
"W 	c #FFE983",
"X 	c #FFE984",
"Y 	c #FEEA8E",
"Z 	c #F5F1DD",
"` 	c #F99F42",
" .	c #6A1E01",
"..	c #0F0F0F",
"+.	c #AFAFAF",
"@.	c #F2F2F2",
"#.	c #D1D1D1",
"$.	c #3C3833",
"%.	c #C68C32",
"&.	c #F5B63D",
"*.	c #FFD245",
"=.	c #FFD446",
"-.	c #FFD447",
";.	c #FFD348",
">.	c #FFD44A",
",.	c #FFD54C",
"'.	c #FFD64E",
").	c #FFD54E",
"!.	c #FFD64F",
"~.	c #FFD650",
"{.	c #F8E7AC",
"].	c #F7D7AC",
"^.	c #893401",
"/.	c #000000",
"(.	c #111111",
"_.	c #E6E6E6",
":.	c #7A7A7A",
"<.	c #2C2C2C",
"[.	c #DDDDDD",
"}.	c #C4C4C4",
"|.	c #323232",
"1.	c #371E07",
"2.	c #F79814",
"3.	c #FDB91C",
"4.	c #FFC823",
"5.	c #FFC724",
"6.	c #FFC927",
"7.	c #FFCA29",
"8.	c #FFCC2C",
"9.	c #FFCE2F",
"0.	c #FFCE30",
"a.	c #FFD032",
"b.	c #FFD133",
"c.	c #F8E49A",
"d.	c #F5E0B6",
"e.	c #883701",
"f.	c #D6D5C8",
"g.	c #BCBA7E",
"h.	c #9A913C",
"i.	c #E1D08F",
"j.	c #E2D5C2",
"k.	c #8E8E8E",
"l.	c #0C0C0C",
"m.	c #BE6404",
"n.	c #FC8F06",
"o.	c #FFB610",
"p.	c #FFB912",
"q.	c #FFBF15",
"r.	c #FFC017",
"s.	c #FFC31A",
"t.	c #FFC51C",
"u.	c #FFC61E",
"v.	c #FFC71F",
"w.	c #FFC821",
"x.	c #FFC922",
"y.	c #FDE081",
"z.	c #FCE2A0",
"A.	c #883A01",
"B.	c #0A0A0A",
"C.	c #C6C6B8",
"D.	c #ECE228",
"E.	c #F1CE00",
"F.	c #F3960C",
"G.	c #E1C2AE",
"H.	c #858585",
"I.	c #0B0B0B",
"J.	c #010101",
"K.	c #682401",
"L.	c #F05A02",
"M.	c #FF8502",
"N.	c #FF9404",
"O.	c #FF9905",
"P.	c #FF9F07",
"Q.	c #FFA309",
"R.	c #FFA70B",
"S.	c #FFAA0C",
"T.	c #FF9E0A",
"U.	c #FF9C09",
"V.	c #FFCD61",
"W.	c #FFE288",
"X.	c #8A3E01",
"Y.	c #1F1F1F",
"Z.	c #F3F2DF",
"`.	c #F5C61D",
" +	c #ECD296",
".+	c #DFDFDF",
"++	c #D3D3D3",
"@+	c #5A5A5A",
"#+	c #2D1100",
"$+	c #F66B00",
"%+	c #FD9001",
"&+	c #FFA803",
"*+	c #FFAE05",
"=+	c #FFB307",
"-+	c #FFB308",
";+	c #FFAB05",
">+	c #FFA502",
",+	c #FFA302",
"'+	c #FFA602",
")+	c #FFA802",
"!+	c #FFD257",
"~+	c #FFE480",
"{+	c #8F4101",
"]+	c #070707",
"^+	c #C8C8C8",
"/+	c #E8E7E1",
"(+	c #3B3B3B",
"_+	c #441600",
":+	c #E34C00",
"<+	c #F66F00",
"[+	c #FF8301",
"}+	c #FF8201",
"|+	c #FF8000",
"1+	c #FF8700",
"2+	c #FF8A01",
"3+	c #FF8F01",
"4+	c #FF9302",
"5+	c #FFC64D",
"6+	c #FFE174",
"7+	c #964301",
"8+	c #747474",
"9+	c #E9E9E9",
"0+	c #A5A5A5",
"a+	c #878787",
"b+	c #060606",
"c+	c #100500",
"d+	c #401700",
"e+	c #7B2F00",
"f+	c #F05D00",
"g+	c #FC7800",
"h+	c #FF8601",
"i+	c #FF8E02",
"j+	c #FF9703",
"k+	c #FF9C04",
"l+	c #FF9F05",
"m+	c #FFA507",
"n+	c #FFA707",
"o+	c #FFCF4C",
"p+	c #FFE36E",
"q+	c #9C4501",
"r+	c #DBDBDB",
"s+	c #D2D2D2",
"t+	c #949494",
"u+	c #808080",
"v+	c #2E2E2E",
"w+	c #541C01",
"x+	c #F25B00",
"y+	c #FE8B00",
"z+	c #FF9C00",
"A+	c #FFA402",
"B+	c #FFB104",
"C+	c #FFBA07",
"D+	c #FFC00B",
"E+	c #FFC50E",
"F+	c #FFC912",
"G+	c #FFCB15",
"H+	c #FFCD17",
"I+	c #FFE056",
"J+	c #FFE872",
"K+	c #A34802",
"L+	c #343434",
"M+	c #939393",
"N+	c #841E00",
"O+	c #E43A00",
"P+	c #FC5C00",
"Q+	c #FE6600",
"R+	c #FF7000",
"S+	c #FF7C00",
"T+	c #FF8701",
"U+	c #FF9502",
"V+	c #FF9F03",
"W+	c #FFA404",
"X+	c #FFA706",
"Y+	c #FFAA07",
"Z+	c #FFCB3E",
"`+	c #FFE05C",
" @	c #AA4A02",
".@	c #5E5E5E",
"+@	c #564941",
"@@	c #E34F00",
"#@	c #F97400",
"$@	c #FF9201",
"%@	c #FF9D02",
"&@	c #FFAC04",
"*@	c #FFB609",
"=@	c #FFBE0E",
"-@	c #FFC414",
";@	c #FFCB1B",
">@	c #FFD222",
",@	c #FFD628",
"'@	c #FFD92D",
")@	c #FFE55E",
"!@	c #FFEB73",
"~@	c #B14D03",
"{@	c #A4A4A4",
"]@	c #5D5D5D",
"^@	c #505050",
"/@	c #A5461B",
"(@	c #EF5200",
"_@	c #FE7E00",
":@	c #FF8B01",
"<@	c #FFA504",
"[@	c #FFB108",
"}@	c #FFBB0D",
"|@	c #FFD223",
"1@	c #FFD72B",
"2@	c #FFDA30",
"3@	c #FFE866",
"4@	c #FFE85F",
"5@	c #AC4702",
"6@	c #C0C0C0",
"7@	c #C7C7C7",
"8@	c #BABABA",
"9@	c #A1A1A1",
"0@	c #919191",
"a@	c #7C7C7C",
"b@	c #565656",
"c@	c #474747",
"d@	c #7F3F26",
"e@	c #DD3800",
"f@	c #F55600",
"g@	c #FC6700",
"h@	c #FE7300",
"i@	c #FF7F01",
"j@	c #FF8B02",
"k@	c #FF9904",
"l@	c #FFB40C",
"m@	c #FFBE12",
"n@	c #FFC618",
"o@	c #FFCC1F",
"p@	c #FFD837",
"q@	c #FFE551",
"r@	c #E69517",
"s@	c #FBB11E",
"t@	c #F9CF3E",
"u@	c #FAC950",
"v@	c #F2C448",
"w@	c #D6AB3B",
"x@	c #8F6C48",
"y@	c #636363",
"z@	c #525251",
"A@	c #976527",
"B@	c #D8AD32",
"C@	c #FAC844",
"D@	c #FFD544",
"E@	c #FED336",
"F@	c #DB8B15",
"G@	c #845117",
"H@	c #AB6828",
"I@	c #D28339",
"J@	c #D28234",
"K@	c #D2812C",
"L@	c #D27F25",
"M@	c #D27D1E",
"N@	c #D27B18",
"O@	c #D27813",
"P@	c #D2770F",
"Q@	c #D2730B",
"R@	c #BA4103",
"S@	c #ED8300",
"T@	c #F7B101",
"U@	c #F9C301",
"V@	c #F9C701",
"W@	c #F9C401",
"X@	c #F9BA01",
"Y@	c #EC8A00",
"Z@	c #606060",
"`@	c #74523C",
" #	c #F3A000",
".#	c #F8BC00",
"+#	c #F8C400",
"@#	c #F8BB00",
"##	c #F5A600",
"$#	c #E5A500",
"%#	c #EEC200",
"&#	c #F1D600",
"*#	c #F1CC00",
"=#	c #DEA400",
"-#	c #E8B800",
";#	c #F0CC00",
">#	c #F1CF00",
",#	c #D2A200",
"                                                                ",
"                                                                ",
"                                  . + @ # $ % &                 ",
"                                * = - ; # # ; > +               ",
"                              , - ' ) ! ~ { ] ^ # /             ",
"                            ( - _ :           < [ } |           ",
"                            1 = 2               3 4 5           ",
"                            = 6 7                 8 9 0         ",
"                          a = b c                 d b e         ",
"                          d f 4 g                 h i j         ",
"                          { ; k g                 l m n         ",
"                  o       p q r s                 t u v         ",
"            w . % x x y z A B C D D E E E D D F G H H I J K     ",
"          L M = M N O P Q R S T U V V V V V V V W X X Y Z `  .  ",
"        ..+.@.- 4 N #.@.f + $.%.&.*.=.-.;.>.,.'.).!.~.~.{.].^.  ",
"      /.(.x - _.:.<.l f [.}.|.1.2.3.4.5.6.7.8.9.0.a.b.b.c.d.e.  ",
"      /.o { _.f.g.h.i.j.}.k.l./.m.n.o.p.q.r.s.t.u.v.w.x.y.z.A.  ",
"      /./.B.k.C.D.E.F.G.H.I.J./.K.L.M.N.O.P.Q.R.S.R.T.U.V.W.X.  ",
"    /././.Y.k @.Z.`. +.+++@+/./.#+$+%+&+*+=+-+;+>+,+'+)+!+~+{+  ",
"  /././.]+^+@.@.- /+.+++1 / (+/./._+:+<+[+}+|+1+2+3+4+4+5+6+7+  ",
"/././.J.8+@.@.- 9+.+++1 / 0+a+b+c+d+e+f+g+h+i+j+k+l+m+n+o+p+q+  ",
"      o r+@.- _ .+s+1 / 0+t+u+v+w+x+y+z+A+B+C+D+E+F+G+H+I+J+K+  ",
"      L+@.- _ @ s+1 / 0+M+u+7 w N+O+P+Q+R+S+T+U+V+W+X+Y+Z+`+ @  ",
"      e - _ @ s+}.% 0+M+u+7 .@+@@@#@$@%@&@*@=@-@;@>@,@'@)@!@~@  ",
"        > [.s+}.% {@M+~ 7 ]@^@/@(@_@:@U+<@[@}@-@;@|@1@2@3@4@5@  ",
"        6@7@8@+.9@0@a@e b@c@d@e@f@g@h@i@j@k@Y+l@m@n@o@p@q@r@    ",
"      s@t@u@v@w@x@y@z@A@B@C@D@E@F@G@H@I@J@K@L@M@N@O@P@Q@R@      ",
"    S@T@U@V@W@X@Y@Z@`@ #.#+#+#@###                              ",
"      $#%#&#*#=#        -#;#>#,#                                ",
"                                                                ",
"                                                                ",
"                                                                "};
