/* XPM */
static char * editra_xpm[] = {
"32 32 640 2",
"  	c None",
". 	c #E5E6E9",
"+ 	c #E4E4E9",
"@ 	c #DADBE4",
"# 	c #9BA4C4",
"$ 	c #3C4F8F",
"% 	c #878FAB",
"& 	c #A92B2C",
"* 	c #AA292A",
"= 	c #AA2929",
"- 	c #AB2929",
"; 	c #AB2A2A",
"> 	c #B34141",
", 	c #C46F6F",
"' 	c #DCB7B7",
") 	c #BFBACA",
"! 	c #6071AB",
"~ 	c #4960AB",
"{ 	c #3F5AAF",
"] 	c #5D6DA2",
"^ 	c #C69F9F",
"/ 	c #B75151",
"( 	c #AA2627",
"_ 	c #AA2324",
": 	c #AA2424",
"< 	c #A92324",
"[ 	c #B52626",
"} 	c #EA6969",
"| 	c #EF7F7F",
"1 	c #EF7F80",
"2 	c #EF8081",
"3 	c #F08C8D",
"4 	c #F2A0A1",
"5 	c #F0C3C4",
"6 	c #D0C4CF",
"7 	c #737FAF",
"8 	c #374E9A",
"9 	c #3D57A9",
"0 	c #3E5AB5",
"a 	c #4462C0",
"b 	c #4962B1",
"c 	c #C1ACB1",
"d 	c #ECA0A1",
"e 	c #EF7C7C",
"f 	c #EF7677",
"g 	c #EE7474",
"h 	c #EE7374",
"i 	c #ED7172",
"j 	c #CC3031",
"k 	c #B92828",
"l 	c #E73A3A",
"m 	c #EA4344",
"n 	c #EB4747",
"o 	c #EB4A4B",
"p 	c #EC5A5A",
"q 	c #EF8989",
"r 	c #EDB2B3",
"s 	c #918BAD",
"t 	c #52629F",
"u 	c #374D96",
"v 	c #4D5C8E",
"w 	c #767990",
"x 	c #7D8099",
"y 	c #5168AE",
"z 	c #4962AF",
"A 	c #8B819E",
"B 	c #E18687",
"C 	c #E93435",
"D 	c #E82C2D",
"E 	c #E82B2C",
"F 	c #CF2627",
"G 	c #B92829",
"H 	c #E73A3B",
"I 	c #ED5A5B",
"J 	c #EE6C6C",
"K 	c #F08F8F",
"L 	c #E7AFB2",
"M 	c #A69FB9",
"N 	c #52619C",
"O 	c #3B5096",
"P 	c #4D5B90",
"Q 	c #8D7F88",
"R 	c #B68A8B",
"S 	c #C89B9B",
"T 	c #E0A8A9",
"U 	c #B3A0A8",
"V 	c #56649A",
"W 	c #646791",
"X 	c #D49799",
"Y 	c #EC5556",
"Z 	c #EA3F40",
"` 	c #E92D2E",
" .	c #E92B2C",
"..	c #E83C3D",
"+.	c #EC5252",
"@.	c #F07F80",
"#.	c #F1AEAE",
"$.	c #CBB4C1",
"%.	c #787EAA",
"&.	c #3F549C",
"*.	c #435693",
"=.	c #72728A",
"-.	c #A68F94",
";.	c #D69191",
">.	c #DA7778",
",.	c #CA8B8B",
"'.	c #F0A4A5",
").	c #E6ADAE",
"!.	c #B89EA8",
"~.	c #B39096",
"{.	c #E08E8E",
"].	c #ED5C5C",
"^.	c #EB494A",
"/.	c #EA3C3D",
"(.	c #E93434",
"_.	c #E92C2D",
":.	c #C03B3C",
"<.	c #EB6969",
"[.	c #EF9F9F",
"}.	c #CFB5C2",
"|.	c #8D92B9",
"1.	c #455CA7",
"2.	c #4A5FA5",
"3.	c #6F738E",
"4.	c #A39194",
"5.	c #D69E9E",
"6.	c #EA9697",
"7.	c #EF8585",
"8.	c #E07777",
"9.	c #CA9494",
"0.	c #F3B0B1",
"a.	c #F4ABAB",
"b.	c #F1B5B6",
"c.	c #E7BCBF",
"d.	c #EAB3B5",
"e.	c #EF7878",
"f.	c #ED595A",
"g.	c #EB3F40",
"h.	c #E92E2E",
"i.	c #CF2727",
"j.	c #D78E8F",
"k.	c #E7B2B5",
"l.	c #ACA3BB",
"m.	c #5A6DAE",
"n.	c #586FBA",
"o.	c #5572CA",
"p.	c #5C6EA8",
"q.	c #B69F9F",
"r.	c #E0A6A6",
"s.	c #EF999A",
"t.	c #F19393",
"u.	c #F19090",
"v.	c #E28687",
"w.	c #CB9E9F",
"x.	c #F4BDBE",
"y.	c #F6BABA",
"z.	c #F4D2D2",
"A.	c #75799B",
"B.	c #9D96AB",
"C.	c #EB9494",
"D.	c #EE696A",
"E.	c #EC5455",
"F.	c #D02929",
"G.	c #D8D9E0",
"H.	c #A5A7BE",
"I.	c #52639F",
"J.	c #3D56A8",
"K.	c #657ECB",
"L.	c #8098E0",
"M.	c #5C7CD9",
"N.	c #4C69C3",
"O.	c #B5A6B2",
"P.	c #EDB5B5",
"Q.	c #F4A7A8",
"R.	c #F4A6A6",
"S.	c #E59B9C",
"T.	c #CCACAC",
"U.	c #F5CDCD",
"V.	c #F7C8C8",
"W.	c #EED5D4",
"X.	c #42538E",
"Y.	c #475895",
"Z.	c #D2A7A9",
"`.	c #ED8788",
" +	c #EE6465",
".+	c #ED5858",
"++	c #D03131",
"@+	c #F6F4F3",
"#+	c #556290",
"$+	c #41518A",
"%+	c #56638D",
"&+	c #636D94",
"*+	c #5871BF",
"=+	c #4F71D5",
"-+	c #466CDF",
";+	c #496ACF",
">+	c #7C84B1",
",+	c #DDBFC1",
"'+	c #F5BCBC",
")+	c #F6B8B8",
"!+	c #F5B7B7",
"~+	c #E6ACAC",
"{+	c #CDB6B6",
"]+	c #F6D9D9",
"^+	c #F7D3D3",
"/+	c #ECD6D6",
"(+	c #5164A4",
"_+	c #354FA6",
":+	c #9D92A9",
"<+	c #E8A4A4",
"[+	c #EB4A4A",
"}+	c #D13939",
"|+	c #8D91A2",
"1+	c #978084",
"2+	c #C18283",
"3+	c #CD8B8C",
"4+	c #8F87A5",
"5+	c #4F6AC0",
"6+	c #5979DA",
"7+	c #496CD7",
"8+	c #415EBA",
"9+	c #9C9BB7",
"0+	c #F1D1D1",
"a+	c #F8CECE",
"b+	c #F7CCCC",
"c+	c #E8BFBF",
"d+	c #D0C3C3",
"e+	c #F7E8E8",
"f+	c #EFE0E2",
"g+	c #B7B7CC",
"h+	c #3855AE",
"i+	c #3B5ABD",
"j+	c #5065AC",
"k+	c #C2ADB6",
"l+	c #F09696",
"m+	c #F07777",
"n+	c #ED5959",
"o+	c #D24545",
"p+	c #BE6566",
"q+	c #E45555",
"r+	c #E96061",
"s+	c #D0989C",
"t+	c #6A75AE",
"u+	c #4062CD",
"v+	c #4A6DD6",
"w+	c #4162C8",
"x+	c #5B6EAF",
"y+	c #E0D0D0",
"z+	c #F6DBDB",
"A+	c #F9DBDB",
"B+	c #ECD3D3",
"C+	c #DBD5D5",
"D+	c #ECE7EA",
"E+	c #8790B7",
"F+	c #495FA8",
"G+	c #3253B9",
"H+	c #395AC0",
"I+	c #3956B0",
"J+	c #7D83AC",
"K+	c #E9AEAE",
"L+	c #F18A8A",
"M+	c #EF7272",
"N+	c #EE6A6A",
"O+	c #D76060",
"P+	c #BA292A",
"Q+	c #E73B3B",
"R+	c #EB4849",
"S+	c #E97E7E",
"T+	c #BC9CA6",
"U+	c #425DB5",
"V+	c #4F6FD0",
"W+	c #597ADB",
"X+	c #5673C8",
"Y+	c #999DB9",
"Z+	c #E9DADB",
"`+	c #F7EBEC",
" @	c #E6E0E4",
".@	c #9FA6C1",
"+@	c #4D609E",
"@@	c #344D9E",
"#@	c #41569B",
"$@	c #6B7496",
"%@	c #747C9C",
"&@	c #3E56A4",
"*@	c #334992",
"=@	c #C1ACB3",
"-@	c #EFA8A8",
";@	c #F18F90",
">@	c #F2A4A5",
",@	c #CBA7B0",
"'@	c #D8D1D6",
")@	c #B42627",
"!@	c #DF3839",
"~@	c #E34445",
"{@	c #E56464",
"]@	c #DE9999",
"^@	c #747EAF",
"/@	c #5370C8",
"(@	c #6887DE",
"_@	c #617FD6",
":@	c #677ABA",
"<@	c #C3C0CB",
"[@	c #C8C9D7",
"}@	c #7280B0",
"|@	c #384F9D",
"1@	c #354C98",
"2@	c #646D8E",
"3@	c #9697A0",
"4@	c #C6BFBF",
"5@	c #CFC3C3",
"6@	c #9395A9",
"7@	c #626B8E",
"8@	c #BAA5AA",
"9@	c #E7A9A9",
"0@	c #EDA0A0",
"a@	c #E0BCC1",
"b@	c #475387",
"c@	c #8A92AC",
"d@	c #9C5252",
"e@	c #C17879",
"f@	c #C58485",
"g@	c #C68F8E",
"h@	c #CEA4A5",
"i@	c #BCB4BD",
"j@	c #6679B6",
"k@	c #5D7CD6",
"l@	c #5C7DDE",
"m@	c #4869CC",
"n@	c #4E68BB",
"o@	c #344FA9",
"p@	c #3A519F",
"q@	c #5F6A91",
"r@	c #99999E",
"s@	c #C7C1C1",
"t@	c #D0C1C2",
"u@	c #CCB1B1",
"v@	c #CBA9A9",
"w@	c #D0AFAF",
"x@	c #C7A4A4",
"y@	c #C78F8F",
"z@	c #C57B7B",
"A@	c #CD8787",
"B@	c #C1A9B2",
"C@	c #2C428D",
"D@	c #586697",
"E@	c #CFCFCF",
"F@	c #BC6D6D",
"G@	c #ED9C9D",
"H@	c #F2AAAA",
"I@	c #F3B4B4",
"J@	c #F3BDBD",
"K@	c #E6C9CA",
"L@	c #9094B4",
"M@	c #4766C4",
"N@	c #5272D5",
"O@	c #4368DA",
"P@	c #395ED0",
"Q@	c #475DA5",
"R@	c #787E94",
"S@	c #B8B5B6",
"T@	c #E1DADA",
"U@	c #F4E2E2",
"V@	c #F6D8D8",
"W@	c #F5C7C7",
"X@	c #F4B9B9",
"Y@	c #F1A8A8",
"Z@	c #EF9999",
"`@	c #EE8686",
" #	c #ED7778",
".#	c #ED8B8C",
"+#	c #C3A7B4",
"@#	c #3E56A2",
"##	c #4F63A0",
"$#	c #C1C0C1",
"%#	c #BF6666",
"&#	c #EE8787",
"*#	c #F29090",
"=#	c #F39C9C",
"-#	c #F4A5A5",
";#	c #F3B9B9",
">#	c #DEC3C3",
",#	c #566AAE",
"'#	c #3D5FCB",
")#	c #3F67DF",
"!#	c #4468D7",
"~#	c #5D71B0",
"{#	c #BCBABF",
"]#	c #D7C8C9",
"^#	c #F6DFDF",
"/#	c #F9DEDE",
"(#	c #F8D3D3",
"_#	c #F7BEBE",
":#	c #F5ACAD",
"<#	c #F39595",
"[#	c #F18383",
"}#	c #EF6C6D",
"|#	c #ED5F5F",
"1#	c #ED8787",
"2#	c #A795AE",
"3#	c #3652AD",
"4#	c #3752AA",
"5#	c #B2B1B0",
"6#	c #BF5F60",
"7#	c #ED7E7E",
"8#	c #F18788",
"9#	c #F29393",
"0#	c #F4AAAB",
"a#	c #EFBEBF",
"b#	c #9A9AB7",
"c#	c #4A6CD5",
"d#	c #4066DB",
"e#	c #4562BD",
"f#	c #9DA3BC",
"g#	c #DBC6C6",
"h#	c #F6D2D2",
"i#	c #F8D2D2",
"j#	c #F8CFCF",
"k#	c #F6BEBE",
"l#	c #F4ACAC",
"m#	c #EF6E6E",
"n#	c #EE6A6B",
"o#	c #EAA0A1",
"p#	c #7D7EAC",
"q#	c #3453B8",
"r#	c #3150B0",
"s#	c #A8A7A8",
"t#	c #BE5757",
"u#	c #ED7373",
"v#	c #F07C7C",
"w#	c #F29091",
"x#	c #F39C9D",
"y#	c #F4ACAD",
"z#	c #DCC0C3",
"A#	c #727DB0",
"B#	c #3B5ECA",
"C#	c #4368D9",
"D#	c #5575D1",
"E#	c #5B71B5",
"F#	c #CFBFC2",
"G#	c #F2C8C8",
"H#	c #F7BFBF",
"I#	c #F5ACAC",
"J#	c #F39697",
"K#	c #F18889",
"L#	c #F18787",
"M#	c #EF9E9E",
"N#	c #A89AB6",
"O#	c #435AAA",
"P#	c #3856B6",
"Q#	c #4258A1",
"R#	c #AAAAAA",
"S#	c #BD5050",
"T#	c #EC6A6B",
"U#	c #EF7373",
"V#	c #F17F7F",
"W#	c #F29394",
"X#	c #F39E9E",
"Y#	c #EEB9BA",
"Z#	c #BCAEB9",
"`#	c #4964B8",
" $	c #5172D5",
".$	c #5B7CDA",
"+$	c #4362C2",
"@$	c #9596B3",
"#$	c #E8C5C5",
"$$	c #F5B2B2",
"%$	c #F5ADAD",
"&$	c #F4AAAA",
"*$	c #F4A3A3",
"=$	c #F3A8A8",
"-$	c #E7B5B9",
";$	c #9E90AF",
">$	c #475BA2",
",$	c #3550A8",
"'$	c #516198",
")$	c #818596",
"!$	c #BC4748",
"~$	c #EB6060",
"{$	c #EE6869",
"]$	c #EF7374",
"^$	c #F29191",
"/$	c #F3A4A5",
"($	c #EAC0C0",
"_$	c #838DB5",
":$	c #4F6BC2",
"<$	c #5979D7",
"[$	c #4468D4",
"}$	c #536AB7",
"|$	c #B6A9B8",
"1$	c #F0A9AA",
"2$	c #F39B9C",
"3$	c #F3A4A4",
"4$	c #F4B6B6",
"5$	c #E5C4C9",
"6$	c #B1A9BF",
"7$	c #4B5D9D",
"8$	c #334A98",
"9$	c #485894",
"0$	c #77748A",
"a$	c #AF9293",
"b$	c #C6BABA",
"c$	c #BC4242",
"d$	c #EA5859",
"e$	c #EE6061",
"f$	c #EF6B6B",
"g$	c #F07F7F",
"h$	c #F29696",
"i$	c #F2AFB0",
"j$	c #C2B6C1",
"k$	c #5B70B4",
"l$	c #496AD2",
"m$	c #6483DE",
"n$	c #5874C9",
"o$	c #7781B1",
"p$	c #E4B2B2",
"q$	c #F1A6A7",
"r$	c #F2C1C1",
"s$	c #CDB9C4",
"t$	c #6973A5",
"u$	c #40559B",
"v$	c #384E95",
"w$	c #61688B",
"x$	c #A0868D",
"y$	c #C98283",
"z$	c #D06262",
"A$	c #BB3A3B",
"B$	c #E94E4F",
"C$	c #EC5656",
"D$	c #EE6060",
"E$	c #F29495",
"F$	c #EAB8B8",
"G$	c #A09BB4",
"H$	c #526EC4",
"I$	c #6180DB",
"J$	c #5D7EDE",
"K$	c #526FC6",
"L$	c #9395B8",
"M$	c #B3AAC0",
"N$	c #6F7BAB",
"O$	c #3C5196",
"P$	c #415495",
"Q$	c #5D668E",
"R$	c #A48C8E",
"S$	c #CC8E8F",
"T$	c #E56868",
"U$	c #E94848",
"V$	c #D02E2E",
"W$	c #BB3535",
"X$	c #E84748",
"Y$	c #EC4E4F",
"Z$	c #ED6061",
"`$	c #F18888",
" %	c #DAB9BB",
".%	c #6477B6",
"+%	c #5776D3",
"@%	c #6585E4",
"#%	c #5F7EDA",
"$%	c #4C69C1",
"%%	c #556BB3",
"&%	c #3B529F",
"*%	c #4E5C8E",
"=%	c #8B8491",
"-%	c #BC9495",
";%	c #DE8283",
">%	c #E96B6B",
",%	c #EB4C4D",
"'%	c #D02B2C",
")%	c #BA2E2F",
"!%	c #E83F40",
"~%	c #EB4646",
"{%	c #F18D8E",
"]%	c #EEAFAF",
"^%	c #9F9FBA",
"/%	c #5672C7",
"(%	c #5E7DD7",
"_%	c #5A7BDA",
":%	c #546EBF",
"<%	c #5D6BA0",
"[%	c #8D7F89",
"}%	c #BB8E8E",
"|%	c #E07A7A",
"1%	c #E95F5F",
"2%	c #EB4D4D",
"3%	c #EB4546",
"4%	c #E93C3C",
"5%	c #CF2B2C",
"6%	c #BA2A2B",
"7%	c #E7393A",
"8%	c #EB4848",
"9%	c #EC4F4F",
"0%	c #ED5859",
"a%	c #EF6B6C",
"b%	c #EF7575",
"c%	c #F18E8E",
"d%	c #F1B7B8",
"e%	c #A3A5C2",
"f%	c #556FC0",
"g%	c #5876CF",
"h%	c #586FB6",
"i%	c #7A7A91",
"j%	c #A68589",
"k%	c #D47A7A",
"l%	c #E45F60",
"m%	c #E94546",
"n%	c #EA3E3F",
"o%	c #E9393A",
"p%	c #D52F30",
"q%	c #D83536",
"r%	c #D93C3D",
"s%	c #DA4243",
"t%	c #DA4B4C",
"u%	c #DB5252",
"v%	c #DE6364",
"w%	c #E48485",
"x%	c #E6B5B7",
"y%	c #B7AEC1",
"z%	c #41579E",
"A%	c #455CA4",
"B%	c #6F7693",
"C%	c #96898E",
"D%	c #C58181",
"E%	c #D45B5C",
"F%	c #D83A3A",
"G%	c #D83030",
"H%	c #D82E2E",
"I%	c #D82D2E",
"J%	c #D72D2E",
"K%	c #C02828",
"L%	c #E8D6D7",
"M%	c #8488A9",
"N%	c #425492",
"O%	c #4F5D8B",
"P%	c #7B8091",
"Q%	c #A6A4A5",
"R%	c #848CA8",
"S%	c #475481",
"T%	c #6F7589",
"U%	c #A4A3A4",
"V%	c #BCBEC5",
"W%	c #94959D",
"                                                                ",
"                                    . +                         ",
"                                @ # $ %                         ",
"        & * = * = = - ; > , ' ) ! ~ { ] ^ / ( _ _ _ : <         ",
"      [ } | 1 1 1 2 3 4 5 6 7 8 9 0 a b c d e f g h h i j       ",
"      k l m n n o p q r s t u v w x y z A B m C D E E E F       ",
"      G H n I J K L M N O P Q R S T U V W X Y Z C `  .E F       ",
"      G ..+.@.#.$.%.&.*.=.-.;.>.,.'.).!.~.{.].^./.(._.E F       ",
"      :.<.[.}.|.1.2.3.4.5.6.7.8.9.0.a.b.c.d.e.f.^.g.C h.i.      ",
"      j.k.l.m.n.o.p.q.r.s.t.u.v.w.x.y.z.A.B.C.D.E.^./.C F.      ",
"    G.H.I.J.K.L.M.N.O.P.Q.R.R.S.T.U.V.W.X.Y.Z.`. +.+^.Z ++      ",
"  @+#+$+%+&+*+=+-+;+>+,+'+)+!+~+{+]+^+/+(+_+:+<+f  +E.[+}+      ",
"    |+1+2+3+4+5+6+7+8+9+0+a+b+c+d+e+f+g+h+i+j+k+l+m+ +n+o+      ",
"      p+q+r+s+t+u+v+w+x+y+z+A+B+C+D+E+F+G+H+I+J+K+L+M+N+O+      ",
"      P+Q+R+S+T+U+V+W+X+Y+Z+`+ @.@+@@@#@$@%@&@*@=@-@;@>@,@'@    ",
"      )@!@~@{@]@^@/@(@_@:@<@[@}@|@1@2@3@4@5@6@7@8@9@0@a@b@c@    ",
"      d@e@f@g@h@i@j@k@l@m@n@o@p@q@r@s@t@u@v@w@x@y@z@A@B@C@D@E@  ",
"      F@G@H@I@J@K@L@M@N@O@P@Q@R@S@T@U@V@W@X@Y@Z@`@ #.#+#@###$#  ",
"      %#&#*#=#-#;#>#,#'#)#!#~#{#]#^#/#(#_#:#<#[#}#|#1#2#3#4#5#  ",
"      6#7#8#9#=#0#a#b#8+c#d#e#f#g#h#i#j#k#l#<#[#m#n#o#p#q#r#s#  ",
"      t#u#v#8#w#x#y#z#A#B#C#D#E#F#G#H#_#y.I#J#K#L#M#N#O#P#Q#R#  ",
"      S#T#U#V#8#W#X#Y#Z#`# $.$+$@$#$$$%$%$&$*$=$-$;$>$,$'$)$    ",
"      !$~${$]$v#8#^$/$($_$:$<$[$}$|$1$2$3$4$5$6$7$8$9$0$a$b$    ",
"      c$d$e$f$]$g$8#h$i$j$k$l$m$n$o$p$q$r$s$t$u$v$w$x$y$z$      ",
"      A$B$C$D${$]$v#8#E$F$G$H$I$J$K$L$M$N$O$P$Q$R$S$T$U$V$      ",
"      W$X$Y$.+Z$f$U#g$`$'. %.%+%@%#%$%%%&%*%=%-%;%>%,%/.'%      ",
"      )%!%~%Y$C$D${$]$v#{%]%^%/%(%_%:%<%[%}%|%1%2%^.3%4%5%      ",
"      6%7%Z 8%9%0%Z$a%b%c%d%e%f%g%h%i%j%k%l%m%n%/././.o%5%      ",
"        p%q%r%s%t%u%v%w%x%y%z%A%B%C%D%E%F%G%H%H%H%H%I%J%K%      ",
"                      L%M%N%O%P%Q%                              ",
"                      R%S%T%U%                                  ",
"                      V%W%                                      "};
