/* XPM */
static char * enemylines7_xpm[] = {
"32 32 564 2",
"  	c #062B2E",
". 	c #07252C",
"+ 	c #052432",
"@ 	c #03262B",
"# 	c #05272C",
"$ 	c #082C31",
"% 	c #022731",
"& 	c #00272B",
"* 	c #01262E",
"= 	c #1F3E39",
"- 	c #27543A",
"; 	c #12402A",
"> 	c #073725",
", 	c #083826",
"' 	c #194333",
") 	c #01272C",
"! 	c #02262D",
"~ 	c #104729",
"{ 	c #15632C",
"] 	c #17602D",
"^ 	c #15612C",
"/ 	c #16612C",
"( 	c #104032",
"_ 	c #02262E",
": 	c #05252C",
"< 	c #03272C",
"[ 	c #002A28",
"} 	c #00272E",
"| 	c #00262D",
"1 	c #022530",
"2 	c #03252D",
"3 	c #022531",
"4 	c #04252E",
"5 	c #01262F",
"6 	c #00282A",
"7 	c #02252F",
"8 	c #04252F",
"9 	c #01262D",
"0 	c #092522",
"a 	c #24351E",
"b 	c #05242E",
"c 	c #032336",
"d 	c #232D2A",
"e 	c #32321D",
"f 	c #03252A",
"g 	c #061E53",
"h 	c #172221",
"i 	c #31340F",
"j 	c #02272B",
"k 	c #041942",
"l 	c #0B142A",
"m 	c #2F2F1B",
"n 	c #012729",
"o 	c #032435",
"p 	c #022727",
"q 	c #04242E",
"r 	c #041930",
"s 	c #031035",
"t 	c #212619",
"u 	c #002732",
"v 	c #00282C",
"w 	c #002538",
"x 	c #032030",
"y 	c #050D3F",
"z 	c #111A25",
"A 	c #01253B",
"B 	c #032F68",
"C 	c #092E68",
"D 	c #07293D",
"E 	c #022243",
"F 	c #020F2C",
"G 	c #031538",
"H 	c #012632",
"I 	c #03242F",
"J 	c #042441",
"K 	c #002B74",
"L 	c #1A469E",
"M 	c #709788",
"N 	c #2D5690",
"O 	c #051F73",
"P 	c #051B56",
"Q 	c #03252E",
"R 	c #02252E",
"S 	c #01272E",
"T 	c #022733",
"U 	c #142822",
"V 	c #13253C",
"W 	c #001F5C",
"X 	c #032F9D",
"Y 	c #748F78",
"Z 	c #5575A0",
"` 	c #0A2893",
" .	c #031B53",
"..	c #02222B",
"+.	c #02242D",
"@.	c #01252D",
"#.	c #17343F",
"$.	c #1D3A44",
"%.	c #02272E",
"&.	c #00282E",
"*.	c #05232D",
"=.	c #08213E",
"-.	c #1E2928",
";.	c #232824",
">.	c #03154F",
",.	c #03278A",
"'.	c #4F6E92",
").	c #6F9689",
"!.	c #0B3493",
"~.	c #011758",
"{.	c #0F3039",
"].	c #01232C",
"^.	c #01242D",
"/.	c #122A36",
"(.	c #18313D",
"_.	c #082530",
":.	c #2B3F4C",
"<.	c #0F2430",
"[.	c #152536",
"}.	c #16252C",
"|.	c #252E22",
"1.	c #030C40",
"2.	c #021E75",
"3.	c #2D478A",
"4.	c #7C976F",
"5.	c #1A43A5",
"6.	c #031B65",
"7.	c #05242A",
"8.	c #01242A",
"9.	c #002628",
"0.	c #002626",
"a.	c #002430",
"b.	c #012535",
"c.	c #01272B",
"d.	c #04272F",
"e.	c #0F343B",
"f.	c #2E4B56",
"g.	c #1E3F4C",
"h.	c #03282D",
"i.	c #03272A",
"j.	c #05262D",
"k.	c #03262D",
"l.	c #052730",
"m.	c #02262F",
"n.	c #0E2233",
"o.	c #1A222A",
"p.	c #13202A",
"q.	c #27321E",
"r.	c #070F2F",
"s.	c #021460",
"t.	c #11248C",
"u.	c #6E8B76",
"v.	c #37589B",
"w.	c #071D7C",
"x.	c #324C60",
"y.	c #032329",
"z.	c #012522",
"A.	c #02212E",
"B.	c #03232A",
"C.	c #012726",
"D.	c #01262C",
"E.	c #062B33",
"F.	c #1A3943",
"G.	c #313A51",
"H.	c #3A4C70",
"I.	c #153547",
"J.	c #012737",
"K.	c #052433",
"L.	c #022927",
"M.	c #071A2B",
"N.	c #1E2822",
"O.	c #0D1530",
"P.	c #292F15",
"Q.	c #13152D",
"R.	c #021457",
"S.	c #04258D",
"T.	c #456693",
"U.	c #516D93",
"V.	c #061D95",
"W.	c #304464",
"X.	c #253F56",
"Y.	c #052631",
"Z.	c #042741",
"`.	c #012727",
" +	c #012334",
".+	c #002526",
"++	c #002629",
"@+	c #02272F",
"#+	c #0B2C35",
"$+	c #2F4150",
"%+	c #0C292D",
"&+	c #062930",
"*+	c #0C3471",
"=+	c #48657F",
"-+	c #082C5D",
";+	c #061B2D",
">+	c #17201E",
",+	c #050C29",
"'+	c #283021",
")+	c #0B1535",
"!+	c #04215A",
"~+	c #0B30A4",
"{+	c #3461AC",
"]+	c #507997",
"^+	c #113C9C",
"/+	c #0A2529",
"(+	c #112F32",
"_+	c #0F305A",
":+	c #456497",
"<+	c #335F97",
"[+	c #0B295A",
"}+	c #012427",
"|+	c #03242C",
"1+	c #022728",
"2+	c #042531",
"3+	c #012A26",
"4+	c #092335",
"5+	c #0C2F7A",
"6+	c #71918B",
"7+	c #082A6E",
"8+	c #0A2140",
"9+	c #222A2C",
"0+	c #05112A",
"a+	c #121C18",
"b+	c #213533",
"c+	c #021B50",
"d+	c #062F85",
"e+	c #20489C",
"f+	c #6A8383",
"g+	c #2951B1",
"h+	c #022227",
"i+	c #032226",
"j+	c #052469",
"k+	c #628075",
"l+	c #204595",
"m+	c #112D55",
"n+	c #012524",
"o+	c #002334",
"p+	c #012526",
"q+	c #002929",
"r+	c #0F242F",
"s+	c #082679",
"t+	c #6D8A93",
"u+	c #06266E",
"v+	c #0C2631",
"w+	c #0D1C41",
"x+	c #1F2829",
"y+	c #0E1F37",
"z+	c #1E272A",
"A+	c #1C2529",
"B+	c #041647",
"C+	c #01287C",
"D+	c #1037A3",
"E+	c #90AC6E",
"F+	c #6D8E93",
"G+	c #022228",
"H+	c #03212C",
"I+	c #062577",
"J+	c #607F8E",
"K+	c #0B268F",
"L+	c #0E293E",
"M+	c #00252A",
"N+	c #0F316A",
"O+	c #23485B",
"P+	c #05284E",
"Q+	c #012527",
"R+	c #02273F",
"S+	c #0B1F2E",
"T+	c #0D2C89",
"U+	c #557492",
"V+	c #062979",
"W+	c #052532",
"X+	c #0C2136",
"Y+	c #161C33",
"Z+	c #182028",
"`+	c #111E33",
" @	c #1A292B",
".@	c #26310E",
"+@	c #09133D",
"@@	c #041B5D",
"#@	c #052999",
"$@	c #6A8E82",
"%@	c #879E79",
"&@	c #022229",
"*@	c #042337",
"=@	c #23499C",
"-@	c #4F77A0",
";@	c #0C338D",
">@	c #062036",
",@	c #00253A",
"'@	c #264884",
")@	c #5C818D",
"!@	c #052B82",
"~@	c #00242C",
"{@	c #01242C",
"]@	c #072A5E",
"^@	c #1A2C49",
"/@	c #103087",
"(@	c #62828D",
"_@	c #082D82",
":@	c #082842",
"<@	c #0E244F",
"[@	c #161F29",
"}@	c #0F1727",
"|@	c #151D2E",
"1@	c #0B1C2C",
"2@	c #3C441B",
"3@	c #121B2D",
"4@	c #06114B",
"5@	c #042592",
"6@	c #234596",
"7@	c #4F7589",
"8@	c #012023",
"9@	c #032350",
"0@	c #3E5E8F",
"a@	c #4E6D8C",
"b@	c #11307E",
"c@	c #071F31",
"d@	c #042342",
"e@	c #385A91",
"f@	c #5372A0",
"g@	c #062865",
"h@	c #02242A",
"i@	c #022428",
"j@	c #032327",
"k@	c #06265A",
"l@	c #182848",
"m@	c #102976",
"n@	c #7C9D95",
"o@	c #052A81",
"p@	c #012533",
"q@	c #032529",
"r@	c #0C1F3A",
"s@	c #091951",
"t@	c #161E2C",
"u@	c #09163A",
"v@	c #1B262B",
"w@	c #061333",
"x@	c #21270B",
"y@	c #1C2332",
"z@	c #040C3D",
"A@	c #021E77",
"B@	c #2A4483",
"C@	c #A8B662",
"D@	c #041F20",
"E@	c #052160",
"F@	c #63838F",
"G@	c #314D86",
"H@	c #132C64",
"I@	c #062123",
"J@	c #042052",
"K@	c #3C5B8A",
"L@	c #375992",
"M@	c #092C59",
"N@	c #133539",
"O@	c #0B2E32",
"P@	c #0C2B63",
"Q@	c #142542",
"R@	c #08245D",
"S@	c #1E4690",
"T@	c #527892",
"U@	c #0A3076",
"V@	c #032531",
"W@	c #082034",
"X@	c #071F64",
"Y@	c #172734",
"Z@	c #091940",
"`@	c #222D17",
" #	c #040E2E",
".#	c #292F1E",
"+#	c #12181C",
"@#	c #020B33",
"##	c #011568",
"$#	c #052488",
"%#	c #6B928D",
"&#	c #022128",
"*#	c #092F8B",
"=#	c #4D7094",
"-#	c #1030AB",
";#	c #0E2458",
">#	c #022337",
",#	c #052C79",
"'#	c #456991",
")#	c #284CA3",
"!#	c #042950",
"~#	c #022329",
"{#	c #102C68",
"]#	c #13223C",
"^#	c #12214B",
"/#	c #193F9B",
"(#	c #698779",
"_#	c #053297",
":#	c #022634",
"<#	c #0D2430",
"[#	c #081F69",
"}#	c #1A2527",
"|#	c #06153F",
"1#	c #252921",
"2#	c #050B2D",
"3#	c #2C380F",
"4#	c #343E16",
"5#	c #02092C",
"6#	c #010F4B",
"7#	c #032175",
"8#	c #3C4D53",
"9#	c #002138",
"0#	c #1F468F",
"a#	c #618480",
"b#	c #0A3398",
"c#	c #133783",
"d#	c #4B726F",
"e#	c #0F378A",
"f#	c #618E81",
"g#	c #22479E",
"h#	c #032546",
"i#	c #022426",
"j#	c #002324",
"k#	c #012523",
"l#	c #0A226B",
"m#	c #16233C",
"n#	c #0E1F3C",
"o#	c #193A9B",
"p#	c #758881",
"q#	c #033193",
"r#	c #082449",
"s#	c #0D2D57",
"t#	c #253E75",
"u#	c #212329",
"v#	c #060E38",
"w#	c #282A1E",
"x#	c #0A1024",
"y#	c #070B2D",
"z#	c #060D26",
"A#	c #041843",
"B#	c #052059",
"C#	c #02205D",
"D#	c #021B47",
"E#	c #02224C",
"F#	c #3C5F90",
"G#	c #5C7492",
"H#	c #0B2D91",
"I#	c #0F2C7E",
"J#	c #79958D",
"K#	c #0D2D8D",
"L#	c #84A786",
"M#	c #153396",
"N#	c #042630",
"O#	c #02202F",
"P#	c #002420",
"Q#	c #03202C",
"R#	c #0E3377",
"S#	c #152735",
"T#	c #0E1833",
"U#	c #193890",
"V#	c #73948C",
"W#	c #082E9C",
"X#	c #0D2E71",
"Y#	c #0E2B66",
"Z#	c #517577",
"`#	c #152330",
" $	c #031337",
".$	c #051738",
"+$	c #041E57",
"@$	c #112039",
"#$	c #303B1A",
"$$	c #152C4A",
"%$	c #021F57",
"&$	c #021B4F",
"*$	c #041B49",
"=$	c #083092",
"-$	c #27529F",
";$	c #4261AA",
">$	c #113BA1",
",$	c #0E3198",
"'$	c #29589A",
")$	c #1F429C",
"!$	c #2B52A7",
"~$	c #082BA7",
"{$	c #0A2B67",
"]$	c #162D52",
"^$	c #072C64",
"/$	c #05295A",
"($	c #0E3282",
"_$	c #142758",
":$	c #0A264F",
"<$	c #133195",
"[$	c #53709A",
"}$	c #09299B",
"|$	c #08275E",
"1$	c #0B1D5E",
"2$	c #253E41",
"3$	c #071F52",
"4$	c #253129",
"5$	c #1F2B3C",
"6$	c #041D4E",
"7$	c #0D1F3A",
"8$	c #1F2411",
"9$	c #0E1B24",
"0$	c #03184E",
"a$	c #04194C",
"b$	c #061C4C",
"c$	c #03369C",
"d$	c #45698D",
"e$	c #739371",
"f$	c #1240AC",
"g$	c #0335A8",
"h$	c #1A48A1",
"i$	c #859675",
"j$	c #2557A9",
"k$	c #033595",
"l$	c #1E45AB",
"m$	c #7A9888",
"n$	c #1A47AC",
"o$	c #0235A6",
"p$	c #41679C",
"q$	c #5D7D96",
"r$	c #0335A6",
"s$	c #1A3F9E",
"t$	c #7A948B",
"u$	c #143DA4",
"v$	c #172940",
"w$	c #081C46",
"x$	c #1B2920",
"y$	c #051B47",
"z$	c #11232B",
"A$	c #18262B",
"B$	c #03174F",
"C$	c #09183D",
"D$	c #3C4A23",
"E$	c #313E2C",
"F$	c #051449",
"G$	c #04164E",
"H$	c #05194E",
"I$	c #032CA8",
"J$	c #5C8691",
"K$	c #628C99",
"L$	c #052EAE",
"M$	c #0230A3",
"N$	c #2D559E",
"O$	c #7B9989",
"P$	c #1C40AE",
"Q$	c #042DA3",
"R$	c #244E9F",
"S$	c #6A9596",
"T$	c #103DA4",
"U$	c #446B97",
"V$	c #587E9A",
"W$	c #042BA8",
"X$	c #123E94",
"Y$	c #70988C",
"Z$	c #0F3AA6",
"`$	c #16263F",
" %	c #0B1940",
".%	c #1C2A27",
"+%	c #06163F",
"@%	c #0E1C2F",
"#%	c #181C1E",
"$%	c #06144D",
"%%	c #041344",
"&%	c #0B1818",
"*%	c #0D1417",
"=%	c #061144",
"-%	c #031847",
";%	c #02154B",
"  . + @ # $ % & * * * * * * * * * * * * * * * * * * * * * * * * ",
"= - ; > , ' ) ! * * * * * * * * * * * * * * * * * * * * * * * * ",
"~ { ] ^ / ( _ : * * * * * * * * * * * * * * * * * * * * * * * * ",
"< [ ) } } | 1 2 * * * * * * * * * * * * * * * * * * * * * * 3 4 ",
"* * * * * * * * * * * * * * * * * * * * * * * * * * * * * * 5 6 ",
"* * * * * * * * * * * * * * * * * * * * * * * * * * * * * * 7 8 ",
"* * * * * * * * * * * * * * * * * * * * * * * * * * * * _ 9 0 a ",
"* * * * * * * * * * * * * * * * * * * * * * * * * * * * b c d e ",
"* * * * * * * * * * * * * * * * * * * * * * * * * * * * f g h i ",
"* * * * * * * * * * * * * * * * * * * * * * * * * * * * j k l m ",
"* * * * * * * * * * * * * * * * * * * * * * * * * n o p q r s t ",
"* * * * * * * * * * * * * * * * * * * * * * * * * * u v w x y z ",
"* * * * * * * * * * * * * * * * * * * * * * * * * A B C D E F G ",
"_ _ * * * * * * * * * * * * * * * _ _ * _ * } H I J K L M N O P ",
"Q Q R * * * * * * * * * * * * R Q Q * } * * S T U V W X Y Z `  .",
"..+.@.* * * * * * * * * * * * #.$._ %.4 &._ *.=.-.;.>.,.'.).!.~.",
"{.].^.9 * * * * * * * * * * %./.(._ _.:.S Q <.[.}.|.1.2.3.4.5.6.",
"7.8.9.0.a.* b.c.* * d.e.f.g.h.i.j.k._ l.9 m.n.o.p.q.r.s.t.u.v.w.",
"x.y.z.A.B.C.c.D.* * E.F.G.H.I.J.K.L.9 * ! 5 M.N.O.P.Q.R.S.T.U.V.",
"W.X.Y.Z.`. +.+++* * @+#+$+%+&+*+=+-+* * ! 5 ;+>+,+'+)+!+~+{+]+^+",
"/+(+_+:+<+[+}+}+|+1+c.S 2+3+4+5+6+7+* * 3 7 8+9+0+a+b+c+d+e+f+g+",
"h+i+j+k+l+m+n+o+p+c R * 3 q+r+s+t+u+* * 2+v+w+x+y+z+A+B+C+D+E+F+",
"G+H+I+J+K+L+M+N+O+P+Q+@.m.R+S+T+U+V+* @+W+X+Y+Z+`+ @.@+@@@#@$@%@",
"&@*@=@-@;@>@,@'@)@!@++~@{@]@^@/@(@_@9 ! :@<@[@}@|@1@2@3@4@5@6@7@",
"8@9@0@a@b@c@d@e@f@g@h@i@j@k@l@m@n@o@p@q@r@s@t@u@v@w@x@y@z@A@B@C@",
"D@E@F@G@H@I@J@K@L@M@N@O@j@P@Q@R@S@T@U@V@W@X@Y@Z@`@ #.#+#@###$#%#",
"&#*#=#-#;#>#,#'#)#!#~#q@G+{#]#^#/#(#_#:#<#[#}#|#1#2#3#4#5#6#7#8#",
"9#0#a#b#c#d#e#f#g#h#i#j#k#l#m#n#o#p#q#r#s#t#u#v#w#x#y#z#A#B#C#D#",
"E#F#G#H#I#J#K#L#M#N#O#P#Q#R#S#T#U#V#W#X#Y#Z#`# $.$+$@$#$$$%$&$*$",
"=$-$;$>$,$'$)$!$~${$]$^$/$($_$:$<$[$}$|$1$2$3$4$5$6$7$8$9$0$a$b$",
"c$d$e$f$g$h$i$j$k$l$m$n$o$p$q$r$s$t$u$v$w$x$y$z$A$B$C$D$E$F$G$H$",
"I$J$K$L$M$N$O$P$Q$R$S$T$M$U$V$W$X$Y$Z$`$ %.%+%@%#%$%%%&%*%=%-%;%"};
