/* XPM */
static char *esperanza-1[] = {
/* columns rows colors chars-per-pixel */
"32 32 203 2",
"   c #000418",
".  c #000818",
"X  c #000C21",
"o  c #001021",
"O  c #001029",
"+  c #001429",
"@  c #001829",
"#  c #001C29",
"$  c #081C29",
"%  c #001831",
"&  c #001C31",
"*  c #002031",
"=  c #002431",
"-  c #002039",
";  c #002439",
":  c #002839",
">  c #082031",
",  c #082439",
"<  c #082839",
"1  c #102431",
"2  c #102439",
"3  c #102839",
"4  c #182839",
"5  c #182C39",
"6  c #002842",
"7  c #002C42",
"8  c #00304A",
"9  c #00344A",
"0  c #08304A",
"q  c #08344A",
"w  c #08384A",
"e  c #003452",
"r  c #003852",
"t  c #003C52",
"y  c #003C5A",
"u  c #102C42",
"i  c #182C42",
"p  c #10304A",
"a  c #183042",
"s  c #18344A",
"d  c #183C4A",
"f  c #183C52",
"g  c #213042",
"h  c #213842",
"j  c #21384A",
"k  c #213C4A",
"l  c #293C4A",
"z  c #213C52",
"x  c #293C52",
"c  c #004152",
"v  c #00415A",
"b  c #00455A",
"n  c #084552",
"m  c #08495A",
"M  c #10455A",
"N  c #184552",
"B  c #18455A",
"V  c #184D5A",
"C  c #004963",
"Z  c #004D63",
"A  c #004D6B",
"S  c #005573",
"D  c #005973",
"F  c #00597B",
"G  c #085D73",
"H  c #184D63",
"J  c #10516B",
"K  c #185973",
"L  c #00617B",
"P  c #08617B",
"I  c #18657B",
"U  c #214152",
"Y  c #21495A",
"T  c #294152",
"R  c #29455A",
"E  c #29495A",
"W  c #31454A",
"Q  c #314152",
"!  c #31455A",
"~  c #31495A",
"^  c #394952",
"/  c #394D52",
"(  c #21516B",
")  c #295163",
"_  c #295963",
"`  c #215973",
"'  c #295D73",
"]  c #314D63",
"[  c #315163",
"{  c #31596B",
"}  c #21657B",
"|  c #21697B",
" . c #29657B",
".. c #31697B",
"X. c #396573",
"o. c #42556B",
"O. c #525963",
"+. c #4A616B",
"@. c #426973",
"#. c #4A6973",
"$. c #52616B",
"%. c #526573",
"&. c #5A6973",
"*. c #5A6D7B",
"=. c #63717B",
"-. c #106984",
";. c #186984",
":. c #216D84",
">. c #21758C",
",. c #297184",
"<. c #217994",
"1. c #297994",
"2. c #297D94",
"3. c #396D84",
"4. c #317184",
"5. c #31718C",
"6. c #39798C",
"7. c #317994",
"8. c #317D94",
"9. c #5A7D84",
"0. c #5A798C",
"q. c #6B7584",
"w. c #6B7984",
"e. c #6B7D84",
"r. c #737D84",
"t. c #737D8C",
"y. c #31829C",
"u. c #5A9EAD",
"i. c #73828C",
"p. c #738694",
"a. c #738E94",
"s. c #7B8A94",
"d. c #7B8E94",
"f. c #6B9EAD",
"g. c #6BA2B5",
"h. c #84868C",
"j. c #848E94",
"k. c #8C969C",
"l. c #8C9A9C",
"z. c #949294",
"x. c #94969C",
"c. c #8C96A5",
"v. c #8C9AA5",
"b. c #8C9EA5",
"n. c #949AA5",
"m. c #9C9EA5",
"M. c #84AEBD",
"N. c #84B2BD",
"B. c #9CA2A5",
"V. c #9CA2AD",
"C. c #9CA6AD",
"Z. c #94AAB5",
"A. c #9CB2B5",
"S. c #A5A2A5",
"D. c #A5A6A5",
"F. c #A5AAAD",
"G. c #ADAAAD",
"H. c #ADAEAD",
"J. c #ADAEB5",
"K. c #A5B6BD",
"L. c #ADB2BD",
"P. c #ADB6BD",
"I. c #B5B2B5",
"U. c #B5B6BD",
"Y. c #B5BABD",
"T. c #ADBEC6",
"R. c #B5BEC6",
"E. c #BDBEC6",
"W. c #BDC3C6",
"Q. c #BDC3CE",
"!. c #BDD7DE",
"~. c #C6C7CE",
"^. c #C6CBCE",
"/. c #CECBCE",
"(. c #CECFCE",
"). c #CECFD6",
"_. c #CED3D6",
"`. c #CED7DE",
"'. c #D6D3D6",
"]. c #D6D7D6",
"[. c #D6D7DE",
"{. c #D6DBDE",
"}. c #D6DFDE",
"|. c #DEDBDE",
" X c #DEDFDE",
".X c #DEDFE7",
"XX c #DEE3E7",
"oX c #DEEBEF",
"OX c #E7E3E7",
"+X c #E7E7E7",
"@X c #E7E7EF",
"#X c #E7EBEF",
"$X c #EFEBEF",
"%X c #EFEFEF",
"&X c #EFEFF7",
"*X c #EFF3F7",
"=X c #F7F3F7",
"-X c gray97",
";X c #F7F7FF",
":X c #F7FBFF",
">X c #FFF7F7",
",X c #FFFBFF",
"<X c gray100",
/* pixels */
"<X<X<X<X<X<X<X<X<X<X<X<X<X<X<X<X<X<X<X<X<X<X<X<X<X<X<X<X<X<X<X<X",
"<X<X<X<X<X<X<X<X<X<X<X<X<X,X<X<X<X<X,X,X<X<X<X<X<X<X<X<X<X<X<X<X",
"<X<X<X<X<X<X<X<X<X<X<X,X,X<X<X&X+X<X<X<X,X<X<X<X<X<X<X<X<X<X<X<X",
"<X<X<X<X<X<X<X<X<X<X-X,X<XY.^ 1 $ g =.*X<X-X<X<X<X<X<X<X<X<X<X<X",
"<X<X<X<X<X<X<X<X<X-X,X<Xr.o X + + o . g ^.<X=X<X<X<X<X<X<X<X<X<X",
"<X<X<X<X<X<X<X<X-X,X<Xq.X @ % + @ & & o 1 ^.<X=X<X<X<X<X<X<X<X<X",
"<X<X<X<X<X<X<X=X,X<Xq.X O O , z s & O % O 1 ^.<X=X<X<X<X<X<X<X<X",
"<X<X<X<X<X<X=X,X<Xq.X o j v.[.%X@XQ.*.& + o 2 ^.<X=X<X<X<X<X<X<X",
"<X<X<X<X<X=X,X<Xq.X X o.@X<X<X<X<X<X<XR.R O . 1 ^.<X=X<X<X<X<X<X",
"<X<X<X<X=X,X<Xq.X % %.=X<X<X<X<X<X<X<X<X=Xc.! + $ W.<X=X<X<X<X<X",
"<X<X<X=X-X<Xq.X > u .X<X<X<X<X<X<X<X<X<X<X<X<XXX~.XX<X<X=X<X<X<X",
"<X<X,X-X<Xw.o 2 u < p.<X<X<X<X_.s.#.+.&.r.k.J.(.(.B.O./.<X%X<X<X",
"<X<X=X<XV.X u s s s f `.<X<XC.d t b c 9 7 ; * # @ +   h =X<X-X<X",
"<X<X<X%X4 , z z U U f 0.<X<Xd.n ;.;.I K H B f s a a 3 X t.<X=X<X",
"<X=X<XE.o k ! z p 0 q r T.<X}._ :.>.:.} ` ( Y U j j s @ Q <X-X<X",
"<X=X<Xn.@ ! s - - 7 e t | -X<X9.| 2.1.,. .' ) E T T x > a :X,X<X",
"<X=X<XY.+ i & * ; 8 t C A M.<XK.m 2.y.7.5...{ [ ] ~ j + l <X-X<X",
"<X,X<X@X> + & - 6 8 y A S -.oX=XV D <.8.6.3.X.{ E s * X =.<X=X<X",
"<X<X%X<Xj.X & - 6 8 y Z D D u.<Xa.b L P G J M w : & + 5 +X<X=X<X",
"<X<X=X-X<X$.X * ; 8 t C A S F !.{.c D D A v 9 6 ; @ # Y.<X%X<X<X",
"<X<X<X%X,X<X$.o ; 7 9 t 4.f.g.N.<X@.C S C v 9 6 & & L.<X%X<X<X<X",
"<X<X<X<X$X,X<X$.+ ; 9 Z.:X<X<X<X<XA.9 Z b r 7 * & L.<X%X-X<X<X<X",
"<X<X<X<X<X%X,X<X$.O b.<X<X<X<X<X<X%XN t t 8 - * L.<X%X-X<X<X<X<X",
"<X<X<X<X<X<X%X<X<Xi.*X<X<X<X<X<X<X<Xe.6 9 ; * L.<X%X-X<X<X<X<X<X",
"<X<X<X<X<X<X<X%X<X<X<X<X<X<X<X<X<X<XC.* ; = L.<X%X,X<X<X<X<X<X<X",
"<X<X<X<X<X<X<X<X%X>X<X<X<X<X<X<X<X<Xl.o * P.<X&X,X<X<X<X<X<X<X<X",
"<X<X<X<X<X<X<X,X<X+X-X<X<X<X<X<X<X<XW $ P.<X%X%X,X,X<X<X<X<X<X<X",
"<X<X<X<X,X=X%X@XXX X/.%X<X<X<X<X<XF./ _.<X|.'. X+X$X=X-X,X<X<X<X",
"<X<X<X;X&X+X{.).W.U.H.m._.<X<X<X<X@X<X,XY.S.I.E.^.]..X$X-X,X<X<X",
"<X<X<X-X%XOX[.^.E.J.C.x.h.D.(..XOXOXE.x.z.m.F.U.~._. X#X=X,X<X<X",
"<X<X<X,X-X&X@X.X[.(.~.E.U.I.G.B.B.S.H.I.Y.W.^.'.|.+X%X=X,X<X<X<X",
"<X<X<X<X<X,X;X-X=X&X$X#X+XOXOX X X.XOX+X@X$X%X=X-X;X,X<X<X<X<X<X"
};
