/* XPM */
static char * etw_xpm[] = {
"32 32 159 2",
"  	c None",
". 	c #FFFFFF",
"+ 	c #F6F6F6",
"@ 	c #555555",
"# 	c #000000",
"$ 	c #319A00",
"% 	c #EFEEEF",
"& 	c #8E8E8E",
"* 	c #1C1C1C",
"= 	c #434243",
"- 	c #302F30",
"; 	c #868686",
"> 	c #9F9F9F",
", 	c #E3E3E3",
"' 	c #C7C6C7",
") 	c #AAAAAA",
"! 	c #EDECED",
"~ 	c #B5C9AB",
"{ 	c #2C9000",
"] 	c #176400",
"^ 	c #041300",
"/ 	c #C1D0BD",
"( 	c #1B6C00",
"_ 	c #2A8B00",
": 	c #145D00",
"< 	c #227B00",
"[ 	c #268300",
"} 	c #498239",
"| 	c #D1D0D1",
"1 	c #2C7513",
"2 	c #1F7400",
"3 	c #2D9200",
"4 	c #679D55",
"5 	c #DAD9DA",
"6 	c #5F5E5F",
"7 	c #639555",
"8 	c #A3D28E",
"9 	c #C6C6C6",
"0 	c #E4E3E4",
"a 	c #020202",
"b 	c #23421C",
"c 	c #105500",
"d 	c #B7D6AA",
"e 	c #A3A1A3",
"f 	c #131313",
"g 	c #8F8E8F",
"h 	c #051C00",
"i 	c #AFC6AA",
"j 	c #85B871",
"k 	c #56A730",
"l 	c #B3CEAA",
"m 	c #3A393A",
"n 	c #9CC38E",
"o 	c #B8C6B4",
"p 	c #76BC55",
"q 	c #727172",
"r 	c #C8C6C8",
"s 	c #0B2D00",
"t 	c #D6E1D0",
"u 	c #4C4C4C",
"v 	c #B6B3B6",
"w 	c #ADAAAD",
"x 	c #375530",
"y 	c #83957B",
"z 	c #DBD9DB",
"A 	c #63A943",
"B 	c #D0D0D0",
"C 	c #ABAAAB",
"D 	c #BFBDBF",
"E 	c #798E73",
"F 	c #B7BDB5",
"G 	c #B5B3B5",
"H 	c #565556",
"I 	c #ACAAAC",
"J 	c #708E69",
"K 	c #6DB24C",
"L 	c #125300",
"M 	c #020900",
"N 	c #696869",
"O 	c #8A9787",
"P 	c #C9D0C7",
"Q 	c #AAC5A1",
"R 	c #449E1C",
"S 	c #196300",
"T 	c #747B72",
"U 	c #9A979A",
"V 	c #485E43",
"W 	c #C0C6BE",
"X 	c #509239",
"Y 	c #195700",
"Z 	c #205513",
"` 	c #737173",
" .	c #2E4C26",
"..	c #215E13",
"+.	c #3C7130",
"@.	c #9DB398",
"#.	c #256613",
"$.	c #9CA19A",
"%.	c #605E60",
"&.	c #1E4C13",
"*.	c #44713A",
"=.	c #336826",
"-.	c #367F1C",
";.	c #CEE1C6",
">.	c #5F8456",
",.	c #878487",
"'.	c #626860",
").	c #0E4C00",
"!.	c #567B4D",
"~.	c #678460",
"{.	c #0C4200",
"].	c #0D3700",
"^.	c #608E55",
"/.	c #82977C",
"(.	c #3A6830",
"_.	c #647160",
":.	c #757B73",
"<.	c #4D4C4D",
"[.	c #151C13",
"}.	c #43683A",
"|.	c #2F4A26",
"1.	c #2E701C",
"2.	c #A1BB98",
"3.	c #8BA186",
"4.	c #A5B3A2",
"5.	c #4A6843",
"6.	c #072600",
"7.	c #192F13",
"8.	c #2A3926",
"9.	c #262626",
"0.	c #092F00",
"a.	c #52684D",
"b.	c #1B6100",
"c.	c #41961C",
"d.	c #C4D7BD",
"e.	c #93A190",
"f.	c #3F553A",
"g.	c #0E4000",
"h.	c #7EA871",
"i.	c #799772",
"j.	c #2C4226",
"k.	c #1A3913",
"l.	c #0B3900",
"m.	c #DFEADA",
"n.	c #415E3A",
"o.	c #657B60",
"p.	c #A5AAA3",
"q.	c #2F5526",
"r.	c #4F554D",
"s.	c #1E4013",
"t.	c #124800",
"u.	c #407930",
"v.	c #3A7726",
"w.	c #315E26",
"x.	c #3D4C3A",
"y.	c #145100",
"z.	c #092400",
"A.	c #0E3500",
"B.	c #103F00",
"                                                                ",
"                                                                ",
"                    . + . @ # # #                             $ ",
"              % + . . . . & * # # # #                         $ ",
"            . . . . . . . . + = # # # - ;                     $ ",
"          > , . . . . . . . . + - - ' . . .                   $ ",
"        # # ) . . . . . . . . . ! . . . . . .                 $ ",
"      # # # ) . . . . . . . . . + . . . . . . .               $ ",
"      # # # ) . . . . . . . . . . . . . . . . . ~             { ",
"] ] ^ # # # ) . . . . . . . . + . . . . . . . . / ] ( _ ( : < _ ",
"[ } # # # * + . . . . . . . . | , . . . . . . . . 1 2 ( : 2 ( 3 ",
"[ 4 @ # - , . . . . . . . 5 6 # = . . . . . . . . 7 ( ( 2 ( ] _ ",
"( 8 9 @ + . . . . 0 . 5 6 # a # # @ . . . . . . . b ( ( c : 2 _ ",
"2 d + . . . . . . + e f # # # # # # g . . . . . , h ] ( 2 ] 2 $ ",
"] i + . . . . . . . @ # # # # # # # # ) . . . . ) h : ] 2 : j k ",
"[ l . . . . . . . . @ # # # # # # # # m 0 ! . . & h : ] n o . p ",
"( 4 . . . . . . . . @ # # # # # # # # q r | + . @ s 4 t ! ! ! p ",
"] } . . . . . . . . @ # # # # # # # u v w w w r x y + + + ! z A ",
"c : * B . . . . . + C # # # # # # * D w w w w w E F + D 0 r 0 A ",
"] : h f , . . . . | v G H # # # - I w w w w w w J z z 0 0 z + K ",
"] 2 L M - ! ! z v w w w r I = N D w w w w w w O P 0 z + + z Q R ",
": c ( S f T w w w w w w w w w w w w w w w w U V W r | 0 Q X [ [ ",
"2 ( c ( Y Z w w w w w w w w w w w w w w w `  ...+.@.o 4 < 2 2 $ ",
"] 2 ( < ] c #.$.w w w w w w w w w w w w %.&...*.=.c ( ] ] 2 ( 3 ",
"( : < < c -.;.>.w w w w w w w w w w ,.'.).!...~.*.{.].[ ] c ( _ ",
"] : : ] c ^.| /.(._.w w w :.<.f ^ [.&...c =.*.E }.|.h L ] ] < _ ",
"( ( ( ] 1.2.3.4.~.5.6.7.8.h 9.0.a.=.*.E #.*.E !.~.&.].b.] [ : _ ",
"] 2 c.d.0 ! r e.3.E ~./.=.c ~.c ....=.*.*.Z f.a._.g.h g.< ] ( _ ",
"[ h.! 0 . 0 | i.J ~.E !.J ..!.~.!.!.!...!.j.O  .k.6.0.l.( ( ] _ ",
"m.+ z ! ! . 0 F J E ~.~.~.!.!.*.=.$.}.!.0.n.o. .6.^ g.h S 2 2 $ ",
"! | 0 0 0 + 0 D $.3.J /.!.=.p.~.!.*.q.r.o.r.s.0.^ t.s t.[ ] ] $ ",
"z ! z | 0 | z | r W u.v.!.v.0.w.7.x.m f.{.0.6.s y.z.A.B.: ( 2 $ "};
