/* XPM */
static char * euler_32_xpm[] = {
"32 32 287 2",
"  	c None",
". 	c #E8DADA",
"+ 	c #E5D6D6",
"@ 	c #DEC9C9",
"# 	c #D8BFBF",
"$ 	c #CCABAB",
"% 	c #B68787",
"& 	c #D7BEBE",
"* 	c #C6ACAC",
"= 	c #C1A6A6",
"- 	c #D1B3B3",
"; 	c #C59F9F",
"> 	c #D0B2B2",
", 	c #C6A1A1",
"' 	c #C5A0A0",
") 	c #D6BBBB",
"! 	c #DCC5C5",
"~ 	c #DBC4C4",
"{ 	c #E0CCCC",
"] 	c #D5B9B9",
"^ 	c #D6BCBC",
"/ 	c #E3D1D1",
"( 	c #CDAEAE",
"_ 	c #D1B2B2",
": 	c #CEADAD",
"< 	c #CEAEAE",
"[ 	c #D8BEBE",
"} 	c #DDC6C6",
"| 	c #DCC6C6",
"1 	c #CDADAD",
"2 	c #CCACAC",
"3 	c #B28181",
"4 	c #DDC8C8",
"5 	c #ACA1A1",
"6 	c #A19999",
"7 	c #FBF8F8",
"8 	c #FEFEFE",
"9 	c #F0E5E5",
"0 	c #CDACAC",
"a 	c #D0B1B1",
"b 	c #C8A5A5",
"c 	c #C09898",
"d 	c #DCD6D4",
"e 	c #A9A29D",
"f 	c #C2B1AF",
"g 	c #D4B8B8",
"h 	c #D4B9B9",
"i 	c #C7A2A2",
"j 	c #C9A5A5",
"k 	c #F5EEEE",
"l 	c #E7D8D8",
"m 	c #E2D0D0",
"n 	c #CEAFAF",
"o 	c #CFB0B0",
"p 	c #E1F3E1",
"q 	c #87B687",
"r 	c #7F997F",
"s 	c #D9C0C0",
"t 	c #F2E9E9",
"u 	c #C9A7A7",
"v 	c #D4BCBB",
"w 	c #81BB81",
"x 	c #3A923A",
"y 	c #7BA47B",
"z 	c #CBABAB",
"A 	c #CAA8A8",
"B 	c #D5BCBB",
"C 	c #9DD69D",
"D 	c #69AD69",
"E 	c #84B484",
"F 	c #F6F1F1",
"G 	c #C7A3A3",
"H 	c #819581",
"I 	c #586A58",
"J 	c #BCC6BC",
"K 	c #E4D2D2",
"L 	c #EADBDB",
"M 	c #C29B9B",
"N 	c #8DA48D",
"O 	c #003400",
"P 	c #092D09",
"Q 	c #657A65",
"R 	c #CEB0B0",
"S 	c #EFE4E4",
"T 	c #D7BDBD",
"U 	c #C5A1A1",
"V 	c #002E00",
"W 	c #002400",
"X 	c #012601",
"Y 	c #597C59",
"Z 	c #CBA8A8",
"` 	c #C8A6A6",
" .	c #D5BBBB",
"..	c #8D9C8D",
"+.	c #002100",
"@.	c #002000",
"#.	c #002500",
"$.	c #2A5E2A",
"%.	c #F7F2F2",
"&.	c #E0CBCB",
"*.	c #CBA9A9",
"=.	c #838C83",
"-.	c #001400",
";.	c #001700",
">.	c #274527",
",.	c #B8C7B8",
"'.	c #E5D4D4",
").	c #BEAEA7",
"!.	c #D5DAD4",
"~.	c #8F9A8F",
"{.	c #304530",
"].	c #304B30",
"^.	c #7A907A",
"/.	c #F8F3F3",
"(.	c #D3B7B7",
"_.	c #EEE4E4",
":.	c #CCAAAA",
"<.	c #97AE97",
"[.	c #85A185",
"}.	c #748466",
"|.	c #617A5D",
"1.	c #2A6B2A",
"2.	c #347034",
"3.	c #6B8F6B",
"4.	c #6C996C",
"5.	c #F3EAEA",
"6.	c #E1CDCD",
"7.	c #EADCDC",
"8.	c #C3AEA8",
"9.	c #D8D8D1",
"0.	c #B0CFB0",
"a.	c #3F7A3F",
"b.	c #024302",
"c.	c #0E470E",
"d.	c #224A22",
"e.	c #557B55",
"f.	c #A4BBA4",
"g.	c #E8EFE8",
"h.	c #E4D3D3",
"i.	c #DDC7C7",
"j.	c #F1E8E8",
"k.	c #004100",
"l.	c #004400",
"m.	c #003E00",
"n.	c #003100",
"o.	c #0C3A0C",
"p.	c #5D865D",
"q.	c #BFCEBF",
"r.	c #DFCDCC",
"s.	c #EEE2E2",
"t.	c #E3D0D0",
"u.	c #E4D4D4",
"v.	c #8CAB8C",
"w.	c #003A00",
"x.	c #003900",
"y.	c #003700",
"z.	c #064406",
"A.	c #619061",
"B.	c #C6BEB3",
"C.	c #C9A6A6",
"D.	c #EEE3E3",
"E.	c #D6CEC8",
"F.	c #D9DBD1",
"G.	c #DBE8DB",
"H.	c #869D86",
"I.	c #003300",
"J.	c #003800",
"K.	c #003F00",
"L.	c #003C00",
"M.	c #0C480C",
"N.	c #898972",
"O.	c #D6E6D6",
"P.	c #72A472",
"Q.	c #609460",
"R.	c #497F44",
"S.	c #437C41",
"T.	c #4E874E",
"U.	c #2D602D",
"V.	c #002F00",
"W.	c #003500",
"X.	c #003B00",
"Y.	c #125912",
"Z.	c #929B7E",
"`.	c #72A272",
" +	c #196419",
".+	c #0A590A",
"++	c #035303",
"@+	c #004F00",
"#+	c #004E00",
"$+	c #004C00",
"%+	c #014401",
"&+	c #487B48",
"*+	c #B2A69B",
"=+	c #7FAE7F",
"-+	c #025602",
";+	c #005200",
">+	c #005000",
",+	c #004900",
"'+	c #003600",
")+	c #003000",
"!+	c #014601",
"~+	c #397239",
"{+	c #9F9E8A",
"]+	c #DFCACA",
"^+	c #7FAC7F",
"/+	c #0D5E0D",
"(+	c #005800",
"_+	c #005500",
":+	c #005100",
"<+	c #004500",
"[+	c #003D00",
"}+	c #004B00",
"|+	c #024702",
"1+	c #284813",
"2+	c #67734E",
"3+	c #CAB6B1",
"4+	c #EFE5E5",
"5+	c #94A485",
"6+	c #5C945C",
"7+	c #387C38",
"8+	c #196919",
"9+	c #125A12",
"0+	c #124F12",
"a+	c #125712",
"b+	c #195519",
"c+	c #165116",
"d+	c #004D00",
"e+	c #004800",
"f+	c #004200",
"g+	c #163400",
"h+	c #0A4003",
"i+	c #8CAF88",
"j+	c #CFB1B1",
"k+	c #D5BABA",
"l+	c #779F77",
"m+	c #024502",
"n+	c #004300",
"o+	c #004600",
"p+	c #004A00",
"q+	c #133A00",
"r+	c #064500",
"s+	c #1F701F",
"t+	c #D6E5D6",
"u+	c #DFCBCB",
"v+	c #E3D2D2",
"w+	c #DAC3C3",
"x+	c #D3B6B6",
"y+	c #B0C8B0",
"z+	c #538353",
"A+	c #407040",
"B+	c #1B531B",
"C+	c #074500",
"D+	c #064806",
"E+	c #729B70",
"F+	c #D2B5B5",
"G+	c #E8D9D9",
"H+	c #90B190",
"I+	c #4E894E",
"J+	c #166416",
"K+	c #014A00",
"L+	c #143A00",
"M+	c #065700",
"N+	c #065206",
"O+	c #7BA575",
"P+	c #D4B7B7",
"Q+	c #B0C0AA",
"R+	c #767E63",
"S+	c #407C3B",
"T+	c #256A24",
"U+	c #798963",
"V+	c #E2CFCF",
"W+	c #E9DBDB",
"X+	c #E5D5D5",
"Y+	c #D8DBD2",
"Z+	c #B6C0AB",
"`+	c #B2A698",
" @	c #D1B5B5",
".@	c #E7D9D9",
"+@	c #D9C1C1",
"@@	c #EBDEDE",
"#@	c #D6BDBD",
"$@	c #D1B4B4",
"%@	c #D8C0C0",
"&@	c #E1CECE",
"*@	c #EDE2E2",
"=@	c #E2CECE",
"-@	c #C49E9E",
"          . + @ # $ $ $ % $ & * = - ; - > , - $ ' ) ! ~ { ] ^ / ",
"( # _ : < : [ } | 1 2 < 3 - 4 5 6 7 8               9 ! ! 0 # a ",
"b                       c   d e f g h $ 0 $ 1 < i j @ k     l m ",
"n                       o p q r                 $           s t ",
"u                       v w x y                 z           A   ",
"(                       B C D E                 1           n   ",
"h F                     G     H I J             i           A   ",
"K L                     M     N O P Q           >           R   ",
"S T                     U     N V W X Y         Z           `   ",
"  1                      .    ..+.@.#.$.        $         %.&.  ",
"  *.                    ^     =.-.;.>.,.        n         '.'.  ",
"  $                     ).!.~.{.].^.          /.T         (._.  ",
"  :.                <.[.}.|.1.2.3.4.          5.6.        < 7.  ",
"  :.                    8.9.0.a.b.c.d.e.f.g.  '.h.        :.    ",
"  ^                     i.j.  [.k.l.m.n.o.p.q.r.s.        2     ",
"  t..                   u.j.  v.k.w.x.O y.z.A.B.j.        C.    ",
"  D.^                   E.F.G.H.I.w.J.K.L.y.M.N.          &     ",
"  K :.          O.P.Q.Q.R.S.T.U.V.W.X.X.w.x.Y.Z.          6.    ",
"    n         `. +.+++@+#+$+l.W.I.O W.X.K.%+&+*+          l     ",
"    C.      =+-+;+>+#+,+'+y.)+n.'+J.X.y.L.!+~+{+          ]+    ",
"    o       ^+/+(+_+:+@+<+O J.I.[+w.K.}+}+l.|+1+2+3+4+  *.      ",
"    ^         5+6+7+8+9+0+a+b+c+}+d+e+k.f+f+k.g+h+i+> g j+      ",
"    t.    k+T                 l+m+n+o+l.#+$+p+q+r+s+t+  u+      ",
"    v+w+x+@                   y+z+A+B+m+p+k.k.g+C+D+E+g F+      ",
"    s $ G+                            H+I+J+K+L+M+N+O+-         ",
"      # P+l                                 Q+R+S+T+U+V+        ",
"              4 *.W+                        h.X+Y+Z+`+          ",
"                  4  @.@                    +@7.  <             ",
"                      s { {                 1 @@{ #@            ",
"                              { $@G+        $@'.%@              ",
"                                  w+w+&@    g b *@              ",
"                                          =@-@s                 "};
