/* XPM */
static char *fifteen[] = {
/* columns rows colors chars-per-pixel */
"48 48 238 2",
"   c #060606",
".  c #0E0E0E",
"X  c #151515",
"o  c #181717",
"O  c #181817",
"+  c #191918",
"@  c #20201F",
"#  c #232222",
"$  c #242423",
"%  c #252524",
"&  c #272726",
"*  c #292928",
"=  c #2B2B2A",
"-  c #2D2D2C",
";  c #302F2E",
":  c #353433",
">  c #353533",
",  c #363534",
"<  c #363635",
"1  c #383736",
"2  c #3B3A39",
"3  c #3D3C3B",
"4  c #3E3D3C",
"5  c #3E3E3C",
"6  c #3F3E3D",
"7  c #403F3E",
"8  c #424240",
"9  c #444442",
"0  c #454442",
"q  c #464543",
"w  c #464644",
"e  c #474644",
"r  c #474745",
"t  c #4A4A48",
"y  c #52514F",
"u  c #535351",
"i  c #575654",
"p  c #585855",
"a  c #595856",
"s  c #5C5B59",
"d  c #5D5C5A",
"f  c #61605E",
"g  c #676764",
"h  c #696866",
"j  c #6B6A68",
"k  c #6C6B69",
"l  c #6E6D6A",
"z  c #71706D",
"x  c #71706E",
"c  c #73726F",
"v  c #747370",
"b  c #777673",
"n  c #7B7A77",
"m  c #7C7B78",
"M  c #848380",
"N  c #858481",
"B  c #868582",
"V  c #878682",
"C  c #888783",
"Z  c #8B8A86",
"A  c #8F8E8A",
"S  c #8F8E8B",
"D  c #91908C",
"F  c #91908D",
"G  c #969491",
"H  c #979692",
"J  c #9C9B97",
"K  c #9D9C98",
"L  c #9E9C98",
"P  c #9F9D99",
"I  c #A09F9B",
"U  c #A2A09D",
"Y  c #A2A19D",
"T  c #A3A19E",
"R  c #A8A7A3",
"E  c #A9A7A3",
"W  c #ACAAA6",
"Q  c #ACABA7",
"!  c #ADACA8",
"~  c #AFAEAA",
"^  c #B0AFAB",
"/  c #B1AFAB",
"(  c #B1B0AB",
")  c #B1B0AC",
"_  c #B2B1AD",
"`  c #B3B1AD",
"'  c #B3B2AE",
"]  c #B4B2AE",
"[  c #B4B3AE",
"{  c #B4B3AF",
"}  c #B5B3AF",
"|  c #B5B4B0",
" . c #B6B5B0",
".. c #B6B5B1",
"X. c #B7B6B1",
"o. c #B7B6B2",
"O. c #B8B6B2",
"+. c #B8B7B3",
"@. c #B9B7B3",
"#. c #B9B8B3",
"$. c #B9B8B4",
"%. c #BAB8B4",
"&. c #BAB9B4",
"*. c #BAB9B5",
"=. c #BBB9B5",
"-. c #BBBAB5",
";. c #BBBAB6",
":. c #BCBAB6",
">. c #BCBBB6",
",. c #BDBBB7",
"<. c #BDBCB8",
"1. c #BEBCB8",
"2. c #BFBDB9",
"3. c #BFBEB9",
"4. c #C0BEBA",
"5. c #C0BFBA",
"6. c #C1C0BB",
"7. c #C2C0BC",
"8. c #C3C1BC",
"9. c #C3C1BD",
"0. c #C3C2BD",
"q. c #C4C2BD",
"w. c #C4C2BE",
"e. c #C4C3BE",
"r. c #C5C3BE",
"t. c #C6C4BF",
"y. c #C6C4C0",
"u. c #C6C5C0",
"i. c #C7C5C0",
"p. c #C7C5C1",
"a. c #C8C6C2",
"s. c #C8C7C2",
"d. c #CAC8C3",
"f. c #CBC9C4",
"g. c #CCCAC5",
"h. c #CCCBC6",
"j. c #CDCBC6",
"k. c #CDCCC7",
"l. c #CECCC7",
"z. c #CECCC8",
"x. c #CFCDC8",
"c. c #CFCDC9",
"v. c #CFCEC9",
"b. c #D0CEC9",
"n. c #D0CECA",
"m. c #D1CFCA",
"M. c #D1CFCB",
"N. c #D1D0CB",
"B. c #D2D0CB",
"V. c #D1D1CD",
"C. c #D2D0CC",
"Z. c #D2D1CC",
"A. c #D2D1CD",
"S. c #D3D1CC",
"D. c #D2D2CD",
"F. c #D3D2CD",
"G. c #D4D2CD",
"H. c #D5D2CD",
"J. c #D5D3CE",
"K. c #D6D4CF",
"L. c #D7D4CF",
"P. c #D7D5D0",
"I. c #D8D5D0",
"U. c #D8D6D0",
"Y. c #D8D6D1",
"T. c #D9D6D1",
"R. c #D9D7D1",
"E. c #D9D7D2",
"W. c #DAD7D2",
"Q. c #DAD8D2",
"!. c #DAD8D3",
"~. c #DBD8D3",
"^. c #DBD9D4",
"/. c #DBD9D5",
"(. c #DCDAD4",
"). c #DCDAD5",
"_. c #DDDAD5",
"`. c #DDDBD5",
"'. c #DCDBD6",
"]. c #DDDBD6",
"[. c #DEDCD7",
"{. c #DEDDD7",
"}. c #DFDDD8",
"|. c #DFDED8",
" X c #E0DED9",
".X c #E1DFD9",
"XX c #E1DFDA",
"oX c #E2E0DA",
"OX c #E2E0DB",
"+X c #E3E0DB",
"@X c #E3E1DB",
"#X c #E3E1DC",
"$X c #E4E2DC",
"%X c #E4E2DD",
"&X c #E5E3DD",
"*X c #E5E3DE",
"=X c #E6E4DE",
"-X c #E6E4DF",
";X c #E7E5DF",
":X c #E7E5E0",
">X c #E7E6E0",
",X c #E8E6E0",
"<X c #E8E7E1",
"1X c #E9E6E1",
"2X c #E8E7E2",
"3X c #E8E7E3",
"4X c #E9E7E2",
"5X c #EAE8E2",
"6X c #EAE8E3",
"7X c #EAE9E3",
"8X c #EBE9E3",
"9X c #EBE9E4",
"0X c #ECEAE4",
"qX c #ECEAE5",
"wX c #EDEBE5",
"eX c #ECEBE6",
"rX c #EDEBE6",
"tX c #EEECE6",
"yX c #EEECE7",
"uX c #EFECE7",
"iX c #F0EEE8",
"pX c #F0EEE9",
"aX c #F1EFE9",
"sX c #F2F0EA",
"dX c #F2F1EB",
"fX c #F3F1EB",
"gX c #F3F1EC",
"hX c #F4F2EC",
"jX c #F4F2ED",
"kX c #F5F3EE",
"lX c #F5F4EF",
"zX c #F6F4EF",
"xX c #F7F4EF",
"cX c #F8F5EF",
"vX c #F9F6F1",
"bX c #F9F7F1",
"nX c #F9F7F2",
"mX c #FCFAF4",
/* pixels */
"J.J.J.J.J.J.J.J.J.J.J.J.J.J.J.J.J.J.J.J.J.J.J.J.J.J.J.J.J.J.J.J.G.K.G.K.G.K.G.K.G.K.G.K.K.G.K.G.",
"J.J.J.J.J.J.B.J.J.J.J.J.J.J.J.J.J.J.J.J.J.J.J.J.J.J.J.J.J.J.J.J.K.G.K.G.K.G.K.G.K.G.K.G.G.K.G.K.",
"J.J.B.K.J.J.J.J.J.J.J.J.J.J.J.J.J.J.J.J.J.J.M.J.m.m.m.m.m.m.m.m.m.m.m.m.m.m.m.m.m.m.m.M.K.B.G.G.",
"J.J.K.v.g.K.J.J.J.J.J.J.J.J.J.J.J.J.J.J.J.J.J.J. X%X%X%X&X&X&X&X&X&X&X&X&X&X&X&X&X&X&X$XG.G.K.K.",
"J.J.Y.w.&.Y.J.J.J.J.J.J.J.J.J.J.J.J.J.J.J.J.J.J.xXaX0X0XwXwXwXwXwXwXwXwXwXwXwXwXwX0XtXl.M.K.G.K.",
"J.J.Y.w.>.Y.J.J.J.J.J.J.J.J.J.J.J.J.J.J.J.J.J.J.fXH.l.m.m.m.m.m.m.m.m.m.m.m.m.M.l.M.l.( M.K.B.K.",
"J.J.Y.w.>.Y.J.J.J.J.J.J.J.J.J.J.J.J.J.J.J.J.J.M.hXW.J.J.J.J.J.J.G.K.G.K.G.K.K.G.K.K.B.[ B.K.G.G.",
"J.M.Y.w.>.Y.B.J.J.J.J.J.J.J.J.J.J.J.J.J.J.J.J.J.hX~.J.J.J.J.J.J.K.G.K.G.K.G.K.K.G.K.M.[ B.K.G.K.",
"J.J.L.w.>.T.M.H.L.J.J.J.J.J.J.J.K.G.K.G.K.G.K.M.hX~.B.K.B.K.B.B.B.K.K.K.B.K.K.B.D.K.M.{ B.J.B.J.",
"J.J.Y.w.>.T.H.H.H.L.J.J.J.J.J.J.G.K.G.K.G.K.K.M.jX~.B.K.K.K.B.P.K.M.K.M.K.K.B.K.D.K.M.{ B.K.J.J.",
"J.J.Y.w.>.Y.J.H.J.J.J.J.J.J.J.J.K.G.K.G.K.G.K.M.jXW.B.K.K.K.'.B.K.K.J.R.K.m.G.K.K.K.B.o.B.K.J.K.",
"J.J.Y.w.>.Y.J.H.J.J.J.J.J.J.J.J.G.K.G.K.G.K.K.K.jXW.B.K.M.'.N X N OXB.l.& 0 '.B.K.B.B.[ B.K.B.J.",
"J.M.Y.w.>.Y.M.H.J.J.J.J.J.J.J.J.K.G.K.G.K.B.K.M.xXW.J.J.J.J.1.p c &XoXd 5 w W.B.M.K.M.[ B.K.B.J.",
"J.J.Y.w.>.Y.J.J.J.J.J.J.J.J.J.J.G.K.G.K.K.K.K.M.fXW.M.J.J.v.aXc h dXF t q.9 ;XM.K.K.M.[ B.K.K.K.",
"J.B.Y.w.>.Y.J.J.J.J.J.J.J.J.J.J.K.G.K.G.K.B.K.B.fXW.M.J.J.m.;Xl k mXp @ q   V {.M.K.B.[ B.K.B.J.",
"J.J.Y.w.>.Y.J.J.J.J.J.J.J.J.J.J.G.K.G.K.K.K.K.B.xXW.J.J.M.{.c O O c f.U N ; >.R.B.K.B.[ B.K.J.J.",
"J.J.Y.w.&.J.m.m.m.m.m.m.m.m.m.m.M.m.m.m.M.M.M.M.dXW.M.K.G.K.t.6.9.e.~.OX'.v.'.B.K.J.M.[ B.K.B.J.",
"J.J.Y.9.w.9X%X;X;X;X;X;X;X;X;X;X;X;X;X;X;X;X;X;XxXW.M.K.K.G.R.W.W.P.B.B.B.K.B.K.J.K.B.[ B.K.K.K.",
"J.B.~.5.B.nX;X9X0X0X0X;X0X7X7X7X;XwX;XwX;XtXtXD.7X(.M.K.B.K.B.K.B.K.K.K.K.B.K.B.B.K.B.[ B.K.B.J.",
"J.J.Y.5.B.:Xg.m.m.m.m.m.m.m.m.m.B.m.M.M.M.l.K.( ;X'.D.K.K.B.K.K.K.K.B.K.K.J.K.J.K.K.D.[ B.K.J.J.",
"J.B.W.5.J.7Xm.J.J.J.J.J.J.J.J.J.K.G.G.K.G.K.W.#.>X(.B.D.K.M.K.M.D.K.B.D.D.B.K.D.B.K.M./ D.K.J.K.",
"J.J.Y.5.J.;Xm.J.J.J.J.J.J.J.J.J.G.K.K.G.G.G.W.} >XOXP.!.W.W.W.W.W.W.W.W.W.W.W.W.W.W.P.o.B.K.B.J.",
"J.J.E.4.J.7Xm.J.B.J.J.J.J.J.J.J.G.G.G.K.G.G.R.#.OXe.*.;.-.-.-.-.-.-.-.-.-.-.-.-.&.;.&.! J.K.B.J.",
"J.J.E.4.J.;Xl.J.J.J.J.J.K.J.B.J.W.L.G.G.G.G.R.#.{.|.(.(.{.(.(.(.'.'.'.'.'.'.~.`.(.(.{.P.B.K.J.K.",
"J.B.E.4.B.7Xm.J.J.J.Y.m.g.J.Y.m.>.m.`.J.J.J.Y.o.3XeXOX%X%X%X%X%X$X$X%X%X%X%X%X%X%X%X%X5.M.J.J.J.",
"J.J.E.4.J.7Xv.J.M.`.W % e :X/ 6 t 1 J '.m.J.Y.o.>XP.v.m.m.m.m.m.m.m.m.m.m.m.m.m.m.M.m./ J.J.B.J.",
"J.B.E.4.J.7Xm.J.J.P.p.S 6  Xs.F m - C %Xm.J.Y.o.>X'.B.J.J.J.J.J.J.J.K.K.J.J.J.J.J.J.B.] B.J.J.J.",
"J.J.E.4.B.;Xv.J.J.m.%X] 6 `.OX] i % F  Xm.J.Y.o.>X'.J.K.J.J.J.J.J.J.J.K.J.J.J.J.J.J.J.[ B.J.B.J.",
"J.J.E.4.J.7Xm.J.J.J.`.R 2  X5.X.hXs g ;Xm.J.Y.o.;X`.M.J.J.K.J.M.B.K.B.M.B.B.K.M.J.J.M.[ B.J.J.J.",
"J.J.E.4.B.7Xm.J.m.`.P # + t / : - 0 5.Y.B.B.Y.o.;X'.B.J.J.B.P. XW.B.~.$X;X'.J.J.B.J.B.[ J.J.J.J.",
"J.J.E.4.J.7Xv.J.J.J.m.p.g.p.Y.J.t.Y.T.J.J.J.Y.X.7X`.J.J.J.P.d.P 5.'.#.F C T W.J.J.K.B.[ B.J.M.J.",
"J.B.Y.5.B.;Xm.J.J.J.J.Y.Y.Y.J.J.Y.J.J.J.J.J.Y.X.;X`.M.K.M.'.n . b cXp : f b W.M.J.K.D.[ M.J.J.J.",
"J.J.Y.5.J.7Xm.J.J.J.J.M.J.J.J.M.M.J.H.J.J.J.Y.O.;X].J.J.B.m. Xz g vXi : j ^ ~.B.J.J.B.{ B.K.B.K.",
"J.J.Y.5.B.7Xv.J.J.J.J.J.J.J.J.J.J.J.H.L.J.J.Y.X.;X].M.J.J.m.dXv v vXP C S = &.~.B.J.B.o.B.K.B.K.",
"J.J.Y.4.B.6Xm.J.B.J.J.J.M.J.J.J.J.J.J.J.M.J.L.X.;X`.J.J.J.J.y.u y v.U P ~ = / `.B.J.B.' B.K.D.K.",
"J.J.E.4.M.eXJ.E.Y.Y.Y.Y.T.Y.Y.Y.Y.Y.Y.Y.Y.Y.`.X.;X`.M.J.B. Xv 1 : m E 6 6 F ~.B.J.P.B.' B.K.B.K.",
"J.J.Y.5.B.J.O.:.:.:.:.1.4.4.>.>.:.:.:.:.:.>.1.Q ;X].J.J.J.J.].OXOX`.`.%XOX{.J.J.J.K.B.[ D.J.B.K.",
"J.M.Y.w.4.s.4.w.w.w.w.4.4.w.4.4.9.9.e.w.w.9.w.9.aXE.B.J.B.J.B.M.M.B.B.B.B.B.J.J.B.K.D.[ J.K.B.K.",
"J.J.Y.w.>.`.L.Y.Y.Y.Y.Y.Y.Y.T.T.Y.Y.Y.Y.Y.Y.Y.Y.kX~.J.J.J.J.J.J.J.J.J.J.J.J.J.J.J.K.D.[ M.K.J.K.",
"J.J.Y.w.:.Y.M.J.J.J.J.J.J.H.H.H.B.J.J.B.J.J.J.M.hXE.B.J.J.J.B.J.J.J.B.J.J.J.J.B.B.J.B.[ B.K.B.J.",
"J.B.Y.e.:.Y.J.J.J.J.J.J.J.J.J.J.J.J.J.J.J.J.J.J.aXE.M.J.J.J.J.J.B.J.J.B.J.J.M.J.J.K.M.[ J.K.B.K.",
"J.J.Y.e.:.Y.M.J.J.J.J.J.J.M.J.J.J.J.J.J.J.M.J.M.kX`.J.J.J.J.J.J.K.K.K.K.K.K.K.K.K.K.K./ M.K.B.K.",
"J.J.Y.9.>.`.J.J.J.J.J.J.J.J.J.J.J.J.J.J.J.J.J.Y.9X>.o.X.O.O.X.O.o.o.o.o.o.o.o.o.o.X.o.] J.K.J.K.",
"J.J.P.y.~.vXhXkXhXhXkXhXkXkXhXkXhXkXkXkXkXhXkXkXaX9XuXeXeXeXeXeXtXtXtXtX9XtXtXtXtX9XtX9XJ.B.J.J.",
"J.J.B.J.Y.J.L.J.J.J.J.J.J.J.J.L.J.J.J.J.J.J.L.J.J.E.J.E.Y.Y.L.J.P.Y.Y.Y.K.L.L.R.L.R.W.L.B.B.K.K.",
"J.J.J.J.M.J.J.J.J.J.J.J.J.J.J.J.J.J.J.J.J.J.J.M.J.J.J.J.J.B.J.J.J.B.J.J.K.M.K.B.K.M.J.B.K.K.J.J.",
"J.J.J.J.J.J.J.J.J.J.J.J.J.J.J.J.J.J.J.J.J.J.J.J.J.J.J.J.J.J.J.J.J.J.J.J.J.J.J.J.K.J.J.J.J.J.J.J.",
"J.J.J.J.J.J.J.J.J.J.J.J.J.J.J.J.J.J.J.J.J.J.J.J.J.J.J.J.J.J.J.J.J.J.J.J.J.J.J.J.J.J.J.J.J.J.J.J."
};
