/* XPM */
static char *flip[] = {
/* columns rows colors chars-per-pixel */
"48 48 68 1",
"  c #373635",
". c #3D3C3C",
"X c #403F3E",
"o c #41403F",
"O c #444342",
"+ c #484745",
"@ c #494847",
"# c #4B4A49",
"$ c #504F4E",
"% c #51504E",
"& c #555352",
"* c #585655",
"= c #595856",
"- c #5C5B59",
"; c #61605E",
": c #646361",
"> c #686765",
", c #696866",
"< c #6C6A68",
"1 c #706E6C",
"2 c #72706E",
"3 c #757471",
"4 c #787674",
"5 c #7C7B78",
"6 c #858381",
"7 c #888784",
"8 c #8A8885",
"9 c #8E8C89",
"0 c #908E8A",
"q c #93908D",
"w c #959390",
"e c #989693",
"r c #9A9895",
"t c #9E9C99",
"y c #A09E9B",
"u c #A3A19E",
"i c #A6A5A1",
"p c #A8A6A3",
"a c #AAA8A4",
"s c #ADABA8",
"d c #B1AFAB",
"f c #B3B1AD",
"g c #B5B3B0",
"h c #B9B7B3",
"j c #BBB9B5",
"k c #BCBBB8",
"l c #C0BEBB",
"z c #C4C2BE",
"x c #C5C4C0",
"c c #C8C6C2",
"v c #CBC9C5",
"b c #CDCCC8",
"n c #D0CECA",
"m c #D4D2CD",
"M c #D6D4D1",
"N c #D8D6D1",
"B c #DBD9D4",
"V c #DDDCD9",
"C c #E0DEDA",
"Z c #E3E1DC",
"A c #E4E3E2",
"S c #E8E6E3",
"D c #EAE9E5",
"F c #EBEAEA",
"G c #F0EFEF",
"H c #F0F0EF",
"J c #F4F4F4",
"K c #FDFDFD",
/* pixels */
"qqqqqqqqqqqqqqqqqqqqwqqqqqqqqqqqqqqqqqqqqqqqqqqq",
"qqqq0q0qqqqqq0qqqqqq0wqqqqqqqq0qqqqqqqqqqqqqqqqq",
"qq0qqwqqqwqqqqqqwq900000000000q0000090000090qqqq",
"qqqq9888888888898wrrrrrerreryy0yttttttttttttq0qq",
"qqq8#@#@@@#@@@@#OfCMBNNNNBCBs>0KKKKKKKKKKKKKr0qq",
"qqw8#++++@@@@@@@OfANBNCZZve:X&xKKKKKKKKKKKKKt9qq",
"qqq8#+@@@++@@@@#OfCBBCCd4$XOXeNJKKKKKKKKKKKKt0qq",
"qqq8@+@@@#*#@@@@OdCNCa:&#@###cnKKKKKJFJKKKKKt0qq",
"qqq8@@@@O-*-O@@@ofZBzXO--$@X6ZbKKKKKZFAKKKKKt0qq",
"q0q8@@+#-,<,-#+@ofCZ0$>1<;*#zCbJKKJAvvBKKKKKt0qq",
"qqq9@@+=*<a1*=O#ogZn&;%re&=2CBbKKKAFx<bKKKKKt0qq",
"q0q8@++#-<1<-$@@ofDuX=;12:&fCBbJKKJZblVKKKKKt0qq",
"qqq8#@@@O=*-OO@#odZ<o+%-=X1CBBbKKKKKZFZKKKKKt00q",
"q0q8@@@@@#=$@@@@olzO##o%;qmBBBbJKKKKHSJKKKKKt0qq",
"qqq8@@@@@@O@@@@#XlqXoo;yvZBBBBbKKKKKKKKKKKKKt0qq",
"qqq9#@@##@@#@@@@+u%o<uBZCBBBBCbJKKKKKKKKKKKKt0qq",
"w9w8OoOooOOOOOO++31fBZNBmmBmNCzJKKJKJKKJKJKKt00q",
"qqqeffffffffffsiuabnzzzzzzzmzuqmbnbbvvvvmmk00qqq",
"qq9rVZZZZZZZBmVKCzCBBBBBSZmu1ouCBBBNNCZCj7+1y0qq",
"qqqrMBNBBmbbVJKJvzBBBBZCl6*oX6zmBBNCZnu,OXOzy0qq",
"qq9rNBBMbmFKKKKZbvCNBNa2ooo&ofzBBBCz8&Xo#o1Ce0qq",
"qqqrBBBbJFVSKKKbNzCBN;o=;%%o;CzNBCuX$;=@#oaCe0qq",
"qqqrNVnVKMHBJKZmNvBZao-==-ooaZzBCB;@>%-OO<CBr0qq",
"qw9rMBMAAv8xASMBNzCB2==99=--NZzNCs&-1e>OouZNr0qq",
"qqqeBmVFZv8xSMmBNzZlo;=99=-eZBzNZ2$-<r>X=mBNr0qq",
"qqqrBbHKJBHBKnNVNzZ6o%=;;%-zBBzBz@@$;&; rZBNr0qq",
"qq9rmmKKKDZZVbVBmzN*ooo;*-aZNCzZqX#O==&4mBBBrqqq",
"qq9tbAKKKJZznVBBmNao%oo=wzZBBZzm;O@X#4hCBBBBr0qq",
"w00rbKKGNzmBNNBNmz<oo;sNZBBZNBzaXX$7zCCBBBBBrqqq",
"0wwqZJBmCZZZZZZZZyo5lZZZBBBZBZz;&rvZCBBVBBBBr0qq",
"ww0qppsghggggdfdg9uzzzzzzzzzzzgqcNbvbbvvbvbve0qq",
"w9w7+OOOooooooooohSBmNNNBCBzzZzJKJKKJKKJKKJKt0qq",
"0qq8#@@#@#@#@#@#OdZBCBCBmbNDKFxKKKKKKKKKKKKKt0qq",
"w0q8@@@@@+O+@@@#OdZNBNbMZHKKKMvKKKKKKKKKKKKKt0qq",
"q0q9@@@@+$=$+@@@OdZNNbZSFKKKFnbKKKKKHAJKKKKKt0qq",
"qqq8@+@@O=*=O+@#OdZBbJJZSJKKMNbJKKKKZFZKKKKKt0qq",
"qqw8#@O$-<1<-$O#OdZNMFMxxMFGvVvKKKHAvxBKKKKKt0qq",
"qqq8@@+=*<a1**O@OdAvFVG88HVBMVvKKKSFx<bKKKKKt9qq",
"q0q8@@+#=<,<=$+@OdZbJFVvvVAbBBbJKKJAbvVKKKKKt0qq",
"qqq8#@@+O=*-O@@#OgBVKKHAAJVMBBbKKKKKCFVKKKKKt0qq",
"qqq8#++++$*$++#@ogMJKKKFMnnBNVnJKKKKJDJKKKKKt9qq",
"qqw8++#+++O++++#OdVKKKCnmBBVBVnKKKKKKKKKKKKKt9qq",
"qqw8#+++++++++++OiKJCnnBCBBBBBnJKKKKKKKKKKKKt0qq",
"qqw8#+###@##@###OpCbnNVBNNNNNBbJKKKKKKKKKKKKt0qq",
"q9qq8888888888888qwrrrrrrrrreretytttttttttttq0qq",
"qqqqqqwqwqwqqwwqqqq90q000000q9q9009090000009qqqq",
"qqqq9qqqqq9qqqqqqqqqqqqqqqwqqqqqqqqqqqqqqqqqqqqq",
"qqqqqqqqqqqqqqqqqqqqqqqqqqqqqqqqqqqqqqqqqqqqqqqq"
};
