/* XPM */
static char * foff_xpm[] = {
"32 32 469 2",
"  	c None",
". 	c #FFFFFF",
"+ 	c #FEFEFE",
"@ 	c #F1FAFA",
"# 	c #EDF0F0",
"$ 	c #F3F6F6",
"% 	c #DFCDCD",
"& 	c #B28181",
"* 	c #AA3B3B",
"= 	c #997878",
"- 	c #FAFAFA",
"; 	c #BFC4C4",
"> 	c #9D6C6C",
", 	c #A26A6A",
"' 	c #A78E8E",
") 	c #F8F9F9",
"! 	c #D4D5D5",
"~ 	c #C05353",
"{ 	c #BA1717",
"] 	c #BC0909",
"^ 	c #BE0606",
"/ 	c #783636",
"( 	c #E0E0E0",
"_ 	c #536464",
": 	c #BA1818",
"< 	c #C00202",
"[ 	c #A95656",
"} 	c #F4F9F9",
"| 	c #FCFCFC",
"1 	c #BBBEBE",
"2 	c #AE3A3A",
"3 	c #C40909",
"4 	c #C40D0D",
"5 	c #B91313",
"6 	c #A01919",
"7 	c #7B4B4B",
"8 	c #FDFFFF",
"9 	c #DEDEDE",
"0 	c #485858",
"a 	c #BD1C1C",
"b 	c #C30606",
"c 	c #A45151",
"d 	c #F4F8F8",
"e 	c #CACDCD",
"f 	c #AD4343",
"g 	c #C00909",
"h 	c #C50808",
"i 	c #942929",
"j 	c #514141",
"k 	c #7F7F7F",
"l 	c #E0E2E2",
"m 	c #495959",
"n 	c #B51919",
"o 	c #BC0404",
"p 	c #A45353",
"q 	c #FBFBFB",
"r 	c #6F6363",
"s 	c #B11919",
"t 	c #B60A0A",
"u 	c #972D2D",
"v 	c #889C9C",
"w 	c #F1F1F1",
"x 	c #FCFFFF",
"y 	c #EEEAEA",
"z 	c #B7A3A3",
"A 	c #DBDDDD",
"B 	c #526262",
"C 	c #BB2222",
"D 	c #BA0606",
"E 	c #A75858",
"F 	c #EBF0F0",
"G 	c #CFC5C5",
"H 	c #C5ABAB",
"I 	c #EEEEEE",
"J 	c #BDBEBE",
"K 	c #664848",
"L 	c #B61616",
"M 	c #A90D0D",
"N 	c #B09999",
"O 	c #F9FDFD",
"P 	c #C4B0B0",
"Q 	c #B62828",
"R 	c #AB0909",
"S 	c #899292",
"T 	c #596969",
"U 	c #B52222",
"V 	c #B30707",
"W 	c #A65C5C",
"X 	c #828C8C",
"Y 	c #B25D5D",
"Z 	c #AB0A0A",
"` 	c #A83D3D",
" .	c #C6C5C5",
"..	c #FDFDFD",
"+.	c #F3F4F4",
"@.	c #F0E9E9",
"#.	c #8C8787",
"$.	c #8D6161",
"%.	c #AA0C0C",
"&.	c #A11313",
"*.	c #CFBEBE",
"=.	c #EEE8E8",
"-.	c #ECE7E7",
";.	c #EFECEC",
">.	c #F0F4F4",
",.	c #BC9D9D",
"'.	c #B01111",
").	c #A70C0C",
"!.	c #A90A0A",
"~.	c #874242",
"{.	c #566868",
"].	c #AE2222",
"^.	c #A90505",
"/.	c #924B4B",
"(.	c #7A8D8D",
"_.	c #AA1D1D",
":.	c #A80A0A",
"<.	c #A90707",
"[.	c #981D1D",
"}.	c #BAB2B2",
"|.	c #FEFFFF",
"1.	c #DFE0E0",
"2.	c #9EA3A3",
"3.	c #A61A1A",
"4.	c #A22525",
"5.	c #A42020",
"6.	c #A30C0C",
"7.	c #A20E0E",
"8.	c #A22424",
"9.	c #A42727",
"0.	c #A42222",
"a.	c #AB7373",
"b.	c #F8FBFB",
"c.	c #F1F3F3",
"d.	c #C0ABAB",
"e.	c #AA1212",
"f.	c #A40D0D",
"g.	c #A41010",
"h.	c #6A3E3E",
"i.	c #9B9595",
"j.	c #637171",
"k.	c #AE2626",
"l.	c #A50707",
"m.	c #8F4B4B",
"n.	c #343939",
"o.	c #312828",
"p.	c #8B4F4F",
"q.	c #A70101",
"r.	c #A50A0A",
"s.	c #9F2424",
"t.	c #D8D1D1",
"u.	c #C5C6C6",
"v.	c #868C8C",
"w.	c #9D0000",
"x.	c #9E0909",
"y.	c #9D0909",
"z.	c #9B0C0C",
"A.	c #9B0909",
"B.	c #9C0808",
"C.	c #9B0101",
"D.	c #A86565",
"E.	c #FBFEFE",
"F.	c #B1AEAE",
"G.	c #AB2C2C",
"H.	c #9C0D0D",
"I.	c #9B1010",
"J.	c #8C6D6D",
"K.	c #C5CACA",
"L.	c #667373",
"M.	c #A62626",
"N.	c #9A0404",
"O.	c #A66464",
"P.	c #DCE0E0",
"Q.	c #6A6A6A",
"R.	c #212727",
"S.	c #7D5A5A",
"T.	c #9C0F0F",
"U.	c #9B0808",
"V.	c #894949",
"W.	c #F8FEFE",
"X.	c #C6C6C6",
"Y.	c #909393",
"Z.	c #935E5E",
"`.	c #946565",
" +	c #955D5D",
".+	c #951212",
"++	c #950C0C",
"@+	c #984747",
"#+	c #966464",
"$+	c #926060",
"%+	c #9A8484",
"&+	c #B2B3B3",
"*+	c #A68787",
"=+	c #980F0F",
"-+	c #940D0D",
";+	c #8F6A6A",
">+	c #ECF0F0",
",+	c #DDDDDD",
"'+	c #6D7A7A",
")+	c #A52929",
"!+	c #970707",
"~+	c #A86969",
"{+	c #FAFDFD",
"]+	c #F9F9F9",
"^+	c #979797",
"/+	c #232525",
"(+	c #8C3F3F",
"_+	c #970909",
":+	c #960404",
"<+	c #B6ACAC",
"[+	c #D9D9D9",
"}+	c #4D4D4D",
"|+	c #474949",
"1+	c #3A3C3C",
"2+	c #302C2C",
"3+	c #932424",
"4+	c #910B0B",
"5+	c #8D6464",
"6+	c #3B3E3E",
"7+	c #4D4E4E",
"8+	c #EEEFEF",
"9+	c #7E8686",
"0+	c #C06B6B",
"a+	c #8E0707",
"b+	c #922B2B",
"c+	c #E5E4E4",
"d+	c #DCDCDC",
"e+	c #717D7D",
"f+	c #9E2929",
"g+	c #8D0505",
"h+	c #A96D6D",
"i+	c #F9FCFC",
"j+	c #747474",
"k+	c #657171",
"l+	c #941313",
"m+	c #8A0707",
"n+	c #994444",
"o+	c #F5F8F8",
"p+	c #F8F8F8",
"q+	c #E7E7E7",
"r+	c #872C2C",
"s+	c #840707",
"t+	c #8F3434",
"u+	c #DBE4E4",
"v+	c #B2BDBD",
"w+	c #8A0202",
"x+	c #850504",
"y+	c #A77272",
"z+	c #F9FBFB",
"A+	c #768282",
"B+	c #992929",
"C+	c #860303",
"D+	c #A86E6E",
"E+	c #262929",
"F+	c #B68282",
"G+	c #8A0A0A",
"H+	c #912C2C",
"I+	c #EAE6E6",
"J+	c #656868",
"K+	c #885B5B",
"L+	c #7D0202",
"M+	c #7D0000",
"N+	c #C6CCCC",
"O+	c #C9CACA",
"P+	c #AD9C9C",
"Q+	c #790000",
"R+	c #BDB6B6",
"S+	c #727A7A",
"T+	c #8D4444",
"U+	c #7B2424",
"V+	c #AE8989",
"W+	c #FAFCFC",
"X+	c #4A4B4B",
"Y+	c #8F7373",
"Z+	c #820C0C",
"`+	c #831919",
" @	c #E3DADA",
".@	c #9E9E9E",
"+@	c #8A9090",
"@@	c #840000",
"#@	c #860606",
"$@	c #AE8181",
"%@	c #B7B9B9",
"&@	c #9D8181",
"*@	c #810000",
"=@	c #C2CCCC",
"-@	c #E9E9E9",
";@	c #737373",
">@	c #696C6C",
",@	c #6E7171",
"'@	c #E7E8E8",
")@	c #717272",
"!@	c #7C6363",
"~@	c #8D1616",
"{@	c #861616",
"]@	c #E0D4D4",
"^@	c #CECECE",
"/@	c #4D5757",
"(@	c #A34141",
"_@	c #8B0808",
":@	c #963939",
"<@	c #F7F9F9",
"[@	c #ADAFAF",
"}@	c #917D7D",
"|@	c #870000",
"1@	c #880000",
"2@	c #B6B4B4",
"3@	c #7B7C7C",
"4@	c #896D6D",
"5@	c #921313",
"6@	c #8E1919",
"7@	c #E0D6D6",
"8@	c #EBEBEB",
"9@	c #2E3030",
"0@	c #A97979",
"a@	c #940909",
"b@	c #952222",
"c@	c #E8E2E2",
"d@	c #B6B7B7",
"e@	c #930000",
"f@	c #930505",
"g@	c #AA7979",
"h@	c #626363",
"i@	c #C39393",
"j@	c #920707",
"k@	c #932222",
"l@	c #E4DEDE",
"m@	c #595959",
"n@	c #6C5252",
"o@	c #A01717",
"p@	c #981212",
"q@	c #CDBABA",
"r@	c #D1D1D1",
"s@	c #4A5555",
"t@	c #A83A3A",
"u@	c #9B0B0B",
"v@	c #9D3131",
"w@	c #EDEEEE",
"x@	c #EFEFEF",
"y@	c #99A3A3",
"z@	c #AE2C2C",
"A@	c #9A0A0A",
"B@	c #9E3E3E",
"C@	c #F0F2F2",
"D@	c #9A9A9A",
"E@	c #3A2E2E",
"F@	c #A11A1A",
"G@	c #9F0B0B",
"H@	c #A48181",
"I@	c #313333",
"J@	c #8E6262",
"K@	c #A30D0D",
"L@	c #9E0E0E",
"M@	c #A28D8D",
"N@	c #D1D5D5",
"O@	c #B15F5F",
"P@	c #9C0404",
"Q@	c #A40000",
"R@	c #9B8B8B",
"S@	c #352E2E",
"T@	c #A70A0A",
"U@	c #8D6060",
"V@	c #777676",
"W@	c #342B2B",
"X@	c #A72020",
"Y@	c #A21616",
"Z@	c #B3A9A9",
"`@	c #EEF3F3",
" #	c #A88686",
".#	c #A91313",
"+#	c #A60909",
"@#	c #8C3131",
"##	c #D5E0DF",
"$#	c #EBEAEA",
"%#	c #3E3737",
"&#	c #A62121",
"*#	c #AF0909",
"=#	c #835252",
"-#	c #E6E6E6",
";#	c #323333",
">#	c #685353",
",#	c #B40303",
"'#	c #AC0909",
")#	c #A91717",
"!#	c #A28A8A",
"~#	c #E6F1F1",
"{#	c #DBE7E7",
"]#	c #BA6D6D",
"^#	c #AF1414",
"/#	c #A90909",
"(#	c #A30F0F",
"_#	c #B7ABAB",
":#	c #E3E3E3",
"<#	c #5E4B4B",
"[#	c #B61A1A",
"}#	c #B20909",
"|#	c #8F6565",
"1#	c #B7B7B7",
"2#	c #202222",
"3#	c #6E4B4B",
"4#	c #AF0F0F",
"5#	c #B40909",
"6#	c #B70000",
"7#	c #9C3232",
"8#	c #AC8383",
"9#	c #CFB7B7",
"0#	c #DBC6C6",
"a#	c #CFB3B3",
"b#	c #B08484",
"c#	c #B42F2F",
"d#	c #B50606",
"e#	c #B50B0B",
"f#	c #AB1010",
"g#	c #937474",
"h#	c #818282",
"i#	c #654444",
"j#	c #BC0F0F",
"k#	c #AF0E0E",
"l#	c #C5B4B4",
"m#	c #A0A0A0",
"n#	c #1D1F1F",
"o#	c #513B3A",
"p#	c #AA2525",
"q#	c #BE0707",
"r#	c #B90808",
"s#	c #B70A0A",
"t#	c #B60F0F",
"u#	c #B61212",
"v#	c #B81010",
"w#	c #BC0B0B",
"x#	c #BD0B0B",
"y#	c #C50505",
"z#	c #9F1F1F",
"A#	c #877979",
"B#	c #F0F3F3",
"C#	c #919191",
"D#	c #1D2020",
"E#	c #7E2828",
"F#	c #9E4040",
"G#	c #B9B9B9",
"H#	c #383737",
"I#	c #242D2D",
"J#	c #752A2A",
"K#	c #A51717",
"L#	c #B71212",
"M#	c #BB1111",
"N#	c #BE1111",
"O#	c #B51313",
"P#	c #A21818",
"Q#	c #754242",
"R#	c #7A8C8C",
"S#	c #F7F7F7",
"T#	c #444646",
"U#	c #D8D7D7",
"V#	c #414646",
"W#	c #242121",
"X#	c #2E1E1E",
"Y#	c #3A2020",
"Z#	c #3E2222",
"`#	c #372020",
" $	c #443737",
".$	c #828080",
"+$	c #D1D4D4",
"@$	c #F2F2F2",
"#$	c #D2D2D2",
"$$	c #AAAAAA",
"%$	c #9E9F9F",
"&$	c #A7A8A8",
"*$	c #C1C1C1",
". . . . . . . . . . . . . . . . . . . . . . . . . . . . . . . . ",
". . . . . . . . . . . . . . . . . . . . . . . . . . . . . . . . ",
". . . . . . + . + + . . + . . . . . . . . . + . + . . . . . . . ",
". . . . + . . + . . @ # . . . . . + + . . . . + . . . . . . . . ",
". . . + + + . $ % & * = . + . . . . - ; > , ' ) + . . . . . . . ",
". . + . + . ! ~ { ] ^ / . + . . . . ( _ : < [ } . . . . . . . . ",
". . + + | 1 2 3 4 5 6 7 8 . . + . . 9 0 a b c d . + . + . . . . ",
". . + . e f g h i j k l . + . . + . 9 m n o p } . . + . . . . . ",
". . . q r s t u v w . . + + + x y z A B C D E F G H I . + + + . ",
"+ . . J K L M N . . . + + . O P Q R S T U V W X Y Z `  .. ... . ",
". +.@.#.$.%.&.*.=.-.;.... >.,.'.).!.~.{.].^./.(._.:.<.[.}.|.+ . ",
"1.2.3.4.5.6.7.8.9.0.a.b.c.d.e.f.g.h.i.j.k.l.m.n.o.p.q.r.s.t.. + ",
"u.v.w.x.y.z.z.A.B.C.D.E.F.G.H.I.J.K.( L.M.N.O.P.Q.R.S.T.U.V.W.+ ",
"X.Y.Z.`. +.+++@+#+$+%+&+*+=+-+;+>+. ,+'+)+!+~+{+]+^+/+(+_+:+<+|.",
"[+}+|+1+2+3+4+5+6+7+8+9+0+a+b+c+. . d+e+f+g+h+i+. . j+k+l+m+n+o+",
"..p+]+q+1+r+s+t+u+- 9 v+w+x+y+z++ . d+A+B+C+D+{++ . ,+E+F+G+H+I+",
". . + . J+K+L+M+N+. O+P+Q+M+R+. + . d+S+T+U+V+W+. + p+X+Y+Z+`+ @",
". + . . .@+@@@#@$@|.%@&@*@@@=@. . . -@;@>@,@'@. + . . )@!@~@{@]@",
". . . . ^@/@(@_@:@<@[@}@|@1@2@. . + . . . . . + . . . 3@4@5@6@7@",
". . . . 8@9@0@a@b@c@d@X e@f@g@{+. . . . . . + + + . + h@i@j@k@l@",
". . . + q m@n@o@p@q@r@s@t@u@v@w@+ + + . . . . . + + x@y@z@A@B@C@",
". . . . . D@E@F@G@H@+.I@J@K@L@M@. + . + . . . . + . N@O@P@Q@R@8 ",
". . . . . r@S@0.T@U@. V@W@X@%.Y@Z@8 . + . . + + . `@ #.#+#@###. ",
". . . . . $#%#&#*#=#. -#;#>#,#'#)#!#~#. . . . . {#]#^#/#(#_#. + ",
". . . . . :#<#[#}#|#. . 1#2#3#4#5#6#7#8#9#0#a#b#c#d#e#f#g#o++ . ",
". . . . + h#i#j#k#l#. + | m#n#o#p#q#r#s#t#u#v#w#x#y#z#A#B#. . + ",
". . . + ..C#D#E#F#>++ . + . G#H#I#J#K#L#M#N#M#O#P#Q#R#S#+ + . . ",
". . . . + ..^+T#U#. . + + + . -@m#V#W#X#Y#Z#`# $.$+$| . + . . . ",
". . . + + + + @$. + . . + . + . . q #$$$%$&$*$x@. . + . . . . . ",
". . . . . + + . + + + . . . . . + . . . . . . . . + . + . . . . ",
". . . . . + . + . + . . . . . . . . . . . . . . . . . . . . . . ",
". . . . . . . . . . . . . . . . . . . . . . . . . . . . . . . . "};
