/* XPM */
static char * freedroid_xpm[] = {
"32 32 4 1",
" 	c None",
".	c #FF4F4F",
"+	c #F7DF67",
"@	c #FFFFFF",
"++++++++++++++++++++++++++++++++",
"+...............++.............+",
"+...............++.............+",
"+...............++.............+",
"+...............++.............+",
"+...............++.............+",
"+...............++.............+",
"+..............................+",
"+..........@@.@@@@@@@@.........+",
"+........@@..@@@@@@@@@@@.......+",
"+......@@..@@@@@@@@@@@@@@@.....+",
"+..............................+",
"+.....@@@@@...@@@@@....@@@@....+",
"+....@@@@@@@.@@@@@@@..@@@@@....+",
"+.......................@@@....+",
"+++++@@...@@.@@...@@....@@@+++++",
"+++++@@...@@.@@...@@....@@@+++++",
"+....@@...@@.@@...@@....@@@....+",
"+....@@@@@@@.@@@@@@@....@@@....+",
"+.....@@@@@...@@@@@.....@@@....+",
"+..............................+",
"+......@@...@@@@@@@@@@@@@@.....+",
"+........@@..@@@@@@@@@@@.......+",
"+..........@@..@@@@@@..........+",
"+..............@@@.............+",
"+..............@@@.............+",
"+...............++.............+",
"+...............++.............+",
"+...............++.............+",
"+...............++.............+",
"+...............++.............+",
"++++++++++++++++++++++++++++++++"};
