/* XPM */
static char *fslview[] = {
/* columns rows colors chars-per-pixel */
"32 32 108 2",
"   c #2D952D6A2D0F",
".  c #2D382FCA31A2",
"X  c #34BF34FD34E2",
"o  c #3B453B9B3C1E",
"O  c #3BA6435A3E12",
"+  c #41BA41FC3E1D",
"@  c #3B703E4A4145",
"#  c #3DDA417643CC",
"$  c #439343E14351",
"%  c #47D2477847B2",
"&  c #494149A546C6",
"*  c #451A434C4927",
"=  c #45E14AA84BBB",
"-  c #4BD14C004B9B",
";  c #4D1753934F84",
":  c #4FD750B34B5E",
">  c #45F14BB44FD9",
",  c #4A584E6D52C2",
"<  c #4E0A51C9512A",
"1  c #4F1854C35C45",
"2  c #5348534E532B",
"3  c #59F15A9956A0",
"4  c #51B654825953",
"5  c #54D95A615D1D",
"6  c #5C125C4A5C5C",
"7  c #5FC560925CF9",
"8  c #57575D516514",
"9  c #5A8B5E98647B",
"0  c #57095D13689E",
"q  c #5AD95EE46803",
"w  c #5CAC6220651F",
"e  c #5D7163DF6AB4",
"r  c #639163956389",
"t  c #6A5762A860C7",
"y  c #653868A967CD",
"u  c #6444663E69BB",
"i  c #65AF6B446C18",
"p  c #6BD46C8D6CD1",
"a  c #66E0711A6F83",
"s  c #6A92709D6F10",
"d  c #73A672BE6EE0",
"f  c #64A86BB57344",
"g  c #69EF6E8472AE",
"h  c #6BB66F987919",
"j  c #6C5B72BE74A0",
"k  c #6DE174B47B5E",
"l  c #741573E974D6",
"z  c #77E4780B76D4",
"x  c #7A5B78AF7720",
"c  c #735675F07BC0",
"v  c #789A77BE7ABA",
"b  c #74FA7A517E32",
"n  c #7B667BC87D42",
"m  c #7FCC806E7ED6",
"M  c #74E8765582B7",
"N  c #75597BB58353",
"B  c #7BBD7D3082A5",
"V  c #76E47E568BA5",
"C  c #79E07F5D8AC4",
"Z  c #81017F9E8567",
"A  c #7C5D81C18679",
"S  c #7C3E83558AE1",
"D  c #7DAC84B691CF",
"F  c #832D82BB8502",
"G  c #873C8821876B",
"H  c #850784F38B31",
"J  c #88AE87228C89",
"K  c #84A689A18E2B",
"L  c #8B828B098D54",
"P  c #8EC590BC9003",
"I  c #846685D89177",
"U  c #896E87DC90A3",
"Y  c #83D08A379275",
"T  c #8CE88C4293DF",
"R  c #86118BCA98FC",
"E  c #8F498DAA9891",
"W  c #90F38F0293E3",
"Q  c #91488DD6998D",
"!  c #8BAD92429E2C",
"~  c #933792EB94F5",
"^  c #940492F39A86",
"/  c #9A5097059D76",
"(  c #9B6B9B4B9CD8",
")  c #97D095E2A090",
"_  c #997F96F7A1CA",
"`  c #91939852A547",
"'  c #9BFB9B21A2C3",
"]  c #9FD19DC4A98E",
"[  c #A0A69EC3A1B5",
"{  c #A16F9DFBAE55",
"}  c #A320A306A3EF",
"|  c #AC48AB41A684",
" . c #A546A37BAB1B",
".. c #A2C7A9AFA9A0",
"X. c #ABA9AB36ACC3",
"o. c #B01BB152ABFE",
"O. c #AD31AD95B47D",
"+. c #ABEFAD36BAB4",
"@. c #B421B37FB31D",
"#. c #B5D4B4C3BC83",
"$. c #BDEDBDDCBD19",
"%. c #BF34C092BFC9",
"&. c #C38CC37DC35F",
"*. c #CCC2CCF5CCD9",
"=. c #D61CD526D543",
"-. c #DB79DBA3DB5F",
";. c #E099E004DEAB",
":. c #E3E9E407E41C",
/* pixels */
"J E ^ T Q ^ E W T H Z F H F L T H H H n B Z Z J J J H G J U Q Q ",
"E ^ / ( ( / ^ ^ Q J G J J U L L L L W L J T T Q Q Q T J U T T / ",
"G G T ~ Q L T G H Z Z B v v B Z Z n F W n B T ' / F U B B B x B ",
"F B P ^ ~ T ~ U J H G n l v Z I Z B B Z u 2 & r / [ T Z Z G x z ",
"l n Z Q ) / E T Z J Z F n n Q { { [ Q Q Z v t - + Z #.J B Z v l ",
"l n Z U E Q R T Z Z J Q / Q J Q ^ [ X.| { / / J r @ B #.Q c v z ",
"x Z J T T ) / Q L H Q Q T L d p { J { W Q J [ { _ h 4 Q #.T h B ",
"l x B C Z I E Q Q L v Z Z d t t d W / L W G Z Q E b C U _ #.Q v ",
"l J ~ O.@.O.X.O.( l Z 6 d x [ =.=.| ~ Z L F J L } ..F c n G +.U ",
"p u G :.=.%.%.[ n % r z d o.;.=.&.$.W 2 d p x 6 @.&.- 6 p X ~ +.",
"6 r m =.d $ r s u 2 p z L $.~ + 2 t ~ 2 7 r p 6 ( o.$ i L d B +.",
"l t L &.- $ X r L 2 2 r m &.3 7 r 6 6 7 p p p r ( | % 2 n F H +.",
"l r ~ @.- p - X 7 6 2 u l *.3 : - 6 r r y 7 u 3 / X.$ o p Z M U ",
"v r L $.; j s # o p d 6 u %.} p d x Z Z L l G 3 / X.X r p d B c ",
"v p n *.x L ~ P G y x 6 6 G =.} l l l p G r n 2 ( | $ 6 6 B [ / ",
"B p z =.G y m P l X 2 - $ 6 / ;.&.l t 2 p 2 r : / | $ + - 9 l m ",
"F s m *.6 6 3 O + X o X X X : A *.%.p : * + - 2 / | o   X o $ + ",
"B i P $.4 Y K > o - 2 2 : % $ o 6 *.' 3 * o $ : ( | o . X   o - ",
"N u ( } - K j = - $ 2 2 2 6 6 r & Z &.6 < 6 3 4 / | + o < w 4 = ",
"F p [ ( & 7 O ; n - $ p W + 2 : - n *.3 - r 6 6 L $.* o % N f q ",
"C u [ } o @ 4 e 3 * o 7 @.l - $ 6 %.%.$ 2 2 3 6 n =.7 6 r n Y Y ",
"8 u @.@.* 5 e 7 4 @ o p ~ ;.=.$.:.:.l X 2 - : 7 n ;.&.@.$.| F e ",
"H 9 G L = j k w e - > $ 6 [ :.-.@.7 o - % + + & 6 P ( L F l 6 8 ",
"S b B n b N m N c C 8 8 # # O X   X $ * & % $ X $   @ @ @ q M R ",
"K Y Y Y D S A A A S N f f 1 ; - - $ 2 % - % % > > o % 5 h D D ! ",
"K D D D S S k k A S k A A k c e 6 r 5 r ; 5 e 8 9 + @ j D S D ! ",
"D D S S S N A k k A A b k m k a c B A n B A T k , @ f U Y S S D ",
"S D D V N N N k j k n m k A S A N n A C K Y N 1 4 k A A Y S D R ",
"V M D S S N h f a j j z c c N B A S A S N f 8 h A A A S K N S R ",
"h k N S N N k f a a a a j k l j h k f e k N c M k A m K A A S D ",
"M k k k j k a f s y y a i i i a i i e e f k j j k c b A n B S D ",
"S N A A A A k k s s j l j a s a j a j j j n B b A A K A S Y Y Y "
};
