/* XPM */
static char * gadmin_samba_xpm[] = {
"32 26 160 2",
"  	c None",
". 	c #FFA69C",
"+ 	c #FF9077",
"@ 	c #FF8365",
"# 	c #FF8263",
"$ 	c #FF7F61",
"% 	c #FE755C",
"& 	c #FC6C63",
"* 	c #FFA090",
"= 	c #FF7343",
"- 	c #FF5F1D",
"; 	c #FF5F1B",
"> 	c #FF5F1F",
", 	c #FE5D32",
"' 	c #F45726",
") 	c #FF8360",
"! 	c #FF5F1C",
"~ 	c #F45B1A",
"{ 	c #FF784E",
"] 	c #FE5E1B",
"^ 	c #EC5218",
"/ 	c #E85018",
"( 	c #F7581A",
"_ 	c #ED5419",
": 	c #FF805F",
"< 	c #F85A1A",
"[ 	c #A72F0F",
"} 	c #490A05",
"| 	c #260202",
"1 	c #320303",
"2 	c #8B220C",
"3 	c #EF5319",
"4 	c #FF5E1B",
"5 	c #BB2F13",
"6 	c #FF8F82",
"7 	c #FF601E",
"8 	c #F15619",
"9 	c #641308",
"0 	c #110101",
"a 	c #631007",
"b 	c #ED5118",
"c 	c #E94918",
"d 	c #FF7045",
"e 	c #FD5D1B",
"f 	c #6D1609",
"g 	c #090000",
"h 	c #9A1E0E",
"i 	c #7E150B",
"j 	c #FF7D77",
"k 	c #FF601F",
"l 	c #C33C13",
"m 	c #180101",
"n 	c #F14E19",
"o 	c #A5290F",
"p 	c #FF7059",
"q 	c #791C0A",
"r 	c #F25A1A",
"s 	c #C13812",
"t 	c #FE5B38",
"u 	c #550D06",
"v 	c #FF918D",
"w 	c #FF764C",
"x 	c #FF7347",
"y 	c #F1613E",
"z 	c #450505",
"A 	c #BC3812",
"B 	c #FE5936",
"C 	c #550C06",
"D 	c #FF7760",
"E 	c #E84E18",
"F 	c #280202",
"G 	c #FF5F21",
"H 	c #FE5C25",
"I 	c #7F1B0B",
"J 	c #FF6E48",
"K 	c #D64615",
"L 	c #1F0101",
"M 	c #B63511",
"N 	c #F95D1A",
"O 	c #CA3A14",
"P 	c #60100B",
"Q 	c #520D06",
"R 	c #AC3414",
"S 	c #B33511",
"T 	c #FF7E6B",
"U 	c #8B230C",
"V 	c #FC5B1B",
"W 	c #A12410",
"X 	c #EE7D6A",
"Y 	c #751A0A",
"Z 	c #FF7349",
"` 	c #FC5C1B",
" .	c #480A05",
"..	c #F6531A",
"+.	c #FB5D1B",
"@.	c #FFAAA3",
"#.	c #FF672E",
"$.	c #E34D17",
"%.	c #2A0202",
"&.	c #FF8E76",
"*.	c #1A0101",
"=.	c #CC3215",
"-.	c #FE5D1B",
";.	c #FD5E1B",
">.	c #FFA99E",
",.	c #FF6C37",
"'.	c #7F1D0B",
").	c #FF8D70",
"!.	c #F95B1A",
"~.	c #550E06",
"{.	c #C33213",
"].	c #FF6022",
"^.	c #FF6B46",
"/.	c #FE7F6A",
"(.	c #FF907F",
"_.	c #FF937B",
":.	c #FF7E56",
"<.	c #FF6120",
"[.	c #1D0101",
"}.	c #FFAFAA",
"|.	c #FF8B6C",
"1.	c #FF6A33",
"2.	c #8E240D",
"3.	c #100101",
"4.	c #B83111",
"5.	c #C93F14",
"6.	c #300403",
"7.	c #FF774C",
"8.	c #9B290E",
"9.	c #90220D",
"0.	c #A82F10",
"a.	c #2A0302",
"b.	c #FF7B52",
"c.	c #E54F18",
"d.	c #721809",
"e.	c #150101",
"f.	c #3F0604",
"g.	c #98280E",
"h.	c #D94716",
"i.	c #E95118",
"j.	c #B03411",
"k.	c #4F0C06",
"l.	c #140101",
"m.	c #FFA091",
"n.	c #FF6E39",
"o.	c #F95A1A",
"p.	c #D14415",
"q.	c #89220C",
"r.	c #310403",
"s.	c #050000",
"t.	c #240202",
"u.	c #3E0504",
"v.	c #470905",
"w.	c #270202",
"x.	c #120101",
"y.	c #974848",
"z.	c #6F2525",
"A.	c #530C07",
"B.	c #510D06",
"C.	c #340303",
"              . + @ # # # # # # # # # # # # $ % &               ",
"          * = - ; ; ; ; ; ; ; ; ; ; ; ; ; ; ; ; > , '           ",
"        ) ! ; ; ; ; ; ; ; ; ; ; ; ; ; ; ; ; ; ; ; ; ; ~         ",
"      { ; ; ; ; ] ^ / / / / / / / / / / / / ( ; ; ; ; ; _       ",
"    : ; ; ; < [ } | | | | | | | | | | | | | 1 2 3 ; ; ; 4 5     ",
"  6 7 ; ; 8 9 0                                 a b ; ; ; c     ",
"  d ; ; e f g                                     h ] ; ; e i   ",
"j k ; ; l m                                         n ; ; ; o   ",
"p ; ; ; q                                           r ; ; ; s   ",
"t ; ; ; u           v w x x x x x x x y z             ! ; ; A   ",
"B ; ; ; C           D ; ; ; ; ; ; ; ; E F             G ; ; A   ",
"H ; ; ; I           J ; ; ; ; ; ; ; ; K L             > ; ; M   ",
"N ; ; ; O           P Q Q Q Q R ; ; ; S             T ; ; ; U   ",
"  ; ; ; V W                   X ; ; ; Y             Z ; ; `  .  ",
"  ..; ; ; +.                @.#.; ; $.%.          &.! ; ; l *.  ",
"  =.-.; ; ; ;.            >.,.; ; ; '.          ).k ; ; !.~.    ",
"    {.4 ; ; ; ].^./.(._.:.<.; ; ; A [.    }.|.1.; ; ; ] 2.3.    ",
"      4.4 ; ; ; ; ; ; ; ; ; ; ; 5.6.      7.; ; ; ; e 8.*.      ",
"        9.3 ; ; ; ; ; ; ; ; !.0.a.      b.; ; ; ; c.d.e.        ",
"          f.g.h.` ; ; ; i.j.k.l.    m.n.; ; o.p.q.r.s.          ",
"              t.u.Q Q v.w.x.    y.z.A.Q Q B.C.L                 ",
"                                                                ",
"        ; ; ;   ; ; ;     ;     ;   ; ; ; ; ;     ; ;           ",
"        ;       ; ;     ; ; ;   ; ; ; ; ; ; ;     ; ;           ",
"        ;   ; ;     ;   ; ; ;   ; ; ; ; ;     ;   ; ;           ",
"          ; ;     ; ;   ;       ; ;   ;   ; ;   ;     ;         "};
