/* XPM */
static char * gadmin_openvpn_client_xpm[] = {
"32 29 158 2",
"  	c None",
". 	c #E8BAFF",
"+ 	c #E3ACFF",
"@ 	c #E0A5FF",
"# 	c #E0A4FF",
"$ 	c #E0A3FF",
"% 	c #E2A9FF",
"& 	c #E5B3FF",
"* 	c #DA93FF",
"= 	c #D587FF",
"- 	c #D586FF",
"; 	c #D687FF",
"> 	c #D992FF",
", 	c #DD9BFF",
"' 	c #ECC6FF",
") 	c #DD9CFF",
"! 	c #D688FF",
"~ 	c #D88FFF",
"{ 	c #EBC3FF",
"] 	c #DA95FF",
"^ 	c #D083FA",
"/ 	c #C47BEB",
"( 	c #C27AEA",
"_ 	c #C87EF0",
": 	c #D385FE",
"< 	c #D487FE",
"[ 	c #CA7FF3",
"} 	c #81509E",
"| 	c #372144",
"1 	c #1A0F20",
"2 	c #190E1F",
"3 	c #22142A",
"4 	c #633D79",
"5 	c #BA75E1",
"6 	c #C47CEE",
"7 	c #C078E8",
"8 	c #442954",
"9 	c #050306",
"0 	c #392346",
"a 	c #B471DB",
"b 	c #D184FC",
"c 	c #D991FF",
"d 	c #CE81F8",
"e 	c #492C5B",
"f 	c #010102",
"g 	c #CB80F6",
"h 	c #9B61BC",
"i 	c #935BB3",
"j 	c #070409",
"k 	c #C67DF0",
"l 	c #DE9FFF",
"m 	c #D485FE",
"n 	c #553469",
"o 	c #D689FF",
"p 	c #C97EF2",
"q 	c #3E264D",
"r 	c #DB95FF",
"s 	c #D184FB",
"t 	c #E5B2FF",
"u 	c #CC87F1",
"v 	c #301D3B",
"w 	c #D183FB",
"x 	c #432952",
"y 	c #DFA2FF",
"z 	c #C37AEB",
"A 	c #26172F",
"B 	c #2F1C3A",
"C 	c #68417F",
"D 	c #D893FD",
"E 	c #D284FB",
"F 	c #D385FD",
"G 	c #B470D9",
"H 	c #130B17",
"I 	c #C37BEC",
"J 	c #26162E",
"K 	c #D78CFF",
"L 	c #A86ACC",
"M 	c #382246",
"N 	c #301C3C",
"O 	c #301D3C",
"P 	c #9A65B8",
"Q 	c #030204",
"R 	c #E6B4FF",
"S 	c #A466C6",
"T 	c #0A060D",
"U 	c #D59DF2",
"V 	c #57356B",
"W 	c #DFA3FF",
"X 	c #6C4284",
"Y 	c #CF82FA",
"Z 	c #D588FE",
"` 	c #E7B7FF",
" .	c #D68AFF",
"..	c #B26FD7",
"+.	c #160C1B",
"@.	c #BF78E7",
"#.	c #23152C",
"$.	c #BB75E3",
"%.	c #D284FD",
"&.	c #D88EFF",
"*.	c #E4B0FF",
"=.	c #D78BFF",
"-.	c #D083FB",
";.	c #56346A",
">.	c #000000",
",.	c #EDC7FF",
"'.	c #E1A9FF",
").	c #D384FD",
"!.	c #663E7D",
"~.	c #020103",
"{.	c #A96ACE",
"].	c #E1A7FF",
"^.	c #8452A2",
"/.	c #0A050D",
"(.	c #E9BDFF",
"_.	c #DE9EFF",
":.	c #D486FF",
"<.	c #8F58AE",
"[.	c #0E0812",
"}.	c #9C61BD",
"|.	c #8B56AA",
"1.	c #120A17",
"2.	c #EAC1FF",
"3.	c #D284FC",
"4.	c #8B56A9",
"5.	c #170D1D",
"6.	c #74488D",
"7.	c #BD77E5",
"8.	c #694081",
"9.	c #0F0813",
"0.	c #5F3A74",
"a.	c #0C060F",
"b.	c #281832",
"c.	c #6A4182",
"d.	c #A265C4",
"e.	c #CB7FF3",
"f.	c #C57BED",
"g.	c #A466C7",
"h.	c #6E4387",
"i.	c #040305",
"j.	c #E4BAF9",
"k.	c #D7A1F4",
"l.	c #CC83F3",
"m.	c #9D61BE",
"n.	c #613B78",
"o.	c #1D1125",
"p.	c #020102",
"q.	c #09050C",
"r.	c #1D1124",
"s.	c #23142B",
"t.	c #22142B",
"u.	c #1C1024",
"v.	c #0C070F",
"w.	c #010001",
"x.	c #67467A",
"y.	c #2E1C39",
"z.	c #190E20",
"A.	c #09050B",
"              . + @ # # # # # # # # # # # # # $ %               ",
"          & * = - - - - - - - - - - - - - - - - ; > ,           ",
"      ' ) = - - - - - - - - - - - - - - - - - - - - ! ~         ",
"    { ] - - - - ^ / ( ( ( ( ( ( ( ( ( ( ( ( _ : - - - = <       ",
"    , - - - [ } | 1 2 2 2 2 2 2 2 2 2 2 2 2 3 4 5 - - - - 6     ",
"  + - - - 7 8 9                                 0 a - - - b     ",
"  c - - d e f                                       g - - - h   ",
"% = - - i j                                         k - - - 5   ",
"l - - m n                                             o - - p q ",
"r - - s q           t * c c c c c c c u               ~ - - p v ",
"] - - w x           y - - - - - - - - z A             * - - p B ",
"c - - m C           D s s s E F - - - G H             > - - I J ",
"K - - - L           M N N N O P - - - i Q           R o - - S T ",
"  - - - b                     U - - : V             W - - - X   ",
"  Y - - - Z                 `  .- - ..+.          t ! - - @.#.  ",
"  $.%.- - - &.y           *.=.- - -.;.>.      ,.'.o - - ).!.~.  ",
"    {.F - - - ! ] $ ].# c - - - m ^./.    (._.K - - - :.<.[.    ",
"      }.b - - - - - - - - - - F |.1.    2.> - - - - 3.4.5.      ",
"        6.7.m - - - - - - - @.8.9.    (.> - - - :.5 0.a.        ",
"          b.c.d.( e.e.f.g.h.3 i.  j.k.l.e.e.@.m.n.o.p.          ",
"              q.r.s.t.u.v.w.    x.y.s.t.t.t.z.A.>.              ",
"                                                                ",
"                                                                ",
"                                                                ",
"                                                                ",
"  - -   -     - -   - - - - -       -   - - - - -   - -   - -   ",
"        - -       - - - - - - -     - - -       -   - -     -   ",
"    -   - -     - - - - - - - -     -   -       -   -       -   ",
"  - -       - - -   - -   - -       -           -   -     - -   "};
