/* XPM */
static char * gadmin_dhcpd_xpm[] = {
"32 28 171 2",
"  	c None",
". 	c #FCF480",
"+ 	c #FCF15F",
"@ 	c #FCF04F",
"# 	c #FCF04E",
"$ 	c #FBF050",
"% 	c #FCF161",
"& 	c #FCF26E",
"* 	c #FBEE24",
"= 	c #FAEC03",
"- 	c #FAEC00",
"; 	c #FAEC06",
"> 	c #FBEE26",
", 	c #FBEF45",
"' 	c #FDF599",
") 	c #FBEF3A",
"! 	c #FAEC02",
"~ 	c #FAEC07",
"{ 	c #FBED25",
"] 	c #FDF593",
"^ 	c #FBEE27",
"/ 	c #F3E500",
"( 	c #E2D500",
"_ 	c #E0D300",
": 	c #E8DB00",
"< 	c #F8EA00",
"[ 	c #F8EB0A",
"} 	c #FBEF37",
"| 	c #EBDD00",
"1 	c #938A00",
"2 	c #3C3800",
"3 	c #1C1A00",
"4 	c #1B1900",
"5 	c #252200",
"6 	c #6E6700",
"7 	c #D7CB00",
"8 	c #F9EB00",
"9 	c #FAEC01",
"0 	c #E8DA00",
"a 	c #DED200",
"b 	c #4C4700",
"c 	c #050400",
"d 	c #403C00",
"e 	c #D1C400",
"f 	c #F6E800",
"g 	c #FBED20",
"h 	c #F0E300",
"i 	c #524C00",
"j 	c #010100",
"k 	c #EFE100",
"l 	c #B9AD00",
"m 	c #A99F00",
"n 	c #080700",
"o 	c #EBDD01",
"p 	c #DDD000",
"q 	c #FBEF46",
"r 	c #635C00",
"s 	c #FAED0E",
"t 	c #EDDF00",
"u 	c #4A4500",
"v 	c #FBEE30",
"w 	c #4A4600",
"x 	c #FCF26F",
"y 	c #FAED1B",
"z 	c #FAED18",
"A 	c #EBDE12",
"B 	c #454000",
"C 	c #ECDF00",
"D 	c #393500",
"E 	c #514C00",
"F 	c #FBF04D",
"G 	c #E5D800",
"H 	c #2D2A00",
"I 	c #FBEE29",
"J 	c #827A00",
"K 	c #F2E525",
"L 	c #EEE100",
"M 	c #F5E700",
"N 	c #D1C500",
"O 	c #151300",
"P 	c #FBEE23",
"Q 	c #E4D700",
"R 	c #2A2700",
"S 	c #FAED1A",
"T 	c #CEC100",
"U 	c #322E00",
"V 	c #2B2800",
"W 	c #B2A81C",
"X 	c #020200",
"Y 	c #FCF277",
"Z 	c #FAEC08",
"` 	c #BDB100",
" .	c #0B0A00",
"..	c #F7E900",
"+.	c #C7BB01",
"@.	c #F4E94D",
"#.	c #5F5900",
"$.	c #FBF046",
"%.	c #787100",
"&.	c #F2E500",
"*.	c #FAEC0E",
"=.	c #FCF270",
"-.	c #C9BD00",
";.	c #161400",
">.	c #FCF265",
",.	c #FAEC05",
"'.	c #D9CD00",
").	c #232100",
"!.	c #D7CA00",
"~.	c #FBEF4E",
"{.	c #FDF59A",
"].	c #FCF15A",
"^.	c #FAEC09",
"/.	c #F1E400",
"(.	c #595300",
"_.	c #FDF58F",
":.	c #FBF04A",
"<.	c #6B6400",
"[.	c #BDB200",
"}.	c #FAEC04",
"|.	c #FBED1E",
"1.	c #FBEF40",
"2.	c #FBF049",
"3.	c #FBEF39",
"4.	c #FAED11",
"5.	c #8B8200",
"6.	c #080800",
"7.	c #FCF37D",
"8.	c #FBEE2C",
"9.	c #968D00",
"0.	c #0C0B00",
"a.	c #F2E400",
"b.	c #F4E600",
"c.	c #8E8500",
"d.	c #0E0D00",
"e.	c #FDF485",
"f.	c #FAED17",
"g.	c #8C8300",
"h.	c #121100",
"i.	c #716A00",
"j.	c #CCC000",
"k.	c #F6E900",
"l.	c #CDC100",
"m.	c #625C00",
"n.	c #FCF378",
"o.	c #FAED16",
"p.	c #C6BB00",
"q.	c #575100",
"r.	c #1E1C00",
"s.	c #A39900",
"t.	c #CFC300",
"u.	c #DBCE00",
"v.	c #D0C400",
"w.	c #A69C00",
"x.	c #645E00",
"y.	c #191700",
"z.	c #211F12",
"A.	c #A09A51",
"B.	c #E7DF6C",
"C.	c #DDD33F",
"D.	c #DBCE05",
"E.	c #9D9400",
"F.	c #554F00",
"G.	c #151400",
"H.	c #000000",
"I.	c #131200",
"J.	c #171500",
"K.	c #060500",
"L.	c #403C02",
"M.	c #1A1800",
"N.	c #111000",
"              . + @ @ @ @ @ @ @ @ @ @ @ @ @ # $ %               ",
"          & * = - - - - - - - - - - - - - - - - ; > ,           ",
"      ' ) ! - - - - - - - - - - - - - - - - - - - - ~ {         ",
"    ] ^ - - - - / ( _ _ _ _ _ _ _ _ _ _ _ _ : < - - - ! [       ",
"    } - - - | 1 2 3 4 4 4 4 4 4 4 4 4 4 4 4 5 6 7 8 - - 9 0     ",
"  % ! - - a b c                                 d e - - - f     ",
"  g - - h i j                                       k - - - l   ",
"% ! - - m n                                         o 9 - - p   ",
"q - - 8 r                                             s - - t u ",
"v - - f w           x y z z z z z z z A B             g - - C D ",
"v - - f E           F - - - - - - - - G H             I - - C D ",
"{ - - 8 J           K L L L L M - - - N O             P - - Q R ",
"S - - - T           U R R R V W ! - - m X           Y Z - - `  .",
"  ! - - ..+.                  @.- - ..#.            $.- - 8 %.  ",
"  &.- - - *.                =.Z - - -.;.          >.,.- - '.).  ",
"  !.M - - - z ~.        {.].^.- - /.(.        _.:.,.- - M <.j   ",
"    [.f - - - }.|.1.2.3.4.- - - ..5.6.    7.8.^.- - - < 9.0.    ",
"      m a.- - - - - - - - - - b.c.d.    e.f.- - - - a.g.h.      ",
"        i.j.k.- - - - - - < l.m. .    n.o.- - - ..p.q.n         ",
"          r.#.s.t.u.u.v.w.x.y.z.A.B.C.D.u.u.-.E.F.G.H.          ",
"                I.J.J.I.K.H.    L.M.J.J.J.J.N.X                 ",
"                                                                ",
"                                                                ",
"                                                                ",
"        - - -   - - -   -   -   - - -   - - - - - -             ",
"                -   -   - - -   -       -   - -     -           ",
"            -   -   -   -   -   -       -     -     -           ",
"        - - -   - - -   -   -   - - -   -       - -             "};
