/* XPM */
static char * gadmin_squid_xpm[] = {
"32 28 141 2",
"  	c None",
". 	c #D2D2B2",
"+ 	c #C9C9A3",
"@ 	c #C5C59C",
"# 	c #C5C59B",
"$ 	c #C4C49A",
"% 	c #C7C7A0",
"& 	c #CDCDA9",
"* 	c #B9B987",
"= 	c #B2B27B",
"- 	c #B2B27A",
"; 	c #B3B37B",
"> 	c #B9B986",
", 	c #BEBE91",
"' 	c #D9D9BE",
") 	c #BEBE90",
"! 	c #B3B37C",
"~ 	c #B7B784",
"{ 	c #D7D7BB",
"] 	c #B9B988",
"^ 	c #ABAB75",
"/ 	c #9D9D6B",
"( 	c #9B9B6A",
"_ 	c #A2A26F",
": 	c #B0B078",
"< 	c #B2B17C",
"[ 	c #BDBD8E",
"} 	c #A4A470",
"| 	c #606040",
"1 	c #232316",
"2 	c #0F0F09",
"3 	c #15150D",
"4 	c #46462F",
"5 	c #949465",
"6 	c #B1B17A",
"7 	c #A5A471",
"8 	c #C8C8A1",
"9 	c #9A9A69",
"0 	c #2F2F1E",
"a 	c #020201",
"b 	c #29291B",
"c 	c #909063",
"d 	c #AFAF78",
"e 	c #B8B784",
"f 	c #A9A974",
"g 	c #323221",
"h 	c #000000",
"i 	c #84845A",
"j 	c #72724D",
"k 	c #040402",
"l 	c #A7A773",
"m 	c #9E9E6C",
"n 	c #C0C094",
"o 	c #B1B179",
"p 	c #42422C",
"q 	c #B4B47E",
"r 	c #A8A873",
"s 	c #323222",
"t 	c #BBBB8B",
"u 	c #343423",
"v 	c #CACAA5",
"w 	c #B5B580",
"x 	c #B5B57F",
"y 	c #A7A775",
"z 	c #2A2A1C",
"A 	c #27271A",
"B 	c #BBBB8A",
"C 	c #393926",
"D 	c #C2C297",
"E 	c #1E1E13",
"F 	c #BABA89",
"G 	c #616142",
"H 	c #A8A87A",
"I 	c #9F9F6D",
"J 	c #AAAA75",
"K 	c #929263",
"L 	c #0C0C07",
"M 	c #B8B886",
"N 	c #A0A06D",
"O 	c #1A1A11",
"P 	c #B5B480",
"Q 	c #979768",
"R 	c #12120B",
"S 	c #868665",
"T 	c #71714D",
"U 	c #CDCDAB",
"V 	c #808057",
"W 	c #050503",
"X 	c #989869",
"Y 	c #C0C095",
"Z 	c #AEAE77",
"` 	c #3A3A26",
" .	c #BFBF92",
"..	c #4B4B32",
"+.	c #B3B37D",
"@.	c #85855A",
"#.	c #0A0A06",
"$.	c #C6C69E",
"%.	c #ACAC76",
"&.	c #B5B47F",
"*.	c #D5D5B7",
"=.	c #A6A672",
"-.	c #313120",
";.	c #D1D1B1",
">.	c #BEBE8F",
",.	c #3D3D28",
"'.	c #7A7A53",
").	c #4F4F35",
"!.	c #030302",
"~.	c #CDCCA9",
"{.	c #B7B682",
"].	c #57573A",
"^.	c #686847",
"/.	c #A5A571",
"(.	c #4E4E34",
"_.	c #CFCFAD",
":.	c #A3A36F",
"<.	c #4C4C32",
"[.	c #060604",
"}.	c #3C3C28",
"|.	c #7B7B54",
"1.	c #2D2D1D",
"2.	c #CAC9A4",
"3.	c #74744F",
"4.	c #262619",
"5.	c #010101",
"6.	c #2B2B1C",
"7.	c #555539",
"8.	c #797952",
"9.	c #838358",
"0.	c #59593C",
"a.	c #202018",
"b.	c #434335",
"c.	c #929277",
"d.	c #A0A083",
"e.	c #8C8B67",
"f.	c #838359",
"g.	c #828258",
"h.	c #525236",
"i.	c #222216",
"j.	c #060603",
"              . + @ # # # # # # # # # # # # # $ %               ",
"          & * = - - - - - - - - - - - - - - - - ; > ,           ",
"      ' ) - - - - - - - - - - - - - - - - - - - - - ! ~         ",
"    { ] - - - - ^ / ( ( ( ( ( ( ( ( ( ( ( ( _ : - - - = <       ",
"    [ - - - } | 1 2 2 2 2 2 2 2 2 2 2 2 2 2 3 4 5 6 - - - 7     ",
"  8 - - - 9 0 a                                 b c - - - d     ",
"  e - - f g h                                       f - - - i   ",
"% = - - j k                                         l - - - m   ",
"n - - o p                                             q - - r s ",
"t - - d u           v w x x x x x x x y z             ~ - - r A ",
"B - - d C           D - - - - - - - - _ E             F - - r A ",
"~ - - 6 G           H I I I I J - - - K L             M - - N O ",
"P - - - Q           3 R R R R S = - - T             U ! - - V W ",
"  - - - o X                   Y - - Z `              .- - o ..  ",
"  ^ - - - +.M               + ; - - @.#.          $.= - - K R   ",
"    %.- - - &. .        *.D ; - - =.-.        ;.>.- - - J ,.h   ",
"    '.^ - - - - x B [ * ! - - - %.).!.    ~.{.= - - - Z ].k     ",
"      ^./.- - - - - - - - - - =.(.W     _.q - - - - :.<.[.      ",
"        }.|.r - - - - - - ^ '.1.a     2.q - - - r 3.4.5.        ",
"            6.7.8.9.9.'.0.6.a.b.c.d.e.f.9.g.3.h.i.[.            ",
"                !.j.W k h         [.W W W W !.h                 ",
"                                                                ",
"                                                                ",
"                                                                ",
"          -   -   -   -   -   -   -   -   - - - -               ",
"                  - -   -     -   -   -   - -     -             ",
"          -   -   -   -   -   -   -   -   - -     -             ",
"            - -     -       - -     -         - -               "};
