/* XPM */
static char * galan_test_xpm[] = {
"32 32 64 1",
" 	c #000100",
".	c #090200",
"+	c #100101",
"@	c #1B0000",
"#	c #240000",
"$	c #0E0F0C",
"%	c #3B0000",
"&	c #580000",
"*	c #510305",
"=	c #1D1E1B",
"-	c #6E0300",
";	c #4F1316",
">	c #810000",
",	c #262826",
"'	c #2D2E2C",
")	c #9D0001",
"!	c #A40100",
"~	c #AC0000",
"{	c #363835",
"]	c #B90000",
"^	c #C40000",
"/	c #592F30",
"(	c #A90D10",
"_	c #3E403D",
":	c #D20100",
"<	c #DE0005",
"[	c #832929",
"}	c #E40000",
"|	c #444543",
"1	c #F30000",
"2	c #7B3436",
"3	c #FB0003",
"4	c #FF0000",
"5	c #763E3C",
"6	c #AB2727",
"7	c #BA2123",
"8	c #4F504E",
"9	c #C21F1F",
"0	c #6C4646",
"a	c #555552",
"b	c #D52223",
"c	c #AD3637",
"d	c #A43A3C",
"e	c #5B5D5A",
"f	c #9D4141",
"g	c #655A5A",
"h	c #FF1B14",
"i	c #705A5B",
"j	c #7A5759",
"k	c #636562",
"l	c #955253",
"m	c #9F4E51",
"n	c #895A5A",
"o	c #836060",
"p	c #7D6766",
"q	c #6E6F6C",
"r	c #CA5053",
"s	c #7D7272",
"t	c #777774",
"u	c #B06362",
"v	c #7F817E",
"w	c #FE5755",
"x	c #FF5F62",
"y	c #FF797B",
"vvvvvvvvvvvvvvvvvvvvvvvvvvvvvvvv",
"vvvvvvvvvvvvvvvvvvvvvvvvvvvvvvvv",
"vvvvvvvvvvvvvvvvvvvvvvvvvvvvvvvv",
"vvvvvvvvvvvvvvvvvvvvvvvvvvvvvvvv",
"vvvvvvvvvvvvvvvvvvvvvqg|{',,,'_k",
"vvvvvvvvpluumpvvsi000.      =8qv",
"vvvvvsfbwxwxyyrn5svvk    $|tvvvv",
"vvvvl<44414444h3(gtv8   {tvvvvvv",
"vvvd44}^!~~444443&$_k  evvvvvvvv",
"vvf4<~]}44:]44444]) e$=vvvvvvvvv",
"vs^!^144444]:4444}]-={ kvvvvvvvv",
"s[]11>;/*~44~}4444~}#a 'vvvvvvvv",
"2(44> _|q8*11!1444}]:|= qvvvvvvv",
"5c44:.     &4}~4444!16e {vvvvvvv",
"2p144^+     ~4^^444<]3o= tvvvvvv",
"5jd444}%    #44!}444147a {vvvvvv",
"j[v64444)@   ~4})444441p= tvvvvv",
"s[vvd34441>+ *44<444444dk {vvvvv",
"vvvvvl<44441>@1444444449v' qvvvv",
"vvvvvvs63444411444444449vq 'vvvv",
"vvvvvvvvo94444444444444]fv_ qvvv",
"vvvvvvvvvvn71444444444> .,k$,vvv",
"vvvvvvvvvvvvpd:44441)% {k_ $ kvv",
"vvvvvvvvvvvvvvvp7}!.     =|= =vv",
"vvvvvvvvvvvvvvvvc44*          av",
"vvvvvvvvvvvvvvvvf44]          $t",
"vvvvvvvvvvvvvvvvn444&          e",
"vvvvvvvvvvvvvvvvs<443>#        k",
"vvvvvvvvvvvvvvvvvf444}#       {v",
"vvvvvvvvvvvvvvvvvvm7di'    $,evv",
"vvvvvvvvvvvvvvvvvvvvvvvvtqtvvvvv",
"vvvvvvvvvvvvvvvvvvvvvvvvvvvvvvvv"};
