/* XPM */
static char *galaxies[] = {
/* columns rows colors chars-per-pixel */
"48 48 79 1",
"  c gray5",
". c gray8",
"X c #1A1A19",
"o c #222221",
"O c #2D2D2C",
"+ c #302F2E",
"@ c #30302F",
"# c #353535",
"$ c #383736",
"% c #393836",
"& c #3A3939",
"* c #403F3D",
"= c #41403E",
"- c #454444",
"; c #474748",
": c #4B4B4B",
"> c #555553",
", c #575758",
"< c #585754",
"1 c #595855",
"2 c #595958",
"3 c #605F5D",
"4 c #61605E",
"5 c #636364",
"6 c #6B6966",
"7 c #6D6C6A",
"8 c #6F6F70",
"9 c #727271",
"0 c #787774",
"q c #7A7976",
"w c #7B7B7C",
"e c #807E7B",
"r c #82817D",
"t c #848483",
"y c #878788",
"u c #8B8986",
"i c #8A8A89",
"p c #91908C",
"a c #969591",
"s c #989692",
"d c #9B9995",
"f c #9C9C9A",
"g c #9F9FA0",
"h c #A09E9B",
"j c #A2A09D",
"k c #A3A3A2",
"l c #A8A7A4",
"z c #ABAAA6",
"x c #AEACA9",
"c c #B0AEAA",
"v c #B3B2AD",
"b c #B4B3B2",
"n c #B8B6B1",
"m c #BBB9B5",
"M c #BBBBB9",
"N c #C0BEBA",
"B c #C4C2BE",
"V c #C5C4C1",
"C c #C8C6C1",
"Z c #CCCAC5",
"A c #CECDC8",
"S c #D0CEC9",
"D c #D4D2CD",
"F c #D6D4D0",
"G c #D8D6D1",
"H c #DCDAD5",
"J c #DCDCDB",
"K c #E0DED9",
"L c #E3E1DC",
"P c #E5E4E2",
"I c #E7E8E8",
"U c #E8E6E1",
"Y c #E8E8E5",
"T c #EAEAE9",
"R c #F0EEE8",
"E c #F3F2ED",
"W c #F4F4F4",
"Q c #FBF8F2",
"! c #FDFDFD",
/* pixels */
"DDDDDDDDDDDDDDDDDDDDDDDDDDDDDDDDDDDDDDDDDDDDDDDD",
"DDDDDDDDDDDDSDSDDDDDDSDDSDDSDDDDSDDDDDDSDDSDDDDD",
"DDDDHHHHHHHHHHHHHHHHHHHHHHLLLHHHHKJHHHKKKHHHGDDD",
"DDDDnxxxcccccccccccccccvczjczzxzlxxzxzzzzxvcADDD",
"DDHn OOOOOOOOOO+OOOOOOO #%$$$%%%##$$$%$$$& OMHDD",
"DDHx+KGHHGHGHSDHHGHGHHDOI!!!Q!!!WT!!!!!!!!;MYADG",
"DDHxOGDDDDDDDZZDDDDDDDZOI!!!!!!!WT!!!!!!Q!;bYADD",
"DDKxOGDDSDDDDZZDDDSDDDZOI!!!!!!!WT!!!!!!!!-mYADD",
"DSHx+GDDDDDDGZZGDDDDDDZOI!!!!!!!WT!!!!!!!!;bYADD",
"DDHxOHDDDDDDDZZDDDDDDDZOT!!!!!!!WT!!!!!!!!-MUSDD",
"DDHxOGDDDDDDDZSDDDDDDDZOT!!!!!!!WT!!!!!!W!-MUDGD",
"DDHx+GSDDDDDDZZDDDDDDDZOP!W!!W!!TT!!JbbP!!-bUDDD",
"DDHcOHGGDGDDGZSGDDDGDDDOT!!!!!!!WT!JM!!MP!;MYADD",
"DDHxODZBZZZZSBBZAZZZZACo598897995k!zW!!Tz!-;AGDD",
"DDHxOSZSZSZZSBBSZAAZAAZr66667660&,!zW!!Tb!kwZDDD",
"DDHxOHDDDDDGGZSGDGDDDDDDUUUUUULQp,!JMWTmI!TWHDDD",
"DDHcOGSDDDDDDZADDDDDDDDBDSSSDSSKe2!!TbMT!!IWHDDD",
"DDHxOGDDDDDDDZZGDDDDDDDBDDDDDDDLr2!W!!!!!!YWHSDD",
"DDHc+GDDDDDDGZZDDDDDDDDCDDDDGDSLr2!W!!!!!!TWHDDG",
"DDHxOHDDDDDDDZADDDDDDDGCDDDDDDDLr2!!!!!!!!TWHDDD",
"DDHxOHDDDDDDDZZDDDDDDDDBDDDDDDSLr2!W!!!!!!YWJDDD",
"DDHxOGDDDDDDDZAGDGGDDDGCDDDDDDDLr2!!!!!!!!TWHSDD",
"DDHxOHDGDGDDGZCAAZZAZZABDDDDGGDLr,!WW!QWW!IWHDDD",
"DDHcOZBCBCCBD7X@OOOoOOOomZZBBBBDi $O@O++#OXOMHDD",
"DDHc+GDDDDDSL1w!PIWWITPONGDDDDDDZmMMNNNNmZ#zLSDD",
"DDHx+GDDDDDAY1i!!WAJ!!W@NGDDDDDDAAHGHGGGDP&MUSDD",
"DSHc+GDDDDDDY1u!JbHVV!W@NGDDDDDGSBDDDDDDSK%MUSDG",
"DDHcOGDDDDDSL1i!bW!!VH!OmHDDDDDDSZDDDDDDSL%MUSDD",
"DDHc+GDDDDDAL,i!b!W!JV!OMGDDDDDDAZDDGDDDDK%MUSGD",
"DDHxOGDDHHFAY,y!bI!!MT!OMGDHHHDDAZDDDDDDAL&MUSDD",
"DDHc+GGZgfBDL1y!WbbbJ!W+MHDzfnGDABDDSDDSAH$MYSDD",
"DDHx+HAlPEvmR1y!!!!!!!Q@NHlFWNvHSGULLLLLLW&MUSDD",
"DDHxOGjJ!!!dJ2>bjjxlgkjoBvV!!!zCMrrrrrrrwuo0DDDD",
"DDHx+DdY!!!dD4X:;=----=>ZjS!W!zVu.5,22222221BGDD",
"DSHc+HNv!!AzE1qQLLLLLLYDFAzW!PjTr2!!!!!!!!TWHDDD",
"DDHx+GGNjkxFL27LZDDSDSDBDFVgjlDLr,!W!!W!!!IWHDDD",
"DDHc+GSGDZHSY28LSDDDDDGBDDFFZHDLr2!!!!!!!!TWJDDD",
"DDHx+GDDDGSSL29LSDDGDDGBDDDDDSDLr2!!!!!!!!TWHSDD",
"DDHc+GDDDDGSL18LSDDDGDGBDDDDDDDLr2!W!!!!!!TWHDDD",
"DDHcOGDDDDGDL39LSDDDDDGBDDDDDDSLr,!!!!!!!!TWHDDD",
"DDHcOGDGDDDSL27LSSDSSSSBDDDDDDDLr2!WW!!W!!IWHDDD",
"DDHcOHDHGDGDL40QHLLLLLLSDDGGGGDLt2!W!!!!!!TWHDDD",
"DDHcOZBBBBZBG4.=%%%%$%%=BBBZBBBGt.:;;;;;;;&VJDDD",
"DDHcOGSZDSSSDnadddsssdaoBGZSDDZDBpssssssajOmUSDD",
"DDGZBDDDDDDDDGHLLLHLLLHBSDDDDDDDGKKKLKLKJLCDDDDD",
"DDDGGDDDDDDDDDSDSSSDSSDGDDDDDDDDDDDSSDSDSDGDDDDD",
"DDDDDDDDDDDDDDDDDGDDDDDDDDDDDDGDDDDDDDGDDDDDDDDD",
"DDDDDDDGDDDGDDDDDDDDDDGDDDDDDDDDDDDDDDDDDDDDDDGD"
};
