/* XPM */
static char *galeon[] = {
/* columns rows colors chars-per-pixel */
"32 32 242 2",
"   c #000000",
".  c #050708",
"X  c #06080A",
"o  c #0D0C06",
"O  c #0A0B0B",
"+  c #06061B",
"@  c #060C12",
"#  c #0A0F14",
"$  c #0D0D1D",
"%  c #0D1116",
"&  c #0C121A",
"*  c #100E08",
"=  c #19170F",
"-  c #131415",
";  c #11161B",
":  c #151A1D",
">  c #1D1D1A",
",  c #0B0B20",
"<  c #0D0D2A",
"1  c #0E1721",
"2  c #0E1821",
"3  c #171720",
"4  c #16172A",
"5  c #131B23",
"6  c #1C1D2B",
"7  c #121336",
"8  c #1D201F",
"9  c #1B2125",
"0  c #1C242C",
"q  c #162432",
"w  c #1A2631",
"e  c #1A2836",
"r  c #1F2B39",
"t  c #211E12",
"y  c #262314",
"u  c #2E2918",
"i  c #322C1B",
"p  c #37311D",
"a  c #212323",
"s  c #2B2C2D",
"d  c #222134",
"f  c #23233E",
"g  c #212A33",
"h  c #232F3A",
"j  c #2C223B",
"k  c #25313D",
"l  c #29333C",
"z  c #373737",
"x  c #3B3B3A",
"c  c #0D0E45",
"v  c #0F0F4E",
"b  c #1F1E51",
"n  c #1D1B5C",
"m  c #131367",
"M  c #1C196A",
"N  c #2C2547",
"B  c #292947",
"V  c #243343",
"C  c #253748",
"Z  c #25394F",
"A  c #293540",
"S  c #2B3845",
"D  c #2D3C4C",
"F  c #2A3D52",
"G  c #343A44",
"H  c #323E4A",
"J  c #393948",
"K  c #282479",
"L  c #33356E",
"P  c #2D4054",
"I  c #2F445A",
"U  c #34414D",
"Y  c #384349",
"T  c #344353",
"R  c #32475D",
"E  c #34495E",
"W  c #394654",
"Q  c #3C4A56",
"!  c #3B4C5D",
"~  c #364B61",
"^  c #3A4E62",
"/  c #3C5066",
"(  c #3C5269",
")  c #413B27",
"_  c #413C4D",
"`  c #44355E",
"'  c #474026",
"]  c #48422F",
"[  c #574E2E",
"{  c #554E35",
"}  c #5A543A",
"|  c #665C36",
" . c #73673D",
".. c #766A3F",
"X. c #424442",
"o. c #494F4C",
"O. c #464750",
"+. c #414B54",
"@. c #404F5F",
"#. c #4C4C52",
"$. c #4A5051",
"%. c #585440",
"&. c #5C5948",
"*. c #575A52",
"=. c #595654",
"-. c #5C5F53",
";. c #5A5F5A",
":. c #415365",
">. c #42566A",
",. c #465A6E",
"<. c #485767",
"1. c #4B5C6D",
"2. c #445970",
"3. c #4A5E72",
"4. c #5E5468",
"5. c #5D5E64",
"6. c #4D6175",
"7. c #4E6379",
"8. c #536475",
"9. c #53667A",
"0. c #55697D",
"q. c #5B6C7D",
"w. c #6B6445",
"e. c #626153",
"r. c #716744",
"t. c #746943",
"y. c #7E7245",
"u. c #63686F",
"i. c #696B62",
"p. c #636F7C",
"a. c #65727F",
"s. c #777562",
"d. c #70706F",
"f. c #7F7B63",
"g. c #4C3A81",
"h. c #4B448C",
"j. c #504F85",
"k. c #5A6D81",
"l. c #5F7183",
"z. c #647485",
"x. c #627589",
"c. c #6C7C8C",
"v. c #707880",
"b. c #707F8E",
"n. c #6662A2",
"m. c #726DA0",
"M. c #6F8192",
"N. c #72818F",
"B. c #758392",
"V. c #798694",
"C. c #7B8896",
"Z. c #7E8B99",
"A. c #837646",
"S. c #85709F",
"D. c #87815E",
"F. c #92834E",
"G. c #968650",
"H. c #9A8D5E",
"J. c #898261",
"K. c #938964",
"L. c #958E75",
"P. c #97906A",
"I. c #9F997C",
"U. c #A29257",
"Y. c #A89659",
"T. c #A49767",
"R. c #A79D76",
"E. c #C3AF69",
"W. c #C2B072",
"Q. c #DDC775",
"!. c #818483",
"~. c #808088",
"^. c #8F8587",
"/. c #818D9A",
"(. c #85929E",
"). c #89939E",
"_. c #948C87",
"`. c #908C8B",
"'. c #9E9897",
"]. c #8491A0",
"[. c #8A96A2",
"{. c #8F9AA5",
"}. c #8A99A8",
"|. c #978BB5",
" X c #919CA7",
".X c #939EAA",
"XX c #9E92AD",
"oX c #9F9BAF",
"OX c #97A1AC",
"+X c #99A3AF",
"@X c #9CA6B0",
"#X c #9EA8B3",
"$X c #A59F82",
"%X c #A498B9",
"&X c #BAB191",
"*X c #A8A6AC",
"=X c #A2A3B4",
"-X c #A4ACB4",
";X c #AFACBB",
":X c #A7B0BA",
">X c #ACB5BE",
",X c #B4BCC4",
"<X c #BAB5C7",
"1X c #BBBDC5",
"2X c #BDBED2",
"3X c #BCC1C7",
"4X c #BDC2C9",
"5X c #C1B8C4",
"6X c #C5B9CB",
"7X c #C8BAC8",
"8X c #DECA83",
"9X c #D3C699",
"0X c #EEDA8F",
"qX c #F1DC8E",
"wX c #EADBA5",
"eX c #F1E3B4",
"rX c #C1C7CD",
"tX c #CBC2CF",
"yX c #C7CCD2",
"uX c #CACFD4",
"iX c #CCC8D9",
"pX c #CBD0D6",
"aX c #CED3D8",
"sX c #D3C1C3",
"dX c #DDC6C2",
"fX c #D1D5DB",
"gX c #D3D8DC",
"hX c #D5D4E6",
"jX c #DBDEE1",
"kX c #DEE1E4",
"lX c #E1DBD9",
"zX c #EBDEDC",
"xX c #E4E3E5",
"cX c #E4E7E9",
"vX c #E5E8EA",
"bX c #EDE4E4",
"nX c #E9E8EA",
"mX c #E9E8F2",
"MX c #F2EDED",
"NX c #F2F1F4",
"BX c #F8F6F7",
"VX c None",
/* pixels */
"VXVXVXVXVXVXVXVXVXVXVXVXVXVXVXVXVXVXVX& F q.q.F e VXVXVXVXVXVXVX",
"VXVXVXVXVXVXVXVXVXVXVXVXVX      .   # F +XuX>X6.Z VXVXVXVXVXVXVX",
"VXVXVXVXVXVXVXVXVXVXVXVXVX@ Q a.^ & C Z.1X[.x.( F & VXVXVXVXVXVX",
"VXVXVXVXVXVXVXVXVX  % %   k :XaXV.2 ! .XB.3.( R F & VXVXVXVXVXVX",
"VXVXVXVXVXVXVXVXVX0 1.8.k U ,X{.k.5 1./.1.~ / / V VXVXVXVXVXVXVX",
"VXVXVXVXVXVXVXVX# E :X].E / Z.x.^ 5 ! x.2.( 2.( h VXVXVXVXVXVXVX",
"VXVXVXVXVXVXVXVX5 8.:Xk.A A 8.z.H . S 2.0.0.>.D VXVXVXVXVXVXVXVX",
"VXVXVXVXVXVX& A T 2.c.6.A ; T E ; VXX D ^ ~ T VXVXVXVXVXVXVXVXVX",
"VXVXVXVXVX; 1.x.~ ^ k.3.0 VX. & & & % 5 5 5 VXz a       X x VXVX",
"VXVXVXVXVXY #XZ.^ 0 5 5 % q r T z.Z./.V.6.F Q d.=._.'.^._ O.J VX",
"VXVXVXVXVXW }.z.2.9 @ e / N.>XaXjXgXfX4X@Xz.H `.lXMXbX7Xn.L B 6 ",
"VXVXVXVXVXl 3.6.A k / (.yXcXkXgXrX,X-X XV.a.5.nXBXNXxX<Xm.j.N : ",
"VXVXVXVXVX. . & Z N.aXcXkXpX3X>X#X{.V.c.q.1.6XNXMXMXtXXXh.M b $ ",
"VXVXVXVXVXVX@ P @XxXkXuX3X:XOX).C.c.q.8.:.H aXmXzXdXS.g.K m v + ",
"VXVXVXVXVX. C {.cXgX3X-X}.C.c.z.9.3.:.^ ~ D 2XhX6XsX|.h.M n c + ",
"VXVXVXVXVX1 3.fXfX>X.XC.z.0.6.<./ ~ ~ ~ ~ Q =XiX%X5XjXoX` N 7 + ",
"VXVXVXVXVXe Z.gX>X[.c.0.,.( ~ E R R R R F u.#.;X<X5X*X4.j d 4 $ ",
"VX        e (.,X[.z.3.>.~ R I P F F Z C & - X.5.~.!.i.G 4 4 < , ",
"        u X.p..XN.6.( ~ R R C $.e.-.&.} ) o a s a s a 9 ; - $ VX",
"  . y | A.} <.C.z.1.( ~ R ~ P !.eXqX0X8Xt.*   - O         O VXVX",
"* ..F.[ t O T l.q.,./ E D Y *.K.wX0XQ...: S :.T . VXVXVXVXVXVXVX",
"A.U.i       0 2.1.! +.o.s.I.J.w.{ T.y.s p.-X[.>..           VXVX",
"E...        # Y 5.A.R.$XD.$.A #   i > v.rX-Xc.:..             VX",
"G.Y.y = 8 ] L.P.L.i.-.Y D ! ^ k .   5 ).).p.6.^ .             VX",
"u G.W.9X&XK.r.= 8 D ! :.>.>.2.>.P 9 k c.0.3.6.l               VX",
"    p ' u       . V >.6.6.6.6.6.6.7.c.c.6.9.,.;               VX",
"                  X h >.9.9.9.7.7.k.M.l.0.6.h                 VX",
"                      : T ,.7.0.9.k.q.0.,.h                   VX",
"                        . % h H T T U k %                     VX",
"VX                                                          VXVX",
"VXVX                                                      VXVXVX",
"VXVXVXVX                                              VXVXVXVXVX"
};
