/* XPM */
static char *gausssum_32x32[] = {
/* columns rows colors chars-per-pixel */
"32 32 257 2",
"   c #010100",
".  c #0C0302",
"X  c #0D0B02",
"o  c #0B0909",
"O  c #130300",
"+  c #150905",
"@  c #160C0A",
"#  c #180400",
"$  c #190E0B",
"%  c #180804",
"&  c #1D1602",
"*  c #111300",
"=  c #1C1B1B",
"-  c #171614",
";  c #1F201F",
":  c #210A00",
">  c #2A0F00",
",  c #221909",
"<  c #261B1A",
"1  c #301F1C",
"2  c #2C2602",
"3  c #2E2115",
"4  c #332D02",
"5  c #30211F",
"6  c #3C251E",
"7  c #3B3906",
"8  c #373305",
"9  c #3E3019",
"0  c #3C3415",
"q  c #232322",
"w  c #2C2221",
"e  c #2A2A2A",
"r  c #2A2826",
"t  c #342624",
"y  c #332D2C",
"u  c #3A2D2C",
"i  c #322B27",
"p  c #323127",
"a  c #3D3635",
"s  c #3E3836",
"d  c #3E3A3B",
"f  c #363435",
"g  c #463804",
"h  c #423431",
"j  c #433D3C",
"k  c #473C3A",
"l  c #503E3E",
"z  c #6A3F05",
"x  c #464407",
"c  c #494707",
"v  c #4F4F07",
"b  c #4F5107",
"n  c #524E09",
"m  c #5E4405",
"M  c #5F461F",
"N  c #504F11",
"B  c #545407",
"V  c #535309",
"C  c #575807",
"Z  c #585707",
"A  c #5B560B",
"S  c #5B5B07",
"D  c #5D5C08",
"F  c #5C5919",
"G  c #49413F",
"H  c #484036",
"J  c #564921",
"K  c #565223",
"L  c #5F6008",
"P  c #644006",
"I  c #635E07",
"U  c #605F09",
"Y  c #685C05",
"T  c #675119",
"R  c #754807",
"E  c #784B1B",
"W  c #775608",
"Q  c #735E07",
"!  c #765D0B",
"~  c #7B5A0B",
"^  c #7D5806",
"/  c #755B2B",
"(  c #626207",
")  c #656409",
"_  c #69650B",
"`  c #6B6B07",
"'  c #6C6B09",
"]  c #6B6A13",
"[  c #686218",
"{  c #6F700C",
"}  c #766307",
"|  c #7F6308",
" . c #766C08",
".. c #736815",
"X. c #73730B",
"o. c #7B7109",
"O. c #79790B",
"+. c #797417",
"@. c #706D2B",
"#. c #706639",
"$. c #7A732F",
"%. c #6A662B",
"&. c #464443",
"*. c #4A4443",
"=. c #484648",
"-. c #4E4A49",
";. c #544C4C",
":. c #584A47",
">. c #534E52",
",. c #5D514E",
"<. c #5E5142",
"1. c #555152",
"2. c #5B5353",
"3. c #5F5957",
"4. c #5D5A5A",
"5. c #65554F",
"6. c #655653",
"7. c #645B5B",
"8. c #6B5E5C",
"9. c #6D5950",
"0. c #775F49",
"q. c #6C5F60",
"w. c #6C635E",
"e. c #6F6154",
"r. c #79684B",
"t. c #7A6D57",
"y. c #78724D",
"u. c #6D6261",
"i. c #6D6B67",
"p. c #736664",
"a. c #756966",
"s. c #746A6A",
"d. c #7A6D6B",
"f. c #7C736E",
"g. c #767171",
"h. c #7D7372",
"j. c #7C7C74",
"k. c #7C7778",
"l. c #865906",
"z. c #975802",
"x. c #866508",
"c. c #896807",
"v. c #8F6010",
"b. c #857D0B",
"n. c #966012",
"m. c #987408",
"M. c #977417",
"N. c #837620",
"B. c #9C6A37",
"V. c #876334",
"C. c #807044",
"Z. c #947352",
"A. c #817E66",
"S. c #827372",
"D. c #857875",
"F. c #847E7D",
"G. c #887973",
"H. c #8B7B7A",
"J. c #857F80",
"K. c #917E80",
"L. c #84830C",
"P. c #8C870C",
"I. c #8D8A0C",
"U. c #99970E",
"Y. c #9D9B0E",
"T. c #93920F",
"R. c #9B9B10",
"E. c #898628",
"W. c #A5A10E",
"Q. c #A9A70F",
"!. c #AEAB0F",
"~. c #A2A110",
"^. c #A9A710",
"/. c #A9A715",
"(. c #B1AF0F",
"). c #B5A20C",
"_. c #BABA0F",
"`. c #B6B310",
"'. c #8C8657",
"]. c #8B827F",
"[. c #9C9375",
"{. c #A0905F",
"}. c #B99163",
"|. c #C1BE10",
" X c #C9C612",
".X c #CBC712",
"XX c #D2CD11",
"oX c #D6D313",
"OX c #D7D719",
"+X c #D8D513",
"@X c #DEDB15",
"#X c #E1DE15",
"$X c #E5E217",
"%X c #EBE615",
"&X c #ECE916",
"*X c #F7F51A",
"=X c #FFFF20",
"-X c #8C8584",
";X c #898681",
":X c #928483",
">X c #948D8D",
",X c #9D8E8C",
"<X c #958887",
"1X c #9D928E",
"2X c #949189",
"3X c #9E9799",
"4X c #9F999B",
"5X c #9A9293",
"6X c #A39595",
"7X c #A79B97",
"8X c #A59C9C",
"9X c #AA9B99",
"0X c #A79FA1",
"qX c #A7A28D",
"wX c #A9A39E",
"eX c #B8AC88",
"rX c #B5AB97",
"tX c #AEA9AA",
"yX c #ABA5A6",
"uX c #B0A7A8",
"iX c #B2ABAC",
"pX c #B8A8A7",
"aX c #B6A8A6",
"sX c #BAB4AF",
"dX c #B7B2B2",
"fX c #BCB4B5",
"gX c #BFBBBB",
"hX c #C6B69C",
"jX c #D5BE96",
"kX c #C5BFA2",
"lX c #C3B3B2",
"zX c #C3BBBC",
"xX c #CABDBD",
"cX c #C0BAB7",
"vX c #CCC59F",
"bX c #C9C1BD",
"nX c #DAC5AE",
"mX c #DBC9BD",
"MX c #E3D0BE",
"NX c #CDC7C7",
"BX c #CBC8C8",
"VX c #D5C7C5",
"CX c #DBCDCC",
"ZX c #D7CDCC",
"AX c #DCD3D4",
"SX c #D5D1D1",
"DX c #E4D9DA",
"FX c #E3D1D4",
"GX c #E6E4E5",
"HX c #EBE4E5",
"JX c #E9E7E8",
"KX c #ECEBEB",
"LX c #F2EEEE",
"PX c #FAF7F6",
"IX c #FEFDFD",
"UX c #F2F2F1",
"YX c None",
/* pixels */
"YXYXYXYXYXYXYXYXYXYXYXYXYXYXYXYXYXYXYXYXYXYXYXYXYXYXYXYXYXYXYXYX",
"YXYXYXYXYXYXYXYXYXYXYXYXYXYXYXYXYXYXYXYXYXYXYXYXYXYXYXYXYXYXYXYX",
"YXYXYXYXYXYXYXYXYXYXYXYXYXYXYXYXYXYXYXYXYXYXYXYXYXYXYXYXYXYXYXYX",
"      o o         o       o         o                 o o       ",
"4.>.q =.4.e d 4.s f ;.s k ;.*.j j *.2.-.h G *.*.1.k y j >.*.k *.",
"g.3X>.f F.;X-.3.F.s.1.q.f.s.q.p.d.p.8.d.D.p.p.p.p.p.S.d.7.7.u.S.",
"=.3X5X=.=.>X-X;.-.-X6Xu.;.d.C.E B.Z.G.a.q.a.S.d.p.a.d.d.S.S.f.,.",
"f J.iXs.y 2.0X0X7.a i.8Xf.M ~ l.z.z.V.9.S.K.D.S.f.S.s.w.q.d.H.-X",
"q i.dXtX>.w 2.iXiXJ.k w.y.v I P.).c.l./ 6.6.p.d.S.d.S.,X,X1X8.,.",
"= =.tXBX4X*.i q.8XfX7.0 x v S W.$XP.} ! C.<XK.K.,X9X9X6.h h :.9X",
"r d g.fX0X7.h u 6XFXrXF B B S Y.&XR.' Y N.eXzXK.h t 1 p.CXVXxXlX",
"- w J.AXLXAXd.w h <.%.V C B S L.+X^.{ I _ T g w.xXxXpXpXH.G.<X6X",
">.f s.<XzX8Xk 1 , g C V S S L { _. XO.( L _ A #.hXVXDXDX,.@ @ @ ",
"o   . =.zXHXZX[.F D V Z ) ) L ` !.+XU.( ) ) ] ] ~ J h l 6.,X-Xd.",
"y < u.AXPXPXhX$.] C b ) ` ) S ) Q.%X`.` D _ U _ ..n % . y SXIXIX",
"uX&.=.h.5X7X@._ A V S ' ' ` S ) W.&X.XO.Z _ I U ] ] C.8.1.uXKXLX",
"a X   . , N _ U v C ) { ` L L L Y.%X#XI.L S ' L _ +.vXPXUXdXj *.",
"  .   X 7 b C C C Z ` ) ` L S L U.#X#XY.) S ) ) L _ eXIXIXGXj + ",
"$ . + 8 v v Z S Z I S S ` L C ` U.XXoX~.{ L D _ I Y {.KXPXIXk.$ ",
"tX;XK Z C V Z ( Z S B L L L L { Y. X XR.X.' ) L I } T :.u.;Xk.-.",
"IXvX[ b v V V V Z V V Z L L ` L.!.+X XT.' ` O.X._ Q P # O % t uX",
"zXH 2 4 8 7 x x V A C D L ` I.~.oX*X$X^.X.L ) o.| W P : O O + S.",
"y X   O O O O 1 e.t.r.#.@.E.~. X*X*X*XOXI.` Y } | ^ z : O O O t ",
".   . . O . + :.D.S.S.h.j.A.'.E./.OX*X&X!.o.! | x.x.R > O O . . ",
"  o o . O O k H.].H.G.D.j.j.j.p * 2 ) L.b.c.^ l.m.m.v.0.:.u = + ",
"  . O o . 5 5XpXwX7X1X2X].].i.- X X   * & , g R M.m.n.nXLXAXzX8X",
"8.&.< o $ -XFXZXVXbXfXsXiXwXw.*   X     X   . 6 hXjX}.MXIXIXIXIX",
"JXBXyXk.7.zXDXFXCXBXBXbXcXtX&.X X   X   .     5 xXKXJXHXKXKXKXKX",
"e e e r = ; e r q q q q q = o                   q e e e e e e e ",
"YXYXYXYXYXYXYXYXYXYXYXYXYXYXYXYXYXYXYXYXYXYXYXYXYXYXYXYXYXYXYXYX",
"YXYXYXYXYXYXYXYXYXYXYXYXYXYXYXYXYXYXYXYXYXYXYXYXYXYXYXYXYXYXYXYX",
"YXYXYXYXYXYXYXYXYXYXYXYXYXYXYXYXYXYXYXYXYXYXYXYXYXYXYXYXYXYXYXYX"
};
