/* XPM */
static char * geekast_xpm[] = {
"45 45 220 2",
"  	c #FFFFFF",
". 	c #FDFDFD",
"+ 	c #F4F4F4",
"@ 	c #FAFAFA",
"# 	c #FEFEFE",
"$ 	c #F7F7F7",
"% 	c #D4D4D4",
"& 	c #EBEBEB",
"* 	c #FCFCFC",
"= 	c #9C9C9C",
"- 	c #616161",
"; 	c #989898",
"> 	c #E3E3E3",
", 	c #797979",
"' 	c #B9B9B9",
") 	c #FBFBFB",
"! 	c #D1D1D1",
"~ 	c #3D3D3D",
"{ 	c #171717",
"] 	c #393939",
"^ 	c #A1A1A1",
"/ 	c #A4A4A4",
"( 	c #666666",
"_ 	c #A7A7A7",
": 	c #F8F8F8",
"< 	c #909090",
"[ 	c #010101",
"} 	c #000000",
"| 	c #F9F9F9",
"1 	c #F1F1F1",
"2 	c #5D5D5D",
"3 	c #474747",
"4 	c #C1C1C1",
"5 	c #494949",
"6 	c #999999",
"7 	c #E7E7E7",
"8 	c #DADADA",
"9 	c #161616",
"0 	c #404040",
"a 	c #EDEDED",
"b 	c #D0D0D0",
"c 	c #191919",
"d 	c #3C3C3C",
"e 	c #C4C4C4",
"f 	c #EEEEEE",
"g 	c #6E6E6E",
"h 	c #0F0F0F",
"i 	c #7C7C7C",
"j 	c #DEDEDE",
"k 	c #676767",
"l 	c #050505",
"m 	c #C2C2C2",
"n 	c #E0E0E0",
"o 	c #858585",
"p 	c #E9E9E9",
"q 	c #BFBFBF",
"r 	c #141414",
"s 	c #2C2C2C",
"t 	c #8F8F8F",
"u 	c #292929",
"v 	c #3E3E3E",
"w 	c #9F9F9F",
"x 	c #F3F3F3",
"y 	c #3F3F3F",
"z 	c #020202",
"A 	c #898989",
"B 	c #1D1D1D",
"C 	c #545454",
"D 	c #323232",
"E 	c #E2E2E2",
"F 	c #626262",
"G 	c #1C1C1C",
"H 	c #2B2B2B",
"I 	c #F5F5F5",
"J 	c #959595",
"K 	c #767676",
"L 	c #9D9D9D",
"M 	c #0E0E0E",
"N 	c #ECECEC",
"O 	c #C5C5C5",
"P 	c #C9C9C9",
"Q 	c #060606",
"R 	c #090909",
"S 	c #949494",
"T 	c #464646",
"U 	c #6D6D6D",
"V 	c #CDCDCD",
"W 	c #A3A3A3",
"X 	c #787878",
"Y 	c #838383",
"Z 	c #F0F0F0",
"` 	c #3B3B3B",
" .	c #242424",
"..	c #878787",
"+.	c #E1E1E1",
"@.	c #4D4D4D",
"#.	c #CFCFCF",
"$.	c #9E9E9E",
"%.	c #B3B3B3",
"&.	c #C3C3C3",
"*.	c #7E7E7E",
"=.	c #4F4F4F",
"-.	c #505050",
";.	c #6A6A6A",
">.	c #A8A8A8",
",.	c #0A0A0A",
"'.	c #313131",
").	c #4C4C4C",
"!.	c #282828",
"~.	c #6C6C6C",
"{.	c #454545",
"].	c #A2A2A2",
"^.	c #373737",
"/.	c #5F5F5F",
"(.	c #131313",
"_.	c #848484",
":.	c #1B1B1B",
"<.	c #DCDCDC",
"[.	c #0B0B0B",
"}.	c #212121",
"|.	c #A9A9A9",
"1.	c #E8E8E8",
"2.	c #ACACAC",
"3.	c #747474",
"4.	c #A6A6A6",
"5.	c #383838",
"6.	c #272727",
"7.	c #0C0C0C",
"8.	c #040404",
"9.	c #979797",
"0.	c #5C5C5C",
"a.	c #B4B4B4",
"b.	c #252525",
"c.	c #6B6B6B",
"d.	c #5B5B5B",
"e.	c #D8D8D8",
"f.	c #E6E6E6",
"g.	c #AAAAAA",
"h.	c #0D0D0D",
"i.	c #343434",
"j.	c #AEAEAE",
"k.	c #F6F6F6",
"l.	c #9B9B9B",
"m.	c #4B4B4B",
"n.	c #1E1E1E",
"o.	c #2F2F2F",
"p.	c #D2D2D2",
"q.	c #202020",
"r.	c #575757",
"s.	c #ABABAB",
"t.	c #B5B5B5",
"u.	c #606060",
"v.	c #363636",
"w.	c #121212",
"x.	c #C7C7C7",
"y.	c #424242",
"z.	c #737373",
"A.	c #D9D9D9",
"B.	c #555555",
"C.	c #686868",
"D.	c #B6B6B6",
"E.	c #F2F2F2",
"F.	c #D6D6D6",
"G.	c #7D7D7D",
"H.	c #636363",
"I.	c #8B8B8B",
"J.	c #818181",
"K.	c #8A8A8A",
"L.	c #2A2A2A",
"M.	c #B8B8B8",
"N.	c #303030",
"O.	c #BABABA",
"P.	c #8E8E8E",
"Q.	c #8D8D8D",
"R.	c #070707",
"S.	c #E5E5E5",
"T.	c #080808",
"U.	c #ADADAD",
"V.	c #1F1F1F",
"W.	c #434343",
"X.	c #AFAFAF",
"Y.	c #8C8C8C",
"Z.	c #181818",
"`.	c #777777",
" +	c #6F6F6F",
".+	c #BEBEBE",
"++	c #808080",
"@+	c #656565",
"#+	c #7F7F7F",
"$+	c #7A7A7A",
"%+	c #222222",
"&+	c #E4E4E4",
"*+	c #828282",
"=+	c #BBBBBB",
"-+	c #DDDDDD",
";+	c #595959",
">+	c #BCBCBC",
",+	c #A0A0A0",
"'+	c #4E4E4E",
")+	c #DFDFDF",
"!+	c #101010",
"~+	c #919191",
"{+	c #333333",
"]+	c #030303",
"^+	c #484848",
"/+	c #444444",
"(+	c #757575",
"_+	c #717171",
":+	c #5E5E5E",
"<+	c #888888",
"[+	c #696969",
"}+	c #525252",
"|+	c #CECECE",
"1+	c #C6C6C6",
"2+	c #EFEFEF",
"3+	c #B0B0B0",
"4+	c #3A3A3A",
"5+	c #585858",
"6+	c #A5A5A5",
"7+	c #868686",
"                                                                                          ",
"                                                                  . + @                   ",
"                                              # . #               $ % & #                 ",
"                                            * = - ; $             . > , ' )               ",
"                                            ! ~ { ] ^ #             + / ( _ :             ",
"                                            < [ } } ~ >       * |     1 2 3 4 )           ",
"                                          * 5 } } } } 6       + 7 ) #   8 9 0 a           ",
"                                          b c } } } } d +     * e = f   $ g h i #         ",
"                                        j k l } } } } h m       n < o p   q r s %         ",
"                                      7 t u } } } } } } i $ 1 #   ' v w : x y z A .       ",
"                                    $ _ B C } } } } } } D E ! x # ) F G n   o } H I       ",
"                                  * J u K L } } } } } } M % b K N # O M g * P Q R e       ",
"                                N S T U V W } } } } } } z W & X Y I Z `  .8 a  .} ..      ",
"                            . +.^ @.2 #.# $.[ } } } } } } ( # %.D &.# *.[ = . =.} -.*     ",
"                          * a ; s ;.7     >.R ,.} } } } } s @ @ '.- @ m [ ).* *.} !.I     ",
"                        # j ~.{.].> )     %.^./.[ } } } } (.E # _.:.<.1 [.}.a |.} h 1.    ",
"                      a 2.k 3.4.>         O 5.q 6.} } } } l m   q 7.W # D R 8 ! } 8.n     ",
"                # 1.O 9./.0.a.|           <.b.I c.} } } } } L   1.c c.  d.} e N z } e.    ",
"            * x f.g.@.h.).n               1 M + q l } } } } 3.    i.v   i } j.k.,.} #.    ",
"            E l.m.n.7.o.p.@               : n.1.& q.} } } } r.    2 }.  9.} s.| B } b     ",
"        * t.u.v.w.[ [ _.:                 * d x.@ y.} } } } 5.    z.{   s.} s.@ 6.} A.    ",
"    | % x.B.,.} } } 8.O                   # - /   C.} } } } B     Y :.  D.} t.@ H 8.E     ",
"  E.F.G.H.[ } } } } ,.j                     I.J.  K.} } } } [.#   t L.  M.[ P @ L.h 1.    ",
"  / 5.N.n.} } } } } ,.j                     O.B.  P.} } } } R I   Q.3   M.R.8 @ L.6.+     ",
"F.0.y.0 R.} } } } } 8.%                     S.v k.t } } } } T.1   Y g   U.V.f | b.W.*     ",
"L -.2 F } } } } } } [ X.                    * {.E Y.} } } } T.Z   3.$.  6 {.) : Z.~.      ",
"( 3.c.`.} } } } } } }  +)                     ~..+++} } } } T.Z   @+p.  #+X   x T.^       ",
"2 $+J.d.} } } } } } } %+&+                    U.*+/.} } } } T.Z # ( k.  2 =+  E l -+      ",
"U H.;.@.,.} } } } } } T.C.b x k.#             +.;+N.} } } } R : N |.#   0.7   >+^.I       ",
",+'+5 ` w.} } } } } } } Z.3.= L w $.>.M.x.)+1 @ c.!+} } } } (.. 7 n   E.I.*   ~+++#       ",
"E 2 v {+}.,.8.]+} } } } z v.^+/+5.{+y.0.(+l.q j 6 l } } } } L.  1 *   n %   # _+V         ",
"* A.I.:+).v.c w.[ } } } 7.! -+A.#.e _ <+[+v i.=.Y Z.} } } } C   #     7 )   $ G.@         ",
"  $ <.V x..+X./ }+[ } } (.I | : + 1 f.8 |+.+j.9.*.}.[ } } [ I.        :     7 m           ",
"          # | E.%.}.} } M &+                I <.t.*+{.R.} Z.1+              & 2+          ",
"                  - [ } z D.                      . 3+4+}.5+k.              )             ",
"                  =+8.} } _.                        @ -+_ &+#                             ",
"                  p 9 } } {.+                         : 1.@                               ",
"                  * ` } } { O.                                                            ",
"                    [+} } } _+#                                                           ",
"                    t } } } -.*                                                           ",
"                    >+8.} } { .+                                                          ",
"                    E :.} } [ 6+                                                          ",
"                    @ C R.} } $.                                                          ",
"                      q q.[ } t                                                           ",
"                      2+' 7+*.m                                                           "};
