/* XPM */
static char * gemdropx_icon_xpm[] = {
"32 32 28 1",
" 	c None",
".	c #000000",
"+	c #AC8593",
"@	c #E6B2C5",
"#	c #24B5B8",
"$	c #00787B",
"%	c #EED2DD",
"&	c #31F2F6",
"*	c #00A1A4",
"=	c #B8B5B8",
"-	c #735962",
";	c #C5F294",
">	c #008183",
",	c #006062",
"'	c #73DA10",
")	c #A0F23D",
"!	c #83E618",
"~	c #94F220",
"{	c #52C200",
"]	c #25243D",
"^	c #9491F6",
"/	c #2020F6",
"(	c #0808D1",
"_	c #000031",
":	c #3D3CF6",
"<	c #7774F6",
"[	c #0000C5",
"}	c #D50073",
"................................",
"................................",
"................................",
"................................",
"................................",
"................................",
"................................",
"................................",
"....+@@@@@@+...........#$.......",
"...+@%%@@%%@+.........#&*$......",
"...@@==@@==@@........#&&**$.....",
"...@@@@@@@@@@.......#&&&***$....",
"...@@-@@@@-@@......#&&&&****$...",
"...@@.----.@@.....#&&&&&*****$..",
"...+@@----@@+....#&&&&&&******$.",
"....+@@@@@@+....#&&&&&&&*******$",
"@;;;;;;;;;;;;;;@$*******>>>>>>>,",
"@''';;;;;;)!'''@.$******>>>>>>,.",
"....;;;;;;~{......$*****>>>>>,..",
"....;;;;;;~{.......$****>>>>,...",
"..]^^^^^^^^/(_......$***>>>,....",
"..^^:(_..]^</[.......$**>>,.....",
"..^^/[....^^/[........$*>,......",
"}}}}}}....}}}}}}.......$,.......",
"................................",
"................................",
"................................",
"................................",
"................................",
"................................",
"................................",
"................................"};
