/* XPM */
static char *glest[] = {
/* columns rows colors chars-per-pixel */
"32 32 220 2",
"   c #110C0A",
".  c #170F09",
"X  c #120E11",
"o  c #1D140A",
"O  c #12121E",
"+  c #13182D",
"@  c #151A2F",
"#  c #20190C",
"$  c #241B0C",
"%  c #271E0C",
"&  c #2A200E",
"*  c #2C220E",
"=  c #2E2410",
"-  c #2F2512",
";  c #3C2C0F",
":  c #312712",
">  c #332913",
",  c #352B14",
"<  c #372C14",
"1  c #3A2C11",
"2  c #392D15",
"3  c #412E0C",
"4  c #45310B",
"5  c #48310A",
"6  c #48320D",
"7  c #433317",
"8  c #463212",
"9  c #40341A",
"0  c #41341A",
"q  c #41351B",
"w  c #42361C",
"e  c #43371E",
"r  c #47391B",
"t  c #44381E",
"y  c #44381F",
"u  c #46391C",
"i  c #4F3C14",
"p  c #49391A",
"a  c #4B3A18",
"s  c #4F3E1A",
"d  c #4D3E1E",
"f  c #503D15",
"g  c #4B3E22",
"h  c #493E26",
"j  c #493F27",
"k  c #4A3E24",
"l  c #4C3E21",
"z  c #5E4B1E",
"x  c #47412C",
"c  c #484029",
"v  c #434232",
"b  c #5E4C22",
"n  c #5D4C25",
"m  c #5E4D28",
"M  c #5D4E2C",
"N  c #5E5233",
"B  c #634A13",
"V  c #614A17",
"C  c #664E15",
"Z  c #6B5517",
"A  c #6E5817",
"S  c #6F581A",
"D  c #6F5821",
"F  c #6E5927",
"G  c #6E5A2B",
"H  c #6F5B2C",
"J  c #715D2E",
"K  c #735F2F",
"L  c #75602F",
"P  c #776231",
"I  c #786435",
"U  c #79663A",
"Y  c #7A673C",
"T  c #7E693B",
"R  c #434741",
"E  c #424A4F",
"W  c #434E58",
"Q  c #45515F",
"!  c #4D5558",
"~  c #54554D",
"^  c #5D7CA0",
"/  c #587AA9",
"(  c #577FB3",
")  c #647D98",
"_  c #6B8098",
"`  c #70849F",
"'  c #758AA5",
"]  c #7D8FA8",
"[  c #5A8ACE",
"{  c #598DD4",
"}  c #5A8EDC",
"|  c #5D8EE7",
" . c #6095EC",
".. c #639AEF",
"X. c #669FF2",
"o. c #70ACF9",
"O. c #75B2FB",
"+. c #79B7FD",
"@. c #7DBCFD",
"#. c #8F731E",
"$. c #93770E",
"%. c #957A09",
"&. c #987E06",
"*. c #917516",
"=. c #90741A",
"-. c #846E39",
";. c #8D7224",
":. c #877137",
">. c #8F7F52",
",. c #9B8205",
"<. c #A08304",
"1. c #A48504",
"2. c #AB8807",
"3. c #B68609",
"4. c #B38809",
"5. c #BB8308",
"6. c #B1A13D",
"7. c #B7A03B",
"8. c #98844B",
"9. c #9E8D47",
"0. c #9B8949",
"q. c #908054",
"w. c #928663",
"e. c #958866",
"r. c #988B6B",
"t. c #9B8D6E",
"y. c #9F9070",
"u. c #A19146",
"i. c #A89743",
"p. c #AD9D40",
"a. c #A19372",
"s. c #A29473",
"d. c #A39674",
"f. c #A49776",
"g. c #A69A78",
"h. c #A89B7A",
"j. c #A89D7C",
"k. c #AAA07E",
"l. c #ABA17F",
"z. c #C08007",
"x. c #C38006",
"c. c #C98305",
"v. c #CF8A04",
"b. c #D69003",
"n. c #D89904",
"m. c #DDA204",
"M. c #CCA72E",
"N. c #C0A037",
"B. c #C5A333",
"V. c #E1A903",
"C. c #E3B102",
"Z. c #E5BA02",
"A. c #D7C01F",
"S. c #DDCE16",
"D. c #E5C101",
"F. c #EDCC01",
"G. c #E2D40F",
"H. c #E8DA0B",
"J. c #EEDE09",
"K. c #F3D701",
"L. c #F7E604",
"P. c #F8E101",
"I. c #F9E904",
"U. c #FCEA02",
"Y. c #E7E556",
"T. c #E4E15E",
"R. c #EBE951",
"E. c #F0EE4C",
"W. c #F6F649",
"Q. c #E6E264",
"!. c #E6E369",
"~. c #E7E56D",
"^. c #E7E572",
"/. c #E4E478",
"(. c #8193AA",
"). c #8598B0",
"_. c #889AB1",
"`. c #919EB2",
"'. c #96A0AF",
"]. c #9BA2A8",
"[. c #ACA382",
"{. c #ACA484",
"}. c #AAA58C",
"|. c #A6A495",
" X c #A1A39F",
".X c #80BFFB",
"XX c #89C3FA",
"oX c #8DC4F9",
"OX c #93C6F7",
"+X c #96C7F6",
"@X c #A7C3DD",
"#X c #AFC2D0",
"$X c #A9C2D9",
"%X c #B3C6CC",
"&X c #B7CBCD",
"*X c #BBD0D1",
"=X c #A6C5E2",
"-X c #A2C9ED",
";X c #A0CCF3",
":X c #BED9E2",
">X c #DFE184",
",X c #E0E389",
"<X c #E0E493",
"1X c #E5E89E",
"2X c #E8EBA8",
"3X c #EBEFB4",
"4X c #C2DEE7",
"5X c #C4E2EE",
"6X c #C8E6F1",
"7X c #CDE7F3",
"8X c #D8F2FA",
"9X c #DAF3FB",
"0X c #DEF5FC",
"qX c #F0F2C2",
"wX c #F2F4CC",
"eX c #F4F6D8",
"rX c #E6F7FE",
"tX c #EFFAFE",
"yX c #F4FCFE",
"uX c #FBFEFE",
/* pixels */
"[.1X*Xt.j.}.a.r.a.[.e.g.}.a.{.a.[.{.}.{.y.h.}.[.h.t.[.a.f.h.f.K ",
"A.eX!.C i P N b B I C B z m K Z C z a I U i C J N D T i T B N 2 ",
"}.M.V.S.f K A P V -.>.-.C P Z K D G $.Y -.:.C a $.U >.L I N #.2 ",
"e.i <.n.A.7 % - 1 a d 8 , 2 l h q e : 7 7 k l g $ k g 0 p V N > ",
"{.G 5 5.b.R., > t e 0 l t u 2 l l r 8 7 7 l 1 7 g u r o a M.Y h ",
"s.T M : 5.F.m.K 0 1 >.U g m l l g m l F 3 M d 3 l $ u S U.2.i < ",
"y.N Y > 2 B B.2X,X^.>.e h g g 2 3 p 3 l 2 h 7 % b %.P.U.3.0 a = ",
"r.A U h < 3 1X>XqXw.$ g % z 2.V.V.b.b.&.%.B f &.U.F.c.K.. h $.: ",
"g.n V 7 a 2 p.1XQ @X~ B L.U.n.;.-.T i.9.M.c.b.V.) @ U.4 . 3 M 2 ",
"s.T B 1 h l 0.>.Q ^ Y.U.%.) $X7X0XrXyX9X7X5X&X&XX.Z.,.X : P P : ",
"h.I :.; : a f.< - S.V.Q 5XuXrX3X~.Q.<X6X5XuXuX+X1.F.  $ 7 Z >.t ",
"h.L >.u 1 z G & S.Z./ 9XuX@.3.K.Z.Z.C.b.U [ uX! V.1 * q t D >.0 ",
"t.B G x x c 2 A P.Q yXuXOXZ U.%       . B 8.6X5.3.X 0 h 1 f K : ",
"r.B n 2 c d 2 F.#.OXuXuXQ U.v % o u > , 4 B.XXm.i # u l t m K 0 ",
"g.P L < e d V Z.) uXuX+XV.,.@ ] N & * , 4 B.[ F.o < g l g -.-.e ",
"a.K :.h 1 u B b.%XuXuX$XF.5 W Q _.:.2.D.C.v.! P.  < t l 2 T B 0 ",
"e.D I t 7 c B c.:XuXuX%Xn.o * 6.U.K.x.I N.>.J Z.Z % h q g -.-.q ",
"s.z T h 2 h i x.=XuXuX_.b.A I.D.U ` ;X:XtXyX4X/ V.,.# e c T I ; ",
"s.P z 3 g ; a x.' uXuX;Xn.I.w.O.8XwX/.W.).:XuXuX} Z.B : u n -.q ",
"w.Z U q 7 ; % x.! rX0XuX) { 6XW.U.U.F.,.4.Q uXuX9X0.z.$ u V Z 2 ",
"l.F -.r h ; q 3 4.( %X].;XA.P.,.4 #   @ 5 2.XXyX9Xj.n.& 2 G -.q ",
"l.T :.u c 1 , f U.W (.`.'.-XC.4.    X O J.2.+.].5Xf.V.$ 2 D q.c ",
"y.f -.1 q 6 G.U.U.P.[ `.].].oX7.P.K.G.U.S.'.(.|...Z.&.X q L B 1 ",
"s.M N $ Z W.W.7.q $ P.) | ]. X).) {.2.B [ '.=X@.3.U.  $ e Y M q ",
"r.A ;.E.W.i.  . - # . D.i.{ o._.@X|  .O.;X6X>XD.S.E & * c M *.2 ",
"l.6.W.;.> o , q u h - . n.U.T.<X3X&X1X<XW.U.U.0.R E |.d 1 K f e ",
"j.u.d o o % a 8 e r n q   ; 1.D.G.H.G.C.$.D X . & ! ^ %Xc U C , ",
"q.f G $ 2 g h 7 a 1 1 1 2 >   & , , $ o . . > * q & ) [ %XK H e ",
"s.B :.8 , g e q x e c M 1 e h , 2 q 1 * u h ; e 7 , > ! ' #X5 * ",
"a.3 K C I -.4 b :.P I -.z N S q.L V M D Z :.F Z M b I n ! ).e.& ",
"w.$.G :.B >.S P -.I :.P P T P D q.N $.U I :.I b =.n D F K N ) v ",
"K - 2 x , g * > g e h 2 - > h > c e > e 2 2 u & & g 2 2 q $ - $ "
};
