/* XPM */
static char * gltron_icon_xpm[] = {
"32 32 106 2",
"       c None",
".      c #000000",
"+      c #3E3E00",
"@      c #555500",
"#      c #686800",
"$      c #D1D100",
"%      c #F0F000",
"&      c #EAEA00",
"*      c #232300",
"=      c #4A4A00",
"-      c #515100",
";      c #7F7F00",
">      c #969600",
",      c #BEBE00",
"'      c #E8E800",
")      c #F4F400",
"!      c #FBFB00",
"~      c #F6F600",
"{      c #F2F200",
"]      c #F7F700",
"^      c #F9F900",
"/      c #F3F300",
"(      c #EEEE00",
"_      c #B9B900",
":      c #FAFA00",
"<      c #F5F500",
"[      c #FDFD00",
"}      c #FFFF00",
"|      c #F8F800",
"1      c #EFEF00",
"2      c #808000",
"3      c #E6E600",
"4      c #FEFE00",
"5      c #F4F407",
"6      c #BDBD81",
"7      c #9B9BCE",
"8      c #F8F80F",
"9      c #C4C47B",
"0      c #9696D9",
"a      c #8484FF",
"b      c #8C8CEC",
"c      c #EBEB00",
"d      c #CECE00",
"e      c #ACAC00",
"f      c #8E8E00",
"g      c #9B9B00",
"h      c #F0F019",
"i      c #CCCC43",
"j      c #858572",
"k      c #4D4D95",
"l      c #56569E",
"m      c #363600",
"n      c #3B3B00",
"o      c #D7D700",
"p      c #D6D600",
"q      c #BDBD00",
"r      c #0F0F00",
"s      c #030300",
"t      c #8F8F00",
"u      c #CDCD21",
"v      c #ACACA1",
"w      c #D7D752",
"x      c #FFFF01",
"y      c #E4E400",
"z      c #DEDE00",
"A      c #0B0B00",
"B      c #F1F100",
"C      c #070700",
"D      c #989800",
"E      c #BEBE38",
"F      c #8585FC",
"G      c #8F8FE8",
"H      c #C7C773",
"I      c #F3F319",
"J      c #292900",
"K      c #060600",
"L      c #DCDC00",
"M      c #ABAB00",
"N      c #121200",
"O      c #B7B700",
"P      c #C2C217",
"Q      c #8585FA",
"R      c #8989F4",
"S      c #9090E6",
"T      c #C3C37D",
"U      c #C8C800",
"V      c #050500",
"W      c #ADAD00",
"X      c #B0B000",
"Y      c #020200",
"Z      c #A6A600",
"`      c #D9D904",
" .     c #9A99A2",
"..     c #8989DE",
"+.     c #8C8BDD",
"@.     c #9A99B3",
"#.     c #A3A3A5",
"$.     c #AAAAA4",
"%.     c #9796D7",
"&.     c #949400",
"*.     c #C1C100",
"=.     c #FCFC00",
"-.     c #ECEC00",
";.     c #E5E500",
">.     c #E3E300",
",.     c #E2E200",
"                                                                ",
"                                                                ",
"                                                                ",
"                                                                ",
"                                                                ",
"                                                                ",
"                                                                ",
"                                                                ",
"                                                                ",
"                                                                ",
"                        . + @ # $ % &                           ",
"          * = - ; > , ' ) ! ~ ) { ] ! ^ / ( &                   ",
"        _ : ~ % ) % / < / : [ } } [ | ~ ~ ~ < ~ / 1             ",
"    2 3 : ) : 4 } } } } } } } } } } } } } } 4 ^ 5 6 7           ",
"  _ ] % ! } } } } } } } } } } } } } } } } } 8 9 0 a b & & c     ",
"    d e f f f g & h } } } } } } } } } } } }   i j k l m n o 1   ",
"  p q r . . . s t u v w x } } } } } } } } y z _ A . . . . = B   ",
"  3 - . . . . . C D E F G H I } } } } } } y ! J . . . . . K L ~ ",
") ~ M C . . . . N O P Q a a R S S S S T }   } U V . . . C W :   ",
"  ^ ! X C . . Y Z `  ...+.@.#.$.%.            } , &.&.&.*.=.    ",
"    =.4 -.;.>.,.(                               } } } } }       ",
"      4 =.: | ~ {                                               ",
"                                                                ",
"                                                                ",
"                                                                ",
"                                                                ",
"                                                                ",
"                                                                ",
"                                                                ",
"                                                                ",
"                                                                ",
"                                                                "};
