/* XPM */
/* Converted from game5/build/win32/iconSource.png */
static char *xpm__[] = {
/* columns rows colors chars-per-pixel */
"32 32 5 1",
"  c #6D6D6D6D6D6D",
". c #B6B600000000",
"X c red",
"o c #FFFF6D6D6D6D",
"O c gray100",
/* pixels */
"        oooooooooooooooo        ",
"        oooooooooooooooo        ",
"        oooooooooooooooo        ",
"        oooooooooooooooo        ",
"        oooooooooooooooo        ",
"        oooooooooooooooo        ",
"        oooooooooooooooo        ",
"        oooooooooooooooo        ",
"........XXXXXXXXOOOOOOOOoooooooo",
"........XXXXXXXXOOOOOOOOoooooooo",
"........XXXXXXXXOOOOOOOOoooooooo",
"........XXXXXXXXOOOOOOOOoooooooo",
"........XXXXXXXXOOOOOOOOoooooooo",
"........XXXXXXXXOOOOOOOOoooooooo",
"........XXXXXXXXOOOOOOOOoooooooo",
"........XXXXXXXXOOOOOOOOoooooooo",
"........XXXXXXXXXXXXXXXXoooooooo",
"........XXXXXXXXXXXXXXXXoooooooo",
"........XXXXXXXXXXXXXXXXoooooooo",
"........XXXXXXXXXXXXXXXXoooooooo",
"........XXXXXXXXXXXXXXXXoooooooo",
"........XXXXXXXXXXXXXXXXoooooooo",
"........XXXXXXXXXXXXXXXXoooooooo",
"........XXXXXXXXXXXXXXXXoooooooo",
"        ................        ",
"        ................        ",
"        ................        ",
"        ................        ",
"        ................        ",
"        ................        ",
"        ................        ",
"        ................        "
};
