/* XPM */
static char *guess[] = {
/* columns rows colors chars-per-pixel */
"48 48 256 2",
"   c black",
".  c #080807",
"X  c #1B1B1A",
"o  c #2E2D2C",
"O  c #302E2E",
"+  c #30302E",
"@  c #343433",
"#  c #3B3A39",
"$  c #403F3D",
"%  c #4B4B49",
"&  c #5B5B58",
"*  c #5A5957",
"=  c #52514F",
"-  c #73716F",
";  c #7A7875",
":  c #7B7977",
">  c #686765",
",  c #1F3AF4",
"<  c #2A3CD8",
"1  c #233BEC",
"2  c #213DFC",
"3  c #213AF0",
"4  c #3548CC",
"5  c #3145D2",
"6  c #2942FC",
"7  c #2743FF",
"8  c #334CFD",
"9  c #3850FE",
"0  c #6A009A",
"q  c #6A0792",
"w  c #6D1691",
"e  c #6B00A0",
"r  c #7200A4",
"t  c #7500AB",
"y  c #7C00B1",
"u  c #7702B0",
"i  c #4E5BBB",
"p  c #5A65B6",
"a  c #7279B6",
"s  c #6B73B0",
"d  c #4555C6",
"f  c #4252D1",
"g  c #586AC8",
"h  c #2FBF2E",
"j  c #3FB83B",
"k  c #02DC01",
"l  c #08D507",
"z  c #00EB00",
"x  c #03E003",
"c  c #01FD01",
"v  c #01F401",
"b  c #26C225",
"n  c #35C537",
"m  c #2FCB33",
"M  c #3FC344",
"N  c #41B93B",
"B  c #50B755",
"V  c #67B463",
"C  c #71B570",
"Z  c #7581BA",
"A  c #7E87AD",
"S  c #BD2D2B",
"D  c #BB3431",
"F  c #BA783A",
"G  c #BF7528",
"H  c #807D7A",
"J  c #BC4C4A",
"K  c #BD4444",
"L  c #BD514C",
"P  c #B35553",
"I  c #B95B59",
"U  c #BA5855",
"Y  c #AF5E5C",
"T  c #BA625C",
"R  c #AE7774",
"E  c #B66A66",
"W  c #B67976",
"Q  c #B36A67",
"!  c #CD0D0C",
"~  c #C91212",
"^  c #C71A19",
"/  c #D40404",
"(  c #DB0101",
")  c #D30A09",
"_  c #C9120E",
"`  c #C3211E",
"'  c #D1201F",
"]  c #C32726",
"[  c #CA3132",
"{  c #E40000",
"}  c #EB0000",
"|  c #F30000",
" . c #FD0101",
".. c #D46C08",
"X. c #D16F10",
"o. c #C77525",
"O. c #C07C38",
"+. c #E56C00",
"@. c #F26E00",
"#. c #F57201",
"$. c #FC7500",
"%. c #FD7D00",
"&. c #E07102",
"*. c #C14844",
"=. c #C05149",
"-. c #8003B3",
";. c #8300BB",
":. c #855895",
">. c #896097",
",. c #926C9D",
"<. c #967D9B",
"1. c #9176A4",
"2. c #BAB938",
"3. c #84B07E",
"4. c #B68456",
"5. c #BA8148",
"6. c #B58C66",
"7. c #B79778",
"8. c #B7996E",
"9. c #B9B949",
"0. c #B6B558",
"q. c #B3B266",
"w. c #B5B272",
"e. c #B7B479",
"r. c #B5AB76",
"t. c #C38038",
"y. c #FE8202",
"u. c #C28D4E",
"i. c #C0AC75",
"p. c #C9C817",
"a. c #DBDA03",
"s. c #D1D10D",
"d. c #D0CD0A",
"f. c #C5C426",
"g. c #C2C53A",
"h. c #C7CD34",
"j. c #D0CE20",
"k. c #E3E300",
"l. c #ECEA00",
"z. c #E5E800",
"x. c #F4F400",
"c. c #FDFD01",
"v. c #EFF300",
"b. c #C3C149",
"n. c #858381",
"m. c #8B8986",
"M. c #928E8C",
"N. c #92908D",
"B. c #979591",
"V. c #9A9995",
"C. c #9B9895",
"Z. c #9C879F",
"A. c #9A84A5",
"S. c #9695AB",
"D. c #989CBA",
"F. c #8A9EAF",
"G. c #8AB286",
"H. c #90B595",
"J. c #9BA0AF",
"K. c #A88B88",
"L. c #A19E9A",
"P. c #AA9998",
"I. c #B48582",
"U. c #B68885",
"Y. c #B38D8A",
"T. c #B98782",
"R. c #B6988E",
"E. c #B59994",
"W. c #B79895",
"Q. c #AB8B96",
"!. c #A797A6",
"~. c #BC9CAA",
"^. c #A289A6",
"/. c #A2A19D",
"(. c #ABA79A",
"). c #A2B49A",
"_. c #B6A49C",
"`. c #B4B48A",
"'. c #BCB496",
"]. c #ACAB86",
"[. c #A5A4A2",
"{. c #A8A5A4",
"}. c #AAA8A5",
"|. c #ADACA9",
" X c #AEA4AC",
".X c #A7A9B0",
"XX c #ABBCB4",
"oX c #B5A7A4",
"OX c #B1ACAB",
"+X c #B8A9A4",
"@X c #B5ACB2",
"#X c #B4B3AC",
"$X c #B9B2AC",
"%X c #B7B6A6",
"&X c #B5B4B2",
"*X c #BAB5B3",
"=X c #BCBAB5",
"-X c #BBBBB9",
";X c #B6B7B6",
":X c #A9BAA3",
">X c #BEBCC2",
",X c #BBC2BD",
"<X c #AEC1BC",
"1X c #BDC4C3",
"2X c #BEC9C4",
"3X c #B9C5C7",
"4X c #BBD7D2",
"5X c #C0B091",
"6X c #C0B5A3",
"7X c #C1B5B3",
"8X c #C0BDB5",
"9X c #C0BEB9",
"0X c #C0A1A1",
"qX c #C3C2BD",
"wX c #C6C4BA",
"eX c #C3C2C2",
"rX c #C3CBC6",
"tX c #CAC3C2",
"yX c #C9C5CB",
"uX c #CBCAC4",
"iX c #CBCBCA",
"pX c #C4C4C9",
"aX c #CDCBD4",
"sX c #C7C9D3",
"dX c #C5D3CE",
"fX c #CCD4CD",
"gX c #C7D0C6",
"hX c #CCD4D2",
"jX c #CBD8D3",
"kX c #C7D5DA",
"lX c #D1CDC4",
"zX c #D2CEC9",
"xX c #D6C8C8",
"cX c #DBCCD4",
"vX c #D1C9D8",
"bX c #D4D2CD",
"nX c #D8D4CE",
"mX c #DBDBCC",
"MX c #D7D5C6",
"NX c #D6D4D1",
"BX c #D3D4DA",
"VX c #D3DAD5",
"CX c #D4DDD9",
"ZX c #D8D6D2",
"AX c #DAD9D3",
"SX c #D9DCD8",
"DX c #DCD3DB",
"FX c #D3D3E2",
"GX c #DAE1DA",
"HX c #D6E2DA",
"JX c #DAE8E3",
"KX c #E4D8DB",
"LX c #E1E1DB",
"PX c #E1E5D4",
"IX c #E8E6E0",
"UX c gray100",
/* pixels */
"bXbXbXNXbXbXbXbXbXbXbXbXbXbXbXbXbXbXbXbXbXbXbXbXbXbXbXbXbXbXbXbXbXbXbXbXbXbXbXNXbXbXnXbXnXNXbXbX",
"bXbXbXbXbXbXbXbXbXbXbXbXbXbXbXbXbXbXbXbXbXbXbXbXbXbXbXbXbXbXbXbXbXbXbXbXnXbXbXbXbXbXbXbXbXbXbXbX",
"bXbXbXbXbXbXbXNXAXZXbXbXbXbXbXZXSXnXbXbXbXbXMXAXAXbXbXbXbXbXbXAXZXNXbXbXbXbXbXbXbXbXbXbXbXbXbXNX",
"nXnXbXbXbXbXCX,XoX1XCXbXbXbXVX-XoX2XVXbXbXNXaX&X%XpXBXbXbXNXaX$X#XyXZXbXbXnXnXbXNXNXNXbXbXbXbXbX",
"bXbXbXbXbXVXQ ) { ! W CXnXfXP ) { ~ I.CXnXyX9.a.k.p.'.SXNXwX2.a.k.f.%XZXNXqX}.uXuX}.qXnXbXNXbXbX",
"nXbXbXzXCXQ |  . . .} W JXP  . . . .{ E.FX2.c.c.c.c.a.%XaX2.c.c.c.c.s.=XzX;XUX|.|.UX-XqXNXbXbXbX",
"bXbXbXnXrX^  . . . . .[ <X)  . . . . .K XXa.c.c.c.c.c.0.|.z.c.c.c.c.x.q.BX=XnX;X;XBX=XbXbXbXbXbX",
"bXnXbXZX-X)  . . . . .] [.{  . . . . .[ ).l.c.c.c.c.c.9.].x.c.c.c.c.c.0.BXuX/.bXnXL.uXZXbXbXbXbX",
"bXNXbXbXjXD  . . . . .K 4X^  . . . . .I 3Xd.c.c.c.c.x.e.=Xa.c.c.c.c.l.].SXV.n.#XOXn.L.NXbXbXNXbX",
"bXbXbXzXSXW.(  . . .) +XGXU.{  . . .^ =XCXw.l.c.c.c.f.eXDX0.v.c.c.c.g.sXZX}.n.&X&Xn.}.NXbXbXbXbX",
"bXnXbXbXzXSX XJ [ L *XSXbXVXR.K [ I =XAXbXBX`.b.h.q.9XZXMXaX].g.h.q.yXNXbXbXqXbXbXqXzXnXbXbXbXbX",
"bXbXbXbXbXbXPXXXF.,XPXbXbXbXDX<XH.1XKXbXbXNXCX!.Z.1XGXnXbXAXBX!.Q.sXAXzXbXAXIXZXAXIXAXfXbXbXnXbX",
"bXbXbXbXNXlXs < 1 < s xXNXxXj k z l C cXVXeXS } } ) T.CXNX7X` } } _ W.SXnX{.% 9X9X% {.AXiXbXnXbX",
"bXNXNXbXmXs , 8 9 8 , F.KXB c c c c z G.SXD  . . . .{ W.jX`  . . . ./ $XGXO   & *   + ZXbXbXbXbX",
"bXbXbXnXwX4 8 8 8 8 6 d '.l c c c c c n ~.{  . . . . .I (.}  . . . . .Y IXH X L.L.X 3.cXbXbXbXbX",
"bXNXbXNXwX5 8 8 8 8 8 f /.k c c c c c n Q.{  . . . . .J K.|  . . . . .P HXbX&XNXNX$XvXxXbXbXbXnX",
"bXbXbXbXMXi 7 9 8 9 7 p xXb c c c c c V aX_  . . . .| 7.>X(  . . . .} Y.GXB.: |.|.: C.NXbXbXbXbX",
"bXbXbXbXnX;X5 2 6 6 4 =XKX).k c c c b tXSXU.{  . .| D iXCXW }  . .| L jXNX|.m.=X*Xm.OXnXbXbXbXbX",
"bXbXbXbXbXAX=Xa g Z wXnXfXAX%XV M C tXDXbXVX+XI J W fXZXbXVXE.U L U.aXnXbXnXuXbXnXiXbXbXbXbXbXbX",
"bXbXbXbXbXnXBX'.8.6XBXnXbXNXaX+XT.7XNXbXzXAXjXP.K.,XCXbXbXNXdXP.K.2XCXzXbXAXLXAXbXZXnXbXbXnXbXbX",
"bXbXbXbXbXyXF +.#.+.5.fXSXeXG +.$...4.jXSX7X^ } | ( E VXZX+X~ | | ( 7.BXAXB.@ |.bXV.,XNXbXbXbXbX",
"bXnXbXbXjX4.$.y.y.y.@.6.CXF %.y.y.y.@.7.kX]  . . . .} W.dX~  . . . .( oXGXo   = |.; B.nXbXbXbXbX",
"bXbXbXNX,XX.y.%.%.%.%.o..X..%.%.%.%.%.t.{.{  . . . . .U P.}  . . . . .Y JXM.@ {.uXL.=XnXbXbXbXbX",
"bXbXbXAX,X..y.%.y.%.%.o.[.&.%.%.%.%.%.t.L.}  . . . . .L K.|  . . . . .P HXxX&XnXbX|.uXnXbXbXbXbX",
"bXbXbXbXhXF %.y.%.y.%.4.kXG %.y.%.y.#.6.kX~  . . . .| I.2X)  . . . .{ P.GXB.: {.}.; V.NXbXbXnXbX",
"nXbXbXbXZX9Xo.@.$.$.o.eXSX+X..#.%.@.O.yXVXW./  . .} J hXCXU.(  . .{ T VXNX$XN.9X-XM.&XnXbXbXbXbX",
"bXbXbXbXMXAXeX7.5.].iXZXbXNXqX7.6.R.fXnXbXVX-XW E W.hXNXbXVX$XE T _.VXnXbXnXzXbXnXbXbXbXbXbXbXbX",
"bXbXbXbXbXKXwXD.Z D.MXAXbXNXyX`.w.'.aXbXbXAX2XI.R +XVXbXbXZXqXA.1.;XmXNXbXAXAXAXAXAXAXbXbXbXbXbX",
"bXbXbXbXZXwXi 3 6 3 i wXAX=Xp.x.c.z.9.iXVX+X!  . .{ U VXnX!.q t r 0 ,.mXAXn.X [.[.X n.AXbXbXbXbX",
"bXbXbXbXmXp 2 8 8 8 2 s bX2.c.c.c.c.x.w.kX^  . . . .} Y.gXq ;.-.-.;.0 !.GX+   & &   O AXzXbXbXbX",
"bXbXbXnX-X4 8 8 8 8 8 f (.a.c.c.c.c.c.g.P.{  . . . . .=.S.r -.y y -.t :.PXL.$ -X=X% [.AXfXbXnXbX",
"bXbXbXnXwX4 8 8 8 8 8 f '.a.c.c.c.c.c.g.!.{  . . . . .=.S.r -.y y -.y :.PXeX-XuXzXOXuXbXbXNXnXbX",
"NXbXbXNXmXp 2 9 8 9 2 a bX2.c.c.c.c.x.w.kX^  . . . .} R.fXw ;.y -.;.0  XbX&XUX&XV.; B.NXbXbXbXbX",
"bXbXbXaXAXwXi 3 6 1 p wXDXwXp.v.c.z.0.aXGX+X~ |  .{ T jXAX!.q r t 0 1.AXbX;X;XqXqXV.;XnXbXbXbXbX",
"bXbXbXbXbXNXwXD.a D.mXNXbXnXpX'.r.6XaXbXbXZXrXY.R $XVXbXbXZXwXZ.Z.=XmXbXbXbXuXnXbXZXnXbXNXbXbXnX",
"bXbXbXbXbXAXuXw.b.e.tXZXbXDX-XC B G.xXZXbXZX*XE I R.aXNXbXZXOX,.:.!.nXbXbXAXbXAXAXzXAXbXbXbXbXbX",
"bXbXNXbXZX=Xp.c.c.x.f.,XAX).l v c v n xXCXR.(  . .} K fXAXA.0 t u e :.nXSX- . B.B.. - AXbXfXbXbX",
"nXbXbXMXsX2.c.c.c.c.c.9.vXh c c c c v V aX^  . . . .| T.rXq ;.-.y ;.0 !.LX+   & &   @ ZXbXbXbXbX",
"NXbXbXZX-Xs.c.c.c.c.c.j.[.x c c c c c n Q.}  . . . . .=.S.r -.-.-.-.u :.PX&X> uXuX> *XAXbXbXbXbX",
"bXbXbXZX>Xp.c.c.c.c.c.f..Xl c c c c c n ~.{  . . . . .U S.r -.y y -.t >.PXB.@ |.|.@ B.AXzXbXbXbX",
"bXbXbXbXBX0.c.c.c.c.x.q.FXN c c c c z 3.BXS  . . . .{ E.fXw ;.-.-.;.0 OXGX+   * &   + AXbXbXbXbX",
"bXbXbXbXnXyX2.z.x.k.9.iXKX9Xh z v k V ZXZX7X` } | ( W VXnX@Xw e r q ^.AXAXV.# &X&X# V.AXbXbXbXbX",
"bXbXbXbXbXbXaX%X].%XvXnXzXZXcX).3.#XcXNXbXZXdXE.I.;XVXMXbXAXrX!.A.wXAXbXbXAXLXAXAXKXAXbXbXNXbXbX",
"bXbXbXbXbXbXlX;X.X-XbXbXzXnXuX*X@X9XfXbXbXbXuX;XXXqXbXbXbXbXtX#X#XqXzXbXbXbXiXbXbXzXbXbXbXbXbXbX",
"bXbXbXbXbXbXzXyXuXuXbXbXbXbXzXuXuXuXbXbXbXbXzXuXtXuXbXbXbXbXiXuXuXuXbXbXbXbXbXnXbXbXbXbXbXbXbXbX",
"nXnXnXbXbXbXbXNXnXbXbXbXbXbXbXbXnXbXbXbXbXbXbXNXbXbXbXbXbXbXbXnXbXbXbXbXnXbXbXbXbXVXbXbXbXbXbXNX",
"bXbXbXbXbXbXbXbXbXbXbXbXbXbXbXbXbXbXbXbXbXbXbXbXbXbXbXbXbXbXbXbXbXbXbXbXbXbXbXbXbXbXbXbXNXbXbXbX",
"bXNXbXbXbXbXbXbXbXbXNXbXbXbXbXbXnXbXbXbXbXbXbXbXbXbXbXbXbXbXbXNXbXbXbXbXbXbXbXbXbXbXbXbXbXnXbXbX"
};
