/* XPM */
static char *gui-apt-key[] = {
/* columns rows colors chars-per-pixel */
"48 48 257 2",
"   c #000000",
".  c #0A0408",
"X  c #141414",
"o  c #1C0B11",
"O  c #1E2023",
"+  c #260C19",
"@  c #3B1010",
"#  c #2E1520",
"$  c #3B1828",
"%  c #252628",
"&  c #292E34",
"*  c #343638",
"=  c #3A3B3B",
"-  c #343534",
";  c #392D31",
":  c #292514",
">  c #3B3E43",
",  c #343B43",
"<  c #2A425B",
"1  c #3D4145",
"2  c #354C62",
"3  c #3D5065",
"4  c #42192B",
"5  c #492434",
"6  c #423C38",
"7  c #552A33",
"8  c #6E262A",
"9  c #772727",
"0  c #713135",
"q  c #673246",
"w  c #532C47",
"e  c #444135",
"r  c #4E4628",
"t  c #724E30",
"y  c #766A3C",
"u  c #7B6E3B",
"i  c #7E7138",
"p  c #706433",
"a  c #47484A",
"s  c #4D535A",
"d  c #5C4946",
"f  c #5C5C5C",
"g  c #555353",
"h  c #4F4D51",
"j  c #495D72",
"k  c #585C60",
"l  c #525C65",
"z  c #4A5765",
"x  c #59626C",
"c  c #596776",
"v  c #625349",
"b  c #605B56",
"n  c #775457",
"m  c #744B4F",
"M  c #745962",
"N  c #7F7346",
"B  c #78725C",
"V  c #676351",
"C  c #636363",
"Z  c #6B6B6B",
"A  c #666767",
"S  c #626E7B",
"D  c #626B74",
"F  c #67727C",
"G  c #727272",
"H  c #7B7B7B",
"J  c #79706D",
"K  c #6E7E8C",
"L  c #677584",
"P  c #727D89",
"I  c #73808D",
"U  c #798795",
"Y  c #91241C",
"T  c #983A1A",
"R  c #872828",
"E  c #8B3636",
"W  c #943B3A",
"Q  c #9C7F0B",
"!  c #857535",
"~  c #88773B",
"^  c #937C23",
"/  c #887635",
"(  c #A9403A",
")  c #A76B27",
"_  c #874A31",
"`  c #924646",
"'  c #9A5149",
"]  c #9C5757",
"[  c #89554F",
"{  c #9A5564",
"}  c #8B526A",
"|  c #847445",
" . c #8B6A69",
".. c #927777",
"X. c #8E7471",
"o. c #AC5044",
"O. c #B75465",
"+. c #A94E79",
"@. c #B86752",
"#. c #B36255",
"$. c #AE6579",
"%. c #B57866",
"&. c #B4747A",
"*. c #AC666B",
"=. c #C4776A",
"-. c #996389",
";. c #B45D83",
":. c #AD6A86",
">. c #AF728D",
",. c #B26E99",
"<. c #B37B98",
"1. c #B46F88",
"2. c #B077A2",
"3. c #C47B84",
"4. c #9B811D",
"5. c #9C8C00",
"6. c #9B8835",
"7. c #948133",
"8. c #AD8C0C",
"9. c #A4870C",
"0. c #AB8C12",
"q. c #A38614",
"w. c #B3920E",
"e. c #B29212",
"r. c #BA9A15",
"t. c #BB9C1A",
"y. c #B59718",
"u. c #AF8F0F",
"i. c #AD9125",
"p. c #B69A28",
"a. c #B29C3B",
"s. c #AC8E29",
"d. c #BDA128",
"f. c #BDA432",
"g. c #BEA53A",
"h. c #8E8045",
"j. c #8D8256",
"k. c #938445",
"l. c #988948",
"z. c #958857",
"x. c #9E9156",
"c. c #9F904F",
"v. c #8C8767",
"b. c #858474",
"n. c #968C62",
"m. c #908B77",
"M. c #9B9373",
"N. c #A39554",
"B. c #AA9C5B",
"V. c #A89757",
"C. c #B19C44",
"Z. c #A4954D",
"A. c #BB846D",
"S. c #BB8B77",
"D. c #AC916F",
"F. c #ACA05C",
"G. c #B0A25A",
"H. c #BFAB4D",
"J. c #B3A563",
"K. c #B5A864",
"L. c #BAAC65",
"P. c #B9AC6B",
"I. c #B6A86A",
"U. c #BDB16C",
"Y. c #BEB167",
"T. c #BCB071",
"R. c #AFA472",
"E. c #C09D0F",
"W. c #C2A21B",
"Q. c #CBAA1B",
"!. c #C7A515",
"~. c #CCAC22",
"^. c #C5A727",
"/. c #C4AA35",
"(. c #C1A737",
"). c #CEB02B",
"_. c #CDB132",
"`. c #CCB139",
"'. c #D0B126",
"]. c #D2B42C",
"[. c #D2B633",
"{. c #D5B933",
"}. c #D9BD3B",
"|. c #D5BA36",
" X c #D0AF24",
".X c #C4907F",
"XX c #C1AE55",
"oX c #D6BD42",
"OX c #C4B76C",
"+X c #C4B973",
"@X c #DBC13D",
"#X c #DCC133",
"$X c #E2C93B",
"%X c #EAD23D",
"&X c #DCC342",
"*X c #DFC953",
"=X c #E5CD43",
"-X c #E2CA4B",
";X c #E0C646",
":X c #E3CD53",
">X c #ECD549",
",X c #E9D45B",
"<X c #E7D159",
"1X c #F0DA47",
"2X c #E9D560",
"3X c #EDDA64",
"4X c #EFDD69",
"5X c #F0DE6B",
"6X c #F1E06E",
"7X c #848383",
"8X c #8C8C8C",
"9X c #8A8884",
"0X c #848D97",
"qX c #86919B",
"wX c #929292",
"eX c #9A9A9A",
"rX c #989898",
"tX c #9A8C89",
"yX c #939CA5",
"uX c #999FA4",
"iX c #8694A2",
"pX c #9AA0A6",
"aX c #90A1B2",
"sX c #8FA0B1",
"dX c #A39789",
"fX c #A19796",
"gX c #B98A85",
"hX c #BB9597",
"jX c #AD8A88",
"kX c #BA97A6",
"lX c #B8B092",
"zX c #A3A3A3",
"xX c #AAAAAA",
"cX c #ACABA4",
"vX c #A5ABB1",
"bX c #ADB1B4",
"nX c #ACB2B8",
"mX c #B2B2B2",
"MX c #BDBDBD",
"NX c #BDBAB4",
"BX c #B5ADAF",
"VX c #B4BBC2",
"CX c #ACB9C5",
"ZX c #C69785",
"AX c #C49A96",
"SX c #C68989",
"DX c #C8A493",
"FX c #C6A699",
"GX c #CEB3A5",
"HX c #CCAFAF",
"JX c #CCBAC6",
"KX c #CAC083",
"LX c #C1C1C1",
"PX c #CBCBCB",
"IX c #D1C8D1",
"UX c gray83",
"YX c None",
/* pixels */
"YXYXYXYXYXYXYXYXYXYXYXYXYXYXYXYXYXYXYXYXYXYXYXYXYXYXYXYXYXYXYXYXYXYXYXYXYXYXYXYXYXYXYXYXYXYXYXYX",
"YXYXYXYXYXYXYXYXf f f f f f f f YXYXYXYXYXYXYXYXYXYXYXYXYXYXYXYXYXYXYXYXYXYXYXYXYXYXYXYXYXYXYXYX",
"YXYXYXYXYXYXf f f G H 7X7XG A f f YXYXYXYXYXYXYXYXYXYXYXYXYXYXYXYXYXYXYXYXYXYXYXYXYXYXYXYXYXYXYX",
"YXYXYXYXYXf f Z 8XzXxXbXxXxXeXH x f YXYXYXYXYXYXYXYXYXYXYXYXYXYXYXYXYXYXYXYXYXYXYXYXYXYXYXYXYXYX",
"YXYXYXYXf f G eXdXn.z.j.n.dXmXxXb.C f YXYXYXYXYXYXYXYXYXYXYXYXYXYXYXYXYXYXYXYXYXYXYXYXYXYXYXYXYX",
"YXYXYXYXf Z m.k.6.B.I.+XT.N.l.M.cX7Xk f YXYXYXYXYXYXYXYXYXYXYXYXYXYXYXYXYXYXYXYXYXYXYXYXYXYXYXYX",
"YXYXYXf V | 6.s.f.f.g.g.H.+XKXB.n.tXZ f f f f C f f f f x f f f f f f b f f YXYXYXYXYXYXYXYXYXYX",
"YXYXYXb ! i.^._.&X&X&X&X_.XXXX+XF.v.b.G G G G G G G G G J Z G G G Z Z Z x f YXYXYXYXYXYXYXYXYXYX",
"YXYX0.4.y.].#X&X@X&X:X,X,X<X`.XXKXx.b.7X8XwXwXwXwXwXwXwXwXwX8XwXwX8X8X8XH k f YXYXYXYXYXYXYXYXYX",
"YX5.8.t.].{.].t.e.e.^.:X,X3X2X/.XXT.| 8X9X8X8X8X8X8X8X8X8X8X8X8X8X8X8X8X7XZ f YXYXYXYXYXYXYXYXYX",
"YX8.y.Q. XW.8.9.9.q.e.`.<X3X5X2X/.+Xk.9X8X8X8X8X8X8X8X8X8XG 8X8XH 9X8X8X..A f YXYXYXYXYXYXYXYXYX",
"u.u.t.Q.!.4.^ i i 4.0.[.:X,X4X6XoXXXl.b.8X8X9XwXeXrXeXrXwXA H wXG G wX9XD f f YXYXYXYXYXYXYXYXYX",
"8.r.Q.Q.E.4.i V ^ q.t.@X:X,X3X5X*Xg.l.X.7XH Z 7XrXrXrXwXH Z G b.Z b H Z f f YXYXYXYXYXYXYXYXYXYX",
"u.r.Q.!.!.8.4.4.q.W.{.&X-X<X3X5X<Xf.l.N Z A A Z G G Z J x J Z C x A f f f YXYXYXYXYXYXYXYXYXYXYX",
"8.r.~.Q.!.E.w.E.!.~.{.@X-X<X,X5X,Xd.G.l.~ u B f f f f x f Z k C f f f f YXYXYXYXYXYXYXYXYXYXYXYX",
"8.r.~.Q.!.!.!.!.Q.'.'.].}.-X,X5X*Xf.G.G.G.k./ / ! YXYXYXYXYXYXYXYXYXYXYXYXYXYXYXYXYXYXYXYXYXYXYX",
"8.W.~.Q.Q.!.Q.Q.Q. X].].].}.-X3X&Xa.G.K.L.L.F.7.i 7.i YXYXYXYXYXYXYXYXYXYXYXYXYXYXYXYXYXYXYXYXYX",
"8.e.^. X~.Q.Q.Q. X'.'.].{.|.&X*Xg.C.G.K.K.L.L.K.l.h.! i   Z PXmXxX8X        YXYXYXYXYXYXYXYXYXYX",
"8.8.W.'. X X X X X'.'.].{.}.@X_.p.G.L.L.K.J.K.P.U.F.k.i M.LXzX7Xe 7XP         YXYXYXYXYXYXYXYXYX",
"YX8.w.~.'. X X'.'.].].{.{.|.@X^.i.Z.Z.N.U.K.J.K.K.U.U.x.k.B = . . X Z b.Z         YXYXYXYXYXYXYX",
"YXYX8.w.^.'.].'.].].].|.@X@X}.{.y.7.~ h.+X+XU.L.J.J.L.U.P.k.p : . X = - b.wX  .     YXYXYXYXYXYX",
"YXYXYX8.w.W.^.].].].{.|.#X@X#X$X].e.9.~ G.Y.+X+XT.J.F.J.T.T.V.~ r X % V X h fXe       YXYXYXYXYX",
"YXYXYXYX8.8.8.t.t.t.^.{.#X@X@X$X%Xt.5.~ n.x.F.U.K.l.c.J.J.I.P.I.N.N e % h m ` 7       YXYXYXYXYX",
"YXYXYXYXYXQ 8.8.0.8.e.Q.#X%X@X@X%X[.a.xXtXB y h.h.u x.T.V.F.J.I.P.6.v  .W R 9 @       YXYXYXYXYX",
"YXYXYXYXYXYXYXYXYX8.8.r.r.'.@X@X$X=Xd.n.a - - 6 e r Z.F.~ F.J.J.J.~ ' R R E 9 @       YXYXYXYXYX",
"YXYXYXYXYXYXYXYXYXYXYX8.w.#X1X@X}.=X@Xs.J a - - - e y y y N.I.J.V./ R ` ] ] 9 @       YXYXYXYXYX",
"YXYXYXYXYXYXYXYXYXYXYX8.e.$X1X=X@X@X=X^.V.9Xb = - - 6 f m.z.z.j.| _ ] ` ] ` 9 @       YXYXYXYXYX",
"YXYXYXYXYXYXYXYXYXYXYX8.u.~.1X>X;X@X=X@Xi.S.wX7Xg A vXMXzXb.b.9X .R *.{ R R 9 @       YXYXYXYXYX",
"YXYXYXYXYXYXYXYXYXYXYXYX8.e.}.>X=X@X@X-X^.) #.jXcXMXrX8X9X8X8X8X .E W R 9 9 0 t 7 4 o . YXYXYXYX",
"YXYXYXYXYXYXYXYXYXYXYXYXYX8.t.=X>X}.|.;X&Xi.T Y hXwX7X7X9X8X8X0XX.R E 0 m ..hXDXZX%.[ 7 + . YXYX",
"YXYXYXYXYXYXYXYXYXYXYXYXYXYX8.8.0.u.].}.=X_.) Y gXwX7X8X8XwXrXeX..] m t A..XDXFXgXA.S.gXm # YXYX",
"YXYXYXYXYXYXYXYXYXYXYXYXYXYXy.t.p.).;X}.&X&Xf.D.hXwX8X8XwXrXeXeX..8 8 W @..XDXDX.XA.ZXFXFXM .   ",
"YXYXYXYXYXYXYXYXYXYXYXYXYXYXYXy.e.[.@X).@X&X`.C.MXwX8X8XwXrXrX&.b.0 ( W ' %.ZXAX%.A.DXGXHXFX$ . ",
"YXYXYXYXYXYXYXYXYXYXYXYXYXYXYXw.4.d.d.d.@X&X&Xd.lXrX8XwXwXwXdX%.X.' @.o.( o.AXHXkXgXFXGXGXGX .# ",
"YXYXYXYXYXYXYXYXYXYXYXYXYXYXYX8.p lXp.@X@X@X&X`.g.8XH 7XG H zXpX .=.=.=.@.O.JXNXJXJXAXAXAXAX*.5 ",
"YXYXYXYXYXYXYXYXYXYXYXYXYXYXYXYX* cX6.&X&X|.|.d.lXA g f 7XwXF j n .X.X.X.XHXkX5 J IX<.1.&.&.{ 5 ",
"YXYXYXYXYXYXYXYXYXYXYXYXYXYXYXYX* bXm.6.a./.p.I.LXf G wXx a * , 6 d v v d f h ; 8XIX>.$.$.$.{ 5 ",
"YXYXYXYXYXYXYXYXYXYXYXYXYXYXYXYX* bXqX0Xb.v.R.NXLXrXF 3 x CXxXxXxXxXxXxXxXxXsXs JXkX:.>.>.>.} 4 ",
"YXYXYXYXYXYXYXYXYXYXYXYXYXYXYXYX* bXqX0XI P U pXnXS < < f aXMXLXJXMXMXLXJXMXU 1 1.O.:.,.2.2.q + ",
"YXYXYXYXYXYXYXYXYXYXYXYXYXYXYXYX- mXU 0Xc D D L yXj < < f sXUXPXPXPXPXPXPXPXI 1 =.O.;.>.2.-.+   ",
"YXYXYXYXYXYXYXYXYXYXYXYXYXYXYXYX. A I U D F c L yXj < < x aXUXPXPXPXPXPXLXLXK > 3.O.;.,.-.w . YX",
"YXYXYXYXYXYXYXYXYXYXYXYXYXYXYXYX    % x F D x L yXj 2 2 f aXUXPXPXPXLXMXVXLXK > 3.$.;.} 5 o YXYX",
"YXYXYXYXYXYXYXYXYXYXYXYXYXYXYXYX      % s D c S sXc 2 < f aXUXPXLXLXLXMXHXPXK > 3.+.q $ . YXYXYX",
"YXYXYXYXYXYXYXYXYXYXYXYXYXYXYXYXYX        1 x c iXz & O k aXVXnXnXnXnXnXnXaXK > 4 + .   YXYXYXYX",
"YXYXYXYXYXYXYXYXYXYXYXYXYXYXYXYXYXYX        & z F & .   k aXiXyXpXvXbX0XS U K > YXYXYXYXYXYXYXYX",
"YXYXYXYXYXYXYXYXYXYXYXYXYXYXYXYXYXYXYX                  k aXiXxXl pXcXzXl S K , YXYXYXYXYXYXYXYX",
"YXYXYXYXYXYXYXYXYXYXYXYXYXYXYXYXYXYXYXYX                h 0XiXmXl rXzXzXl S K > YXYXYXYXYXYXYXYX",
"YXYXYXYXYXYXYXYXYXYXYXYXYXYXYXYXYXYXYXYXYXYX            % a D H A C f g > , s * YXYXYXYXYXYXYXYX"
};
