<?xml version="1.0" encoding="UTF-8" standalone="no"?>
<!-- Created with Inkscape (http://www.inkscape.org/) -->
<svg
   xmlns:dc="http://purl.org/dc/elements/1.1/"
   xmlns:cc="http://web.resource.org/cc/"
   xmlns:rdf="http://www.w3.org/1999/02/22-rdf-syntax-ns#"
   xmlns:svg="http://www.w3.org/2000/svg"
   xmlns="http://www.w3.org/2000/svg"
   xmlns:sodipodi="http://sodipodi.sourceforge.net/DTD/sodipodi-0.dtd"
   xmlns:inkscape="http://www.inkscape.org/namespaces/inkscape"
   id="svg2211"
   sodipodi:version="0.32"
   inkscape:version="0.45.1"
   width="241"
   height="241"
   version="1.0"
   sodipodi:docbase="/home/pietro/Progetti/ggv"
   sodipodi:docname="wlogo.svg"
   inkscape:output_extension="org.inkscape.output.svg.inkscape"
   inkscape:export-filename="/home/pietro/Progetti/ggv/stuff/icon.png"
   inkscape:export-xdpi="5.2282157"
   inkscape:export-ydpi="5.2282157">
  <metadata
     id="metadata2216">
    <rdf:RDF>
      <cc:Work
         rdf:about="">
        <dc:format>image/svg+xml</dc:format>
        <dc:type
           rdf:resource="http://purl.org/dc/dcmitype/StillImage" />
      </cc:Work>
    </rdf:RDF>
  </metadata>
  <defs
     id="defs2214" />
  <sodipodi:namedview
     inkscape:window-height="753"
     inkscape:window-width="1256"
     inkscape:pageshadow="2"
     inkscape:pageopacity="0.0"
     guidetolerance="10.0"
     gridtolerance="10.0"
     objecttolerance="10.0"
     borderopacity="1.0"
     bordercolor="#666666"
     pagecolor="#ffffff"
     id="base"
     height="241px"
     width="241px"
     inkscape:zoom="1.740801"
     inkscape:cx="-65.844053"
     inkscape:cy="31.350388"
     inkscape:window-x="24"
     inkscape:window-y="0"
     inkscape:current-layer="layer1" />
  <g
     inkscape:groupmode="layer"
     id="layer2"
     inkscape:label="sotto" />
  <g
     inkscape:groupmode="layer"
     id="layer1"
     inkscape:label="sopra">
    <rect
       style="opacity:1;fill:#ffffff;fill-opacity:1;fill-rule:nonzero;stroke:#ffffff;stroke-width:4.92752028;stroke-miterlimit:4;stroke-dasharray:none;stroke-opacity:1"
       id="rect2159"
       width="236.07248"
       height="236.07248"
       x="2.4637601"
       y="2.463762" />
    <g
       id="g4201"
       transform="translate(2.5,6.5)">
      <path
         style="fill:#ce615b;fill-opacity:1;stroke:#ce615b;stroke-width:5;stroke-miterlimit:4;stroke-dasharray:none;stroke-opacity:1"
         d="M 160.90972,164.85731 C 150.97757,159.98757 135.71237,143.84632 118,119.48505 C 92.605883,84.558447 83.575784,74.93559 69.634205,67.944405 C 62.36005,64.296686 62.028365,64 65.224482,64 C 76.794886,64 94.680434,80.441649 118,112.51495 C 143.39412,147.44155 152.42422,157.06441 166.3658,164.0556 C 173.63995,167.70331 173.97164,168 170.77552,168 C 168.87468,168 164.43507,166.58579 160.90972,164.85731 z M 188.1342,163.83348 C 194.95773,160.43508 198.25137,157.89701 206,150.06616 C 211.225,144.78571 219.55,134.96086 224.5,128.23314 C 232.49639,117.36496 236,113.93339 236,116.96958 C 236,120.87358 222.21654,138.93026 209.57494,151.58707 C 198.73336,162.44171 189.80969,168 183.22448,168 C 180.06863,168 180.49514,167.63806 188.1342,163.83348 z M 0,115.03042 C 0,111.12642 13.78346,93.069742 26.425056,80.412928 C 37.266641,69.558293 46.190313,64 52.775518,64 C 55.931365,64 55.504863,64.361941 47.865795,68.166521 C 41.042273,71.564924 37.748631,74.102994 30,81.933845 C 24.775,87.214286 16.45,97.039145 11.5,103.76686 C 3.5036113,114.63504 0,118.06661 0,115.03042 z "
         id="path2224" />
      <path
         style="fill:#ce615b;fill-opacity:1;stroke:#ce615b;stroke-width:5;stroke-miterlimit:4;stroke-dasharray:none;stroke-opacity:1"
         d="M 144.58291,150.55065 C 140.48577,146.45351 131.18522,135.09101 123.91503,125.30065 C 101.08613,94.558256 97.308065,89.709875 89.807803,81.530949 C 83.892123,75.079987 83.332318,74.222745 86.869165,77.030949 C 92.759371,81.707684 102.99374,94.047521 117.94512,114.5 C 133.16228,135.31605 139.39913,143.21549 147.20578,151.56083 C 150.51872,155.10237 152.95997,158 152.63079,158 C 152.3016,158 148.68005,154.64779 144.58291,150.55065 z M 208.2309,149.97738 C 215.51313,141.99199 232.66225,119.97851 233.72644,117.25 C 234.28123,115.82758 236,115.54714 236,116.87903 C 236,117.98621 220.44648,138.49486 213.88974,146.0333 C 211.18431,149.1438 207.06485,153.2111 204.73539,155.07175 C 201.57548,157.59572 202.46309,156.30211 208.2309,149.97738 z M 0,115.12097 C 0,114.01379 15.553522,93.505142 22.11026,85.966697 C 24.815689,82.856199 28.935146,78.788897 31.264611,76.928248 C 34.424519,74.404285 33.536913,75.697886 27.7691,82.022624 C 20.486868,90.00801 3.3377518,112.02149 2.2735568,114.75 C 1.7187749,116.17242 0,116.45286 0,115.12097 z "
         id="path2222" />
    </g>
  </g>
</svg>
