/* XPM */
static char *josm32x32[] = {
/* columns rows colors chars-per-pixel */
"32 32 257 2",
"   c black",
".  c #0D0C0C",
"X  c #160E06",
"o  c #1D1E1A",
"O  c #191B16",
"+  c #13100E",
"@  c #1D201A",
"#  c #221A11",
"$  c #2E1802",
"%  c #231F26",
"&  c #312311",
"*  c #232322",
"=  c #2B2C2B",
"-  c #272826",
";  c #2D302F",
":  c #30312D",
">  c #34392E",
",  c #353534",
"<  c #363931",
"1  c #3B3C3C",
"2  c #363739",
"3  c #2E2D31",
"4  c #271740",
"5  c #3D3C46",
"6  c #3E413A",
"7  c #30412B",
"8  c #46290B",
"9  c #4E3C13",
"0  c #4A3B1A",
"q  c #543B13",
"w  c #58320B",
"e  c #403E3F",
"r  c #4A3E37",
"t  c #503D2F",
"y  c #603A11",
"u  c #473A5F",
"i  c #513F70",
"p  c #544312",
"a  c #5C4713",
"s  c #5D4913",
"d  c #5D4918",
"f  c #43493D",
"g  c #47443B",
"h  c #465C37",
"j  c #5B4A29",
"k  c #57493A",
"l  c #5B522F",
"z  c #634B13",
"x  c #6B4E11",
"c  c #614A18",
"v  c #6E540F",
"b  c #6A561B",
"n  c #70530F",
"m  c #715210",
"M  c #634F20",
"N  c #634F3A",
"B  c #6C5823",
"V  c #62573A",
"C  c #725E25",
"Z  c #78593A",
"A  c #6F6039",
"S  c #444444",
"D  c #4B4B4B",
"F  c #464845",
"G  c #4F4B52",
"H  c #4E534F",
"J  c #4F5848",
"K  c #514E4D",
"L  c #5A4641",
"P  c #514D56",
"I  c #535B4D",
"U  c #52574B",
"Y  c #535254",
"T  c #585D53",
"R  c #5C5C5C",
"E  c #575A53",
"W  c #5A5270",
"Q  c #5D615C",
"!  c #5A6452",
"~  c #556C46",
"^  c #5F767F",
"/  c #5F6560",
"(  c #625E5A",
")  c #636759",
"_  c #6D7A5F",
"`  c #786D58",
"'  c #776A44",
"]  c #626262",
"[  c #6A6A6A",
"{  c #676966",
"}  c #6A6972",
"|  c #6D7561",
" . c #6E716D",
".. c #786D67",
"X. c #737969",
"o. c #717272",
"O. c #7B7B7B",
"+. c #777778",
"@. c #5E5987",
"#. c #7D7D81",
"$. c #679743",
"%. c #709250",
"&. c #6D9879",
"*. c #76836B",
"=. c #7C866A",
"-. c #7C8B75",
";. c #788F69",
":. c #74A848",
">. c #79AB53",
",. c #7DB551",
"<. c #6EA257",
"1. c #72AA75",
"2. c #6598B8",
"3. c #709BB8",
"4. c #6599A1",
"5. c #6FA0B6",
"6. c #5C8BCD",
"7. c #83592C",
"8. c #8C6338",
"9. c #876947",
"0. c #877A5A",
"q. c #807969",
"w. c #847B87",
"e. c #806F98",
"r. c #8B7CA0",
"t. c #838356",
"y. c #918054",
"u. c #82867D",
"i. c #8B9D7C",
"p. c #889579",
"a. c #978566",
"s. c #998876",
"d. c #8A9772",
"f. c #84B75C",
"g. c #87AB69",
"h. c #8FA17E",
"j. c #88B765",
"k. c #94B973",
"l. c #AD9A7D",
"z. c #A6846A",
"x. c #B1A976",
"c. c #B8BA7D",
"v. c #89C656",
"b. c #91C466",
"n. c #9BC675",
"m. c #96D663",
"M. c #A1DB6C",
"N. c #BEC17D",
"B. c #A6DD79",
"V. c #838484",
"C. c #8B8B8B",
"Z. c #8A8784",
"A. c #99978B",
"S. c #929294",
"D. c #9A9A9A",
"F. c #9F9EA0",
"G. c #92A381",
"H. c #94AD81",
"J. c #9BAB89",
"K. c #98A886",
"L. c #9BB18C",
"P. c #9DB787",
"I. c #8EAFA3",
"U. c #9ABCA7",
"Y. c #A69A8D",
"T. c #A5A48C",
"R. c #A5BB8B",
"E. c #A2B295",
"W. c #A6BB98",
"Q. c #AFB698",
"!. c #A3A3A4",
"~. c #ABABAB",
"^. c #A7A7A8",
"/. c #B6ADBB",
"(. c #B4BAA6",
"). c #B4B4B4",
"_. c #BCBCBC",
"`. c #BEB9B4",
"'. c #AFB3A4",
"]. c #B8A7C3",
"[. c #A7C78B",
"{. c #ACC295",
"}. c #AEC39A",
"|. c #AFCC96",
" X c #B1C49D",
".X c #B3C99D",
"XX c #B6C699",
"oX c #B8D19C",
"OX c #ACD28B",
"+X c #A7C6A8",
"@X c #B2C4A4",
"#X c #B7C4AA",
"$X c #B5CBA3",
"%X c #B9CDA2",
"&X c #B7CDA9",
"*X c #BDCCB4",
"=X c #BCD4A4",
"-X c #B8D4AB",
";X c #B0E286",
":X c #DBBC92",
">X c #CDB993",
",X c #C1BFBD",
"<X c #E0BA90",
"1X c #DACD9E",
"2X c #D4C499",
"3X c #C9C599",
"4X c #CCC7B9",
"5X c #C2DBAB",
"6X c #C4D6AB",
"7X c #C8DAB7",
"8X c #DCD2A3",
"9X c #DFDBA8",
"0X c #D0C5A4",
"qX c #C2E6A3",
"wX c #CDE5B6",
"eX c #CEF2AB",
"rX c #DCE1AE",
"tX c #D4EBB5",
"yX c #D4EBBB",
"uX c #DCEDB7",
"iX c #D6E5BA",
"pX c #D1F2AF",
"aX c #D7F3B9",
"sX c #DBF5BD",
"dX c #D9F6B8",
"fX c #E2CB9D",
"gX c #E2CDA1",
"hX c #E2D3A3",
"jX c #E3DAAA",
"kX c #E4EAB7",
"lX c #E4F5BD",
"zX c #E1F9BE",
"xX c #C3C3C3",
"cX c #CCCCCC",
"vX c #C8C8C5",
"bX c #CDD7C5",
"nX c #D3D3D3",
"mX c #DCDCDC",
"MX c #D9D8D6",
"NX c #D2D3C3",
"BX c #D4E9C7",
"VX c #DCF5C2",
"CX c #DFFAC1",
"ZX c #D0E0CB",
"AX c #E1E5DC",
"SX c #E1F6C4",
"DX c #E3FCC4",
"FX c #E6FEC9",
"GX c #EDE9D0",
"HX c #E4E4E4",
"JX c #ECECEC",
"KX c #E7E8E7",
"LX c #F4F4F4",
"PX c #FCFDFC",
"IX c #F5FFFF",
"UX c #E7F2E1",
"YX c None",
/* pixels */
"^.C.nXYXYXYXYXYXPXLXYXYXYXi u e.YXYXR D o = - R C.YXF S YXYXYXYX",
"S.< > : = 2 ].YXPX).2 3 , < 6 g = 3 2 S D H D S 3 - < , PXYXYXYX",
"PX1 d.G.| k e , = 6 I *.;.j.oXu.3 R [ R Y H R ] [ K g < [ YXYXYX",
"YX: K.FXuX>X XG.h.{.qXqX;XeXK.! o.R ) =.) =.*.*.U ]  .1 D PXYXYX",
"YX= X.DXjXgXFXSXCXdX;Xm.M.H.Q  .I u.*X7X{.n.j.R.W.*.I +.D D YXYX",
"YXY I tXSXhXgXDXCXCXdXM.,.I -.I R.*XZXBX-X[.[.R..X@XG.! +.1 Y YX",
"YXPXF .XFXlXgXDXsXCXdXB.~ O.~ ;.=X7XAXUX7X7X{.|.}.wX.XG.{ { 3 YX",
"YXYX= G.FXlXfXDXsXsXsXOX! +.6 :.j.OXwXZX&XW.+XL.}.5XoX-X! w.1 1 ",
"YXYX, G.CXhXhXCXVXsXsXg. .Q $.$.>.>.n.OXk.k.k.@XL.@XR.-XI [ Q = ",
"YXPXg $XkXfXsXVXaXtXaXd.V.J :.:.1.1.v.v.,.v.k..XW.&X=XqX> Y o.1 ",
"YXG E wXhXkXDXzXVXVXpX*.C.h :.$.5.6.4.f.>.n.P.$XE.wX{.T.* L O.g ",
"YX, X.CXjXjXDXzXVXaXwX%.S.! :.<.2.6.4.,.,.n.{.}.+X$XoX_ # L 4.5 ",
"YX= G.DXuX8XfXkXsXaXeXd.C.| 1.&.2.3.6.+Xk.f.[.(.@X.X.Xf - } O., ",
"YX6 .XDXDXDXkX<XrXeXeX.X-.#.@.I.&XU.5.U.{..X#X#XW.-XH.@ + S.] 1 ",
"4 f 6XsXsXDXhXfXuXVXsXyX .S.T }.=X-X[.|.$X@X*X(.@X}.i.- S D.S C.",
"YX6 {.DXsXuX2XuXyXrXsXDXJ.o.[ | =X[.oXoXW.&XE.(.E.@Xi.< O.] D YX",
"YX2 p.DXDXzXhX1X8X<X:X4XK.H V.H p.R.J.L.p.L.p.E.'.#X*.R [ , V.YX",
"YX2 ) yXDXDXzX1X1XQ.z.q.H o.C.O.E ! t.0.=.i.*.J.K.u.+.R 2 ] YXYX",
"YXP H &XVXzXCXDXc.C c j o.S.C.T R [ R L ` u.] q.V.S.[ L e IXYXYX",
"YXYX1 W.BXCXDXc.b 9 9 z V Z./ -.p.( S.~./.,XxXxXcX).T.3X! R YXYX",
"YXYX3 i.VXwXc.b 9 9 p c z l -.7X8X(.xX_._.,XcXcXMXKXAXbX| e YXYX",
"YXYX, J.zXc.B 0 9 p a z v d T.sX4XxXD.z.0.l.Y.q.s.'.KXKXO.e YXYX",
"YXPXg $XN.b 9 9 p a z x m d Q.yXvXS.Z 7.8.9.8.' N r { nX_.Z.YXYX",
"YX5 ! x.B 9 9 p a z x n z 0.dXiXvX9.w w y y w 8 & # + C.,X).^.^.",
"YXK l b 9 0 p d z x n x 9.6XyXwXcX,XN 8 8 $ $ $ X X D ).nXnXcX_.",
"GX0.s 9 p p a z v v z Z 2XgX2X2X4XLXMXA.` k r g ( C.~.`.cXmXHXxX",
"x.b q 9 p s z x v s 0.1X9XwXXXrX7XLXPXPXKXmXnXnXnXxX/.~._.*XnX_.",
"z.z p p a z x m s ' W.i.` I F I u.HXPXPXPXLXHXmXnXxX,X^.).]._.).",
"l.B p s z x n z 0 f f F D +.w.% [ xXJXPXPXLXJXHXMXcX).^.).).~.YX",
"GXa.c z x m a l ..} @.YXPXPXYXYXPX/._.MXHXKXmXnX_.^.^.)._.LXYXYX",
"YXNX0.c x x j ..YXYXYXYXYXYXYXYXYXYX~.).~.^.D.D.D.F.).YXYXYXYXYX",
"YXYX4X` V I q.YXYXYXYXYXYXYXYXYXmXmXYX).).!.D.^.).nXYXYXYXYXYXYX"
};
