/* XPM */
static char *karbon[] = {
/* columns rows colors chars-per-pixel */
"32 32 180 2",
"   c #000101",
".  c #050508",
"X  c #060C01",
"o  c #080D02",
"O  c #09090C",
"+  c #0F0F10",
"@  c #001900",
"#  c #101B06",
"$  c #18181D",
"%  c #1F1F24",
"&  c #022300",
"*  c #052B00",
"=  c #142207",
"-  c #142208",
";  c #19241E",
":  c #253C1F",
">  c #202C24",
",  c #2B2734",
"<  c #282B31",
"1  c #2A2A38",
"2  c #2F3633",
"3  c #33323C",
"4  c #3C3C3F",
"5  c #3D3D44",
"6  c #004D00",
"7  c #0E4603",
"8  c #005700",
"9  c #144600",
"0  c #165900",
"q  c #1E5C00",
"w  c #006200",
"e  c #0B6501",
"r  c #027300",
"t  c #097105",
"y  c #097D04",
"u  c #136D02",
"i  c #137400",
"p  c #1B7103",
"a  c #334C34",
"s  c #315730",
"d  c #266100",
"f  c #2E6700",
"g  c #237705",
"h  c #2A7B07",
"j  c #356B00",
"k  c #307F07",
"l  c #417C32",
"z  c #414143",
"x  c #454549",
"c  c #464555",
"v  c #4A4757",
"b  c #53545B",
"n  c #545460",
"m  c #5E5F64",
"M  c #5F586F",
"N  c #4B774A",
"B  c #625A6E",
"V  c #625B73",
"C  c #68676F",
"Z  c #6A667E",
"A  c #6A6A71",
"S  c #75758A",
"D  c #7B7B8C",
"F  c #0B8106",
"G  c #088B04",
"H  c #108D0E",
"J  c #1B9A03",
"K  c #149511",
"L  c #1E9E1B",
"P  c #378308",
"I  c #3C870A",
"U  c #329100",
"Y  c #3D9A00",
"T  c #229F20",
"R  c #37AD31",
"E  c #35B336",
"W  c #3EC309",
"Q  c #428B0B",
"!  c #4B8500",
"~  c #4B8A10",
"^  c #4C9E21",
"/  c #49A000",
"(  c #49B40C",
")  c #5CAD12",
"_  c #5FB500",
"`  c #4AB74A",
"'  c #4BBD44",
"]  c #4AB949",
"[  c #51BC51",
"{  c #6A9869",
"}  c #68BC5C",
"|  c #65A664",
" . c #46C700",
".. c #42C800",
"X. c #4EDF00",
"o. c #52C71D",
"O. c #52D100",
"+. c #5CD800",
"@. c #4FC13D",
"#. c #52C632",
"$. c #5FE400",
"%. c #6ECD0A",
"&. c #63DC00",
"*. c #6FD209",
"=. c #70CF0A",
"-. c #73D10A",
";. c #65D42D",
":. c #6BE200",
">. c #6FEF00",
",. c #73E300",
"<. c #70E900",
"1. c #7DEE00",
"2. c #7FF100",
"3. c #7FFA00",
"4. c #56C34E",
"5. c #6CCA48",
"6. c #6FCA5A",
"7. c #70CD52",
"8. c #71CA5E",
"9. c #72D050",
"0. c #76D55F",
"q. c #6DC36E",
"w. c #71C866",
"e. c #73CA6A",
"r. c #74C772",
"t. c #75C872",
"y. c #7DCA7C",
"u. c #7AD176",
"i. c #8AEE00",
"p. c #86F100",
"a. c #8CF700",
"s. c #8EFF00",
"d. c #9BFF00",
"f. c #838198",
"g. c #8D8CA0",
"h. c #9191A5",
"j. c #9595A9",
"k. c #9A97AB",
"l. c #9999AC",
"z. c #A2A2B5",
"x. c #A7A7B8",
"c. c #ADADBC",
"v. c #B0B0BA",
"b. c #B1AFC4",
"n. c #B3B3C2",
"m. c #BABAC5",
"M. c #BCBCCE",
"N. c #BEBED0",
"B. c #82CC82",
"V. c #83D283",
"C. c #87D288",
"Z. c #8CD18C",
"A. c #93D594",
"S. c #93D893",
"D. c #99D699",
"F. c #9ED89E",
"G. c #9BE49B",
"H. c #A4D6A3",
"J. c #A4DBA4",
"K. c #ACDEAC",
"L. c #A0E0A0",
"P. c #C1C1C8",
"I. c #C3C3D3",
"U. c #C5C5D8",
"Y. c #C8C8D7",
"T. c #CCCCDA",
"R. c #D2D2DE",
"E. c #D5D5E1",
"W. c #D8D7E5",
"Q. c #DBDBE5",
"!. c #DEDEE8",
"~. c #E3E3EB",
"^. c #E8E8EE",
"/. c #E7E7F0",
"(. c #EBEBF2",
"). c #EEEDF8",
"_. c #F1F1F6",
"`. c #F6F6F9",
"'. c #FEFEFE",
"]. c None",
/* pixels */
"].].].].].].].].].].].].].].].].].].].].].].].].].].].].].].].].",
"].].].].].].].].].].].].].].].].].].].].].].].].].].].].].].].].",
"].].].].].].].].].].].].].].].].].].].].].].].].].].].].].].].].",
"].].].].].].].].].].].].].].].].].].].].].].].].].].].].].].].].",
"].].].].].].].].].].].].].].].].].].].].].].].].].].].].].].].].",
"].].].].].].].].].].].].].].].].].].].].].].].].].].].].].].].].",
"].].].].].                                                  ].].",
"].].].    @ 6 y F F F t ; f.j.g.h.h.h.h.h.h.h.h.h.h.h.j.S . ].].",
"].    & 8 H ] C.S.S.G.N v !.'.'.'.'.'.'.'.'.'.'.'.'.'.`.j.  ].].",
"  * w K [ A.K.K.K.K.H.2 f.`.'.'.'.'.`.'.'.`.'.'.'.'.'.'.h.  ].].",
"& G E C.H.F.D.D.D.J.{ 3 I.`.`.`._._.`.`._.`.`.`._.`.'.`.h.  ].].",
"& T S.A.Z.Z.Z.Z.C.S.a Z ~.`._.`.E.j.n.(._._._._.(._._.(.h.  ].].",
"& L 4.R q.B.y.B.V.| < b.(.(.(.(.c.1 g.(.(.(.(.(.(.(.(.(.h.  ].].",
"* J i r ` u.r.r.u.s V !.(.(.(.!.S O j./.(.^.^.~.~./.(./.h.  ].].",
"& 7   e ' e.w.e.} > z.(.^.^.^.E.c   l./.~.!.~.~.~.~.~.~.j.  ].].",
"      u @.8.8.0.l v W.(.^.^.(.n.% . z.!.!.!.Q.Q.!.!.!.!.l.  ].].",
"].].  p #.7.9.5.: k.!.!.~.(./.D   O x.!.Q.Q.E.Q.Q.E.Q.Q.l.      ",
"].].  g W o.;.^ z Q.!.~.!./.E.5   . c.~.Q.E.E.R.R.T.Y.I.z.n b % ",
"].].  h W ..O.U b (.!.~.~.(.m.z 3 5 n.!.E.E.T.Y.I.M.M.M.N.U.I.5 ",
"].].  P O.O.:.Y b ).(.(.^.^.Q.E.R.R.E.E.R.Y.Y.M.M.M.M.M.N.N.N.5 ",
"].].  P +.&.:./ m '.`.`.'.`.`.`.`.~.!.Q.E.R.Y.Y.M.M.M.M.N.U.Y.z ",
"].].  I &.,.p._ , V M V B B V C A P.~.!.W.R.T.Y.N.M.M.M.M.c.c.5 ",
"].].  I :.,.p.i.! j f d q 0 9     v.(.!.Q.R.R.Y.I.M.M.I.c.+ .   ",
"].].  Q :.1.a.d.d.s.3.>.$.X.( o   m._./.!.Q.R.T.U.N.M.Y.n..     ",
"].].  ~ -.-.-.-.-.-.=.=.%.-.) X . P._.(.(.(.^.~.~.!.!.~.I.O ].].",
"].].  # - - = = - - - - - - =     4 x x x x x x x x x x z X ].].",
"].].].].].].].].].].].].].].].].].].].].].].].].].].].].].].].].",
"].].].].].].].].].].].].].].].].].].].].].].].].].].].].].].].].",
"].].].].].].].].].].].].].].].].].].].].].].].].].].].].].].].].",
"].].].].].].].].].].].].].].].].].].].].].].].].].].].].].].].].",
"].].].].].].].].].].].].].].].].].].].].].].].].].].].].].].].].",
"].].].].].].].].].].].].].].].].].].].].].].].].].].].].].].].]."
};
