/* XPM */
static char * icon_xpm[] = {
"32 32 422 2",
"  	c None",
". 	c #000000",
"+ 	c #020202",
"@ 	c #4D4C49",
"# 	c #8E8E89",
"$ 	c #3C3D3B",
"% 	c #010101",
"& 	c #181918",
"* 	c #8A8883",
"= 	c #959690",
"- 	c #7E807A",
"; 	c #111110",
"> 	c #4F4E4B",
", 	c #81827C",
"' 	c #68726B",
") 	c #80867E",
"! 	c #41423E",
"~ 	c #0C0C0B",
"{ 	c #676762",
"] 	c #5B625B",
"^ 	c #4C574F",
"/ 	c #5B645C",
"( 	c #5E625C",
"_ 	c #050505",
": 	c #222220",
"< 	c #60625D",
"[ 	c #46524B",
"} 	c #3E574D",
"| 	c #4D584F",
"1 	c #636A63",
"2 	c #181A18",
"3 	c #383A39",
"4 	c #555954",
"5 	c #41524A",
"6 	c #375F54",
"7 	c #48564D",
"8 	c #666A64",
"9 	c #383735",
"0 	c #080707",
"a 	c #63625F",
"b 	c #666662",
"c 	c #4B5A54",
"d 	c #47746C",
"e 	c #4C5A53",
"f 	c #6F726C",
"g 	c #575753",
"h 	c #040303",
"i 	c #131312",
"j 	c #7A7873",
"k 	c #626B65",
"l 	c #64706C",
"m 	c #687069",
"n 	c #8A8A83",
"o 	c #6A6965",
"p 	c #121212",
"q 	c #767974",
"r 	c #A4A49C",
"s 	c #9E9B94",
"t 	c #92918A",
"u 	c #93978F",
"v 	c #9B9D95",
"w 	c #0A0B0A",
"x 	c #070707",
"y 	c #60605C",
"z 	c #A29E97",
"A 	c #A4A49B",
"B 	c #A6A49C",
"C 	c #A7A69E",
"D 	c #8C9089",
"E 	c #4A4A47",
"F 	c #050404",
"G 	c #060606",
"H 	c #343331",
"I 	c #8C8B85",
"J 	c #9A9891",
"K 	c #90958E",
"L 	c #969790",
"M 	c #7E7E78",
"N 	c #242422",
"O 	c #1A1B1A",
"P 	c #3C3B3A",
"Q 	c #0A0A0A",
"R 	c #1E1E1C",
"S 	c #82857E",
"T 	c #90918A",
"U 	c #909089",
"V 	c #8D948C",
"W 	c #727872",
"X 	c #131413",
"Y 	c #181817",
"Z 	c #50524E",
"` 	c #4C4E4C",
" .	c #444644",
"..	c #272724",
"+.	c #353531",
"@.	c #3E3D3B",
"#.	c #98948E",
"$.	c #9E9992",
"%.	c #93928B",
"&.	c #949B93",
"*.	c #848881",
"=.	c #2A2A29",
"-.	c #030303",
";.	c #44443F",
">.	c #080808",
",.	c #040504",
"'.	c #6C6C67",
").	c #656661",
"!.	c #474745",
"~.	c #8E8E88",
"{.	c #383935",
"].	c #61605A",
"^.	c #4F4E4A",
"/.	c #1A1A19",
"(.	c #838680",
"_.	c #9F9C96",
":.	c #A09A94",
"<.	c #96958E",
"[.	c #9EA098",
"}.	c #9A9A93",
"|.	c #757670",
"1.	c #121110",
"2.	c #1D1C1B",
"3.	c #62615A",
"4.	c #22221F",
"5.	c #4C4C49",
"6.	c #ACAAA2",
"7.	c #4C4C48",
"8.	c #2F2F2D",
"9.	c #A4A29B",
"0.	c #A4A9A0",
"a.	c #83847D",
"b.	c #444441",
"c.	c #6E6E67",
"d.	c #676760",
"e.	c #0D0D0C",
"f.	c #212221",
"g.	c #767671",
"h.	c #A6ABA3",
"i.	c #A0A29B",
"j.	c #92918C",
"k.	c #8E928C",
"l.	c #A1A39C",
"m.	c #9FA39B",
"n.	c #9B9E96",
"o.	c #61605C",
"p.	c #151616",
"q.	c #2E2E2B",
"r.	c #6E6D66",
"s.	c #4E4E49",
"t.	c #42423F",
"u.	c #8A8C84",
"v.	c #A8AEA4",
"w.	c #A5A69D",
"x.	c #292A28",
"y.	c #111010",
"z.	c #95928C",
"A.	c #AAACA3",
"B.	c #AFB3AA",
"C.	c #B2B0A8",
"D.	c #9E9F97",
"E.	c #888680",
"F.	c #62625F",
"G.	c #6A6D68",
"H.	c #6A706A",
"I.	c #969690",
"J.	c #B6BAB1",
"K.	c #A8AAA3",
"L.	c #94928E",
"M.	c #91938E",
"N.	c #A8A9A2",
"O.	c #ADADA5",
"P.	c #B0B0A8",
"Q.	c #7D7D78",
"R.	c #535654",
"S.	c #61605D",
"T.	c #646460",
"U.	c #7E827C",
"V.	c #9CA098",
"W.	c #B3B7AE",
"X.	c #B3B5AC",
"Y.	c #A5A9A0",
"Z.	c #8B8E86",
"`.	c #10100F",
" +	c #585854",
".+	c #A2A099",
"++	c #A9ABA2",
"@+	c #B2B2A9",
"#+	c #AEB0A7",
"$+	c #AFACA5",
"%+	c #94938E",
"&+	c #858682",
"*+	c #787A76",
"=+	c #A2A29A",
"-+	c #B3B6AE",
";+	c #B5B2AA",
">+	c #9D9793",
",+	c #979792",
"'+	c #A3A9A1",
")+	c #B9B7AF",
"!+	c #C1BCB3",
"~+	c #898884",
"{+	c #646664",
"]+	c #928C87",
"^+	c #999590",
"/+	c #A5A7A0",
"(+	c #B2B4AC",
"_+	c #B0B0A7",
":+	c #A9AAA0",
"<+	c #AAA49C",
"[+	c #5E5B57",
"}+	c #161615",
"|+	c #7A7A76",
"1+	c #A1A39B",
"2+	c #B1AFA7",
"3+	c #B0ACA5",
"4+	c #A6A39C",
"5+	c #928F8A",
"6+	c #8F8A86",
"7+	c #7B7D79",
"8+	c #989F97",
"9+	c #B9B6AE",
"0+	c #9C9692",
"a+	c #AAA59F",
"b+	c #A6ACA4",
"c+	c #B6B6AD",
"d+	c #B5B4AC",
"e+	c #898B86",
"f+	c #6D706C",
"g+	c #948E89",
"h+	c #989690",
"i+	c #9C9E98",
"j+	c #ABADA4",
"k+	c #B0AEA4",
"l+	c #A9A198",
"m+	c #8B807A",
"n+	c #1A1817",
"o+	c #33302E",
"p+	c #8C847C",
"q+	c #B4A8A1",
"r+	c #AEA8A0",
"s+	c #969892",
"t+	c #8E8B87",
"u+	c #888682",
"v+	c #898681",
"w+	c #B5B9B1",
"x+	c #B1B0AA",
"y+	c #979390",
"z+	c #A6A29C",
"A+	c #ACAEA6",
"B+	c #ACB2A8",
"C+	c #A8ADA5",
"D+	c #8C8F89",
"E+	c #777874",
"F+	c #878C85",
"G+	c #969891",
"H+	c #A2A39C",
"I+	c #B5B0A8",
"J+	c #A89C94",
"K+	c #907C74",
"L+	c #352D2A",
"M+	c #50403C",
"N+	c #9B837C",
"O+	c #A89A94",
"P+	c #96918C",
"Q+	c #8C8885",
"R+	c #82817E",
"S+	c #888580",
"T+	c #A6A49D",
"U+	c #B8B5AD",
"V+	c #A0A09A",
"W+	c #8B8B87",
"X+	c #979690",
"Y+	c #A4A79F",
"Z+	c #A2A9A0",
"`+	c #A1A59D",
" @	c #8F928C",
".@	c #80807B",
"+@	c #868E86",
"@@	c #94968F",
"#@	c #9A9B93",
"$@	c #A69C95",
"%@	c #958079",
"&@	c #4B3A36",
"*@	c #3D2D2A",
"=@	c #8A716C",
"-@	c #8D7F7C",
";@	c #8B8581",
">@	c #8A8682",
",@	c #81827D",
"'@	c #9C9F98",
")@	c #A4A49D",
"!@	c #9A9892",
"~@	c #868680",
"{@	c #82847F",
"]@	c #919790",
"^@	c #9CA199",
"/@	c #989E96",
"(@	c #7B7D78",
"_@	c #918E88",
":@	c #938E87",
"<@	c #988C85",
"[@	c #866E68",
"}@	c #3A2C2A",
"|@	c #040202",
"1@	c #020101",
"2@	c #2B201E",
"3@	c #795E5B",
"4@	c #8C7D78",
"5@	c #968F89",
"6@	c #898882",
"7@	c #9D9C95",
"8@	c #949690",
"9@	c #8B8B86",
"0@	c #7C7C78",
"a@	c #787B75",
"b@	c #94968E",
"c@	c #A19E96",
"d@	c #979790",
"e@	c #90918B",
"f@	c #7B7B76",
"g@	c #86847E",
"h@	c #867872",
"i@	c #755953",
"j@	c #261917",
"k@	c #1E1514",
"l@	c #6E5653",
"m@	c #8A807A",
"n@	c #86857F",
"o@	c #8F908A",
"p@	c #868681",
"q@	c #797A76",
"r@	c #837F7A",
"s@	c #84837D",
"t@	c #98978F",
"u@	c #95968E",
"v@	c #898881",
"w@	c #99928C",
"x@	c #7E7A74",
"y@	c #766E6A",
"z@	c #67514C",
"A@	c #1C1413",
"B@	c #201A19",
"C@	c #685C57",
"D@	c #8B8983",
"E@	c #72726E",
"F@	c #827D79",
"G@	c #827D78",
"H@	c #7A7E78",
"I@	c #96968F",
"J@	c #8E928A",
"K@	c #75726E",
"L@	c #8E8882",
"M@	c #746F6A",
"N@	c #5B504E",
"O@	c #191312",
"P@	c #1F1B1A",
"Q@	c #6D6662",
"R@	c #817D78",
"S@	c #646260",
"T@	c #767270",
"U@	c #6E6D6A",
"V@	c #81807A",
"W@	c #96948D",
"X@	c #5E5E59",
"Y@	c #72736E",
"Z@	c #54524E",
"`@	c #161413",
" #	c #030202",
".#	c #3A3836",
"+#	c #6E6B67",
"@#	c #595654",
"##	c #84807C",
"$#	c #686864",
"%#	c #807E78",
"&#	c #8A8B84",
"*#	c #94948C",
"=#	c #53524E",
"-#	c #63635E",
";#	c #2B2A28",
">#	c #0B0B0A",
",#	c #504D4B",
"'#	c #585552",
")#	c #5C5E5B",
"!#	c #737770",
"~#	c #797B75",
"{#	c #97968F",
"]#	c #474642",
"^#	c #43423E",
"/#	c #232221",
"(#	c #504E4B",
"_#	c #575754",
":#	c #6D6D67",
"<#	c #6B6E68",
"[#	c #95948C",
"}#	c #3F3E3B",
"|#	c #1C1B1A",
"1#	c #3E3C3A",
"2#	c #474542",
"3#	c #5C5854",
"4#	c #5E5B58",
"5#	c #8D8B84",
"6#	c #302F2D",
"7#	c #282524",
"8#	c #7E7772",
"9#	c #3A3532",
"0#	c #575350",
"a#	c #4C4643",
"b#	c #847A76",
"c#	c #1D1A1A",
"d#	c #0C0B0A",
"e#	c #463F3C",
"f#	c #605F59",
"g#	c #74746E",
"h#	c #64625C",
"i#	c #473E3C",
"j#	c #0A0808",
"k#	c #0A0A09",
"l#	c #4E4F4A",
"m#	c #6D6E69",
"n#	c #484B46",
"o#	c #080807",
". . . . . . . . . . . . . + @ # $ % . . . . . . . . . . . . . . ",
". . . . . . . . . . . . . & * = - ; . . . . . . . . . . . . . . ",
". . . . . . . . . . . . % > , ' ) ! . . . . . . . . . . . . . . ",
". . . . . . . . . . . . ~ { ] ^ / ( _ . . . . . . . . . . . . . ",
". . . . . . . . . . . . : < [ } | 1 2 . . . . . . . . . . . . . ",
". . . . . . . . . . . % 3 4 5 6 7 8 9 . . . . . . . . . . . . . ",
". . . . . . . . . . . 0 a b c d e f g h . . . . . . . . . . . . ",
". . . . . . . . . . . i j - k l m n o ~ . . . . . . . . . . . . ",
". . . . . . . . . . . p q r s t u v { w . . . . . . . . . . . . ",
". . . . . . . . . . . x y z A B C D E F . . . . . . . . . . . . ",
". G . . . . . . . . . . H I J K L M N . . . . . . . . . . O . . ",
". P Q . . . . . . . . . R S T U V W X . . . . . . . . . Y Z . . ",
". `  .+ . % ..+.. . . % @.#.$.%.&.*.=.. . . -.;.>.. . ,.'.).. . ",
". !.~.{.+ x ].^.-.. . /.(._.:.<.[.}.|.1.. . 2.3.4.. _ 5.6.7.. . ",
". 8.9.0.a.b.c.d.e.Q f.g.h.i.j.k.l.m.n.o.p.G q.r.s.t.u.v.w.x.. . ",
". y.z.A.B.C.D.E.F.G.H.I.J.K.L.M.N.O.P.Q.R.S.T.U.V.W.X.Y.Z.`.. . ",
". +  +.+++@+#+$+%+&+*+=+-+;+>+,+'+)+!+~+{+]+^+/+(+_+:+<+[++ . . ",
". . }+|+1+2+3+4+5+6+7+8+W.9+0+a+b+c+d+e+f+g+h+i+j+k+l+m+n+. . . ",
". . . o+p+q+r+s+t+u+v+i.w+x+y+z+A+B+C+D+E+F+G+H+I+J+K+L+. . . . ",
". . . F M+N+O+P+Q+R+S+T+U+V+W+X+Y+Z+`+ @.@+@@@#@$@%@&@h . . . . ",
". . . . + *@=@-@;@>@,@'@)@!@~@{@]@^@/@k.(@_@:@<@[@}@|@. . . . . ",
". . . . . 1@2@3@4@5@6@7@8@9@0@a@b@c@d@e@f@g@h@i@j@1@. . . . . . ",
". . . . . . . k@l@m@n@o@p@q@r@s@t@u@v@w@x@y@z@A@. . . . . . . . ",
". . . . . . . . B@C@x@D@E@F@G@H@I@J@K@L@M@N@O@. . . . . . . . . ",
". . . . . . . . . P@Q@R@S@T@U@V@W@J@X@Y@Z@`@. . . . . . . . . . ",
". . . . . . . . .  #.#+#@###$#%#&#*#=#-#;#+ . . . . . . . . . . ",
". . . . . . . . . . >#,#'#u+)#!#~#{#]#^#>.. . . . . . . . . . . ",
". . . . . . . . . . . /#(#6@_#:#<#[#}#|#. . . . . . . . . . . . ",
". . . . . . . . . . . _ 1#g@2#3#4#5#6#h . . . . . . . . . . . . ",
". . . . . . . . . . . . 7#8#9#0#a#b#c#. . . . . . . . . . . . . ",
". . . . . . . . . . . . d#e#f#g#h#i#j#. . . . . . . . . . . . . ",
". . . . . . . . . . . . . k#l#m#n#o#. . . . . . . . . . . . . . "};
