/* XPM */
static char * keyboard_layout_xpm[] = {
"32 32 564 2",
"  	c None",
". 	c #70337F",
"+ 	c #75357B",
"@ 	c #A20A35",
"# 	c #E06C76",
"$ 	c #F8B2B2",
"% 	c #FFD6D1",
"& 	c #FFE2DA",
"* 	c #FFE0D9",
"= 	c #EE3131",
"- 	c #CF0006",
"; 	c #71001A",
"> 	c #B20024",
", 	c #EC0000",
"' 	c #FE1F19",
") 	c #FFD6D4",
"! 	c #FFE4E3",
"~ 	c #FEE6E5",
"{ 	c #FEE9E9",
"] 	c #FDE2E2",
"^ 	c #F13737",
"/ 	c #F10000",
"( 	c #F80000",
"_ 	c #A40012",
": 	c #080C8F",
"< 	c #0A22B1",
"[ 	c #80135B",
"} 	c #FD0000",
"| 	c #FF0000",
"1 	c #F82928",
"2 	c #F89696",
"3 	c #FEF5F5",
"4 	c #FFFEFE",
"5 	c #FFFFFF",
"6 	c #FEFFFF",
"7 	c #F3EBEF",
"8 	c #EBA2A7",
"9 	c #EF2F32",
"0 	c #E90000",
"a 	c #2228AD",
"b 	c #434AC8",
"c 	c #1B25B1",
"d 	c #1925AF",
"e 	c #232FB4",
"f 	c #3F4CC0",
"g 	c #304AC8",
"h 	c #A41B4F",
"i 	c #FF3530",
"j 	c #F49C9C",
"k 	c #F4F6F6",
"l 	c #F9FFFF",
"m 	c #FFFBFB",
"n 	c #FDFBFC",
"o 	c #F2FFFF",
"p 	c #E6FFFF",
"q 	c #DFE4F2",
"r 	c #CC5162",
"s 	c #565CC3",
"t 	c #BDC0EA",
"u 	c #3C47BE",
"v 	c #939ADB",
"w 	c #4552C2",
"x 	c #A8AEE3",
"y 	c #858ED8",
"z 	c #A397C8",
"A 	c #F8FFFD",
"B 	c #F0FFFF",
"C 	c #F6F1F1",
"D 	c #FCC7C7",
"E 	c #FFC2C2",
"F 	c #FFAFAF",
"G 	c #FFA9A9",
"H 	c #FD9595",
"I 	c #F7585B",
"J 	c #ECA8B1",
"K 	c #DCF9FF",
"L 	c #A9C8ED",
"M 	c #252FB9",
"N 	c #2B38B9",
"O 	c #3A48BF",
"P 	c #9DA5E0",
"Q 	c #4A5AC7",
"R 	c #4B5CC7",
"S 	c #4C5FCA",
"T 	c #B6D9FC",
"U 	c #F7EEED",
"V 	c #F89090",
"W 	c #FE2626",
"X 	c #FF4D4D",
"Y 	c #FF9595",
"Z 	c #FF8F8F",
"` 	c #FF9797",
" .	c #FF6464",
"..	c #FE0000",
"+.	c #FB0000",
"@.	c #F3565D",
"#.	c #9FA0C1",
"$.	c #3945C6",
"%.	c #5D68CA",
"&.	c #3243BE",
"*.	c #2C3FBD",
"=.	c #3A4EC3",
"-.	c #5669CE",
";.	c #5268CE",
">.	c #CF6B83",
",.	c #FF2E2A",
"'.	c #FF0A0A",
").	c #FE0909",
"!.	c #FF5858",
"~.	c #FF9B9B",
"{.	c #FFB3B3",
"].	c #FE7675",
"^.	c #BC2631",
"/.	c #4F575A",
"(.	c #6B6C6C",
"_.	c #626262",
":.	c #040404",
"<.	c #000000",
"[.	c #0A106E",
"}.	c #6873D6",
"|.	c #BFC5EB",
"1.	c #5161C9",
"2.	c #A8B1E5",
"3.	c #5A6DCF",
"4.	c #B2BFEC",
"5.	c #A1A6DD",
"6.	c #DC162B",
"7.	c #FF1310",
"8.	c #FD2020",
"9.	c #FC4D4D",
"0.	c #FCB3B3",
"a.	c #FEECEC",
"b.	c #FAFCFE",
"c.	c #F2D7DB",
"d.	c #F27E85",
"e.	c #FF1214",
"f.	c #C01117",
"g.	c #5B6365",
"h.	c #777979",
"i.	c #5E5E5E",
"j.	c #010101",
"k.	c #151C79",
"l.	c #3343C6",
"m.	c #3D4FC3",
"n.	c #4A5DC9",
"o.	c #9CA7E2",
"p.	c #5B71D1",
"q.	c #5672D5",
"r.	c #636DC7",
"s.	c #EF2E37",
"t.	c #FD5B59",
"u.	c #F7B8B8",
"v.	c #F7FFFF",
"w.	c #FBFFFF",
"x.	c #FDF9F9",
"y.	c #FCE3E3",
"z.	c #FBD4D4",
"A.	c #FAD8D9",
"B.	c #F7E7EA",
"C.	c #EEFDFF",
"D.	c #E2FFFF",
"E.	c #E6C6D7",
"F.	c #A3505E",
"G.	c #4B5454",
"H.	c #687070",
"I.	c #3D4748",
"J.	c #6473B3",
"K.	c #586CD1",
"L.	c #3D52C5",
"M.	c #4359C9",
"N.	c #445CCB",
"O.	c #556FD1",
"P.	c #6986DB",
"Q.	c #9CABDE",
"R.	c #EFCFD1",
"S.	c #F1FFFF",
"T.	c #F2FDFD",
"U.	c #F3ACAC",
"V.	c #F58080",
"W.	c #F35F5F",
"X.	c #F25252",
"Y.	c #F15050",
"Z.	c #F05757",
"`.	c #EC2A2A",
" +	c #E83A3C",
".+	c #E49BA3",
"++	c #D7F8FF",
"@+	c #8E9DB6",
"#+	c #714746",
"$+	c #A56A6A",
"%+	c #8B3636",
"&+	c #510000",
"*+	c #210000",
"=+	c #C0DCE6",
"-+	c #BEDAF5",
";+	c #B1CCF0",
">+	c #B9D6F4",
",+	c #CEECFD",
"'+	c #E1FFFF",
")+	c #EEFFFF",
"!+	c #EDF1F1",
"~+	c #F09393",
"{+	c #F12828",
"]+	c #F00000",
"^+	c #F32525",
"/+	c #F34140",
"(+	c #F44F4F",
"_+	c #F45A5A",
":+	c #F35556",
"<+	c #ED1616",
"[+	c #EA0000",
"}+	c #DE515C",
"|+	c #B5768A",
"1+	c #BF4644",
"2+	c #ED6160",
"3+	c #EB2827",
"4+	c #E30000",
"5+	c #D10100",
"6+	c #850100",
"7+	c #180000",
"8+	c #CC5C66",
"9+	c #EFD5D2",
"0+	c #EDFEFA",
"a+	c #EDFFFA",
"b+	c #EBE8E5",
"c+	c #ECAFAD",
"d+	c #EF6767",
"e+	c #F31717",
"f+	c #F40000",
"g+	c #F50000",
"h+	c #F54343",
"i+	c #F8A3A3",
"j+	c #FCD6D6",
"k+	c #FFF3F3",
"l+	c #FEF8F8",
"m+	c #FCF3F5",
"n+	c #F4C8CB",
"o+	c #EC7D80",
"p+	c #EC191B",
"q+	c #EB0000",
"r+	c #C0262E",
"s+	c #C04B49",
"t+	c #E65655",
"u+	c #E11B1A",
"v+	c #DC0000",
"w+	c #E00100",
"x+	c #EA0100",
"y+	c #B80100",
"z+	c #270000",
"A+	c #EE0403",
"B+	c #EE3A3A",
"C+	c #F02A2A",
"D+	c #F30A0A",
"E+	c #F60000",
"F+	c #F70000",
"G+	c #F80505",
"H+	c #F55858",
"I+	c #F5C3C3",
"J+	c #F8FFFF",
"K+	c #F3FFFF",
"L+	c #EAFFFF",
"M+	c #E1D6E3",
"N+	c #E24B55",
"O+	c #BC2128",
"P+	c #C24442",
"Q+	c #E64B4A",
"R+	c #DF0F0E",
"S+	c #DC0100",
"T+	c #EE0100",
"U+	c #8B0000",
"V+	c #E64D52",
"W+	c #F00303",
"X+	c #F20000",
"Y+	c #F53434",
"Z+	c #F27F7F",
"`+	c #EFD7D7",
" @	c #F4FFFF",
".@	c #F9E5E5",
"+@	c #FDA3A3",
"@@	c #FE7474",
"#@	c #FE5959",
"$@	c #FD5353",
"%@	c #FB6364",
"&@	c #F68689",
"*@	c #ECCBD5",
"=@	c #DBFFFF",
"-@	c #C8E1FF",
";@	c #B04855",
">@	c #C63634",
",@	c #E53F3F",
"'@	c #DD0505",
")@	c #E90100",
"!@	c #820000",
"~@	c #ECFFFF",
"{@	c #E9D1D1",
"]@	c #EBA4A4",
"^@	c #EC9C9C",
"/@	c #ECB2B2",
"(@	c #E9DCDC",
"_@	c #E7FFFF",
":@	c #E8FFFF",
"<@	c #EDFFFF",
"[@	c #F4CDCD",
"}@	c #FB6666",
"|@	c #FF1A1A",
"1@	c #FF0100",
"2@	c #FA0B0C",
"3@	c #EC6870",
"4@	c #C6D1EF",
"5@	c #AB515D",
"6@	c #CA3430",
"7@	c #E53332",
"8@	c #DC0002",
"9@	c #DA0000",
"0@	c #DB0000",
"a@	c #E70100",
"b@	c #6F0000",
"c@	c #F3F6F6",
"d@	c #E9FFFF",
"e@	c #EDEBEB",
"f@	c #F5ABAB",
"g@	c #FE5555",
"h@	c #FF1212",
"i@	c #FF0202",
"j@	c #FF0E0E",
"k@	c #FF1113",
"l@	c #FA0F11",
"m@	c #F60E11",
"n@	c #F40E12",
"o@	c #F6080B",
"p@	c #FD0004",
"q@	c #E4303B",
"r@	c #B76641",
"s@	c #DB7D34",
"t@	c #F78A2C",
"u@	c #F26805",
"v@	c #EC4A01",
"w@	c #E21C00",
"x@	c #E50000",
"y@	c #5C0000",
"z@	c #88000D",
"A@	c #FF2E2E",
"B@	c #DCA1A1",
"C@	c #CCDCDC",
"D@	c #CDD8D8",
"E@	c #CFBBBB",
"F@	c #D38F8F",
"G@	c #D85858",
"H@	c #DC3B3B",
"I@	c #DC3939",
"J@	c #DB4545",
"K@	c #DB4A4A",
"L@	c #D44A4D",
"M@	c #BF454C",
"N@	c #AF4647",
"O@	c #AA3A31",
"P@	c #B52913",
"Q@	c #B72E1B",
"R@	c #C1281A",
"S@	c #D92617",
"T@	c #F50205",
"U@	c #C7912F",
"V@	c #E9B93A",
"W@	c #FFC22C",
"X@	c #FFB50E",
"Y@	c #FFB008",
"Z@	c #FE9D02",
"`@	c #F25E00",
" #	c #E30B00",
".#	c #4B0000",
"+#	c #AD0010",
"@#	c #DA2724",
"##	c #CCBBBB",
"$#	c #E8E9E9",
"%#	c #E8E6E6",
"&#	c #E7DCDC",
"*#	c #E5DCDC",
"=#	c #E3E2E2",
"-#	c #E3E7E7",
";#	c #E3E8E8",
">#	c #E1E7E8",
",#	c #E0E7E7",
"'#	c #E4EAE9",
")#	c #C7C7C7",
"!#	c #AB5A3E",
"~#	c #C65610",
"{#	c #D4891B",
"]#	c #D8B036",
"^#	c #DA8532",
"/#	c #D73521",
"(#	c #C79531",
"_#	c #ECB93A",
":#	c #FFC12C",
"<#	c #FFB315",
"[#	c #FFAE10",
"}#	c #FFAA08",
"|#	c #FFAB02",
"1#	c #F97B00",
"2#	c #451100",
"3#	c #810F28",
"4#	c #A48B8A",
"5#	c #D1DADA",
"6#	c #F9F9F9",
"7#	c #F7F7F7",
"8#	c #F5F6F6",
"9#	c #F4F5F5",
"0#	c #F2F4F4",
"a#	c #F1F2F2",
"b#	c #F0F1F1",
"c#	c #EFF0F0",
"d#	c #E7EAEF",
"e#	c #C6BDB0",
"f#	c #F0B72A",
"g#	c #FFD333",
"h#	c #FFD542",
"i#	c #FED944",
"j#	c #F1C743",
"k#	c #DCB138",
"l#	c #EFBE3A",
"m#	c #FFC52D",
"n#	c #FFBA1D",
"o#	c #FFB417",
"p#	c #FFAD0F",
"q#	c #FFA707",
"r#	c #FFA400",
"s#	c #949797",
"t#	c #D5D5D5",
"u#	c #F5F5F5",
"v#	c #F2F2F2",
"w#	c #F1F1F1",
"x#	c #EFEFEF",
"y#	c #EDEDED",
"z#	c #EBEBEB",
"A#	c #E9E9E9",
"B#	c #E7E7E7",
"C#	c #E6E6E6",
"D#	c #E5E5E5",
"E#	c #E4E4E7",
"F#	c #D0CFC9",
"G#	c #EEC840",
"H#	c #FFD83B",
"I#	c #FFD945",
"J#	c #FFDB45",
"K#	c #FFD441",
"L#	c #FBCC3D",
"M#	c #FFC830",
"N#	c #FFC024",
"O#	c #FFB91D",
"P#	c #FFB215",
"Q#	c #FFAC0C",
"R#	c #FC9F03",
"S#	c #959595",
"T#	c #D6D6D6",
"U#	c #F0F0F0",
"V#	c #EEEEEE",
"W#	c #ECECEC",
"X#	c #E4E4E4",
"Y#	c #E1E1E1",
"Z#	c #E0E0E0",
"`#	c #DFDFDF",
" $	c #DEDEDE",
".$	c #E3E3E5",
"+$	c #D1CFC8",
"@$	c #EECC45",
"#$	c #FFE044",
"$$	c #FFE14A",
"%$	c #FFE149",
"&$	c #FFDE47",
"*$	c #FFDB43",
"=$	c #FFD73F",
"-$	c #FFD135",
";$	c #FFCB2C",
">$	c #FFC324",
",$	c #FFB91A",
"'$	c #FFB010",
")$	c #F49B05",
"!$	c #F3F3F3",
"~$	c #E3E3E3",
"{$	c #DDDDDD",
"]$	c #DBDBDB",
"^$	c #D7D7D7",
"/$	c #E1E2E4",
"($	c #D3D2CB",
"_$	c #EED34C",
":$	c #FFE84D",
"<$	c #FFE954",
"[$	c #FFEB55",
"}$	c #FFEF54",
"|$	c #FFEB4B",
"1$	c #FFD93E",
"2$	c #F8C32E",
"3$	c #EDB021",
"4$	c #EEAC1B",
"5$	c #FDB319",
"6$	c #FFBC14",
"7$	c #EC9807",
"8$	c #969696",
"9$	c #D8D8D8",
"0$	c #F8F8F8",
"a$	c #E2E2E2",
"b$	c #EAEAEA",
"c$	c #D0D0D0",
"d$	c #D9D9D9",
"e$	c #D2D2D2",
"f$	c #E0E1E3",
"g$	c #D5D3CD",
"h$	c #EED852",
"i$	c #FFF357",
"j$	c #FFFE62",
"k$	c #DEBC37",
"l$	c #95711B",
"m$	c #573A06",
"n$	c #9C6606",
"o$	c #D98906",
"p$	c #9B9B9B",
"q$	c #E8E8E8",
"r$	c #8A8A8A",
"s$	c #787878",
"t$	c #6F6F6F",
"u$	c #757575",
"v$	c #777777",
"w$	c #CFCFCF",
"x$	c #D8D7D0",
"y$	c #FCE455",
"z$	c #FCE74D",
"A$	c #BFA432",
"B$	c #5E450D",
"C$	c #A2A2A2",
"D$	c #D4D4D4",
"E$	c #5B5B5B",
"F$	c #7D7D7D",
"G$	c #5F5F5F",
"H$	c #7E7E7E",
"I$	c #7F7F7F",
"J$	c #DADADA",
"K$	c #E8E8EA",
"L$	c #D7D5D0",
"M$	c #7E621F",
"N$	c #3A2603",
"O$	c #A8A8A8",
"P$	c #FEFEFE",
"Q$	c #CECECE",
"R$	c #CDCDCD",
"S$	c #B0B0B0",
"T$	c #FDFDFD",
"U$	c #FCFCFC",
"V$	c #FBFBFB",
"W$	c #F6F6F6",
"X$	c #B8B8B8",
"Y$	c #D3D3D3",
"Z$	c #F4F4F4",
"`$	c #FAFAFA",
" %	c #D1D1D1",
".%	c #C1C1C1",
"+%	c #DCDCDC",
"@%	c #C3C3C3",
"#%	c #CBCBCB",
"$%	c #2C2C2C",
"%%	c #2B2B2B",
"&%	c #292929",
"*%	c #282828",
"=%	c #262626",
"-%	c #272727",
";%	c #212121",
"                                  . +                           ",
"                          @ # $ % & * = - ;                     ",
"                      > , ' ) ! ~ { ] ^ / ( _                   ",
"    :           < [ } | 1 2 3 4 5 5 6 7 8 9 0                   ",
"    a b c d e f g h i j k l 6 4 m m n o p q r                   ",
"    s t u v w x y z A B C D E F G F H I J K L                   ",
"    M N O P Q R S T U V W X Y Z Z `  ...+.@.#.                  ",
"    $.%.&.*.=.-.;.>.,.'.).!.Y ~.G {.].'.| | ^./.(._.:.<.<.      ",
"  [.}.|.1.2.3.4.5.6.7.8.9.0.a.5 5 5 b.c.d.e.f.g.h.i.j.<.<.<.    ",
"  k.l.m.n.o.p.q.r.s.t.u.v.w.x.y.z.A.B.C.D.E.F.G.H.I.<.<.<.<.<.  ",
"  J.K.L.M.N.O.P.Q.R.S.T.U.V.W.X.Y.Z.`. +.+++@+#+$+%+&+*+<.<.<.  ",
"  =+p -+;+>+,+'+)+!+~+{+]+^+/+(+_+:+<+[+0 }+|+1+2+3+4+5+6+7+<.  ",
"  8+9+0+)+a+b+c+d+e+f+g+h+i+j+k+l+m+n+o+p+q+r+s+t+u+v+w+x+y+z+  ",
"  v+A+`.B+C+D+E+F+G+H+I+J+w.5 5 6 w.K+L+M+N+O+P+Q+R+v+S+S+T+U+  ",
"  V+W+X+g+F+G+Y+Z+`+S. @.@+@@@#@$@%@&@*@=@-@;@>@,@'@v+S+S+)@!@  ",
"  ~@{@]@^@/@(@_@:@<@[@}@|@1@| | | | ..2@3@4@5@6@7@8@9@0@v+a@b@  ",
"  c@:@:@:@:@d@e@f@g@h@i@j@k@l@m@n@o@p@| | q@r@s@t@u@v@w@v+x@y@  ",
"z@A@B@C@D@E@F@G@H@I@J@K@L@M@N@O@P@Q@R@S@T@/ U@V@W@X@Y@Z@`@ #.#  ",
"+#@###$#%#&#*#=#-#;#;#;#>#,#'#)#!#~#{#]#^#/#(#_#:#<#[#}#|#1#2#  ",
"3#4#5#6#7#8#9#0#a#b#b#b#b#b#c#d#e#f#g#h#i#j#k#l#m#n#o#p#q#r#    ",
"  s#t#u#v#w#x#y#z#A#B#C#C#C#D#E#F#G#H#I#I#J#K#L#M#N#O#P#Q#R#    ",
"  S#T#U#y#x#V#W#A#C#X#Y#Z#`# $.$+$@$#$$$%$&$*$=$-$;$>$,$'$)$    ",
"  S#T#!$B#V#x#W#y#C#~$Z#{$]$^$/$($_$:$<$[$}$|$1$2$3$4$5$6$7$    ",
"  8$9$0$y#a${$b$c$C#D#Y#{$d$e$f$g$h$i$j$i$k$l$m$        n$o$    ",
"  p$`#q$r$s$t$u$v$X#X#Z#{$^$w$/$x$y$z$A$B$                      ",
"  C$C#D$E$F$G$H$I$~$~$Z# $J$e$K$L$M$N$                          ",
"  O$D#P$Q$T#R$`#J$q$C#X#Y#`#J$U#w$                              ",
"  S$C#T$5 P$5 U$V$7#7#W$u#u#!$U$c$                              ",
"  X$Y$]$Z#~$C#A#z#x#v#Z$7#`$T$5  %                              ",
"  .%+%Z#~$C#q$W#x#v#u#0$V$P$5 5 D$                              ",
"  @%+%]$ $Z#~$C#q$z#V#U#!$u#7#7##%                              ",
"    $%%%%%&%&%&%&%&%&%*%*%*%=%-%;%                              "};
