/* XPM */
static char * klogic_xpm[] = {
"32 32 11 1",
" 	c None",
".	c #000000",
"+	c #969696",
"@	c #757575",
"#	c #323232",
"$	c #111111",
"%	c #535353",
"&	c #646464",
"*	c #858585",
"=	c #434343",
"-	c #212121",
"                                ",
"                                ",
"  ............................  ",
"  .++++++++++++++++++++++++++.  ",
"  .++++++++++++++++++++++++++.  ",
"  .++++++++++++++++++++++++++.  ",
"  .++++++++++++++++++++++++++.  ",
"  .++++++++++++++++++++++++++.  ",
"  .++++++++++@#..$%++++++++++.  ",
"  .+++++++++&.$**$.=+++++++++.  ",
"  .+++++++++$.@++&..+++++++++.  ",
"  .++++++++&..+++&..+++++++++.  ",
"  .++++++++&..@++-.=+++++++++.  ",
"  .+++++++++..$+#.-++++++++++.  ",
"  .+++++++++&...-%+@&&&++++++.  ",
"  .++++++++@-$..=++%$.#@+++++.  ",
"  .+++++++&.#+#..&++-=+++++++.  ",
"  .+++++++..*+*$..*%$++++++++.  ",
"  .++++++&..+++*..$.+++++++++.  ",
"  .++++++&..@+++&..-+++++++++.  ",
"  .+++++++..$&+@#...#++++++++.  ",
"  .+++++++&.....=+#..$#++++++.  ",
"  .++++++++@=#%++++@&&&++++++.  ",
"  .++++++++++++++++++++++++++.  ",
"  .++++++++++++++++++++++++++.  ",
"  .++++++++++++++++++++++++++.  ",
"  .++++++++++++++++++++++++++.  ",
"  .++++++++++++++++++++++++++.  ",
"  .++++++++++++++++++++++++++.  ",
"  ............................  ",
"                                ",
"                                "};
