/* XPM */
static char * kmymoney2_kmymoney2_xpm[] = {
"32 32 13 1",
" 	c None",
".	c #FFFFFF",
"+	c #007f00",
"@	c #E5E5E5",
"#	c #CCCCCC",
"$	c #B2B2B2",
"%	c #666667",
"&	c #333333",
"*	c #7F7F7F",
"=	c #999999",
"-	c #000000",
";	c #4C4C4C",
">	c #191919",
"      **%%%%%%%%;;;;&-          ",
"      %##########$$==;-         ",
"      *#..........@@@;*-        ",
"      %#...........@@;#*-       ",
"      %#.............;.#*-      ",
"      %#....======...%..#*-     ",
"      %#....======...%@..#*-    ",
"      %#.............%#@..#*-   ",
"      %#....====.....%;;;;;&&-  ",
"    = %#.=@........$$@@@$=*%%-  ",
"   =;%#@=&*.......$+>@.@@#$=%-  ",
"   $%#$#@%$.......$+&@.@@@@$=-  ",
"      %#....===*+++++++;$@##$-  ",
"      %#.....$+++++++++;%@@@$-  ",
"      %#....*++++++%+++&%@@@$-  ",
"      %#....++++;$+-@@$%@@@@$-  ",
"      %#....++++&++&===*=@@@$-  ",
"      %#....+++++++%%*@@@@@@$-  ",
"      %#....=+++++++++&=@@@@$-  ",
"      %#.....@@$+++++++>@@@#$-  ",
"    = %#.=@..@.@++&++++-@@@@$-  ",
"   =;%#@=;*+&;*=+;;++++>*@@#$-  ",
"   $%#$#@%$+++++++++++&=*#@@$-  ",
"      %#..$++++++++++&%**@##$-  ",
"      %#..@$+++++++%*$@#*###$&  ",
"      %#.@@.*=*+%&*******###$&  ",
"      %#@@@@*@$+&*@@@@##*###$&  ",
"      ;#.@@@==*+&%*******###$&  ",
"      %#@@@@@@#$*@@@#######$$&  ",
"      ;#@@@@@@@@@@#@########$&  ",
"      &#$$$$$$$$$$$$$$$$$$$$$&  ",
"      >&&&&&&&&&&&&&&&&>&&>&&>  "};
