/* XPM */
static char * xkobo_icon_xpm[] = {
"32 32 15 1",
" 	c None",
".	c #000000",
"+	c #9C599C",
"@	c #9CA73A",
"#	c #3A3A3A",
"$	c #A5A5A5",
"%	c #F7F7F7",
"& c #636363",
"*	c #00006B",
"=	c #9C3AC3",
"-	c #1019B5",
";	c #314ACE",
"> c #635AAD",
",	c #94C5FF",
"'	c #9C4AAF",
"...................+............",
"..............@.................",
"................................",
"................................",
"................................",
"................................",
"................................",
"................................",
"................................",
"................................",
"...............##...............",
"..............#$%&..............",
"..............#$%&..............",
"..............#$%&..............",
"...........##.#$%&.##...........",
"...........#%##$%&$#%...........",
"...........#%&#**&$#%...........",
"....=.....##%&*--*$#%%..........",
"..........##%&*---$#%%..........",
".........#&#%&-;>-$#%$%.........",
".........#&#%&->,-$#%$%.........",
".........#&#%&#--&$#%$%.........",
"..........##%&#$%&$#%&..........",
"...........#%&#%%&$#%...........",
"...........#%......#%...........",
"................................",
"..........................'.....",
"................................",
"................................",
"................................",
"................................",
"................................"};

