/* XPM */
static char * kphone_xpm[] = {
"48 48 238 2",
"  	c None",
". 	c #212121",
"+ 	c #393939",
"@ 	c #3D3D3D",
"# 	c #484848",
"$ 	c #494949",
"% 	c #575757",
"& 	c #363636",
"* 	c #2A2A2A",
"= 	c #2D2D2D",
"- 	c #4A4A4A",
"; 	c #2C2C2C",
"> 	c #3F3F3F",
", 	c #2F2F2F",
"' 	c #383838",
") 	c #2B2B2B",
"! 	c #3B3B3B",
"~ 	c #3C3C3C",
"{ 	c #454545",
"] 	c #9F9F9F",
"^ 	c #ADADAD",
"/ 	c #989898",
"( 	c #757575",
"_ 	c #A7A7A7",
": 	c #AEAEAE",
"< 	c #AAAAAA",
"[ 	c #A5A5A5",
"} 	c #909090",
"| 	c #ABABAB",
"1 	c #A6A6A6",
"2 	c #4D4D4D",
"3 	c #515151",
"4 	c #474747",
"5 	c #878787",
"6 	c #424242",
"7 	c #808080",
"8 	c #999999",
"9 	c #B3B3B3",
"0 	c #BCBCBC",
"a 	c #C1C1C1",
"b 	c #C6C6C6",
"c 	c #CBCBCB",
"d 	c #CACACA",
"e 	c #C7C7C7",
"f 	c #C0C0C0",
"g 	c #BEBEBE",
"h 	c #BBBBBB",
"i 	c #B7B7B7",
"j 	c #B1B1B1",
"k 	c #9B9B9B",
"l 	c #7D7D7D",
"m 	c #737373",
"n 	c #9A9A9A",
"o 	c #323232",
"p 	c #404040",
"q 	c #727272",
"r 	c #858585",
"s 	c #BFBFBF",
"t 	c #DFDFDF",
"u 	c #F8F8F8",
"v 	c #EAEAEA",
"w 	c #E3E3E3",
"x 	c #DBDBDB",
"y 	c #D4D4D4",
"z 	c #C2C2C2",
"A 	c #C9C9C9",
"B 	c #D9D9D9",
"C 	c #CFCFCF",
"D 	c #B8B8B8",
"E 	c #767676",
"F 	c #9E9E9E",
"G 	c #AFAFAF",
"H 	c #656565",
"I 	c #C5C5C5",
"J 	c #D5D5D5",
"K 	c #E2E2E2",
"L 	c #F7F7F7",
"M 	c #E6E6E6",
"N 	c #E0E0E0",
"O 	c #B0B0B0",
"P 	c #BABABA",
"Q 	c #A4A4A4",
"R 	c #DCDCDC",
"S 	c #E7E7E7",
"T 	c #E5E5E5",
"U 	c #DDDDDD",
"V 	c #D3D3D3",
"W 	c #ECECEC",
"X 	c #A2A2A2",
"Y 	c #A0A0A0",
"Z 	c #ACACAC",
"` 	c #A3A3A3",
" .	c #929292",
"..	c #5A5A5A",
"+.	c #E4E4E4",
"@.	c #D6D6D6",
"#.	c #C3C3C3",
"$.	c #B6B6B6",
"%.	c #7F7F7F",
"&.	c #666666",
"*.	c #7B7B7B",
"=.	c #6F6F6F",
"-.	c #919191",
";.	c #4E4E4E",
">.	c #555555",
",.	c #5B5B5B",
"'.	c #818181",
").	c #9D9D9D",
"!.	c #A8A8A8",
"~.	c #C4C4C4",
"{.	c #939393",
"].	c #848484",
"^.	c #5D5D5D",
"/.	c #1A1A1A",
"(.	c #B2B2B2",
"_.	c #979797",
":.	c #838383",
"<.	c #343434",
"[.	c #6B6B6B",
"}.	c #7C7C7C",
"|.	c #868686",
"1.	c #8B8B8B",
"2.	c #9C9C9C",
"3.	c #A9A9A9",
"4.	c #8D8D8D",
"5.	c #8A8A8A",
"6.	c #616161",
"7.	c #D8D8D8",
"8.	c #B9B9B9",
"9.	c #333333",
"0.	c #303030",
"a.	c #969696",
"b.	c #202020",
"c.	c #717171",
"d.	c #5E5E5E",
"e.	c #898989",
"f.	c #777777",
"g.	c #6D6D6D",
"h.	c #1F1F1F",
"i.	c #606060",
"j.	c #D2D2D2",
"k.	c #787878",
"l.	c #747474",
"m.	c #C8C8C8",
"n.	c #888888",
"o.	c #7E7E7E",
"p.	c #111111",
"q.	c #373737",
"r.	c #636363",
"s.	c #535353",
"t.	c #E9E9E9",
"u.	c #646464",
"v.	c #F2F2F2",
"w.	c #4B4B4B",
"x.	c #6E6E6E",
"y.	c #6C6C6C",
"z.	c #8C8C8C",
"A.	c #464646",
"B.	c #828282",
"C.	c #E8E8E8",
"D.	c #272727",
"E.	c #8F8F8F",
"F.	c #7A7A7A",
"G.	c #3A3A3A",
"H.	c #F4F4F4",
"I.	c #FAFAFA",
"J.	c #8E8E8E",
"K.	c #222222",
"L.	c #BDBDBD",
"M.	c #F1F1F1",
"N.	c #797979",
"O.	c #707070",
"P.	c #020202",
"Q.	c #000000",
"R.	c #959595",
"S.	c #FFFFFF",
"T.	c #CCCCCC",
"U.	c #090909",
"V.	c #313131",
"W.	c #141414",
"X.	c #686868",
"Y.	c #D7D7D7",
"Z.	c #232323",
"`.	c #696969",
" +	c #A1A1A1",
".+	c #FBFBFB",
"++	c #101010",
"@+	c #525252",
"#+	c #4F4F4F",
"$+	c #030303",
"%+	c #434343",
"&+	c #CDCDCD",
"*+	c #292929",
"=+	c #FDFDFD",
"-+	c #595959",
";+	c #1D1D1D",
">+	c #949494",
",+	c #B4B4B4",
"'+	c #131313",
")+	c #181818",
"!+	c #CECECE",
"~+	c #0E0E0E",
"{+	c #FEFEFE",
"]+	c #070707",
"^+	c #0F0F0F",
"/+	c #585858",
"(+	c #2E2E2E",
"_+	c #252525",
":+	c #121212",
"<+	c #4C4C4C",
"[+	c #0D0D0D",
"}+	c #050505",
"|+	c #565656",
"1+	c #060606",
"2+	c #040404",
"3+	c #080808",
"4+	c #1E1E1E",
"5+	c #3E3E3E",
"6+	c #EDEDED",
"7+	c #1B1B1B",
"8+	c #626262",
"9+	c #191919",
"0+	c #161616",
"a+	c #676767",
"b+	c #010101",
"c+	c #242424",
"d+	c #1C1C1C",
"e+	c #0C0C0C",
"f+	c #414141",
"g+	c #282828",
"h+	c #6A6A6A",
"i+	c #5F5F5F",
"j+	c #0B0B0B",
"k+	c #171717",
"l+	c #5C5C5C",
"m+	c #505050",
"n+	c #151515",
"o+	c #0A0A0A",
"                                                                                                ",
"                                                    .                                           ",
"                                      +             .                                           ",
"                                      @             .               #                           ",
"                      $ %               &           *               =                           ",
"                        -               ;           -             >                             ",
"                          #                       , -             '                             ",
"                                                  , @           )                     !         ",
"                            =                                   ~                   ,           ",
"                                                                                  ,             ",
"                                                                                {               ",
"        $                       ] ^ / ( _ : ^ < _ [ } | 1                     2                 ",
"          3 4           5 6 7 8 9 0 a b c d e f g 0 h i j k l m n                               ",
"              o p     q r 9 s d t u v w w x y z s A B C 0 h D j [ E F G                         ",
"                      H I J B B K L M N z g D 9 G : O 9 i P P i O | 1 Q ] ^                     ",
"                      ^ R S T U V W D ^ [ X F k 8 8 k Y [ < ^ ^ Z Z Z < `  ...                  ",
"                    5 +.+.W T @.#.$.@.%.&.*.=.-.} ;.2 >.,.'.8 ).] X 1 !.~.D {.].^./.            ",
"                    X t K M R e (.Q *._.:.                <.[.}.|.( 1.2.3.G 1.4.5.6.4           ",
"                    G S @.7.c 8.: ] < Q ,                       Y 9.0.:.X f F 1.5 '.^.          ",
"                    ^ w A e P : _ F ( a./ b.                    c.d. . .~.2.0 e.:.}.f.2         ",
"                     .I j | X ` 2. .g.4./ h.                    i.&.K 5 *.j.3.5 7 k.l.;.        ",
"                    g m.A  .n.c.o.E p.q.].r.                    >.s.t.u.8 v.1.].o.E m w.        ",
"                    r k X n _.x.m H   y.*.z.A.' 3 *.r r ].:.B.'.5 2 C.D.E.{.|.7 F.l.q G.        ",
"                    o H.I.t E.J.r.K.    E L. .z.} ~.~.y M.I O e.e.% o.= }.7 %.N.( =.O.;.        ",
"            P.Q.      w P 5 -.          1.M R. .^ a.S.< T.U 5.L.a.>.( U.4 k.E c.x.g.=...        ",
"        Q.V.                            l J.-.I.F.W.S.X.9 g Q.3 Y.d.Z.S N ,.H r.`.[.c.#         ",
"        Q.  Q.Q.                        *.J.2.H A  +W H ].@.8 9 .+f.++0.f.@+( y.X.x.( #+        ",
"        K.Q.Q.$+%+                      c.&+X *+=+-.-+{ ;+N.e % >+,+'+    { k.( q ( k.{         ",
"      Q.Q.Q.Q.Q..                       ( M.S.S.R Q.)+e ' Q.n.9.}.!+V.      G.( o.x.+           ",
"      Q.                              >./ -+#+L F.~+i i  .Q.a {+{+1 #+        ~ A.*             ",
"      ]+  ^+Q.                        ;  +A s.L B.* |.@ 0.> t {+{+k /+)+        (+              ",
"      = _+G.'+Q.                      :+n I.x D | [.Q.Q.q.-.a {+{+k *.3 ).    <+U.              ",
"      [+* -+U.                  ^+P.  b.|.M.g.}+{+T @.@.L./+@+u.I.A | |+%.  1+# Y.{             ",
"      2+D.3+                    Q.}+  > 4.a '.Y j V +.4+B.5+x < 2.J.} n <+  ~  .{     . &.p.    ",
"    Q.1+                        ]+~+1+x.4.I Y T b w 6+G.,+|.h 4.| e.|.D F.0.+ (+    K.} F ;+    ",
"    Q.                  }+.     b.7+*+k.4.4.} u -.R {+I.t.} z.5.r B.o.Q [ r. .~+N.|+o W.U.      ",
"    Q.    9._+..          w.p.* D.  8+] z.4.4.4.e.#.0 z.z.1.e.:.o.( O.7 N.c.        }+          ",
"    Q.    $+^.<+  9+      ]+0+4+    4.E.e.z.4.4.4.n.{.-.} 5 7 *.q [.a+a+y...        b+          ",
"          c+c+Q.  s.d+      p.    q.f.|.E.} -.e.:.,.R 7.@.a.=.l.y.H 8+u.i.5+:+e+y.( /.c+y.      ",
"        Q.Q.      &.2     1+>   + f+[ f n 2.k B.F.N.k.f.f.k.( c.[.&.u.8+a+q.    9+]+]+c+b Q     ",
"        Q.        g+c+    1+      /+9 ).h+g.[.[.x.O.O.c.q l.E q x.g.a+i+( @+    P.U.  Q.- 3 9+  ",
"                  /.j+:++         > a.).u.^.u.i.d.&.&.h+l.l.O.g.&.8+u.q 5 ~+    Q.b..   2+Q.    ",
"          k+~+^+9+h.              l.'.s O.,.d.-+&.X.l+s.$ 6 *+* V.' m+& n+7+                    ",
"            ]+:+o+                  > 3.).l a+,.@+~ V.D.c+          p.b+P.                      ",
"                                    j+% &...y.@ 9.                                              ",
"                                      k+q.6 D.:+                                                ",
"                                        P.b.                                                    ",
"                                                                                                "};
