/* XPM */
static char *ksimus[] = {
/* columns rows colors chars-per-pixel */
"32 32 9 1",
"  c gray19",
". c #585858",
"X c red",
"o c green",
"O c blue",
"+ c #808080",
"@ c #A0A0A0",
"# c gray100",
"$ c None",
/* pixels */
"$$$$$$$$$$$$$$$$$$$$$$$$$$$$$$$$",
"$$$$$$$$$$$$$$$$$$$$$$$$$$$$$$$$",
"$$$@@@@@@@@@@@@@@@@@@@@@@@@@@$$$",
"$@@@++++++++++++++++++++++++++@$",
"$@@+..........................+$",
"@@+.                         ...",
"@+.   ##$#########$#######@@+   ",
"@+.  ########$#########$###@@+  ",
"@+. ####$#XXXXXXXX$#########@+. ",
"@+. ######X##$###X#####$####@+. ",
"@+. $#$#$#X#$#$#$X$#$#$#$#$#@+. ",
"@+. ######X##$###X#####$####@+. ",
"@+. ####$#X######X$#########@+. ",
"@+. ######X##$###X#####$####@+. ",
"@+. XXXXXXX######XXXXXXXXXXX@+. ",
"@+. #$#$#$#$#$#$#$#$#$#$#$#$@+. ",
"@+. ####$#########$#########@+. ",
"@+. #########$#########$####@+. ",
"@+. OOOOOOOOOOOO##$#OOOOOOOO@+. ",
"@+. #########$#O####O##$####@+. ",
"@+. ####$######O##$#O#######@+. ",
"@+. #$#$#$#$#$#O#$#$O$#$#$#$@+. ",
"@+. ####$######O##$#O#######@+. ",
"@+. #########$#O####O##$####@+. ",
"@+. +###$######OOOOOO######@@+. ",
"@+. +@#######$#########$##@@++. ",
"@++. @@@@@@@@@@@@@@@@@@@@@@++.  ",
"$++.. ++++++++++++$$++oo++++.. $",
"$++... .....................   $",
"$$$.                         $$$",
"$$$$$$$$$$$$$$$$$$$$$$$$$$$$$$$$",
"$$$$$$$$$$$$$$$$$$$$$$$$$$$$$$$$"
};
