/* XPM */
static char *lbreakout2[] = {
/* columns rows colors chars-per-pixel */
"32 32 45 1",
"  c black",
". c #161616",
"X c gray11",
"o c #330000",
"O c #222222",
"+ c gray16",
"@ c gray20",
"# c #393939",
"$ c #336633",
"% c #660000",
"& c #663300",
"* c #663333",
"= c #666633",
"- c gray26",
"; c gray30",
": c #555555",
"> c #5F5F5F",
", c gray40",
"< c #777777",
"1 c #669966",
"2 c #66CC99",
"3 c #800000",
"4 c #993333",
"5 c #996633",
"6 c #996666",
"7 c #CC3333",
"8 c #CC6633",
"9 c #CC6666",
"0 c #999966",
"q c #CC9966",
"w c #ADA990",
"e c #B2B2B2",
"r c #99CC99",
"t c #CC9999",
"y c #CCCC99",
"u c #C0C0C0",
"i c gray80",
"p c #C0DCC0",
"a c #CCFFCC",
"s c #EFD6C6",
"d c #E7E7D6",
"f c #FFFFCC",
"g c #EAEAEA",
"h c gray100",
"j c None",
/* pixels */
"jjjjjjjjjjjjjjjjjjjjjjjjjjjjjjjj",
"jjjjjjjjjjjjjjjjjjjjjjj111$jjjjj",
"jjjjjjjjjjjjjjjjjjjjjj11rr1>jjjj",
"jjjjjjjjjjjjjjjjjjjjj1rrrar1:jjj",
"jjjjjjjjjjjjjjjjjjjj1rragpr1:+jj",
"jjjjjjjjjjjjjjjjjjjj12pahr1>$Xjj",
"jjjjjjjjjjjjjjjjjjjj1rpdp21$@Xjj",
"jjjjjjjjjjjjjjjjjjjj>,2r11$@+.jj",
"jjjjjjjjjjjjjjjjjjjjj:,1,$@OXjjj",
"jjjjjjjjjjjjjjjjjjjjjj$$#+OOjjjj",
"jjjjjjjjjjjjjjjjjjjjjjj+OOOjjjjj",
"jjjjjjjjjjjjjjjjjjjjjjjjjjjjjjjj",
"jjjjjjjjjjjjjjjjjjjjjjjjjjjjjjjj",
"jjjjjjjjjjjjjjjjjjjjjjjjjjjjjjjj",
"jjjjjjjjjjjjjjjjjjjjjjjjjjjjjjjj",
"jjjjjjjjjjjjjjjjjjjjjjjjjjjjjjjj",
"jjjjjjjjjjjjjjjjjjjjjjjjjjjjjjjj",
"jjjjjjjjjjjjjjjjjjjjjjjjjjjjjjjj",
"jjjjjjjjjjjjjjjjjjjjjjjjjjjjjjjj",
"jjjjjjjjjjjjjjjjjjjjjjjjjjjjjjjj",
"jjjjjjjjjjjjjjjjjjjjjjjjjjjjjjjj",
"jjjjjjjjjjjjjjjjjjjjjjjjjjjjjjjj",
"jjjj&444:,<<<<<<<<<,=,>:&*4%jjjj",
"jjj*9tt60wyyyyyyyyyyyyy069943jjj",
"jj59uiieysffffffffffffsyeiuq4*jj",
"jj0tiiieysffffffffffffsyeit985jj",
"jj09tttqwyyyyyyyyyyyyyywwtq985jj",
"jj6889950wywwwwwwwwwwww059874*jj",
"jj*44444=00000000000000,4444%Xjj",
"jj+%&3&&*;=>>>>=>=>>=:;-%%%%ojjj",
"jjj%oooo+@@@#@@@@@@@@++Xoooojjjj",
"jjjjjjjjjjjjjjjjjjjjjjjjjjjjjjjj"
};
