/* XPM */
static char * lletters_xpm[] = {
"32 32 232 2",
"  	c None",
". 	c #017217",
"+ 	c #006B15",
"@ 	c #00480F",
"# 	c #001805",
"$ 	c #01320B",
"% 	c #024910",
"& 	c #016C16",
"* 	c #FF0505",
"= 	c #00410D",
"- 	c #010A04",
"; 	c #010102",
"> 	c #0B0A0A",
", 	c #181B16",
"' 	c #02440F",
") 	c #006D16",
"! 	c #02126D",
"~ 	c #005C12",
"{ 	c #001605",
"] 	c #020203",
"^ 	c #0A0A0A",
"/ 	c #171614",
"( 	c #031307",
"_ 	c #005210",
": 	c #015411",
"< 	c #142016",
"[ 	c #1B1B1A",
"} 	c #302F2D",
"| 	c #272624",
"1 	c #020804",
"2 	c #00350B",
"3 	c #055916",
"4 	c #4A564B",
"5 	c #6A6760",
"6 	c #4B483E",
"7 	c #807F7A",
"8 	c #73726F",
"9 	c #0A0C0B",
"0 	c #001104",
"a 	c #056016",
"b 	c #47513A",
"c 	c #8C7229",
"d 	c #A68A29",
"e 	c #877838",
"f 	c #777055",
"g 	c #0D0D0C",
"h 	c #000001",
"i 	c #065A12",
"j 	c #605415",
"k 	c #DAAA0F",
"l 	c #EAC319",
"m 	c #DCB81A",
"n 	c #A3831D",
"o 	c #100E08",
"p 	c #040404",
"q 	c #544829",
"r 	c #C39D28",
"s 	c #CDA41D",
"t 	c #C8A33C",
"u 	c #A99561",
"v 	c #2A2825",
"w 	c #1A1918",
"x 	c #181717",
"y 	c #7F7E7B",
"z 	c #BDB092",
"A 	c #BDAA7C",
"B 	c #D6CEB9",
"C 	c #E1E0DC",
"D 	c #555554",
"E 	c #0C0C0C",
"F 	c #444343",
"G 	c #D3D3D1",
"H 	c #E8E8E5",
"I 	c #E7E6E3",
"J 	c #F6F5F3",
"K 	c #F7F7F5",
"L 	c #A1A1A0",
"M 	c #131314",
"N 	c #636261",
"O 	c #E8E7E5",
"P 	c #F4F4F2",
"Q 	c #F5F5F3",
"R 	c #F6F6F4",
"S 	c #E9E9E6",
"T 	c #B8B8B5",
"U 	c #30302F",
"V 	c #050506",
"W 	c #F49016",
"X 	c #262525",
"Y 	c #B1B1AF",
"Z 	c #F9F9F7",
"` 	c #FAFAF8",
" .	c #F8F8F6",
"..	c #E8E8E6",
"+.	c #929190",
"@.	c #1E1D1B",
"#.	c #080808",
"$.	c #EB8A15",
"%.	c #100F0E",
"&.	c #656563",
"*.	c #E5E5E3",
"=.	c #FBFBF9",
"-.	c #D1D0CF",
";.	c #3E3D3A",
">.	c #0E0E0D",
",.	c #E18514",
"'.	c #21201F",
").	c #A6A6A4",
"!.	c #E3E3E1",
"~.	c #4F4E4E",
"{.	c #0C0C0B",
"].	c #A5610F",
"^.	c #F38F16",
"/.	c #2F2E2B",
"(.	c #C6C6C4",
"_.	c #F2EEF0",
":.	c #E2D6DF",
"<.	c #E2D2E0",
"[.	c #E4D5E2",
"}.	c #EDE3EA",
"|.	c #F9F8F7",
"1.	c #E6E5E3",
"2.	c #585856",
"3.	c #0D0C0C",
"4.	c #030304",
"5.	c #190F03",
"6.	c #423204",
"7.	c #665525",
"8.	c #C1BEB6",
"9.	c #E5D8E2",
"0.	c #A3689E",
"a.	c #802C79",
"b.	c #9C5B97",
"c.	c #995694",
"d.	c #85357F",
"e.	c #C097BA",
"f.	c #DDD2BE",
"g.	c #545041",
"h.	c #0C0C0A",
"i.	c #110F0B",
"j.	c #F39016",
"k.	c #C19308",
"l.	c #D1A20F",
"m.	c #8F7D45",
"n.	c #803B77",
"o.	c #6A0663",
"p.	c #9D5D98",
"q.	c #F1EAEE",
"r.	c #E1CFDE",
"s.	c #7E2877",
"t.	c #711369",
"u.	c #BE8D4A",
"v.	c #604C10",
"w.	c #151005",
"x.	c #4C3B0A",
"y.	c #7C5F09",
"z.	c #B08308",
"A.	c #DFAA0A",
"B.	c #EEB70B",
"C.	c #EFB90B",
"D.	c #B18A0E",
"E.	c #691450",
"F.	c #6B0A64",
"G.	c #DECBDB",
"H.	c #E2D1DF",
"I.	c #7E2878",
"J.	c #680361",
"K.	c #A76139",
"L.	c #A67A09",
"M.	c #805D07",
"N.	c #BC8E0A",
"O.	c #BE9109",
"P.	c #BD8D08",
"Q.	c #F0B90B",
"R.	c #F2BC0B",
"S.	c #F2BB0B",
"T.	c #E9B40B",
"U.	c #89611B",
"V.	c #7C6170",
"W.	c #F2F1F0",
"X.	c #BD93B9",
"Y.	c #6C0965",
"Z.	c #680460",
"`.	c #AE6D29",
" +	c #E6AF0B",
".+	c #E7A40D",
"++	c #F19613",
"@+	c #E5A40D",
"#+	c #D1A00A",
"$+	c #C69409",
"%+	c #F0B80B",
"&+	c #D9AB19",
"*+	c #C1B28A",
"=+	c #E5E4E1",
"-+	c #D6C5D3",
";+	c #791F72",
">+	c #5D0C4C",
",+	c #B07B13",
"'+	c #EFB80B",
")+	c #F3A211",
"!+	c #EE9C12",
"~+	c #C59609",
"{+	c #AE7F09",
"]+	c #CE9B0A",
"^+	c #E0AA0A",
"/+	c #E9B20B",
"(+	c #DEA80B",
"_+	c #84641D",
":+	c #63415C",
"<+	c #6B1465",
"[+	c #62035C",
"}+	c #42033E",
"|+	c #29150F",
"1+	c #A87B08",
"2+	c #EBB40B",
"3+	c #E9AA0C",
"4+	c #E38C12",
"5+	c #EE8D15",
"6+	c #EB8C15",
"7+	c #A07307",
"8+	c #BC8908",
"9+	c #A6720D",
"0+	c #69292F",
"a+	c #610559",
"b+	c #5B0355",
"c+	c #261A04",
"d+	c #835C06",
"e+	c #BD8908",
"f+	c #A97A07",
"g+	c #601344",
"h+	c #67035F",
"i+	c #634305",
"                              .                                 ",
"                          . . .                                 ",
"                          . . .                                 ",
"                          . .                                   ",
"                          . .     . . .                         ",
"                          + @ # $ % & .                         ",
"            * * *         = - ; > , ' )           ! ! !         ",
"        * *   * * *     ~ { ] ; ^ / ( _       ! !     ! !       ",
"      * *     * * *     : < [ ^ } | 1 2       ! !               ",
"    * *       * *       3 4 5 6 7 8 9 0     ! !                 ",
"    * *     * * *       a b c d e f g h     ! !                 ",
"    * *     * * *       i j k l m n o p     ! !                 ",
"  * *     * * *           q r s t u v w     ! !                 ",
"  * * * * * * * * *     x y z A B C D E     ! ! ! ! !           ",
"  * * *       * *       F G H I J K L M ]                       ",
"          ! !         ] N O P Q R S T U V ]       W W W W       ",
"      ! ! ! !         X Y R Z ` `  ...+.@.#.; $.W W     W W     ",
"        ! ! !       %.&.*.Z  .` =.=.` -.;.>.] ,.W       W W     ",
"        ! ! !       '.).Q  .P ` =.=.=.!.~.{.p ].^.      W W     ",
"        ! !         /.(. ._.:.<.[.}.|.1.2.3.4.5.      W W       ",
"        ! !       6.7.8.9.0.a.b.c.d.e.f.g.h.i.  j.  W W         ",
"        ! !       k.l.m.n.o.p.q.r.s.t.u.v.w.x.y.      W W       ",
"      ! ! !   z.A.B.C.D.E.F.G.` H.I.J.K.L.M.N.O.      W W       ",
"      ! ! !   P.Q.R.S.T.U.V.W.` X.Y.Z.`. +.+++@+#+    W W       ",
"      ! !     $+%+S.R.S.&+*+=+-+;+J.>+,+'+)+W !+~+  W W W       ",
"    ! ! !     {+]+^+/+B.(+_+:+<+[+}+|+1+2+3+4+5+6+  W W         ",
"                    7+8+9+0+a+b+    c+d+e+f+                    ",
"                        g+h+            i+                      ",
"                      J.J.        J.                            ",
"                      J.J.J.J.J.J.J.                            ",
"                    J.J.J.J.J.J.J.J.                            ",
"                                                                "};
