/* XPM */
static char * lmarbles_xpm[] = {
"32 32 13 1",
" 	c None",
".	c #000000",
"+	c #191919",
"@	c #333333",
"#	c #0000FF",
"$	c #00007F",
"%	c #666667",
"&	c #4C4C4C",
"*	c #B2B2B2",
"=	c #999999",
"-	c #CCCCCC",
";	c #E5E5E5",
">	c #7F7F7F",
"                                ",
"                                ",
"               .+               ",
"             +@##+$             ",
"            +####@#+            ",
"           +$#####$+.           ",
"           .######+$+           ",
"           +$#####$+.           ",
"            +#@#@$++            ",
"             +$+$+.             ",
"             +$+$+.             ",
"     .+.       .+       .+.     ",
"    +##+.    .+%&+.    +$#+.    ",
"   +#####+. .**==%&. ++$###$+   ",
"   +$####++ .**-*%@+ .#####+$   ",
"  +$#####$.+%*;*=%&++#######+.  ",
"  +#####@$+.%=*=>&&++$#####+$+  ",
"   $#####+. .%%%&@@. $@##@#$+   ",
"   ++#@+$++ .@&&@+++ +$#+#++$   ",
"    .+$+.    +.+++.    ++$+.    ",
"     +.+       +.       +.+     ",
"             .+$$+.             ",
"             #+#+#+             ",
"            +$####$.            ",
"           .######++.           ",
"           +######$$+           ",
"           +$####+++.           ",
"            ++$$#+$.            ",
"             ++++++             ",
"               .+               ",
"                                ",
"                                "};
