/* XPM */
static char * logo_cp_48x48_xpm[] = {
"48 48 918 2",
"  	c None",
". 	c #372A00",
"+ 	c #674E00",
"@ 	c #654C01",
"# 	c #4F3C01",
"$ 	c #332600",
"% 	c #3C2D00",
"& 	c #AA8408",
"* 	c #AB9338",
"= 	c #CCBC7F",
"- 	c #C0B48A",
"; 	c #937A2B",
"> 	c #604901",
", 	c #291F00",
"' 	c #AF8502",
") 	c #BBAA5E",
"! 	c #FAEB9A",
"~ 	c #FFEC9D",
"{ 	c #FFF9E7",
"] 	c #E1D09C",
"^ 	c #C39A18",
"/ 	c #7A5D01",
"( 	c #544000",
"_ 	c #9E7C11",
": 	c #F0DE8A",
"< 	c #FFE584",
"[ 	c #FEDD71",
"} 	c #EBD593",
"| 	c #F5E6BE",
"1 	c #AC8D34",
"2 	c #E2B936",
"3 	c #5F4801",
"4 	c #493800",
"5 	c #99780D",
"6 	c #E5CB6E",
"7 	c #FFDB6A",
"8 	c #DDB94D",
"9 	c #F1C348",
"0 	c #E6C46D",
"a 	c #B79A44",
"b 	c #FDE59A",
"c 	c #B5901D",
"d 	c #2D2200",
"e 	c #302400",
"f 	c #382B02",
"g 	c #382C06",
"h 	c #2C2100",
"i 	c #916E00",
"j 	c #BE9411",
"k 	c #BA972F",
"l 	c #C69E30",
"m 	c #C69D31",
"n 	c #BEA14C",
"o 	c #F0DDA1",
"p 	c #FFEDB4",
"q 	c #F9D35B",
"r 	c #6F5606",
"s 	c #644C00",
"t 	c #8E7111",
"u 	c #BBA65F",
"v 	c #C1B179",
"w 	c #B29434",
"x 	c #957102",
"y 	c #6B5200",
"z 	c #201800",
"A 	c #281F00",
"B 	c #CEA00E",
"C 	c #ECC754",
"D 	c #E0C676",
"E 	c #ECD58F",
"F 	c #FCE8AC",
"G 	c #FFECB1",
"H 	c #FFEAA8",
"I 	c #FFE182",
"J 	c #CAA01B",
"K 	c #0D0A00",
"L 	c #574300",
"M 	c #B69116",
"N 	c #D1BF6E",
"O 	c #F4E7AD",
"P 	c #FDF8E8",
"Q 	c #EEE0B5",
"R 	c #BD941C",
"S 	c #DBAA0E",
"T 	c #A47E07",
"U 	c #161100",
"V 	c #5D4806",
"W 	c #EBC652",
"X 	c #FFEBAC",
"Y 	c #FFEBAE",
"Z 	c #FFE9A6",
"` 	c #FFE79F",
" .	c #FFE696",
"..	c #FFE38B",
"+.	c #FACC3B",
"@.	c #4D3B00",
"#.	c #987403",
"$.	c #CCB24F",
"%.	c #F9E68F",
"&.	c #FEE078",
"*.	c #F4D67A",
"=.	c #F7E8C0",
"-.	c #D0B366",
";.	c #D0B563",
">.	c #FFE38C",
",.	c #B99215",
"'.	c #392B01",
").	c #8B6B07",
"!.	c #F6D363",
"~.	c #FFE698",
"{.	c #FFE491",
"].	c #FFE289",
"^.	c #FFE080",
"/.	c #FFDE78",
"(.	c #FFD85F",
"_.	c #AB8303",
":.	c #7C6007",
"<.	c #CCB355",
"[.	c #FEE380",
"}.	c #F8D261",
"|.	c #E2B843",
"1.	c #F0C043",
"2.	c #C09F45",
"3.	c #EBD17F",
"4.	c #FFF0C4",
"5.	c #FADA78",
"6.	c #B38E19",
"7.	c #3B2D00",
"8.	c #CB9F16",
"9.	c #FFE07E",
"0.	c #FFDE77",
"a.	c #FFDC6E",
"b.	c #FFDA66",
"c.	c #FFD85D",
"d.	c #D3A513",
"e.	c #413200",
"f.	c #403103",
"g.	c #A38627",
"h.	c #D5B755",
"i.	c #E8BE49",
"j.	c #BE952A",
"k.	c #B68B15",
"l.	c #E3C057",
"m.	c #FEEAAB",
"n.	c #FFECB3",
"o.	c #F9D563",
"p.	c #A9840E",
"q.	c #0A0800",
"r.	c #745800",
"s.	c #FECE35",
"t.	c #FFDB69",
"u.	c #FFD965",
"v.	c #FFD75C",
"w.	c #FFD554",
"x.	c #FFD44D",
"y.	c #F0BE23",
"z.	c #705500",
"A.	c #6D5300",
"B.	c #BF9101",
"C.	c #C19818",
"D.	c #DBB644",
"E.	c #FBDD7E",
"F.	c #FFE8A2",
"G.	c #FFE69B",
"H.	c #FFE594",
"I.	c #FFE38D",
"J.	c #FFD54F",
"K.	c #896904",
"L.	c #090600",
"M.	c #CD9D07",
"N.	c #FFCE36",
"O.	c #FFD246",
"P.	c #FFD13E",
"Q.	c #FFCF37",
"R.	c #FFCA24",
"S.	c #A57E03",
"T.	c #DAB02E",
"U.	c #FEDD75",
"V.	c #FFE597",
"W.	c #FFE48E",
"X.	c #FFE287",
"Y.	c #FFDF7A",
"Z.	c #FFDC6F",
"`.	c #E6B725",
" +	c #674F01",
".+	c #664D00",
"++	c #F2BC0F",
"@+	c #FFCE32",
"#+	c #FFCE34",
"$+	c #FFCC2C",
"%+	c #FFCA25",
"&+	c #FFC718",
"*+	c #D7A505",
"=+	c #3E2F00",
"-+	c #221900",
";+	c #3E2F01",
">+	c #4A3902",
",+	c #B68F15",
"'+	c #F9CF4B",
")+	c #FFDE7A",
"!+	c #FFDD73",
"~+	c #FFDC6C",
"{+	c #FED145",
"]+	c #C4980E",
"^+	c #312600",
"/+	c #302500",
"(+	c #BB8F01",
"_+	c #FFC610",
":+	c #FFCA21",
"<+	c #FFC81A",
"[+	c #FFC612",
"}+	c #FFC409",
"|+	c #F8BD02",
"1+	c #5B4500",
"2+	c #130E00",
"3+	c #7E630D",
"4+	c #BDA14B",
"5+	c #9C8845",
"6+	c #746633",
"7+	c #282109",
"8+	c #2E2300",
"9+	c #342800",
"0+	c #392B00",
"a+	c #6F5400",
"b+	c #DFB224",
"c+	c #FED451",
"d+	c #FFD75A",
"e+	c #FFD654",
"f+	c #FFD44E",
"g+	c #FFD248",
"h+	c #FFD140",
"i+	c #FFCA22",
"j+	c #A07A03",
"k+	c #0C0900",
"l+	c #775B00",
"m+	c #F4BA00",
"n+	c #FFC408",
"o+	c #FFC306",
"p+	c #FFC202",
"q+	c #FFC200",
"r+	c #A77F00",
"s+	c #483805",
"t+	c #C29E2C",
"u+	c #FDE7A2",
"v+	c #CFC6AA",
"w+	c #DAD7C2",
"x+	c #E0DFCB",
"y+	c #4E4D3C",
"z+	c #735700",
"A+	c #8E7112",
"B+	c #9E8840",
"C+	c #9E7F1D",
"D+	c #947204",
"E+	c #806100",
"F+	c #362900",
"G+	c #574302",
"H+	c #BF9613",
"I+	c #FACA33",
"J+	c #FFD03A",
"K+	c #FFC921",
"L+	c #F7BD06",
"M+	c #493700",
"N+	c #3A2C00",
"O+	c #DAA600",
"P+	c #E3AD00",
"Q+	c #140F00",
"R+	c #3D2F02",
"S+	c #C5A02D",
"T+	c #FDE28F",
"U+	c #EFE0B0",
"V+	c #C9BA8A",
"W+	c #F4EDD1",
"X+	c #B5B085",
"Y+	c #232115",
"Z+	c #715600",
"`+	c #CDA214",
" @	c #CFBF81",
".@	c #EBE7D7",
"+@	c #E6D7AB",
"@@	c #C29E38",
"#@	c #E2B21B",
"$@	c #C7A129",
"%@	c #705603",
"&@	c #161000",
"*@	c #B68C07",
"=@	c #FFC81D",
"-@	c #FFC91F",
";@	c #FFC818",
">@	c #FFC511",
",@	c #FFC305",
"'@	c #B48900",
")@	c #231B00",
"!@	c #B38800",
"~@	c #C39400",
"{@	c #8C6600",
"]@	c #7A5400",
"^@	c #815B00",
"/@	c #A17900",
"(@	c #DEA900",
"_@	c #816200",
":@	c #171100",
"<@	c #99770D",
"[@	c #FCD65F",
"}@	c #FFE699",
"|@	c #E6D193",
"1@	c #CEBB89",
"2@	c #FEE8A6",
"3@	c #64592E",
"4@	c #C09200",
"5@	c #BCA854",
"6@	c #FEEB92",
"7@	c #FFE282",
"8@	c #EDD799",
"9@	c #D4BC81",
"0@	c #E1B83B",
"a@	c #FFF3D0",
"b@	c #FCE189",
"c@	c #CEA82F",
"d@	c #483803",
"e@	c #141000",
"f@	c #AF8501",
"g@	c #F7BD08",
"h@	c #FFC304",
"i@	c #FFC201",
"j@	c #EEB500",
"k@	c #644B00",
"l@	c #342100",
"m@	c #653200",
"n@	c #743C00",
"o@	c #734500",
"p@	c #765000",
"q@	c #684800",
"r@	c #4E3900",
"s@	c #A17A00",
"t@	c #A67E00",
"u@	c #110C00",
"v@	c #EAB81A",
"w@	c #E2CB85",
"x@	c #C6AB69",
"y@	c #C39F42",
"z@	c #1E1702",
"A@	c #AD8400",
"B@	c #C4B162",
"C@	c #F6D261",
"D@	c #DEB138",
"E@	c #CB9D22",
"F@	c #EBC85C",
"G@	c #FFEFC0",
"H@	c #FFEEB9",
"I@	c #DCB63F",
"J@	c #7B5F09",
"K@	c #1C1500",
"L@	c #2E2200",
"M@	c #AD8300",
"N@	c #FABE00",
"O@	c #9D7700",
"P@	c #845C00",
"Q@	c #704400",
"R@	c #966B00",
"S@	c #D9A500",
"T@	c #F8BC00",
"U@	c #EAB200",
"V@	c #D8A400",
"W@	c #BF9100",
"X@	c #E9B100",
"Y@	c #BA8D00",
"Z@	c #271E00",
"`@	c #151000",
" #	c #F2BF1E",
".#	c #FFDA67",
"+#	c #FFDF7B",
"@#	c #E9CF7F",
"##	c #B58F33",
"$#	c #745608",
"%#	c #070500",
"&#	c #4E3C00",
"*#	c #A9903A",
"=#	c #EACD6B",
"-#	c #DBB64C",
";#	c #B68E1F",
">#	c #DAB33C",
",#	c #FBE293",
"'#	c #FFE9A5",
")#	c #FFE79E",
"!#	c #FFE083",
"~#	c #EEC545",
"{#	c #9E7A09",
"]#	c #3B2C00",
"^#	c #CE9C00",
"/#	c #FBBF00",
"(#	c #F1B700",
"_#	c #DAA500",
":#	c #F2B800",
"<#	c #EFB600",
"[#	c #765B07",
"}#	c #5D4F24",
"|#	c #5D4E24",
"1#	c #906E01",
"2#	c #EBB300",
"3#	c #FDC000",
"4#	c #947000",
"5#	c #E0B221",
"6#	c #FFD759",
"7#	c #FADC7F",
"8#	c #C8A748",
"9#	c #544004",
"0#	c #3F3001",
"a#	c #896903",
"b#	c #BA9009",
"c#	c #F7CB43",
"d#	c #FFE28A",
"e#	c #FFE183",
"f#	c #FFDF7D",
"g#	c #FFDE76",
"h#	c #FFDB6E",
"i#	c #FECF3C",
"j#	c #AC8304",
"k#	c #281E00",
"l#	c #E5AE00",
"m#	c #C39300",
"n#	c #655421",
"o#	c #9E9DA5",
"p#	c #C8C7CF",
"q#	c #C9C9D0",
"r#	c #8D8C91",
"s#	c #746023",
"t#	c #E5AF01",
"u#	c #695000",
"v#	c #BF9921",
"w#	c #FFD348",
"x#	c #FFD75B",
"y#	c #FFDC72",
"z#	c #FFD550",
"A#	c #594609",
"B#	c #604A03",
"C#	c #A48217",
"D#	c #E3B72C",
"E#	c #FDD146",
"F#	c #FFD85E",
"G#	c #FFD961",
"H#	c #FFD553",
"I#	c #FFD244",
"J#	c #F8C319",
"K#	c #AA8101",
"L#	c #251C00",
"M#	c #664800",
"N#	c #5B3C00",
"O#	c #CD9B00",
"P#	c #FCBF00",
"Q#	c #9E7A0A",
"R#	c #85817C",
"S#	c #A9AEA5",
"T#	c #B3BAAD",
"U#	c #D9DADB",
"V#	c #D4D4D9",
"W#	c #7C7A79",
"X#	c #B28A0C",
"Y#	c #FDC100",
"Z#	c #B58900",
"`#	c #A1811C",
" $	c #FFD963",
".$	c #614C0B",
"+$	c #261D00",
"@$	c #483701",
"#$	c #927006",
"$$	c #F5BF16",
"%$	c #FFCD2F",
"&$	c #FFD03D",
"*$	c #FFCD31",
"=$	c #FFCC2A",
"-$	c #FFC91C",
";$	c #F7BD05",
">$	c #775900",
",$	c #5E2E00",
"'$	c #6B3D00",
")$	c #D6A100",
"!$	c #F3B900",
"~$	c #876D1D",
"{$	c #6B775B",
"]$	c #74A835",
"^$	c #789D54",
"/$	c #98A985",
"($	c #E7E6EA",
"_$	c #A1A1A6",
":$	c #95781B",
"<$	c #F5BA00",
"[$	c #916F00",
"}$	c #A48215",
"|$	c #FFCC2B",
"1$	c #FFD655",
"2$	c #644F0C",
"3$	c #000000",
"4$	c #9F7900",
"5$	c #E1AD08",
"6$	c #FEC613",
"7$	c #FFC510",
"8$	c #FFC40B",
"9$	c #DAA601",
"0$	c #6E4300",
"a$	c #6F3F00",
"b$	c #976F00",
"c$	c #D8A500",
"d$	c #B48B09",
"e$	c #907317",
"f$	c #886D1B",
"g$	c #9D7B0F",
"h$	c #604B0A",
"i$	c #547C21",
"j$	c #24360F",
"k$	c #3C413A",
"l$	c #7C9661",
"m$	c #D6D7D9",
"n$	c #939295",
"o$	c #A38013",
"p$	c #332700",
"q$	c #EBB408",
"r$	c #FFCC2D",
"s$	c #FFCE31",
"t$	c #F0BD1D",
"u$	c #473705",
"v$	c #4C3A03",
"w$	c #584507",
"x$	c #6D5302",
"y$	c #806203",
"z$	c #775F13",
"A$	c #654F0E",
"B$	c #120E00",
"C$	c #4B3900",
"D$	c #BE9101",
"E$	c #FABE01",
"F$	c #AB7E00",
"G$	c #5A3300",
"H$	c #B28400",
"I$	c #CC9B00",
"J$	c #79631F",
"K$	c #6C6A6B",
"L$	c #7C7D85",
"M$	c #5B687B",
"N$	c #2E4762",
"O$	c #19232A",
"P$	c #374F1C",
"Q$	c #5B7347",
"R$	c #79896D",
"S$	c #8A9E73",
"T$	c #BBBBBE",
"U$	c #736849",
"V$	c #D4A103",
"W$	c #FFBF00",
"X$	c #FFC000",
"Y$	c #7C5E00",
"Z$	c #433200",
"`$	c #C49500",
" %	c #FFC40D",
".%	c #FFC716",
"+%	c #B98C00",
"@%	c #312500",
"#%	c #7F6101",
"$%	c #AE9E66",
"%%	c #D8C792",
"&%	c #CDAB49",
"*%	c #C99B0D",
"=%	c #F3D269",
"-%	c #E8D7A5",
";%	c #CAAE56",
">%	c #927315",
",%	c #2E2301",
"'%	c #997400",
")%	c #8E6600",
"!%	c #6D4D00",
"~%	c #E0AA00",
"{%	c #776121",
"]%	c #8A888C",
"^%	c #B4B5BE",
"/%	c #6385AB",
"(%	c #1F70CA",
"_%	c #296ECB",
":%	c #2E68B2",
"<%	c #172D3A",
"[%	c #32401F",
"}%	c #465337",
"|%	c #60665C",
"1%	c #645A3C",
"2%	c #B48908",
"3%	c #F8B204",
"4%	c #FFAE11",
"5%	c #FFAF10",
"6%	c #FFB905",
"7%	c #D19F00",
"8%	c #FFC303",
"9%	c #876700",
"0%	c #6B5100",
"a%	c #B19226",
"b%	c #FCEDAD",
"c%	c #FEEDB4",
"d%	c #F4E4B7",
"e%	c #D1AE4D",
"f%	c #EBC448",
"g%	c #FFEFBC",
"h%	c #FFF0C3",
"i%	c #F4CE56",
"j%	c #896C10",
"k%	c #2F2400",
"l%	c #B48800",
"m%	c #A8830C",
"n%	c #767476",
"o%	c #C6C5CD",
"p%	c #A7B5C7",
"q%	c #1C69BD",
"r%	c #043466",
"s%	c #0B0F16",
"t%	c #4D6694",
"u%	c #3D6DA8",
"v%	c #463914",
"w%	c #AF8500",
"x%	c #FFBA03",
"y%	c #FFA81D",
"z%	c #FF9C3D",
"A%	c #FF9B3F",
"B%	c #FFA329",
"C%	c #FFBA06",
"D%	c #6E5300",
"E%	c #7F6000",
"F%	c #BEA032",
"G%	c #FFE98D",
"H%	c #FAD668",
"I%	c #E7BA3F",
"J%	c #D09F1C",
"K%	c #EFC644",
"L%	c #FFE79D",
"M%	c #FFE48F",
"N%	c #FAD358",
"O%	c #C39A1B",
"P%	c #7F6102",
"Q%	c #8B6A00",
"R%	c #C69700",
"S%	c #7E671E",
"T%	c #9C9BA3",
"U%	c #D5D4DA",
"V%	c #A9B9CD",
"W%	c #2668BB",
"X%	c #0D203B",
"Y%	c #1C1C1D",
"Z%	c #7E89A0",
"`%	c #5484BD",
" &	c #5D543D",
".&	c #C99900",
"+&	c #FFB608",
"@&	c #FFA22D",
"#&	c #FF905E",
"$&	c #FF8C68",
"%&	c #FF964D",
"&&	c #FFAD18",
"*&	c #FFC001",
"=&	c #E8B100",
"-&	c #5D4600",
";&	c #BD940D",
">&	c #E1CB74",
",&	c #FBD664",
"'&	c #C49D32",
")&	c #D1A214",
"!&	c #FDD65C",
"~&	c #FFE181",
"{&	c #FFDE79",
"]&	c #FFDB6C",
"^&	c #FED146",
"/&	c #F4BE13",
"(&	c #FEC100",
"_&	c #BE9000",
":&	c #DDA800",
"<&	c #796424",
"[&	c #ACABB3",
"}&	c #DBDAE0",
"|&	c #C7CFD8",
"1&	c #4D7FBE",
"2&	c #456BAB",
"3&	c #4B5876",
"4&	c #87A2CD",
"5&	c #5B7FA7",
"6&	c #766E5E",
"7&	c #FFB708",
"8&	c #FFA130",
"9&	c #FF8B6D",
"0&	c #FF8286",
"a&	c #FF8D66",
"b&	c #FFA528",
"c&	c #FFBC05",
"d&	c #E6AF00",
"e&	c #624B00",
"f&	c #423200",
"g&	c #71580A",
"h&	c #7F640E",
"i&	c #A67F03",
"j&	c #CCA31F",
"k&	c #D1AB34",
"l&	c #DBB43A",
"m&	c #EAC140",
"n&	c #FACD40",
"o&	c #FFD03E",
"p&	c #FFCD30",
"q&	c #8D7118",
"r&	c #939298",
"s&	c #D9D8DE",
"t&	c #EBEBEE",
"u&	c #B7C1CD",
"v&	c #6790BD",
"w&	c #6F9ACD",
"x&	c #6D8DB1",
"y&	c #AAB0BB",
"z&	c #6C6141",
"A&	c #FFBC03",
"B&	c #FFA820",
"C&	c #FF9258",
"D&	c #FF8971",
"E&	c #FF8F60",
"F&	c #FFA42A",
"G&	c #FFBB06",
"H&	c #E4AD00",
"I&	c #604900",
"J&	c #1B1400",
"K&	c #503D01",
"L&	c #695106",
"M&	c #8A6C0C",
"N&	c #BF9512",
"O&	c #FBC312",
"P&	c #FFC50E",
"Q&	c #FFC203",
"R&	c #BF9306",
"S&	c #736C5E",
"T&	c #C6C6CC",
"U&	c #E3E3E7",
"V&	c #D8D8D9",
"W&	c #AFADAB",
"X&	c #9C9A98",
"Y&	c #A4A4AA",
"Z&	c #765C0E",
"`&	c #F7BC00",
" *	c #FFC100",
".*	c #FFB40C",
"+*	c #FF9F34",
"@*	c #FF9849",
"#*	c #FF9943",
"$*	c #FFAA1D",
"%*	c #E4AA03",
"&*	c #E0AB00",
"**	c #5A4400",
"=*	c #735701",
"-*	c #E0AA01",
";*	c #876B12",
">*	c #7C7977",
",*	c #A29886",
"'*	c #B68D3C",
")*	c #DB9D2C",
"!*	c #DC9D2D",
"~*	c #BA8C37",
"{*	c #645127",
"]*	c #DBA600",
"^*	c #FFB30F",
"/*	c #FFA81E",
"(*	c #FAB508",
"_*	c #916F01",
":*	c #B58A00",
"<*	c #D7A400",
"[*	c #473600",
"}*	c #A37C00",
"|*	c #8B6602",
"1*	c #E29712",
"2*	c #FFA426",
"3*	c #FF9E37",
"4*	c #FFA12D",
"5*	c #EE9B1B",
"6*	c #D69C04",
"7*	c #FCC000",
"8*	c #DCA905",
"9*	c #504319",
"0*	c #9B7807",
"a*	c #BC8F00",
"b*	c #221A00",
"c*	c #211A00",
"d*	c #977200",
"e*	c #EAB100",
"f*	c #DF9B09",
"g*	c #FFA328",
"h*	c #FF9A42",
"i*	c #FF9356",
"j*	c #FF915A",
"k*	c #FF964C",
"l*	c #FF9F35",
"m*	c #EEA112",
"n*	c #F4B601",
"o*	c #AC8D29",
"p*	c #6D6C67",
"q*	c #997810",
"r*	c #765A00",
"s*	c #9A7500",
"t*	c #E9AD01",
"u*	c #F4A512",
"v*	c #FF9D3A",
"w*	c #FF9259",
"x*	c #FF8875",
"y*	c #FF857C",
"z*	c #FF8D65",
"A*	c #FF9947",
"B*	c #FCA61F",
"C*	c #FAB605",
"D*	c #CA9901",
"E*	c #A8A494",
"F*	c #8F8F8F",
"G*	c #9D7A0B",
"H*	c #2B2100",
"I*	c #BB8E00",
"J*	c #F7B602",
"K*	c #FBA816",
"L*	c #FF8F61",
"M*	c #FF8382",
"N*	c #FF808C",
"O*	c #FF8A6E",
"P*	c #FFA622",
"Q*	c #FFB906",
"R*	c #F0B701",
"S*	c #BC9519",
"T*	c #A79F87",
"U*	c #F5F5F5",
"V*	c #797873",
"W*	c #EDB400",
"X*	c #594300",
"Y*	c #F6BB00",
"Z*	c #FEBE01",
"`*	c #FFAE10",
" =	c #FF9453",
".=	c #FF8B6B",
"+=	c #FF8A70",
"@=	c #FF905D",
"#=	c #FF9A41",
"$=	c #FBA71A",
"%=	c #FAB903",
"&=	c #CB9B03",
"*=	c #A78E40",
"==	c #BCB6A5",
"-=	c #F3F3F2",
";=	c #E0E0E0",
">=	c #5F5943",
",=	c #A98000",
"'=	c #FFB705",
")=	c #FF974A",
"!=	c #FF964E",
"~=	c #FEA22B",
"{=	c #D0900B",
"]=	c #F0B600",
"^=	c #ECB400",
"/=	c #A98104",
"(=	c #826D2A",
"_=	c #A79E83",
":=	c #E0DFDD",
"<=	c #FAFAFA",
"[=	c #FFFFFF",
"}=	c #A8A8A8",
"|=	c #5E4B0E",
"1=	c #E7B000",
"2=	c #E1AB00",
"3=	c #584300",
"4=	c #CD9C00",
"5=	c #FFB607",
"6=	c #FFAC16",
"7=	c #FFA621",
"8=	c #E89523",
"9=	c #C78119",
"0=	c #84590B",
"a=	c #50400B",
"b=	c #564C2A",
"c=	c #535860",
"d=	c #A1AABD",
"e=	c #DFE4EE",
"f=	c #FBFCFE",
"g=	c #F9F9F9",
"h=	c #CACACA",
"i=	c #3C3315",
"j=	c #B88C00",
"k=	c #967200",
"l=	c #6F5500",
"m=	c #EBB200",
"n=	c #FFBD02",
"o=	c #FFBA05",
"p=	c #A67705",
"q=	c #543E02",
"r=	c #101113",
"s=	c #2F3645",
"t=	c #6C7587",
"u=	c #D8DFEC",
"v=	c #F7F8FB",
"w=	c #D1D1D1",
"x=	c #8F8E8D",
"y=	c #544B2D",
"z=	c #AA8100",
"A=	c #F4B900",
"B=	c #795C00",
"C=	c #C59600",
"D=	c #A47D00",
"E=	c #7A600D",
"F=	c #695C30",
"G=	c #766F57",
"H=	c #77705A",
"I=	c #6C634A",
"J=	c #71602A",
"K=	c #93730D",
"L=	c #CC9B01",
"M=	c #9E7800",
"N=	c #382A00",
"O=	c #B78B00",
"P=	c #D2A000",
"Q=	c #8D6B00",
"R=	c #070600",
"S=	c #4C3A00",
"T=	c #5F4800",
"U=	c #6E5400",
"V=	c #826300",
"W=	c #A57E00",
"X=	c #CF9E00",
"Y=	c #403100",
"                                                                                                ",
"                                    . + @ # $                                                   ",
"                                  % & * = - ; >                                                 ",
"                                , ' ) ! ~ { ] ^ /                                               ",
"                                ( _ : < [ } | 1 2 3                                             ",
"                                4 5 6 7 8 9 0 a b c d                                           ",
"                e f g f h         i j k l m n o p q r                                           ",
"              s t u v w x y z     A B C D E F G H I J K                                         ",
"            L M N O P Q R S T U     V W X Y Z `  ...+.@.                                        ",
"            #.$.%.&.*.=.-.;.>.,.'.    ).!.~.{.].^./.(._.                                        ",
"            :.<.[.}.|.1.2.3.4.5.6..   7.8./.9.0.a.b.c.d.e.                                      ",
"            f.g.h.i.j.k.l.m.n.Z o.p.q.  r.s.t.u.v.w.x.y.z.                                      ",
"              A.B.C.D.E.H F.G.H.I.J.K.  L.M.N.x.O.P.Q.R.S.                                      ",
"                + T.U.V.H.W.X.^.Y.Z.`. +  .+++@+#+$+%+&+*+=+                          -+;+,     ",
"                  >+,+'+9.)+!+~+b.(.{+]+^+/+(+_+:+<+[+}+|+1+                      2+3+4+5+6+7+  ",
"        8+9+0+8+    2+a+b+c+d+e+f+g+h+i+j+k+l+m+n+o+p+q+q+r+                    s+t+u+v+w+x+y+  ",
"      z+A+B+C+D+E+F+    G+H+I+h+J+#+$+K+L+M+N+O+q+q+q+q+q+P+Q+                R+S+T+U+V+W+X+Y+  ",
"    Z+`+ @.@+@@@#@$@%@&@  % *@=@%+-@;@>@,@'@)@!@~@{@]@^@/@(@_@:@              <@[@}@|@1@2@3@    ",
"  )@4@5@6@7@8@9@0@a@b@c@d@  e@f@g@n+h@i@q+j@k@l@m@n@o@p@q@r@s@t@N+          u@v@Z.].w@x@y@z@    ",
"    A@B@< C@D@E@F@G@H@~.I@J@K@L@M@N@q+q+q+j@O@P@Q@R@S@T@U@V@W@X@Y@Z@        `@ #.#+#@###$#%#    ",
"    &#*#=#-#;#>#,#'#)#~.!#~#{#k+]#^#q+q+q+/#m+(#_#:#<#[#}#|#1#2#3#4#        k+5#6#~+7#8#9#      ",
"      0#a#b#c#9.d#e#f#g#h#.#i#j#k#N+l#Y@m#q+q+q+q+(@n#o#p#q#r#s#t#U@u#        v#w#x#y#z#A#      ",
"        , B#C#D#E#F#G#x#H#x.I#J#K#L#M#N#O#q+q+q+P#Q#R#S#T#U#V#W#X#Y#Z#e       `#J+x. $x..$      ",
"            +$@$#$$$%$&$Q.*$=$-$;$>$,$'$)$q+q+q+!$~${$]$^$/$($_$:$q+<$[$      }$|$P.1$w#2$      ",
"                3$e 4$5$6$7$8$,@9$0$a$b$c$d$e$f$g$h$i$j$k$l$m$n$o$q+q+/#p$  N+q$<+r$s$t$u$      ",
"      v$w$x$y$z$A$A B$C$D$E$q+q+F$G$H$I$J$K$L$M$N$O$P$Q$R$S$T$U$V$W$X$q+Y$Z$`$p+ %.%o++%@%      ",
"    #%$%%%&%*%=%-%;%>%,%A '%<$N@)%!%~%{%]%^%/%(%_%:%<%[%}%|%1%2%3%4%5%6%7%W@/#q+p+8%/#9%        ",
"  0%a%b%c%d%e%f%g%h%'#i%j%k%Y$:#>$l%m%n%o%p%q%r%s%t%u%v%w%4@(#x%y%z%A%B%C%q+q+q+q+q+j@D%        ",
"  E%F%G%H%I%J%K%L%` ~.M%N%O%P%!$Q%R%S%T%U%V%W%X%Y%Z%`% &.&q+q++&@&#&$&%&&&*&q+q+q+q+=&+         ",
"  -&;&>&,&'&)&!&~&{&!+]&G#^&/&(&_&:&<&[&}&|&1&2&3&4&5&6&Y@q+q+7&8&9&0&a&b&c&q+q+q+q+d&e&        ",
"    f&g&h&i&j&k&l&m&n&o&Q.p&R.8%q+q+q&r&s&t&u&v&w&x&y&z&S@q+q+A&B&C&D&E&F&G&q+q+q+q+H&I&        ",
"        J&, 8+0+K&L&M&N&O&P&}+Q&q+q+R&S&T&U&V&W&X&T$Y&Z&`&q+q+ *.*+*@*#*$*%*2#q+q+q+&***        ",
"                      @%=*-*q+q+q+q+(#;*>*,*'*)*!*~*{*]*q+q+q+q+*&^*/*y%(*_*:*q+q+q+<*[*        ",
"                          d }*`&q+q+q+m+|*1*2*+*3*4*5*6*7*q+q+q+q+q+ * *8*9*0*q+q+q+a*b*        ",
"                            c*d*:#q+q+e*f*g*h*i*j*k*l*m*n*q+q+q+q+q+q+q+o*p*q*q+q+(&r*          ",
"                              Z@s*N@q+t*u*v*w*x*y*z*A*B*C*q+q+q+q+q+q+D*E*F*G*q+q+<*K@          ",
"                                H*I*q+J*K*A%L*M*N*O*k*P*Q*q+q+q+q+R*S*T*U*V*_.q+W*X*            ",
"                                  ( Y*Z*`*l* =.=+=@=#=$=%=q+q+Y*&=*===-=;=>=.&P#}*+$            ",
"                                    ,= *'=P*v*)=!=#=~={=]=^=/=(=_=:=<=[=}=|=1=2=3=              ",
"                                    0+4=(&5=6=7=8=9=0=a=b=c=d=e=f=[=g=h=i=j=(&k=                ",
"                                      l=m= *n=o=p=q=e r=s=t=u=v=U*w=x=y=z=N@A=.     [=[=[=      ",
"                                        B=<$q+q+d&C=I$D=E=F=G=H=I=J=K=L=P#<$M=        [=        ",
"                                          N=Q%O=I$P=S@P+j@N@Y#N@7*q+q+:#Q=9+R=  [=  [=      [=  ",
"                                                /+% S=T=U=V=W=X=<$(&H&_@        [=  [=[=    [=  ",
"                                                              0+[*( Y=            [=      [=    ",
"                                                                                    [=[=[=      ",
"                                                                                                ",
"                                                                                                "};
