/* XPM */
static char *loopy[] = {
/* columns rows colors chars-per-pixel */
"48 48 217 2",
"   c black",
".  c gray9",
"X  c #1C1C1B",
"o  c #1D1D1C",
"O  c #1F1F1E",
"+  c #262525",
"@  c #292928",
"#  c #2B2A2A",
"$  c #2B2B2A",
"%  c #2C2B2B",
"&  c #2C2C2B",
"*  c #2E2E2D",
"=  c #31302F",
"-  c #323231",
";  c #353433",
":  c #353533",
">  c #373635",
",  c #383736",
"<  c #3A3938",
"1  c #3A3A38",
"2  c #3D3D3B",
"3  c #3E3D3C",
"4  c #3F3F3D",
"5  c #41403F",
"6  c #474645",
"7  c #494846",
"8  c #4C4B49",
"9  c #4C4C4A",
"0  c #4D4C4A",
"q  c #4E4D4B",
"w  c #4E4E4C",
"e  c #4F4E4D",
"r  c #4F4F4D",
"t  c #504F4D",
"y  c #50504E",
"u  c #51504E",
"i  c #51514F",
"p  c #545352",
"a  c #555452",
"s  c #575654",
"d  c #575755",
"f  c #595856",
"g  c #5A5957",
"h  c #5C5B59",
"j  c #5F5E5C",
"k  c #605F5D",
"l  c #646361",
"z  c #656462",
"x  c #666663",
"c  c #676764",
"v  c #6D6C69",
"b  c #706F6D",
"n  c #71706E",
"m  c #72716E",
"M  c #73726F",
"N  c #737270",
"B  c #747370",
"V  c #767572",
"C  c #787674",
"Z  c #797875",
"A  c #7A7976",
"S  c #7B7A77",
"D  c #7C7B78",
"F  c #7D7C79",
"G  c #7E7D7A",
"H  c #7F7E7B",
"J  c #807E7C",
"K  c #807F7C",
"L  c #81807D",
"P  c #82817E",
"I  c #83817E",
"U  c #83827F",
"Y  c #888684",
"T  c #8C8B88",
"R  c #8D8B88",
"E  c #91908D",
"W  c #94938F",
"Q  c #969592",
"!  c #989794",
"~  c #999894",
"^  c #9A9895",
"/  c #9B9996",
"(  c #9B9A96",
")  c #9C9A97",
"_  c #9C9B97",
"`  c #9D9B98",
"'  c #9D9C98",
"]  c #9E9C99",
"[  c #A19F9B",
"{  c #A1A09C",
"}  c #A2A19D",
"|  c #A3A29E",
" . c #A5A39F",
".. c #A5A4A0",
"X. c #A6A5A1",
"o. c #A8A6A2",
"O. c #A9A7A3",
"+. c #AAA8A4",
"@. c #ABAAA6",
"#. c #ACABA7",
"$. c #ADABA8",
"%. c #ADACA8",
"&. c #AEADA9",
"*. c #AFADA9",
"=. c #AFAEAA",
"-. c #B0AFAB",
";. c #B2B1AC",
":. c #B2B1AD",
">. c #B4B2AE",
",. c #B6B4B0",
"<. c #B6B5B1",
"1. c #B7B5B1",
"2. c #B8B6B2",
"3. c #B8B7B3",
"4. c #BAB8B4",
"5. c #BCBAB6",
"6. c #BEBCB8",
"7. c #C0BEB9",
"8. c #C1BFBA",
"9. c #C1BFBB",
"0. c #C2C0BB",
"q. c #C3C1BC",
"w. c #C3C1BD",
"e. c #C3C2BD",
"r. c #C4C2BE",
"t. c #C4C3BE",
"y. c #C5C3BE",
"u. c #C5C3BF",
"i. c #C5C4BF",
"p. c #C6C4BF",
"a. c #C6C4C0",
"s. c #C8C7C2",
"d. c #C9C7C3",
"f. c #CAC8C3",
"g. c #CAC8C4",
"h. c #CAC9C4",
"j. c #CBC9C4",
"k. c #CBCAC5",
"l. c #CCCAC6",
"z. c #CDCBC6",
"x. c #CECCC8",
"c. c #CFCDC8",
"v. c #CFCDC9",
"b. c #D0CEC9",
"n. c #D0CECA",
"m. c #D1CFCA",
"M. c #D1CFCB",
"N. c #D2D0CB",
"B. c #D2D0CC",
"V. c #D3D1CC",
"C. c #D4D2CD",
"Z. c #D5D3CE",
"A. c #D6D4CF",
"S. c #D7D5D0",
"D. c #D7D5D1",
"F. c #D7D6D1",
"G. c #D8D6D1",
"H. c #D8D6D2",
"J. c #D9D7D2",
"K. c #D9D7D3",
"L. c #DAD8D3",
"P. c #DAD8D4",
"I. c #DAD9D4",
"U. c #DBD9D4",
"Y. c #DCDAD5",
"T. c #DDDBD5",
"R. c #DDDBD6",
"E. c #DEDBD6",
"W. c #DEDCD7",
"Q. c #DFDDD7",
"!. c #DFDDD8",
"~. c #E0DED8",
"^. c #E0DED9",
"/. c #E1DED9",
"(. c #E1DFD9",
"). c #E1DFDA",
"_. c #E2E0DA",
"`. c #E2E0DB",
"'. c #E3E0DB",
"]. c #E3E1DC",
"[. c #E4E2DC",
"{. c #E4E2DD",
"}. c #E5E3DD",
"|. c #E5E3DE",
" X c #E6E4DE",
".X c #E6E4DF",
"XX c #E7E5DF",
"oX c #E7E5E0",
"OX c #E8E5E0",
"+X c #E8E6E0",
"@X c #E8E6E1",
"#X c #E9E6E1",
"$X c #E9E7E1",
"%X c #E9E7E2",
"&X c #EAE7E2",
"*X c #EAE8E2",
"=X c #EBE9E3",
"-X c #EBE9E4",
";X c #ECE9E4",
":X c #ECEAE4",
">X c #EDEAE5",
",X c #EDEBE5",
"<X c #EDEBE6",
"1X c #EEEBE6",
"2X c #EEECE6",
"3X c #EEECE7",
"4X c #EFECE7",
"5X c #EFEDE8",
"6X c #F0EDE8",
"7X c #F2F0EB",
"8X c #F3F0EB",
"9X c #F8F6F0",
"0X c #F9F7F1",
"qX c #FBF8F3",
"wX c #FCFAF4",
"eX c #FFFFFB",
"rX c #FFFFFC",
/* pixels */
"Y.Y.Y.Y.Y.Y.Y.Y.Y.Y.Y.Y.Y.Y.Y.Y.Y.Y.Y.Y.Y.Y.Y.Y.Y.Y.Y.Y.Y.Y.Y.Y.Y.Y.Y.Y.Y.Y.Y.Y.Y.Y.Y.Y.Y.Y.Y.Y.",
"Y.Y.Y.Y.Y.Y.Y.Y.U.Y.U.U.U.U.Y.Y.Y.Y.Y.Y.Y.Y.U.U.U.U.Y.U.Y.Y.Y.Y.Y.Y.Y.Y.Y.Y.Y.Y.Y.Y.Y.Y.Y.Y.Y.Y.",
"Y.Y.U.Y.U.L.Y.U.U.U.!.U.!.U.U.U.U.U.U.U.U.U.U.!.L.!.U.Y.U.Y.L.L.H.J.H.U.J.J.J.J.J.J.J.J.U.Y.U.Y.",
"Y.Y.Y.U.!.{.L.Y.U.U.x.oXN.U.U.Y.U.].].U.U.U.U.N.oXx.Y.U.Y.U.(.*X=XoX=XoX&X&X&X&X=XoX=X&XY.U.Y.Y.",
"Y.Y.U.!.g.>.(.U.U.(.;.E X.W.U.U.!.6.6.].U.U.W.X.E ;.(.L.U.!.9.' ] ] ] ' ] ] ] ] ] ] ( [ H.E.U.Y.",
"Y.Y.L.{.>.P oXH.U.!.a.a &.].H.U.oX! ! oXH.L.].&.p a.(.U.H.,Xa & a w t t q r t t t t w s N.~.U.Y.",
"Y.Y.Y.L.(.oXL.Y.U.!.1.W.1.H.U.Y.U.].{.U.U.Y.L.2.!.1.!.U.L.,Xu #.wX*X6X>X>X4X4X4X4X>X4X=XY.U.Y.Y.",
"Y.Y.U.Y.U.H.Y.U.U.U.!.U.(.U.U.U.U.U.U.U.U.Y.U.!.U.!.Y.Y.H.,Xu ! XXA.G.H.H.H.H.H.H.H.G.G.Y.Y.U.Y.",
"Y.U.Y.U.U.U.U.U.U.U.].].{.!.U.U.U.H.L.Y.Y.U.!.{.(.{.Y.U.H.,Xr ' &XJ.Y.Y.Y.Y.Y.Y.Y.Y.F.Y.Y.U.Y.Y.",
"Y.Y.U.Y.(.(.!.U.U.].| ; a N.!.U.!.(.(.Y.U.(.u.8 ; P (.L.H.,Xt ' &XJ.Y.Y.Y.Y.Y.Y.Y.Y.).R.U.Y.U.Y.",
"Y.U.W.b.;.a.1.(.Y.D.< &.c m *X!.w.5.5.u.(.!.u.| 6.& g.(.D.4Xt ' &XJ.Y.Y.Y.Y.Y.Y.U.(.$.b.~.F.Y.Y.",
"Y.Y.H.XXE a !.Y.(.w.3 0XX.y >XD.oXv b {.U.H.(.0XR 3 Y.Y.D.4Xt ' &XJ.Y.Y.Y.Y.Y.Y.U.(.g.t n.(.U.Y.",
"Y.U.W.N.X.&.2.(.R.M., V.P l >XY.a.+.+.a.(.L.(.V ; x.(.Y.H.,Xt ' &XH.Y.Y.Y.Y.Y.Y.H.(.@.2.R.U.U.Y.",
"Y.U.Y.L.!.(.H.Y.H.XXY & 3 9.(.U.H.(.(.H.L.{.1.  ; 8 b.Y.D.>Xt ' &XH.Y.Y.Y.Y.Y.Y.Y.U.Y.).Y.U.Y.Y.",
"Y.Y.U.Y.U.L.Y.U.Y.U.].g.A.(.U.Y.Y.L.L.Y.Y.Y.D.b.u.w.Y.Y.H.4Xt ] &XU.Y.U.U.U.U.Y.U.Y.Y.U.Y.Y.U.Y.",
"Y.Y.U.Y.U.H.Y.U.Y.U.!.Y.(.U.Y.U.Y.L.H.H.H.H.H.Y.Y.Y.H.H.V.oXr ] oXH.U.Y.~.U.(.U.Y.U.Y.H.U.Y.U.Y.",
"Y.Y.Y.U.(.oXL.Y.Y.Y.w.XXu.L.U.U.L.(.4X4X5X5X5X4X-X5X3X5X-XrXg ` &XF.~.M.j./.u.~.F.Y.U.OXR.Y.Y.Y.",
"Y.Y.H.].6.~ {.L.L.(.5.v +.~.U.U.(.4.m V V m m V m V N n n G + ..&XF.U.~.! C g.~.R.Y.R./ M.(.Y.Y.",
"Y.Y.U.(.6.! {.L.L.(.5.M +.~.U.G.,XD : K v V m m V V n V V m A g.~.F.F.(.Q C j.~.R.F.!.< u.!.F.Y.",
"Y.Y.Y.Y.(.oXL.Y.Y.Y.0.XXp.H.U.G.4Xm P rX4X5X5X5X3X3X3X5X5X5X3X!.U.U.~.V.j.~.u.~.Y.R.!.3 u.!.R.Y.",
"Y.Y.Y.Y.L.H.Y.U.Y.U.(.U.(.Y.U.G.4XV n -XD.D.H.H.H.H.H.H.D.D.D.U.Y.Y.Y.Y.(.(.!.Y.R.F.(.< u.!.R.R.",
"Y.Y.U.Y.Y.U.Y.Y.Y.Y.U.U.U.U.Y.H.5Xm m 5XD.U.Y.Y.Y.Y.Y.Y.U.I.U.U.Y.Y.Y.R.j.j.(.Y.U.R.(.< u.!.F.Y.",
"Y.U.Y.L.W.(.H.Y.U.Y.Y.Y.Y.Y.U.G.5XV m 5XD.Y.Y.Y.Y.Y.U.U.R.F.].!.U.F.{.| : % P {.F.U.!.< u.!.R.Y.",
"Y.U.!.N.X.&.2.].H.Y.Y.Y.Y.Y.Y.G.5Xm V 5XD.Y.Y.Y.Y.Y.U.U.].<.&.X.M.Y.(.u.H.5.= (.Y.U.!.2 u.!.Y.R.",
"Y.U.H.oXE a !.Y.U.Y.Y.Y.Y.Y.Y.H.5XN N 5XL.U.U.U.Y.Y.Y.U.Y.!.a E XXH.H.XX{.7 H XXU.U.(.< u.(.U.Y.",
"Y.U.Y.b.;.a.1.(.L.Y.Y.Y.Y.Y.U.G.5XN N 5XD.U.W.W.Y.Y.Y.L.(.1.a.;.b.Y.(.d.# p V.Y.U.U.!.< w.(.U.Y.",
"Y.Y.U.Y.(.(.(.U.Y.Y.Y.Y.Y.Y.Y.G.5XN m 5XD.W.U.U.Y.Y.Y.Y.U.!.!.(.Y.H.oXW X 5 h (.U.U.!.< u.(.U.Y.",
"Y.U.Y.U.F.U.U.Y.U.Y.Y.Y.Y.Y.Y.H.5XN M 5XD.U.U.U.U.L.Y.U.U.U.U.U.Y.Y.Y.(.{.~.~.L.U.U.(.< w.(.U.Y.",
"Y.Y.U.Y.Y.D.H.H.H.H.H.H.H.H.H.V.:XM m 5XD.U.W.(.U.].U.Y.U.U.U.D.H.H.H.H.D.H.D.H.D.D.U.< u.(.U.Y.",
"Y.Y.Y.Y.!.4X,X>X>X>X6X,X6X,X6XoXrXH m 4XD.U.L.1.!.1.!.U.Y.U.{.5X4X>X>X>X>X,X>X5X,X,X7X3 u.(.U.Y.",
"Y.Y.U.(.w.t t r r r t t w t r r f O H ,XD.U.].&.p a.!.U.D.oXR 6 t t r r r r t r t u r O j.(.Y.Y.",
"Y.Y.H.oX| : @.( ] ] ] ] ' ' ' ' _ | g.!.U.U.!.X.E ;.(.U.D.,Xu v O.( ] ] ] ] ] ] ' ' ! $.H.Y.L.Y.",
"Y.Y.H.oX] s wX{.&X&XoXoXoX=X&XoX*X*X!.U.U.U.U.N.oXx.Y.U.H.,Xu +.0XoXoX=X&X&X&X&X&X&X=XXXU.U.Y.Y.",
"Y.Y.H.=X] w =XG.L.H.(.XX{.H.H.U.D.L.L.U.Y.U.U.!.L.W.U.Y.H.,Xt ( oXH.H.H.J.J.J.J.U.H.H.H.U.U.U.Y.",
"Y.Y.L.oX] t ,XH.U.W.6.~ *.Y.Y.U.W.U.U.!.U.U.U.U.U.U.Y.U.H.>Xt ] &XU.Y.Y.Y.Y.Y.Y.U.U.~.U.U.Y.U.Y.",
"Y.Y.H.=X_ w 6XG.~.b.t z , m =XU.N.W.!.N.W.U.Y.Y.Y.Y.Y.Y.H.4Xt ' &XH.Y.Y.Y.Y.Y.Y.U.U.b.{.~.U.Y.Y.",
"Y.Y.U.&X_ t ,XH.L.~.2.k @ I oXY.x.Q Q z.!.U.U.R.Y.Y.Y.Y.H.,Xt ' &XH.Y.Y.Y.Y.Y.Y.H.(.*.! H.Y.U.Y.",
"Y.Y.H.&X] t ,XH.L.(.W.*.s c ,XH.!.Z C !.U.U.R.U.Y.Y.Y.Y.L.,Xt ' =XH.Y.Y.Y.Y.Y.Y.Y.(.u.k b.~.U.Y.",
"Y.Y.U.&X] t >XH.W.b.F >.f l =X~.a.g.g.a.!.U.U.R.Y.Y.Y.Y.H.,Xy ' &XJ.Y.Y.Y.Y.Y.Y.Y.W.2.~.(.U.Y.Y.",
"Y.Y.H.&X] t >XH.Y.L.Z 7 b G.Y.H.!.!.!.!.U.R.R.U.Y.Y.Y.Y.H.,Xr ' &XH.Y.Y.Y.Y.Y.Y.Y.Y.(.U.U.Y.U.Y.",
"Y.Y.U.oX' r ,XH.Y.Y.*X,X>XW.L.Y.U.U.U.U.U.U.U.U.U.U.U.U.H.,Xt ' oXH.Y.Y.F.U.U.Y.L.Y.L.Y.Y.L.Y.Y.",
"Y.Y.H.>X' t ,XD.Y.L.D.D.H.L.U.U.U.U.U.U.U.U.U.U.U.U.U.U.H.>Xt ' >XH.U.Y.!.(.!.U.Y.Y.Y.H.Y.Y.Y.Y.",
"Y.Y.H.oX' p 7XY.(.(.!.(.!.(.(.!.!.].!.!.(.!.].!.(.(.(.(.Y.6Xu ' oXU.R.b.;.u.1.(.H.Y.U.(.Y.U.Y.Y.",
"Y.Y.H.|.$.. 3 < < < < < 1 1 < < < < 2 < < < < < < < < < < 5 . $.oXH.U.oX! j !.U.Y.Y.~.l g.(.L.Y.",
"Y.Y.Y.Y.U.g.w.t.t.t.t.w.p.w.t.t.u.t.t.u.t.t.t.w.w.w.w.u.u.w.d.H.Y.Y.L.Y.L.b.(.U.Y.U.Y.d.H.Y.L.Y.",
"Y.Y.Y.Y.U.(.!.].!.].!.].(.(.!.].].!.!.!.!.].!.].(.].].(.(.(.(.Y.Y.Y.Y.Y.Y.W.U.Y.U.Y.U.(.Y.Y.Y.Y.",
"Y.Y.Y.Y.U.U.U.U.U.U.U.U.U.U.U.U.U.U.U.U.U.U.U.U.U.U.U.U.L.Y.Y.L.Y.L.Y.Y.U.U.Y.U.Y.U.Y.Y.L.Y.Y.Y.",
"Y.Y.Y.Y.Y.Y.Y.Y.Y.R.Y.Y.Y.Y.Y.U.Y.Y.Y.Y.Y.R.Y.Y.Y.U.U.U.Y.Y.Y.Y.Y.Y.Y.Y.Y.Y.Y.Y.Y.Y.Y.Y.Y.Y.Y.Y."
};
