/* XPM */
static char *magick[] = {
/* columns rows colors chars-per-pixel */
"32 32 21 1",
"  c black",
". c #191919",
"X c gray20",
"o c #00007f",
"O c #007f00",
"+ c #007f7f",
"@ c #7f0000",
"# c #7f007f",
"$ c #7f7f00",
"% c #4c4c4c",
"& c #666667",
"* c gray50",
"= c green",
"- c cyan",
"; c red",
": c yellow",
"> c gray60",
", c #b2b2b2",
"< c gray80",
"1 c gray90",
"2 c white",
/* pixels */
"&;;**,:*>>;;*;*;*#$;&@&@&@#;@@%@",
"**#>;>*;$;>****;;&#&;&;&&@$@%@@@",
";**;:$;$$$@&;;*$$*;*&@;&;&@&&@%@",
"*;>:>;>$>;$@*>;**;#$;&%@%@@@@@%@",
"**;&*&@*&@&$%&;>;*;&@&@$&$@#@@$@",
">X .@X . XX...*;*;*@&@%@@@$$%@@#",
";X..X*.. &&.. @*#$#%@&@$$$@$$@@%",
">***$&;&&&@$&@**;&$@&@$##@*$:$$@",
";>:;;>:,$>;*$*;;@&%@%XX::$:::::$",
"*>>>>>*;*;*$@&*&&@$X@X@$$>>:::$$",
";>;>*;*@@*@*&&#*#$@%XX. @X@*:$@@",
"*;>>*$@@@%@$;*$@@&#X%.%>&X.@#@@#",
";>*;,$$*&@$*&;&&***&%  X%**.@%@@",
";$*;>#%@X%#$&**>>&@%X.,*...%@@@%",
">*;,>@&%%%%***>*X%>>,X.%*. @@%@%",
"*;*>>>>*&&*&*,*@>1<<,>>&..%%@@@@",
"*;%%%%%XXX%%**X,211<,,>>&&%X.X@@",
"$#*>***&&&&*>X>211<<,>>*&&%%X@X@",
";>@&&%%%X%%&%%<121<<,,>**&%XX.@@",
"@%*,>>>*&%&*%*1<1<<<,>>*&&%X..@X",
">&%@X%XXXX%%X><<<<<,,>>&&%%XX..@",
">>*>>***%%%XX,,,,,,>>>**&%%X.. .",
"*&&&%&%%%XXXX>>>,>>>>**&&%XX. .@",
">>>;&>>>&X%XX>>>>>>>*&&&%%XX.  @",
"&%%$X%@%%%X.X*******&&&%%XX.   @",
">>**>>>***%XX%*****&&&%%XX... .@",
"%@%#X%X%XX%X .&%%%%%%%XX...   .@",
">*&$*&>&*,%%%%XX%%X$.X%X&. %X.%.",
",*.,&o*X&*+.**%X&$O<X%,%,%O,.>++",
"<*>>%*-+&+>.&*X%&&O*$&=X$X.-.++%",
"1+ %+*&&+** *++X&&%* .&X>$O>.+&+",
">X.%%oXoo*. +>..OX.$ .$O*O.*O%X="
};
