/* XPM */
static char * magnus6_xpm[] = {
"32 32 61 1",
" 	c None",
".	c #FAFAFA",
"+	c #B7B7B7",
"@	c #797979",
"#	c #424242",
"$	c #343434",
"%	c #545454",
"&	c #828282",
"*	c #C3C3C3",
"=	c #A5A5A5",
"-	c #666666",
";	c #5A5A5A",
">	c #4F4F4F",
",	c #6D6D6D",
"'	c #474747",
")	c #383838",
"!	c #5D5D5D",
"~	c #8E8E8E",
"{	c #CBCBCB",
"]	c #F6F6F6",
"^	c #FFFFFF",
"/	c #9D9D9D",
"(	c #4A4A4A",
"_	c #626262",
":	c #2C2C2C",
"<	c #191919",
"[	c #121212",
"}	c #202020",
"|	c #262626",
"1	c #3C3C3C",
"2	c #D9D9D9",
"3	c #DFDFDF",
"4	c #E6E6E6",
"5	c #6A6A6A",
"6	c #535353",
"7	c #101010",
"8	c #303030",
"9	c #838383",
"0	c #878787",
"a	c #C0C0C0",
"b	c #EBEBEB",
"c	c #171717",
"d	c #979797",
"e	c #E7E7E7",
"f	c #7D7D7D",
"g	c #BDBDBD",
"h	c #DDDDDD",
"i	c #1D1D1D",
"j	c #D3D3D3",
"k	c #A7A7A7",
"l	c #F0F0F0",
"m	c #292929",
"n	c #8F8F8F",
"o	c #D1D1D1",
"p	c #C8C8C8",
"q	c #B3B3B3",
"r	c #A1A1A1",
"s	c #AEAEAE",
"t	c #999999",
"u	c #757575",
"v	c #707070",
"    .+@#$%&*=-;>,')!~{]^^^^^    ",
"    ./%('(_:<[}|$11'>>&2^^^3    ",
"    4/@56)<7<>>}8>905$:>a^b=    ",
"    =_'8<c[8de{6}:!ff5$<$gh5    ",
"    d68}ic:dj^^3/0g0d3k$<)=6    ",
"    @#8}i}(~2.^^^^^l4^^9<c)1    ",
"    58m}}#!n4^^^^^^^^^^o:c<m    ",
"    _mm}:(_gl^^^^^^^^^^]!c<|    ",
"    5:$))!@e^^^^^^^^^^^^=i<}    ",
"    ,:)6$6/l^^^^^^^^^^^^p}ii    ",
"    -m)>$%k4^^^^^^^^^^^^{:#|    ",
"    5:'>>5={.^^^^^^^^^^^q)%}    ",
"    -:,;%;')@j^^^^^^^^^]0!_i    ",
"    5:%_n!}}c$a^^^^^^^^p-f;<    ",
"    _m!_jh/f6$@]=,&g]^lqr/6}    ",
"    !|'6a^b*jsge'|<m9lek+f%i    ",
"    !m:$9l^^.{elq+/f-{4~_~!}    ",
"    _m|:6=3^4=l.]l^^3]2{*q!}    ",
"    '|i:',4b/s^b.^^^^l=3+=!i    ",
"    :|<|(5rk-p^b2^^^hr+20s!}    ",
"    m}<|%9=dm%tto.^{&-n&u+-}    ",
"    mii)%nu56m;p.eok&#8(02u|    ",
"    m}:t!v8)-&g2llos%<<}6rum    ",
"    $m'j5;u!_-,502j,m<i<cc|i    ",
"    8:_bq%@5&rdr@/~m<ii}i[[7    ",
"    )8t^.0f{kt/+n(8cii}|ic[c    ",
"    1)a^^3%f2]]+&v:[i}|m|c[[    ",
"    8(h^^^g$(,@t3qic}}|m}cc[    ",
"    m>b^^^.0$>q.^@[<}}:8|<[[    ",
"    |;]^^e@mm:,l^5ci}m)1m<cc    ",
"    $u.^.*(}||}=4)ci|81)micc    ",
"    #~^^.]~#>)vts|||:'6>#1$$    "};
