/* XPM */
static char *icon[] = {
/* columns rows colors chars-per-pixel */
"32 32 256 2",
"   c #08216B",
".  c #10296B",
"X  c #102973",
"o  c #103173",
"O  c #183173",
"+  c #21397B",
"@  c #29397B",
"#  c #29427B",
"$  c #294284",
"%  c #314284",
"&  c #314A84",
"*  c #394A84",
"=  c #39528C",
"-  c #42528C",
";  c #425A8C",
":  c #4A5A94",
">  c #4A6394",
",  c #526394",
"<  c #52639C",
"1  c #526B9C",
"2  c #5A6B9C",
"3  c #63739C",
"4  c #6373A5",
"5  c #6B7BA5",
"6  c #7384AD",
"7  c #7B84AD",
"8  c #7B8CAD",
"9  c #7B8CB5",
"0  c #848CB5",
"q  c #8494B5",
"w  c #8C94B5",
"e  c #8C94BD",
"r  c #8C9CBD",
"t  c #949CBD",
"y  c #94A5BD",
"u  c #94A5C6",
"i  c #9CA5C6",
"p  c #9CADC6",
"a  c #A5ADC6",
"s  c #A5ADCE",
"d  c #A5B5CE",
"f  c #ADB5CE",
"g  c #ADBDCE",
"h  c #B5BDCE",
"j  c #B5BDD6",
"k  c #BDBDD6",
"l  c #BDC6D6",
"z  c #BDC6DE",
"x  c #C6C6DE",
"c  c #C6CEDE",
"v  c #CECEDE",
"b  c #CED6DE",
"n  c #CED6E7",
"m  c #D6D6E7",
"M  c #D6DEE7",
"N  c #DEDEE7",
"B  c #DEDEEF",
"V  c #DEE7EF",
"C  c #E7E7EF",
"Z  c #EFEFF7",
"A  c #EFF7F7",
"S  c gray97",
"D  c #F7F7FF",
"F  c #F7FFFF",
"G  c gray100",
"H  c gray100",
"J  c gray100",
"K  c gray100",
"L  c gray100",
"P  c gray100",
"I  c gray100",
"U  c gray100",
"Y  c gray100",
"T  c gray100",
"R  c gray100",
"E  c gray100",
"W  c gray100",
"Q  c gray100",
"!  c gray100",
"~  c gray100",
"^  c gray100",
"/  c gray100",
"(  c gray100",
")  c gray100",
"_  c gray100",
"`  c gray100",
"'  c gray100",
"]  c gray100",
"[  c gray100",
"{  c gray100",
"}  c gray100",
"|  c gray100",
" . c gray100",
".. c gray100",
"X. c gray100",
"o. c gray100",
"O. c gray100",
"+. c gray100",
"@. c gray100",
"#. c gray100",
"$. c gray100",
"%. c gray100",
"&. c gray100",
"*. c gray100",
"=. c gray100",
"-. c gray100",
";. c gray100",
":. c gray100",
">. c gray100",
",. c gray100",
"<. c gray100",
"1. c gray100",
"2. c gray100",
"3. c gray100",
"4. c gray100",
"5. c gray100",
"6. c gray100",
"7. c gray100",
"8. c gray100",
"9. c gray100",
"0. c gray100",
"q. c gray100",
"w. c gray100",
"e. c gray100",
"r. c gray100",
"t. c gray100",
"y. c gray100",
"u. c gray100",
"i. c gray100",
"p. c gray100",
"a. c gray100",
"s. c gray100",
"d. c gray100",
"f. c gray100",
"g. c gray100",
"h. c gray100",
"j. c gray100",
"k. c gray100",
"l. c gray100",
"z. c gray100",
"x. c gray100",
"c. c gray100",
"v. c gray100",
"b. c gray100",
"n. c gray100",
"m. c gray100",
"M. c gray100",
"N. c gray100",
"B. c gray100",
"V. c gray100",
"C. c gray100",
"Z. c gray100",
"A. c gray100",
"S. c gray100",
"D. c gray100",
"F. c gray100",
"G. c gray100",
"H. c gray100",
"J. c gray100",
"K. c gray100",
"L. c gray100",
"P. c gray100",
"I. c gray100",
"U. c gray100",
"Y. c gray100",
"T. c gray100",
"R. c gray100",
"E. c gray100",
"W. c gray100",
"Q. c gray100",
"!. c gray100",
"~. c gray100",
"^. c gray100",
"/. c gray100",
"(. c gray100",
"). c gray100",
"_. c gray100",
"`. c gray100",
"'. c gray100",
"]. c gray100",
"[. c gray100",
"{. c gray100",
"}. c gray100",
"|. c gray100",
" X c gray100",
".X c gray100",
"XX c gray100",
"oX c gray100",
"OX c gray100",
"+X c gray100",
"@X c gray100",
"#X c gray100",
"$X c gray100",
"%X c gray100",
"&X c gray100",
"*X c gray100",
"=X c gray100",
"-X c gray100",
";X c gray100",
":X c gray100",
">X c gray100",
",X c gray100",
"<X c gray100",
"1X c gray100",
"2X c gray100",
"3X c gray100",
"4X c gray100",
"5X c gray100",
"6X c gray100",
"7X c gray100",
"8X c gray100",
"9X c gray100",
"0X c gray100",
"qX c gray100",
"wX c gray100",
"eX c gray100",
"rX c gray100",
"tX c gray100",
"yX c gray100",
"uX c gray100",
"iX c gray100",
"pX c gray100",
"aX c gray100",
"sX c gray100",
"dX c gray100",
"fX c gray100",
"gX c gray100",
"hX c gray100",
"jX c gray100",
"kX c gray100",
"lX c gray100",
"zX c gray100",
"xX c gray100",
"cX c gray100",
"vX c gray100",
"bX c gray100",
"nX c gray100",
"mX c gray100",
"MX c gray100",
"NX c gray100",
"BX c gray100",
"VX c gray100",
"CX c gray100",
"ZX c gray100",
"AX c gray100",
"SX c gray100",
"DX c gray100",
"FX c gray100",
"GX c gray100",
"HX c gray100",
"JX c gray100",
"KX c gray100",
"LX c gray100",
"PX c gray100",
"IX c gray100",
"UX c gray100",
/* pixels */
"                                                                ",
"                                                                ",
"                                                    . .         ",
"                                                . + : % .       ",
"                                              . # 6 j 7 O       ",
"                                            . & 0 j x 5 X       ",
"                                            X 5 n S f > .       ",
"                                            O w G G i %         ",
"                                            O r G G t + .       ",
"    . .       . . .         . . .         X * i G G i 3 ; +     ",
"  O * > % X O > 5 ; O     X - 5 3 % .   . * t j G G c j f : .   ",
"O 2 a l t 4 6 f N f 4 + + 2 a M x w : O . > l m S G F b h > .   ",
"- d Z G C j l F G S j 0 6 d Z G G M d 7 * # 4 i N G M y 2 +     ",
"> l Z G G V N V G G G c l l x C G G S m 5 X O 0 M G c 5 O       ",
"# 7 l G G v i t l Z G G j 7 6 i m G G c 4 . O 8 M G l 2 .       ",
". - f G G j 2 % 5 j G G a = O , f G G f ; . O 8 M G h : .       ",
"  * a G G h : . # y G G p % . * a G G a &   O 8 M G f = .       ",
"  # i G G h : . O r G G t O   * a G G t +   O 8 M G a * .       ",
"  O t G G h : . O r G G r O   & a G G r O   O 8 M G a %         ",
"  O r G G h : . O r G G r O   # i G G r O   O 8 M G t +         ",
"  O r G G f - . O r G G r O   O t G G r O   O 8 M G r O         ",
"  O r G G a * . O r G G r O   O r G G r O   O q C G r O         ",
"  O r G G a *   O r G G r O   O r G G y +   O q C G r O         ",
"  O r G G a %   O r G G t O   O t G G a * . O w A G t +         ",
"  + y G G i % . + t G G a & . # i G G h 2 + & r G G a - X .     ",
". , h G G j 4 O = a G G j 2 X - f G G N a q r i G G c r 5 2 +   ",
"O q C G G S i % 2 c G G M q + : j G G G Z M l y S G G m c j : . ",
"X 5 c G G c 5 O > h S G C r + + 6 l S G G l 8 , t l Z G M w #   ",
". % 8 l b q % . O 3 f N a , . . # 5 f N c 8 % X % 4 a b y - .   ",
"  . # 2 3 & .     O ; 5 ; O       O : 5 3 # .     O = 2 * .     ",
"      . . .         . . .           . . .           . . .       ",
"                                                                "
};
