/* XPM */
static char * meterbridge32x32_xpm[] = {
"32 32 336 2",
"  	c None",
". 	c #6E6E6E",
"+ 	c #464646",
"@ 	c #5A5A5A",
"# 	c #4C4C4C",
"$ 	c #585858",
"% 	c #474747",
"& 	c #666666",
"* 	c #3F3F3C",
"= 	c #545349",
"- 	c #6D6C5C",
"; 	c #84846F",
"> 	c #939278",
", 	c #94947A",
"' 	c #888871",
") 	c #727261",
"! 	c #57574E",
"~ 	c #424240",
"{ 	c #484848",
"] 	c #414140",
"^ 	c #4A4A42",
"/ 	c #7E7D69",
"( 	c #B6B595",
"_ 	c #D9D8B0",
": 	c #EAE8BF",
"< 	c #F2F2C5",
"[ 	c #F4F4C8",
"} 	c #F5F5C9",
"| 	c #F4F3C5",
"1 	c #EFEEC2",
"2 	c #E3E2B8",
"3 	c #C5C4A1",
"4 	c #898976",
"5 	c #504F4A",
"6 	c #444444",
"7 	c #4E4E4E",
"8 	c #40403C",
"9 	c #7D7C63",
"0 	c #C5C49F",
"a 	c #ECEABE",
"b 	c #F8F5C7",
"c 	c #F9F8CC",
"d 	c #F9F8CD",
"e 	c #FAFACA",
"f 	c #FAFACC",
"g 	c #FBFACC",
"h 	c #FBFAC6",
"i 	c #FBF9CC",
"j 	c #FBFACD",
"k 	c #DAD9B1",
"l 	c #8D8C74",
"m 	c #474745",
"n 	c #4D4D4D",
"o 	c #4E4D44",
"p 	c #A6A688",
"q 	c #E6E4B8",
"r 	c #F8F7CA",
"s 	c #FBFAC9",
"t 	c #FBFAD0",
"u 	c #FAF8CD",
"v 	c #FBF9CA",
"w 	c #FBF9CB",
"x 	c #FAF9CC",
"y 	c #FBFACF",
"z 	c #FAF9CA",
"A 	c #F3F0C2",
"B 	c #C1C09F",
"C 	c #585850",
"D 	c #494949",
"E 	c #545449",
"F 	c #B8B897",
"G 	c #F0EDBE",
"H 	c #FAF8CA",
"I 	c #FCFAC5",
"J 	c #FAFACE",
"K 	c #FAF9CB",
"L 	c #FAF9CE",
"M 	c #FAFAD0",
"N 	c #FAF9CF",
"O 	c #FAF9C9",
"P 	c #FAF8C9",
"Q 	c #FAFACF",
"R 	c #FAF8CC",
"S 	c #F8F6CA",
"T 	c #D8D8B2",
"U 	c #606059",
"V 	c #4A4A4A",
"W 	c #4C4C43",
"X 	c #B8B794",
"Y 	c #F3F2C7",
"Z 	c #FAFACB",
"` 	c #FAF9CD",
" .	c #FBFACB",
"..	c #FAFAD1",
"+.	c #FBF9C9",
"@.	c #FAFACD",
"#.	c #F9F9CD",
"$.	c #D8D7B4",
"%.	c #565650",
"&.	c #444443",
"*.	c #5D5D5C",
"=.	c #A3A284",
"-.	c #EFEEC7",
";.	c #FAFAC7",
">.	c #ECEBC0",
",.	c #DCDBB7",
"'.	c #DAD8B2",
").	c #ECEABF",
"!.	c #FAF7C7",
"~.	c #FAF8CE",
"{.	c #454544",
"].	c #4E4E4D",
"^.	c #767663",
"/.	c #E3E2BA",
"(.	c #FAFAC9",
"_.	c #E5E4BB",
":.	c #FAF9D0",
"<.	c #DCDCB4",
"[.	c #F6F5C6",
"}.	c #EDEBBE",
"|.	c #DFDEB8",
"1.	c #F8F7CE",
"2.	c #DEDDB2",
"3.	c #FAF8C8",
"4.	c #E7E6BB",
"5.	c #FAF8C7",
"6.	c #F5DAB0",
"7.	c #F9F1C5",
"8.	c #FAF7C9",
"9.	c #F6F4C7",
"0.	c #8A8A7A",
"a.	c #424242",
"b.	c #525252",
"c.	c #464640",
"d.	c #C0BF9E",
"e.	c #F7F5C9",
"f.	c #F0EEC2",
"g.	c #E6E5BA",
"h.	c #E5E4B8",
"i.	c #71715E",
"j.	c #72725E",
"k.	c #73735F",
"l.	c #7B7A66",
"m.	c #7A7962",
"n.	c #7C7C63",
"o.	c #6A6853",
"p.	c #7B7A65",
"q.	c #777660",
"r.	c #70705C",
"s.	c #A36250",
"t.	c #E8957B",
"u.	c #F5DCB4",
"v.	c #F7E6B6",
"w.	c #E0DFB9",
"x.	c #4E4E4C",
"y.	c #747461",
"z.	c #E8E8BE",
"A.	c #EAE9C1",
"B.	c #DEDDB7",
"C.	c #7C7C65",
"D.	c #737259",
"E.	c #EEEEC2",
"F.	c #F7F5C5",
"G.	c #CECEAA",
"H.	c #D4D4AE",
"I.	c #F5F4C5",
"J.	c #C9C7A0",
"K.	c #EEEDC8",
"L.	c #ECEAC0",
"M.	c #CAC9A6",
"N.	c #D3D1A9",
"O.	c #EECFA8",
"P.	c #E6856E",
"Q.	c #E5836D",
"R.	c #F7E3B8",
"S.	c #F4D9B2",
"T.	c #FAF7CB",
"U.	c #F8F6C8",
"V.	c #7C7C7C",
"W.	c #3E3E3C",
"X.	c #ADAC8E",
"Y.	c #F6F6CD",
"Z.	c #BAB995",
"`.	c #F6F4C6",
" +	c #BDBC97",
".+	c #EDECBC",
"++	c #FBFAC7",
"@+	c #F9F8CA",
"#+	c #FAF8CB",
"$+	c #F0EEC4",
"%+	c #E6E5BB",
"&+	c #E8E7BC",
"*+	c #F5DFBA",
"=+	c #E37A64",
"-+	c #EA9D80",
";+	c #CACAAA",
">+	c #404040",
",+	c #60605F",
"'+	c #505050",
")+	c #4E4E47",
"!+	c #CAC9A5",
"~+	c #C8C8A4",
"{+	c #F8F7CC",
"]+	c #72715B",
"^+	c #ACAC92",
"/+	c #F9F7C9",
"(+	c #FBFAC8",
"_+	c #ECAA89",
":+	c #E5846B",
"<+	c #F8ECBF",
"[+	c #F6E1B6",
"}+	c #EEECC0",
"|+	c #565654",
"1+	c #636363",
"2+	c #636253",
"3+	c #DAD8AF",
"4+	c #E0DFB8",
"5+	c #72715F",
"6+	c #EDECC2",
"7+	c #C2C2A1",
"8+	c #F2F2C4",
"9+	c #FBF9C4",
"0+	c #FBF9C7",
"a+	c #F2C69E",
"b+	c #EDAF91",
"c+	c #F7E9C0",
"d+	c #F6F0C8",
"e+	c #75756C",
"f+	c #565656",
"g+	c #777661",
"h+	c #EEEEBE",
"i+	c #000000",
"j+	c #F8F7C9",
"k+	c #F9F8CF",
"l+	c #8E8E7F",
"m+	c #4A4949",
"n+	c #84836A",
"o+	c #F3F2C2",
"p+	c #F9F9C5",
"q+	c #F9F7C8",
"r+	c #FBFACA",
"s+	c #FAF8CF",
"t+	c #9A9A88",
"u+	c #84846E",
"v+	c #F3F2C5",
"w+	c #B0B090",
"x+	c #38382D",
"y+	c #72715E",
"z+	c #FAFAC8",
"A+	c #9A9A8B",
"B+	c #787865",
"C+	c #F0F0C6",
"D+	c #F9F8CB",
"E+	c #B8B795",
"F+	c #B0B08E",
"G+	c #F8F8CE",
"H+	c #8C8C80",
"I+	c #606060",
"J+	c #656557",
"K+	c #EAEABE",
"L+	c #FCFBC6",
"M+	c #F7F6CA",
"N+	c #73736E",
"O+	c #4F4F4F",
"P+	c #515151",
"Q+	c #4E4E48",
"R+	c #DAD8B4",
"S+	c #FAFAD2",
"T+	c #FBF9C8",
"U+	c #EDECC1",
"V+	c #545453",
"W+	c #727272",
"X+	c #B5B597",
"Y+	c #FBFACE",
"Z+	c #C7C7B0",
"`+	c #3C3C3C",
" @	c #626261",
".@	c #787869",
"+@	c #F0F0C8",
"@@	c #FBFAD1",
"#@	c #F7F6CC",
"$@	c #F8F6C2",
"%@	c #FAF9C8",
"&@	c #85857D",
"*@	c #444343",
"=@	c #484844",
"-@	c #CFCEA9",
";@	c #B7B7A4",
">@	c #767670",
",@	c #76776E",
"'@	c #B6B596",
")@	c #F4F3C8",
"!@	c #DDDCBB",
"~@	c #7C7C69",
"{@	c #414141",
"]@	c #A1A188",
"^@	c #F6F5CB",
"/@	c #F6F5CE",
"(@	c #84847C",
"_@	c #3F3F3F",
":@	c #545454",
"<@	c #424341",
"[@	c #B4B490",
"}@	c #F1F0C3",
"|@	c #F2F1C9",
"1@	c #F2F2CA",
"2@	c #F2F1C4",
"3@	c #F3F2C6",
"4@	c #EBEAC2",
"5@	c #5A5A59",
"6@	c #DCDCB8",
"7@	c #F3F2C1",
"8@	c #F3F2C8",
"9@	c #F3F1C8",
"0@	c #F2F2C6",
"a@	c #F2F0C6",
"b@	c #F3F1CA",
"c@	c #BAB8A4",
"d@	c #484847",
"e@	c #5A5A58",
"f@	c #5A5958",
"g@	c #5A5957",
"h@	c #434343",
"i@	c #575755",
"j@	c #5B5B59",
"k@	c #4B4B4B",
"l@	c #454645",
"m@	c #454545",
"n@	c #3D3D3D",
"o@	c #50504E",
"p@	c #3E3E3E",
"q@	c #3B3B3B",
"r@	c #464645",
"s@	c #40403F",
"t@	c #474746",
"u@	c #5E5E5E",
"                      . + @ # + + # $ % &                       ",
"                  # + * = - ; > , ' ) ! ~ % {                   ",
"              $ ] ^ / ( _ : < [ } | 1 2 3 4 5 6 7               ",
"            % 8 9 0 a b c d e f g h i j f | k l m 6             ",
"          n o p q r s g t u v w x y z z z j x A B C D           ",
"        n E F G H I J K L H M h f J N O P Q R s S T U V         ",
"      D W X Y Z s L `  .u ..` +.` L Q @.g ` N L L #.$.%.&.      ",
"    *.8 =.-.K ;.e N ` >.f f ,.c '.K ).i !.j J f ~.L d B {.].    ",
"    6 ^./.R Q J (._.:.<.[.}.|.1.2.3.4.5.6.7.J 8.Z Z R 9.0.a.    ",
"  b.c.d.e.L f.g.z h.i.j.k.l.m.n.o.p.q.r.s.t.u.v.K g z s w.x.6   ",
"  # y.z.f M A.B.C.D.E.F.G.H.` I.J.K.L.M.N.O.P.Q.R.S.T.s U.0.+   ",
"V.W.X.Y.@.J Z.r.`. +.+++@+#+f z f J O $+%+&+J *+=+-+R x ~.;+>+,+",
"'+)+!+~+{+]+^+Q K /+f K w #+(+Z R e x (+z f g J N _+:+<+[+}+|+>+",
"1+2+3+4+5+6+7+8+u L e R R R 9+z t e N Z K L #+O R 0+a+b+c+d+e+'+",
"f+g+h+:.i+i+j+h Z K !.R @.` x J z s (+(.@.(+g w +.(+(+L R k+l+m+",
"'+n+o+x x i+i+R g s u u  .v c p+q+O s x Z J P K 5.r+x r+s+P t++ ",
"'+u+v+K j s i+i+M g L :.J +.w+x+y+z+R Q f :.J Z #+x +. .L 3.A++ ",
"f+B+C+ .s r+N i+i+x h J J h D+E+F+(.L ` w x J s f g v z x G+H+{ ",
"I+J+K+r+(+L+Z R i+i+` @.y @.@.s L h w R z J ++s  .` L ` ..M+N+O+",
"P+Q+R+@. .S+J z f i+i+z v M S+..f +.J :.J f @.L s f ` M T+U+V+a.",
"W+>+X+c R R f Y+i h i+i+@.r+f f z K #+L z P i K +.` g (+(+Z+`+ @",
"  7 .@+@R :.z @@Q f ` i+i++.P #@$@f 0+g ` x %@h L s+` (+U.&@*@  ",
"  7 =@-@D+%@J J r+K  . .i+i+;@>@,@'@)@x +.g f 3.j ~.L ` !@{ +   ",
"    + ~@$+#+x M L  .#++.z i+6 {@a.a.]@^@g y f R R R Q /@(@_@    ",
"    :@<@[@}@|@v+1@o+2@3@4@5@a.a.{@a.C 6@7@3@8@9@0@a@b@c@_@'+    ",
"      % d@e@e@f@e@g@e@e@e@6 >+a.{@{@h@i@e@j@e@e@e@j@5@% 6       ",
"        k@{@{@{@>+{@a.{@{@a.{@>+{@>+{@{@a.a.a.{@a.a.>+l@        ",
"          V {@a.{@{@{@{@>+{@{@>+>+{@>+a.{@a.>+{@{@_@m@          ",
"            m@>+{@{@{@>+{@{@{@{@{@{@>+>+{@>+{@>+`+&.            ",
"              n a.>+{@{@{@{@{@{@{@{@{@{@>+>+n@_@o@              ",
"                  6 6 p@>+{@{@{@{@{@{@_@q@a.r@                  ",
"                      5@s@n t@6 6 + # ] u@                      "};
