/* XPM */
static char *mines[] = {
/* columns rows colors chars-per-pixel */
"48 48 256 2",
"   c #010000",
".  c #080606",
"X  c #0D0C0B",
"o  c #151414",
"O  c #1E1D1C",
"+  c #242322",
"@  c #292827",
"#  c #2C2B2A",
"$  c #31302F",
"%  c #313736",
"&  c #3F3F3D",
"*  c #000074",
"=  c #00007B",
"-  c #0B0B7E",
";  c #007300",
":  c #007A00",
">  c #3B403F",
",  c #582E2D",
"<  c #41403F",
"1  c #464644",
"2  c #504F4D",
"3  c #545452",
"4  c #595856",
"5  c #5C5B59",
"6  c #625E5C",
"7  c #61605E",
"8  c #646361",
"9  c #6C6B69",
"0  c #787774",
"q  c #757875",
"w  c #131385",
"e  c #1A1986",
"r  c #22228B",
"t  c #28278D",
"y  c #2D2D8F",
"u  c #383893",
"i  c #0202FE",
"p  c #1E1EF7",
"a  c #1313FA",
"s  c #2322F6",
"d  c #2C2CF3",
"f  c #3D3CEF",
"g  c #3938F0",
"h  c #3433F3",
"j  c #403F96",
"k  c #454497",
"l  c #4E4E9B",
"z  c #53529D",
"x  c #5C5BA0",
"c  c #6F6EA7",
"v  c #6E6DA8",
"b  c #6262A2",
"n  c #7574AA",
"m  c #7B7AAA",
"M  c #4444EE",
"N  c #4B4AED",
"B  c #0B820A",
"V  c #138412",
"C  c #188818",
"Z  c #248C23",
"A  c #2B8F2A",
"S  c #3C953A",
"D  c #339332",
"F  c #449842",
"G  c #499A47",
"H  c #4C9C4A",
"J  c #539E51",
"K  c #57A055",
"L  c #59A056",
"P  c #6AA667",
"I  c #6DA969",
"U  c #65A562",
"Y  c #71AA6D",
"T  c #7EAF7A",
"R  c #77AC74",
"E  c #AD2827",
"W  c #AE4B4A",
"Q  c #E41111",
"!  c #E01D1D",
"~  c #FE0101",
"^  c #FC0B0B",
"/  c #F91E1E",
"(  c #FB1514",
")  c #F9201F",
"_  c #FA2120",
"`  c #F82D2C",
"'  c #F4302F",
"]  c #F43534",
"[  c #F0413F",
"{  c #C25E5C",
"}  c #ED4C4A",
"|  c #EA5957",
" . c #EC5B5A",
".. c #F24240",
"X. c #F24B49",
"o. c #F15351",
"O. c #F05A58",
"+. c #E9605E",
"@. c #E66765",
"#. c #E96967",
"$. c #EB6C69",
"%. c #E37D7A",
"&. c #EA7E7B",
"*. c #807EDF",
"=. c #E5827E",
"-. c #898784",
";. c #8A8986",
":. c #8D8C88",
">. c #858481",
",. c #908E8A",
"<. c #93918D",
"1. c #98918E",
"2. c #979491",
"3. c #999593",
"4. c #9B9996",
"5. c #9E9C99",
"6. c #8280AC",
"7. c #8887B1",
"8. c #8A89B1",
"9. c #9593B4",
"0. c #9896B6",
"q. c #85B181",
"w. c #8FB58A",
"e. c #8BB387",
"r. c #97B993",
"t. c #9BBA96",
"y. c #A09E9B",
"u. c #A3A19E",
"i. c #A3BD9E",
"p. c #B2A29F",
"a. c #A6A4A1",
"s. c #A9A7A3",
"d. c #AAA8A5",
"f. c #ADACAA",
"g. c #AAA8BC",
"h. c #A5A3BB",
"j. c #A5BEA1",
"k. c #B0AEAA",
"l. c #B2B0AE",
"z. c #B6B4B1",
"x. c #B8B6B2",
"c. c #BCB9B5",
"v. c #BDBCB9",
"b. c #8685DD",
"n. c #AAA8DA",
"m. c #AEACD5",
"M. c #B9B7C2",
"N. c #B8B6CE",
"B. c #BDBBC3",
"V. c #BEBCCF",
"C. c #B6B4C1",
"Z. c #B6B5D7",
"A. c #BCBAD0",
"S. c #A4C0A0",
"D. c #ABC1A6",
"F. c #AEC1A9",
"G. c #B0C3AB",
"H. c #B6C6B1",
"J. c #B8C4B2",
"K. c #BFC7B9",
"L. c #C18F8C",
"P. c #DA9592",
"I. c #C0BDB4",
"U. c #C1BCBB",
"Y. c #D9A7A4",
"T. c #D8AAA7",
"R. c #D8AFAB",
"E. c #DDB2AD",
"W. c #D6BAB6",
"Q. c #E18A88",
"!. c #E18583",
"~. c #E7918E",
"^. c #E8928F",
"/. c #E69693",
"(. c #E39E9A",
"). c #E0A09C",
"_. c #E0ADA9",
"`. c #E3A7A3",
"'. c #E2B0AC",
"]. c #E0BAB6",
"[. c #C1BFCD",
"{. c #C3C2BD",
"}. c #C2C9BC",
"|. c #C4C2B1",
" X c #D3C0BD",
".X c #C5C4C1",
"XX c #C2C0CD",
"oX c #C7CBC1",
"OX c #C9C6C2",
"+X c #CBCAC5",
"@X c #CDCCC9",
"#X c #C9C7D2",
"$X c #C5D4CF",
"%X c #CFD1CB",
"&X c #C6DBD6",
"*X c #C6DCD8",
"=X c #CCD4D0",
"-X c #CEDAD6",
";X c #CDDDD9",
":X c #D2CCC7",
">X c #D1CECA",
",X c #DBCAC5",
"<X c #DCCCC8",
"1X c #D4D2C5",
"2X c #D4D2CD",
"3X c #D9D7C7",
"4X c #D9D4CC",
"5X c #DCDAC3",
"6X c #DCDACE",
"7X c #D5D3D1",
"8X c #D6DAD5",
"9X c #D4DDD8",
"0X c #D9D4D2",
"qX c #DED3D8",
"wX c #DBD9D4",
"eX c #DEDDD9",
"rX c #CDE0DB",
"tX c #D5E1DB",
"yX c #DAE4DE",
"uX c #D5E7E1",
"iX c #D5E9E4",
"pX c #DBE6E1",
"aX c #DBE9E4",
"sX c #DBEDE8",
"dX c #E0DEC1",
"fX c #E0D7D2",
"gX c #E1D5DB",
"hX c #E0DED2",
"jX c #E0DEDA",
"kX c #E6DBE1",
"lX c #E8D8E2",
"zX c #E6E4C5",
"xX c #E2E0DC",
"cX c #E8E6D4",
"vX c #EAE5D9",
"bX c #F0EEC3",
"nX c #F3F1C2",
"mX c #E5E4E2",
"MX c #E3EAE5",
"NX c #E1EDE8",
"BX c #E8E6E2",
"VX c #EAE9E6",
"CX c #EDECE9",
"ZX c #E5F2EE",
"AX c #EDF0EA",
"SX c #E6F6F1",
"DX c #E9F8F4",
"FX c #E9F5F1",
"GX c #F1EEEC",
"HX c #F1EFF0",
"JX c #F2F0EE",
"KX c #F3F3F2",
"LX c #F0FCFC",
"PX c #F9F6F3",
"IX c #F9F8F6",
"UX c #FDFDFC",
/* pixels */
"wXwXwXwXeXwXwXwXwXwXwXwXwXwXwXwXwXwXwXwXwXwXwXwXwXwXwXwXwXwXwXwXwXwXwXwXwXwXwXwXwXwXwXwXwXwXwXeX",
"wXwXwXwXwXwXwXwXwXwXwXwXwXwXwX6XwXwXwXwXwXwXwXwXwXwXwXwXwXwXwXwXwXwXwXwXwXwX0XwXwXwXwXwXwXwXwXwX",
"wXwXwXwX0X0XwXwX0X0X0X0XwX0XwXyXhXeXeXeXeXeXeXeXeXeXeXwXhXyXeXeXxXwXeXeXxXwXeXeXeXyXeXwXwXwXwXwX",
"wXwXwXwXxXxXxXxXxXxXxXxXvXyX+X@X+X+X+X+X+X+X+X@X+X:X+X+X X+X+X+X+X@X+X+X+X+X+X+X X+X>XxXwXwXwXeX",
"wXwXwXjXUXIXIXIXPXUXIXIXIXf.f.c.x.U.U.c.x.c.c.a.x.x.v.U.U.x.x.c.k.a.v.x.c.|.c.c.c.l.2XUXyX0XwXwX",
"wX8X0XjXIX0X8XpXaX].<XyXc.;.>X0X>Xj.F.2X0X2X2Xz.2X0XoXi.H.0X2X7X+Xc.0X7X@Xn.Z.2X4X2XkXUXeXwXwXwX",
"wXwXwXxXIXwXwX~.[ ^ _.pXv.:.+X+XA Z B A K.2X@Xk.0Xt.V Z B L 2X>X.Xz.4XN.d i d 3X%X+XeXUXeXwXwXwX",
"wXwXwXxXIX,Xo.~ ~ ~ _.MXv.:.>X}.T 4Xj.; q.qX@Xk.0Xj.w.kXU : }.7X}.x.4XXXV.g s 6X@X@XyXUXeXwXwXwX",
"eXwXwXxXIX8X<X_. .~ _.pXc.:.+X>X0XlXq.; r.0X@Xl.@X@XqXqXG B oX2X.Xz.2X@XzXg s 0X@X@XxXUXeXwXwXwX",
"wXwXwXxXIXwXwXtXFX, p.VXc.:.+X2X2XR : H 4X@X2Xk.@X0XoXG : q.0X>X.Xx.2X@XbXM s VX@X@XxXUXeXwXwXwX",
"wXwX0XxXIXwXxXvX:Xo f.PXv.:.+X%XS ; V I J.2X>Xk.7Xz.V ; A q.+X2X}.z.4XXXb.s a m A.>XjXUXeXwXwXeX",
"wXwX0XxXIXxXf.> o   O >.c.:.>X+XG H H D t.qX%Xk.7Xj.S H F S }.2X.Xx.0XA.g N N h m.1XjXUXeXwXwXwX",
"wXwX6XjXKXU.5.<.4.u.3.<.a.:.{.>XqXqX0XqX@X+X+Xk.2X0XlXjXkXkX7X0X@Xk.@X+X5X5X5X5X1X.XeXUXeXwXwXwX",
"wXwXwXyXk.-.2.1.1.1.2.3.:.a.mXmXkXyXkXjXmXmXCXk.x.x.l.l.k.f.z.x.l.>XVXmXmXmXjXmXmXBXCXUXeXwXwXwX",
"wXwXxX+Xk.>X@X&X&X$X+X+X.XxXUXJXJXJXKXLXJXIX@X5.OX{.{..X3X>X.X{.+XUXJXJXGXKXLXKXKXmX+XUXeXwXwXwX",
"wXwXwX+Xc.7XR.#. .Q.>X2X@XmXCX7XaX8XW.%.0XwX5.4.0X2X2X2Xn v @X2X7XIX8XeXtX4X=.E.yXx.f.UXwXwXwXhX",
"wXwXxX+Xx.9X .} | ~  .;X+XmXKX<X~.` ~ ) eXyXu.5.2X@X6Xx = - v.@X2XIXeX'.o.^ ~ (.NXI.k.UXeX0XwXwX",
"wXwXeX+Xx.2X@X>XW.( +.;XOXmXKXE.] ~ ~ _ wXjXu.5.>X6Xn u n = OX2X7XIX0X$.~ ^ ~ (.sXI.l.UXyX0XwXwX",
"wXwXeX+Xc.>X;X} ~ ^ Y.7X+XBXJX9XyX4X#.! 8XeXa.4.wXg.= 0.n = h.@X2XIXeXyXeX`.Q P.NXc.l.UXeX0XwXwX",
"wXwXeX+Xc.2X X&X%X^ [ ;XOXBXKX4X0XAX$X+ xXeXa.4.hX0.w t w = r XX0XIX8X0XwXUX> 2.JXc.l.UXeXwXeXwX",
"wXwXeX+Xx.tX| ' ] ^ %.&X+XBXCX4XwXx.6 X x.vXa.4.2X>X>XhXm * [.1X2XIXqXeX{.4.. q vXv.k.UXjX0XwXwX",
"wXwXeX+Xc.7XW.!.=.T.%X>X+XmXPX0X0 # @ # # 2.d.4.2X>X>X4XM.7.@X>X2XIXVXa.& + # @ 8 k.x.UXeXwXwXwX",
"wX0XeX+Xx.2X2X;X;X-X>X@XoXVX@X5.y.d.f.d.d.5.2.4.>X+X+X+X>X6X:XOX8XmXy.4.u.d.d.d.u.<.l.UXeXwXwXwX",
"wXwXhX:Xa.l.f.k.k.k.k.k.l.l.5.5.y.4.4.3.4.5.4.7XIXJXKXKXJXJXKXKXCXVXjXpXqXeXqXeXjXjXyXUXeXwXwXwX",
"wXwXyX Xc.2X4XqX0XqX@X@X2Xl.OX0X2X4XyXwX7X2X@XKXCXkXvXZXSXMXmXkXd.KXCXVXVXDXFXVXCX7Xc.UXeXwXwXwX",
"wXwXxX+Xx.wXe.D Z J .X2X2Xx.{.%X>X1Xz e 0.0X@XKXmXtXyX_. .$.uX>X4.PXwXuX4X(.[ (.aXx.f.UXeXwXwXwX",
"wXwXxX+Xx.qXH I w.: J qX2Xx..X>X6Xb e * 6.6X@XJXMX).` ~ ~  .sX>Xy.KX0X&.( ~ ~ (.NXI.z.UXeX4XwXeX",
"wXwXwX+Xc.2X@XgXlXC F qX2Xz.{.wX8.y B.= 9.cXOXKXBXE.O.' ~  .sX4Xy.IXwX/.X./ ~ (.MXI.k.UXeXwXwXwX",
"wXwXeX+Xc.2X2X@XJ ; w.4X2Xz..X@X- k c = u B.2XJXmXeXsXaX{ W NX>Xy.IXeXpXpXfXE p.NXc.k.UXeXwXwXwX",
"wX0XeX+Xx.8XF.A : U 2X@X2Xz.OX@Xz z j = r g.2XKXmX4XjXUXq 3 UX2X5.PX8XqXvXPX$ u.UXc.l.UXeX0XwXwX",
"wXwXeX+Xx.jXF : V C J qX2Xz..X2XhXcX>X= 9.cXoXKXBX0Xu.7 X + 4.:Xy.KXeX>X;.2   1 x.v.k.UXjX6XwXwX",
"wXwXeX@Xx.2X}.{.K.J.}.>X2Xl..X@X+X@X+XB.OX@X+XJXBXx.7 2 6 5 4 5.u.HXjX5.3 3 8 3 9 a.z.UXeXwXwXyX",
"wXwXeX:Xv.0X7X0X0X0X8X@XwXU.@X7X2X2X2X8X2X2X0XCXd.y.l.z.l.l.l.u.d.eX5.a.l.z.f.l.k.4.U.UXjXwXwXwX",
"wXwXwXeXUXUXIXIXIXIXIXUXKXeXUXIXUXIXUXIXIXUXmXmXIXKXKXKXKXJXJXIXeXJXIXKXJXJXKXKXKXJXeXUXxXwXwXwX",
"wXwX0XxXIX8XeXwXeXeX8XxXz.c.IX0XeXwXwXwX8XkXu.eXCX0X8XeXeXwXyX0X5.KXeXeXwXeXeXwXkX{.f.UXeXwXwXwX",
"wXwX0XxXIX0XwX0XwXwXwXeXz.v.IX7XwXwXwXwX0XjXu.yXVX0XwX0XwXwXwX2Xy.IX8X0XwXwXwXwXyXv.k.UXeXwXwXwX",
"wXwXwXxXIXwXwXeXwXwXwXxXl.v.IX7XwXwXwXeXqXeXy.yXVX0XwXwXwXwXwX4X5.IXeX0XwXwXwXwXxXv.l.UXeX0X8XwX",
"wXwX8XxXIXwXwXwXwXwXwXxXz.v.IX2XwXwXwXwX8XeXy.jXCX4XwXwXwXwXeX2X5.IXeXwXwXwXwXwXxXv.l.UXeX0XwXwX",
"wXwXwXxXIXwXwXwXwXwXwXxXz.v.IX0XwXwXwXwXeXjXy.jXCX4X8XwXwXwXwX2X5.KXeXwXwXwXwXwXxXv.l.UXxXwXwXwX",
"wXwXwXvXIX8XwXwX0XwX0XxXl.v.IX2XwXwXwXwX0XjXu.eXVX4X8XwXwXwXwX2X5.IX8XwXwXwXwX0XxXc.k.UXwXwXwXwX",
"wXwX0XxXUXeXxXxXxXxXeXBXc.v.IXeXxXxXxXxXeXBXu.eXGXeXxXxXxXxXxXwXy.IXxXjXxXxXxXxXBX{.l.UXeXwXwXwX",
"wX8X0XxXJXc.v.v.v.J.v.{.y.c.VXz.v.v.v.v.c.{.<.yX2Xx.v.v.c.v.I.x.2.JX{.v.v.v.c.U.{.u.k.UXeXwXwXwX",
"wXwX7XmXwXf.z.k.k.l.l.z.f.8X@Xd.z.k.k.k.k.l.z.kXc.f.z.k.k.k.k.l.B.eXk.l.k.k.k.l.k.k.@XUXeXwXwXwX",
"yXwXwXxXUXUXUXUXUXUXUXUXUXUXUXUXUXUXUXUXUXUXUXUXUXUXUXUXUXUXUXUXUXUXUXUXUXUXUXUXUXUXUXUXeXwXwXwX",
"wXwXwXwXeXeXeXeXeXyXeXxXeXeXxXwXeXeXeXeXeXeXeXeXeXeXeXeXeXeXeXeXeXeXeXeXxXyXeXeXeXeXeXxXwXwXwXwX",
"wXwXwXwXwXwXwX4X6X0X0XwXwX0X0XwXwXwXwX0X0X6XwXwXwXwX0X0X0XwXwXwXwXwX0X0XwXwX4XwX0X0XwXwXwXwXwXwX",
"wXhXwXwXwXwXwXwXwXwXwXwXwXwX8XwXwXwXwXwXwXwXwXyXwXwXwXwXwXeXwXwXwXwXwXwXwXwXwXwXwXwXwXwXwXwXwXwX",
"wXwXwXwXwXeXwXwXwXwXwXwXeXwXwXwXwXwXwXeXwXwXwXwXwXwXwXwXwXwXwXwXwXwXwXwXwXwXwXwXwXwXwXwXwXwXeXwX"
};
