/* XPM */
static char * mm_xpm[] = {
"32 32 620 2",
"  	c None",
". 	c #7C8196",
"+ 	c #8C92A6",
"@ 	c #9095A8",
"# 	c #979CAE",
"$ 	c #989CAE",
"% 	c #989EAF",
"& 	c #9A9CB0",
"* 	c #9A9EB0",
"= 	c #9CA0B0",
"- 	c #888B9C",
"; 	c #6D6F7E",
"> 	c #737685",
", 	c #989CAC",
"' 	c #9EA1B2",
") 	c #9FA2B3",
"! 	c #A0A4B3",
"~ 	c #A1A5B4",
"{ 	c #A2A5B4",
"] 	c #979CAD",
"^ 	c #848A9E",
"/ 	c #7B8094",
"( 	c #B9C3D4",
"_ 	c #ABB1BE",
": 	c #A4A9B3",
"< 	c #C4CAD8",
"[ 	c #CDD4E1",
"} 	c #CDD5E1",
"| 	c #CFD7E3",
"1 	c #D1D5E4",
"2 	c #CED3E1",
"3 	c #85888D",
"4 	c #939394",
"5 	c #ABABAC",
"6 	c #A1A1A2",
"7 	c #757678",
"8 	c #A3A6AD",
"9 	c #D9DDE8",
"0 	c #DCE0EA",
"a 	c #DDE2EA",
"b 	c #DBE0E8",
"c 	c #A4A7AF",
"d 	c #B9BDC9",
"e 	c #BCC6D6",
"f 	c #888DA1",
"g 	c #898FA3",
"h 	c #BAC4D5",
"i 	c #BBC1CF",
"j 	c #B5BCCB",
"k 	c #C7CEDB",
"l 	c #CDD6E1",
"m 	c #D0D6E3",
"n 	c #8A8E96",
"o 	c #4F4F4F",
"p 	c #646464",
"q 	c #636363",
"r 	c #212122",
"s 	c #B8BDC6",
"t 	c #D9DDE9",
"u 	c #DCE1E9",
"v 	c #DADFE8",
"w 	c #BCC0CD",
"x 	c #C9CED9",
"y 	c #C2CBDA",
"z 	c #9CA4B6",
"A 	c #9299AC",
"B 	c #B4BCCA",
"C 	c #AEB7C4",
"D 	c #AEB7C6",
"E 	c #B0B9C7",
"F 	c #B1B9C8",
"G 	c #B4BCC9",
"H 	c #B5BECB",
"I 	c #4B4E53",
"J 	c #0F100F",
"K 	c #1C1C1C",
"L 	c #181818",
"M 	c #030303",
"N 	c #616469",
"O 	c #D7DCE7",
"P 	c #DCE1EA",
"Q 	c #C7CED8",
"R 	c #B3BCC8",
"S 	c #DEE3EB",
"T 	c #C6CEDC",
"U 	c #A6AEC0",
"V 	c #9BA2B5",
"W 	c #BDC6D6",
"X 	c #99A2B2",
"Y 	c #76787D",
"Z 	c #565658",
"` 	c #5C5D5E",
" .	c #5E5E60",
"..	c #616264",
"+.	c #646466",
"@.	c #242425",
"#.	c #9D9D9D",
"$.	c #454546",
"%.	c #232323",
"&.	c #D9D9D9",
"*.	c #8C8C8C",
"=.	c #010101",
"-.	c #303133",
";.	c #D2D8E2",
">.	c #D8DDE7",
",.	c #ADB4C3",
"'.	c #C8D0DE",
").	c #AEB8C9",
"!.	c #A5ACBE",
"~.	c #AAB1C1",
"{.	c #48494C",
"].	c #3A3A3B",
"^.	c #3E3E3F",
"/.	c #444444",
"(.	c #464648",
"_.	c #4A4A4B",
":.	c #272727",
"<.	c #868686",
"[.	c #7F7B75",
"}.	c #6E685E",
"|.	c #898888",
"1.	c #ABABAB",
"2.	c #040404",
"3.	c #292A2C",
"4.	c #CFD4E0",
"5.	c #DADEE9",
"6.	c #ACB4BF",
"7.	c #CCD3E0",
"8.	c #B7C1D2",
"9.	c #ADB6C8",
"0.	c #C3CBDA",
"a.	c #D3DAE4",
"b.	c #AAABAD",
"c.	c #A3A4A6",
"d.	c #A5A6A8",
"e.	c #A7A8AA",
"f.	c #A8AAAB",
"g.	c #ABABAD",
"h.	c #474849",
"i.	c #897942",
"j.	c #EEDB79",
"k.	c #FBE9A0",
"l.	c #AF904C",
"m.	c #988259",
"n.	c #1F2022",
"o.	c #CCD2DD",
"p.	c #D6DCE6",
"q.	c #D8DDE8",
"r.	c #A9B3BE",
"s.	c #CFD6E2",
"t.	c #505269",
"u.	c #B6C0D1",
"v.	c #C3CCDA",
"w.	c #DFE4EB",
"x.	c #DDE1EA",
"y.	c #DEE2EA",
"z.	c #DEE3EA",
"A.	c #DFE3EB",
"B.	c #7E7A74",
"C.	c #F6E12E",
"D.	c #FFEB56",
"E.	c #FEDD53",
"F.	c #FDC443",
"G.	c #E8A21D",
"H.	c #040302",
"I.	c #060606",
"J.	c #B6BBC6",
"K.	c #D5DBE6",
"L.	c #A8B1BC",
"M.	c #DBDFEA",
"N.	c #D2D9E4",
"O.	c #64667C",
"P.	c #4E4F66",
"Q.	c #BFC9D8",
"R.	c #C3CDDB",
"S.	c #C7CDDC",
"T.	c #C9CDDC",
"U.	c #CACFDD",
"V.	c #CAD1DE",
"W.	c #C5CCDA",
"X.	c #62656B",
"Y.	c #DBC169",
"Z.	c #FDCA04",
"`.	c #FCB302",
" +	c #F0A826",
".+	c #E3CA9F",
"++	c #151515",
"@+	c #6E7178",
"#+	c #D6DBE6",
"$+	c #A8B0BD",
"%+	c #D7DBE7",
"&+	c #707388",
"*+	c #616379",
"=+	c #C0CAD9",
"-+	c #C8CDDB",
";+	c #A9B1C1",
">+	c #A4ADBD",
",+	c #A3ACBA",
"'+	c #2A2B2E",
")+	c #EDEDED",
"!+	c #FBE4B8",
"~+	c #F0D5A6",
"{+	c #F4F1EC",
"]+	c #FDFDFD",
"^+	c #888888",
"/+	c #131415",
"(+	c #BDC2CD",
"_+	c #A9B2BE",
":+	c #70748A",
"<+	c #73768B",
"[+	c #C1CBDA",
"}+	c #B1BCCB",
"|+	c #929BAB",
"1+	c #B9BFCE",
"2+	c #C8CCDC",
"3+	c #4D4F54",
"4+	c #8D8D8D",
"5+	c #E3E4E5",
"6+	c #050505",
"7+	c #414348",
"8+	c #D1D6E2",
"9+	c #ABB5C0",
"0+	c #CED4DE",
"a+	c #6E7187",
"b+	c #ABB5C4",
"c+	c #9AA5B5",
"d+	c #C4CDDB",
"e+	c #868993",
"f+	c #111212",
"g+	c #F1F1F1",
"h+	c #F8F9FB",
"i+	c #F4F6F6",
"j+	c #4B4C4C",
"k+	c #7A7D84",
"l+	c #D4DBE6",
"m+	c #B1BAC6",
"n+	c #CAD0DB",
"o+	c #888EA2",
"p+	c #7A7F93",
"q+	c #BEC9D8",
"r+	c #B6C1D0",
"s+	c #9BA6B6",
"t+	c #222426",
"u+	c #5C5C5C",
"v+	c #F3F4F4",
"w+	c #BBBBBB",
"x+	c #0A0B0B",
"y+	c #070808",
"z+	c #C9CFDB",
"A+	c #BBC3CE",
"B+	c #BFC8D8",
"C+	c #84899D",
"D+	c #878CA0",
"E+	c #BAC4D4",
"F+	c #BDC8D7",
"G+	c #A5AFBF",
"H+	c #BEC8D6",
"I+	c #9198A2",
"J+	c #101111",
"K+	c #D1D1D1",
"L+	c #EFEFEF",
"M+	c #EAEAEA",
"N+	c #3C3D3D",
"O+	c #0C0D0E",
"P+	c #0A0A0A",
"Q+	c #66696F",
"R+	c #D4DAE6",
"S+	c #BDC3CF",
"T+	c #D2D8E3",
"U+	c #D7DDE7",
"V+	c #898FA2",
"W+	c #82879C",
"X+	c #B3BBCA",
"Y+	c #C4CEDC",
"Z+	c #4E5157",
"`+	c #4E4E4F",
" @	c #ECECEC",
".@	c #E6E6E6",
"+@	c #707070",
"@@	c #141414",
"#@	c #101011",
"$@	c #252627",
"%@	c #CAD1DB",
"&@	c #CCD3DE",
"*@	c #CDD3DF",
"=@	c #C5CDDB",
"-@	c #878DA1",
";@	c #BBC5D6",
">@	c #C5D0DD",
",@	c #A5AEB8",
"'@	c #1C1B1B",
")@	c #8A8A8A",
"!@	c #E2E2E2",
"~@	c #858585",
"{@	c #1A1A1A",
"]@	c #171616",
"^@	c #AFB4BE",
"/@	c #D2D8E4",
"(@	c #C7CFDD",
"_@	c #9097AA",
":@	c #DCE0EC",
"<@	c #C7D2DE",
"[@	c #C5D1DD",
"}@	c #71767D",
"|@	c #24201A",
"1@	c #A3A3A3",
"2@	c #DCDCDC",
"3@	c #8E8E8E",
"4@	c #2F2F2F",
"5@	c #313131",
"6@	c #1A1919",
"7@	c #A3A7AE",
"8@	c #DDE2EB",
"9@	c #C9D2DF",
"0@	c #A4ACBE",
"a@	c #9AA2B4",
"b@	c #D8DEE8",
"c@	c #DFE4EC",
"d@	c #BEA36F",
"e@	c #E8B24B",
"f@	c #A18B64",
"g@	c #F1F2F3",
"h@	c #D2B788",
"i@	c #836A3E",
"j@	c #323233",
"k@	c #3D3323",
"l@	c #BBBEC4",
"m@	c #ECEFF4",
"n@	c #AFB7C9",
"o@	c #A4ADBE",
"p@	c #BFCAD9",
"q@	c #E7E1D9",
"r@	c #D2B787",
"s@	c #F5CB74",
"t@	c #FFE7B7",
"u@	c #E9BE68",
"v@	c #726858",
"w@	c #E1E2E2",
"x@	c #D7D7D7",
"y@	c #E3B760",
"z@	c #A18D6A",
"A@	c #181817",
"B@	c #252019",
"C@	c #D4B067",
"D@	c #C8BAA4",
"E@	c #D0D7E3",
"F@	c #B8C3D3",
"G@	c #AFB9C9",
"H@	c #BDC8D8",
"I@	c #BCB8AE",
"J@	c #F7BF3A",
"K@	c #FEDA7E",
"L@	c #FFE090",
"M@	c #FFE08F",
"N@	c #B68D34",
"O@	c #505050",
"P@	c #D0D0D0",
"Q@	c #D2D2D2",
"R@	c #E5BE63",
"S@	c #FFE3A4",
"T@	c #E2C27D",
"U@	c #F1D291",
"V@	c #FFE19A",
"W@	c #CCA65F",
"X@	c #BECAD9",
"Y@	c #B9B7B1",
"Z@	c #FCCE3A",
"`@	c #FFDC6A",
" #	c #FCD758",
".#	c #7E6738",
"+#	c #A9A9A9",
"@#	c #C2C2C2",
"##	c #DFB64F",
"$#	c #FFDE7C",
"%#	c #FEDA71",
"&#	c #D7B463",
"*#	c #CFD3DC",
"=#	c #616479",
"-#	c #4B4C63",
";#	c #BFCBDA",
">#	c #B1BBC9",
",#	c #B0B7C3",
"'#	c #BDBAB2",
")#	c #FDCD0B",
"!#	c #FED834",
"~#	c #FFD93B",
"{#	c #FED620",
"]#	c #FFD310",
"^#	c #FFD623",
"/#	c #F1C624",
"(#	c #DDD4C1",
"_#	c #5D5D5E",
":#	c #E9BE2B",
"<#	c #FFDB52",
"[#	c #FFDA4D",
"}#	c #FFD62F",
"|#	c #FFD527",
"1#	c #FFD734",
"2#	c #CEA420",
"3#	c #ADB1B9",
"4#	c #BDC1CB",
"5#	c #C7CCD7",
"6#	c #C1CCDA",
"7#	c #747A8D",
"8#	c #5E6077",
"9#	c #858994",
"0#	c #9FA5B2",
"a#	c #B6AD94",
"b#	c #FED901",
"c#	c #FFDD00",
"d#	c #C2A32B",
"e#	c #7F8080",
"f#	c #7B7B7C",
"g#	c #656565",
"h#	c #545454",
"i#	c #5F5649",
"j#	c #FED502",
"k#	c #FFDA06",
"l#	c #FFD902",
"m#	c #FFD900",
"n#	c #F0C80A",
"o#	c #A58A46",
"p#	c #A0A3A9",
"q#	c #A6ABB6",
"r#	c #9699A4",
"s#	c #ADB3C1",
"t#	c #C6D0DD",
"u#	c #75798E",
"v#	c #72768B",
"w#	c #C0CAD8",
"x#	c #BDC6D3",
"y#	c #AB9E78",
"z#	c #BCA43D",
"A#	c #D7B91D",
"B#	c #F8D807",
"C#	c #FFE800",
"D#	c #B19826",
"E#	c #616266",
"F#	c #65676C",
"G#	c #6A6D71",
"H#	c #6B6D72",
"I#	c #6D665D",
"J#	c #FCE102",
"K#	c #DBBB1B",
"L#	c #958E81",
"M#	c #C2C9D4",
"N#	c #CDD2DE",
"O#	c #D5DCE6",
"P#	c #C8D2DE",
"Q#	c #7F8396",
"R#	c #73778C",
"S#	c #D2DBE5",
"T#	c #DEE5EC",
"U#	c #DFE5EC",
"V#	c #DDE3EB",
"W#	c #D6DBE4",
"X#	c #C8CCD3",
"Y#	c #B7B4B0",
"Z#	c #C2AE66",
"`#	c #D4BE2C",
" $	c #BDA839",
".$	c #ADACAD",
"+$	c #D6DBE3",
"@$	c #DAE0E7",
"#$	c #DDE2E9",
"$$	c #D7DBE2",
"%$	c #D0BC63",
"&$	c #D7C029",
"*$	c #C6AE3D",
"=$	c #B1AEAA",
"-$	c #E2E6EC",
";$	c #E8EBF1",
">$	c #E8ECF1",
",$	c #E8ECF2",
"'$	c #E2E8EE",
")$	c #D6DEE7",
"!$	c #8C93A5",
"~$	c #8D8E9E",
"{$	c #C7CDD5",
"]$	c #AEB7C2",
"^$	c #ADB6C1",
"/$	c #AAB3BE",
"($	c #9BA4AF",
"_$	c #9BA4B0",
":$	c #ACB5C0",
"<$	c #A7B0BB",
"[$	c #97A0AB",
"}$	c #9CA4B1",
"|$	c #AEB6C2",
"1$	c #BFC6CF",
"2$	c #A0A2AF",
"3$	c #777C8F",
"4$	c #949EAE",
"5$	c #808897",
"6$	c #676D79",
"7$	c #686E7B",
"8$	c #696F7D",
"9$	c #6A717E",
"0$	c #6B7180",
"a$	c #6D7380",
"b$	c #6F7582",
"c$	c #707682",
"d$	c #707684",
"e$	c #717784",
"f$	c #727886",
"g$	c #6E7481",
"h$	c #747A88",
"i$	c #707683",
"j$	c #737A87",
"k$	c #747A87",
"l$	c #727985",
"m$	c #737987",
"n$	c #787F8B",
"o$	c #7A7F91",
"p$	c #808699",
"q$	c #A4ADBC",
"r$	c #8B91A0",
"s$	c #5A5A68",
"t$	c #5C5C69",
"u$	c #5D5D6C",
"v$	c #636372",
"w$	c #6B6B78",
"x$	c #71717F",
"y$	c #777787",
"z$	c #787988",
"A$	c #7D7E8C",
"B$	c #818190",
"C$	c #828290",
"D$	c #404146",
"E$	c #868694",
"F$	c #4C4D53",
"G$	c #7E7E8B",
"H$	c #55555D",
"I$	c #757682",
"J$	c #5D5D66",
"K$	c #6C6C77",
"L$	c #72747A",
"M$	c #828799",
"N$	c #7E8194",
"O$	c #B3BACA",
"P$	c #A0A6B3",
"Q$	c #75767E",
"R$	c #7C7D8A",
"S$	c #7E8092",
"T$	c #848697",
"U$	c #8A8B9B",
"V$	c #9091A2",
"W$	c #9696A8",
"X$	c #9898AA",
"Y$	c #9A9BAD",
"Z$	c #A0A0B1",
"`$	c #A2A3B5",
" %	c #686873",
".%	c #ACADBC",
"+%	c #7A7B84",
"@%	c #A5A6B5",
"#%	c #81828C",
"$%	c #9D9FAC",
"%%	c #888A94",
"&%	c #9293A1",
"*%	c #999BA5",
"=%	c #73987D",
"-%	c #6AA169",
";%	c #8DA19E",
">%	c #898EA1",
",%	c #7B7E93",
"'%	c #C2C8D8",
")%	c #B0B6C4",
"!%	c #797A7E",
"~%	c #8D8D92",
"{%	c #9798A0",
"]%	c #9697A3",
"^%	c #9698A6",
"/%	c #9C9CAF",
"(%	c #A5A6B9",
"_%	c #A7A8BC",
":%	c #ABADC0",
"<%	c #B3B6C6",
"[%	c #B8BACC",
"}%	c #8F909E",
"|%	c #C8CBD8",
"1%	c #A6A8B2",
"2%	c #C3C6D3",
"3%	c #ACAEB7",
"4%	c #BDC0CD",
"5%	c #B0B2BD",
"6%	c #B2B4C4",
"7%	c #BDBEC8",
"8%	c #55BA58",
"9%	c #0FC30F",
"0%	c #88B792",
"a%	c #8C8FA1",
"b%	c #C5CAD9",
"c%	c #CDD1DF",
"d%	c #D0D2DB",
"e%	c #D4D6DE",
"f%	c #D9DBE1",
"g%	c #DBDDE3",
"h%	c #DCDEE6",
"i%	c #DDDFE8",
"j%	c #DBDEE8",
"k%	c #DBDFE8",
"l%	c #DEE1EA",
"m%	c #DFE2EB",
"n%	c #DDE0E8",
"o%	c #E2E4EE",
"p%	c #E1E3EC",
"q%	c #E0E3EC",
"r%	c #E2E5EC",
"s%	c #D2D6E4",
"t%	c #CFD7DF",
"u%	c #B6D5C1",
"v%	c #D4D8E6",
"w%	c #CFD3E1",
"x%	c #77798E",
"y%	c #888A9D",
"z%	c #A9ABBB",
"A%	c #AEB1C1",
"B%	c #ABAEBE",
"C%	c #8C8EA0",
"      . + @ # $ $ % & & * = - ; > , ' ) ! ! ! ! ~ { ] + ^       ",
"    / ( ( _ : < [ } | 1 2 3 4 5 6 7 8 9 0 a a a b c d e ( f     ",
"    g ( h i j k [ [ l m n o p q q q r s t 0 a u v w x y ( z     ",
"    A ( e B C D E F G H I J K K K L M N O t P Q R a S T ( U     ",
"    V ( W X Y Z `  ...+.@.#.$.%.&.*.=.-.;.>.t P ,.a a '.( ).    ",
"    !.( e ~.{.].^./.(._.:.<.[.}.|.1.2.3.4.>.>.5.6.a a 7.( 8.    ",
"    9.( 0.a.b.c.d.e.f.g.h.i.j.k.l.m.=.n.o.p.>.q.r.a a s.( ( t.  ",
"    u.( v.w.P x.y.z.z.A.B.C.D.E.F.G.H.I.J.K.>.>.L.M.a N.( ( O.  ",
"  P.( ( Q.R.R.S.T.U.V.W.X.Y.Z.`. +.+++=.@+K.#+>.$+%+0 p.( ( &+  ",
"  *+( ( =+R.R.R.-+;+>+,+'+)+!+~+{+]+^+=./+(+K.p._+;.9 q.( ( :+  ",
"  <+( ( [+R.R.}+|+1+2+3+4+]+]+]+]+]+5+6+=.7+8+K.9+0+>.9 ( ( .   ",
"  a+( ( =+R.b+c+R.d+e+f+g+]+]+]+]+h+i+j+M =.k+l+m+n+>.>.e ( o+  ",
"  p+( ( q+r+s+R.R.y t+u+]+]+]+]+h+i+v+w+x+y+/+(+z+A+O >.B+( C+  ",
"  D+( E+F+G+H+R.R.I+J+K+]+]+]+h+i+v+L+M+N+O+P+Q+R+S+T+U+y ( V+  ",
"  W+( E+e X+R.R.Y+Z+`+]+]+]+h+i+v+L+ @.@+@@@#@$@%@&@*@K.=@( A   ",
"  -@( E+;@T Y+>@,@'@)@]+]+h+i+v+L+ @.@!@~@{@]@@@^@R+/@K.(@( V   ",
"  _@( h ;@:@<@[@}@|@1@]+h+i+v+L+ @.@!@2@3@4@5@6@7@8@U+K.9@( 0@  ",
"  a@;@;@e b@c@7.d@e@f@g@i+v+L+ @.@!@2@h@i@5@j@k@l@m@K.K.[ ;@n@  ",
"  o@e e F+p@q@r@s@t@u@v@w@L+ @.@!@2@x@y@z@A@B@C@D@8@K.K.E@e F@  ",
"  G@H@H@H@I@J@K@L@L@M@N@O@P@.@!@2@x@Q@R@S@T@U@V@W@8+K.K.N.H@H@P.",
"  E+X@X@X@Y@Z@`@`@`@`@ #.#+#!@2@x@Q@@###$#$#$#$#%#&#*#K.K.X@X@=#",
"-#;#;#>#,#'#)#!#~#{#]#^#/#(#2@x@Q@5 _#:#<#[#}#|#1#2#3#4#5#6#;#7#",
"8#R.R.9#0#a#b#c#c#c#c#c#c#d#e#f#g#h#i#j#k#l#m#n#o#p#q#r#s#t#R.u#",
"v#R.R.w#H+x#y#z#A#B#C#C#C#D#E#F#G#H#I#J#C#C#K#L#M#l+K.N#O#P#R.Q#",
"R#S#T#U#U#U#V#W#X#Y#Z#`# $.$+$@$#$y.$$%$&$*$=$-$;$;$;$>$,$'$)$!$",
"~${$]$^$^$^$^$^$^$^$/$($_$:$^$^$^$^$^$<$[$}$:$^$^$^$^$^$^$|$1$2$",
"3$4$5$6$7$8$9$0$a$b$c$d$e$f$g$h$i$j$e$k$l$m$n$4$4$4$4$4$4$4$4$o$",
"p$q$r$s$t$u$v$w$x$y$z$A$B$C$D$E$F$G$H$I$J$K$L$q$q$q$q$q$q$q$q$M$",
"N$O$P$Q$R$S$T$U$V$W$X$Y$Z$`$ %.%+%@%#%$%%%&%*%O$O$O$=%-%;%O$O$>%",
",%'%)%!%~%{%]%^%/%(%_%:%<%[%}%|%1%2%3%4%5%6%7%'%'%'%8%9%0%'%'%a%",
"  b%c%d%e%f%g%h%i%i%j%k%l%m%n%o%p%o%p%o%p%q%r%s%s%s%t%u%v%s%w%x%",
"  y%z%A%A%A%A%A%A%A%A%A%A%A%A%A%A%A%A%A%A%A%A%A%A%A%A%A%A%B%C%  "};
