/* XPM */
static char * mnemosyne_xpm[] = {
"32 32 234 2",
"  	c None",
". 	c #B9BBBE",
"+ 	c #C1C5C8",
"@ 	c #B5B6B8",
"# 	c #D7DDE4",
"$ 	c #D2DDEA",
"% 	c #D8E1EC",
"& 	c #9FA0A1",
"* 	c #B0B0B1",
"= 	c #D2D7DC",
"- 	c #D5DFEC",
"; 	c #D2DCEA",
"> 	c #D3DDEA",
", 	c #D2D7DD",
"' 	c #CED1D5",
") 	c #D9E2EE",
"! 	c #D1DCEA",
"~ 	c #D4DEEA",
"{ 	c #D7E0EB",
"] 	c #AEAFB1",
"^ 	c #4C4C4C",
"/ 	c #CCCED1",
"( 	c #DBE3EC",
"_ 	c #D0DCEA",
": 	c #D5DEEA",
"< 	c #D5DFEA",
"[ 	c #D6DFEA",
"} 	c #DCE1E8",
"| 	c #616262",
"1 	c #C7C8C9",
"2 	c #DCE2E9",
"3 	c #CFDBEA",
"4 	c #D7E0EA",
"5 	c #D8E1EB",
"6 	c #B3B5B7",
"7 	c #4D4D4D",
"8 	c #DDE3EB",
"9 	c #CCD9E8",
"0 	c #D1DDEA",
"a 	c #D0DBEA",
"b 	c #D9E1EB",
"c 	c #E1E7EE",
"d 	c #717272",
"e 	c #505050",
"f 	c #C4C6C8",
"g 	c #D3DEEB",
"h 	c #D0DBE9",
"i 	c #D3DEEA",
"j 	c #DAE2EB",
"k 	c #DBE2EB",
"l 	c #C6C9CC",
"m 	c #4F4F4F",
"n 	c #555555",
"o 	c #D6DBE1",
"p 	c #CFDAE9",
"q 	c #D6E0EA",
"r 	c #D8E0EA",
"s 	c #DBE3EB",
"t 	c #DCE3EB",
"u 	c #E0E6ED",
"v 	c #898A8B",
"w 	c #545454",
"x 	c #575757",
"y 	c #B2B4B5",
"z 	c #D9E3EE",
"A 	c #CED8E3",
"B 	c #D4DEEB",
"C 	c #DDE4EB",
"D 	c #DEE4EB",
"E 	c #D8DBDF",
"F 	c #AEA89E",
"G 	c #B4AEA5",
"H 	c #898887",
"I 	c #CCCFD3",
"J 	c #D0D8E3",
"K 	c #DEE5EB",
"L 	c #DFE5EB",
"M 	c #E0E5EC",
"N 	c #B6B4AF",
"O 	c #EED6B0",
"P 	c #F2DCB8",
"Q 	c #EEE0C8",
"R 	c #DCE4EC",
"S 	c #D2DCE9",
"T 	c #E0E6EB",
"U 	c #E1E5EA",
"V 	c #B9AD99",
"W 	c #F2DBB5",
"X 	c #ECDDC3",
"Y 	c #535252",
"Z 	c #BDBFC1",
"` 	c #D5DFEB",
" .	c #E3E7EC",
"..	c #ADA8A0",
"+.	c #F3DDBA",
"@.	c #C6BDAE",
"#.	c #D8DDE4",
"$.	c #CED4DC",
"%.	c #E4E8ED",
"&.	c #C5C6C7",
"*.	c #B8AEA0",
"=.	c #EDDABB",
"-.	c #F4DFBE",
";.	c #9C9994",
">.	c #AAABAD",
",.	c #D9E2EC",
"'.	c #D5DFE9",
").	c #DFE5EC",
"!.	c #D3D6D9",
"~.	c #B4AFA6",
"{.	c #E0D0B6",
"].	c #F5E3C5",
"^.	c #F5E2C4",
"/.	c #F5E5CC",
"(.	c #6C6B6A",
"_.	c #CBCFD3",
":.	c #D4DEE9",
"<.	c #DDE1E6",
"[.	c #B6B3AE",
"}.	c #CFC1AC",
"|.	c #F6E5C9",
"1.	c #F6E5CA",
"2.	c #F6E4C8",
"3.	c #E3D9C7",
"4.	c #4E4D4D",
"5.	c #4E4E4E",
"6.	c #8F9091",
"7.	c #DDE4ED",
"8.	c #D5DEE9",
"9.	c #DFE5ED",
"0.	c #BBBBBA",
"a.	c #BFB3A1",
"b.	c #F4E2C6",
"c.	c #F6E6CB",
"d.	c #F7E7CE",
"e.	c #F7E8CF",
"f.	c #F7E6CC",
"g.	c #B9B3AA",
"h.	c #535353",
"i.	c #DAE2EC",
"j.	c #C6C8CB",
"k.	c #B6ADA0",
"l.	c #EAD7B9",
"m.	c #F8E9D2",
"n.	c #F8EAD4",
"o.	c #F8EAD2",
"p.	c #F7E8D0",
"q.	c #8F8D8B",
"r.	c #565656",
"s.	c #5A5A5A",
"t.	c #887A60",
"u.	c #C89A9B",
"v.	c #B48383",
"w.	c #9F7575",
"x.	c #9E8F8F",
"y.	c #D9CEBC",
"z.	c #F3E0C1",
"A.	c #F5E1C1",
"B.	c #F6E3C6",
"C.	c #F9ECD8",
"D.	c #F8EBD5",
"E.	c #F7ECDA",
"F.	c #656463",
"G.	c #5C5C5C",
"H.	c #8B3F49",
"I.	c #5379AB",
"J.	c #9A3E3F",
"K.	c #C63434",
"L.	c #C93A3A",
"M.	c #AF8382",
"N.	c #C9BDBA",
"O.	c #C6BEB5",
"P.	c #DED4C4",
"Q.	c #F7EAD4",
"R.	c #F8EBD4",
"S.	c #D9D1C5",
"T.	c #636363",
"U.	c #952128",
"V.	c #89394B",
"W.	c #813636",
"X.	c #9E2121",
"Y.	c #A52121",
"Z.	c #9C2C2C",
"`.	c #E29E9E",
" +	c #EAC0C0",
".+	c #B99090",
"++	c #8C7D7C",
"@+	c #989794",
"#+	c #C0BAB1",
"$+	c #ECE3D5",
"%+	c #F8EBD7",
"&+	c #B1ADA6",
"*+	c #606060",
"=+	c #804729",
"-+	c #824A4A",
";+	c #824F4F",
">+	c #6D3D3D",
",+	c #992B2B",
"'+	c #C76060",
")+	c #CB6F6F",
"!+	c #C35B5B",
"~+	c #A45454",
"{+	c #786565",
"]+	c #777674",
"^+	c #717170",
"/+	c #686868",
"(+	c #4B4B4B",
"_+	c #875B58",
":+	c #885050",
"<+	c #7E3E3E",
"[+	c #834545",
"}+	c #A22222",
"|+	c #AC1717",
"1+	c #AB1616",
"2+	c #A70A0A",
"3+	c #A64949",
"4+	c #8B7D7D",
"5+	c #BF937C",
"6+	c #915252",
"7+	c #8C4444",
"8+	c #9D4B4B",
"9+	c #AF2727",
"0+	c #AB1515",
"a+	c #CF8181",
"b+	c #987878",
"c+	c #8F5C5C",
"d+	c #B55E5E",
"e+	c #AD1515",
"f+	c #C04A4A",
"g+	c #C19999",
"h+	c #C58C8C",
"i+	c #8F8A8A",
"j+	c #000000",
"k+	c #424141",
"                                                                ",
"                              . +                               ",
"                          @ # $ % &                             ",
"                      * = - ; $ > ,                             ",
"                    ' ) ! $ > ~ ~ { ]     ^ ^                   ",
"                / ( _ ! $ > ~ : < [ } | ^ ^ ^ ^                 ",
"            1 2 ! 3 _ $ > ~ < [ 4 4 5 6 ^ ^ ^ 7                 ",
"            8 9 0 a ! $ ~ < [ 4 5 b b c d ^ 7 e                 ",
"            f g h 0 $ i ~ [ 4 5 b j k k l ^ m n 7               ",
"              o p g $ ~ < q r b j s t t u v w x n               ",
"              y z A B ~ [ 4 5 j s t C D D E F G H w             ",
"                I J : ~ [ r b j t C K L L M N O P Q             ",
"                  R S { [ r b j t D L T T L U V W X Y           ",
"                  Z ` [ q r b j t D L T T L  ...+.@.^ ^ ^ ^     ",
"                    #.$.5 4 b j t C D L %.&.*.=.-.;.^ ^ ^ ^     ",
"                    >.,.'.r 5 b k t ).!.~.{.].^./.(.^ ^ 7       ",
"                      _.:.r 4 5 j <.[.}.|.1.1.2.3.4.7 e 5.      ",
"                      6.7.8.5 9.0.a.b.c.d.e.d.f.g.m h.n         ",
"                        . i.j.k.l.].|.d.m.n.o.p.q.r.s.m         ",
"                  t.u.v.w.x.y.z.A.B.c.p.n.C.D.E.F.G.G.          ",
"                  H.I.J.K.L.M.N.O.P.Q.p.R.C.D.S.G.T.5.          ",
"                  U.V.W.X.Y.Z.`. +.+++@+#+$+%+&+T.*+            ",
"                  =+    -+;+>+,+'+)+!+~+{+r.]+^+/+(+            ",
"                      _+:+  <+  [+}+|+1+2+3+4+  5.              ",
"                    5+  6+  7+      8+9+0+1+a+                  ",
"                        b+  c+          d+e+f+                  ",
"                                          g+h+                  ",
"                              i+                                ",
"                            j+k+                                ",
"                        j+j+j+j+j+                              ",
"                                                                ",
"                                                                "};
