/* XPM */
static char *moon-lander[] = {
/* columns rows colors chars-per-pixel */
"32 29 16 1",
"  c black",
". c #191919",
"X c gray20",
"o c #00007f",
"O c #007f7f",
"+ c #7f007f",
"@ c #4c4c4c",
"# c #666667",
"$ c gray50",
"% c blue",
"& c cyan",
"* c gray60",
"= c #b2b2b2",
"- c gray80",
"; c gray90",
": c None",
/* pixels */
"::::::::::: :  @X    :::::::::::",
":::::::::::  . ##  : :::::::::::",
"::::::::::     ##     ::::::::::",
"::::::::: : :  #@  : : :::::::::",
"::::::::::     oX     ::::::::::",
"::::::::      @###      ::::::::",
"::::::::: :  @=-**@. : :::::::::",
"::::::::     #--=$*.    ::::::::",
":::::::     @=---*$$ .   :::::::",
":::::::: :  o=-=-=#*. : ::::::::",
":::::::    .O--===#=@  : :::::::",
"::::::: :  X***---#*#    :::::::",
":::::::    @*=%;-=O*#    :::::::",
"::::::: :  @*=*-=*$$#  : :::::::",
"::::::: :  @**&-=**O#  : :::::::",
"::::::: :  @*==--**#@ .: :::::::",
"::::::     @*=%=--$O@    :::::::",
"::::: : :  @*--=-=*##    : :::::",
":::: : : ..X*&----$##  :: : ::::",
"::: : :   .o$*%===#$#      :::::",
":::: :  .@#X#*&=-=#$$#X     ::::",
":::     #-$X@*==-=O##*=.     :::",
":::    .*=*O.*--=*+##**O. :  :::",
"::  : .O**#..@===O$Xo***X    :::",
"::    X#**o  X*=$@$  @=$@  : :::",
":: :  X#*@.  .X@@#.  .O$#    :::",
":: :  X##      .X. .  .$#    :::",
"::    .##.            .$X  : :::",
"::  :  X@  : ::  :: : .#.    :::"
};
