/* XPM */
static char * mozilla_beagle_xpm[] = {
"32 32 223 2",
"  	c None",
". 	c #ED1B2D",
"+ 	c #EF3747",
"@ 	c #F7A2AA",
"# 	c #FCE5E7",
"$ 	c #FEF2F3",
"% 	c #FDE5E7",
"& 	c #F7A4AB",
"* 	c #F2626E",
"= 	c #ED2637",
"- 	c #ED1C2E",
"; 	c #F5868F",
"> 	c #EEEAEA",
", 	c #6E6E6E",
"' 	c #313131",
") 	c #2C2B2A",
"! 	c #333333",
"~ 	c #585858",
"{ 	c #ADADAD",
"] 	c #F5EEEF",
"^ 	c #F3707B",
"/ 	c #FBD2D5",
"( 	c #B0B0B0",
"_ 	c #2F2E2D",
": 	c #786A59",
"< 	c #CEB698",
"[ 	c #E6CBAA",
"} 	c #DAC1A1",
"| 	c #8F7E69",
"1 	c #38322A",
"2 	c #2A2A2A",
"3 	c #B5B5B5",
"4 	c #F9B4BA",
"5 	c #E2E2E2",
"6 	c #464544",
"7 	c #4D463D",
"8 	c #C4AD91",
"9 	c #9C8973",
"0 	c #181717",
"a 	c #CCCCCC",
"b 	c #F58A93",
"c 	c #ED1D2F",
"d 	c #FFFFFF",
"e 	c #464646",
"f 	c #9C8A73",
"g 	c #E2C6A7",
"h 	c #A8947C",
"i 	c #6B5E4F",
"j 	c #1F1D1A",
"k 	c #909090",
"l 	c #F04857",
"m 	c #3A3A3A",
"n 	c #B8A288",
"o 	c #8E7D69",
"p 	c #E3C8A8",
"q 	c #9D8B75",
"r 	c #E3C8A7",
"s 	c #E1C6A5",
"t 	c #DABF9F",
"u 	c #736555",
"v 	c #4B4A4A",
"w 	c #FBEDEF",
"x 	c #ED2536",
"y 	c #FDFDFD",
"z 	c #818181",
"A 	c #87827A",
"B 	c #E6CDAE",
"C 	c #5B5043",
"D 	c #534A3E",
"E 	c #857562",
"F 	c #9E8A73",
"G 	c #DFC3A2",
"H 	c #DDC1A0",
"I 	c #DBBF9E",
"J 	c #D9BD9C",
"K 	c #D6BA99",
"L 	c #6C5E4E",
"M 	c #979797",
"N 	c #F5818B",
"O 	c #F1F1F1",
"P 	c #8C8C8C",
"Q 	c #6D6965",
"R 	c #E4DFD8",
"S 	c #EAD4BA",
"T 	c #837461",
"U 	c #6F6150",
"V 	c #D8BC9B",
"W 	c #D4B796",
"X 	c #D2B594",
"Y 	c #D0B392",
"Z 	c #C7AB8B",
"` 	c #FDE7E9",
" .	c #ED1E30",
"..	c #EFEFEF",
"+.	c #515151",
"@.	c #0F0F0F",
"#.	c #32302E",
"$.	c #FEFDFC",
"%.	c #FAF5EF",
"&.	c #E9D2B6",
"*.	c #B5A086",
"=.	c #433A2F",
"-.	c #D1B493",
";.	c #CFB291",
">.	c #CDB08F",
",.	c #CBAE8D",
"'.	c #C9AC8B",
").	c #C7A988",
"!.	c #282725",
"~.	c #FDFBFB",
"{.	c #3F3F3F",
"].	c #666666",
"^.	c #111111",
"/.	c #3D3D3D",
"(.	c #FCF9F5",
"_.	c #E8D0B2",
":.	c #8B7B67",
"<.	c #70604E",
"[.	c #CAAD8C",
"}.	c #C8AB8A",
"|.	c #C6A887",
"1.	c #C4A685",
"2.	c #C2A483",
"3.	c #BEA07F",
"4.	c #333230",
"5.	c #FDE9EB",
"6.	c #2C2C2C",
"7.	c #1C1C1C",
"8.	c #000000",
"9.	c #525252",
"0.	c #FAF5EE",
"a.	c #E6CCAD",
"b.	c #D6BD9E",
"c.	c #2B261F",
"d.	c #B89C7D",
"e.	c #C3A584",
"f.	c #C1A382",
"g.	c #BFA180",
"h.	c #BD9F7E",
"i.	c #BB9D7C",
"j.	c #88735A",
"k.	c #3E3E3E",
"l.	c #FBD3D6",
"m.	c #505050",
"n.	c #878787",
"o.	c #EDDBC4",
"p.	c #433B32",
"q.	c #73614D",
"r.	c #BC9E7D",
"s.	c #493F33",
"t.	c #F4747F",
"u.	c #E1E1E1",
"v.	c #1A1A1A",
"w.	c #101010",
"x.	c #D5D5D5",
"y.	c #EFDEC9",
"z.	c #41362B",
"A.	c #77644F",
"B.	c #454545",
"C.	c #FBD6D9",
"D.	c #E7E7E7",
"E.	c #2C2B29",
"F.	c #F2EEE8",
"G.	c #E8D0B3",
"H.	c #2F2922",
"I.	c #786550",
"J.	c #998065",
"K.	c #2E2D2B",
"L.	c #E5E5E5",
"M.	c #F15865",
"N.	c #B2B2B2",
"O.	c #393735",
"P.	c #CFC9C2",
"Q.	c #F6F3EF",
"R.	c #FDFCFB",
"S.	c #EFEBE5",
"T.	c #B5ACA0",
"U.	c #504B44",
"V.	c #171717",
"W.	c #A68C6E",
"X.	c #B09475",
"Y.	c #35312C",
"Z.	c #CECECE",
"`.	c #F5838D",
" +	c #B3B3B3",
".+	c #363636",
"++	c #161616",
"@+	c #262423",
"#+	c #222121",
"$+	c #3B3B3B",
"%+	c #939393",
"&+	c #FBFBFB",
"*+	c #373634",
"=+	c #BA9C7C",
"-+	c #463C32",
";+	c #A0A0A0",
">+	c #F7A5AC",
",+	c #E4E4E4",
"'+	c #D1D1D1",
")+	c #F5F5F5",
"!+	c #FDEEEF",
"~+	c #F58790",
"{+	c #947C62",
"]+	c #524536",
"^+	c #646464",
"/+	c #F47A85",
"(+	c #BEBEBE",
"_+	c #312C26",
":+	c #A48A6D",
"<+	c #AF9374",
"[+	c #54473A",
"}+	c #555555",
"|+	c #F9EDEE",
"1+	c #F15562",
"2+	c #FAC2C7",
"3+	c #2F2F2F",
"4+	c #31302F",
"5+	c #999999",
"6+	c #FCE4E6",
"7+	c #EE2E3F",
"8+	c #F7A2A9",
"9+	c #FEF3F3",
"0+	c #FCDCDE",
"                    . . .                                       ",
"                . . . . . .                                     ",
"                . . . . . .                                     ",
"                . . . . . .                                     ",
"                  . . . . .                                     ",
"                  . . . . .                                     ",
"                  . . . . .                                     ",
"                  . . . . . .                                   ",
"                  . . . . . .                                   ",
"                  . . . . . . . . . . . . .                     ",
"                    . . . . . . . . . . . . . .                 ",
"                    . . . + @ # $ % & * = . . . .               ",
"                    . - ; > , ' ) ! ~ { ] ; - . . .             ",
"                    ^ / ( _ : < [ } | 1 2 3 4 . . . .           ",
"                    5 6 7 8 [ [ [ [ [ [ 9 0 a b c . .           ",
"                  d e f [ [ [ [ [ [ g h 8 i j k / l .           ",
"                  d m n o < [ [ [ p q [ r s t u v w x .         ",
"                y z A B C D [ [ [ E F G H I J K L M N .         ",
"          d O P Q R d S [ [ [ [ [ T U V K W X Y Z ! `  .        ",
"        ..+.@.#.$.d d %.&.[ [ [ [ *.=.-.;.>.,.'.).!.~.-         ",
"      d {.].^./.d d d d (._.[ [ [ :.<.[.}.|.1.2.3.4.5..         ",
"      d 6.7.8.9.d d d d d 0.a.[ b.c.d.e.f.g.h.i.j.k.l..         ",
"      d m.8.8.n.d d d d d d o.[ p.q.3.r.i.i.i.i.s.3 t.          ",
"        u.v.w.x.d d d d d d y.n z.i.i.i.i.i.i.A.B.C. .          ",
"          D.E.F.d d d d d $.G.H.I.i.i.i.i.i.J.K.L.M.            ",
"          d N.O.P.Q.d R.S.T.U.V.W.i.i.i.i.X.Y.Z.`.              ",
"            d  +.+++@+#+$+%+&+*+=+i.i.i.i.-+;+>+                ",
"                y ,+'+)+!+~+% .+{+i.i.i.]+^+/ x                 ",
"                          . /+(+_+:+<+[+}+|+1+                  ",
"                          . . 2+n.3+4+5+6+                      ",
"                          . . 7+8+!+9+0+                        ",
"                          . . .                                 "};
