/* XPM */
static char *dummy[]={
"32 32 175 2",
"Qt c #000000",
"#f c #010000",
".r c #020101",
".e c #030101",
".P c #050202",
"#4 c #060303",
".f c #080404",
"#6 c #090404",
".y c #0a0505",
".I c #0b0505",
".# c #0c0606",
".S c #0e0707",
".b c #100808",
".B c #110808",
".m c #130909",
"#Q c #160b0b",
".9 c #170b0b",
".C c #180c0c",
"#2 c #1e0f0f",
".M c #221111",
"#A c #261313",
".T c #2a1515",
"#b c #2c1616",
"#X c #2e1717",
".j c #301818",
".F c #321919",
".c c #341a1a",
".2 c #381c1c",
"#C c #3e1f1f",
"#x c #422121",
"#D c #462323",
"#T c #4a2525",
".1 c #4b2525",
"#3 c #522929",
"#Y c #542a2a",
"#5 c #562b2b",
"#s c #582c2c",
".d c #592c2c",
".n c #5a2d2d",
".x c #5c2e2e",
".a c #603030",
"#H c #613030",
"a. c #623131",
"#z c #643232",
".5 c #683434",
"#u c #6e3737",
"#. c #743a3a",
"an c #770000",
"#t c #7c3e3e",
".W c #7d3e3e",
"aS c #800808",
"av c #804040",
"aK c #807878",
"aC c #808080",
".G c #864343",
".Z c #8e4747",
"am c #8f0000",
"#P c #904747",
"#g c #984c4c",
"aR c #990909",
"au c #994d4d",
"aJ c #999090",
"aB c #999999",
".J c #9c4e4e",
"#r c #9e4f4f",
"#o c #a25151",
"#I c #a45252",
"al c #a60000",
".q c #a85454",
"#e c #ac5656",
".Y c #b05858",
"aQ c #b10a0a",
"at c #b15959",
"aI c #b1a7a7",
"aA c #b1b1b1",
"#7 c #b45a5a",
".i c #b85c5c",
"ak c #bc0000",
"#l c #bc5e5e",
".s c #c26161",
"aP c #c80c0c",
"as c #c86464",
"aH c #c8bcbc",
"az c #c8c8c8",
"aj c #d00000",
"#W c #d06868",
".g c #d46a6a",
"aO c #de0d0d",
".O c #de6e6e",
"ar c #de6f6f",
"aG c #ded1d1",
"ay c #dedede",
"#G c #e27171",
"a# c #e30000",
"aa c #e90000",
"#q c #f07878",
"aL c #f10e0e",
"ao c #f17979",
"aD c #f1e3e3",
"aw c #f1f1f1",
"ai c #f20000",
".6 c #f27979",
"ab c #f60000",
"aM c #f70f0f",
"ap c #f77c7c",
"aE c #f7e8e8",
"ax c #f7f7f7",
"ag c #f80000",
"af c #fa0000",
"ae c #fc0000",
"ah c #fd0000",
"ac c #fe0000",
"ad c #ff0000",
"aN c #ff0f0f",
"aq c #ff8080",
".R c #ff8181",
"#F c #ff8282",
".v c #ff8383",
"#v c #ff8484",
"#i c #ff8585",
"#9 c #ff8686",
"#R c #ff9090",
".8 c #ff9292",
"#U c #ff9393",
"#N c #ff9696",
".Q c #ff9e9e",
"#c c #ff9f9f",
"#O c #ffa1a1",
".H c #ffa8a8",
".N c #ffa9a9",
".k c #ffaaaa",
"#a c #ffadad",
"#Z c #ffaeae",
"#y c #ffafaf",
"#S c #ffb0b0",
"#j c #ffb3b3",
".L c #ffb5b5",
"#1 c #ffb8b8",
".z c #ffc1c1",
"#B c #ffc2c2",
"#k c #ffc3c3",
".0 c #ffc4c4",
".A c #ffc8c8",
"#V c #ffcaca",
"#p c #ffcdcd",
"#0 c #ffcece",
"#L c #ffcfcf",
".4 c #ffd0d0",
".o c #ffd4d4",
".l c #ffdbdb",
"#8 c #ffdcdc",
".E c #ffdddd",
".D c #ffdede",
".u c #ffe0e0",
".X c #ffe1e1",
"#J c #ffe5e5",
"#w c #ffe6e6",
"#d c #ffe7e7",
"#n c #ffeaea",
"#M c #ffeeee",
"aF c #fff0f0",
".V c #fff1f1",
".U c #fff2f2",
".h c #fff3f3",
".3 c #fff5f5",
"#K c #fff6f6",
"## c #fff7f7",
".t c #fff8f8",
"#m c #fff9f9",
".w c #fffafa",
"#h c #fffbfb",
".7 c #fffcfc",
"#E c #fffdfd",
".K c #fffefe",
".p c #ffffff",
"QtQtQtQtQtQtQtQtQtQtQtQtQtQtQtQtQtQtQtQtQtQtQtQtQtQtQtQtQtQtQtQt",
"QtQtQtQtQtQtQtQtQtQtQtQtQtQtQtQtQtQtQtQtQtQtQtQtQtQtQtQtQtQtQtQt",
"QtQtQtQtQtQtQtQtQtQtQtQtQtQtQtQtQtQtQt.#.a.bQtQtQtQtQtQt.c.d.eQt",
"QtQtQtQtQtQtQtQtQtQtQtQtQtQtQtQtQtQt.f.g.h.iQtQtQtQtQt.j.k.l.mQt",
"QtQtQtQtQtQtQtQtQtQtQtQtQtQtQtQtQtQt.n.o.p.qQtQtQtQt.r.s.t.u.mQt",
"QtQtQtQtQtQtQtQtQtQtQtQtQtQtQtQtQtQt.v.p.w.xQtQtQtQt.y.z.p.A.BQt",
"QtQtQtQtQtQtQtQtQtQtQtQtQtQtQtQtQt.C.D.p.E.FQtQtQtQt.G.t.p.H.IQt",
"QtQtQtQtQtQtQtQtQtQtQtQtQtQtQtQtQt.J.K.p.L.MQtQtQtQt.N.p.p.O.PQt",
"QtQtQtQtQtQtQtQtQtQtQtQtQtQtQtQtQt.Q.p.p.R.SQtQtQt.T.U.p.V.WQtQt",
"QtQtQtQtQtQtQtQtQtQtQtQtQtQtQtQt.y.X.p.h.Y.rQtQtQt.Z.p.p.0.1QtQt",
"QtQtQtQtQtQtQtQtQtQtQtQtQtQtQtQt.2.3.p.4.5QtQtQtQt.6.p.7.8.9QtQt",
"QtQtQtQtQtQtQtQtQtQtQtQtQtQtQtQt#.##.p#a#bQtQtQtQt#c.p#d#e#fQtQt",
"QtQtQtQtQtQtQtQtQtQtQtQtQtQtQtQt#g.t#h#iQtQtQtQtQt#j.p#k.jQtQtQt",
"QtQtQtQtQtQtQtQtQtQtQtQtQtQtQtQt#l#m#n#oQtQtQtQt.S#p.7#qQtQtQtQt",
"QtQtQtQtQtQtQtQtQtQtQtQtQtQtQtQt#r.t.E#sQtQtQtQt#t.X#m#uQtQtQtQt",
"QtQtQtQtQtQtQtQtQtQtQtQtQtQtQtQt#v.7#w.ZQtQtQt#x#y#h#m#zQtQtQtQt",
"QtQtQtQtQtQtQtQtQtQtQtQtQtQtQt#A#B.p.7.N#C.##D.N#E#E.7#F#G#HQtQt",
"QtQtQtQtQtQtQtQtQtQtQtQtQtQtQt#I#J#K#k.w#d#L.h#M#N#O.p.p.p#PQtQt",
"QtQtQtQtQtQtQtQtQtQtQtQtQtQt#Q#R.7#S#T#U#V#L#y#W#X#Y#Z#0#1.dQtQt",
"QtQtQtQtQtQtQtQtQtQtQtQtQtQt#Y#L.p.G.r#2#3#s.c#4QtQt.j#5#C#6QtQt",
"QtQtQtQtQtQtQtQtQtQtQtQtQt.r#7#E#8#QQtQtQtQtQtQtQtQtQtQtQtQtQtQt",
"QtQtQtQtQtQtQtQtQtQtQtQtQt.f.N.p#9.fQtQtQtQtQtQtQtQtQtQtQtQtQtQt",
"QtQtQtQtQtQtQtQtQtQtQtQtQt.f#i#Ua..rQtQtQtQtQtQtQtQtQtQtQtQtQtQt",
"QtQtQtQtQtQtQtQtQtQtQtQtQtQtQtQtQtQtQtQtQtQtQtQtQtQtQtQtQtQtQtQt",
"QtQtQtQtQtQtQtQtQtQtQtQtQtQtQtQtQtQtQtQtQtQtQtQtQtQtQtQtQtQtQtQt",
"a#a#a#a#a#aaabacadadadadadaeafagagafahadadadadadaeaia#ajakalaman",
"aoaoaoaoaoapaqaqaqaqaqaqaqaqaqaqaqaqaqaqaqaqaqaqaqaqaoarasatauav",
"awawawawawax.p.p.p.p.p.p.p.p.p.p.p.p.p.p.p.p.p.p.p.pawayazaAaBaC",
"awawawawawax.p.p.p.p.p.p.p.p.p.p.p.p.p.p.p.p.p.p.p.pawayazaAaBaC",
"aDaDaDaDaDaEaFaFaFaFaFaFaFaFaFaFaFaFaFaFaFaFaFaFaFaFaDaGaHaIaJaK",
"aLaLaLaLaLaMaNaNaNaNaNaNaNaNaNaNaNaNaNaNaNaNaNaNaNaNaLaOaPaQaRaS",
"a#a#a#a#a#aaabacadadadadadaeafagagafahadadadadadaeaia#ajakalaman"};
