/* XPM */
static const char * database_xpm[] = {
"16 16 110 2",
"  	c None",
". 	c None",
"+ 	c #98B08B",
"@ 	c #9FCA8E",
"# 	c #8BE262",
"$ 	c #73D64A",
"% 	c #4A9929",
"& 	c #8DC076",
"* 	c #ACF283",
"= 	c #94EA6A",
"- 	c #7BDE52",
"; 	c #5AC239",
"> 	c #183808",
", 	c #52AA31",
"' 	c #B4FA8B",
") 	c #ACF683",
"! 	c #9CEE73",
"~ 	c #73D252",
"{ 	c #296910",
"] 	c #082808",
"^ 	c #9CAAF6",
"/ 	c #727CC0",
"( 	c #41CE00",
"_ 	c #4AD210",
": 	c #73DE41",
"< 	c #94E26A",
"[ 	c #317D18",
"} 	c #206110",
"| 	c #396941",
"1 	c #ACBEFF",
"2 	c #9CAEF6",
"3 	c #8B99F6",
"4 	c #8389EE",
"5 	c #656D94",
"6 	c #41CA00",
"7 	c #39BA00",
"8 	c #52A118",
"9 	c #298D08",
"0 	c #297510",
"a 	c #4A794A",
"b 	c #C5D6FF",
"c 	c #B4C6FF",
"d 	c #A4B6F6",
"e 	c #94A1F6",
"f 	c #4169CD",
"g 	c #002052",
"h 	c #31B200",
"i 	c #C5D27B",
"j 	c #E6CA73",
"k 	c #949D39",
"l 	c #396D10",
"m 	c #6AA5FF",
"n 	c #94BAFF",
"o 	c #ACC6FF",
"p 	c #ACBAF6",
"q 	c #4A7DE6",
"r 	c #0048B4",
"s 	c #00204A",
"t 	c #BDB69C",
"u 	c #F6E2AC",
"v 	c #DECE7B",
"w 	c #CDB64A",
"x 	c #B49918",
"y 	c #5A79A4",
"z 	c #6299F6",
"A 	c #5A91EE",
"B 	c #5285EE",
"C 	c #0055D5",
"D 	c #001C4A",
"E 	c #FFEEC5",
"F 	c #FFEABD",
"G 	c #E6D283",
"H 	c #CDB252",
"I 	c #625508",
"J 	c #52719C",
"K 	c #5A89E6",
"L 	c #527DDE",
"M 	c #2969DE",
"N 	c #003483",
"O 	c #7B6920",
"P 	c #FFDE73",
"Q 	c #FFEAAC",
"R 	c #FFEEBD",
"S 	c #E6CE83",
"T 	c #947D18",
"U 	c #5A4800",
"V 	c #39404A",
"W 	c #4A71CD",
"X 	c #4A65CD",
"Y 	c #205DD5",
"Z 	c #00409C",
"` 	c #F6D241",
" .	c #EECA39",
"..	c #E6D26A",
"+.	c #BDA131",
"@.	c #837110",
"#.	c #524408",
"$.	c #202C62",
"%.	c #183C94",
"&.	c #847430",
"*.	c #E6C639",
"=.	c #DEBA31",
"-.	c #C5AA29",
";.	c #B49920",
">.	c #7B6910",
",.	c #A79638",
"'.	c #C6A623",
").	c #BDA532",
"!.	c #CFC27A",
"~.	c #F1EFE5",
". . . . . . . . . . . . . . . . ",
". . . . . . + . . . . . . . . . ",
". . . . . @ # $ % . . . . . . . ",
". . . . & * = - ; > . . . . . . ",
". . . , ' ) ! ~ { ] . ^ / . . . ",
". . . ( _ : < [ } | 1 2 3 4 5 . ",
". . . 6 7 8 9 0 a b c d e f g . ",
". . . h i j k l m n o p q r s . ",
". . . t u v w x y z A B C r D . ",
". . t E F G H I J K L M C N . . ",
". O P Q R S T U V W X Y Z . . . ",
". O `  ...+.@.#.. . $.%.. . . . ",
". &.*.=.-.;.>.. . . . . . . . . ",
". . ,.'.).!.. . . . . . . . . . ",
". . . . ~.. . . . . . . . . . . ",
". . . . . . . . . . . . . . . . "};
