/* XPM */
static char *net[] = {
/* columns rows colors chars-per-pixel */
"48 48 171 2",
"   c #010101",
".  c gray3",
"X  c #272726",
"o  c #282827",
"O  c #2E2E2D",
"+  c #004242",
"@  c #064B4B",
"#  c #005151",
"$  c #006565",
"%  c #006768",
"&  c #006A6A",
"*  c #0C6666",
"=  c #096969",
"-  c #007373",
";  c #007A7A",
":  c #1C6C6C",
">  c #1D706F",
",  c #1B7372",
"<  c #216968",
"1  c #317574",
"2  c #3C7776",
"3  c #3C7B79",
"4  c #650303",
"5  c #680303",
"6  c #6D0A0A",
"7  c #710F0F",
"8  c #711010",
"9  c #7D1E1E",
"0  c #454543",
"q  c #484846",
"w  c #4C4B49",
"e  c #445A58",
"r  c #575957",
"t  c #5F5D5A",
"y  c #426D6C",
"u  c #43706E",
"i  c #447472",
"p  c #4B7573",
"a  c #4B7876",
"s  c #4C7A78",
"d  c #5A726F",
"f  c #605F5D",
"g  c #705755",
"h  c #60605D",
"j  c #646361",
"k  c #6C6A67",
"l  c #6C6C69",
"z  c #667D7A",
"x  c #6A7370",
"c  c #687F7D",
"v  c #766865",
"b  c #7E6563",
"n  c #74716E",
"m  c #737572",
"M  c #777976",
"N  c #26807F",
"B  c #68807D",
"V  c #0C8786",
"C  c #088B8B",
"Z  c #1DA09F",
"A  c #03ADAD",
"S  c #248382",
"D  c #258887",
"F  c #248989",
"G  c #288584",
"H  c #229D9C",
"J  c #00C1C1",
"K  c #00DBDC",
"L  c #00E6E7",
"P  c #00E9E9",
"I  c #01FDFD",
"U  c #448382",
"Y  c #468887",
"T  c #498987",
"R  c #498B8A",
"E  c #708784",
"W  c #708B89",
"Q  c #7E8B88",
"!  c #802C2B",
"~  c #806764",
"^  c #817774",
"/  c #827874",
"(  c #82827E",
")  c #90827E",
"_  c #838481",
"`  c #858884",
"'  c #898581",
"]  c #8B8986",
"[  c #8C8C88",
"{  c #87928F",
"}  c #8E908D",
"|  c #8B9693",
" . c #908D89",
".. c #9D8C88",
"X. c #93928E",
"o. c #98918D",
"O. c #959491",
"+. c #939995",
"@. c #989693",
"#. c #9B9995",
"$. c #9E9D99",
"%. c #97A29E",
"&. c #98A39F",
"*. c #99A4A0",
"=. c #9FB0AC",
"-. c #A1918D",
";. c #A8928F",
":. c #A39692",
">. c #A69894",
",. c #A09F9B",
"<. c #A89490",
"1. c #AA9995",
"2. c #AC9E9A",
"3. c #B69693",
"4. c #B69C97",
"5. c #B09F9B",
"6. c #A3A29E",
"7. c #AEA19D",
"8. c #B1A09C",
"9. c #A5A5A1",
"0. c #A5A8A3",
"q. c #A8A5A1",
"w. c #AAA9A5",
"e. c #ADADA9",
"r. c #ABB0AC",
"t. c #B3A6A2",
"y. c #B2A9A5",
"u. c #B0AEAA",
"i. c #B9ADA9",
"p. c #B2B0AC",
"a. c #BDB3AF",
"s. c #B4B6B2",
"d. c #B5B8B4",
"f. c #B9B7B2",
"g. c #BAB8B4",
"h. c #BEBDB8",
"j. c #C3B0AC",
"k. c #C1BEBA",
"l. c #CFBFBA",
"z. c #C3C2BD",
"x. c #C8C3BF",
"c. c #D4C2BD",
"v. c #C6C4C0",
"b. c #CBC4C0",
"n. c #CCCBC6",
"m. c #CFCDC8",
"M. c #CFDBD6",
"N. c #D6C9C4",
"B. c #D0CECA",
"V. c #D2D0CB",
"C. c #D6D5D0",
"Z. c #D0DBD6",
"A. c #D8D6D1",
"S. c #DBD9D4",
"D. c #DEDDD8",
"F. c #DFE3DE",
"G. c #EEC7C2",
"H. c #EEC8C3",
"J. c #E0DED9",
"K. c #EAD9D4",
"L. c #EDDED8",
"P. c #E2E0DB",
"I. c #EBE2DD",
"U. c #E6E5E0",
"Y. c #E5E8E3",
"T. c #EAE7E2",
"R. c #EBE9E4",
"E. c #F6E6E0",
"W. c #F7EBE6",
"Q. c #F0EDE8",
"!. c #F4F2ED",
/* pixels */
"S.S.S.S.S.S.S.S.S.S.S.S.S.S.S.S.S.S.S.S.S.S.S.S.S.S.S.S.S.S.S.S.S.S.S.S.S.S.S.S.S.S.S.S.S.S.S.S.",
"S.S.S.S.A.S.A.S.A.S.S.S.S.A.A.S.S.S.S.A.S.A.A.S.A.S.A.S.S.A.S.S.S.S.A.S.A.S.A.S.S.S.S.A.S.S.S.S.",
"S.S.S.D.Y.P.P.P.P.J.P.P.J.P.J.J.P.P.J.P.P.P.J.U.U.J.J.J.U.J.J.J.J.P.J.J.J.P.J.J.J.J.J.J.S.S.S.S.",
"S.S.D.b.3.d.g.f.f.g.f.g.g.f.g.g.f.f.g.f.f.g.g.p.e.h.f.g.f.g.g.g.g.g.g.g.g.g.g.g.g.g.g.h.S.S.S.S.",
"S.A.Y.;.4 | @.O.O.O.O.O.O.O.O.@.O.O.n.z.v.v.b.h.h.v.v.v.v.n.X. .O.O.O.O.O.O.O.O.O.O.O.[ A.S.S.S.",
"S.A.Y.<.4 *.w.q.9.w.w.q.q.w.q.w.9.,.U.D.J.J.J.J.J.J.J.J.S.U.6.6.w.q.w.w.w.e.w.w.w.9.w.O.A.S.S.S.",
"S.A.Y.;.5 *.q.6.6.6.6.9.9.6.6.6.$.6.D.A.A.S.A.S.S.S.S.S.A.J.,.,.9.6.O.O.@.@.O.O.6.6.9.O.V.S.S.S.",
"S.A.Y.;.5 *.q.6.6.9.6.6.6.6.&.9.#.$.D.A.A.S.S.A.A.S.A.S.A.S.,.$.e.k   . . . .   ( w.6.O.A.S.S.S.",
"S.A.Y.;.5 *.6.6.9.6.q.w.w.w.w.e.6.q.R.J.U.J.I.J.U.J.J.U.J.R.q.9.g.l             ' u.w.#.C.S.S.S.",
"S.S.Y.;.5 *.q.6.6.0.:.` ] ] ] ] ` ` h.d.d.d.d.u.f.d.f.f.f.g._ Q O.r             l } ` _ A.S.S.S.",
"S.A.Y.;.5 *.q.6.9.7.2 - $ $ % % $ $ $ $ $ $ $ ; ; $ % % $ $ $ $ & +             # & $ , S.S.S.S.",
"S.A.Y.;.5 *.q.6.9.5.> y -. .X. .]  .x.k.z.h.N.2 3 l.k.k.k.x. .' #.t   .         m @. .` C.S.S.S.",
"S.A.Y.;.5 *.q.6.9.2.: s i.0.w.w.6.0.T.J.P.D.E.Y Y E.D.P.J.U.q.,.s.l             _ p.w.@.A.S.A.S.",
"S.A.Y.;.4 *.6.9.0.2.: a t.6.6.9.,.,.S.A.S.C.L.U U L.C.S.S.D.,.$.w._ 0 w w w w q X.q.6.O.A.S.S.S.",
"S.A.Y.;.4 *.9.9.9.2.> s t.6.6.6.,.,.J.A.A.C.L.U U L.C.A.A.J.,.,.6.w.u.p.e.p.p.p.q.6.9.O.A.S.S.S.",
"S.S.Y.;.4 *.q.q.0.5.: s y.9.9.w.,.6.U.J.J.D.E.U U E.D.J.J.T.6.,.w.q.9.6.9.6.6.9.9.0.w.@.A.S.S.S.",
"S.A.Y.;.4 | @.@.O.-.: i :.O.@.@.O.O.v.k.h.h.N.2 3 N.h.k.k.v.O.} O.O.O.O.O.O.O.X.O.O.X.[ A.S.S.S.",
"S.A.Y.;.4 } @.@.O.-.: u :.O.O.O. .O.h.h.h.g.l.2 2 l.h.h.h.h.#.h.k.k.g.B.t O n.h.k.h.z.6.A.S.A.S.",
"S.A.Y.;.4 *.w.q.0.8.: s i.0.q.w.6.6.T.J.J.U.W.Y Y Q.F.J.J.J.p.J.J.J.S.!.j o !.D.J.J.T.p.V.S.S.S.",
"S.S.Y.;.4 *.q.6.9.5.: a t.&.6.9.,.,.D.A.C.N.H.i i H.N.S.S.S.e.A.S.S.A.R.j o T.A.A.A.D.p.V.S.S.S.",
"S.A.Y.;.4 *.q.6.9.7.: a t.6.6.q.$.,.D.U.` V H C C Z : k.J.S.e.S.S.S.A.Q.j X R.A.S.A.J.p.V.D.S.S.",
"S.A.Y.;.4 *.q.6.9.7.: a t.6.6.9.,.,.S.T.W P I I I I A j.P.S.e.A.S.A.A.Q.j X R.A.S.S.J.e.V.D.S.S.",
"S.A.Y.;.5 *.q.6.6.5.: a t.6.6.9.,.,.S.L.W L I I I I A j.P.S.e.A.S.S.A.Q.j X R.A.A.S.J.p.V.S.S.S.",
"S.A.Y.;.5 &.6.6.9.7.: a t.6.9.9.,.,.J.T.W P I I I I A j.Y.S.e.A.S.S.A.Q.h X R.A.S.A.P.,.m.D.S.S.",
"S.S.Y.;.4 *.0.6.9.2.: a y.6.6.9.,.,.D.I.W P I I I I A j.P.S.e.A.S.S.A.R.j X R.A.S.S.J.u.B.D.S.S.",
"S.A.Y.;.4 *.6.6.9.2.: s t.6.6.9.$.6.D.I.W P I I I I A j.Y.S.e.A.S.S.A.Q.j X R.A.S.S.J.u.V.S.S.S.",
"S.A.Y.;.4 *.q.6.9.2.: a t.6.6.9.,.,.D.J.#.3 R Y U R p b.J.S.e.A.S.S.A.Q.j X Y.A.S.A.J.e.V.D.S.S.",
"S.A.Y.;.4 *.7.6.9.5.: a t.6.6.9.$.6.D.S.J.L.K.K.K.K.L.S.A.S.e.A.S.A.A.Q.j X Y.A.S.S.J.e.V.D.S.S.",
"S.A.Y.;.4 *.w.0.0.5.: s y.9.9.0.6.6.J.J.S.D.D.D.D.D.D.S.J.J.e.S.J.D.S.!.j o R.S.J.S.J.u.V.D.S.S.",
"S.A.Y.;.4 +.$.#.#.:.: i 2.@.$.#.O.@.V.n.m.n.n.m.n.m.n.m.n.B.q.n.n.n.b.D.f o S.n.n.n.V.e.V.S.S.S.",
"S.A.Y.;.4 { X. .O...: y @. . .O. ._ O.X.X.X.O.X.X.X.O.X.X.O._ X.O.O.O.O.] _ O.X.O.O.X. .A.S.S.S.",
"S.S.Y.;.4 *.e.q.w.8.: a i.q.w.w.9. .q.9.0.q.9.9.9.0.9.q.q.q. .9.q.9.0.0.0.e.0.0.9.q.q.@.A.S.S.S.",
"S.A.Y.;.4 &.q.6.9.7.: a t.6.6.6.6.[ 9.6.9.6.9.6.6.6.6.9.6.9.[ 6.6.6.2.1.>.1.1.1.q.6.9.O.A.S.S.S.",
"S.A.Y.;.4 *.6.6.6.7.: a t.6.6.9.6.[ 9.6.9.6.6.6.9.6.6.6.6.9.[ 6.e.M : G S 1 D : ' w.9.O.V.D.S.S.",
"S.A.Y.;.4 *.7.q.0.7.< s y.9.0.0.9.} 0.9.9.0.9.0.9.0.0.0.0.0.} 9.p.x K I I I I J ^ e.6.O.A.S.S.S.",
"S.A.Y.;.4 *.q.6.6.7.: p 4.>.>.>.>.) >.>.>.>.>.>.1.>.>.>.>.>.) o.5.v K I I I I J ^ e.6.O.A.S.S.S.",
"S.A.Y.;.4 *.6.6.0.2.1 - * = = = = = = = = = = = = = = = = = = = = @ K I I I I J ^ e.6.O.V.S.S.S.",
"S.A.Y.;.4 *.q.9.6.q.X.z B B B B B d B z B B B B B B c B B B d B W e K I I I I J / e.6.O.A.S.S.S.",
"S.A.Y.;.4 *.q.6.9.6.q.y.y.w.w.y.t.o.w.t.y.y.t.w.w.y.w.y.t.y.o.7.f.n K I I I I J ^ e.6.O.A.D.S.S.",
"S.S.Y.;.4 *.6.6.6.9.6.6.6.6.6.6.6.[ 6.6.6.6.6.&.6.6.6.6.6.6.[ 6.w.M , D N S F : ' w.6.O.A.S.S.S.",
"S.A.Y.;.4 %.6.6.6.6.6.,.6.6.6.6.&.] 6.6.6.6.6.6.6.,.6.6.6.6.] &.6.9.1.>.;.>.;.1.6.6.6.O.A.S.S.S.",
"S.A.Y.;.4 =.p.r.r.r.r.r.e.r.e.e.e.+.p.r.e.e.r.e.r.r.r.r.r.r.O.e.e.r.r.r.r.r.r.r.r.e.r.6.A.S.S.S.",
"S.S.T.;.5 v ~ b b b b b b b b b b g b b b b b b b b ~ ~ b b g b b b b b b b b b b b b n A.S.S.S.",
"S.A.J.g.9 7 8 7 7 8 8 8 8 8 8 8 8 8 7 7 8 8 8 8 7 7 7 7 7 7 8 7 8 8 8 8 8 8 7 7 8 8 6 9 S.S.S.S.",
"S.S.S.J.Z.Z.Z.C.Z.Z.M.C.M.Z.Z.Z.Z.Z.Z.A.Z.C.M.M.Z.C.M.M.Z.Z.Z.Z.M.Z.Z.Z.Z.Z.Z.M.Z.Z.M.Z.S.S.S.S.",
"S.S.S.S.A.J.J.S.J.S.S.J.S.D.S.J.A.J.J.S.J.S.S.J.J.J.J.S.S.S.D.J.S.S.S.J.S.J.S.K.J.J.S.S.S.S.S.S.",
"S.S.S.S.S.S.S.S.A.A.S.S.A.S.A.S.S.S.A.S.A.S.S.S.S.S.A.A.S.S.S.S.A.S.S.S.S.S.A.S.A.A.S.S.S.D.S.S.",
"S.S.S.S.S.S.S.S.S.S.S.A.J.S.S.S.S.S.S.S.S.S.S.S.S.S.S.S.S.S.S.S.S.S.S.S.S.S.S.S.S.S.S.S.S.S.S.S."
};
