/* XPM */
static char *netslide[] = {
/* columns rows colors chars-per-pixel */
"48 48 122 2",
"   c #1E1D1D",
".  c #3B1414",
"X  c #2A2A29",
"o  c #312F2E",
"O  c #30302F",
"+  c #323433",
"@  c #4D2423",
"#  c #731F1E",
"$  c #613433",
"%  c #484746",
"&  c #4D4C4A",
"*  c #565640",
"=  c #52514F",
"-  c #545452",
";  c #595856",
":  c #585E5C",
">  c #7B4B49",
",  c #61605E",
"<  c #646361",
"1  c #696866",
"2  c #6D6C69",
"3  c #706F6D",
"4  c #71706E",
"5  c #7D7C66",
"6  c #757472",
"7  c #7A7976",
"8  c #7D7C79",
"9  c #101094",
"0  c #17179A",
"q  c #1010A7",
"w  c #1616B6",
"e  c #1F1EB2",
"r  c #2929A3",
"t  c #2929AC",
"y  c #2121B3",
"u  c #2F2EB0",
"i  c #3030B1",
"p  c #0000E1",
"a  c #0000EC",
"s  c #0000F2",
"d  c #0101FD",
"f  c #43428E",
"g  c #75749E",
"h  c #7D7C9C",
"j  c #7675A0",
"k  c #814D4C",
"l  c #915D5B",
"z  c #96615F",
"x  c #807F7C",
"c  c #956260",
"v  c #966966",
"b  c #9B6664",
"n  c #9A6D6B",
"m  c #9D716E",
"M  c #9F7471",
"N  c #9F7875",
"B  c #A27573",
"V  c #A57875",
"C  c #A77B78",
"Z  c #82817E",
"A  c #848481",
"S  c #888683",
"D  c #898885",
"F  c #8E8C89",
"G  c #83829A",
"H  c #908F8C",
"J  c #92918E",
"K  c #969591",
"L  c #989793",
"P  c #9A9996",
"I  c #9D9C98",
"U  c #8381A0",
"Y  c #9492A0",
"T  c #A09F9B",
"R  c #A2A19D",
"E  c #A4A3A0",
"W  c #A8A6A2",
"Q  c #AAA9A5",
"!  c #AEADA9",
"~  c #B0AFAB",
"^  c #B2B1AD",
"/  c #B5B4B0",
"(  c #B7BFBA",
")  c #B8B6B2",
"_  c #BBB9B5",
"`  c #BEBCB8",
"'  c #C0BEBA",
"]  c #C2C0BC",
"[  c #C7C5C1",
"{  c #C2CBC6",
"}  c #CAC6C1",
"|  c #CCCAC5",
" . c #CECCC8",
".. c #D2CEC9",
"X. c #D4D2CD",
"o. c #D8D3CE",
"O. c #DBD9C1",
"+. c #DBD9CA",
"@. c #D6D4D0",
"#. c #D9D6D1",
"$. c #DBD9D4",
"%. c #DEDCD8",
"&. c #E0DECD",
"*. c #E0DCD6",
"=. c #E0DED9",
"-. c #E3E1DC",
";. c #EAE6D6",
":. c #E8E5DA",
">. c #EBE9DC",
",. c #F4F2D9",
"<. c #E3EBE5",
"1. c #E5EDE8",
"2. c #E8E6E1",
"3. c #EEEBE6",
"4. c #EDEAE9",
"5. c #E8F1EB",
"6. c #EDF6F0",
"7. c #EFFFFD",
"8. c #F0EDE8",
"9. c #F3F1EC",
"0. c #F0F9F3",
"q. c #F9FFFC",
/* pixels */
"$.$.$.$.$.$.$.$.$.$.$.$.$.$.$.%.$.$.$.$.$.$.$.$.$.$.$.$.$.$.$.$.$.$.$.$.$.$.$.$.$.$.$.$.$.$.$.$.",
"$.$.$.$.%.$.$.$.$.%.$.$.$.$.$.$.$.$.$.$.$.$.$.$.$.$.$.$.$.$.$.$.$.$.$.$.$.$.$.$.$.$.$.$.$.$.$.$.",
"$.$.$.$.$.$.$.$.$.$.$.$.%.$.$.$.$.$.$.$.$.$.$.#.$.$.$.$.$.$.$.$.$.$.$.$.$.$.$.$.$.$.$.$.%.$.$.$.",
"$.$.$.$.%.$.$.$.$.$.$.$.$.$.$.$.%.$.$.$.$.%.@.%.#.$.$.$.$.$.$.$.$.$.#.=.@.$.$.$.$.$.$.$.$.$.$.$.",
"$.$.$.$.$.$.$.$.$.$.$.$.$.$.%.$.$.$.$.#.:.! A | -.@.$.$.$.$.$.$.$.$.%.#.F L =.$.$.$.$.$.$.$.$.$.",
"$.$.$.$.$.$.$.$.$.$.%.$.$.$.$.$.$.$.$.:.W K ^ D [ -.#.$.$.$.$.$.#.%.@.F Q R L %.$.$.$.$.$.$.$.$.",
"%.$.$.$.$.%.$.$.$.$.$.%.$.$.$.$.$.#.-.^ L / ^ ^ J | %.$.$.$.$.$.$.$.L Q ^ ^ R R =.#.$.$.$.$.$.$.",
"$.$.$.$.$.$.$.$.$.$.$.$.$.$.$.$.$.-.^ , F ^ ! ! 8 2 X.%.$.$.$.$.=.Z 3 E ^ ^ I 1 L -.#.$.$.$.$.%.",
"$.$.$.$.$.$.$.$.$.$.$.$.$.$.$.$.$.$.o...Z ! ^ L P #.@.$.$.$.$.$.#.#.~ D / ^ Z ' X.$.$.$.$.$.$.$.",
"$.$.$.$.$.$.$.$.%.$.$.$.$.$.$.$.$.$.%.=.H ~ ) L W <.#.$.$.$.$.$.$.:.' F ) ) S X.-.$.$.$.$.$.$.$.",
"$.$.%.$.%.$.$.$.$.%.$.$.$.$.$.$.$.$.#.%.A T ~ H R :.#.$.$.$.$.$.$.=.' Z Q Q 8  .$.$.$.$.$.$.$.$.",
"$.$.$.$.$.$.$.$.$.$.$.$.$.$.$.$.$.$.$.=.I D H S _ =.$.$.$.$.$.$.$.%. .Z H F H #.$.$.$.$.$.$.$.$.",
"$.$.$.%.$.$.$.$.$.$.$.$.$.$.$.#.#.#.#.o.*.=.*.=.*.#.#.#.#.#.#.#.$.o.$.-.%.=.=.#.#.$.#.#.$.$.$.$.",
"%.$.$.$.$.$.$.$.$.$.$.$.$.$.%.<.1.1.1.1.1.<.<.<.1.1.1.1.1.1.1.1.1.<.<.<.<.<.<.<.1.1.3.<.$.$.$.$.",
"$.$.$.$.$.$.$.$.$.$.%.$.$.%.} M n n n n n n C n n n n n n n n n n n n n V M v m n n n m ..%.$.$.",
"$.$.$.$.$.$.$.%.$.$.$.$.+.1.N # v l l l b > . l l l l l l k l l l l l b @ $ b l l l l z ..$.$.$.",
"$.$.$.$.$.$.$.$.$.$.$.$.#.1.n v 7.<.1.1.0.( + 6.1.1.1.1.1.{ <.1.<.1.<.q.: Z q.<.<.<.<.<.$.$.$.$.",
"$.$.$.$.$.$.$.=.$.$.$.$.o.1.n l 2...#.#.=.! + *.#.#.#.o.$.) o.$.$.$.o.3.- 8 3.X.$.$.$.$.$.$.$.$.",
"%.$.$.$.$.$.=./ ..*.$.$.$.1.n l 1.#.$.#.-.! O =.#.$.$.$.%.) ....X.X...2.= 7 :.X.X.X...o.$.$.$.$.",
"$.$.$.$.$.=.! 2 X.=.*.=.o.1.n l 1.#.$.$.2.! O -.$.$.$.#.%.^ ) ' _ ( _ ' R R ' _ _ _ _ ' +.$.$.$.",
"$.$.$.$.=.! P J Z F x P *.1.n l 1.#.$.#.:.! + -.$.$.$.$.%._ $.=.=.=.=.%.-.-.=.=.=.=.=.%.$.$.$.$.",
"$.$.$.%.! K / ! ! ! R F *.1.n l <.#.$.$.-.~ X -.#.#.$.$.%._ #.$.$.#.#.$.@.$.#.$.$.$.$.$.$.$.$.$.",
"$.$.$.X.A ! ! ! / ) ! J *.1.n l 1.o.$.$.:.! O -.$.$.$.$.%.) #.$.$.$.$.$.$.$.$.$.$.$.$.$.$.$.$.$.",
"$.$.$.=.| F ! ! K P F D %.1.n l 1.$.$.$.2.! O -.$.#.$.$.*._ #.$.$.$.$.$.$.$.$.$.$.$.$.$.$.$.$.$.",
"$.$.$.#.=.[ K 8 K W I ) %.1.n l 1.#.%.#.2.! O =.#.$.$.$.%.) $.$.$.$.$.$.$.$.$.$.$.%.$.$.$.$.$.$.",
"$.$.$.$.$.=. .2 $.2.2.=.o.1.n l 1.#.$.#.2.! O 2.#.$.$.$.%.) @.$.$.@.$.@.$.=.$.$.$.$.$.$.$.$.$.$.",
"$.$.$.$.$.#.=.X.o.#.#.$.#.1.n l 1.#.%.#.2.! O =.$.$.$.#.2.S   X X X X X   E 2.@.$.$.$.$.$.$.%.$.",
"$.$.$.$.$.%.#.%.$.$.$.$.#.1.n l 1.#.$.#.=.! + =.#.$.$.@.%./ ) ] ' ' ` X.% 8 3.@.$.$.$.$.$.%.$.$.",
"$.$.$.$.$.$.$.$.$.$.$.$.#.1.n l 1.$.%.$.4.! O 2.$.%.$.%.=.` $.-.-.-.$.9.; 8 3.@.$.$.$.%.$.$.$.$.",
"%.$.$.$.$.$.$.$.$.$.$.$.#.1.M k { ) _ ) ( E , ` ) _ _ _ ) ! #.$.@.$.@.3.- 8 3.@.$.$.$.$.$.$.$.$.",
"$.$.$.$.$.$.$.$.$.$.$.$.#.1.n l <...#.#.X.@.-.#.@.@.@.@.$.) @.$.$.$.@.3.- 7 3.+.$.$.$.$.$.$.$.$.",
"$.$.$.$.$.$.#.$.$.$.$.$.o.1.n l 1.#.%.%.%.%.$.%.%.%.$.$.%._ @.$.#.$.@.3.= 7 5.#.#.$.#.$.$.$.$.$.",
"$.$.$.$.$.#.$.%.$.#.$.$.#.1.n l 1.#.#.O.O.O.] &.O.O.%.$.%.) %.=.%.%.%.9.- x 9.$.%.=.=.=.$.$.$.$.",
"$.$.$.$.$.%.$.Z #.2.-.%.o.1.n l <.-.G q y e e y y f &.$.%./ ` ] ] ] ` X.; 4 ..' ] ] ] ] +.$.$.$.",
"$.$.$.#.%.#.L 6 ^ ( )  .$.1.n l <.;.g s d d d d d t ] ;.$.^ [  .| | | %.- 6 %.| | | | | #.$.$.$.",
"$.$.$.%.#.F W E A F 8 D %.<.n l <.;.g s d d d d d i ,.9.9.[ $.%.%.%.#.9.- 8 5.$.%.%.=.%.$.$.$.$.",
"$.$.$.#.F Q ^ ^ ) ) Q H =.<.n l <.:.g s d d d d d 9 * ; & 7 %.$.$.$.@.3.- 7 3.@.$.$.$.$.$.$.$.$.",
"$.$.$.$.P I / ^ ^ ^ Q H =.<.n l <.;.g s d d d d d 0 5 8 6 F %.$.$.$.@.3.- 7 3.@.$.$.$.$.$.$.$.$.",
"$.$.$.$.%.L R I 8 D 8 H =.1.n l <.;.h s d d d d d u ,.4.4.[ @.$.$.$.@.9.- 7 3.@.$.$.%.$.$.$.$.$.",
"$.$.$.$.%.%.I 4 ] ..| #.$.1.n l <.;.g p s a a a s r O.#.$._ @.#.#.$.#.3.- 7 3.@.$.$.$.$.$.$.$.$.",
"$.$.$.$.$.$.%.K #.%.%.$.#.1.n l <.%.^ h U U U U j P $.#.%._ #.$.$.$.@.3.- 7 3.#.$.$.$.$.%.$.$.$.",
"$.$.$.$.$.$.$.-.$.$.$.$.#.1.n l <.#.-.>.>.>.>.>.3.>.$.$.$.) @.$.$.$.#.9.- 7 3.@.$.$.$.$.$.$.$.$.",
"$.$.$.$.#.$.$.$.$.$.$.$.#.1.n l 1.#.$.$.@.$.#.#.#.#.$.$.%._ #.$.#.%.#.3.- 7 3.#.$.$.$.$.%.$.$.$.",
"$.$.$.$.$.$.$.$.$.$.$.$.#.<.M c 1.#.$.$.$.$.$.$.$.$.$.$.%._ #.$.#.$.@.3.; 8 3.#.$.$.$.$.$.$.$.$.",
"$.$.$.$.$.$.$.$.$.$.$.$.$.$.....$.$.$.$.$.$.$.$.$.$.$.$.$.#.$.$.$.$.$.%. .X.$.$.%.$.$.$.$.$.$.$.",
"$.$.$.%.$.$.$.$.$.$.$.$.$.$.%.%.$.$.$.$.$.$.$.$.$.$.$.$.$.$.$.$.$.$.$.#.=.=.#.$.$.$.$.$.$.$.$.$.",
"$.$.$.$.$.$.$.$.$.$.$.*.$.$.$.$.$.$.%.$.$.$.$.%.$.$.$.$.$.$.$.%.%.$.$.$.$.$.$.$.$.$.$.$.$.$.$.$.",
"$.$.$.$.*.$.$.$.$.$.$.$.$.$.$.$.$.$.$.$.$.$.$.$.$.$.$.$.$.$.$.$.$.$.$.$.$.$.$.$.$.$.$.$.$.%.$.$."
};
