/* XPM */
static char *noteedit[] = {
/* columns rows colors chars-per-pixel */
"32 32 257 2",
"   c #010101",
".  c #080702",
"X  c #0B0A04",
"o  c #0B0B09",
"O  c #100F06",
"+  c #11110B",
"@  c #1C1A09",
"#  c #141307",
"$  c #111111",
"%  c #1C1B11",
"&  c #1E1E1E",
"*  c #201E0C",
"=  c #2E160E",
"-  c #201F16",
";  c #311515",
":  c #24210B",
">  c #2A270E",
",  c #232215",
"<  c #292611",
"1  c #2C2B1A",
"2  c #36310C",
"3  c #393618",
"4  c #3C391C",
"5  c #252525",
"6  c #282828",
"7  c #353324",
"8  c #393726",
"9  c #38372A",
"0  c #39382E",
"q  c #323232",
"w  c #3B3C3B",
"e  c #3F421B",
"r  c #40211C",
"t  c #433D13",
"y  c #403C1B",
"u  c #403D26",
"i  c #752219",
"p  c #494211",
"a  c #4D471F",
"s  c #42471C",
"d  c #514A1A",
"f  c #585015",
"g  c #5D551A",
"h  c #4A4729",
"j  c #444336",
"k  c #494730",
"l  c #484737",
"z  c #514E2F",
"x  c #524D23",
"c  c #595323",
"v  c #5A552C",
"b  c #5E5824",
"n  c #5F582A",
"m  c #535039",
"M  c #5D5933",
"N  c #5A5736",
"B  c #645C1F",
"V  c #635B24",
"C  c #615B2E",
"Z  c #605D3E",
"A  c #635E36",
"S  c #7C701F",
"D  c #676236",
"F  c #64613C",
"G  c #6C683E",
"H  c #766B22",
"J  c #716A37",
"K  c #7A712D",
"L  c #78713A",
"P  c #7B7337",
"I  c #424242",
"U  c #4B4B43",
"Y  c #484848",
"T  c #5F5D40",
"R  c #5C5C4C",
"E  c #515246",
"W  c #555555",
"Q  c #5D5C53",
"!  c gray37",
"~  c #605E4B",
"^  c #615D41",
"/  c #605F5A",
"(  c #64644C",
")  c #686548",
"_  c #6F6B47",
"`  c #6C694A",
"'  c #666345",
"]  c #646454",
"[  c #696954",
"{  c #6C6A5B",
"}  c #726D40",
"|  c #726D4E",
" . c #7A7442",
".. c #7C7649",
"X. c #74725A",
"o. c #787653",
"O. c gray38",
"+. c #6E7064",
"@. c #767562",
"#. c #7C7B63",
"$. c #737373",
"%. c gray50",
"&. c #AE3020",
"*. c #81583F",
"=. c #807839",
"-. c #857B35",
";. c #867F44",
":. c #847E51",
">. c #807E62",
",. c #CE1311",
"<. c #D20503",
"1. c #D9160E",
"2. c #EA0C0A",
"3. c #FE0000",
"4. c #FF0903",
"5. c #FB0A08",
"6. c #FF1A08",
"7. c #F71B15",
"8. c #FF200A",
"9. c #EC3C34",
"0. c #CC4424",
"q. c #FF4D19",
"w. c #FA4317",
"e. c #FF5E1F",
"r. c #FF6521",
"t. c #F26935",
"y. c #DD745E",
"u. c #DC7D62",
"i. c #E3734E",
"p. c #918428",
"a. c #968826",
"s. c #96882B",
"d. c #9C8F2C",
"f. c #978D3E",
"g. c #918635",
"h. c #AB9B2D",
"j. c #A3953A",
"k. c #BEAC32",
"l. c #8C8446",
"z. c #88845A",
"x. c #918840",
"c. c #8E8A60",
"v. c #86846B",
"b. c #8F8E70",
"n. c #918D69",
"m. c #999466",
"M. c #929172",
"N. c #9C9975",
"B. c #A99D40",
"V. c #A19643",
"C. c #A49E5E",
"Z. c #A19C66",
"A. c #B4A640",
"S. c #B8AB47",
"D. c #B6AB52",
"F. c #A8A36B",
"G. c #A6A379",
"H. c #A9A676",
"J. c #B4AB67",
"K. c #B2AE7D",
"L. c #BCB366",
"P. c #BAB374",
"I. c #C9B73D",
"U. c #CDBB39",
"Y. c #FFAC39",
"T. c #FFB23B",
"R. c #FFB93D",
"E. c #D2987E",
"W. c #CCBE4E",
"Q. c #C4BA62",
"!. c #C4BB6A",
"~. c #CABF60",
"^. c #C4BD7C",
"/. c #E0CB3A",
"(. c #E9D33C",
"). c #D0C050",
"_. c #D7C858",
"`. c #DDCE5C",
"'. c #DBCB54",
"]. c #DFD058",
"[. c #CFC462",
"{. c #CAC279",
"}. c #D2C664",
"|. c #D1C76D",
" X c #DACD64",
".X c #D9CD6A",
"XX c #D7CC6C",
"oX c #D2CA7C",
"OX c #D5CC75",
"+X c #E0CF53",
"@X c #E4D149",
"#X c #E6D245",
"$X c #E1D052",
"%X c #E3D77B",
"&X c #838383",
"*X c #999789",
"=X c #93938D",
"-X c #979794",
";X c #A4A389",
":X c #A8A781",
">X c #A9A786",
",X c #A2A29B",
"<X c #B1AF80",
"1X c #BCB886",
"2X c #B8B698",
"3X c #A5A5A3",
"4X c #B3B5A0",
"5X c gray72",
"6X c #BFC3B4",
"7X c #BEC3B8",
"8X c #CFA985",
"9X c #C3BD89",
"0X c #C7BA9C",
"qX c #C5C28C",
"wX c #CAC489",
"eX c #CEC986",
"rX c #CDC88B",
"tX c #C6C69D",
"yX c #C9C696",
"uX c #C8C699",
"iX c #CBC892",
"pX c #CCCA99",
"aX c #C5C396",
"sX c #D1CA82",
"dX c #D0C889",
"fX c #DAD185",
"gX c #DFD790",
"hX c #C4C5A3",
"jX c #C2C4AB",
"kX c #C0C4B1",
"lX c #D1CEA0",
"zX c #DBD7AE",
"xX c #D8D3A6",
"cX c #DCD9B6",
"vX c #E2D887",
"bX c #E3D887",
"nX c #E7DD95",
"mX c #E0D99B",
"MX c #E3DCA9",
"NX c #E3DFB5",
"BX c #E1DEB8",
"VX c #EFE390",
"CX c #E6E0AD",
"ZX c #EAE2A4",
"AX c #E5E2BC",
"SX c #EBE5B5",
"DX c #DFDEC8",
"FX c #E8E5C7",
"GX c #E9E6CB",
"HX c #EAE8CF",
"JX c #ECEAD4",
"KX c #EEEDDB",
"LX c #F0F0E3",
"PX c #F4F4EB",
"IX c #F7F7F0",
"UX c #FEFEFE",
"YX c None",
/* pixels */
"YXYXYXYXYXYXYXYXYXYXYXYXYXYXYXYXYXYXYXYXYXYXYXYXYXYXYXYX3.YXYXYX",
"YXYXYXYXYXYXYXYXYXYXYXYXYXYXYXYXYXYXYXYXYXYXYXYXYXYXYXYX3.YXYXYX",
"YXYXYXYXYXYXYXYXYXYXYXYXYXYXYXUXYXYXYXYXYXYXYXYXYXYXYXYX3.YXYXYX",
"YXYXYXYXYXYXYXYXYXYXYXYXYXYXYXUXYXYXYXYXYXYXYXYXYXYXYXYX3.YXYXYX",
"YXYXYXYXYXYXYXYXYXYXYXYXYXYXYXUXYXYXYXYXYXYXYXYXYXYXYXYX3.YXYXYX",
"YXYXYXYXYXYXYXYXYXYXYXYXYXYXYXUXYXYXYXYXYXYXYXYXYXYXYXYX3.YXYXYX",
"U Q HXJXPXUXYXYXYXYXYXYXYXYXYXUXYXYXYXYXYXYXYXYXYXYXYXYX3.YXYXYX",
"o   X.#.AX;XcXFXGXGXHXJXJXKXLXIXLXLXLXPXPXUXUXUXUXUXYXYX3.YXYXYX",
"X   N N Q ! h F sXsXsXeXsXeXrXBXqX1X<XG.N.b.v.@.[ R E U ,.I w w ",
"X   N z O.3X{.@ 1 oXsXsXsXsXeXBXeXeXiXyXiXyXuXtXhXhXhXjX9.kX6X7X",
"o   ] ~ >X;XgXk   J.OXoXoXsXsXNXeXeXeXrXiXiXiXpXtXtXhXjX9.6X6XkX",
".   v v ^ fXgX`   >.SXcXv.0 R DXFXBXzXxXlXpXpX0XuX8Xy.E.9.hX6XkX",
".   v v . l..Xx   ;.|.7 w o   X.oX^.P.F.m.o.o.J 0.w.6.3.2.] ] +.",
".   v X   < 4 o % }.J W 5XI   G OXoXwXK.eX8 wXt.Y.T.r.4.4.0X6X4X",
".   R . $ SXMXZXnXvXA o q   - !.OXOX9XN.^.1 i.e.T.R.r.5.7.hXtX6X",
".   b c   : a ~.%XnXsXm 9 ) :.L A L n.@.` . &.6.q.q.8.4.y.tXhXtX",
".   b V @ B.W.@ -.`.`.`. X X X.XXX9X-X/ 6   = 1.3.3.<.i [ M.;X2X",
"    V V A.$X$Xc X $X].].V.x P }..XsX*X{ _ , {.Z.; ;     % b.#.[ ",
".   ` | - ^ %XC   j.$X4 6     P  X.XP.c.!.1 {.u &X&Xq     G.hXhX",
".   B H     '.3   L e W 5XI   e D.}.P.z.L.% ' 5 $.$.6   % yXuXhX",
"I.H s.d.g @ U.X X #Xn & Y $ o f.f. .+.I o   Q   o .   + G.yXuXtX",
"g p.k./.(.a.t S U.#XsXt > K ).$X`.^.$.w o O 2Xv 1 , 7 T ( ( ( #.",
"    . * 2 p f S h.U.VX@X@X$X$X].`. Xm...Q.1 CXC.eXeXeXrXrXyXaX>X",
"YXYXYXYXYXYXYX    * *Xt d V g.S._. XJ.;.Q.1 CXC.oXoXeXrXiXyXuXtX",
"YXYXYXYXYXYXYXYXYXYXUXYXYX    O < 3 h u L ;.xXC.oXeXeXrXiXiXpXtX",
"YXYXYXYXYXYXYXYXYXYXUXYXYXYXYXYXYXYXYXYX  X ,X% 8 z N z.H.qXpXtX",
"YXYXYXYXYXYXYXYXYXYXUXYXYXYXYXYXYXYXYXYXYXYXUX  YXYX    % 1 9 j ",
"YXYXYXYXYXYXYXYXYXYXUXYXYXYXYXYXYXYXYXYXYXYXUX. YXYXYXYXYXYXYXYX",
"YXYXYXYXYXYXYXYXYXYXUXYXYXYXYXYXYXYXYXYXYXYXUX  YXYXYXYXYXYXYXYX",
"YXYXYXYXYXYXYXYXYXYXUXYXYXYXYXYXYXYXYXYXYXYXUXo YXYXYXYXYXYXYXYX",
"YXYXYXYXYXYXYXYXYXYXUXYXYXYXYXYXYXYXYXYXYXYXUX. YXYXYXYXYXYXYXYX",
"YXYXYXYXYXYXYXYXYXYXUXYXYXYXYXYXYXYXYXYXYXYXYXYXYXYXYXYXYXYXYXYX"
};
