/* XPM */
static char * nxtv_logo_xpm[] = {
"32 32 245 2",
"  	c None",
". 	c #FFFFFF",
"+ 	c #F1F1F1",
"@ 	c #F4F4F4",
"# 	c #9B9B9B",
"$ 	c #E8E8E8",
"% 	c #FCFCFC",
"& 	c #383838",
"* 	c #E7E7E7",
"= 	c #C0C0C0",
"- 	c #0B0B0B",
"; 	c #FEFEFE",
"> 	c #5A5A5A",
", 	c #060606",
"' 	c #D3D3D3",
") 	c #171717",
"! 	c #080808",
"~ 	c #737373",
"{ 	c #0C0C0C",
"] 	c #0A0A0A",
"^ 	c #DEDEDE",
"/ 	c #262626",
"( 	c #0E0E0E",
"_ 	c #828282",
": 	c #131313",
"< 	c #101010",
"[ 	c #E9E9E9",
"} 	c #DFDFDF",
"| 	c #404040",
"1 	c #E0E0E0",
"2 	c #2F2F2F",
"3 	c #141414",
"4 	c #121212",
"5 	c #F9F9F9",
"6 	c #5B5C5B",
"7 	c #232323",
"8 	c #858585",
"9 	c #191919",
"0 	c #161616",
"a 	c #141314",
"b 	c #EDECED",
"c 	c #A2A2A2",
"d 	c #252525",
"e 	c #353535",
"f 	c #1A191A",
"g 	c #151515",
"h 	c #7D7C7C",
"i 	c #DADADA",
"j 	c #202020",
"k 	c #272727",
"l 	c #868686",
"m 	c #1E1E1E",
"n 	c #1B1B1B",
"o 	c #4F4F4F",
"p 	c #F2F2F2",
"q 	c #FAFAFA",
"r 	c #4B4B4B",
"s 	c #0F0F0F",
"t 	c #0D0D0D",
"u 	c #282828",
"v 	c #D8D8D8",
"w 	c #1F1F1F",
"x 	c #1D1D1D",
"y 	c #333333",
"z 	c #DCDCDC",
"A 	c #898989",
"B 	c #111111",
"C 	c #2A2A2A",
"D 	c #F3F3F3",
"E 	c #757575",
"F 	c #242424",
"G 	c #212121",
"H 	c #BEBEBE",
"I 	c #BFBFBF",
"J 	c #121313",
"K 	c #2C2B2B",
"L 	c #7D7D7D",
"M 	c #B6B6B6",
"N 	c #C5C5C5",
"O 	c #313131",
"P 	c #9C9C9C",
"Q 	c #FDFDFD",
"R 	c #E3E3E3",
"S 	c #343334",
"T 	c #747474",
"U 	c #B2B2B2",
"V 	c #5B5B5B",
"W 	c #2A2A29",
"X 	c #7C7C7C",
"Y 	c #545454",
"Z 	c #1C1C1C",
"` 	c #1A1A1A",
" .	c #181818",
"..	c #FBFBFB",
"+.	c #F5F5F5",
"@.	c #717171",
"#.	c #B3B3B3",
"$.	c #A4A4A4",
"%.	c #2E2F2F",
"&.	c #2C2C2C",
"*.	c #646464",
"=.	c #787878",
"-.	c #222121",
";.	c #EDEDED",
">.	c #616161",
",.	c #0B0B0C",
"'.	c #B4B4B4",
").	c #E1E1E1",
"!.	c #484848",
"~.	c #2F3030",
"{.	c #595959",
"].	c #969696",
"^.	c #222222",
"/.	c #4C4C4C",
"(.	c #111212",
"_.	c #100F0F",
":.	c #B5B5B5",
"<.	c #FAFAF9",
"[.	c #818181",
"}.	c #525252",
"|.	c #DDDDDD",
"1.	c #ACACAC",
"2.	c #303030",
"3.	c #343434",
"4.	c #B8B8B8",
"5.	c #D1D1D1",
"6.	c #3D3D3C",
"7.	c #171718",
"8.	c #BBBBBB",
"9.	c #3C3C3C",
"0.	c #D2D2D2",
"a.	c #B7B7B7",
"b.	c #393939",
"c.	c #2B2B2B",
"d.	c #292929",
"e.	c #CFCFCF",
"f.	c #323232",
"g.	c #999999",
"h.	c #A6A6A6",
"i.	c #C1C1C1",
"j.	c #585858",
"k.	c #505050",
"l.	c #CCCCCC",
"m.	c #414141",
"n.	c #303131",
"o.	c #6F6F6F",
"p.	c #E6E6E6",
"q.	c #949495",
"r.	c #2D2D2D",
"s.	c #7E7E7E",
"t.	c #0A0B0B",
"u.	c #C2C2C2",
"v.	c #888888",
"w.	c #555555",
"x.	c #474746",
"y.	c #40403F",
"z.	c #A0A0A0",
"A.	c #F7F7F7",
"B.	c #6B6B6C",
"C.	c #2E2E2E",
"D.	c #D6D6D6",
"E.	c #5D5D5D",
"F.	c #D0D0D0",
"G.	c #BCBCBC",
"H.	c #5E5E5E",
"I.	c #C4C4C4",
"J.	c #4D4D4D",
"K.	c #141415",
"L.	c #C4C3C3",
"M.	c #D4D4D4",
"N.	c #BABABA",
"O.	c #4A4A49",
"P.	c #444444",
"Q.	c #909090",
"R.	c #EBEBEB",
"S.	c #9A9A9A",
"T.	c #3D3D3D",
"U.	c #585857",
"V.	c #1A1B1A",
"W.	c #9E9F9F",
"X.	c #B7B7B8",
"Y.	c #4D4C4D",
"Z.	c #676767",
"`.	c #C8C8C8",
" +	c #D9D9D9",
".+	c #6E6E6E",
"++	c #373737",
"@+	c #464646",
"#+	c #8A8A8A",
"$+	c #DBDBDB",
"%+	c #F6F6F6",
"&+	c #585859",
"*+	c #212020",
"=+	c #ABABAB",
"-+	c #8B8B8B",
";+	c #59595A",
">+	c #9F9F9F",
",+	c #EFEFEF",
"'+	c #F8F8F8",
")+	c #565656",
"!+	c #E2E2E2",
"~+	c #2E2D2E",
"{+	c #3F3F3F",
"]+	c #727272",
"^+	c #E4E4E4",
"/+	c #6B6B6B",
"(+	c #111011",
"_+	c #0E0E0D",
":+	c #838383",
"<+	c #D7D7D7",
"[+	c #6D6D6D",
"}+	c #4F504F",
"|+	c #959595",
"1+	c #141413",
"2+	c #8F8F8F",
"3+	c #C7C7C7",
"4+	c #848484",
"5+	c #363636",
"6+	c #434343",
"7+	c #707070",
"8+	c #A8A8A8",
"9+	c #A3A3A3",
"0+	c #1C1C1B",
"a+	c #1A1A19",
"b+	c #BFC0C0",
"c+	c #CACACA",
"d+	c #777777",
"e+	c #4A4A4A",
"f+	c #636363",
"g+	c #919191",
"h+	c #EEEEEE",
"i+	c #343534",
"j+	c #201F20",
"k+	c #E5E5E5",
"l+	c #4E4D4D",
"m+	c #373837",
"n+	c #2C2C2D",
"o+	c #262625",
"p+	c #232423",
"q+	c #929292",
"r+	c #414041",
"s+	c #3E3E3F",
"t+	c #3B3B3A",
"u+	c #383839",
"v+	c #272627",
". . . . . . . . . . . . . . + @ . . . . . . . . . . . . . . . . ",
". . . . . . . . . . . . . . # $ . . . . . . . . . . . . . . . . ",
". . . . . . . . . . . . . % & * . . . . . . . . . . . . . . . . ",
". . . . . . . . . . . . . = - * . . . . . . . . . . . . . . . . ",
". . . . . . . . . . . . ; > , * . . . . . . . . . . . . . . . . ",
". . . . . . . . . . . . ' ) ! * . . . . . . . . . . . . . . . . ",
". . . . . . . . . . . . ~ { ] $ . . . . . . . . . . . . . . . . ",
". . . . . . . . . . . ^ / ( { $ . . ; = . . . . . . . . . . . . ",
". . . . . . . . . . . _ : < ( [ . . } | . . . . . . . . . . . . ",
". . . . . . . . . . 1 2 3 4 < [ . 5 6 7 . . . . . . . . . . . . ",
". . . . . . . . . . 8 9 0 a 0 b ; c { d . . . . . . . . . . . . ",
". . . . . . . . . 1 e f ) g h % i j - k . . . . . . . . . . . . ",
". . . . . . . . ; l m n 9 o p q r s t u . . . . . . . . . . . . ",
". . . . . . . . v e w x y z . A : B s C . . . 5 D . . . . . . . ",
". . . . . . . % E F G u H . I m g J < K . . 5 L M . . . . . . . ",
". . . . . . . N O d F P Q R S 9 0 3 3 T . 5 L - U . . . . . . . ",
". . . . . . p V W u X 5 @ Y Z `  . .T ..+.@.{ ] #.. . . . . . . ",
". . . . . ; $.%.&.*.+ q =.-.m Z m _ % ;.>.< ( ,.'.. . . . . . . ",
". . . . . ).!.~.{.* % ].u ^.j / P ; )./.3 (._.t :.. . . ; . . . ",
". . . . <.[.y }.|.Q 1.2./ F 3.4.. 5.6.7.g : B : 8.. ; N v . . . ",
". . . ; H 9.o 0.Q a.b.c.d.r e.Q a.f.n 9 ) 0 f.g.@ 5 h.w i.. . . ",
". . . $ j.k.l.; = m.2 n.o.p.+.q.u w x n r.s.R ; 1 o.3 t.u.. . . ",
". . q v.w.l.Q I x.y y.z.A.R B.k 7 G C.T D.; p h.e B ( { u.. . . ",
". ; H E.F.Q G.!.& H.l.% I.J.C u y ~ F.Q +.a.}.n K.4 < ( L.. . . ",
". * T M.Q N.O.P.Q.R.D S.T.C.9.L M.% +.a.U.7 V. .0 3 : d.F.. $ $.",
"q W.|.Q X.Y.Z.`... +.+++@+#+$+Q %+M &+u *+m Z n f.*.=+^ i -+O / ",
" +[ Q a.;+>+,+'+1.o )+P !+Q + U {.~+k F F {+]+:.^+p H /+C (+_+F ",
"q ; G.:+<+Q ).s.[+'.;.; R # }+f.r.2.)+v.N R...$+|+@+j 0 1+B s F ",
". z I.A.q 4.2+3++.Q M.4+!.5+6+7+8+^ @ Q ^ 9+E.2 w 0+a+) g : B F ",
". '+. [ b+i q ..c+d+e+f+g+N h+..% D.P V i+u F ^.j+x n 9 ) g : F ",
". . 5 + Q 5 = #+Q.N.$ 5 ; k+a.8 l+m+2 n+C u o+p+G w x n 9 ) g F ",
". . . ; p D.$ ..5 } G.q+*.r @+6+r+s+9.t+u+5+3.y O C.r.c.d.v+d O "};
