/* XPM */
static char *dummy[]={
"32 32 153 2",
".g c #000000",
"#t c #020202",
"#u c #040404",
".X c #050505",
".O c #060606",
".J c #070707",
".W c #080808",
"#l c #090909",
".f c #0b0b0b",
".8 c #0c0c0c",
"#N c #0e0e0e",
".# c #0f0f0f",
"#6 c #101010",
"#F c #111111",
".M c #121212",
".1 c #131313",
"aw c #141414",
"av c #151515",
"al c #161616",
".c c #171717",
"#d c #181818",
".v c #191919",
".P c #1a1a1a",
"## c #1b1b1b",
"Qt c #1e1e1e",
".j c #202020",
".K c #212121",
"#. c #222222",
".h c #232323",
".N c #242424",
".3 c #282828",
"an c #292929",
"#g c #2a2a2a",
"at c #2c2c2c",
"#O c #2d2d2d",
".d c #2e2e2e",
".U c #2f2f2f",
"#R c #313131",
".u c #323232",
"#C c #333333",
"#q c #373737",
"#J c #393939",
".a c #3b3b3b",
"ah c #3c3c3c",
".I c #3e3e3e",
".6 c #3f3f3f",
".m c #424242",
"#M c #444444",
"ai c #454545",
"ak c #464646",
"#9 c #474747",
"#w c #484848",
".Q c #494949",
"#5 c #505050",
"#h c #515151",
"#Q c #525252",
".t c #555555",
"#y c #575757",
".5 c #595959",
"#X c #5a5a5a",
".n c #5b5b5b",
"#r c #5f5f5f",
"#2 c #606060",
"#a c #616161",
"ae c #626262",
"#c c #636363",
"#Z c #656565",
"#I c #666666",
"#Y c #696969",
"#x c #6a6a6a",
".l c #6b6b6b",
".2 c #6c6c6c",
".s c #6d6d6d",
".o c #6e6e6e",
"as c #6f6f6f",
"#3 c #727272",
"#j c #747474",
"aq c #757575",
".T c #767676",
"#A c #777777",
"#U c #787878",
".r c #797979",
"#1 c #7e7e7e",
".H c #7f7f7f",
"#E c #808080",
".0 c #828282",
"aj c #838383",
".R c #848484",
"#n c #858585",
"#T c #898989",
"#8 c #8a8a8a",
"ad c #8b8b8b",
".B c #8c8c8c",
"#0 c #8d8d8d",
".p c #8f8f8f",
".y c #909090",
"#4 c #919191",
".9 c #929292",
".C c #939393",
".Y c #979797",
".4 c #989898",
"#L c #999999",
".x c #9c9c9c",
".z c #9d9d9d",
".7 c #9e9e9e",
"ap c #9f9f9f",
".D c #a2a2a2",
"#m c #a5a5a5",
"#P c #a6a6a6",
"ab c #a7a7a7",
"#W c #a8a8a8",
"ac c #a9a9a9",
".G c #ababab",
"#z c #b1b1b1",
"a# c #b2b2b2",
"#K c #b4b4b4",
"#s c #b5b5b5",
".S c #b8b8b8",
".w c #b9b9b9",
"#k c #bababa",
"#v c #bbbbbb",
".E c #bcbcbc",
".i c #bfbfbf",
".F c #c0c0c0",
"#B c #c2c2c2",
".V c #c3c3c3",
"#b c #c4c4c4",
".Z c #c6c6c6",
".b c #c7c7c7",
".k c #c8c8c8",
".L c #c9c9c9",
"#o c #cacaca",
"ao c #cbcbcb",
"#H c #cccccc",
"am c #cdcdcd",
"#p c #cecece",
"#i c #cfcfcf",
"ar c #d1d1d1",
"#7 c #d4d4d4",
".e c #d5d5d5",
"#e c #d7d7d7",
"ag c #d9d9d9",
"a. c #dcdcdc",
"#G c #dddddd",
".q c #e0e0e0",
".A c #e2e2e2",
"aa c #e5e5e5",
"#f c #e8e8e8",
"au c #eaeaea",
"#V c #ececec",
"#S c #eeeeee",
"af c #f8f8f8",
"#D c #ffffff",
"Qt.#.#.a.b.c.#.#.#.#.#.#.#.#.#.#.#.#.#.#.#.#.#.#.#.#.#.#.#.#.d.e",
".f.g.g.h.i.g.g.g.g.g.g.g.g.g.g.g.g.g.g.g.g.g.g.g.g.g.g.g.g.j.k.l",
".m.n.o.p.q.r.s.t.u.v.g.g.g.g.g.g.g.g.g.g.g.g.g.g.g.g.g.g.j.k.s.g",
".w.x.y.z.A.B.C.D.E.F.G.H.I.J.g.g.g.g.g.g.g.g.g.g.g.g.g.K.L.o.g.g",
".M.g.g.N.F.g.g.g.O.P.Q.R.S.w.T.P.g.g.g.g.g.g.g.g.g.g.K.L.s.g.g.g",
".#.g.g.U.V.W.g.g.g.g.g.g.X.a.Y.Z.0.1.g.g.g.g.g.g.g.j.L.2.g.g.g.g",
".#.g.g.U.V.W.g.g.g.g.g.g.g.g.g.3.4.Z.5.g.g.g.g.g.j.L.s.g.g.g.g.g",
".#.g.g.U.V.W.g.g.g.g.g.g.g.g.g.g.g.6.F.7.M.g.g.K.L.2.g.g.g.g.g.g",
".#.g.g.U.V.W.g.g.g.g.g.g.g.g.g.g.g.g.8.9.b#.##.L.s.g.g.g.g.g.g.g",
".#.g.g.U.V.W.g.g.g.g.g.g.g.g.g.g.g.g.g.g#a#b.L#c.g.g.g.g.g.g.g.g",
".#.g.g.U.V.W.g.g.g.g.g.g.g.g.g.g.g.g.g.g#d#e#f#g.g.g.g.g.g.g.g.g",
".#.g.g.U.V.W.g.g.g.g.g.g.g.g.g.g.g.g.g#..k#a#h#i.h.g.g.g.g.g.g.g",
".#.g.g.U.V.W.g.g.g.g.g.g.g.g.g.g.g.g#..L.2.g.g#j#k#l.g.g.g.g.g.g",
".#.g.g.U.V.W.g.g.g.g.g.g.g.g.g.g.g#..L.2.g.g.g.g#m#n.g.g.g.g.g.g",
".#.g.g.U.V.W.g.g.g.g.g.g.g.g.g.g#.#o.l.g.g.g.g.g#d#p#q.g.g.g.g.g",
".#.g.g.U.V.W.g.g.g.g.g.g.g.g.g#..L.l.g.g.g.g.g.g.g#r#s#t.g.g.g.g",
".#.g.g.U.V.W.g.g.g.g.g.g.g.g.K#o.l.g.g.g.g.g.g.g.g#u#v#w.g.g.g.g",
".#.g.g.U.V.W.g.g.g.g.g.g.g#.#o#x.g.g.g.g.g.g.g.g.g.g#y#z#t.g.g.g",
".#.g.g.U.V.W.g.g.g.g.g.g#.#o#x#A#v#v.g.g#v#v#v#v#v#v.s#B.U.g.g.g",
".#.g.g.U.V.W.g.g.g.g.g.h.L.l#C#D#D#D.g.g#v#v#v#v#D#D#A.0#E.g.g.g",
".#.g.g.U.V.W.g.g.g.g.h.L.l#F#G#H#D#D.g.g.g.g.g#I#D#D#.#J#K#u.g.g",
".#.g.g.U.V.W.g.g.g.h.L#x.g#L#H#M#D#D.g.g.g.g.g#G#D#L.g#N.F.N.g.g",
".#.g.g#O#B.O.g.g.h#o.l.g.t#D#C#M#D#D.g.g.g.g#I#D#D#..g.g#P#Q.g.g",
".#.g.g#R.b#l.g.N#o.l.g.g#S#H#A#L#D#D#A#..g#F#G#D#L.g.g.g#T#U.g.g",
".#.g#c#B#V#W#X#v#Y.g.g.g#D#D#D#D#D#D#D#M.g#A#D#D#..g.g.g#Z#0.g.g",
".##1.E#2#k#3#D#4.g.g.g.g.g.g.g#M#D#D.g.g#F#S#D#A.g.g.g.g#5#L.g.g",
"#J.b#6.P#7#K#8#z.#.g.g.g.g.g.g#M#D#D.g.g#A#D#S#F.g.g.g.g#9.D.g.g",
"#ia.#La##Daa.x#f.Sabacacacacacacacacacacacacacacacacac#m.i.Aab#W",
"ad.Eaeafagah#9#eaeai#9#9#9#9#9#9#9#9#9#9#9#9#9#9#9#9#9#Maj#saiak",
"al.wamaj#K.g.o.G.g.g.g.g.g.g.g.g.g.g.g.g.g.g.g.g.g.g.g.g#a#8.g.g",
"anaoa.ap#7.D.i.h.g.g.g.g.g.g.g.g.g.g.g.g.g.g.g.g.g.g.g.g#Taq.g.g",
"arasat.Yau#1.havavavavavavavavavavavavavavavavavavavavalac.navaw"};
