/* XPM */
static char * pixbros_xpm[] = {
"32 32 367 2",
"  	c None",
". 	c #001400",
"+ 	c #002C00",
"@ 	c #003000",
"# 	c #002E00",
"$ 	c #002700",
"% 	c #000B00",
"& 	c #003A00",
"* 	c #006C00",
"= 	c #008100",
"- 	c #008C00",
"; 	c #008B00",
"> 	c #007C00",
", 	c #006500",
"' 	c #002800",
") 	c #002200",
"! 	c #007700",
"~ 	c #009200",
"{ 	c #008F00",
"] 	c #005B00",
"^ 	c #001800",
"/ 	c #002400",
"( 	c #007600",
"_ 	c #009100",
": 	c #006400",
"< 	c #001D00",
"[ 	c #000900",
"} 	c #007A00",
"| 	c #001A00",
"1 	c #006200",
"2 	c #001700",
"3 	c #005500",
"4 	c #006600",
"5 	c #006A00",
"6 	c #003F00",
"7 	c #007200",
"8 	c #008500",
"9 	c #013100",
"0 	c #001E00",
"a 	c #007500",
"b 	c #000800",
"c 	c #005F00",
"d 	c #001600",
"e 	c #003500",
"f 	c #008600",
"g 	c #007300",
"h 	c #007800",
"i 	c #007E00",
"j 	c #008000",
"k 	c #007D00",
"l 	c #008200",
"m 	c #008E00",
"n 	c #000600",
"o 	c #002D00",
"p 	c #008D00",
"q 	c #008800",
"r 	c #008400",
"s 	c #006700",
"t 	c #001B00",
"u 	c #009000",
"v 	c #006D00",
"w 	c #000E00",
"x 	c #007B00",
"y 	c #006F00",
"z 	c #006300",
"A 	c #015A00",
"B 	c #024F01",
"C 	c #024401",
"D 	c #003900",
"E 	c #002300",
"F 	c #000400",
"G 	c #000500",
"H 	c #002000",
"I 	c #005400",
"J 	c #007000",
"K 	c #007100",
"L 	c #005800",
"M 	c #034602",
"N 	c #053703",
"O 	c #143D0E",
"P 	c #092406",
"Q 	c #202B18",
"R 	c #322F24",
"S 	c #373228",
"T 	c #4D4B40",
"U 	c #393529",
"V 	c #020302",
"W 	c #000100",
"X 	c #010200",
"Y 	c #040500",
"Z 	c #341200",
"` 	c #3B1500",
" .	c #261C00",
"..	c #082300",
"+.	c #052600",
"@.	c #082400",
"#.	c #092100",
"$.	c #0A2507",
"%.	c #172910",
"&.	c #2E332A",
"*.	c #2E2F28",
"=.	c #45473D",
"-.	c #363127",
";.	c #29251D",
">.	c #7F725C",
",.	c #6E6350",
"'.	c #40392E",
").	c #52493B",
"!.	c #5F5649",
"~.	c #8E887E",
"{.	c #857F75",
"].	c #645C50",
"^.	c #0D0B09",
"/.	c #010000",
"(.	c #000000",
"_.	c #170700",
":.	c #140600",
"<.	c #9C2E00",
"[.	c #B43500",
"}.	c #6D2000",
"|.	c #200900",
"1.	c #0C0401",
"2.	c #1D0800",
"3.	c #1C0B03",
"4.	c #342D24",
"5.	c #655E53",
"6.	c #837D73",
"7.	c #8A847B",
"8.	c #766F64",
"9.	c #50483A",
"0.	c #393329",
"a.	c #2F2A22",
"b.	c #51483B",
"c.	c #564E40",
"d.	c #918B83",
"e.	c #7D766B",
"f.	c #585042",
"g.	c #171410",
"h.	c #090200",
"i.	c #1B0800",
"j.	c #AF3400",
"k.	c #B93700",
"l.	c #982D00",
"m.	c #2A0C00",
"n.	c #0F0C09",
"o.	c #1C0C04",
"p.	c #211C17",
"q.	c #6C665B",
"r.	c #8E887F",
"s.	c #696155",
"t.	c #352F26",
"u.	c #14110E",
"v.	c #665E52",
"w.	c #938D84",
"x.	c #868076",
"y.	c #797267",
"z.	c #221E18",
"A.	c #050200",
"B.	c #070200",
"C.	c #050100",
"D.	c #B83700",
"E.	c #B43600",
"F.	c #421502",
"G.	c #0B0805",
"H.	c #514C44",
"I.	c #827B71",
"J.	c #8F897F",
"K.	c #6C6559",
"L.	c #363027",
"M.	c #0C0A08",
"N.	c #7A7368",
"O.	c #918B82",
"P.	c #736B60",
"Q.	c #554C3E",
"R.	c #211D17",
"S.	c #030100",
"T.	c #0F0400",
"U.	c #521900",
"V.	c #AE3400",
"W.	c #A13001",
"X.	c #5B3824",
"Y.	c #B7A485",
"Z.	c #373127",
"`.	c #645E55",
" +	c #5A5245",
".+	c #50473A",
"++	c #373128",
"@+	c #635847",
"#+	c #353129",
"$+	c #585044",
"%+	c #4B4336",
"&+	c #3D372C",
"*+	c #1F0A01",
"=+	c #9A2E01",
"-+	c #802802",
";+	c #948065",
">+	c #F2D9AF",
",+	c #D4BE99",
"'+	c #A79679",
")+	c #5E5444",
"!+	c #24201A",
"~+	c #302B23",
"{+	c #3A342A",
"]+	c #3F382D",
"^+	c #383228",
"/+	c #25211A",
"(+	c #84765F",
"_+	c #EAD2AA",
":+	c #746753",
"<+	c #2E2921",
"[+	c #201C17",
"}+	c #322D24",
"|+	c #BDA988",
"1+	c #554A3B",
"2+	c #220B01",
"3+	c #812701",
"4+	c #4A2110",
"5+	c #716655",
"6+	c #BFAC8B",
"7+	c #E6CEA7",
"8+	c #FFE5B9",
"9+	c #F3DAB0",
"0+	c #BDAA89",
"a+	c #98886E",
"b+	c #857860",
"c+	c #9E8D72",
"d+	c #E6CFA7",
"e+	c #FDE3B7",
"f+	c #FEE4B8",
"g+	c #F6DDB2",
"h+	c #18110B",
"i+	c #5A1B00",
"j+	c #4F4844",
"k+	c #BFBEBE",
"l+	c #878581",
"m+	c #645D51",
"n+	c #706552",
"o+	c #AD9B7E",
"p+	c #E8D0A8",
"q+	c #FDE3B8",
"r+	c #BDA888",
"s+	c #260E03",
"t+	c #0B0300",
"u+	c #932B00",
"v+	c #1E0900",
"w+	c #444241",
"x+	c #7D7D7D",
"y+	c #FDFDFD",
"z+	c #FFFFFF",
"A+	c #DBDBDB",
"B+	c #9D9D9C",
"C+	c #676665",
"D+	c #5C5A58",
"E+	c #706A62",
"F+	c #827867",
"G+	c #998A71",
"H+	c #BBA889",
"I+	c #C1AE8E",
"J+	c #C9B593",
"K+	c #CFBA97",
"L+	c #D7C19C",
"M+	c #DDC7A1",
"N+	c #D6C09B",
"O+	c #584332",
"P+	c #671E00",
"Q+	c #220A00",
"R+	c #AD3300",
"S+	c #3D1200",
"T+	c #1D1A18",
"U+	c #111111",
"V+	c #A7A7A7",
"W+	c #B3B3B3",
"X+	c #D3D3D3",
"Y+	c #FEFEFE",
"Z+	c #F5F5F5",
"`+	c #DFDFDF",
" @	c #CDCDCC",
".@	c #B7B6B6",
"+@	c #A4A4A3",
"@@	c #979694",
"#@	c #908E8B",
"$@	c #878480",
"%@	c #817D77",
"&@	c #78726B",
"*@	c #575047",
"=@	c #3B342A",
"-@	c #632508",
";@	c #732200",
">@	c #471500",
",@	c #B73600",
"'@	c #7C2500",
")@	c #261007",
"!@	c #3A3939",
"~@	c #8B8B8B",
"{@	c #2A2A2A",
"]@	c #9D9D9D",
"^@	c #D1D1D1",
"/@	c #929292",
"(@	c #C0C0C0",
"_@	c #393734",
":@	c #3B1706",
"<@	c #481500",
"[@	c #270B00",
"}@	c #6A1F00",
"|@	c #822700",
"1@	c #361001",
"2@	c #35241D",
"3@	c #D2D2D2",
"4@	c #646464",
"5@	c #6B6B6B",
"6@	c #474747",
"7@	c #696969",
"8@	c #EFEFEF",
"9@	c #D5D5D5",
"0@	c #3F3C39",
"a@	c #1C1813",
"b@	c #3F1301",
"c@	c #040100",
"d@	c #381000",
"e@	c #0D0400",
"f@	c #0E0400",
"g@	c #292725",
"h@	c #F7F7F7",
"i@	c #9F9F9F",
"j@	c #656565",
"k@	c #616161",
"l@	c #A4A4A4",
"m@	c #C1C1C1",
"n@	c #D4D4D4",
"o@	c #EDEDED",
"p@	c #959492",
"q@	c #2D2B27",
"r@	c #361709",
"s@	c #1A0901",
"t@	c #300E00",
"u@	c #020000",
"v@	c #0E0602",
"w@	c #1C1816",
"x@	c #696968",
"y@	c #A3A3A3",
"z@	c #E9E9E9",
"A@	c #F6F6F6",
"B@	c #CACACA",
"C@	c #AAAAAA",
"D@	c #909090",
"E@	c #7C7C7C",
"F@	c #5B5B5B",
"G@	c #4F4E4D",
"H@	c #1E1B17",
"I@	c #0D0A08",
"J@	c #671F00",
"K@	c #0A0200",
"L@	c #0B0A08",
"M@	c #181613",
"N@	c #1C1B1A",
"O@	c #605F5D",
"P@	c #8E8D8C",
"Q@	c #878685",
"R@	c #6D6C6B",
"S@	c #2E2D2C",
"T@	c #110F0D",
"U@	c #100A07",
"V@	c #1A0800",
"W@	c #12100E",
"X@	c #11100E",
"Y@	c #12110F",
"Z@	c #100F0D",
"                      . + @ # $                                 ",
"                  % & * = - ; > , '                             ",
"                ) ! ~ ~ ~ ~ ~ ~ ~ { ] ^                         ",
"              / ( ~ ~ ~ ~ ~ ~ ~ ~ ~ _ : <                       ",
"            [ ( ~ ~ ~ ~ ~ ~ ~ ~ ~ ~ ~ ~ } |                     ",
"            / ~ ~ ~ ~ ~ ~ ~ ~ ~ ~ ~ ~ ~ ~ 1 2                   ",
"            3 ~ ~ ~ ~ ~ ~ ~ ~ ~ ~ ~ ~ ~ ~ ~ 4 %                 ",
"            5 ~ ~ ~ ~ ~ ~ ~ ~ ~ ~ ~ ~ ~ ~ ~ _ 6                 ",
"          | 7 ~ ~ ~ ~ ~ ~ ~ ~ ~ ~ ~ ~ ~ ~ ~ ~ 8 9               ",
"          0 a ~ ~ ~ ~ ~ ~ ~ ~ ~ ~ ~ ~ ~ ~ ~ ~ ~ ! b             ",
"          | 7 ~ ~ ~ ~ ~ ~ ~ ~ ~ ~ ~ ~ ~ ~ ~ ~ ~ ~ c d           ",
"          e f ~ ~ > g g g g h i j = k g l ~ ~ ~ ~ m 1 n         ",
"        o m ~ ~ ~ ~ ~ ~ ~ ~ p q f r q ~ ~ ~ ~ ~ ~ ~ ~ s t       ",
"      $ > ~ ~ ~ ~ ~ ~ ~ ~ ~ ~ ~ ~ ~ ~ ~ ~ ~ ~ ~ ~ ~ ~ u v w     ",
"    ) f ~ ~ ~ ~ ~ ~ ~ ~ ~ ~ ~ ~ ~ ~ ~ u q x y z A B C e D E F   ",
"  G H I J q _ ~ ~ ~ ~ ~ ~ ~ ~ r K L M N O P Q R S T U V W       ",
"      X Y Z `  ...+.@.#.$.%.&.*.=.-.;.>.,.'.).!.~.{.].^./.(.    ",
"      _.:.<.[.}.|.1.2.3.4.5.6.7.8.).9.0.a.b.c.d.~.e.f.g.h.(.    ",
"      i._.j.k.l.m.n.o.p.q.r.7.s.).).).t.u.v.w.x.y.).).z.A.(.    ",
"    A.B.C.D.k.E.F.u.G.H.I.J.K.).).).).L.M.N.O.P.Q.).).R./.C.    ",
"    S.  T.U.V.W.X.Y.Z.L.`. +).).).)..+++@+#+$+.+%+&+S ;.        ",
"        A.*+=+-+;+>+,+'+)+!+~+{+]+^+/+(+_+:+<+[+}+>.|+1+        ",
"        (.2+3+4+5+6+7+8+8+9+0+a+b+c+d+8+8+8+e+f+8+8+g+h+        ",
"        S.i+i+j+k+l+m+n+o+p+q+8+8+8+8+8+8+8+8+8+8+8+r+s+        ",
"        t+u+v+w+x+y+z+A+B+C+D+E+F+G+o+H+I+J+K+L+M+N+O+P+        ",
"        Q+R+S+T+U+V+W+X+z+Y+Z+`+ @.@+@@@#@$@%@&@*@=@-@;@        ",
"        >@,@'@)@!@~@{@]@^@/@z+z+z+z+z+z+z+z+z+(@_@:@<@[@        ",
"        }@|@Q+1@2@3@4@5@6@7@8@z+z+z+z+z+z+z+9@0@a@b@>@c@        ",
"      /.d@C.  e@f@g@+@h@i@j@k@x+l@m@n@o@8@p@q@r@s@t@Q+/.        ",
"        S.    u@  v@w@x@y@z@A@B@C@D@E@F@G@H@I@J@    K@          ",
"                      L@M@N@O@P@Q@R@S@T@U@    V@    t+          ",
"                            W@X@Y@Z@          (.                "};
