/* XPM */
static char *icon[]={
"60 60 2 1",
". c #000000",
"# c #ffffff",
"............................................................",
".#############.##############.##############.##############.",
".#############.##############.##############.##############.",
".###......####.####.#########.##############.##############.",
".####.###..###.##########..##.##############.##############.",
".####.####.###.##########.###.##############.##############.",
".####.###..###.###..###....##.####..#..#####.#####..#######.",
".####.....####.####.###.##.##.#####.#.######.####.##.######.",
".####.########.####.##.##.###.######.#######.####....######.",
".####.########.####.#.####.##.######.#######.####.#########.",
".####.########.####.#.#.#####.#####.#.######.####..##.#####.",
".###...#######.###...#.#.#.##.####..#..#####.#####...######.",
".#############.####...#..#.##.##############.##############.",
".#############.###.#.#..#..##.##############.##############.",
"............................................................",
".#############.##...#...#..##.##############.##############.",
".#############.##.#...#.....#.##############.##############.",
".#############.##...#.#.#..#..##############.##############.",
".####..#######.#.##.###.....#.##############.##############.",
".#####.#######..#.###.#...#.#.##############.##############.",
".#####.#######.#.####.#.##....##############.##############.",
".#####.#######..#...#.#.#.#.#.####....######.#####..#######.",
".#####.#######.#.##.##.#.#..#.####.##.######.####.##.######.",
".#####.#######.##.#.#.#.#.#.#..#####.#######.####....######.",
".#####.######..#.##.#.##.#.#...####.########.####.#########.",
".#####.######...###.###.#.#.#.#.##.##.######.####..##.#####.",
".####...######.#.#...#.#.##.#..###....######.#####...######.",
".############...#.#.#.#.#.#.#.##.###########.##############.",
".############..#####.###.#.#..##############.##############.",
"............................................................",
".#############.#.####.##.#.#..####.#########.##############.",
".###########.#..##.#.##.##.#..##############.##############.",
".###########.#.####.##.#####..##.###########.##############.",
".############..############...#####.########.##############.",
".###########.#.##############.##############.##############.",
".###########.#.####.#######.#.######.#######.##############.",
".#############.##############.##############.##############.",
".############...#.###.#####.#.##.####.######.##############.",
".###########.#.########.####..######.#######.##############.",
".###########.#..#..##.#..##.#..#######.#####.##############.",
".############..#.###########..###.#.########.##############.",
".###########.#.#.##.#.##.##.#..######.#.####.##############.",
".##########.............#.##..#...######.###.##############.",
".##########.#...#..#...#...#...#.#.#...#..##.##############.",
"............................................................",
".##########..#....#...#....#....#.#..#.##.##.##############.",
".###########.....#..#...#.....#.....#......#.##############.",
".##########..#.#.....#.....##....#...#.#.#...##############.",
".##########.#..#.#..#..#.##....#...#..#...#..##############.",
".###########.#.############.#.############.#.##############.",
"...#.......#....#..##.#....#..#.#..#..#.#.#........#........",
".#..#.#.#.#..#.#.#......#.#....#.######.####...##.#..#.#.#..",
"..#.#.#..#####.##############.#############...#..#..#.#..#..",
"...#.....#####.##############.###########..#.#.#...#..#.#...",
"......#.#.#..#.#....#.....#.#..#..............#..#.#.#..#.#.",
"..#.#.......#...#.#...#.......#..#.##..#.#.#....##.#...#..#.",
".#.#.#.#.#.#........#....#..#...#.......#....#.#...#.#....#.",
".#....#......#..#.#....#..........#..#.....#......#...#.#...",
"....#.....#........#..#....#...#.......#......#..#...#....#.",
"............................................................"};
