<?xml version="1.0" encoding="UTF-8" standalone="no"?>
<!-- Created with Inkscape (http://www.inkscape.org/) -->
<svg
   xmlns:svg="http://www.w3.org/2000/svg"
   xmlns="http://www.w3.org/2000/svg"
   version="1.0"
   width="48"
   height="48"
   id="svg2">
  <defs
     id="defs4" />
  <g
     id="layer1">
    <g
       transform="translate(59.687497,-0.5624999)"
       id="g3621">
      <rect
         width="6.0775871"
         height="51.092941"
         x="4.8473444"
         y="11.880289"
         transform="matrix(-0.7064505,-0.7077625,-0.7064505,0.7077625,0,0)"
         style="fill:#555753;fill-opacity:1;stroke:none;stroke-width:0.38800001;stroke-miterlimit:4;stroke-dasharray:none;stroke-opacity:1"
         id="rect3576" />
      <rect
         width="3.6053486"
         height="9.9919662"
         rx="1.000929"
         ry="1.9981469"
         x="6.0834627"
         y="62.870216"
         transform="matrix(-0.7064505,-0.7077625,-0.7064505,0.7077625,0,0)"
         style="fill:#555753;fill-opacity:1;stroke:none;stroke-width:0.38800001;stroke-miterlimit:4;stroke-dasharray:none;stroke-opacity:1"
         id="rect3578" />
      <rect
         width="13.185274"
         height="1.7511692"
         x="1.2935003"
         y="61.73711"
         transform="matrix(-0.7064505,-0.7077625,-0.7064505,0.7077625,0,0)"
         style="fill:#2e3436;fill-opacity:1;stroke:none;stroke-width:0.38800001;stroke-miterlimit:4;stroke-dasharray:none;stroke-opacity:1"
         id="rect3580" />
      <rect
         width="4.2234082"
         height="2.163209"
         x="5.7744327"
         y="71.935089"
         transform="matrix(-0.7064505,-0.7077625,-0.7064505,0.7077625,0,0)"
         style="fill:#2e3436;fill-opacity:1;stroke:none;stroke-width:0.38800001;stroke-miterlimit:4;stroke-dasharray:none;stroke-opacity:1"
         id="rect3582" />
      <rect
         width="4.635448"
         height="48.20866"
         x="5.5684123"
         y="12.704369"
         transform="matrix(-0.7064505,-0.7077625,-0.7064505,0.7077625,0,0)"
         style="fill:#888a85;fill-opacity:1;stroke:none;stroke-width:0.38800001;stroke-miterlimit:4;stroke-dasharray:none;stroke-opacity:1"
         id="rect3584" />
      <rect
         width="2.4722388"
         height="4.120398"
         x="-60.655502"
         y="5.8259387"
         transform="matrix(0.7064505,-0.7077625,-0.7064505,-0.7077625,0,0)"
         style="fill:#204a87;fill-opacity:1;stroke:none;stroke-width:0.38800001;stroke-miterlimit:4;stroke-dasharray:none;stroke-opacity:1"
         id="rect3586" />
      <rect
         width="2.4722388"
         height="4.120398"
         x="-57.307678"
         y="5.8259387"
         transform="matrix(0.7064505,-0.7077625,-0.7064505,-0.7077625,0,0)"
         style="fill:#204a87;fill-opacity:1;stroke:none;stroke-width:0.38800001;stroke-miterlimit:4;stroke-dasharray:none;stroke-opacity:1"
         id="rect3588" />
      <rect
         width="2.4722388"
         height="4.120398"
         x="-54.01136"
         y="5.8259387"
         transform="matrix(0.7064505,-0.7077625,-0.7064505,-0.7077625,0,0)"
         style="fill:#204a87;fill-opacity:1;stroke:none;stroke-width:0.38800001;stroke-miterlimit:4;stroke-dasharray:none;stroke-opacity:1"
         id="rect3590" />
      <rect
         width="2.4722388"
         height="4.120398"
         x="-50.715042"
         y="5.8259387"
         transform="matrix(0.7064505,-0.7077625,-0.7064505,-0.7077625,0,0)"
         style="fill:#204a87;fill-opacity:1;stroke:none;stroke-width:0.38800001;stroke-miterlimit:4;stroke-dasharray:none;stroke-opacity:1"
         id="rect3592" />
      <rect
         width="2.4722388"
         height="4.120398"
         x="-47.109695"
         y="5.8259387"
         transform="matrix(0.7064505,-0.7077625,-0.7064505,-0.7077625,0,0)"
         style="fill:#204a87;fill-opacity:1;stroke:none;stroke-width:0.38800001;stroke-miterlimit:4;stroke-dasharray:none;stroke-opacity:1"
         id="rect3594" />
      <rect
         width="2.4722388"
         height="4.120398"
         x="-43.710365"
         y="5.8259387"
         transform="matrix(0.7064505,-0.7077625,-0.7064505,-0.7077625,0,0)"
         style="fill:#204a87;fill-opacity:1;stroke:none;stroke-width:0.38800001;stroke-miterlimit:4;stroke-dasharray:none;stroke-opacity:1"
         id="rect3596" />
      <rect
         width="2.4722388"
         height="4.120398"
         x="-40.208031"
         y="5.8259387"
         transform="matrix(0.7064505,-0.7077625,-0.7064505,-0.7077625,0,0)"
         style="fill:#204a87;fill-opacity:1;stroke:none;stroke-width:0.38800001;stroke-miterlimit:4;stroke-dasharray:none;stroke-opacity:1"
         id="rect3598" />
      <rect
         width="2.4722388"
         height="4.120398"
         x="-36.808697"
         y="5.8259387"
         transform="matrix(0.7064505,-0.7077625,-0.7064505,-0.7077625,0,0)"
         style="fill:#204a87;fill-opacity:1;stroke:none;stroke-width:0.38800001;stroke-miterlimit:4;stroke-dasharray:none;stroke-opacity:1"
         id="rect3600" />
      <rect
         width="2.4722388"
         height="4.120398"
         x="-33.40937"
         y="5.8259387"
         transform="matrix(0.7064505,-0.7077625,-0.7064505,-0.7077625,0,0)"
         style="fill:#204a87;fill-opacity:1;stroke:none;stroke-width:0.38800001;stroke-miterlimit:4;stroke-dasharray:none;stroke-opacity:1"
         id="rect3602" />
      <rect
         width="2.4722388"
         height="4.120398"
         x="-29.907032"
         y="5.8259387"
         transform="matrix(0.7064505,-0.7077625,-0.7064505,-0.7077625,0,0)"
         style="fill:#204a87;fill-opacity:1;stroke:none;stroke-width:0.38800001;stroke-miterlimit:4;stroke-dasharray:none;stroke-opacity:1"
         id="rect3604" />
    </g>
    <g
       transform="matrix(0.8233148,-0.8248438,0.8233148,0.8248438,-24.286843,29.016898)"
       id="g3557">
      <rect
         width="5.2149124"
         height="43.840622"
         x="29.831068"
         y="0.0051271212"
         style="opacity:1;fill:#888a85;fill-opacity:1;stroke:none;stroke-width:0.38800001;stroke-miterlimit:4;stroke-dasharray:none;stroke-opacity:1"
         id="rect2464" />
      <rect
         width="3.0935922"
         height="8.5736704"
         rx="0.85885346"
         ry="1.7145226"
         x="30.891727"
         y="43.757359"
         style="opacity:1;fill:#888a85;fill-opacity:1;stroke:none;stroke-width:0.38800001;stroke-miterlimit:4;stroke-dasharray:none;stroke-opacity:1"
         id="rect2466" />
      <rect
         width="11.313708"
         height="1.5026019"
         x="26.78167"
         y="42.785088"
         style="opacity:1;fill:#555753;fill-opacity:1;stroke:none;stroke-width:0.38800001;stroke-miterlimit:4;stroke-dasharray:none;stroke-opacity:1"
         id="rect2468" />
      <rect
         width="3.6239223"
         height="1.8561553"
         x="30.626562"
         y="51.53553"
         style="opacity:1;fill:#555753;fill-opacity:1;stroke:none;stroke-width:0.38800001;stroke-miterlimit:4;stroke-dasharray:none;stroke-opacity:1"
         id="rect2470" />
      <rect
         width="3.9774756"
         height="41.365746"
         x="30.449785"
         y="0.7122339"
         style="opacity:1;fill:#d3d7cf;fill-opacity:1;stroke:none;stroke-width:0.38800001;stroke-miterlimit:4;stroke-dasharray:none;stroke-opacity:1"
         id="rect3441" />
      <rect
         width="2.1213202"
         height="3.5355339"
         x="-41.85701"
         y="30.670757"
         transform="matrix(0,-1,1,0,0,0)"
         style="opacity:1;fill:#204a87;fill-opacity:1;stroke:none;stroke-width:0.38800001;stroke-miterlimit:4;stroke-dasharray:none;stroke-opacity:1"
         id="rect3443" />
      <rect
         width="2.1213202"
         height="3.5355339"
         x="-38.984386"
         y="30.670757"
         transform="matrix(0,-1,1,0,0,0)"
         style="opacity:1;fill:#204a87;fill-opacity:1;stroke:none;stroke-width:0.38800001;stroke-miterlimit:4;stroke-dasharray:none;stroke-opacity:1"
         id="rect3447" />
      <rect
         width="2.1213202"
         height="3.5355339"
         x="-36.15596"
         y="30.670757"
         transform="matrix(0,-1,1,0,0,0)"
         style="opacity:1;fill:#204a87;fill-opacity:1;stroke:none;stroke-width:0.38800001;stroke-miterlimit:4;stroke-dasharray:none;stroke-opacity:1"
         id="rect3449" />
      <rect
         width="2.1213202"
         height="3.5355339"
         x="-33.327534"
         y="30.670757"
         transform="matrix(0,-1,1,0,0,0)"
         style="opacity:1;fill:#204a87;fill-opacity:1;stroke:none;stroke-width:0.38800001;stroke-miterlimit:4;stroke-dasharray:none;stroke-opacity:1"
         id="rect3451" />
      <rect
         width="2.1213202"
         height="3.5355339"
         x="-30.233942"
         y="30.670757"
         transform="matrix(0,-1,1,0,0,0)"
         style="opacity:1;fill:#204a87;fill-opacity:1;stroke:none;stroke-width:0.38800001;stroke-miterlimit:4;stroke-dasharray:none;stroke-opacity:1"
         id="rect3453" />
      <rect
         width="2.1213202"
         height="3.5355339"
         x="-27.317125"
         y="30.670757"
         transform="matrix(0,-1,1,0,0,0)"
         style="opacity:1;fill:#204a87;fill-opacity:1;stroke:none;stroke-width:0.38800001;stroke-miterlimit:4;stroke-dasharray:none;stroke-opacity:1"
         id="rect3455" />
      <rect
         width="2.1213202"
         height="3.5355339"
         x="-24.311924"
         y="30.670757"
         transform="matrix(0,-1,1,0,0,0)"
         style="opacity:1;fill:#204a87;fill-opacity:1;stroke:none;stroke-width:0.38800001;stroke-miterlimit:4;stroke-dasharray:none;stroke-opacity:1"
         id="rect3457" />
      <rect
         width="2.1213202"
         height="3.5355339"
         x="-21.395105"
         y="30.670757"
         transform="matrix(0,-1,1,0,0,0)"
         style="opacity:1;fill:#204a87;fill-opacity:1;stroke:none;stroke-width:0.38800001;stroke-miterlimit:4;stroke-dasharray:none;stroke-opacity:1"
         id="rect3459" />
      <rect
         width="2.1213202"
         height="3.5355339"
         x="-18.478292"
         y="30.670757"
         transform="matrix(0,-1,1,0,0,0)"
         style="opacity:1;fill:#204a87;fill-opacity:1;stroke:none;stroke-width:0.38800001;stroke-miterlimit:4;stroke-dasharray:none;stroke-opacity:1"
         id="rect3463" />
      <rect
         width="2.1213202"
         height="3.5355339"
         x="-15.473087"
         y="30.670757"
         transform="matrix(0,-1,1,0,0,0)"
         style="opacity:1;fill:#204a87;fill-opacity:1;stroke:none;stroke-width:0.38800001;stroke-miterlimit:4;stroke-dasharray:none;stroke-opacity:1"
         id="rect3465" />
    </g>
  </g>
</svg>
