<?xml version="1.0" encoding="UTF-8" standalone="no"?>
<svg
   xmlns:dc="http://purl.org/dc/elements/1.1/"
   xmlns:cc="http://web.resource.org/cc/"
   xmlns:rdf="http://www.w3.org/1999/02/22-rdf-syntax-ns#"
   xmlns:svg="http://www.w3.org/2000/svg"
   xmlns="http://www.w3.org/2000/svg"
   xmlns:xlink="http://www.w3.org/1999/xlink"
   xmlns:sodipodi="http://inkscape.sourceforge.net/DTD/sodipodi-0.dtd"
   xmlns:inkscape="http://www.inkscape.org/namespaces/inkscape"
   inkscape:export-ydpi="90.000000"
   inkscape:export-xdpi="90.000000"
   inkscape:export-filename="/home/andrew/pygmy/pygmy.png"
   sodipodi:docbase="/home/andrew/pygmy"
   id="svg1"
   inkscape:version="0.41"
   _SVGFile__filename="lila-gnome/Lila/scalable/apps/gmpc.svg"
   width="48pt"
   height="48pt"
   sodipodi:version="0.32"
   sodipodi:docname="pygmy.svg">
  <metadata
     id="metadata1514">
    <rdf:RDF
       id="RDF1516">
      <cc:Work
         id="Work1518"
         rdf:about="">
        <dc:format
           id="format1520">image/svg+xml</dc:format>
        <dc:type
           rdf:resource="http://purl.org/dc/dcmitype/StillImage"
           id="type1522" />
      </cc:Work>
    </rdf:RDF>
  </metadata>
  <defs
     id="defs3">
    <linearGradient
       id="linearGradient584">
      <stop
         offset="0.00000000"
         id="stop585"
         style="stop-color:#ffffff;stop-opacity:1;" />
      <stop
         offset="1.00000000"
         id="stop586"
         style="stop-color:#ffffff;stop-opacity:0;" />
    </linearGradient>
    <linearGradient
       id="linearGradient578">
      <stop
         offset="0.00000000"
         id="stop579"
         style="stop-color: #f3e1d9;stop-opacity: 1.0;" />
      <stop
         offset="1.00000000"
         id="stop580"
         style="stop-color: #8c0000;stop-opacity: 1.0;" />
    </linearGradient>
    <linearGradient
       id="linearGradient581"
       x1="-0.00000000"
       y1="-0.00000000"
       x2="0.96428573"
       xlink:href="#linearGradient578"
       y2="0.98437500" />
    <linearGradient
       id="linearGradient583"
       x1="0.00000000"
       y1="-0.00000000"
       x2="0.98717946"
       xlink:href="#linearGradient584"
       y2="1.00000000" />
    <linearGradient
       id="linearGradient860"
       x1="0.01086957"
       y1="0.05555556"
       x2="0.99637681"
       xlink:href="#linearGradient584"
       y2="0.94444442" />
    <linearGradient
       id="linearGradient861"
       x1="0.01811594"
       y1="0.00833333"
       x2="0.98913044"
       xlink:href="#linearGradient584"
       y2="1.00000000" />
    <linearGradient
       id="linearGradient862"
       x1="-0.28676471"
       y1="-0.21875000"
       x2="0.97887325"
       xlink:href="#linearGradient584"
       y2="1.03906250" />
    <radialGradient
       id="radialGradient595"
       xlink:href="#linearGradient584" />
    <linearGradient
       id="linearGradient612"
       x1="0.00000000"
       y1="0.00000000"
       x2="1.03389835"
       xlink:href="#linearGradient584"
       y2="1.02343750" />
    <linearGradient
       id="linearGradient613"
       x1="0.00000000"
       y1="0.00000000"
       x2="0.96874988"
       xlink:href="#linearGradient578"
       y2="1.00000012" />
  </defs>
  <sodipodi:namedview
     inkscape:current-layer="svg1"
     id="base"
     inkscape:pageopacity="0.0"
     inkscape:window-width="640"
     inkscape:cy="24.799820"
     inkscape:cx="25.788472"
     borderopacity="1.0"
     inkscape:window-x="65"
     inkscape:zoom="5.6423387"
     inkscape:window-height="542"
     pagecolor="#ffffff"
     inkscape:window-y="68"
     inkscape:pageshadow="2"
     bordercolor="#666666" />
  <path
     id="path702"
     d="M 54.715353 36.123426 C 55.088935 32.426985 53.315628 31.262729 51.191757 31.02795 C 46.31625 30.560439 40.846795 29.269442 40.635811 32.327061 C 39.839705 36.482643 39.318164 39.169492 38.519582 45.981881 C 38.139722 48.854732 39.579277 57.205843 33.286374 57.784154 C 26.85737 58.375429 23.44002 53.790995 25.249526 49.387535 C 27.795377 43.354197 34.226553 47.195539 34.885118 44.939366 C 36.829252 38.085007 36.557768 30.198036 38.129421 23.202984 C 38.191057 22.928658 39.018644 22.651844 39.500356 22.585429 C 40.761561 22.280679 56.062196 23.529912 57.042076 24.163547 C 57.523787 24.097133 58.195586 24.673557 58.388185 24.858651 C 60.007031 26.414418 59.032007 32.952124 58.734093 34.331587 C 57.937987 38.487169 57.382608 41.156024 56.584023 47.968414 C 56.204164 50.841265 57.67756 59.210369 51.384657 59.78868 C 44.955652 60.379954 41.538299 55.795522 43.347807 51.392061 C 45.89366 45.358723 52.290994 49.18207 52.94956 46.9259 C 53.921626 43.498719 54.341771 39.819865 54.715353 36.123426 z "
     style="font-size:12;fill:#000000;fill-rule:evenodd;stroke:none;stroke-width:1.875;stroke-dasharray:none;fill-opacity:1;opacity:0.302675;"
     sodipodi:nodetypes="csccccccccccccccc" />
  <path
     id="path701"
     stroke-opacity="1.0"
     d="M 52.27842 33.464954 C 52.652002 29.768513 50.878695 28.604257 48.754824 28.369478 C 43.879317 27.901967 38.409862 26.61097 38.198878 29.668589 C 37.402772 33.824171 36.881231 36.51102 36.082649 43.323409 C 35.702789 46.19626 37.142344 54.547371 30.849441 55.125682 C 24.420437 55.716957 21.003087 51.132523 22.812593 46.729063 C 25.358444 40.695725 31.78962 44.537067 32.448185 42.280894 C 34.392319 35.426535 34.120835 27.539564 35.692488 20.544512 C 35.754124 20.270186 36.581711 19.993372 37.063423 19.926957 C 38.324628 19.622207 53.625263 20.87144 54.605143 21.505075 C 55.086854 21.438661 55.758653 22.015085 55.951252 22.200179 C 57.570098 23.755946 56.595074 30.293652 56.29716 31.673115 C 55.501054 35.828697 54.945675 38.497552 54.14709 45.309942 C 53.767231 48.182793 55.240627 56.551897 48.947724 57.130208 C 42.518719 57.721482 39.101366 53.13705 40.910874 48.733589 C 43.456727 42.700251 49.854061 46.523598 50.512627 44.267428 C 51.484693 40.840247 51.904838 37.161393 52.27842 33.464954 z "
     style="font-size:12;fill:url(#linearGradient581);fill-rule:evenodd;stroke: #260000;stroke-width:1.875;stroke-dasharray:none;"
     sodipodi:nodetypes="csccccccccccccccc" />
  <path
     id="path646"
     d="M 30.834602 4.6125079 C 26.655587 11.94965 24.242761 20.903507 19.692681 27.953916 C 18.173994 30.2682 12.271406 23.743908 7.3263617 29.662404 C 3.7719297 33.998781 6.0387557 40.331442 13.483217 41.879468 C 20.769927 43.395225 22.010385 33.487228 23.427538 30.382415 C 26.672959 22.984778 27.566066 21.196146 29.893767 16.789963 C 30.704348 15.338897 32.502821 15.934236 34.493772 17.027532 C 36.95056 18.376632 44.850987 17.084221 45.023902 16.689727 C 45.182676 16.327493 38.307816 14.627214 36.388957 12.685619 C 35.273715 11.420288 34.700827 7.2736215 33.413317 4.9639128 C 33.106958 4.4143256 31.162379 4.0370266 30.834602 4.6125079 z "
     style="fill:#000000;fill-rule:evenodd;stroke:none;stroke-opacity:1;stroke-width:1.875;stroke-linejoin:miter;stroke-linecap:butt;fill-opacity:1;stroke-dasharray:none;opacity:0.300000;"
     sodipodi:nodetypes="cssssssssss" />
  <path
     id="path644"
     stroke-opacity="1.0"
     d="M 28.509365 2.7503064 C 24.417809 9.9338948 22.055477 18.700368 17.60062 25.603227 C 16.113716 27.869078 10.334658 21.481325 5.4931027 27.275959 C 2.0130568 31.521585 4.2324437 37.721717 11.521109 39.237346 C 18.655323 40.721382 19.86982 31.020739 21.257316 27.980901 C 24.434816 20.738084 25.930221 17.960148 28.209207 13.646177 C 29.002824 12.225479 30.463451 13.033145 32.412736 14.103558 C 34.818109 15.424425 42.232416 14.961012 42.401712 14.574773 C 42.557164 14.22012 36.484883 12.698672 34.60618 10.797711 C 33.514279 9.5588598 32.294678 5.3557283 31.034113 3.0943571 C 30.734165 2.5562716 28.830282 2.1868687 28.509365 2.7503064 z "
     style="font-size:12;fill:url(#linearGradient581);fill-rule:evenodd;stroke: #260000;stroke-width:1.875;stroke-dasharray:none;"
     sodipodi:nodetypes="cssssssssss" />
  <path
     id="path645"
     d="M 5.0079687 31.61554 C 4.8760887 31.306667 5.5431227 28.698686 8.7665447 27.002362 C 12.576986 25.082954 16.234615 29.464526 17.767832 27.255401 C 22.129709 21.163839 25.594475 11.045096 29.392785 3.9449214 C 29.625072 3.5107054 30.433779 5.0426397 30.067592 5.4288531 C 26.713351 8.8186437 22.442652 21.895763 18.234672 27.962706 C 16.684503 30.167039 14.172671 26.847792 9.3479847 28.344833 C 5.5010407 29.491415 5.1241327 31.887602 5.0079687 31.61554 z "
     style="fill:url(#linearGradient583);fill-rule:evenodd;stroke:none;stroke-opacity:1;stroke-width:1pt;stroke-linejoin:miter;stroke-linecap:butt;fill-opacity:1;"
     sodipodi:nodetypes="csssssss" />
  <path
     id="path698"
     d="M 23.748236 50.663336 C 23.560543 50.440622 23.452412 48.108614 25.695534 45.884429 C 28.368916 43.326379 32.513339 46.032648 33.224698 43.811777 C 35.297447 37.653824 35.605005 28.38351 36.954614 21.531994 C 36.995882 21.32249 47.826352 21.501458 53.936127 22.818766 C 45.807435 22.000531 39.059509 22.382476 38.162684 22.960165 C 36.76781 23.831758 35.742575 38.181473 33.791215 44.279984 C 33.064585 46.50118 30.139779 44.385379 26.518153 46.850335 C 23.618528 48.776714 23.913563 50.85951 23.748236 50.663336 z "
     style="fill:url(#linearGradient583);fill-rule:evenodd;stroke:none;stroke-opacity:1;stroke-width:1pt;stroke-linejoin:miter;stroke-linecap:butt;fill-opacity:1;"
     sodipodi:nodetypes="cssscssss" />
  <path
     id="path700"
     d="M 41.833167 52.506275 C 41.645472 52.283558 41.537342 49.951549 43.780465 47.727365 C 46.453847 45.169316 50.598271 47.875583 51.309629 45.654713 C 53.382378 39.49676 52.518393 37.545661 53.868001 30.694146 C 53.950537 30.275136 55.00968 31.34054 54.803924 31.753693 C 52.881732 35.415485 53.827508 40.024408 51.876146 46.122921 C 51.149514 48.344116 48.224709 46.228316 44.603084 48.693271 C 41.703458 50.61965 41.998494 52.702446 41.833167 52.506275 z "
     style="fill:url(#linearGradient583);fill-rule:evenodd;stroke:none;stroke-opacity:1;stroke-width:1pt;stroke-linejoin:miter;stroke-linecap:butt;fill-opacity:1;"
     sodipodi:nodetypes="csssssss" />
</svg>
