/* XPM */
static char *pymol[] = {
/* columns rows colors chars-per-pixel */
"48 48 138 2",
"   c #000000",
".  c #0c0c0c",
"X  c #131313",
"o  c #1b1a1b",
"O  c #232323",
"+  c #2b2b2b",
"@  c #333332",
"#  c #383737",
"$  c #3b3b3b",
"%  c #3e403e",
"&  c #40403f",
"*  c #434343",
"=  c #474748",
"-  c #484747",
";  c #484748",
":  c #4b4b4b",
">  c #4f4f50",
",  c #4c524c",
"<  c #4f5050",
"1  c #514e4e",
"2  c #504f50",
"3  c #50504f",
"4  c #535353",
"5  c #555458",
"6  c #555955",
"7  c #585957",
"8  c #5b5b5b",
"9  c #504f61",
"0  c #5e5e60",
"q  c #545577",
"w  c #5c645d",
"e  c #5a6a5a",
"r  c #537652",
"t  c #59735a",
"y  c #5a7b5a",
"u  c #5f6e60",
"i  c #5e6278",
"p  c #615254",
"a  c #785f5c",
"s  c #60615e",
"d  c #616c5f",
"f  c #6d655d",
"g  c #636363",
"h  c #66666f",
"j  c #616b61",
"k  c #676868",
"l  c #6b6b6b",
"z  c #6f6f77",
"x  c #677367",
"c  c #657c65",
"v  c #6d736d",
"b  c #6a7d69",
"n  c #726c6c",
"m  c #7b6c65",
"M  c #72706e",
"N  c #707e6f",
"B  c #7b756d",
"V  c #727372",
"C  c #717279",
"Z  c #747b74",
"A  c #777878",
"S  c #787575",
"D  c #797876",
"F  c #7a7b7a",
"G  c #696989",
"H  c #77788e",
"J  c #5a8659",
"K  c #5d8d5d",
"L  c #628763",
"P  c #658f65",
"I  c #6d836b",
"U  c #6c8c6c",
"Y  c #6b916d",
"T  c #6e9e6e",
"R  c #758375",
"E  c #738d73",
"W  c #798577",
"Q  c #7c827c",
"!  c #788877",
"~  c #7b8a7c",
"^  c #769477",
"/  c #739c72",
"(  c #7a917b",
")  c #7a9a7a",
"_  c #75ae74",
"`  c #7aa17a",
"'  c #7eb47d",
"]  c #7f9580",
"[  c #7fa380",
"{  c #8e6c6d",
"}  c #817271",
"|  c #857f77",
" . c #837978",
".. c #818c7d",
"X. c #8d847c",
"o. c #8b8e7b",
"O. c #83987f",
"+. c #938d7b",
"@. c #80a47f",
"#. c #a38f75",
"$. c #a48f78",
"%. c #a1917b",
"&. c #828382",
"*. c #838b84",
"=. c #878988",
"-. c #8a8788",
";. c #888f87",
":. c #8a8a8a",
">. c #839283",
",. c #849b84",
"<. c #879e89",
"1. c #8c938d",
"2. c #8b9c8b",
"3. c #889e90",
"4. c #928b80",
"5. c #908f90",
"6. c #91928d",
"7. c #92988c",
"8. c #929393",
"9. c #929d92",
"0. c #9a9b99",
"q. c #83a282",
"w. c #8ba28b",
"e. c #90a291",
"r. c #94ab94",
"t. c #97aa98",
"y. c #98a497",
"u. c #9da59d",
"i. c #9bad9a",
"p. c #93b093",
"a. c #96b098",
"s. c #9bb39b",
"d. c #a09f9f",
"f. c #a0a49f",
"g. c #a4a4a5",
"h. c #a4aba4",
"j. c #a9aba9",
"k. c #b1b1b1",
/* pixels */
"                                                                                                ",
"                                                                                                ",
"                                                                                                ",
"                                                                                                ",
"                                                                                                ",
"                                                                                                ",
"                                                          .                                     ",
"                                                        X O + o .                               ",
"                                                      o * 5 7 1 +                               ",
"                                                    . ; g V A A k * @ X                         ",
"                                                    X 8 V -.0.F V k 4 $ X                       ",
"                                                    O 7 k &.j.&.F &.M 5 @ .                     ",
"                                                  . @ 7 l H i.2.*.f.=.g ; O .                   ",
"                                                  . - V &.5.p.r.9.e.F l : @                     ",
"                                                  O g :.0.f.r.s.i.e.F z 1 $ .                   ",
"                        . . . .                 . *  .0.g.h.s.y.u.a.F k 1 * X                   ",
"                      . @ = - + X .             . 1 &.0.j.j.s.0.0.r.R 8 8 : +                   ",
"                      O < p 5 * # @ X           X : A 5.0.u.p.1.5.w.N 8 l 4 $                   ",
"                      $ 7 k V 7 g V l 1 O       . @ 0 F &.] ' ( F ! c u 5 < * .                 ",
"                    . # , V :.A =.:.&.V : X       O - 8 0 u _ Y l ! v 4 ; * #                   ",
"                    X $ g l >.2.5.8.5.&.g + .     . # : 5 0 ) [ W ] u : ; $ O                   ",
"                    o : k A ;.2.9.y.8.=.k $ o     . @ 7 n A <.[ ^ U w > ; - o                   ",
"                    o 1 l &.1.2.2.<.>.A 8 - O       + 7 V &.h.;.c T e ; 5 - O                   ",
"                    o : k A 1.9.1.,.) V 8 7 * X     o g A :.k.5.Z Y e & 5 : $ .                 ",
"                    X $ 8 V *.9.8.~ ) R A n 2 @ .   . ; l F :.&.A i q 5 0 8 * X                 ",
"                    . + : g V *.;.Q <.<.-.F 0 * .     + 7 l V V g 9 G z u : ; o                 ",
"                      o ; 8 p V >.>.>.2.5.-.F 8 X .   O $ ; : : < h H V 0 2 & X                 ",
"                        + - , 0 R >.*.3.d.8.&.g X X + @ @ @ @ : k Q 3.*.F z 2 O                 ",
"                        X # $ 8 Z ..>.2.8.5.] 0 O # * ; 4 # & 8 V *.w.;.&.A k +                 ",
"                        . @ @ : k S ..2.5.:.z : * ; : g V * * k A =.6.6.-.&.V # .               ",
"                          X + $ 5 k A ..X.k : 4 8 5 5 e e $ $ g D *.7.7.-.&.V @                 ",
"                            X + : g V  .} : 2 w l g u L r , & 7 V &.w.7.:.F g O                 ",
"                              . $ 8 g n { a s s v ! U J K y 4 = u ! q.w.=.l : o                 ",
"                                o & 1 7 p m Y U ) O.d , e P U c t I U ^ k 8 8 O                 ",
"                                X @ : : : 8 x E ,.&.l 7 7 t / E j 4 7 *.5.A l +                 ",
"                                  X * * ; g M R ] &.A n l N ) Z l 2 0 ] 8.F k #                 ",
"                                    . O ; k V Z q.~ F | A +.o.V C 5 g M l k 7 O                 ",
"                                      X & s z R ` ) ,.+.X.$.X.V l 5 : 7 7 1 * .                 ",
"                                      o : 8 A 9.I b ..%.$.$.M l g - O O @ O X                   ",
"                                      O 7 V 5.A 6 g Z D B f 8 8 4 & X                           ",
"                                      o ; k l 7 1 w z v g 7 7 7 1 @ .                           ",
"                                      . @ 1 g 4 = 6 p 0 7 5 5 1 : O                             ",
"                                        . o + o o o @ * : : ; * +                               ",
"                                                    . o + @ O X .                               ",
"                                                          .                                     ",
"                                                                                                ",
"                                                                                                ",
"                                                                                                "
};
