/* XPM */
static char * qdevelop_xpm[] = {
"32 32 563 2",
"  	c None",
". 	c #8D8A8A",
"+ 	c #8F8C8C",
"@ 	c #8E8C8C",
"# 	c #8C8989",
"$ 	c #928F8F",
"% 	c #A29F9F",
"& 	c #B2AFAF",
"* 	c #BCB9B9",
"= 	c #C4C0C0",
"- 	c #C6C1C1",
"; 	c #C4BFBF",
"> 	c #BFBBBB",
", 	c #B5B1B1",
"' 	c #AAA7A7",
") 	c #9B9898",
"! 	c #969393",
"~ 	c #B4B1B1",
"{ 	c #D4D1D1",
"] 	c #DBD5D5",
"^ 	c #D6C1C2",
"/ 	c #D0ABAD",
"( 	c #C99597",
"_ 	c #C68A8C",
": 	c #C5888A",
"< 	c #C69092",
"[ 	c #C9A2A3",
"} 	c #CAB1B2",
"| 	c #C6BFBF",
"1 	c #BDB9B9",
"2 	c #A4A1A1",
"3 	c #898787",
"4 	c #D0CCCC",
"5 	c #E3E1E1",
"6 	c #CFAFB1",
"7 	c #BF6C6F",
"8 	c #B33A3E",
"9 	c #B0282C",
"0 	c #B1262B",
"a 	c #B42C30",
"b 	c #B42B2F",
"c 	c #B2272B",
"d 	c #B0262B",
"e 	c #B3373B",
"f 	c #BA6063",
"g 	c #C2989A",
"h 	c #C1BCBC",
"i 	c #B4B0B0",
"j 	c #928E8E",
"k 	c #737171",
"l 	c #C0BCBC",
"m 	c #DFDBDC",
"n 	c #D5B2B3",
"o 	c #B55458",
"p 	c #B2262A",
"q 	c #B93B3F",
"r 	c #C86165",
"s 	c #E1ADAF",
"t 	c #D28A8D",
"u 	c #C9696C",
"v 	c #C96669",
"w 	c #C96266",
"x 	c #C5595C",
"y 	c #BB3F42",
"z 	c #AE171C",
"A 	c #AC1318",
"B 	c #B5474B",
"C 	c #BB8D8F",
"D 	c #B6B1B1",
"E 	c #9D9A9A",
"F 	c #686666",
"G 	c #B7B3B3",
"H 	c #E3DEDE",
"I 	c #CC9FA1",
"J 	c #AF2D32",
"K 	c #B73338",
"L 	c #E2B1B3",
"M 	c #E3B8BA",
"N 	c #D99A9C",
"O 	c #F4EBEC",
"P 	c #D7AFB0",
"Q 	c #C4686B",
"R 	c #CD7073",
"S 	c #C75F63",
"T 	c #C55B5E",
"U 	c #C3575B",
"V 	c #B52C30",
"W 	c #AC1419",
"X 	c #AE252A",
"Y 	c #B3797A",
"Z 	c #AFA8A8",
"` 	c #878484",
" .	c #5B5858",
"..	c #8A8787",
"+.	c #BEBABA",
"@.	c #E1DCDC",
"#.	c #BF7578",
"$.	c #AF2328",
"%.	c #C35256",
"&.	c #D17B7D",
"*.	c #F7EFF0",
"=.	c #FAFAFA",
"-.	c #F7F8F8",
";.	c #F4F4F4",
">.	c #EBE2E2",
",.	c #E9DCDD",
"'.	c #E3D2D3",
").	c #C46F72",
"!.	c #C15053",
"~.	c #BC4145",
"{.	c #B01E23",
"].	c #AC181D",
"^.	c #AC5356",
"/.	c #9D9595",
"(.	c #7A7777",
"_.	c #4E4C4C",
":.	c #A4A0A0",
"<.	c #DAD6D6",
"[.	c #CA9D9E",
"}.	c #C14D51",
"|.	c #D27E81",
"1.	c #D78D90",
"2.	c #F0DDDE",
"3.	c #F8F8F8",
"4.	c #DDC9CA",
"5.	c #D3B5B6",
"6.	c #ECE9EA",
"7.	c #E8E8EA",
"8.	c #D6C2C3",
"9.	c #AC494C",
"0.	c #B12226",
"a.	c #AD181D",
"b.	c #AC171C",
"c.	c #9F6264",
"d.	c #868181",
"e.	c #5A5757",
"f.	c #979494",
"g.	c #C9C5C5",
"h.	c #CEAAAC",
"i.	c #AF2C31",
"j.	c #C25155",
"k.	c #D07679",
"l.	c #E7BDBE",
"m.	c #FAF9F9",
"n.	c #F7F7F7",
"o.	c #D9C4C4",
"p.	c #B1595C",
"q.	c #C25E62",
"r.	c #CE8D8F",
"s.	c #E3DFE1",
"t.	c #C49699",
"u.	c #AE393D",
"v.	c #AB1318",
"w.	c #A91E22",
"x.	c #8E5D5F",
"y.	c #6D6B6B",
"z.	c #4E4D4D",
"A.	c #B1ADAD",
"B.	c #D5D2D2",
"C.	c #B35155",
"D.	c #B52E33",
"E.	c #CF7477",
"F.	c #D49093",
"G.	c #DFC4C5",
"H.	c #F5F5F5",
"I.	c #D1B2B2",
"J.	c #BF494D",
"K.	c #C25F62",
"L.	c #DED7DA",
"M.	c #D9D6D8",
"N.	c #D2BABC",
"O.	c #A31216",
"P.	c #A22D31",
"Q.	c #777474",
"R.	c #5F5D5D",
"S.	c #949191",
"T.	c #C8C4C4",
"U.	c #C4A4A5",
"V.	c #C75E61",
"W.	c #DBA3A4",
"X.	c #F0F0F1",
"Y.	c #EBE7E8",
"Z.	c #C97E81",
"`.	c #BF565A",
" +	c #D7B7BA",
".+	c #DADADC",
"++	c #C29EA0",
"@+	c #B9888B",
"#+	c #A32529",
"$+	c #956162",
"%+	c #7D7979",
"&+	c #4D4B4B",
"*+	c #A29E9E",
"=+	c #CAC4C4",
"-+	c #B86568",
";+	c #B73236",
">+	c #CD6F71",
",+	c #CD7174",
"'+	c #CD6D70",
")+	c #CE7577",
"!+	c #E8CDCE",
"~+	c #EDEDEE",
"{+	c #EBEBEC",
"]+	c #E3DEE0",
"^+	c #DED6D9",
"/+	c #D9D9DB",
"(+	c #D4D5D7",
"_+	c #B67A7C",
":+	c #B99296",
"<+	c #BA898D",
"[+	c #AC282D",
"}+	c #B24A4F",
"|+	c #AF3A3E",
"1+	c #AC151A",
"2+	c #A74447",
"3+	c #988F8F",
"4+	c #615F5F",
"5+	c #ADA9A9",
"6+	c #C6AFB0",
"7+	c #B0373B",
"8+	c #C25054",
"9+	c #CC6D70",
"0+	c #CC6A6E",
"a+	c #CA6669",
"b+	c #CF8184",
"c+	c #B96F72",
"d+	c #B25B5E",
"e+	c #DEDEE0",
"f+	c #CEB9BB",
"g+	c #C2999C",
"h+	c #CCC3C5",
"i+	c #B5888A",
"j+	c #B7A8AC",
"k+	c #B4B2B7",
"l+	c #AC6A6F",
"m+	c #AF6065",
"n+	c #A29CA2",
"o+	c #A29CA1",
"p+	c #A54B50",
"q+	c #B02C31",
"r+	c #B79798",
"s+	c #807D7D",
"t+	c #C19B9D",
"u+	c #AE262A",
"v+	c #C86366",
"w+	c #CA676A",
"x+	c #C96366",
"y+	c #BF4B50",
"z+	c #A8161B",
"A+	c #B43438",
"B+	c #DACFD1",
"C+	c #AF6E71",
"D+	c #BB787B",
"E+	c #B78083",
"F+	c #A85054",
"G+	c #B5A7AB",
"H+	c #A9AAAF",
"I+	c #A69FA5",
"J+	c #A29AA0",
"K+	c #9C9EA4",
"L+	c #A2A0A6",
"M+	c #994F53",
"N+	c #AA1317",
"O+	c #AF1D22",
"P+	c #C69597",
"Q+	c #999696",
"R+	c #8E8A8A",
"S+	c #BC8789",
"T+	c #AE1D22",
"U+	c #CD6C70",
"V+	c #CC6B6E",
"W+	c #B12125",
"X+	c #A01216",
"Y+	c #B15C60",
"Z+	c #C7C7CB",
"`+	c #BFC0C4",
" @	c #B6B7BB",
".@	c #A9AAB0",
"+@	c #A3A3A9",
"@@	c #A09EA4",
"#@	c #9E9FA5",
"$@	c #A1A2A8",
"%@	c #A89FA4",
"&@	c #9F4C50",
"*@	c #AE3237",
"=@	c #AC2429",
"-@	c #AD161B",
";@	c #CE898B",
">@	c #666363",
",@	c #B6B2B2",
"'@	c #B97C7F",
")@	c #B02125",
"!@	c #C85F63",
"~@	c #B9363B",
"{@	c #BD6366",
"]@	c #C0C1C5",
"^@	c #B4B5BA",
"/@	c #A7A6AC",
"(@	c #9A6166",
"_@	c #98494D",
":@	c #A17277",
"<@	c #AAA6AB",
"[@	c #B6B6BA",
"}@	c #BDAEB2",
"|@	c #C8B1B5",
"1@	c #BC9295",
"2@	c #A61318",
"3@	c #D08486",
"4@	c #6F6D6D",
"5@	c #848181",
"6@	c #B0ADAD",
"7@	c #B7797C",
"8@	c #B02025",
"9@	c #C35458",
"0@	c #AA1318",
"a@	c #B2676B",
"b@	c #ACA9AD",
"c@	c #A3A1A6",
"d@	c #99585C",
"e@	c #9F1116",
"f@	c #A9161B",
"g@	c #AF6B70",
"h@	c #D0D0D3",
"i@	c #D8D7D9",
"j@	c #C8BEC1",
"k@	c #99191D",
"l@	c #D38789",
"m@	c #BFBCBC",
"n@	c #747272",
"o@	c #797777",
"p@	c #A7A4A4",
"q@	c #B37D7F",
"r@	c #AE1C20",
"s@	c #C65B5F",
"t@	c #BA3A3F",
"u@	c #AF2025",
"v@	c #B47074",
"w@	c #A6A2A7",
"x@	c #9F959B",
"y@	c #9A373B",
"z@	c #AE464B",
"A@	c #D7D8DA",
"B@	c #AF8A8D",
"C@	c #993F43",
"D@	c #A21217",
"E@	c #AD151A",
"F@	c #D69193",
"G@	c #BAB6B6",
"H@	c #727070",
"I@	c #939090",
"J@	c #AB8586",
"K@	c #AD2226",
"L@	c #C14D52",
"M@	c #C65C5F",
"N@	c #B12126",
"O@	c #B13439",
"P@	c #B39CA1",
"Q@	c #9F9CA2",
"R@	c #A05155",
"S@	c #B76C70",
"T@	c #DBDBDD",
"U@	c #E1E1E3",
"V@	c #A96367",
"W@	c #A71C21",
"X@	c #B01E22",
"Y@	c #DEACAD",
"Z@	c #ABA7A7",
"`@	c #7F7C7C",
" #	c #9F8788",
".#	c #AB2F33",
"+#	c #B42A2F",
"@#	c #C04C50",
"##	c #B9383C",
"$#	c #B03338",
"%#	c #AA9499",
"&#	c #9E9FA6",
"*#	c #9EA0A6",
"=#	c #AA989D",
"-#	c #AB4348",
";#	c #B35F63",
">#	c #CEBDC0",
",#	c #E3E3E5",
"'#	c #EAEBEB",
")#	c #E2D9DA",
"!#	c #B16064",
"~#	c #B73136",
"{#	c #DFBEBF",
"]#	c #666464",
"^#	c #878181",
"/#	c #A04649",
"(#	c #A92F34",
"_#	c #9E383B",
":#	c #A56367",
"<#	c #ABACB2",
"[#	c #B7B8BC",
"}#	c #C6C6CA",
"|#	c #CDCDD0",
"1#	c #E0DEDF",
"2#	c #EDECEE",
"3#	c #EAE6E7",
"4#	c #A35C60",
"5#	c #A91318",
"6#	c #C55E61",
"7#	c #D7CCCC",
"8#	c #817E7E",
"9#	c #545353",
"0#	c #747171",
"a#	c #8D6465",
"b#	c #AA1419",
"c#	c #AF666B",
"d#	c #C3C4C8",
"e#	c #D8D8DB",
"f#	c #DEDFE0",
"g#	c #9E575A",
"h#	c #B47C80",
"i#	c #AF8083",
"j#	c #972226",
"k#	c #D89D9F",
"l#	c #626060",
"m#	c #787676",
"n#	c #A23539",
"o#	c #B17277",
"p#	c #C5C4C8",
"q#	c #C8C4C7",
"r#	c #9A5458",
"s#	c #B6898D",
"t#	c #ECECED",
"u#	c #DEDDDF",
"v#	c #97161A",
"w#	c #A91217",
"x#	c #A41217",
"y#	c #BC4044",
"z#	c #908D8D",
"A#	c #565454",
"B#	c #757373",
"C#	c #976A6B",
"D#	c #AA2125",
"E#	c #B22624",
"F#	c #B93B32",
"G#	c #B02121",
"H#	c #B83B32",
"I#	c #B7362E",
"J#	c #AE1B1D",
"K#	c #AA252A",
"L#	c #AC7074",
"M#	c #A06467",
"N#	c #A4312B",
"O#	c #B1544F",
"P#	c #E5E5E6",
"Q#	c #D3CDCF",
"R#	c #96191E",
"S#	c #B12327",
"T#	c #DBA3A5",
"U#	c #6E6D6D",
"V#	c #9B9697",
"W#	c #AC7174",
"X#	c #C86E53",
"Y#	c #AD171B",
"Z#	c #CC7B5B",
"`#	c #C5654D",
" $	c #B93C33",
".$	c #C25C47",
"+$	c #B83931",
"@$	c #BA4035",
"#$	c #B22F2A",
"$$	c #B1352E",
"%$	c #BE4F3F",
"&$	c #BE4F3E",
"*$	c #A5413B",
"=$	c #A3453A",
"-$	c #B0352E",
";$	c #AF1C1E",
">$	c #D28C8E",
",$	c #C8C2C2",
"'$	c #7B7979",
")$	c #B7B0B0",
"!$	c #B55C5F",
"~$	c #CA7457",
"{$	c #AE1A1D",
"]$	c #C97054",
"^$	c #C5644D",
"/$	c #CB7658",
"($	c #C35E48",
"_$	c #C86D53",
":$	c #C76A50",
"<$	c #C4614B",
"[$	c #D18965",
"}$	c #BC493B",
"|$	c #D2936A",
"1$	c #BF5141",
"2$	c #B5322C",
"3$	c #C86468",
"4$	c #CFC5C5",
"5$	c #949292",
"6$	c #5F5E5E",
"7$	c #9D9999",
"8$	c #CCC4C4",
"9$	c #C38587",
"0$	c #B63836",
"a$	c #C25C48",
"b$	c #BD4B3C",
"c$	c #BC4639",
"d$	c #B32B28",
"e$	c #AD161A",
"f$	c #B02020",
"g$	c #B01F20",
"h$	c #B73830",
"i$	c #B42C28",
"j$	c #B22926",
"k$	c #B5312B",
"l$	c #C86C52",
"m$	c #B5302B",
"n$	c #B22428",
"o$	c #CE8789",
"p$	c #CAC1C1",
"q$	c #716F6F",
"r$	c #B2AEAE",
"s$	c #D1CACA",
"t$	c #CB999A",
"u$	c #B84548",
"v$	c #B5312C",
"w$	c #B12222",
"x$	c #B83A31",
"y$	c #BB4244",
"z$	c #D09799",
"A$	c #BDB7B7",
"B$	c #908E8E",
"C$	c #D3CECE",
"D$	c #CB9698",
"E$	c #BD595C",
"F$	c #B32F34",
"G$	c #AE1B20",
"H$	c #B12B30",
"I$	c #B85054",
"J$	c #C4888A",
"K$	c #C2BDBD",
"L$	c #767474",
"M$	c #5D5B5B",
"N$	c #868484",
"O$	c #A6A2A2",
"P$	c #C5C0C0",
"Q$	c #CEC3C3",
"R$	c #CCACAD",
"S$	c #C89798",
"T$	c #C27D7F",
"U$	c #C07275",
"V$	c #BE7174",
"W$	c #BF777A",
"X$	c #C18C8E",
"Y$	c #C19E9F",
"Z$	c #BBAFB0",
"`$	c #848282",
" %	c #7C7979",
".%	c #9C9999",
"+%	c #A7A3A3",
"@%	c #AEAAAA",
"#%	c #B0ABAB",
"$%	c #ACA9A9",
"%%	c #A6A3A3",
"&%	c #8A8888",
"*%	c #646262",
"=%	c #6E6B6B",
"-%	c #6D6A6A",
"                            . + @ #                             ",
"                    $ % & * = - ; > , ' ) #                     ",
"                ! ~ { ] ^ / ( _ : < [ } | 1 2 .                 ",
"            3 2 4 5 6 7 8 9 0 a b c d e f g h i j k             ",
"          + l m n o p q r s t u v w x y z A B C D E F           ",
"        + G H I J K L M N O P Q R S T U V A W X Y Z `  .        ",
"      ..+.@.#.$.%.&.*.=.-.;.>.,.'.).!.~.{.A A A ].^./.(._.      ",
"      :.<.[.$.}.|.1.2.3.4.5.6.7.8.9.0.a.A A A A A b.c.d.e.      ",
"    f.g.h.i.j.k.l.m.n.o.p.q.r.s.t.u.v.A A A A A A A w.x.y.z.    ",
"    A.B.C.D.E.E.F.G.H.I.q.J.K.L.M.N.O.A A A A A A A A P.Q.R.    ",
"  S.T.U.{.V.E.R R W.X.Y.Z.`. +.+++@+#+W A A A A A A A A $+%+&+  ",
"  *+=+-+;+>+,+'+)+!+~+{+]+^+/+(+_+:+<+[+a.}+|+1+A A A A 2+3+4+  ",
"  5+6+7+8+,+9+0+a+b+c+d+e+f+g+h+i+j+k+l+m+n+o+p+v.A A A q+r+s+  ",
"  i t+u+v+'+0+w+x+y+z+A+B+C+D+E+F+G+H+I+J+K+L+M+N+A A A O+P+Q+  ",
"R+G S+T+U+V+w+x+%.W+A A X+Y+Z+`+ @.@+@@@#@$@%@&@*@=@A A -@;@& >@",
"# ,@'@)@V+w+x+!@~@W A A A {@]@^@H+/@(@_@:@<@[@}@|@1@2@A A 3@1 4@",
"5@6@7@8@w+x+S 9@-@A A A A 0@a@b@c@d@e@0@f@g@Z+h@i@j@k@v.A l@m@n@",
"o@p@q@r@x+!@s@t@A A A A A u@v@w@x@y@v.A A z@h@A@B@C@D@A E@F@G@H@",
"  I@J@K@L@M@!.N@A A A A O@P@$@K+Q@R@v.A b.S@T@U@V@W@A A X@Y@Z@  ",
"  `@ #.#+#@###-@A A A A $#%#&#*#$@=#-#[+;#>#,#'#)#!#v.A ~#{#Q+  ",
"  ]#^#/#A A A A A A A A W (#_#:#<#[#}#|#T@,#1#2#3#4#5#A 6#7#8#  ",
"  9#0#a#A A A A A A A A A v.b#c#[#d#h@e#,#f#g#h#i#j#v.A k#l y.  ",
"    l#m#n#W A A A A A A A A ].o#p#q#r#s#t#u#v#w#x#0@A y#<.z#    ",
"    A#B#C#D#A A E#F#G#H#I#J#A K#L#M#N#O#P#Q#R#v.A A S#T#A.U#    ",
"      >@V#W#].A X#Y#Z#`# $.$+$@$#$$$%$&$*$=$-$;$A -@>$,$'$      ",
"      A#+ )$!$a.~${$]$^$H#/$($_$:$<$.$[$}$|$1$2$-@3$4$5$6$      ",
"        >@7$8$9$0$a$b$c$d$e$H#f$g$h$i$j$k$l$m$n$o$p$3 l#        ",
"          q$r$s$t$u$v$w$A A A A A A A A W x$y$z$A$B$4+          ",
"            H@f.= C$D$E$F$T+1+A A 1+G$H$I$J$K$% L$M$            ",
"                N$O$P$Q$R$S$T$U$V$W$X$Y$Z$Z@`$F                 ",
"                     %# .%+%@%#%$%%%Q+&%L$*%                    ",
"                            =%4@-%F                             "};
