/* XPM */
static char * qtiplot_xpm[] = {
"32 32 483 2",
"  	c None",
". 	c #7C9FBF",
"+ 	c #799CBD",
"@ 	c #89A7C2",
"# 	c #96B1C8",
"$ 	c #AEC2D3",
"% 	c #AABFD1",
"& 	c #8EABC7",
"* 	c #759ABE",
"= 	c #7AA3C1",
"- 	c #A0BDD1",
"; 	c #C7D7E1",
"> 	c #E8EDF0",
", 	c #DAE4E9",
"' 	c #A3BED0",
") 	c #86AAC5",
"! 	c #729CBC",
"~ 	c #A6BFD0",
"{ 	c #A9C1D2",
"] 	c #9FBBD0",
"^ 	c #A3C0D6",
"/ 	c #9DBAD1",
"( 	c #A3BECF",
"_ 	c #B6CAD6",
": 	c #88A6BD",
"< 	c #8BAAC6",
"[ 	c #A0B6CD",
"} 	c #749CBE",
"| 	c #8CABC6",
"1 	c #A2B9CE",
"2 	c #7A9AB5",
"3 	c #799CBF",
"4 	c #8AA7C6",
"5 	c #6590B8",
"6 	c #7A9DC0",
"7 	c #8DA8C7",
"8 	c #6F91B1",
"9 	c #658DB6",
"0 	c #7395BB",
"a 	c #5484B0",
"b 	c #668FB6",
"c 	c #7698BC",
"d 	c #6288AB",
"e 	c #5584AF",
"f 	c #618BB4",
"g 	c #477CAA",
"h 	c #5685B0",
"i 	c #648DB5",
"j 	c #5882A7",
"k 	c #B8CFAF",
"l 	c #B2CBA8",
"m 	c #92B99D",
"n 	c #5F959A",
"o 	c #4F83A3",
"p 	c #4F80AB",
"q 	c #3B75A6",
"r 	c #477CAB",
"s 	c #5282AF",
"t 	c #4D7FAD",
"u 	c #4E7CA3",
"v 	c #A9CBA6",
"w 	c #D4E2CE",
"x 	c #E3EDE0",
"y 	c #E6EEE1",
"z 	c #D3E4CE",
"A 	c #B2D2B2",
"B 	c #79AE95",
"C 	c #48898A",
"D 	c #316E9E",
"E 	c #3D76A8",
"F 	c #4278AA",
"G 	c #23649A",
"H 	c #3A6E9A",
"I 	c #A7D1AD",
"J 	c #D4E8D6",
"K 	c #F2F7F1",
"L 	c #E3EEE2",
"M 	c #BEDBBF",
"N 	c #9FCDA4",
"O 	c #6FAA88",
"P 	c #1F5F7F",
"Q 	c #326EA1",
"R 	c #2D6AA0",
"S 	c #0E558F",
"T 	c #296290",
"U 	c #C7DDC0",
"V 	c #BCD8B7",
"W 	c #AAD1AC",
"X 	c #9DCEA8",
"Y 	c #AED4B2",
"Z 	c #B3D4B2",
"` 	c #C7DDC1",
" .	c #7BAD8F",
"..	c #195774",
"+.	c #2C6A9C",
"@.	c #206199",
"#.	c #0C548E",
"$.	c #2B6491",
"%.	c #A2A5A2",
"&.	c #81A28B",
"*.	c #ACD0A4",
"=.	c #6FB77B",
"-.	c #AFD1A6",
";.	c #6AA580",
">.	c #0D5072",
",.	c #206396",
"'.	c #0E5992",
").	c #0A5590",
"!.	c #27628F",
"~.	c #9C9D9A",
"{.	c #A8ABA9",
"].	c #B4B9B8",
"^.	c #8DB09A",
"/.	c #97C594",
"(.	c #63B171",
"_.	c #9AC796",
":.	c #5B9D76",
"<.	c #034A6E",
"[.	c #0A588E",
"}.	c #095892",
"|.	c #095792",
"1.	c #1F5B88",
"2.	c #4C5D6B",
"3.	c #9C9C97",
"4.	c #B2B6B6",
"5.	c #B7BCBC",
"6.	c #AFB4B4",
"7.	c #85A892",
"8.	c #71B577",
"9.	c #78B77B",
"0.	c #82BA81",
"a.	c #56AC66",
"b.	c #83BC83",
"c.	c #75B77A",
"d.	c #489568",
"e.	c #024D70",
"f.	c #05598F",
"g.	c #085B95",
"h.	c #22608E",
"i.	c #6C7D8D",
"j.	c #93999A",
"k.	c #939594",
"l.	c #84827A",
"m.	c #A8ABAA",
"n.	c #B0B3B1",
"o.	c #B9BDBC",
"p.	c #B7BCBB",
"q.	c #B1B7B6",
"r.	c #ADB2B2",
"s.	c #A6AAAA",
"t.	c #7DA08A",
"u.	c #2D9C4B",
"v.	c #48A55C",
"w.	c #73B475",
"x.	c #4DA85F",
"y.	c #75B578",
"z.	c #72B476",
"A.	c #309D4D",
"B.	c #268952",
"C.	c #034F72",
"D.	c #075C92",
"E.	c #0B5E97",
"F.	c #22628E",
"G.	c #6A7B8A",
"H.	c #AEB5B7",
"I.	c #B3B7B6",
"J.	c #ABAFAE",
"K.	c #8B8B84",
"L.	c #A6A9A6",
"M.	c #BABEBD",
"N.	c #BBBFBF",
"O.	c #B8BDBC",
"P.	c #B4B9B9",
"Q.	c #A7ACAC",
"R.	c #A3A4A3",
"S.	c #A99B98",
"T.	c #82937A",
"U.	c #229340",
"V.	c #299947",
"W.	c #64AE6B",
"X.	c #45A559",
"Y.	c #66AF6C",
"Z.	c #4FA75E",
"`.	c #1F9641",
" +	c #1A844B",
".+	c #10547E",
"++	c #1A6298",
"@+	c #1F639D",
"#+	c #2C648F",
"$+	c #647684",
"%+	c #A8B0B1",
"&+	c #BABDBD",
"*+	c #939696",
"=+	c #AAABA6",
"-+	c #BDC1C0",
";+	c #B7BDBC",
">+	c #B3B9B8",
",+	c #ADB2B3",
"'+	c #A8ACAD",
")+	c #B39F9B",
"!+	c #CAAEA4",
"~+	c #DFBAAA",
"{+	c #CFA991",
"]+	c #778652",
"^+	c #38893F",
"/+	c #55A65F",
"(+	c #41A256",
"_+	c #5CAB65",
":+	c #3DA052",
"<+	c #239843",
"[+	c #20864E",
"}+	c #205A8A",
"|+	c #2A679E",
"1+	c #2E6AA1",
"2+	c #356791",
"3+	c #617280",
"4+	c #A3AAAC",
"5+	c #8D9191",
"6+	c #9DA0A1",
"7+	c #ACAEA9",
"8+	c #BCBFBF",
"9+	c #B2B8B7",
"0+	c #B19C9A",
"a+	c #D4948A",
"b+	c #EFD5C8",
"c+	c #F4E9E0",
"d+	c #F4E8DE",
"e+	c #F0DBCC",
"f+	c #EABBA5",
"g+	c #D88C74",
"h+	c #89764D",
"i+	c #3B8B43",
"j+	c #45A154",
"k+	c #349D4A",
"l+	c #2C9B46",
"m+	c #2A8A51",
"n+	c #326390",
"o+	c #3B72A5",
"p+	c #3E75A8",
"q+	c #3F6D96",
"r+	c #60717E",
"s+	c #9FA4A8",
"t+	c #B5BAB9",
"u+	c #8B8F8F",
"v+	c #999E9E",
"w+	c #ACADA9",
"x+	c #B9BEBD",
"y+	c #B5BBBA",
"z+	c #A9AEAE",
"A+	c #B69995",
"B+	c #E29E8E",
"C+	c #E4A091",
"D+	c #EBBAB2",
"E+	c #FAF5F2",
"F+	c #F4E4DD",
"G+	c #E5A291",
"H+	c #B1806A",
"I+	c #3F6F36",
"J+	c #399B49",
"K+	c #379E4B",
"L+	c #369D4B",
"M+	c #338E54",
"N+	c #3F6B93",
"O+	c #497CAA",
"P+	c #4E7FAE",
"Q+	c #49749A",
"R+	c #9EA3A6",
"S+	c #B3B8B7",
"T+	c #8A8E8E",
"U+	c #ABADA8",
"V+	c #ACB1B2",
"W+	c #A7ABAC",
"X+	c #B3908A",
"Y+	c #D56558",
"Z+	c #DF8974",
"`+	c #E2967D",
" @	c #DC786A",
".@	c #DE8372",
"+@	c #E4A087",
"@@	c #DD7C6B",
"#@	c #AD6D55",
"$@	c #466A37",
"%@	c #479C50",
"&@	c #47A154",
"*@	c #40935C",
"=@	c #52789A",
"-@	c #628BB2",
";@	c #678FB6",
">@	c #6089B0",
",@	c #4F718D",
"'@	c #5E6D79",
")@	c #9CA2A4",
"!@	c #B2B7B7",
"~@	c #ABACA8",
"{@	c #B6BBBA",
"]@	c #B1B7B7",
"^@	c #AAB0B0",
"/@	c #A87875",
"(@	c #C82D29",
"_@	c #D24C3F",
":@	c #DF8266",
"<@	c #DA6A55",
"[@	c #DD7961",
"}@	c #DC735D",
"|@	c #CC332D",
"1@	c #A54130",
"2@	c #4E6E3C",
"3@	c #54A15A",
"4@	c #56A85F",
"5@	c #56A860",
"6@	c #4D9965",
"7@	c #6484A2",
"8@	c #7A9ABC",
"9@	c #6587A7",
"0@	c #5B7386",
"a@	c #5D6C77",
"b@	c #707B84",
"c@	c #929798",
"d@	c #999E9D",
"e@	c #B3B8B8",
"f@	c #999D9D",
"g@	c #AAACA8",
"h@	c #B5BABA",
"i@	c #ACB1B1",
"j@	c #9FA4A4",
"k@	c #989D9D",
"l@	c #B07F7C",
"m@	c #CA2E29",
"n@	c #CE362D",
"o@	c #D7634B",
"p@	c #D55844",
"q@	c #D8644C",
"r@	c #D44F3E",
"s@	c #CC2A24",
"t@	c #A83C2C",
"u@	c #5B7546",
"v@	c #6BAA6B",
"w@	c #6EB271",
"x@	c #6EB272",
"y@	c #569766",
"z@	c #526D82",
"A@	c #5B7588",
"B@	c #646F76",
"C@	c #6F7A82",
"D@	c #899297",
"E@	c #9BA0A3",
"F@	c #A4A8A8",
"G@	c #A3A7A7",
"H@	c #8B9090",
"I@	c #7D8181",
"J@	c #9DA1A2",
"K@	c #A1A5A5",
"L@	c #A0A3A3",
"M@	c #ABB0B0",
"N@	c #B2B8B6",
"O@	c #B98984",
"P@	c #CB362C",
"Q@	c #CD362A",
"R@	c #D4523D",
"S@	c #D34E3B",
"T@	c #D55741",
"U@	c #D04131",
"V@	c #CD3126",
"W@	c #AC4231",
"X@	c #687A4F",
"Y@	c #80B37B",
"Z@	c #83BB83",
"`@	c #72AC76",
" #	c #608669",
".#	c #697578",
"+#	c #758086",
"@#	c #848D92",
"##	c #969C9F",
"$#	c #A2A7A8",
"%#	c #A6AAAB",
"&#	c #A5AAAA",
"*#	c #919697",
"=#	c #7E8383",
"-#	c #8C9090",
";#	c #818381",
">#	c #AAAEAE",
",#	c #BABEBE",
"'#	c #BD918A",
")#	c #D14A38",
"!#	c #D24936",
"~#	c #D34D38",
"{#	c #D24835",
"]#	c #D34C38",
"^#	c #D14733",
"/#	c #D14633",
"(#	c #B04D39",
"_#	c #727B57",
":#	c #87AD82",
"<#	c #6F9576",
"[#	c #67786E",
"}#	c #75837A",
"|#	c #929C97",
"1#	c #A1A6A7",
"2#	c #A6AAAC",
"3#	c #A8ADAE",
"4#	c #A3A8A9",
"5#	c #959A9A",
"6#	c #818585",
"7#	c #8C908F",
"8#	c #A3A6A5",
"9#	c #9C9F9E",
"0#	c #9EA1A1",
"a#	c #BBBEBE",
"b#	c #BD9B95",
"c#	c #D15F4A",
"d#	c #D76048",
"e#	c #D65B44",
"f#	c #D65A43",
"g#	c #D65C44",
"h#	c #AB5140",
"i#	c #64634E",
"j#	c #6B7E6C",
"k#	c #6E7F74",
"l#	c #86938B",
"m#	c #99A29E",
"n#	c #A6ACAB",
"o#	c #A9AEAF",
"p#	c #9A9F9F",
"q#	c #838888",
"r#	c #8B908F",
"s#	c #9FA3A2",
"t#	c #8F9393",
"u#	c #B0B1AE",
"v#	c #AA9088",
"w#	c #BD7361",
"x#	c #D37860",
"y#	c #DD7D62",
"z#	c #DC795F",
"A#	c #C7705B",
"B#	c #A1675B",
"C#	c #7C7069",
"D#	c #8A8177",
"E#	c #969E97",
"F#	c #9EA7A3",
"G#	c #AAAFAF",
"H#	c #A9AFAE",
"I#	c #9CA0A1",
"J#	c #848988",
"K#	c #A3A7A5",
"L#	c #999D9C",
"M#	c #A09F9C",
"N#	c #AA9C95",
"O#	c #A98478",
"P#	c #C07969",
"Q#	c #B17364",
"R#	c #8A7169",
"S#	c #897B74",
"T#	c #9B938D",
"U#	c #A7A5A2",
"V#	c #AEB4B4",
"W#	c #B1B6B6",
"X#	c #A0A5A5",
"Y#	c #878B8B",
"Z#	c #8D9090",
"`#	c #9EA2A1",
" $	c #929594",
".$	c #A1A19E",
"+$	c #A39992",
"@$	c #9C8E86",
"#$	c #A49B94",
"$$	c #AFADA9",
"%$	c #AFB4B3",
"&$	c #A1A6A5",
"*$	c #888C8C",
"=$	c #8D9190",
"-$	c #A4A6A5",
";$	c #959694",
">$	c #A4A4A1",
",$	c #B9BBB9",
"'$	c #B8BDBB",
")$	c #A3A8A8",
"!$	c #8A8D8E",
"~$	c #8F9292",
"{$	c #9FA2A1",
"]$	c #A1A4A4",
"^$	c #898D8D",
"/$	c #838787",
"($	c #A4A7A6",
"                                        . +                     ",
"                                    @ # $ % & *                 ",
"                                  = - ; > , ' ) !               ",
"                                  ~ { ] ^ / ( _ :               ",
"                                  < [ [ } | 1 1 2               ",
"                                  3 4 4 5 6 7 7 8               ",
"                                  9 0 0 a b c c d               ",
"                                  e f f g h i i j               ",
"                            k l m n o p q r s t u               ",
"                        v w x y z A B C D E F G H               ",
"                        I I J K L M N O P Q R S T               ",
"                        U V W X Y Z `  ...+.@.#.$.              ",
"                    %.&.*.*.*.=.-.-.-.;.>.,.'.).!.              ",
"                ~.{.].^./././.(._._._.:.<.[.}.|.1.2.            ",
"            3.4.5.].6.7.8.9.0.a.b.b.c.d.e.f.g.g.h.i.j.k.        ",
"      l.m.n.o.p.q.r.s.t.u.v.w.x.y.z.A.B.C.D.E.E.F.G.H.I.J.      ",
"  K.L.M.N.O.P.6.Q.R.S.T.U.V.W.X.Y.Z.`. +.+++@+@+#+$+%+O.&+*+    ",
"  =+-+N.;+>+,+'+)+!+~+{+]+^+/+(+_+:+<+[+}+|+1+1+2+3+4+>+5.5+6+  ",
"  7+8+;+9+r.0+a+b+c+d+e+f+g+h+i+j+k+l+m+n+o+p+p+q+r+s+6.t+u+v+  ",
"  w+x+y+6.z+A+B+C+D+E+F+C+G+H+I+J+K+L+M+N+O+P+P+Q+3+R+r.S+T+v+  ",
"  U+p.S+V+W+X+Y+Z+`+ @.@+@@@#@$@%@&@&@*@=@-@;@>@,@'@)@r.!@T+v+  ",
"  ~@{@]@^@'+/@(@_@:@<@[@}@|@1@2@3@4@5@6@7@8@9@0@a@b@c@d@e@T+f@  ",
"  g@h@i@j@k@l@m@n@o@p@q@r@s@t@u@v@w@x@y@z@A@B@C@D@E@F@G@H@I@J@  ",
"  g@K@L@M@N@O@P@Q@R@S@T@U@V@W@X@Y@Z@`@ #.#+#@###$#%#&#*#=#-#    ",
"  ;#>#8+,#;+'#)#!#~#{#]#^#/#(#_#:#<#[#}#|#1#2#3#4#5#6#7#8#      ",
"    9#0#a#N.b#c#d#d#e#f#g#g#h#i#j#k#l#m#n#o#M@p#q#r#s#          ",
"        t#G@u#v#w#x#y#z#A#B#C#D#E#F#G#r.H#I#J#7#K#              ",
"            L#M#N#O#P#Q#R#S#T#U#i@V#W#X#Y#Z#`#                  ",
"                 $.$+$@$#$$$4.9+%$&$*$=$-$                      ",
"                    ;$>$,$'${@)$!$~${$                          ",
"                         $]$^$/$($                              ",
"                                                                "};
