/* XPM */
static char *qtoctave[] = {
/* columns rows colors chars-per-pixel */
"32 32 210 2",
"   c #000000",
".  c #00070D",
"X  c #040806",
"o  c #050C09",
"O  c #0A0909",
"+  c #000C13",
"@  c #000E1D",
"#  c #080C19",
"$  c #0D130B",
"%  c #051717",
"&  c #0A1B1E",
"*  c #1C1E1B",
"=  c #09113F",
"-  c #06211E",
";  c #052124",
":  c #0E2524",
">  c #062137",
",  c #06213B",
"<  c #0D2E30",
"1  c #122F30",
"2  c #153335",
"3  c #183A3C",
"4  c #251214",
"5  c #202421",
"6  c #35302B",
"7  c #3C3532",
"8  c #081563",
"9  c #082642",
"0  c #123C40",
"q  c #083D65",
"w  c #3E413B",
"e  c #17454D",
"r  c #1C5154",
"t  c #1B6B74",
"y  c #214D56",
"u  c #21535F",
"i  c #266F7B",
"p  c #2A757B",
"a  c #6D3D3B",
"s  c #5E4541",
"d  c #674E4C",
"f  c #62534F",
"g  c #091D9E",
"h  c #0819B3",
"j  c #0116D2",
"k  c #0217D8",
"l  c #011BD4",
"z  c #021CD8",
"x  c #081CDD",
"c  c #022AD4",
"v  c #0823DD",
"b  c #082BDD",
"n  c #033ED9",
"m  c #083DD6",
"M  c #083DDE",
"N  c #074C83",
"B  c #07529A",
"V  c #0655A3",
"C  c #0760B5",
"Z  c #0344D4",
"A  c #0345D9",
"S  c #034AD3",
"D  c #0849DD",
"F  c #035BD1",
"G  c #035BD9",
"H  c #0854DE",
"J  c #0859DC",
"K  c #066CCE",
"L  c #096EC6",
"P  c #0264D0",
"I  c #0267D8",
"U  c #056AD4",
"Y  c #0861DE",
"T  c #086BD5",
"R  c #0276CF",
"E  c #057ECB",
"W  c #0673D4",
"Q  c #057CD3",
"!  c #097DD5",
"~  c #35979C",
"^  c #3A9DA6",
"/  c #0A85CC",
"(  c #0685D4",
")  c #0985D3",
"_  c #0C89D3",
"`  c #0B90D3",
"'  c #0D90DB",
"]  c #138FD6",
"[  c #1392CF",
"{  c #1292D1",
"}  c #1696DC",
"|  c #1996D4",
" . c #1D9CD3",
".. c #1DA3CF",
"X. c #1CA1D3",
"o. c #1AA3D9",
"O. c #1FAFD4",
"+. c #1DADDB",
"@. c #21A2C9",
"#. c #23ACD4",
"$. c #23AFDA",
"%. c #23B4D3",
"&. c #24B2DA",
"*. c #24BAD3",
"=. c #26B9DB",
"-. c #2DB7D4",
";. c #2AB3DB",
":. c #2BBFD6",
">. c #2BBFD8",
",. c #34BBD4",
"<. c #3ABCD5",
"1. c #2FC2DC",
"2. c #34C2D9",
"3. c #3CC4D9",
"4. c #45B7C6",
"5. c #42BCC7",
"6. c #47B8C9",
"7. c #49BCCA",
"8. c #44C4C9",
"9. c #49C1CE",
"0. c #44C6D3",
"q. c #46C5DA",
"w. c #46C8D2",
"e. c #46C8D8",
"r. c #4AC3D3",
"t. c #49C6DC",
"y. c #4AC8D5",
"u. c #4BC9DA",
"i. c #5BC7CF",
"p. c #5DC9CD",
"a. c #54C9D5",
"s. c #52C9D9",
"d. c #5DCBD0",
"f. c #64CACE",
"g. c #6DCFCF",
"h. c #63CAD2",
"j. c #6ACBD3",
"k. c #6ED0D3",
"l. c #76C4CA",
"z. c #70CFD3",
"x. c #7ED0CB",
"c. c #73D2D6",
"v. c #77D4DF",
"b. c #7CD4D5",
"n. c #7AD4DC",
"m. c #77D4E2",
"M. c #78D5E4",
"N. c #973E37",
"B. c #9B4948",
"V. c #99524C",
"C. c #9D5450",
"Z. c #805E63",
"A. c #826165",
"S. c #86646B",
"D. c #856B6D",
"F. c #896767",
"G. c #856C70",
"H. c #887674",
"J. c #8C7678",
"K. c #926C71",
"L. c #93746B",
"P. c #9F7C79",
"I. c #A46B66",
"U. c #A3716C",
"Y. c #AA726C",
"T. c #A47672",
"R. c #A77870",
"E. c #A37E7C",
"W. c #A87F7B",
"Q. c #A9807B",
"!. c #9B9691",
"~. c #8BBBBC",
"^. c #A78A83",
"/. c #A38E88",
"(. c #AA8482",
"). c #AB8B88",
"_. c #A3908C",
"`. c #AA928C",
"'. c #A89592",
"]. c #A8A09B",
"[. c #A8A2A2",
"{. c #A8ABA6",
"}. c #A7B3AB",
"|. c #ABB4AF",
" X c #A1B1B1",
".X c #ABB6B4",
"XX c #A9BAB4",
"oX c #A9BDB9",
"OX c #9DC3B6",
"+X c #A7C3BB",
"@X c #A9C2BC",
"#X c #85CFC8",
"$X c #87D0CB",
"%X c #8AD0CE",
"&X c #86D0D0",
"*X c #81D5D9",
"=X c #8AD1D2",
"-X c #94D0CD",
";X c #98D1CF",
":X c #92D1D1",
">X c #9BD0D1",
",X c #A5CFCF",
"<X c #A9C5C1",
"1X c #A8CBC4",
"2X c #ABCCCB",
"3X c #A6D0CB",
"4X c #A8D1CD",
"5X c #A6D1D1",
"6X c #ABD0D1",
"7X c None",
/* pixels */
"7X7X7X7X7X7X7X7X7X7X7X7X7X7X7X7X5 5 7X7X7X7X7X7X7X7X7X7X7X7X7X7X",
"7X7X7X7X7X7X7X7X7X7X7X7X7X7X7Xa OXp.8.7X7X7X7X7X7X7X7X7X7X7X7X7X",
"7X7X7X7X7X7X7X7X7X7X7X7X7X7Xd !.n./ ,.8.7X7X7X7X7X7X7X7X7X7X7X7X",
"7X7X7X7X7X7X7X7X7X7X7X7X7X7 N.5Xp.z P 0.~ 7X7X7X7X7X7X7X7X7X7X7X",
"7X7X7X7X7X7X7X7X7X7X7X7X$ U.}.#X,.j c *.0.; 7X7X7X7X7X7X7X7X7X7X",
"7X7X7X7X7X7X7X7X7X7X7X7XU.V.3Xb.@.k j ` 3.9.7X7X7X7X7X7X7X7X7X7X",
"7X7X7X7X7X7X7X7X7X7X7XU.R.@X%Xg.[ j k R 2.w.3 7X7X7X7X7X7X7X7X7X",
"7X7X7X7X7X7X7X7X7X7XL.I.I.5Xx.p./ l j U *.0.3.7X7X7X7X7X7X7X7X7X",
"7X7X7X7X7X7X7X7X* T.Y.U.6X-Xb.y./ c k F o.0.0.< 7X7X7X7X7X7X7X7X",
"7X7X7X7X7X7X* f R.W.^./.3X%Xj.q.E Z c G [ 2.w.5.7X7X7X7X7X7X7X7X",
"7X7X7X7Xs _.R.R.).^.U.,X;Xb.h.,.Q S n F ( *.e.e.& 7X7X7X7X7X7X7X",
"7X7X4 B.C.Y.(.'.{.[.XX4X$Xv.p.-.Q G Z G ( =.0.y.^ 7X7X7X7X7X7X7X",
"7X6 Y.W.`.].|.+X2XE.6X-Xn.c.s.%.Q P A P Q O.2.e.e.7X7X7X7X7X7X7X",
"w .XoX@X1X6X4X6X/.5X3X=Xv.j.e.$.( U F U U o.:.e.y.p 7X7X7X7X7X7X",
"F.{.6X4X6X4X6XXX.X4X:Xb.v.f.y.O.( U I U U ` =.e.e.y.7X7X7X7X7X7X",
"Z.Z.!.4X4X6X1X`.2X>X%Xm.k.a.0.#./ U U U U ( %.2.y.u.r 7X7X7X7X7X",
"Z.S.S.J. X4X).3X5X&X*Xm.j.u.,.#.( U U U I ) +.1.e.y.r.7X7X7X7X7X",
"Z.S.d G.H.).4X6X-X=Xm.z.p.t.$.#.( I U U U (  .=.0.u.u.1 7X7X7X7X",
"Z.Z.Z.D.P.<X6X>X=Xn.v.f.s.0.$.@.) U U U T Q ' &.2.u.u.4.7X7X7X7X",
"Z.S.Z.T.oX6X;X=Xb.v.j.h.u.<.&. .) U U U K U ) &.>.t.u.u.2 7X7X7X",
"Z.S.T.oX6X>X=X*XM.z.j.u.r.;.&.[ ) U U U T W ) X.;.3.u.u.6.7X7X7X",
"K.R.oX6X>X=X*XM.z.j.a.u.,.&.#._ ( U U U U U _ } &.2.u.u.u.2 7X7X",
"(.2X6X=X=Xn.M.j.j.a.t.<.$.$. ._ ! U U U V > + + ; t t.s.u.7.7X7X",
"5 ~.=X*Xn.m.j.h.s.t.<.$.$.#._ ) W U K , 7X7X7X7X7X7X% ^ u.s.3 7X",
"7X7Xl.n.c.h.s.t.<.;.;.#. .] _ ! U C 7X7X7X7X7X7X7X7X7X7Xu u.r.7X",
"7X7X7Xh.s.t.-.;.#.#.| ] _ ) ! W B 7X7X7X7X7X7X7X7X7X7X7X7X: r.y ",
"7X7X7Xe ;. .] ) ! W W W T T T N 7X7X7X7X7X7X7X7X7X7X7X7X7X7X7Xi ",
"7X7X7X7XL Y H H J J T U T T q 7X7X7X7X7X7X7X7X7X7X7X7X7X7X7X7X7X",
"7X7X7X7X# v x x x b M D T 9 7X7X7X7X7X7X7X7X7X7X7X7X7X7X7X7X7X7X",
"7X7X7X7X7Xh x x x x x m @ 7X7X7X7X7X7X7X7X7X7X7X7X7X7X7X7X7X7X7X",
"7X7X7X7X7X+ x x x x 8 7X7X7X7X7X7X7X7X7X7X7X7X7X7X7X7X7X7X7X7X7X",
"7X7X7X7X7X7Xg h = 7X7X7X7X7X7X7X7X7X7X7X7X7X7X7X7X7X7X7X7X7X7X7X"
};
