/* XPM */
static char * quicklist_xpm[] = {
"32 32 7 1",
" 	c None",
".	c #00429A",
"+	c #00449B",
"@	c #00429B",
"#	c #00439B",
"$	c #00439A",
"%	c #00449A",
"                                ",
"                                ",
"                                ",
"                                ",
"                                ",
"           ..+.@##              ",
"         $.       @$            ",
"       ...         ..           ",
"      ...          ...          ",
"     ...            ...         ",
"    ...             ...         ",
"    ...             ...         ",
"   ....             ...@        ",
"   ...              ...@     .  ",
"   ...              ...     $   ",
"  ...@              ...   .@    ",
"  ....             ....  ..     ",
"  ....             ..$ ...      ",
"  ....             .  @.@       ",
"   ...      .        ...        ",
"   ...       .     ....         ",
"   $..       ..   ....          ",
"    ..@       ...$..@           ",
"     ..@      ......            ",
"       $..%$.......             ",
"               ...              ",
"                .               ",
"                                ",
"                                ",
"                                ",
"                                ",
"                                "};
