/* XPM */
static char *icon_xpm[] = {
"32 32 32 1",
"A	c #FF0000",
"B	c #000000",
"C	c #C80000",
"D	c #E40000",
"E	c #850000",
"F	c #FD4719",
"G	c #B2481C",
"H	c #FE6A2B",
"I	c #DA8F67",
"J	c #84440B",
"K	c #D5D500",
"L	c #FFFF01",
"M	c #939301",
"N	c #D2D77A",
"O	c #CFD3AF",
"P	c #BEC599",
"Q	c #839068",
"R	c #242E12",
"S	c #9DB684",
"T	c #3F4F3A",
"U	c #60805E",
"V	c #6E936E",
"W	c #80BFFF",
"X	c #6EA5DD",
"Y	c #6C8EBD",
"Z	c #8093FF",
"a	c #151B55",
"b	c #4F53D9",
"c	c #1F1F7C",
"d	c #5050FE",
"e	c #8080FF",
"f	c #5E5EFF",
"BBBBBBBBBBBBBBBBBBBBBBBBBBBBBBBB",
"BBBBBBBBBBBBBBBMBBBBBBBBBBBBBBBB",
"BBBBBBBBBBBBBBMKTBBBBBBBBBBBBBBB",
"BBBBBBBBBBBBBBLKMBBBBBBBBBBBBBBB",
"BBBBBBBBBBBBBQNNQTBBBBBBBBBBBBBB",
"BBBBBBBBBBBBBPPSQUBBBBBBBBBBBBBB",
"BBBBBBBBBBBBQOPSSVTBBBBBBBBBBBBB",
"BBBBBBBBBBBBPOSSSVUBBBBBBBBBBBBB",
"BBBBBBBBBBBBLNSSSQMBBBBBBBBBBBBB",
"BBBBYXXXXXXXLLKKKMMXXXXXXSTBBBBB",
"BBBYWWWWWWWWLLKKKMMWWWWWOOOSTBBB",
"BBBeZZZZZZZZLLKKKMMZZZZZSPPOOYaB",
"BBBeeeeeeeeeLLKKKMMeeeeeSSSSYZZY",
"BBBeeeeeeeeeLLKKKMMeeeeeSSSSYfba",
"BBBbffffffffLLKKKMMfffffYVVVUaBB",
"BBBaddddddddLLKKKMMdddddbVURBBBB",
"BBBBacccccccLLKKKMMccccccRBBBBBB",
"BBBBBBQGGGGGLLKKKMMGGGGGGGGJBBBB",
"BBBBQPOIHHHHLLKKKMMHHHHHHHHHJBBB",
"BBJPOOPPFFFFLLKKKMMFFFFFFFFFDBBB",
"JFFISSSSAAAALLKKKMMAAAAAAAAAABBB",
"ECDISSSSAAAALLKKKMMAAAAAAAAAABBB",
"BBEUVVQQDDDDLLKKKMMDDDDDDDDDDBBB",
"BBBBTUVGCCCCLLKKKMMCCCCCCCCCEBBB",
"BBBBBBTEEEEELLKKKMMEEEEEEEEEBBBB",
"BBBBBBBBBBBBLLKKKMMBBBBBBBBBBBBB",
"BBBBBBBBBBBBLLKKKMMBBBBBBBBBBBBB",
"BBBBBBBBBBBBLLKKKMMBBBBBBBBBBBBB",
"BBBBBBBBBBBBKLKKKMMBBBBBBBBBBBBB",
"BBBBBBBBBBBBRKKKKJBBBBBBBBBBBBBB",
"BBBBBBBBBBBBBBBBBBBBBBBBBBBBBBBB",
"BBBBBBBBBBBBBBBBBBBBBBBBBBBBBBBB"
};
