/* XPM */
static char *ri-li[] = {
/* columns rows colors chars-per-pixel */
"32 32 257 2",
"   c #000000",
".  c #00010C",
"X  c #090803",
"o  c #0C0B0A",
"O  c #010214",
"+  c #02051A",
"@  c #110906",
"#  c #161604",
"$  c #18180F",
"%  c #1A1909",
"&  c #1E1F13",
"*  c #050835",
"=  c #1E0C21",
"-  c #1A1A39",
";  c #260705",
":  c #221A15",
">  c #330905",
",  c #3E0D0A",
"<  c #340C08",
"1  c #2C173C",
"2  c #361020",
"3  c #34142E",
"4  c #202006",
"5  c #302109",
"6  c #3A290A",
"7  c #34340B",
"8  c #39390D",
"9  c #3A2A17",
"0  c #21222C",
"q  c #2F2731",
"w  c #23253B",
"e  c #2E312B",
"r  c #342A27",
"t  c #3B2F3C",
"y  c #343625",
"u  c #090E48",
"i  c #0C1253",
"p  c #0D1359",
"a  c #1B1B4B",
"s  c #171C48",
"d  c #191C57",
"f  c #0E1563",
"g  c #141864",
"h  c #10186B",
"j  c #111769",
"k  c #131A72",
"l  c #131B7C",
"z  c #191F76",
"x  c #1C204D",
"c  c #1D245C",
"v  c #361A45",
"b  c #3C1F5F",
"n  c #241A56",
"m  c #2B2642",
"M  c #272156",
"N  c #2C325D",
"B  c #392F47",
"V  c #332D5E",
"C  c #282F6F",
"Z  c #33277C",
"A  c #3C3771",
"S  c #3C4368",
"D  c #47170B",
"F  c #58170F",
"G  c #5D1613",
"H  c #561916",
"J  c #441936",
"K  c #451A37",
"L  c #471528",
"P  c #4A260D",
"I  c #422F1A",
"U  c #44311D",
"Y  c #403C1E",
"T  c #552423",
"R  c #513B2C",
"E  c #553E30",
"W  c #61150E",
"Q  c #6D1913",
"!  c #691D19",
"~  c #651B15",
"^  c #741D16",
"/  c #7B1B13",
"(  c #7D1C19",
")  c #721F18",
"_  c #681E28",
"`  c #683F13",
"'  c #74251B",
"]  c #6C202C",
"[  c #6B2434",
"{  c #7D2724",
"}  c #712233",
"|  c #723836",
" . c #4B3D4E",
".. c #5A2654",
"X. c #5C3558",
"o. c #412678",
"O. c #453D6E",
"+. c #5F3071",
"@. c #50317B",
"#. c #65284D",
"$. c #6F2D50",
"%. c #64326B",
"&. c #4A4A0C",
"*. c #4E4E10",
"=. c #565611",
"-. c #5B5B13",
";. c #494B35",
":. c #594126",
">. c #7E4C1D",
",. c #735719",
"<. c #654A2B",
"1. c #604529",
"2. c #604839",
"3. c #674C35",
"4. c #6E502E",
"5. c #6C5139",
"6. c #735432",
"7. c #7B5A3A",
"8. c #7A5936",
"9. c #76482C",
"0. c #636315",
"q. c #6F6017",
"w. c #6B6B16",
"e. c #6D6D18",
"r. c #726C19",
"t. c #7B6C1A",
"y. c #77631C",
"u. c #737316",
"i. c #74741A",
"p. c #7A7A1B",
"a. c #5C484A",
"s. c #444077",
"d. c #58496D",
"f. c #585D60",
"g. c #525867",
"h. c #515870",
"j. c #5E6274",
"k. c #645346",
"l. c #765946",
"z. c #767843",
"x. c #757665",
"c. c #161E82",
"v. c #161F8A",
"b. c #161F95",
"n. c #1B2283",
"m. c #1B238D",
"M. c #192397",
"N. c #1622A0",
"B. c #1924A3",
"V. c #1C27A8",
"C. c #1C28B1",
"Z. c #1F2FBE",
"A. c #202787",
"S. c #252685",
"D. c #222B97",
"F. c #21299A",
"G. c #2D348C",
"H. c #2B3493",
"J. c #302A87",
"K. c #202AA0",
"L. c #212CA8",
"P. c #212DB9",
"I. c #222EB2",
"U. c #2532AB",
"Y. c #2531A6",
"T. c #2531B3",
"R. c #2532BC",
"E. c #2C33B3",
"W. c #2F38B9",
"Q. c #333DAC",
"!. c #323BB3",
"~. c #323EB8",
"^. c #2332C4",
"/. c #2A37C3",
"(. c #303DC3",
"). c #3C49B2",
"_. c #3441C6",
"`. c #432D84",
"'. c #4E368F",
"]. c #443096",
"[. c #495294",
"{. c #494FAA",
"}. c #4E4FBE",
"|. c #5046A5",
" X c #4951C0",
".X c #4552DE",
"XX c #535EE5",
"oX c #5661E4",
"OX c #881B0E",
"+X c #831E15",
"@X c #891D14",
"#X c #862017",
"$X c #852118",
"%X c #8D231A",
"&X c #8C2417",
"*X c #92241B",
"=X c #9C2010",
"-X c #99251C",
";X c #9D281E",
":X c #902718",
">X c #8D3915",
",X c #882625",
"<X c #892830",
"1X c #8B3E26",
"2X c #9A2622",
"3X c #9D2822",
"4X c #952A29",
"5X c #942D30",
"6X c #9A3635",
"7X c #B22B1F",
"8X c #A9291C",
"9X c #A82E29",
"0X c #B92F20",
"qX c #B02E23",
"wX c #89541B",
"eX c #825D3B",
"rX c #8C701C",
"tX c #84613E",
"yX c #8E673D",
"uX c #996820",
"iX c #936A3F",
"pX c #947C21",
"aX c #A94D2F",
"sX c #846246",
"dX c #807F49",
"fX c #936C42",
"gX c #9C7447",
"hX c #967F59",
"jX c #A37849",
"kX c #A07649",
"lX c #A37D79",
"zX c #D23625",
"xX c #83831D",
"cX c #8C8C20",
"vX c #998521",
"bX c #958F32",
"nX c #9B9922",
"mX c #929221",
"MX c #999139",
"NX c #A29A25",
"BX c #ACAA2A",
"VX c #858046",
"CX c #968B40",
"ZX c #99925D",
"AX c #AD9D4A",
"SX c #A08660",
"DX c #B99672",
"FX c #BDA65E",
"GX c #D3B672",
"HX c #FCFC2F",
"JX c #D4AC81",
"KX c #DDA7A4",
"LX c #E2B78B",
"PX c #F0B7AC",
"IX c #F3B7B4",
"UX c #F9FFFF",
"YX c None",
/* pixels */
"YXYXYXYXYXYXYXYXYXYXYXYXYXYXYX  *.0.=.X           YXYXYXYXYXYXYX",
"YXYXYXYXYXYXYXYXYXYXYXYXYXYX7 =.0.w.w.0.%           YXYXYXYXYXYX",
"YXYXYXYXYXYXYXYXYXYXYXYX  &.-.w.e.e.i.u.0.8             YXYXYXYX",
"YXYXYXYXYXYXYXYXYXYXYX8 =.0.w.i.r.>.,.i.u.w.*.#           YXYXYX",
"YXYXYXYXYXYXYXYXYXYX*.-.0.i.p.i.y.aXwXe.u.u.p.u.%         YXYXYX",
"YXYXYXYXYXYXYXYXYXYX&.-.i.i.i.p.i.t.i.i.p.xXmXxX4           YXYX",
"YXYXYXYXYXYXYXYXYX    P ` q.i.i.i.i.p.p.cXnXrX5             YXYX",
"YXYXYXYXYXYXYXYXYX    > / >X,.e.p.p.pXmXNXwX' ;             YXYX",
"YXYXYXYXYXYXYXYXYX    ; Q @X:XwXr.cXBXvX6 D OX>             YXYX",
"YXYXYXYXYXYXYXYX      = F W / :X>XpXuXD @ ^ +X<             YXYX",
"YXYXYXYXYXYX~ Q +X+XG n K L J _ &X{ $X, F %X( T o           YXYX",
"YXYXYXYXYX, / -X0X8X&XK v 6X..Z [ ' *X/ @X@X@X| :           YXYX",
"YXYXYXYXYXW / qXzXqX$X! 1 %.'.!.`.] ,X9X2X-X=XF               YX",
"YXYXYXYXO 2 ^ ;X,X{ ^ G a Y.T.R.E...4X9X;X-X<X3 + .           YX",
"YXYX  p j k v ! ! ! ( J n.T.R./.R.Z 4X9X3X#.J.m.l *           YX",
"YXYXi H.~.m.g K { ,X[ Z R.R.Z.C.K.b ,X;X$.}._.G.S c .           ",
"YX* H.oX~.p f S.@.+.]./.^.C.N.m.M H *X<X|.oX[.dXMX;..           ",
"  i Q..Xm.i g S.W.^.^.Z.B.b.k m E 9.1XX.(.).ZXLXDXY             ",
"  f U.!.A s i j L.P.C.N.c.d q 3.7.eXfXO.C.h.FXIXlX$             ",
"  f M.d.l.t u p c.B.M.c.a 0 r 5.sXyX<.d N.g.MXhXr               ",
"  u V 5.8.4.m p h n.g - w x d  .eXI X O h C ;.&                 ",
"  O R 4.8.8.5.B d d r m H.M.D.S.-       . + .                   ",
"    9 <.6.7.tX7.2.3.a.{.XXQ.g.f.s                             YX",
"      U 4.iXgXiXsXl.s.oX Xx.AXMXe                           YXYX",
"      X 1.gXjXjXkXsXH.(.j.GXPXSX$                           YXYX",
"        @ U 6.fXjXl.m.Y.dXJXKXk.                        YXYXYXYX",
"YX          X : :.r k D.z.CXk.o                       YXYXYXYXYX",
"YXYX                * k N y X                 YXYXYXYXYXYXYXYXYX",
"YXYX                  . .                   YXYXYXYXYXYXYXYXYXYX",
"YXYXYX                                      YXYXYXYXYXYXYXYXYXYX",
"YXYXYXYXYX                                YXYXYXYXYXYXYXYXYXYXYX",
"YXYXYXYXYXYX                            YXYXYXYXYXYXYXYXYXYXYXYX"
};
