/* XPM */
static char * ripperX_xpm[] = {
"32 32 259 2",
"  	c None",
". 	c #020204",
"+ 	c #18325C",
"@ 	c #22427C",
"# 	c #223F7C",
"$ 	c #1D3564",
"% 	c #070C17",
"& 	c #101C3A",
"* 	c #1C366F",
"= 	c #1A336C",
"- 	c #1A326C",
"; 	c #182D66",
"> 	c #0A1027",
", 	c #0B1324",
"' 	c #315BAA",
") 	c #3462B4",
"! 	c #325FB4",
"~ 	c #3059AC",
"{ 	c #182B56",
"] 	c #0F1A37",
"^ 	c #274897",
"/ 	c #2A4EA4",
"( 	c #264AA4",
"_ 	c #2648A4",
": 	c #101D44",
"< 	c #080C17",
"[ 	c #284884",
"} 	c #3460B4",
"| 	c #325EB4",
"1 	c #325DB4",
"2 	c #203A74",
"3 	c #04050A",
"4 	c #080C1A",
"5 	c #234087",
"6 	c #203C84",
"7 	c #0A1024",
"8 	c #04060C",
"9 	c #1C3462",
"0 	c #325AB4",
"a 	c #27458A",
"b 	c #0A1021",
"c 	c #142552",
"d 	c #2A50A9",
"e 	c #2A4BA4",
"f 	c #244599",
"g 	c #101F42",
"h 	c #142444",
"i 	c #305BAE",
"j 	c #315AB4",
"k 	c #2950A1",
"l 	c #0F1C37",
"m 	c #050811",
"n 	c #2A52AC",
"o 	c #1C3571",
"p 	c #0A1224",
"q 	c #27498E",
"r 	c #315AB2",
"s 	c #2E58AC",
"t 	c #182D5A",
"u 	c #203F7E",
"v 	c #244497",
"w 	c #060A14",
"x 	c #203C74",
"y 	c #294FA2",
"z 	c #2C50A9",
"A 	c #2A51AA",
"B 	c #101E3E",
"C 	c #0D1727",
"D 	c #345F9F",
"E 	c #427ACC",
"F 	c #4176CC",
"G 	c #3666AF",
"H 	c #1E365E",
"I 	c #305997",
"J 	c #3D6EC4",
"K 	c #3A6EC1",
"L 	c #3A6CBC",
"M 	c #1A3056",
"N 	c #182D56",
"O 	c #3057AC",
"P 	c #2E5AB2",
"Q 	c #2E56AC",
"R 	c #2E53AC",
"S 	c #192F61",
"T 	c #04070E",
"U 	c #4176CA",
"V 	c #3E74C4",
"W 	c #396BB6",
"X 	c #3C70BF",
"Y 	c #3A6EC4",
"Z 	c #3A6CC1",
"` 	c #3A6ABC",
" .	c #101D36",
"..	c #0E1A2F",
"+.	c #2C509F",
"@.	c #2E59AC",
"#.	c #2E54AC",
"$.	c #2B52AC",
"%.	c #24438E",
"&.	c #0C152E",
"*.	c #14223A",
"=.	c #3A6AB2",
"-.	c #3E76CA",
";.	c #3E72C4",
">.	c #3E6FC4",
",.	c #3563AE",
"'.	c #0C1424",
").	c #284891",
"!.	c #274999",
"~.	c #102142",
"{.	c #182D4A",
"].	c #3F75C2",
"^.	c #4277CC",
"/.	c #3E75C4",
"(.	c #3B6FC4",
"_.	c #3A6DC2",
":.	c #3765B6",
"<.	c #1F3A69",
"[.	c #05080F",
"}.	c #182F5E",
"|.	c #203A7A",
"1.	c #030407",
"2.	c #1E395E",
"3.	c #4278CC",
"4.	c #3F76CC",
"5.	c #2E5491",
"6.	c #0A101E",
"7.	c #1F386A",
"8.	c #2C52AC",
"9.	c #0C152A",
"0.	c #060A11",
"a.	c #284A7A",
"b.	c #3F76C6",
"c.	c #3B6DBC",
"d.	c #1C375F",
"e.	c #152447",
"f.	c #2C54A1",
"g.	c #2A4FA6",
"h.	c #152C57",
"i.	c #0A121E",
"j.	c #3460A1",
"k.	c #4076CC",
"l.	c #3E76C6",
"m.	c #3868B2",
"n.	c #152642",
"o.	c #244586",
"p.	c #2E57AC",
"q.	c #2C54AC",
"r.	c #223F84",
"s.	c #3C6FBE",
"t.	c #3E76C7",
"u.	c #3E73C4",
"v.	c #3663AA",
"w.	c #0E182A",
"x.	c #1F366C",
"y.	c #305AAF",
"z.	c #2E55AC",
"A.	c #2A52A7",
"B.	c #2A4FA4",
"C.	c #24448E",
"D.	c #091021",
"E.	c #0E192C",
"F.	c #3E76C9",
"G.	c #325C9E",
"H.	c #0F1A34",
"I.	c #305AB1",
"J.	c #2D55AC",
"K.	c #2A50A7",
"L.	c #274599",
"M.	c #254577",
"N.	c #2B54A1",
"O.	c #2E5AB1",
"P.	c #234489",
"Q.	c #1E3C79",
"R.	c #2A50A4",
"S.	c #182D64",
"T.	c #284C7E",
"U.	c #1F3C6A",
"V.	c #1F3871",
"W.	c #284C99",
"X.	c #14254E",
"Y.	c #1E387E",
"Z.	c #080D1E",
"`.	c #345FA4",
" +	c #0F1F37",
".+	c #152647",
"++	c #2F54A7",
"@+	c #142652",
"#+	c #0D1A37",
"$+	c #254897",
"%+	c #274BA4",
"&+	c #2649A4",
"*+	c #234094",
"=+	c #0D1734",
"-+	c #3C70C4",
";+	c #0A1221",
">+	c #27478A",
",+	c #1B3269",
"'+	c #04070F",
")+	c #080F21",
"!+	c #203A81",
"~+	c #274AA4",
"{+	c #2646A1",
"]+	c #10204A",
"^+	c #121F37",
"/+	c #3461B1",
"(+	c #2F5AAE",
"_+	c #284B96",
":+	c #0D1831",
"<+	c #19306A",
"[+	c #2646A2",
"}+	c #26469C",
"|+	c #182E67",
"1+	c #040811",
"2+	c #152844",
"3+	c #3D71C4",
"4+	c #2A4E8A",
"5+	c #0F1B34",
"6+	c #325CB4",
"7+	c #2C52A4",
"8+	c #152851",
"9+	c #13244C",
"0+	c #24479C",
"a+	c #24449C",
"b+	c #1D3889",
"c+	c #070C1C",
"d+	c #223C6A",
"e+	c #3A6CBF",
"f+	c #305AB4",
"g+	c #2E5AAF",
"h+	c #203D81",
"i+	c #223F91",
"j+	c #22429C",
"k+	c #0C183C",
"l+	c #2F589E",
"m+	c #172749",
"n+	c #121E3C",
"o+	c #1F3C77",
"p+	c #060614",
"q+	c #203981",
"r+	c #25459C",
"s+	c #182F6F",
"t+	c #0E1A2C",
"u+	c #315DA6",
"v+	c #3A6DBC",
"w+	c #0D1729",
"x+	c #0B1429",
"y+	c #0E1E3C",
"z+	c #0C1734",
"A+	c #020614",
"B+	c #0D1634",
"C+	c #0A1634",
"D+	c #060E24",
"E+	c #0E162C",
"F+	c #31599F",
"G+	c #3560AE",
"H+	c #0F1C31",
"I+	c #12223C",
"J+	c #080F1C",
"                                                                ",
"                                                                ",
"                                                                ",
"                                . . . . . .         . . . .     ",
"                                + @ @ # $ %       & * = - ; >   ",
"                                , ' ) ! ~ {       ] ^ / ( _ :   ",
"                                < [ } | 1 2 3   4 5 / / ( 6 7   ",
"                                8 9 } | 0 a b . c d / e f g     ",
"                                  h i | j k l m n d / e o .     ",
"                                  p q | r s t u n d / v w       ",
"            . . . .   . . . . .   3 x | r s y z A / / B .       ",
"          C D E F G H I J K L M .   N O P s Q R A / S T         ",
"          C D E U V W X Y Z `  ..   ..+.@.Q #.$.A %.&.          ",
"          *.=.E -.V ;.>.Y Z ,.'.    . ).@.Q #.$.!.~.            ",
"          {.].^./.;.;.(._.:.<.[.    . }.Q Q #.$.|.w             ",
"        1.2.3.4./.5.6.. . . .       . 7.Q #.8.n 9..             ",
"        0.a.3.b.c.d.                e.f.Q #.8.g.h..             ",
"        i.j.k.l.m.n.              b o.p.Q q.n g.r..             ",
"        C s.t.u.v.w.            [.x.y.p.z.8.A.B.C.D.            ",
"        E.F.V ;.G..           . H.I.s Q J.n K./ L.g             ",
"      . H V ;.;.M..         . m N.O.s Q P.Q.R./ ( S.            ",
"      . T.V ;.>.U..         . V.r s Q W.w X./ / ( Y.Z.          ",
"      . `.;.;.(. +.         .+++@.Q Q @+. #+$+%+&+*+=+          ",
"      . ;.;.-+Y m .       ;+>+0 @.Q ,+'+  )+!+~+&+{+]+          ",
"    . ^+;.-+Y /+.       [.x.0 (+Q _+:+      <+( [+}+|+1+        ",
"    . 2+3+Y Y 4+.     . 5+6+y.p.7+8+        9+0+[+a+b+c+        ",
"    . d+Y Y e+M .     . f.f+g+p.h+w         9.i+}+a+j+k+.       ",
"    . l+Y Z ` m+.     n+0 I.s Q o+.         p+q+r+j+j+s+.       ",
"    t+u+v+` ` w+      . x+y+y+y+z+w           A+B+C+C+C+D+      ",
"    E+F+` ` G+'.        . . . . .               . . . . .       ",
"    . H+I+I+I+J+                                                ",
"      . . . . .                                                 "};
