/* XPM */
static char *sauerbraten[] = {
/* columns rows colors chars-per-pixel */
"32 32 43 1",
"  c #222222",
". c gray16",
"X c gray20",
"o c #393939",
"O c #663300",
"+ c #663333",
"@ c #666633",
"# c gray26",
"$ c #555555",
"% c gray40",
"& c #777777",
"* c #800000",
"= c #993300",
"- c #A50021",
"; c #993333",
": c #CC3300",
"> c #FF3300",
", c #CC3333",
"< c #FF3333",
"1 c #996633",
"2 c #CC6600",
"3 c #FF6600",
"4 c #CC6633",
"5 c #FF6633",
"6 c #996666",
"7 c #FF5050",
"8 c #FF6666",
"9 c #FF9933",
"0 c #999966",
"q c #CC9966",
"w c #FF9966",
"e c #FF7C80",
"r c #868686",
"t c #ADA990",
"y c #CC9999",
"u c #FF9999",
"i c #FFCC99",
"p c gray80",
"a c #FFCCCC",
"s c #EFD6C6",
"d c #E7E7D6",
"f c #F1F1F1",
"g c #FFFBF0",
/* pixels */
"XXXXXXXXXXXXX..++..XXXXXXXXXXXXX",
"XXXXXXXXXX...@quiy6X..XXXXXXXXXX",
"XXXXXXXX..X1wwwuiiii0#..XXXXXXXX",
"XXXXXX..+4wwwwwuiiiiiay%..XXXXXX",
"XXXX..;4wwwwwwwuiiiiiasasro..XXX",
"X..+1599wwwwwwwuiiiiiasassst$..X",
" +455599wwwwwwwwwiiiiasassddfp&.",
"=<555599wwwwww53:<8iiasassddfgi1",
"=::<5599www9535w8,:,8isassddi53=",
"=::::<5995535wiiss5::,7issu5333=",
"=::::::53359wwiiw5>:::::7533333=",
"=::::::>3<59wwiw53>:::::>333333=",
"=::::::>3::<wwiiaw5:::::>333333=",
"=::::::>3::::5uissw:::::>333333=",
"=::::::>3::::::7w558<:::>333333=",
"=::::::>3:::::::335ww5<:>333333=",
"=::::::>3:::::::335ww53:>333333=",
"=::::::>3:::::::3359533:>333333=",
"=::::::>3,::::::3333333:>333333=",
"=::::::5ise,::::33333555>333333=",
"=::::::,8adse,::335599553333333=",
"=:::::::::8isi8,59ww95333333333=",
"=:::::::::::7uiiwww533333333333=",
"=:::::::::::::7ww95333333333333=",
" =::::::::::::::33333333333333=.",
"...*::::::::::::333333333333=...",
"XXX..*::::::::::3333333332=..XXX",
"XXXXX. O::::::::33333332=..XXXXX",
"XXXXXXX. O::::::333332O..XXXXXXX",
"XXXXXXXXX..O::::3332O .XXXXXXXXX",
"XXXXXXXXXXX..O-:32O .XXXXXXXXXXX",
"XXXXXXXXXXXXX..OO..XXXXXXXXXXXXX"
};
