/* XPM */
static char * sear_icon_xpm[] = {
"32 32 144 2",
"  	c None",
". 	c #161202",
"+ 	c #5A4E02",
"@ 	c #9E8A02",
"# 	c #A28E02",
"$ 	c #5E5202",
"% 	c #2E2A02",
"& 	c #423602",
"* 	c #423A02",
"= 	c #3E3602",
"- 	c #766602",
"; 	c #E2C606",
"> 	c #F2D206",
", 	c #C2AA1E",
"' 	c #BEB26E",
") 	c #B2AA7A",
"! 	c #B6AE76",
"~ 	c #BAAE66",
"{ 	c #DABE06",
"] 	c #EECE06",
"^ 	c #DABE0A",
"/ 	c #CAAE02",
"( 	c #DEC206",
"_ 	c #BAAA32",
": 	c #E2E2E2",
"< 	c #EEEEEA",
"[ 	c #E6E6E6",
"} 	c #AEA676",
"| 	c #C6C292",
"1 	c #D6D6D6",
"2 	c #B2A646",
"3 	c #B6AE7E",
"4 	c #CECECE",
"5 	c #463A02",
"6 	c #EACA06",
"7 	c #C2B66A",
"8 	c #A68E02",
"9 	c #BAA202",
"0 	c #DEC20A",
"a 	c #BAAE4A",
"b 	c #D2D2D2",
"c 	c #B69E02",
"d 	c #CEB60E",
"e 	c #EEEAEA",
"f 	c #EAEAEA",
"g 	c #8A7602",
"h 	c #C2AE1A",
"i 	c #CACACA",
"j 	c #B2AA6A",
"k 	c #D2B606",
"l 	c #E6CA06",
"m 	c #CAC28E",
"n 	c #EEEEE6",
"o 	c #927E02",
"p 	c #625202",
"q 	c #C2BEA6",
"r 	c #EACE06",
"s 	c #F2EEE6",
"t 	c #F2EEE2",
"u 	c #F6D606",
"v 	c #7E6E02",
"w 	c #C6AE1A",
"x 	c #DADACE",
"y 	c #EEEEE2",
"z 	c #EAEAE2",
"A 	c #F2EED6",
"B 	c #BEAA26",
"C 	c #1A1602",
"D 	c #B6A63E",
"E 	c #C2B666",
"F 	c #EAEAD6",
"G 	c #F2EED2",
"H 	c #2A2602",
"I 	c #827202",
"J 	c #362E02",
"K 	c #EEEADA",
"L 	c #F2EEDA",
"M 	c #EEEACE",
"N 	c #F2F2EA",
"O 	c #BEB25E",
"P 	c #726202",
"Q 	c #2E2602",
"R 	c #C2AE1E",
"S 	c #F2EEDE",
"T 	c #F2F2EE",
"U 	c #EAE6E6",
"V 	c #DAD2A2",
"W 	c #CEB206",
"X 	c #CAC286",
"Y 	c #EEEEEE",
"Z 	c #F2F2DE",
"` 	c #EAEAE6",
" .	c #DAD6B6",
"..	c #322A02",
"+.	c #BAAA36",
"@.	c #BEB66E",
"#.	c #F2F2F2",
"$.	c #D6CEA6",
"%.	c #CAB202",
"&.	c #EED206",
"*.	c #C2AE22",
"=.	c #BAAE4E",
"-.	c #C6BE8E",
";.	c #EEEAD6",
">.	c #EAEADA",
",.	c #CECAB2",
"'.	c #CABE7E",
").	c #EEEAD2",
"!.	c #BAAA4A",
"~.	c #E2E2DE",
"{.	c #D6D2BA",
"].	c #BEAA32",
"^.	c #E6E6E2",
"/.	c #BAB26E",
"(.	c #D2CEB6",
"_.	c #161602",
":.	c #DEDEDE",
"<.	c #A28A02",
"[.	c #BEAA22",
"}.	c #C2BA8A",
"|.	c #8A7A02",
"1.	c #DADADA",
"2.	c #BEB26A",
"3.	c #4A3E02",
"4.	c #B6A646",
"5.	c #C6C6C6",
"6.	c #CAC6AE",
"7.	c #C2AA02",
"8.	c #463E02",
"9.	c #726602",
"0.	c #C2C2C2",
"a.	c #BEB686",
"b.	c #BAA632",
"c.	c #B6AA62",
"d.	c #A69202",
"e.	c #DEBE06",
"f.	c #CEB612",
"g.	c #AEA666",
"h.	c #AAA26E",
"i.	c #C6AA02",
"j.	c #CAB212",
"k.	c #B6AE66",
"l.	c #B6A64A",
"m.	c #564A02",
"                                                                ",
"                                                                ",
"                                                                ",
"                                                                ",
"                    . + @ # # @ @ # @ $ % & * =                 ",
"                  - ; > , ' ' ) ! ~ , { ] ^ / ( .               ",
"                @ ] _ : < [ ~ } ! | [ 1 2 3 4 > +               ",
"              5 6 7 : [ ' ( 6 8 9 6 0 a 1 b 4 , #               ",
"              c d e f a ] @ %     % g 6 h i i j k               ",
"              l m < n { o             p ; h 1 q ] =             ",
"              r n s t u v               $ 6 w x 9 *             ",
"              6 y z A B 6 - C             $ r D c &             ",
"              ; E z F G B > l # $ H         I g I J             ",
"              # d K L M F N O 8 { ] k # P Q .                   ",
"              5 ; R L A S T U y G V O _ ( ] W P .               ",
"                p ; d X s Y [ s S Z t ` `  .B > / ..            ",
"                  5 c r { +.@.#.s N s f z n F $.; %.Q           ",
"                      H P 8 ; &.*.=.-.s U F ;.>.,.{ g           ",
"            = * =           . + g 9 l > , '.).U : !.k           ",
"            ( 9 l P                 . $ 9 u O ~.` {.6           ",
"            ] U ].k ..                  . # ( : ^.[ ]           ",
"            ; /.(.{ c _.                  J ] :.:.[ r           ",
"            <.[.x }.> <.%                 |.0 i 1.}.6           ",
"            $ > :.1.2.{ W 3.            p ] 4.5.1 ].9           ",
"            . l }.~.^.6.7.r # 8.    C 9.6 h 0.i a.] P           ",
"              c b.:.1.b i c.7.] k d.; u b.4 1 3 { c             ",
"              9.e.1.R f.) b :.6.g.h.c.x 4 q _ &.c Q             ",
"              Q ; [.] i.6 j.b.k.g.h.k.l.[.] W P                 ",
"                m.+ m.C * P <.8 <.@ <.# |.+                     ",
"                                                                ",
"                                                                ",
"                                                                "};
