/* XPM */
static char *sixteen[] = {
/* columns rows colors chars-per-pixel */
"48 48 67 1",
"  c #242323",
". c #2B2A29",
"X c #302F2E",
"o c #343332",
"O c #3F3E3D",
"+ c #403F3E",
"@ c #40403E",
"# c #484846",
"$ c #4F4E4D",
"% c #555452",
"& c #5A5957",
"* c #5D5C5A",
"= c #61615E",
"- c #656462",
"; c #686764",
": c #696866",
"> c #6C6B69",
", c #706F6C",
"< c #72716E",
"1 c #757471",
"2 c #787774",
"3 c #7A7976",
"4 c #7D7C79",
"5 c #807E7B",
"6 c #82817D",
"7 c #858481",
"8 c #888783",
"9 c #8A8985",
"0 c #8D8D89",
"q c #908F8B",
"w c #91908D",
"e c #959491",
"r c #989693",
"t c #9A9995",
"y c #9E9C99",
"u c #A09E9B",
"i c #A3A29E",
"p c #A6A5A1",
"a c #A8A6A2",
"s c #ABA9A5",
"d c #AEACA8",
"f c #B0AEAA",
"g c #B3B2AE",
"h c #B7B5B1",
"j c #B8B7B2",
"k c #BAB9B4",
"l c #BFBEB9",
"z c #C0BEB9",
"x c #C3C2BD",
"c c #C6C4C0",
"v c #C8C6C2",
"b c #CCCAC6",
"n c #CECCC8",
"m c #D0CEC9",
"M c #D4D2CD",
"N c #D7D5D0",
"B c #D8D6D1",
"V c #DCDAD5",
"C c #DFDDD8",
"Z c #E0DED9",
"A c #E4E2DD",
"S c #E6E4E0",
"D c #E8E6E1",
"F c #EAE8E2",
"G c #EFEDE8",
"H c #F0EEE8",
"J c #F2F0EB",
/* pixels */
"MMMNMNMMMMMMNMMMMMMNMMMNMMMMNMMNMMNMMMMMNMMNMNMN",
"MMMMMMMMMMMMMMMMNMMMMMMMMMMMMMMMMNMMMNMNMMMMMMMM",
"MMMMMMMMmMMMMMMmMmMMmMMMMMMmmMMMmMMMMNMMNMMMNMMN",
"MMMMVVVVVVVZVVVVVVVVVVVZVVVVVVVVVNMMMMMMMMMNMMMM",
"MMmVHDFFAFFAFAFAAZAGAAAFGAGAAAFFZAmMMMMMMMMMNMMM",
"MMMVDnmMmmMMMMMmNxMVmNmMmMmmMMmMzAMNNMMMMMMMMMNM",
"MMMVDMMMMMMMNMMMBxVZMMMMMMMMNMMMxFmMMMMMVmMMMMNM",
"MMMVDMMMMMMMmMMMBxBZMMMmMMMmMMMMxAmNMmNmdVmMMMMM",
"MMMCDMMMVAmMZZMMBxMVmMMAVMAABMMMxAMmVNNm:aVmMMMM",
"MMMVDmMVy&Mv*5BMBxBZmMn=eB==xNMMxDmCu4949eiVMMMM",
"MMMVDMMMk#n20;aVBxBZMMN3<Bx>5AmMxAnC0raasfqpNMMM",
"MMmVDMMMG-m>x6tZBxMZMmAf1Js*xMMMxAmCqpffasd5bNMM",
"MMMVDmMVe <d#*nMBxVZmNx$oi.+gVMMxDmZ05eqps7zVmMN",
"MMMVDmMMxzzVxnNMBxMZMMMxxxxzxVMMxAmNjype20zVmMMM",
"MMMVFmMMBBVmNMMMBxBZmMMBVBNBMMMMxDmMVCZN>xVmMMMM",
"MMMCDMMMMMMMMMMMBxBVMMMMMMMMMMMmxAMMmmmmnNMNMNMN",
"MMMVANBBBVBBBVNNVxVZNBNVBBVNBVNNxAMMMNMMNMMMMNMM",
"NMnVAxxxxxxxxxxxxzMmxxxxxxxxxxxxlAmMMMMMMMMMMMMM",
"MMmVANVMNVNNVNNNNNAVNNMBVNNNNNVNZFmMMNMMMMMMNMNM",
"MMMMVZAxAZVZVZZVZZBZZNMAVZZVZVZVAGmNMMMMMMMMMMMM",
"NMMMMnMzZMnMnMnMmmMmMxbAnMmnmmMmVFmMMMMMMMMMMMMM",
"MMMMMMBxABMMMMMMmMMMNmnAmMMMMMMmZAmMMMMmNBMMMMNM",
"MMMMMMMxZNMMNZNMZZMMNxmAmNMVVMMVZFmMNVZM2vVMMMMM",
"MMNMMMBxZNMMnsnbiibMNnmAmMNkjNNaxGmNxsfi<qxVMMMM",
"NMMMMMMxAMmBj.ftX<nMMbnAmMV;#A5@iHnZ9408ua8bNMMN",
"MMMMMMMxANMnG6ss&,dBMbnAMMNm;Z+;6AmVqigfssa6nNMM",
"MMBxkBNxABMMm&5zi=6AMnnZnMBu+x=0%AmVqussdfeyMMMM",
"MMMMmMMxZMMBg=1g<6mMMbnAmMN6=ux;gHbZe283qreVMMMM",
"MMMMMMNxAMMMVAABAAMMNxMAnNMZAVNAADmNNmMx>uVMMMMN",
"MMMMMMMxAMMMMmmMnmMMNbnZMMMnmMMnVGmMMNNmyNMMMMMM",
"MMMMMMNxAMMMMMMMMMMMNbnAnMMMMMMMVAmMMMMMVMMMMMMM",
"MMMMMMMzAMmMMMMMMmMMVxbZnMMMMMMMVDmMMMMMmMMMMMNM",
"NMMMxxxxZxxxxxxxxxxxxxMMzxxxxxxxmFmMMNMMNMMMMMMM",
"MMMMAAAFAAAAAAAAAADADAFZAADDDADADVMMMMMMMMNMMNNM",
"MMMMMmmmMmmnnnBMMmmMMMmMnmmmMmMmmMMMMNNMNMMMMMMM",
"NMMMNMMMMZZVZVMNMMMMMMMNZVZVMMMMMMMMMMMMMMNMMMNM",
"MMMMMMMMBy9w6jVMNMMMMMNx8q0eMMMMMMMMNMNMMMNMNMNM",
"MMNMMMMMB6ti8iZnMMMNMMVd5iy3mMMMMNMMMMMMNMMMMMMM",
"NMMMNMMMB8sgwiZmMMMMMMZf0gd7MNMMMNMNMMMMMMNMMNMN",
"MMNMMMMmm6igwtNnMMMMMmNa9fs4xMMMMMMMNMNMNMMMMMMM",
"NMMNMMVd=0sai2>nMMMMMN3<issw=yVMMMMMNMNMMMMMMMMM",
"MMMMMMmVawdad0xBMMMMMNxqisdtyVMMMNMMMMMMMMNMMNMN",
"MMMMMMMMZi0d6zVMMMMMMMBv8setVMMMNMMNMMMMNMNMMMMM",
"NMMMMMMMMVi6xVmMMNMMMMMBn6tBMMMMMMMMNMNMMMMMNMNM",
"MNMMMNMMMMNnBMMMNMMMMMMMBnMMMMMMMMMNMMMMNMNMMMNM",
"MMMMMMMMMMMNMMMMMMMNMMMMMMMMMMMMNMMMMNNMMMMMMMMM",
"MMNMNMMMMMMMMMMMMMMMNMMMMMMMMMMNNMMMMMMMMMMMMNNM",
"MNMMMMMMMMMMMNMMNMMNMMMMNMMMNMMMMMMNMMNMNMNMMMMM"
};
