/* XPM */
static char * snappea_xpm[] = {
"32 32 12 1",
" 	c None",
".	c #000000",
"+	c #1A4C33",
"@	c #113322",
"#	c #339966",
"$	c #26734C",
"%	c #002F00",
"&	c #00BB00",
"*	c #0D551A",
"=	c #0D261A",
"-	c #005E00",
";	c #008C00",
"         ..                     ",
"         ...            ....    ",
"         . ..          .    .   ",
"         .  ........    .    .  ",
"         .   ...    .    .   .  ",
"  ...    .   .++@     .     .   ",
" .   .   .   +###$     .....    ",
".     .  .   +####$             ",
".     .  .   +###+#+            ",
".  . .       +####+$.           ",
".   .   .    +#+##+%&%          ",
"        .    +#%%$*&&&%         ",
"       .     =%&&%&&&&-         ",
"      .      -&&&&&&&&&.        ",
"     .       -&&&&&&&&&.        ",
"    ..   .   -&&&&&&&&&.        ",
"     .    .  -&&&&&&&&&.        ",
"     .    .  -&&&&&&&&&.        ",
"         .   -&&&&&&&&&.        ",
".      ..    -&&&&&&&&&.        ",
".            -&&&&&&&&&.        ",
".            -&&&&&&&&&.        ",
".            -&&&&&&&&&.        ",
".    .      .&&&&&&&&&;.        ",
" .  .       .&&&&&&&&&-         ",
"   .        .&&&&&&&&&-         ",
"            .&&&&&&&&;.         ",
"            .&&&&&&&&%          ",
"            -&&&&&&&%           ",
"           .&&&&&&&%            ",
"           .&&&&&-%             ",
"           .---%..              "};
