/* XPM */
static char * snes9express_xpm[] = {
"32 32 8 1",
" 	c None",
".	c #B5B6B5",
"+	c #ADAEAD",
"@	c #B5B2B5",
"#	c #D6D3D6",
"$	c #525152",
"%	c #A582C6",
"&	c #7B00AD",
"                                ",
"                                ",
"                                ",
"                                ",
"                                ",
"                                ",
"                                ",
"                                ",
"                                ",
"                                ",
"     .+++++++++++++++++++@.     ",
"   .+######################+    ",
"  ..#######++#+++##########@.   ",
"  +###$$###+#++#+###++%%++##+   ",
" ..###$$###########+++%%+++#..  ",
" @##$$$$$$#########+%%++&&+##@  ",
" @##$$$$$$###$##$##+%%++&&+##@  ",
" ..###$$####$##$###+++&&+++#..  ",
"  +###$$############++&&++##+   ",
"  ..#######################..   ",
"   .+.##.+++++++++++++.##.+.    ",
"     .@@.             .@@.      ",
"                                ",
"                                ",
"                                ",
"                                ",
"                                ",
"                                ",
"                                ",
"                                ",
"                                ",
"                                "};
