/* XPM */
static char * snowballz_xpm[] = {
"32 32 395 2",
"  	c None",
". 	c #967070",
"+ 	c #902B2B",
"@ 	c #A21212",
"# 	c #AC2E2E",
"$ 	c #AC7F7F",
"% 	c #884C4C",
"& 	c #950505",
"* 	c #BA0000",
"= 	c #D60000",
"- 	c #DE0000",
"; 	c #B14242",
"> 	c #997575",
", 	c #8A2727",
"' 	c #A00101",
") 	c #B90000",
"! 	c #CA0000",
"~ 	c #E80000",
"{ 	c #B42525",
"] 	c #552E2E",
"^ 	c #301818",
"/ 	c #401D1D",
"( 	c #651B1B",
"_ 	c #A81111",
": 	c #E30404",
"< 	c #E50000",
"[ 	c #C20707",
"} 	c #A89696",
"| 	c #888888",
"1 	c #7B7B7B",
"2 	c #464646",
"3 	c #8D8D8D",
"4 	c #626262",
"5 	c #343434",
"6 	c #413030",
"7 	c #881B1B",
"8 	c #D60404",
"9 	c #A86262",
"0 	c #B7B7B7",
"a 	c #DEDEDE",
"b 	c #E4E4E4",
"c 	c #DBDBDB",
"d 	c #F4F4F4",
"e 	c #545454",
"f 	c #3B3B3B",
"g 	c #373737",
"h 	c #3C2626",
"i 	c #992121",
"j 	c #A6A6A6",
"k 	c #C0C0C0",
"l 	c #E8E8E8",
"m 	c #CFCFCF",
"n 	c #B2B2B2",
"o 	c #F9F9F9",
"p 	c #616161",
"q 	c #424242",
"r 	c #3C3C3C",
"s 	c #303030",
"t 	c #664848",
"u 	c #A48080",
"v 	c #9D5C5C",
"w 	c #AC8686",
"x 	c #797979",
"y 	c #817666",
"z 	c #C09E51",
"A 	c #C4BFAE",
"B 	c #CACACA",
"C 	c #7F7F7F",
"D 	c #474747",
"E 	c #3A3A3A",
"F 	c #2F2F2F",
"G 	c #747474",
"H 	c #994A4A",
"I 	c #B80404",
"J 	c #D30A0A",
"K 	c #B16F6F",
"L 	c #5B5B5B",
"M 	c #50360C",
"N 	c #DFBF0E",
"O 	c #DDC91E",
"P 	c #6C6228",
"Q 	c #3E3E3E",
"R 	c #444444",
"S 	c #3F3F3F",
"T 	c #363636",
"U 	c #2B2B2B",
"V 	c #767676",
"W 	c #955454",
"X 	c #B70202",
"Y 	c #DF0000",
"Z 	c #F80000",
"` 	c #FD0000",
" .	c #C91E1E",
"..	c #8C8989",
"+.	c #808080",
"@.	c #757574",
"#.	c #6E6E6D",
"$.	c #4A4A4A",
"%.	c #1D1B18",
"&.	c #3D2C10",
"*.	c #9C7714",
"=.	c #645630",
"-.	c #333333",
";.	c #2C2C2C",
">.	c #9B9B9B",
",.	c #986969",
"'.	c #AA0606",
").	c #D30000",
"!.	c #EE0000",
"~.	c #FE0000",
"{.	c #FF0000",
"].	c #ED0404",
"^.	c #92706E",
"/.	c #8C8C8A",
"(.	c #8A8A87",
"_.	c #878884",
":.	c #404040",
"<.	c #1D1D1D",
"[.	c #252525",
"}.	c #2E2E2E",
"|.	c #393939",
"1.	c #323232",
"2.	c #986F6F",
"3.	c #9A0909",
"4.	c #C20000",
"5.	c #DB0000",
"6.	c #F20000",
"7.	c #FB0000",
"8.	c #C85958",
"9.	c #C0BFBC",
"0.	c #BEBEBB",
"a.	c #BCBDB9",
"b.	c #1E1E1E",
"c.	c #383838",
"d.	c #ABABAB",
"e.	c #957F7F",
"f.	c #6D0C0C",
"g.	c #8E0606",
"h.	c #AF0404",
"i.	c #D20202",
"j.	c #FA0000",
"k.	c #D81413",
"l.	c #DECFCC",
"m.	c #E2E3E0",
"n.	c #E2E2E0",
"o.	c #A7A7A7",
"p.	c #484848",
"q.	c #535353",
"r.	c #4B4B4B",
"s.	c #515151",
"t.	c #414141",
"u.	c #646363",
"v.	c #242121",
"w.	c #292727",
"x.	c #2E2A2A",
"y.	c #3C2B2B",
"z.	c #552828",
"A.	c #762222",
"B.	c #9F1616",
"C.	c #CD0909",
"D.	c #DE0101",
"E.	c #D77A78",
"F.	c #F8F8F5",
"G.	c #F9FAF6",
"H.	c #7E7E7E",
"I.	c #858585",
"J.	c #E3E3E3",
"K.	c #FFFFFF",
"L.	c #C9C9C9",
"M.	c #868686",
"N.	c #292929",
"O.	c #2A2A2A",
"P.	c #3D2626",
"Q.	c #A06C6C",
"R.	c #FEFDFD",
"S.	c #979797",
"T.	c #555555",
"U.	c #272727",
"V.	c #2D2D2D",
"W.	c #BABABA",
"X.	c #EEEEEE",
"Y.	c #ACACAC",
"Z.	c #222222",
"`.	c #AAAAAA",
" +	c #525252",
".+	c #757575",
"++	c #D0D0D0",
"@+	c #F8F8F8",
"#+	c #FBFBFB",
"$+	c #8A8A8A",
"%+	c #BCBCBC",
"&+	c #C6C6C6",
"*+	c #B8B8B8",
"=+	c #D7D7D7",
"-+	c #969696",
";+	c #313131",
">+	c #282828",
",+	c #9D9D9D",
"'+	c #FCFCFC",
")+	c #E6E6E6",
"!+	c #1A1A1A",
"~+	c #A5A5A5",
"{+	c #D4D4D4",
"]+	c #F2F2F2",
"^+	c #838383",
"/+	c #717171",
"(+	c #9A9A9A",
"_+	c #F6F6F6",
":+	c #FEFEFE",
"<+	c #636363",
"[+	c #202020",
"}+	c #181818",
"|+	c #2C271E",
"1+	c #B49442",
"2+	c #B6942A",
"3+	c #AA9235",
"4+	c #B2A88A",
"5+	c #ACABA9",
"6+	c #787878",
"7+	c #262626",
"8+	c #E0E0E0",
"9+	c #FAFAFA",
"0+	c #A9A9A9",
"a+	c #1C1C1C",
"b+	c #24201A",
"c+	c #C8A02A",
"d+	c #FED608",
"e+	c #FFFA0E",
"f+	c #F2DC1C",
"g+	c #544424",
"h+	c #EBECE9",
"i+	c #FDFDFC",
"j+	c #B2B2B1",
"k+	c #A8A8A8",
"l+	c #727272",
"m+	c #989898",
"n+	c #BFBFBF",
"o+	c #B3B3B3",
"p+	c #121212",
"q+	c #1D1C1C",
"r+	c #352914",
"s+	c #67520D",
"t+	c #9A890F",
"u+	c #A37A14",
"v+	c #32312E",
"w+	c #B0B0AD",
"x+	c #EAEAE6",
"y+	c #EEEFEA",
"z+	c #E5E5E3",
"A+	c #DADBD8",
"B+	c #C5C6C4",
"C+	c #ADADAC",
"D+	c #A4A4A4",
"E+	c #686868",
"F+	c #737373",
"G+	c #989897",
"H+	c #CFCFCE",
"I+	c #DADBD9",
"J+	c #E1E1E0",
"K+	c #E8E8E7",
"L+	c #F5F5F4",
"M+	c #171717",
"N+	c #1F1F1F",
"O+	c #242423",
"P+	c #2D2C2A",
"Q+	c #989996",
"R+	c #DFE0DB",
"S+	c #EAEBE8",
"T+	c #E1E1DE",
"U+	c #D6D6D3",
"V+	c #C9C9C6",
"W+	c #ABABA9",
"X+	c #9C9D9C",
"Y+	c #B5B5B3",
"Z+	c #C1C2BF",
"`+	c #CFCFCC",
" @	c #D3D3D0",
".@	c #D4D5D2",
"+@	c #D2D3D0",
"@@	c #D4D4D3",
"#@	c #888988",
"$@	c #333332",
"%@	c #1B1B1B",
"&@	c #212121",
"*@	c #555554",
"=@	c #626261",
"-@	c #666665",
";@	c #C3C3C0",
">@	c #D2D2D0",
",@	c #C0C0BE",
"'@	c #A9AAA7",
")@	c #A0A0A0",
"!@	c #BEBEBE",
"~@	c #CCCCCA",
"{@	c #D8D8D6",
"]@	c #E0E1DE",
"^@	c #E7E8E5",
"/@	c #ECECEA",
"(@	c #F0F0ED",
"_@	c #F2F2EF",
":@	c #F2F3F0",
"<@	c #F0F1EE",
"[@	c #EBEBE8",
"}@	c #E2E2DF",
"|@	c #D6D6D4",
"1@	c #9B9C99",
"2@	c #7B7B7A",
"3@	c #6C6C6B",
"4@	c #676766",
"5@	c #6A6A69",
"6@	c #A6A7A5",
"7@	c #C0C1BE",
"8@	c #D0D0CD",
"9@	c #DADAD7",
"0@	c #E0E0DD",
"a@	c #9D9D9B",
"b@	c #80807E",
"c@	c #8E8E8E",
"d@	c #AFB0AE",
"e@	c #C4C4C4",
"f@	c #DFE0DE",
"g@	c #EBEBEA",
"h@	c #F4F4F2",
"i@	c #FAFAF9",
"j@	c #FEFEFD",
"k@	c #FEFFFE",
"l@	c #FDFDFB",
"m@	c #F8F8F6",
"n@	c #F1F2EE",
"o@	c #EAEBE7",
"p@	c #E4E5E1",
"q@	c #E0E0DC",
"r@	c #DCDDD9",
"s@	c #DADBD7",
"t@	c #DBDCD8",
"u@	c #DEDEDA",
"v@	c #E2E2DE",
"w@	c #E8E9E5",
"x@	c #F0F0EC",
"y@	c #F5F6F1",
"z@	c #F7F8F3",
"A@	c #727270",
"B@	c #878786",
"C@	c #A7A7A6",
"D@	c #BDBEBC",
"E@	c #CECECD",
"F@	c #DBDBDA",
"G@	c #E7E7E6",
"H@	c #FFFFFE",
"I@	c #FDFDFA",
"J@	c #F9FAF5",
"K@	c #F3F3EF",
"L@	c #F1F2ED",
"M@	c #EFF0EC",
"N@	c #EEF0EB",
"O@	c #EEEFEB",
"P@	c #F0F1EC",
"Q@	c #F4F5F0",
"R@	c #FBFCF7",
"S@	c #FEFEFB",
"T@	c #FEFFFD",
"U@	c #7D7D7B",
"V@	c #9A9A98",
"W@	c #B0B0AE",
"X@	c #C1C1BF",
"Y@	c #CFCFCD",
"Z@	c #E7E7E5",
"`@	c #FEFEFC",
" #	c #FCFDFA",
".#	c #FCFCF8",
"+#	c #FAFBF6",
"@#	c #FAFAF6",
"##	c #FAFBF7",
"$#	c #FDFEFB",
"%#	c #8A8B89",
"&#	c #A1A19F",
"*#	c #B2B2B0",
"=#	c #C0C0BD",
"-#	c #CCCCC9",
";#	c #D6D7D4",
">#	c #E3E3E0",
",#	c #8F8F8D",
"'#	c #A1A29F",
")#	c #B1B1AE",
"!#	c #BDBEBB",
"~#	c #C8C9C6",
"{#	c #D4D4D0",
"]#	c #90908D",
"^#	c #A0A19E",
"/#	c #AFAFAC",
"(#	c #BCBCB8",
"_#	c #C7C8C4",
":#	c #D4D5D1",
"<#	c #E4E4E0",
"[#	c #F4F4F0",
"                                                                ",
"                                                                ",
"                                                                ",
"                      . + @ # $                                 ",
"                    % & * = - ;                                 ",
"                > , ' ) ! - ~ {                                 ",
"                ] ^ / ( _ : < [ }                               ",
"              | 1 2 3 4 5 6 7 8 9                               ",
"              0 a b c d e f g h i                               ",
"            j k l m n o p q r s t               u v w           ",
"            x y z A B C D q E F G             H I = J K         ",
"            L M N O P Q R S T U V           W X Y Z `  ...+.@.#.",
"            $.%.&.*.=.q q r -.;.>.        ,.'.).!.~.{.].^./.(._.",
"            :.<.[.}.|.q :.E 1.2         2.3.4.5.6.~.{.7.8.9.0.a.",
"            r b.[.}.c.q S r T Q d.    e.f.g.h.i.!.j.~.j.k.l.m.n.",
"          o.p.q.r.2 s.r.2 t.E s $.j   u.v.w.x.y.z.A.B.C.D.E.F.G.",
"        H.f I.J.K.K.K.K.K.L.R E 5 t.M.}.N.O.s T r :.S c.P.Q.R.K.",
"    S.T.U.V.W.X.K.K.K.K.K.K.Y.2 :.g U Z.:.G D r p.r.q r -.`.K.K.",
"     +g c..+++@+K.K.K.K.K.K.#+$+R q ;.b.%+&+c *+=+J.-+r s I.K.K.",
"    ;+>+g ,+c '+K.K.K.K.K.K.K.)+E f U !+H.~+J.l | {+]+p.O.-+K.K.",
"      ^+/+(+m _+K.K.K.K.K.K.K.:+<+;.[+}+|+1+2+3+4+5+6+s 7+W.K.K.",
"        S.$+*+8+9+K.K.K.K.K.K.K.0+a+}+}+b+c+d+e+f+g+;.U c.h+i+:+",
"j+d.0+  k+l+m+n+J.'+K.K.K.K.K.K.o+}+p+}+q+r+s+t+u+v+}.N.s w+x+y+",
"z+A+B+C+D+E+F+G+*+H+I+J+K+L+i+:+-+M+p+}+a+a+N+O+P+}.;.>+>+F Q+R+",
"S+T+U+V+W++.X+Y+Z+V+`+ @.@+@+@@@#@$@a+!+%@%@&@>+;.F 1.r *@=@-@;@",
">@,@'@)@d.!@~@{@]@^@/@(@_@:@<@[@}@|@0.1@2@3@4@5@@./.6@7@8@9@0@T+",
"a@b@c@d@e@@@f@g@h@i@j@k@K.K.K.:+l@m@n@o@p@q@r@s@s@t@u@v@w@x@y@z@",
"A@B@C@D@E@F@G@h@i+K.K.K.K.K.K.K.K.K.H@I@J@y@K@L@M@N@O@P@Q@R@S@T@",
"U@V@W@X@Y@A+Z@h@j@K.K.K.K.K.K.K.K.K.K.K.H@`@ #.#R@+#@###$#H@K.K.",
"%#&#*#=#-#;#>#_@j@K.K.K.K.K.K.K.K.K.K.K.K.K.K.K.H@H@H@K.K.K.K.K.",
",#'#)#!#~#{#v@_@j@K.K.K.K.K.K.K.K.K.K.K.K.K.K.K.K.K.K.K.K.K.K.K.",
"]#^#/#(#_#:#<#[#:+K.K.K.K.K.K.K.K.K.K.K.K.K.K.K.K.K.K.K.K.K.K.K."};
