/* XPM */
static char * soffaaaa_xpm[] = {
"32 32 301 2",
"  	c None",
". 	c #383846",
"+ 	c #363746",
"@ 	c #373846",
"# 	c #7E5A48",
"$ 	c #CD6A36",
"% 	c #BF6436",
"& 	c #5A4444",
"* 	c #744D40",
"= 	c #F3722C",
"- 	c #F2712C",
"; 	c #F2702B",
"> 	c #E76F2F",
", 	c #433C46",
"' 	c #BC6236",
") 	c #7B4E3F",
"! 	c #4C4246",
"~ 	c #965A3C",
"{ 	c #98593B",
"] 	c #4F4044",
"^ 	c #393947",
"/ 	c #3A3A47",
"( 	c #BE6336",
"_ 	c #F3742E",
": 	c #7C5544",
"< 	c #504245",
"[ 	c #E77130",
"} 	c #F2712B",
"| 	c #EA702E",
"1 	c #524244",
"2 	c #7A4F40",
"3 	c #E87130",
"4 	c #ED7631",
"5 	c #95583C",
"6 	c #7E5040",
"7 	c #F3712B",
"8 	c #E8702F",
"9 	c #453D46",
"0 	c #A95D39",
"a 	c #A55B39",
"b 	c #493F46",
"c 	c #EF712D",
"d 	c #F2702C",
"e 	c #F57730",
"f 	c #6C4E44",
"g 	c #8D553D",
"h 	c #E46E2E",
"i 	c #C96A35",
"j 	c #5E4844",
"k 	c #C26535",
"l 	c #B76136",
"m 	c #6F4B41",
"n 	c #9F5839",
"o 	c #A65B39",
"p 	c #433D47",
"q 	c #9B583B",
"r 	c #F57D36",
"s 	c #88523D",
"t 	c #564445",
"u 	c #8F553C",
"v 	c #A95D3A",
"w 	c #413C46",
"x 	c #554345",
"y 	c #EF722D",
"z 	c #F4722B",
"A 	c #F4742E",
"B 	c #B7693D",
"C 	c #3A3946",
"D 	c #3E3B46",
"E 	c #514245",
"F 	c #AD5F39",
"G 	c #EA712F",
"H 	c #463D46",
"I 	c #AB5E3A",
"J 	c #393846",
"K 	c #BE6D3E",
"L 	c #4F4246",
"M 	c #594645",
"N 	c #524647",
"O 	c #F6752C",
"P 	c #D07239",
"Q 	c #443D46",
"R 	c #6E4C42",
"S 	c #815340",
"T 	c #9D5B3D",
"U 	c #6B4A42",
"V 	c #363646",
"W 	c #956544",
"X 	c #785949",
"Y 	c #BB6337",
"Z 	c #A05A39",
"` 	c #BD6438",
" .	c #584645",
"..	c #A9633B",
"+.	c #E07D3A",
"@.	c #F67B2F",
"#.	c #DD7333",
"$.	c #A5633B",
"%.	c #504445",
"&.	c #634D45",
"*.	c #AA7148",
"=.	c #554B46",
"-.	c #7F6242",
";.	c #5D4844",
">.	c #CE6934",
",.	c #F1702B",
"'.	c #C76534",
").	c #975D3D",
"!.	c #FE7B2C",
"~.	c #FA752C",
"{.	c #F8732C",
"].	c #F7732C",
"^.	c #F8722C",
"/.	c #FB762C",
"(.	c #F6792E",
"_.	c #D47A3C",
":.	c #3D3A47",
"<.	c #855A40",
"[.	c #F88D31",
"}.	c #F8782D",
"|.	c #F7782C",
"1.	c #9B5C3C",
"2.	c #9C593B",
"3.	c #D67038",
"4.	c #AE6740",
"5.	c #644D47",
"6.	c #6A4D43",
"7.	c #F8782E",
"8.	c #F3702B",
"9.	c #F16E2A",
"0.	c #F06D2A",
"a.	c #F16D2B",
"b.	c #F26E2B",
"c.	c #F8732B",
"d.	c #FC792D",
"e.	c #7E5440",
"f.	c #403B46",
"g.	c #F0732E",
"h.	c #F4722C",
"i.	c #F4712C",
"j.	c #F4732C",
"k.	c #3F3B46",
"l.	c #B96439",
"m.	c #F17430",
"n.	c #CF6B36",
"o.	c #493F45",
"p.	c #433E47",
"q.	c #8D5B42",
"r.	c #BA7042",
"s.	c #895841",
"t.	c #DE7334",
"u.	c #F26F2B",
"v.	c #F06C2A",
"w.	c #F16D2A",
"x.	c #F16E2B",
"y.	c #F7722B",
"z.	c #F3772F",
"A.	c #373746",
"B.	c #5D4644",
"C.	c #F6722B",
"D.	c #F3712C",
"E.	c #F4722D",
"F.	c #6C4A42",
"G.	c #3B3A47",
"H.	c #694E46",
"I.	c #C26D3A",
"J.	c #F5732C",
"K.	c #F8742C",
"L.	c #AD623A",
"M.	c #945C3F",
"N.	c #BD7242",
"O.	c #B26C41",
"P.	c #E9702F",
"Q.	c #FC974A",
"R.	c #FEB76C",
"S.	c #F37630",
"T.	c #473E46",
"U.	c #91573D",
"V.	c #F06D2B",
"W.	c #EF6C2A",
"X.	c #F06B2A",
"Y.	c #E87635",
"Z.	c #5F4C47",
"`.	c #715043",
" +	c #EE7D36",
".+	c #FEB76E",
"++	c #F8C588",
"@+	c #815743",
"#+	c #373847",
"$+	c #EF6A2A",
"%+	c #ED9050",
"&+	c #423F48",
"*+	c #64544C",
"=+	c #454148",
"-+	c #A2613C",
";+	c #F07F34",
">+	c #D57F3C",
",+	c #594944",
"'+	c #8D5940",
")+	c #EC8744",
"!+	c #6A4B42",
"~+	c #FD7A2E",
"{+	c #FA762D",
"]+	c #FC772D",
"^+	c #E37733",
"/+	c #986140",
"(+	c #C4743F",
"_+	c #FA7D34",
":+	c #F3712D",
"<+	c #D17940",
"[+	c #353746",
"}+	c #6A5243",
"|+	c #B2703B",
"1+	c #A67342",
"2+	c #4F4645",
"3+	c #865641",
"4+	c #F67730",
"5+	c #F5742E",
"6+	c #F6742C",
"7+	c #F9762C",
"8+	c #6A5048",
"9+	c #363846",
"0+	c #D8753A",
"a+	c #F87A33",
"b+	c #FA7D36",
"c+	c #F87B34",
"d+	c #F87C35",
"e+	c #F87A34",
"f+	c #F77B35",
"g+	c #F87E37",
"h+	c #FA853B",
"i+	c #FD9345",
"j+	c #D1894A",
"k+	c #B77240",
"l+	c #94623E",
"m+	c #FD8730",
"n+	c #FF8630",
"o+	c #FFB25D",
"p+	c #EEC27D",
"q+	c #4B4245",
"r+	c #584646",
"s+	c #FD883C",
"t+	c #F6752E",
"u+	c #FA7E34",
"v+	c #F67B32",
"w+	c #6A5248",
"x+	c #F67F35",
"y+	c #EF6825",
"z+	c #EE6623",
"A+	c #F87832",
"B+	c #FC833A",
"C+	c #F16A26",
"D+	c #FB8339",
"E+	c #FA8338",
"F+	c #EB8F48",
"G+	c #433E48",
"H+	c #413E48",
"I+	c #D57A39",
"J+	c #FF832F",
"K+	c #FE8332",
"L+	c #975C3C",
"M+	c #865D47",
"N+	c #F48E43",
"O+	c #F99043",
"P+	c #885E47",
"Q+	c #88634A",
"R+	c #FA8238",
"S+	c #F26E28",
"T+	c #FA7F36",
"U+	c #FC8D40",
"V+	c #F6994B",
"W+	c #67534A",
"X+	c #BA7140",
"Y+	c #FC8B3C",
"Z+	c #FFA550",
"`+	c #FFA953",
" @	c #9F6E4A",
".@	c #3D3C48",
"+@	c #403E49",
"@@	c #685349",
"#@	c #D88A4B",
"$@	c #FF9B4A",
"%@	c #FF9A4A",
"&@	c #FF9C4A",
"*@	c #FF9F4C",
"=@	c #CD8B4E",
"-@	c #594C49",
";@	c #65574A",
">@	c #FAAE51",
",@	c #FFC466",
"'@	c #FFAC57",
")@	c #F9A856",
"!@	c #584A49",
"~@	c #554848",
"{@	c #775B49",
"]@	c #775D4A",
"^@	c #524748",
"/@	c #66614F",
"(@	c #B99056",
"_@	c #B88754",
":@	c #61514A",
". . . . . . . . . . . . . . . . . . . . . . . . . . . . . . . . ",
". . . . . . . . . . . . . . . . . . . . . . . . . . . . . . . . ",
". . . . . . . . . . . . . . . . + @ . . . . . . . . . . . . . . ",
". . . . . . . . . . . . . . @ # $ % & . . . . . . . . . . . . . ",
". . . . . . . . . . . . . . * = - ; > , . . . . . . . . . . . . ",
". . . . . . . . . . . . . @ ' - ; ; ; ) . . . ! ~ { ] . . . . . ",
". . . . . . . . . ^ / . . @ ( ; ; ; _ : . . < [ } } | 1 . . . . ",
". . . . . . . . 2 3 4 5 @ . 6 7 ; ; 8 9 . . 0 } ; ; } a . . . . ",
". . . . . . . b c d ; e f . . g h i j . . @ k } ; ; ; l . . . . ",
". . . . . . . m - ; ; ; n . . . o p . . . . q } ; - r s . . . . ",
". . . . . . . t = d ; ; u . . . v w . . . . x y z A B C . . . . ",
". . D E . . . @ F 7 ; G H . . . I D . . . J K L M N @ . . . . . ",
". & [ O P Q . . . R S T U . . V I / . . . W X . . . . . . . . . ",
"@ Y d d ; Z . . . . . C `  ...+.@.#.$.%.&.*.@ . . . . =.-.;.@ . ",
"+ >.d ,.,.'.+ . . . . . ).!.~.{.].^./.(._.:.. . . . <.[.}.|.1.@ ",
". 2.- d ; 3.4.5.@ . . 6.7.8.9.0.0.a.b.c.d.e.. . . f.g.h.i.7 j.] ",
". k.l.m.n.o.p.q.r.s.p t.u.a.0.v.v.w.a.x.y.z.o.. A.B.C.D.h.E.h.F.",
". . @ G.@ . . . . H.I.J.x.0.v.v.v.v.v.w.b.K.L.M.N.O.P.h.Q.R.S.T.",
". . . . . . . . . . U.u.V.0.W.X.X.v.v.w.b.8.Y.Z.J . `. +.+++@+. ",
". . . . . @ #+A.. . 1.u.x.v.W.$+$+X.v.v.x.b.%+@ . . . &+*+=+. . ",
". . . . . -+;+>+,+. '+u.x.v.W.v.X.X.v.0.w.b.)+@ . . . . . . . . ",
". . . . !+~+{+]+^+/+(+_+:+0.v.v.v.v.v.w.w.u.<+[+@ }+|+1+2+. . . ",
". . . . 3+4+5+6+7+8+9+0+a+b+c+d+e+f+f+g+h+i+j+k+l+m+n+o+p+q+. . ",
". . . . r+s+t+u+v+Q . w+x+y+z+E.A+B+C+D+E+F+G+H+I+n+J+J+K+L+. . ",
". . . . @ M+N+O+P+. . @ Q+i+R+4+S+T+v+U+V+W+. . X+Y+Z+`+`+ @. . ",
". . . . . . .@+@. . . . @ @@#@$@%@&@*@=@-@. . . ;@>@,@'@)@!@. . ",
". . . . . . . . . . . . . . @ ~@{@]@^@A.. . . . . /@(@_@:@. . . ",
". . . . . . . . . . . . . . . . . . . . . . . . . . . . . . . . ",
". . . . . . . . . . . . . . . . . . . . . . . . . . . . . . . . ",
". . . . . . . . . . . . . . . . . . . . . . . . . . . . . . . . ",
". . . . . . . . . . . . . . . . . . . . . . . . . . . . . . . . ",
". . . . . . . . . . . . . . . . . . . . . . . . . . . . . . . . "};
