/* XPM */
static char *solo[] = {
/* columns rows colors chars-per-pixel */
"48 48 104 2",
"   c black",
".  c gray8",
"X  c #1C1C1B",
"o  c #20201F",
"O  c #282726",
"+  c #2D2C2B",
"@  c #302F2E",
"#  c #31302F",
"$  c #353533",
"%  c #3C3B3A",
"&  c #403F3E",
"*  c #41403F",
"=  c #484745",
"-  c #4B4B49",
";  c #504F4E",
":  c #585755",
">  c #595856",
",  c #5C5B59",
"<  c #656562",
"1  c #696865",
"2  c #6B6B68",
"3  c #72716E",
"4  c #777673",
"5  c #7D7C79",
"6  c #0F890E",
"7  c #178816",
"8  c #1A8919",
"9  c #259024",
"0  c #2D942C",
"q  c #349632",
"w  c #369834",
"e  c #389837",
"r  c #3E9B3C",
"t  c #419C3F",
"y  c #449D42",
"u  c #489F45",
"i  c #4DA14B",
"p  c #50A24D",
"a  c #59A656",
"s  c #5CA759",
"d  c #5DA85A",
"f  c #62A75F",
"g  c #64AA61",
"h  c #70AE6D",
"j  c #72B06E",
"k  c #7EB47A",
"l  c #817F7D",
"z  c #83817E",
"x  c #83B77F",
"c  c #878582",
"v  c #888683",
"b  c #8B8A87",
"n  c #8D8C89",
"m  c #969592",
"M  c #989693",
"N  c #9A9996",
"B  c #9F9E9A",
"V  c #86B882",
"C  c #8DB989",
"Z  c #92BC8E",
"A  c #A1A09C",
"S  c #A6A4A0",
"D  c #A9A7A3",
"F  c #ABA9A5",
"G  c #AFADA9",
"H  c #B1AFAB",
"J  c #B4B2AE",
"K  c #B7B5B1",
"L  c #BCBAB6",
"P  c #9EC199",
"I  c #A3C39D",
"U  c #ABC7A6",
"Y  c #AEC7A9",
"T  c #AEC8A9",
"R  c #B6CBB0",
"E  c #BBCDB5",
"W  c #BECEB8",
"Q  c #C0BEB9",
"!  c #C2C1BC",
"~  c #C3D0BD",
"^  c #C6C4C0",
"/  c #CBC9C5",
"(  c #CECDC8",
")  c #C7D1C0",
"_  c #CAD2C4",
"`  c #D0CECA",
"'  c #D4D3CD",
"]  c #D6D5D0",
"[  c #D8D6D1",
"{  c #DBD9D4",
"}  c #DFDCD8",
"|  c #E2DCDB",
" . c #E7DEE0",
".. c #E9DEE1",
"X. c #E5E3DE",
"o. c #E7E5E0",
"O. c #E9E6E2",
"+. c #EBE9E3",
"@. c #F0EEE9",
"#. c #F9E5F1",
"$. c #FFE9FC",
"%. c #F4F2EC",
"&. c #F8F6F0",
"*. c #FFFDF7",
/* pixels */
"                                                                                                ",
"                                                                                                ",
"                                                                                                ",
"        X X X X X X X X X X X X . . X X X X X X X X X X X X . . X X X X X X X X X X X X         ",
"      X { { { { { { { } { { { O.G M O.[ } { { { } { { { [ O.M F o.[ } } { { { } { { { { X       ",
"      X { { { { { { { { { { { X.F M O.{ { { } { { { { { [ +.M G o.{ } [ } { { { { { { } X       ",
"      X { { { { { { { { { { [ X.F M O.] { { { [ [ [ { { ] O.M F X.[ { [ [ [ { [ { { [ [ X       ",
"      X { { { { { { {  .{ { { X.F M O.[ { { } X.X.X.} { [ O.M F X.[ { } { | | | | [ } { X       ",
"      X { { { { { | W 9 k ..] X.F M O.[ { { ` : + , ] { [ O.M F X.{ { { X.P r y ~ } { { X       ",
"      X { { { { { | y 9 g O.] ..F M O.[ { | / c W % z +.] O.M F X.{ { | ~ 0 V Z ) } { { X       ",
"      X { { { [ ..k g P d #.' X.F M O.{ { { [ #.} + N O.] O.M F X.{ [ ..I 6 t q U | { { X       ",
"      X { { { { [ 8 h a 0 ~ { X.F M ..[ { [  .^ % l +.[ [ O.M F X.[ [ ..I w $.C y O.{ } X       ",
"      X { { { { [ j d q 7 T | X.F M O.[ { } ( . X 2 G X.] O.M F o.[ { } ' u g w k  .[ { X       ",
"      X { } { { { ..#.~ T O.] X.F M O.[ { } ( h z < J | ] O.M F X.{ } [ | ~ h Z } { { { X       ",
"      X { { [ { { ] ' } | ] [ X.F m O.] { [ { O.+.@.| [ ] O.m D X.[ [ { [ { O...[ [ { [ X       ",
"      X X.o.X.X.X.X.X.X.X...X.@.K A @. .X.X.X.} X.X.X.o.| @.B K @.X.X.o.O.| X.X.X...o.o.X       ",
"      . F G F F F F F F G F D K c 4 K D F F F F F F F F D K 4 c J F F F F F F F F F F F .       ",
"      . m M m m M m m m m m m B 4 1 A m M m M M M M M M M A 1 4 B M M M M M M M M M M M .       ",
"      X +.+.O.O.+.O.+.O.+.X.X.%.K A &.X.o.+.o.+.O.O.+.O.X.&.A K %.X.+.X.X.+.X.+.+.X.+.O.X       ",
"      X [ ] [ [ [ [ ] ] [ { ] X.D m X.] [ { [ [ [ [ [ [ ] X.M D X.' { { { ] { ] { ] { ] X       ",
"      X { } { { { { } } { { { X.D M O.[ { { | { { { } { [ O.M F X.{ { { { { { { { { } { X       ",
"      X { { { { { ] ( ( ] { [ X.F M O.[ { { { { } { { { [ o.M F X.[ { { { { { { { { { { X       ",
"      X { { { { ] + $ + 5 X.] X.F M O.[ { } { { { { { { [ O.M F +.{ { { } { { { { { { { X       ",
"      X { { { { ] O b D { } [ X.F M O.[ { { { { { { { { [ O.M F X.{ } { { { { { { { { { X       ",
"      X { } { { ] % % + < | { X.F m X.{ } { { { { } { { { O.m F X.{ { { { { { { } { { { X       ",
"      X { { { { [ / *.] o ( } X.F m +.[ { { { } { { { } ] O.M F X.{ { { { { { { { [ { } X       ",
"      X { { { { [ - % $ , X.] X.F M +.[ { { { { { { { { [ O.M F X.{ } { } { { } { { { { X       ",
"      X { { { { } ! M S } } ] X.F M o.{ { { { { { } { { [ +.M F X.{ { { { { { { { [ } } X       ",
"      X { [ [ [ [ { o.X.[ [ ] X.D m X.] [ [ [ [ [ [ [ [ ] X.M D X.' [ [ [ [ { ] [ [ [ [ X       ",
"      X O.+.O.o.O.O.o.o.O.O.X.%.K A &.X.O.+.+.o.O.+.o.+.X.&.B K %.X.O.O.O.+.X.+.O.O.+.O.X       ",
"      . M m m M M M M M m M m B 4 1 A m M M M M m M m M M A 1 4 B M M M M M M M M M M M .       ",
"      . F G F F F F F F F F D K c 4 K D F F F F F F G D D K 4 c J F F F F F F F F F F F .       ",
"      o X.X.X.X.X.o.X.X.X.X.X.%.K N &.X.X.X.X.X.X.X.X.O.| %.A K %.X.X.X.X.o.X.X.O.X.X.X.X       ",
"      X { { [ { { [ ] ] [ { ] X.F m X.] { { { [ [ [ [ { [ o.M D X.] [ [ [ [ [ [ [ [ { [ X       ",
"      X { { { { { | X.X.X.{ [ X.F m O.[ { { { | | | { { [ O.M F X.[ } { { { X.} } [ } { X       ",
"      X { { { { { K J J L [ { X.F m O.[ { { { _ T E | { [ +.M F X.[ { { } [ K ' } [ { { X       ",
"      X { { { { [ = $ + . ' { X.F M +.[ { } _ r i w d | [ o.M F O.[ { [ X.,   n +.[ { { X       ",
"      X { { { { { | &.v ; +.[ X.F M +.[ { { { U V i p  .[ +.M F X.{ { { ] ' > 5 +.' } { X       ",
"      X { { { { { { { + F X.[ X.F m X.{ { ] | _ s 0 a | ] o.M F X.[ } { [ %., 5 +.[ { { X       ",
"      X } { { { [ +.n * o.[ { X.F m +.] { } ' ~ $.Y 0 | [ o.M F O.[ { { ' &., z %.[ } } X       ",
"      X { { { { { | % N O.[ { X.F M O.[ { } _ r 0 9 C X.] O.M F X.[ { [ | : . . 3 O.[ { X       ",
"      X { { { { { ] ^ { { { [ X.D M O.[ { { { _ R _ | [ [ O.m F X.[ { [ { L L L W } { { X       ",
"      X { { { { { { X.{ { { { X.G M O.[ { } { }  .| [ } [ O.M F O.[ [ } { X.| X.| [ { { X       ",
"      X { { { { { } [ [ } { { X.F M O.{ { { { { [ { { } [ O.M G X.{ } { { [ [ { { { { { X       ",
"        X X X X X X X X X X X X . . X X X X X X X X X X X X . . X X X X X X X X X X X X         ",
"                                                                                                ",
"                                                                                                ",
"                                                                                                "
};
