/* XPM */
static char * spe_xpm[] = {
"32 32 403 2",
"  	c None",
". 	c #40731C",
"+ 	c #579927",
"@ 	c #6AAC3A",
"# 	c #74B147",
"$ 	c #75AD4C",
"% 	c #537E34",
"& 	c #4B8D1D",
"* 	c #51A118",
"= 	c #51A712",
"- 	c #50AA10",
"; 	c #54B010",
"> 	c #5EB41E",
", 	c #6FB63B",
"' 	c #67A03F",
") 	c #527A34",
"! 	c #4A8C1C",
"~ 	c #50951F",
"{ 	c #57922E",
"] 	c #4A7C29",
"^ 	c #427D1B",
"/ 	c #419D00",
"( 	c #4BAE03",
"_ 	c #4FAE09",
": 	c #60B323",
"< 	c #76BC43",
"[ 	c #63A235",
"} 	c #4E8625",
"| 	c #4A8620",
"1 	c #60943A",
"2 	c #3E6325",
"3 	c #244B0A",
"4 	c #2E6F02",
"5 	c #398109",
"6 	c #429E00",
"7 	c #398403",
"8 	c #4E931C",
"9 	c #6DB239",
"0 	c #5FB320",
"a 	c #6FBB35",
"b 	c #83C652",
"c 	c #74B643",
"d 	c #4E7B2C",
"e 	c #4F7636",
"f 	c #223915",
"g 	c #1C1F1A",
"h 	c #2B3921",
"i 	c #428712",
"j 	c #438A13",
"k 	c #51A513",
"l 	c #439F00",
"m 	c #368001",
"n 	c #28520B",
"o 	c #6EA843",
"p 	c #7DC04C",
"q 	c #74BC3F",
"r 	c #7BBB4A",
"s 	c #485A3B",
"t 	c #3A671A",
"u 	c #1C3A08",
"v 	c #37422F",
"w 	c #4C8820",
"x 	c #2D6306",
"y 	c #61953C",
"z 	c #509C19",
"A 	c #419502",
"B 	c #2E6F00",
"C 	c #337603",
"D 	c #609B34",
"E 	c #6EB33B",
"F 	c #60B123",
"G 	c #71B240",
"H 	c #426E26",
"I 	c #386315",
"J 	c #23380F",
"K 	c #405D2B",
"L 	c #386E11",
"M 	c #1F3D0A",
"N 	c #548034",
"O 	c #5E9C31",
"P 	c #48990C",
"Q 	c #439F01",
"R 	c #3D8A06",
"S 	c #61A92B",
"T 	c #499E0A",
"U 	c #53AB11",
"V 	c #59932E",
"W 	c #457228",
"X 	c #48731C",
"Y 	c #2C3D12",
"Z 	c #383626",
"` 	c #526626",
" .	c #3B6B16",
"..	c #122E01",
"+.	c #39611E",
"@.	c #62983C",
"#.	c #589F24",
"$.	c #4BA409",
"%.	c #5AA622",
"&.	c #609E34",
"*.	c #63AB2F",
"=.	c #6C9F47",
"-.	c #2F3629",
";.	c #426E25",
">.	c #447117",
",.	c #6D7833",
"'.	c #554322",
").	c #626D32",
"!.	c #4B732B",
"~.	c #122B01",
"{.	c #163004",
"].	c #37601A",
"^.	c #578535",
"/.	c #619D35",
"(.	c #66A13B",
"_.	c #6B8F4F",
":.	c #3C4B31",
"<.	c #2D6403",
"[.	c #7B9036",
"}.	c #59622A",
"|.	c #2A251D",
"1.	c #534323",
"2.	c #6B6932",
"3.	c #4E7A2A",
"4.	c #1E3D01",
"5.	c #3E1F07",
"6.	c #273519",
"7.	c #4A4731",
"8.	c #34311E",
"9.	c #3E3F3C",
"0.	c #1E4701",
"a.	c #3C680E",
"b.	c #716C36",
"c.	c #514A1C",
"d.	c #644D20",
"e.	c #8D6321",
"f.	c #AD7927",
"g.	c #BF8529",
"h.	c #A37832",
"i.	c #636340",
"j.	c #587F39",
"k.	c #435B18",
"l.	c #5F280E",
"m.	c #99661F",
"n.	c #9E660D",
"o.	c #543A11",
"p.	c #262F08",
"q.	c #7C6D19",
"r.	c #B27E26",
"s.	c #DA972F",
"t.	c #F3A935",
"u.	c #F7AC36",
"v.	c #F2A834",
"w.	c #E9A130",
"x.	c #DD972B",
"y.	c #AF7C2D",
"z.	c #625638",
"A.	c #4C583A",
"B.	c #4D2112",
"C.	c #7F5126",
"D.	c #BA760D",
"E.	c #B2710A",
"F.	c #684205",
"G.	c #261C0C",
"H.	c #48371B",
"I.	c #AD7E2C",
"J.	c #F9AD36",
"K.	c #F9AD35",
"L.	c #E8A23C",
"M.	c #E49A25",
"N.	c #D88E1A",
"O.	c #CD830F",
"P.	c #C67C09",
"Q.	c #C47B08",
"R.	c #BE7D19",
"S.	c #B4853C",
"T.	c #8F6A44",
"U.	c #4C291D",
"V.	c #59421E",
"W.	c #906D36",
"X.	c #986D2A",
"Y.	c #954A19",
"Z.	c #633D31",
"`.	c #78551E",
" +	c #D39533",
".+	c #E49F31",
"++	c #EDA533",
"@+	c #E09A27",
"#+	c #CA841A",
"$+	c #CB8009",
"%+	c #CA7F08",
"&+	c #C87E08",
"*+	c #C77E0C",
"=+	c #C57D0C",
"-+	c #C27908",
";+	c #A06910",
">+	c #5D4E22",
",+	c #493F2D",
"'+	c #7B451B",
")+	c #AA5A2A",
"!+	c #4C463F",
"~+	c #986944",
"{+	c #5B4017",
"]+	c #322613",
"^+	c #885F1E",
"/+	c #CA8C2B",
"(+	c #E19928",
"_+	c #D0830A",
":+	c #CD8313",
"<+	c #CC800A",
"[+	c #C87D09",
"}+	c #C0790B",
"|+	c #8B6B2B",
"1+	c #406968",
"2+	c #195B66",
"3+	c #13464D",
"4+	c #5D5630",
"5+	c #DE9B31",
"6+	c #B48438",
"7+	c #9D733F",
"8+	c #7A5822",
"9+	c #513A14",
"0+	c #B37E23",
"a+	c #AD6E09",
"b+	c #A26910",
"c+	c #B77A19",
"d+	c #D88E1C",
"e+	c #CD810A",
"f+	c #C77C08",
"g+	c #906C25",
"h+	c #497E81",
"i+	c #1B6776",
"j+	c #125E6C",
"k+	c #115D6B",
"l+	c #1A535A",
"m+	c #B38836",
"n+	c #CE8818",
"o+	c #B3710A",
"p+	c #8F5B09",
"q+	c #73501A",
"r+	c #90641F",
"s+	c #96671F",
"t+	c #BF8429",
"u+	c #DC9527",
"v+	c #D4870F",
"w+	c #CC8009",
"x+	c #B1710C",
"y+	c #5C7E72",
"z+	c #297B8A",
"A+	c #125E6D",
"B+	c #1D5F6B",
"C+	c #AA9354",
"D+	c #D69523",
"E+	c #B47008",
"F+	c #8A580B",
"G+	c #76521B",
"H+	c #C28629",
"I+	c #C88B2B",
"J+	c #D1912D",
"K+	c #E09929",
"L+	c #D88A10",
"M+	c #CF8209",
"N+	c #CD8009",
"O+	c #896927",
"P+	c #4A919B",
"Q+	c #1B6B7B",
"R+	c #125F6D",
"S+	c #255F65",
"T+	c #C29D48",
"U+	c #CC8817",
"V+	c #B47107",
"W+	c #6B4406",
"X+	c #704E1A",
"Y+	c #C58C31",
"Z+	c #C98D32",
"`+	c #CF902E",
" @	c #E19A2B",
".@	c #DD8E12",
"+@	c #D38509",
"@@	c #D08309",
"#@	c #CE8109",
"$@	c #66582D",
"%@	c #428A97",
"&@	c #196978",
"*@	c #125A67",
"=@	c #5B6647",
"-@	c #E7A52E",
";@	c #BD7709",
">@	c #AB6C08",
",@	c #493008",
"'@	c #68491A",
")@	c #D3932D",
"!@	c #D99933",
"~@	c #D99731",
"{@	c #E29C2D",
"]@	c #E39316",
"^@	c #D7870A",
"/@	c #D4860B",
"(@	c #D2840A",
"_@	c #61400B",
":@	c #34463E",
"<@	c #215E67",
"[@	c #135B68",
"}@	c #175861",
"|@	c #516149",
"1@	c #CF9733",
"2@	c #CF8714",
"3@	c #BB7508",
"4@	c #8B5806",
"5@	c #5B4117",
"6@	c #D7952E",
"7@	c #E7A032",
"8@	c #E69F31",
"9@	c #E8A12F",
"0@	c #E9991B",
"a@	c #DB8A0A",
"b@	c #D1840A",
"c@	c #DA9119",
"d@	c #D5870C",
"e@	c #AD6D08",
"f@	c #7B5210",
"g@	c #785B22",
"h@	c #675C32",
"i@	c #927332",
"j@	c #D5952C",
"k@	c #D28A16",
"l@	c #BE7708",
"m@	c #533506",
"n@	c #3C2D16",
"o@	c #BE8429",
"p@	c #E49E32",
"q@	c #EAA332",
"r@	c #EDA632",
"s@	c #EE9F20",
"t@	c #E08D0B",
"u@	c #D28409",
"v@	c #9B6613",
"w@	c #E49E2C",
"x@	c #D88B10",
"y@	c #C27A08",
"z@	c #BD780C",
"A@	c #C68012",
"B@	c #CC8311",
"C@	c #C57C0A",
"D@	c #BF7708",
"E@	c #BD7608",
"F@	c #774B05",
"G@	c #614518",
"H@	c #CE8F2D",
"I@	c #DD9A30",
"J@	c #E8A232",
"K@	c #F1A627",
"L@	c #E4910D",
"M@	c #D4850A",
"N@	c #4D3004",
"O@	c #6C4B17",
"P@	c #D5942C",
"Q@	c #DF9219",
"R@	c #C97E09",
"S@	c #C67D09",
"T@	c #C47B09",
"U@	c #C07908",
"V@	c #BC7608",
"W@	c #875506",
"X@	c #2F2311",
"Y@	c #875D1E",
"Z@	c #C4882A",
"`@	c #E5A634",
" #	c #E79816",
".#	c #653F05",
"+#	c #080500",
"@#	c #070501",
"##	c #36260B",
"$#	c #9E6B1B",
"%#	c #CC820D",
"&#	c #C37B09",
"*#	c #C17909",
"=#	c #B16F07",
"-#	c #6F4605",
";#	c #261803",
">#	c #171006",
",#	c #4E3610",
"'#	c #BB8021",
")#	c #C9800D",
"!#	c #734905",
"~#	c #0C0701",
"{#	c #000000",
"]#	c #0F0A03",
"^#	c #5D3D0B",
"/#	c #A3670A",
"(#	c #B06F09",
"_#	c #9E6307",
":#	c #754A06",
"<#	c #342103",
"[#	c #0A0601",
"}#	c #010000",
"|#	c #291C07",
"1#	c #3A2504",
"2#	c #0E0902",
"3#	c #231603",
"4#	c #251802",
"5#	c #130C01",
"6#	c #030200",
"                                                                ",
"                        . + @ # $ %                             ",
"                      & * = - ; > , ' )                         ",
"                    ! ~ { ] ^ / ( _ : < [ }                     ",
"                  | 1 2 3 4 5 6 7 8 9 0 a b c                   ",
"                d e f g h i j k l m n o p q r s                 ",
"                t u     v w x y z A B C D E F G                 ",
"              H I J       K L M N O P Q R S T U V               ",
"              W X Y       Z `  ...+.@.#.$.%.&.*.=.-.            ",
"              ;.>.,.        '.).!.~.{.].^./.(._.:.              ",
"                <.[.}.      |.1.2.3.4.5.6.7.8.9.                ",
"                0.a.b.c.d.e.f.g.h.i.j.k.l.m.n.o.                ",
"                p.q.r.s.t.u.v.w.x.y.z.A.B.C.D.E.F.G.            ",
"              H.I.v.J.K.L.M.N.O.P.Q.R.S.T.U.V.W.X.Y.Z.          ",
"              `. +.+++@+#+$+%+&+*+=+-+;+>+,+'+)+!+~+{+          ",
"              ]+^+/+(+_+:+$+<+$+[+}+|+1+2+3+4+5+6+7+8+          ",
"                  9+0+a+b+c+d+e+f+g+h+i+j+k+l+m+n+o+p+          ",
"                  q+r+s+t+u+v+w+x+y+z+A+j+k+B+C+D+E+F+          ",
"                G+H+I+J+K+L+M+N+O+P+Q+R+j+k+S+T+U+V+W+          ",
"              X+Y+Z+`+ @.@+@@@#@$@%@&@R+j+*@=@-@;@>@,@          ",
"            '@)@!@~@{@]@^@/@(@M+_@:@<@[@}@|@1@2@3@4@            ",
"          5@6@7@8@9@0@a@b@c@d@M+e@f@g@h@i@j@k@l@V+m@            ",
"        n@o@p@q@r@s@t@u@v@w@x@M+w+y@z@A@B@C@D@E@F@              ",
"        G@H@I@J@K@L@M@N@O@P@Q@M+w+R@S@T@y@U@V@W@                ",
"        X@Y@Z@`@ #^@.#+#@###$#%#$+R@P.&#*#=#-#;#                ",
"          >#,#'#)#!#~#{#{#{#]#^#/#(#e@_#:#<#[#}#                ",
"            }#|#1#~#{#{#{#{#{#{#2#3#4#5#6#{#{#{#                ",
"          {#{#{#{#{#{#{#{#{#{#{#{#{#{#{#{#                      ",
"        {#{#{#{#{#{#{#{#{#{#{#{#{#                              ",
"        {#{#{#{#{#{#{#{#                                        ",
"          {#{#{#{#                                              ",
"                                                                "};
