/* XPM */
static char * MasterSpider32x32_xpm[] = {
"32 32 11 1",
" 	c None",
".	c #000000",
"+	c #010101",
"@	c #EA8E25",
"#	c #070401",
"$	c #1B1004",
"%	c #030303",
"&	c #080502",
"*	c #070502",
"=	c #020202",
"-	c #0D0D0D",
"          .           .         ",
"         ..           ..        ",
"         ..            .        ",
"         .             ..       ",
"         .              .       ",
"         ..             .       ",
"         ..             .       ",
"         ..            ..       ",
"          .    +       ..       ",
"          .   ...     ..        ",
"          .  ..@#.    ..        ",
"          . .$.@@.    ..        ",
"          ...@.@@..  ..         ",
"      ..   ..@.@@.. ..          ",
"        .. ..@.@@....  ..       ",
"         .. .@.@@+.. ...        ",
"          ....@@.%. ..          ",
"            .....+...           ",
"           ...@@@.              ",
"          .. .@@@......         ",
"         ..  .@@$.    ..        ",
"        .. ..+&*...... ..       ",
"        . .. =-..    .. .       ",
"        . .  .. .     . .       ",
"       .. .           . .       ",
"      .. ..           . .       ",
"      .  .            . .       ",
"     ..  .            . .       ",
"     .  ..            . .       ",
"        .            ..         ",
"       ..           ..          ",
"       .          ...           "};
