/* XPM */
static char * subtitleeditor_xpm[] = {
"32 31 568 2",
"  	c None",
". 	c #100B00",
"+ 	c #000000",
"@ 	c #271B00",
"# 	c #271C00",
"$ 	c #010100",
"% 	c #221800",
"& 	c #231900",
"* 	c #211700",
"= 	c #2A1E00",
"- 	c #0A0700",
"; 	c #291D00",
"> 	c #322300",
", 	c #0F0A00",
"' 	c #191100",
") 	c #171717",
"! 	c #2A2A2A",
"~ 	c #141414",
"{ 	c #2D2D2D",
"] 	c #010101",
"^ 	c #111111",
"/ 	c #2E2E2E",
"( 	c #1C1402",
"_ 	c #151514",
": 	c #020202",
"< 	c #4A3911",
"[ 	c #5B4E2E",
"} 	c #3A2A02",
"| 	c #48370E",
"1 	c #66562F",
"2 	c #352604",
"3 	c #919191",
"4 	c #FBFBFB",
"5 	c #818181",
"6 	c #FFFFFF",
"7 	c #0B0B0B",
"8 	c #727272",
"9 	c #1B1B1B",
"0 	c #636363",
"a 	c #424242",
"b 	c #757575",
"c 	c #3A3A3A",
"d 	c #787878",
"e 	c #040404",
"f 	c #333333",
"g 	c #7A7A7A",
"h 	c #0A0A0A",
"i 	c #2C2C2C",
"j 	c #7B7B7B",
"k 	c #101010",
"l 	c #282942",
"m 	c #7D7FE9",
"n 	c #6568E9",
"o 	c #5F62E9",
"p 	c #6265E9",
"q 	c #6063E9",
"r 	c #686BE9",
"s 	c #6F72E9",
"t 	c #8183E9",
"u 	c #7B7EE9",
"v 	c #787AE9",
"w 	c #7073E9",
"x 	c #6D70E9",
"y 	c #7375E9",
"z 	c #8789E9",
"A 	c #9698E9",
"B 	c #A4A6E9",
"C 	c #AFB0E9",
"D 	c #A9AAE9",
"E 	c #A4A5E9",
"F 	c #9EA0E9",
"G 	c #A0A2E9",
"H 	c #AAACE9",
"I 	c #C0C1E9",
"J 	c #CACBE9",
"K 	c #C3C4E9",
"L 	c #BBBCE9",
"M 	c #B8BAE9",
"N 	c #3A3A42",
"O 	c #141548",
"P 	c #474BFF",
"Q 	c #484CFF",
"R 	c #4A4EFF",
"S 	c #4C50FF",
"T 	c #4B4FFF",
"U 	c #5255FF",
"V 	c #5559FF",
"W 	c #5D60FF",
"X 	c #5E62FF",
"Y 	c #6063FF",
"Z 	c #8A8CFF",
"` 	c #BBBDFF",
" .	c #C2C3FF",
"..	c #C9CAFF",
"+.	c #D3D4FF",
"@.	c #DADBFF",
"#.	c #D6D6FF",
"$.	c #D0D1FF",
"%.	c #D2D3FF",
"&.	c #CDCFFF",
"*.	c #CACBFF",
"=.	c #C8C9FF",
"-.	c #BEC0FF",
";.	c #B7B8FF",
">.	c #9496FF",
",.	c #2B2B48",
"'.	c #1A1B48",
").	c #5C5FFF",
"!.	c #5B5EFF",
"~.	c #5D61FF",
"{.	c #6064FF",
"].	c #6165FF",
"^.	c #6265FF",
"/.	c #6568FF",
"(.	c #6D70FF",
"_.	c #6F72FF",
":.	c #7275FF",
"<.	c #7073FF",
"[.	c #6E71FF",
"}.	c #7679FF",
"|.	c #8F91FF",
"1.	c #AAACFF",
"2.	c #BBBCFF",
"3.	c #B0B1FF",
"4.	c #A7A9FF",
"5.	c #B6B8FF",
"6.	c #C6C8FF",
"7.	c #C5C6FF",
"8.	c #BFC0FF",
"9.	c #BCBDFF",
"0.	c #B5B7FF",
"a.	c #A2A5FF",
"b.	c #7E81FF",
"c.	c #232448",
"d.	c #252648",
"e.	c #8386FF",
"f.	c #7D80FF",
"g.	c #7C7FFF",
"h.	c #777AFF",
"i.	c #898CFF",
"j.	c #7477FF",
"k.	c #7578FF",
"l.	c #787AFF",
"m.	c #6467FF",
"n.	c #8285FF",
"o.	c #8B8DFF",
"p.	c #9A9CFF",
"q.	c #ACAEFF",
"r.	c #9C9EFF",
"s.	c #8B8EFF",
"t.	c #8184FF",
"u.	c #8183FF",
"v.	c #8487FF",
"w.	c #9193FF",
"x.	c #2E2F48",
"y.	c #262648",
"z.	c #7B7EFF",
"A.	c #9EA0FF",
"B.	c #B8BAFF",
"C.	c #C3C4FF",
"D.	c #C4C5FF",
"E.	c #B1B3FF",
"F.	c #A1A3FF",
"G.	c #8C8EFF",
"H.	c #7174FF",
"I.	c #9395FF",
"J.	c #6B6EFF",
"K.	c #6669FF",
"L.	c #686BFF",
"M.	c #6D71FF",
"N.	c #7376FF",
"O.	c #7A7DFF",
"P.	c #9698FF",
"Q.	c #2D2E48",
"R.	c #222348",
"S.	c #898BFF",
"T.	c #A3A5FF",
"U.	c #A2A4FF",
"V.	c #B1B2FF",
"W.	c #B4B5FF",
"X.	c #A9ABFF",
"Y.	c #A5A7FF",
"Z.	c #8E90FF",
"`.	c #888BFF",
" +	c #9092FF",
".+	c #8789FF",
"++	c #8A8DFF",
"@+	c #8E91FF",
"#+	c #9497FF",
"$+	c #8D90FF",
"%+	c #878AFF",
"&+	c #989AFF",
"*+	c #9D9FFF",
"=+	c #1B1C48",
"-+	c #6C6FFF",
";+	c #7F82FF",
">+	c #8083FF",
",+	c #696DFF",
"'+	c #9295FF",
")+	c #8588FF",
"!+	c #9598FF",
"~+	c #9FA1FF",
"{+	c #ABADFF",
"]+	c #CECFFF",
"^+	c #3A3A48",
"/+	c #282948",
"(+	c #797CFF",
"_+	c #6164FF",
":+	c #676BFF",
"<+	c #6A6EFF",
"[+	c #6468FF",
"}+	c #6A6DFF",
"|+	c #6367FF",
"1+	c #5A5DFF",
"2+	c #5E61FF",
"3+	c #8D8FFF",
"4+	c #A3A6FE",
"5+	c #9A9DFD",
"6+	c #868AFD",
"7+	c #AAACFE",
"8+	c #B9BBFF",
"9+	c #C4C6FF",
"0+	c #CDCEFF",
"a+	c #3B3B48",
"b+	c #3C3C48",
"c+	c #D1D2FF",
"d+	c #CCCDFF",
"e+	c #C1C3FF",
"f+	c #999CFF",
"g+	c #5F62FF",
"h+	c #6569FF",
"i+	c #6E72FF",
"j+	c #8284FF",
"k+	c #8386FD",
"l+	c #7C8AEE",
"m+	c #728FD7",
"n+	c #6696BD",
"o+	c #5C90B8",
"p+	c #5C7FD1",
"q+	c #6670F4",
"r+	c #2E2E48",
"s+	c #333448",
"t+	c #AFB1FF",
"u+	c #7A7DFE",
"v+	c #8285FC",
"w+	c #8C8FFF",
"x+	c #9799FF",
"y+	c #787BFF",
"z+	c #7C7EFF",
"A+	c #8591F2",
"B+	c #71A2BB",
"C+	c #5DAE8E",
"D+	c #55B27B",
"E+	c #59B57A",
"F+	c #60AF90",
"G+	c #7FA7C8",
"H+	c #A1AAF6",
"I+	c #A6A9FF",
"J+	c #2C2D48",
"K+	c #7F81FF",
"L+	c #9D9FFC",
"M+	c #8789DD",
"N+	c #797BC9",
"O+	c #9496F0",
"P+	c #999BFF",
"Q+	c #99ADE5",
"R+	c #7BBDA4",
"S+	c #6AC57F",
"T+	c #63C268",
"U+	c #68C46F",
"V+	c #79C88F",
"W+	c #91C4B8",
"X+	c #A3BCDC",
"Y+	c #BEC1FC",
"Z+	c #343548",
"`+	c #313248",
" @	c #8E90FB",
".@	c #7C7ED7",
"+@	c #6163A3",
"@@	c #57589B",
"#@	c #5D5FBA",
"$@	c #696CF0",
"%@	c #9B9DFF",
"&@	c #979AFE",
"*@	c #838EF1",
"=@	c #6D93CD",
"-@	c #5E9EA5",
";@	c #68A484",
">@	c #76AC87",
",@	c #85AACB",
"'@	c #8794EE",
")@	c #8D98F1",
"!@	c #B1B3FD",
"~@	c #313148",
"{@	c #ABACFF",
"]@	c #8688FD",
"^@	c #686BDB",
"/@	c #4A4CAD",
"(@	c #373986",
"_@	c #393B84",
":@	c #434598",
"<@	c #6163D4",
"[@	c #A2A5FD",
"}@	c #999DFC",
"|@	c #969AFC",
"1@	c #8C90FD",
"2@	c #8689FD",
"3@	c #8589FC",
"4@	c #8B8FFC",
"5@	c #8D96F5",
"6@	c #879FDF",
"7@	c #88AECA",
"8@	c #8BBBBB",
"9@	c #91B194",
"0@	c #96B18A",
"a@	c #B0D3CB",
"b@	c #D5DDF4",
"c@	c #DFE0FD",
"d@	c #2A2A48",
"e@	c #9093FF",
"f@	c #7275FE",
"g@	c #6E71EE",
"h@	c #6062B5",
"i@	c #4B4C71",
"j@	c #4E4F6A",
"k@	c #7C7DA9",
"l@	c #BDBEF5",
"m@	c #D4D5FF",
"n@	c #D5D6FE",
"o@	c #B7BAFD",
"p@	c #8B9AEC",
"q@	c #778BE5",
"r@	c #798FE3",
"s@	c #89A3DD",
"t@	c #A1BED8",
"u@	c #ACCDD1",
"v@	c #A9D2C4",
"w@	c #A2D6B5",
"x@	c #96DAA0",
"y@	c #8FDC92",
"z@	c #A1E2A2",
"A@	c #A1C587",
"B@	c #9BBB7A",
"C@	c #ACE6AB",
"D@	c #CBF0CB",
"E@	c #D3EDDB",
"F@	c #BCC3F5",
"G@	c #363747",
"H@	c #7D7FFF",
"I@	c #888AFF",
"J@	c #7E81FC",
"K@	c #6D6EC2",
"L@	c #51527F",
"M@	c #565883",
"N@	c #7F85BA",
"O@	c #B7C8E6",
"P@	c #C9E4DA",
"Q@	c #A2BCDC",
"R@	c #8EAADA",
"S@	c #8DAED2",
"T@	c #A0C5CC",
"U@	c #9DD4B1",
"V@	c #8FDA95",
"W@	c #91DE92",
"X@	c #86DC87",
"Y@	c #85DB85",
"Z@	c #8CDE8C",
"`@	c #7ED97E",
" #	c #80DA80",
".#	c #91C97F",
"+#	c #95C47D",
"@#	c #98E197",
"##	c #9CE29C",
"$#	c #9AE19B",
"%#	c #9EDEA5",
"&#	c #324133",
"*#	c #353548",
"=#	c #B6B9FD",
"-#	c #C1C4FD",
";#	c #CDCFFD",
">#	c #BCBFFD",
",#	c #BBBFFB",
"'#	c #C1C8E9",
")#	c #A2ADB3",
"!#	c #8AA897",
"~#	c #86BA93",
"{#	c #8FD797",
"]#	c #8BDD8C",
"^#	c #87D98B",
"/#	c #98E099",
"(#	c #93DF93",
"_#	c #7DD97D",
":#	c #89DD89",
"<#	c #82DB82",
"[#	c #81DA81",
"}#	c #81D880",
"|#	c #83D880",
"1#	c #95E095",
"2#	c #93E093",
"3#	c #87DC87",
"4#	c #8ADD8A",
"5#	c #2C402C",
"6#	c #3D453E",
"7#	c #D6F1D8",
"8#	c #D3F2D4",
"9#	c #CCF0CD",
"0#	c #C8EECA",
"a#	c #B9EABA",
"b#	c #99DA99",
"c#	c #88D488",
"d#	c #81D881",
"e#	c #7FD97F",
"f#	c #7AD37A",
"g#	c #71CE71",
"h#	c #73D673",
"i#	c #6BC76B",
"j#	c #74D774",
"k#	c #6ED56E",
"l#	c #6FD56F",
"m#	c #6DD56D",
"n#	c #68D368",
"o#	c #6CD46C",
"p#	c #67D367",
"q#	c #65D165",
"r#	c #62C562",
"s#	c #6DC76D",
"t#	c #71D671",
"u#	c #77D777",
"v#	c #7CD97C",
"w#	c #243E24",
"x#	c #354335",
"y#	c #BAEBBA",
"z#	c #90C090",
"A#	c #81BA81",
"B#	c #86C586",
"C#	c #80C980",
"D#	c #63A963",
"E#	c #478347",
"F#	c #60BC60",
"G#	c #306030",
"H#	c #56A556",
"I#	c #4B974B",
"J#	c #2F622F",
"K#	c #458745",
"L#	c #6ED06E",
"M#	c #529D52",
"N#	c #6FD06F",
"O#	c #74D674",
"P#	c #62B962",
"Q#	c #5EAF5E",
"R#	c #6FC86F",
"S#	c #569856",
"T#	c #529152",
"U#	c #5D9F5D",
"V#	c #3B5E3B",
"W#	c #80CA80",
"X#	c #61A261",
"Y#	c #7BD17B",
"Z#	c #5DA15D",
"`#	c #75BF75",
" $	c #86DC86",
".$	c #273F27",
"+$	c #304130",
"@$	c #A2E4A2",
"#$	c #4E774E",
"$$	c #5D965D",
"%$	c #558D55",
"&$	c #5FA05F",
"*$	c #5B9C5B",
"=$	c #5AA05A",
"-$	c #4A834A",
";$	c #4F8A4F",
">$	c #6BBB6B",
",$	c #559755",
"'$	c #4E8B4E",
")$	c #477D47",
"!$	c #437243",
"~$	c #518B51",
"{$	c #8BDD8B",
"]$	c #345234",
"^$	c #365736",
"/$	c #4E814E",
"($	c #72BD72",
"_$	c #569356",
":$	c #548C54",
"<$	c #559055",
"[$	c #71BC71",
"}$	c #518751",
"|$	c #4D7B4D",
"1$	c #99E199",
"2$	c #A5E4A5",
"3$	c #314131",
"4$	c #2A402A",
"5$	c #97E197",
"6$	c #689B68",
"7$	c #5E865E",
"8$	c #6B956B",
"9$	c #547654",
"0$	c #7DAF7D",
"a$	c #4E7A4E",
"b$	c #609860",
"c$	c #5FA35F",
"d$	c #65AC65",
"e$	c #427442",
"f$	c #549754",
"g$	c #5AA35A",
"h$	c #4B874B",
"i$	c #65BB65",
"j$	c #76D876",
"k$	c #478047",
"l$	c #4D8E4D",
"m$	c #549F54",
"n$	c #448144",
"o$	c #549D54",
"p$	c #529752",
"q$	c #3F793F",
"r$	c #4D994D",
"s$	c #428042",
"t$	c #539B53",
"u$	c #78D878",
"v$	c #272E27",
"w$	c #7A9D7A",
"x$	c #709A70",
"y$	c #6E9A6E",
"z$	c #6D996D",
"A$	c #779C77",
"B$	c #6F9A6F",
"C$	c #699869",
"D$	c #649764",
"E$	c #599459",
"F$	c #579357",
"G$	c #5B945B",
"H$	c #519151",
"I$	c #4F904F",
"J$	c #4D904D",
"K$	c #559255",
"L$	c #599359",
"M$	c #1B2A1B",
"N$	c #535353",
"O$	c #939393",
"P$	c #4A4A4A",
"Q$	c #979797",
"R$	c #050505",
"S$	c #414141",
"T$	c #999999",
"U$	c #0D0D0D",
"V$	c #383838",
"W$	c #151515",
"X$	c #8F8F8F",
"Y$	c #F9F9F9",
"Z$	c #808080",
"`$	c #FEFEFE",
" %	c #707070",
".%	c #191919",
"+%	c #616161",
"@%	c #282828",
"#%	c #070707",
"$%	c #0E0E0E",
"%%	c #060606",
"&%	c #0F0F0F",
"*%	c #251A00",
"=%	c #070706",
"-%	c #1E1500",
";%	c #1B1300",
">%	c #1D1504",
",%	c #2B1E00",
"'%	c #241900",
")%	c #352500",
". + + + + + + + + + + @ # $ + + + + + + + + + + % & * = - ; > , ",
"' ) ! + + ~ { ] + ^ / ( ; _ { ] + ^ / : + ~ { ] > < [ } * | 1 2 ",
"+ 3 4 + + 5 6 7 + 8 6 9 + 5 6 7 + 8 6 9 + 5 6 7 + 8 6 9 + 0 6 ! ",
"+ 3 4 + + 5 6 7 + 8 6 9 + 5 6 7 + 8 6 9 + 5 6 7 + 8 6 9 + 0 6 ! ",
"+ a b + + c d e + f g h + c d e + f g h + c d e + f g h + i j k ",
"l m n o p q r s t t u m v w x y u z A B C D E F G H I J K L M N ",
"O P Q R S S S T S S U V W X Y Z `  ...+.@.#.$.%.$.&.*.=.-.;.>.,.",
"'.).!.~.{.].^./.(._.:._.<._.[.}.|.1.2.2.3.4.5.=.6.7.8.9.0.a.b.c.",
"d.e.f.g.b.}.h.Z i.g.j.k.<.l.j.^.m.j.b.n.o.p.4.q.r.s.t.u.v.e.w.x.",
"y.j.z.A.B.C.=.$.D.E.F.F.G.t.H.<.b.s.I.>.G.f.J.K.L.M.N.k.O.s.P.Q.",
"R._.S.T.U.V.2.7.W.X.Y.Z.t.`. + +s..+n.v.++@+@+#+$+G.++e.%+&+*+Q.",
"=+/.-+[._.N.z.v.;+;+>+g.O.:.J.,+N.++'+Z.)+f.t.%+%+!+~+{+2.]+$.^+",
"/+>.@+@+>.++z.(+:./.~.)._+:+[.<+[+}+|+).1+2+H.3+4+5+6+7+8+9+0+a+",
"b+c+d+e+f+O.:+g+1+g+h+-+:.O.t.h.i+j.j+%+e.v.k+l+m+n+o+p+q+(+#+r+",
"s+t+T.P.G.u.O.u+v+$+@+Z.w+++Z.'+P.x+|.y+z+%+A+B+C+D+E+F+G+H+I+Q.",
"J+.+K+v.Z.&+L+M+N+O+A.&+ +%+(+<.L.K.h.i.P+T.Q+R+S+T+U+V+W+X+Y+Z+",
"`+1.E.{+P. @.@+@@@#@$@L./.L.(.h.t. +%@F.U.&@*@=@-@;@>@,@'@)@!@J+",
"~@{+{@%@]@^@/@(@_@:@<@n.w.~+[@}@|@1@2@3@4@5@6@7@8@9@0@a@b@c@c+s+",
"d@e@i.z.f@g@h@i@j@k@l@m@n@o@p@q@r@s@t@u@v@w@x@y@z@A@B@C@D@E@F@G@",
"y.b.H@I@i.J@K@L@M@N@O@P@Q@R@S@T@U@V@W@X@Y@Z@Z@`@ #.#+#@###$#%#&#",
"*#=#-#;#>#,#'#)#!#~#{#]#^#y@/#(#Z@_#Y@:#Y@<#<#<#[#}#|#1#2#3#4#5#",
"6#7#8#9#0#a#b#c#d#e#f#g#h#i#j#k#l#m#n#o#p#q#r#s#h#t#t#o#t#u#v#w#",
"x#y#z#A#B#C#D#E#F#G#H#I#J#K#L#M#N#O#P#Q#R#S#T#U#V#W#X#Y#Z#`# $.$",
"+$@$#$$$%$&$*$=$-$;$>$*$,$'$)$!$~${$]$^$/$($_$%$:$<$[$}$|$1$2$3$",
"4$5$6$7$8$9$0$a$b$%$c$d$e$f$g$h$i$j$k$l$m$n$o$p$q$r$s$t$p$u$:#5#",
"v$w$x$y$z$y$z$y$A$z$z$B$C$D$E$_$F$F$F$G$G$F$F$G$F$H$I$J$H$K$L$M$",
"+ N$O$+ + P$Q$R$+ S$T$U$+ P$Q$R$+ S$T$U$+ P$Q$R$+ S$T$U$+ V$T$W$",
"+ 3 4 + + 5 6 7 + 8 6 9 + 5 6 7 + 8 6 9 + 5 6 7 + 8 6 9 + 0 6 ! ",
"+ X$Y$+ + Z$`$7 +  %6 .%+ Z$`$7 +  %6 .%+ Z$`$7 +  %6 .%+ +%6 @%",
"+ #%$%+ + %%&%+ + R$k & *%=%&%+ + R$k + + %%&%+ + R$k -%;%>%k ] ",
"+ + + + + + + + + + + -%,%$ + + + + + + + + + + + + + * '%)%+ + "};
