/* XPM */
static char * 32x32_client_xpm[] = {
"32 32 257 2",
"  	c None",
". 	c #181839",
"+ 	c #29294A",
"@ 	c #292952",
"# 	c #31315A",
"$ 	c #39395A",
"% 	c #393963",
"& 	c #42426B",
"* 	c #424273",
"= 	c #4A4A6B",
"- 	c #4A4A73",
"; 	c #4A4A7B",
"> 	c #525273",
", 	c #525284",
"' 	c #52528C",
") 	c #5A5A84",
"! 	c #5A5A8C",
"~ 	c #5A5A94",
"{ 	c #636394",
"] 	c #63639C",
"^ 	c #6B6B9C",
"/ 	c #6B6BA5",
"( 	c #7373A5",
"_ 	c #7B7BA5",
": 	c #7B7BAD",
"< 	c #8484AD",
"[ 	c #8484B5",
"} 	c #8C8CB5",
"| 	c #9494B5",
"1 	c #9494BD",
"2 	c #9C9CBD",
"3 	c #9C9CC6",
"4 	c #A5A5C6",
"5 	c #A5A5CE",
"6 	c #ADADCE",
"7 	c #B5B5CE",
"8 	c #B5B5D6",
"9 	c #BDBDD6",
"0 	c #C6C6D6",
"a 	c #C6C6DE",
"b 	c #C6C6E7",
"c 	c #CECEDE",
"d 	c #CECEE7",
"e 	c #D6D6E7",
"f 	c #DEDEE7",
"g 	c #DEDEEF",
"h 	c #E7E7EF",
"i 	c #E7E7F7",
"j 	c #EFEFF7",
"k 	c #FFFFFF",
"l 	c #FFFFFF",
"m 	c #FFFFFF",
"n 	c #FFFFFF",
"o 	c #FFFFFF",
"p 	c #FFFFFF",
"q 	c #FFFFFF",
"r 	c #FFFFFF",
"s 	c #FFFFFF",
"t 	c #FFFFFF",
"u 	c #FFFFFF",
"v 	c #FFFFFF",
"w 	c #FFFFFF",
"x 	c #FFFFFF",
"y 	c #FFFFFF",
"z 	c #FFFFFF",
"A 	c #FFFFFF",
"B 	c #FFFFFF",
"C 	c #FFFFFF",
"D 	c #FFFFFF",
"E 	c #FFFFFF",
"F 	c #FFFFFF",
"G 	c #FFFFFF",
"H 	c #FFFFFF",
"I 	c #FFFFFF",
"J 	c #FFFFFF",
"K 	c #FFFFFF",
"L 	c #FFFFFF",
"M 	c #FFFFFF",
"N 	c #FFFFFF",
"O 	c #FFFFFF",
"P 	c #FFFFFF",
"Q 	c #FFFFFF",
"R 	c #FFFFFF",
"S 	c #FFFFFF",
"T 	c #FFFFFF",
"U 	c #FFFFFF",
"V 	c #FFFFFF",
"W 	c #FFFFFF",
"X 	c #FFFFFF",
"Y 	c #FFFFFF",
"Z 	c #FFFFFF",
"` 	c #FFFFFF",
" .	c #FFFFFF",
"..	c #FFFFFF",
"+.	c #FFFFFF",
"@.	c #FFFFFF",
"#.	c #FFFFFF",
"$.	c #FFFFFF",
"%.	c #FFFFFF",
"&.	c #FFFFFF",
"*.	c #FFFFFF",
"=.	c #FFFFFF",
"-.	c #FFFFFF",
";.	c #FFFFFF",
">.	c #FFFFFF",
",.	c #FFFFFF",
"'.	c #FFFFFF",
").	c #FFFFFF",
"!.	c #FFFFFF",
"~.	c #FFFFFF",
"{.	c #FFFFFF",
"].	c #FFFFFF",
"^.	c #FFFFFF",
"/.	c #FFFFFF",
"(.	c #FFFFFF",
"_.	c #FFFFFF",
":.	c #FFFFFF",
"<.	c #FFFFFF",
"[.	c #FFFFFF",
"}.	c #FFFFFF",
"|.	c #FFFFFF",
"1.	c #FFFFFF",
"2.	c #FFFFFF",
"3.	c #FFFFFF",
"4.	c #FFFFFF",
"5.	c #FFFFFF",
"6.	c #FFFFFF",
"7.	c #FFFFFF",
"8.	c #FFFFFF",
"9.	c #FFFFFF",
"0.	c #FFFFFF",
"a.	c #FFFFFF",
"b.	c #FFFFFF",
"c.	c #FFFFFF",
"d.	c #FFFFFF",
"e.	c #FFFFFF",
"f.	c #FFFFFF",
"g.	c #FFFFFF",
"h.	c #FFFFFF",
"i.	c #FFFFFF",
"j.	c #FFFFFF",
"k.	c #FFFFFF",
"l.	c #FFFFFF",
"m.	c #FFFFFF",
"n.	c #FFFFFF",
"o.	c #FFFFFF",
"p.	c #FFFFFF",
"q.	c #FFFFFF",
"r.	c #FFFFFF",
"s.	c #FFFFFF",
"t.	c #FFFFFF",
"u.	c #FFFFFF",
"v.	c #FFFFFF",
"w.	c #FFFFFF",
"x.	c #FFFFFF",
"y.	c #FFFFFF",
"z.	c #FFFFFF",
"A.	c #FFFFFF",
"B.	c #FFFFFF",
"C.	c #FFFFFF",
"D.	c #FFFFFF",
"E.	c #FFFFFF",
"F.	c #FFFFFF",
"G.	c #FFFFFF",
"H.	c #FFFFFF",
"I.	c #FFFFFF",
"J.	c #FFFFFF",
"K.	c #FFFFFF",
"L.	c #FFFFFF",
"M.	c #FFFFFF",
"N.	c #FFFFFF",
"O.	c #FFFFFF",
"P.	c #FFFFFF",
"Q.	c #FFFFFF",
"R.	c #FFFFFF",
"S.	c #FFFFFF",
"T.	c #FFFFFF",
"U.	c #FFFFFF",
"V.	c #FFFFFF",
"W.	c #FFFFFF",
"X.	c #FFFFFF",
"Y.	c #FFFFFF",
"Z.	c #FFFFFF",
"`.	c #FFFFFF",
" +	c #FFFFFF",
".+	c #FFFFFF",
"++	c #FFFFFF",
"@+	c #FFFFFF",
"#+	c #FFFFFF",
"$+	c #FFFFFF",
"%+	c #FFFFFF",
"&+	c #FFFFFF",
"*+	c #FFFFFF",
"=+	c #FFFFFF",
"-+	c #FFFFFF",
";+	c #FFFFFF",
">+	c #FFFFFF",
",+	c #FFFFFF",
"'+	c #FFFFFF",
")+	c #FFFFFF",
"!+	c #FFFFFF",
"~+	c #FFFFFF",
"{+	c #FFFFFF",
"]+	c #FFFFFF",
"^+	c #FFFFFF",
"/+	c #FFFFFF",
"(+	c #FFFFFF",
"_+	c #FFFFFF",
":+	c #FFFFFF",
"<+	c #FFFFFF",
"[+	c #FFFFFF",
"}+	c #FFFFFF",
"|+	c #FFFFFF",
"1+	c #FFFFFF",
"2+	c #FFFFFF",
"3+	c #FFFFFF",
"4+	c #FFFFFF",
"5+	c #FFFFFF",
"6+	c #FFFFFF",
"7+	c #FFFFFF",
"8+	c #FFFFFF",
"9+	c #FFFFFF",
"0+	c #FFFFFF",
"a+	c #FFFFFF",
"b+	c #FFFFFF",
"c+	c #FFFFFF",
"d+	c #FFFFFF",
"e+	c #FFFFFF",
"f+	c #FFFFFF",
"g+	c #FFFFFF",
"h+	c #FFFFFF",
"i+	c #FFFFFF",
"j+	c #FFFFFF",
"k+	c #FFFFFF",
"l+	c #FFFFFF",
"m+	c #FFFFFF",
"n+	c #FFFFFF",
"o+	c #FFFFFF",
"p+	c #FFFFFF",
"q+	c #FFFFFF",
"r+	c #FFFFFF",
"s+	c #FFFFFF",
"t+	c #FFFFFF",
"u+	c #FFFFFF",
"v+	c #FFFFFF",
"w+	c #FFFFFF",
"x+	c #FFFFFF",
"y+	c #FFFFFF",
"z+	c #FFFFFF",
"A+	c #FFFFFF",
"B+	c #FFFFFF",
"C+	c #FFFFFF",
"D+	c #FFFFFF",
"E+	c #FFFFFF",
"F+	c #FFFFFF",
"G+	c #FFFFFF",
"H+	c #FFFFFF",
"g a a a a a a a a a a a a a a a a a a a a a a a a a a a a a a g ",
"a 5 5 1 1 1 1 1 1 1 1 1 1 1 1 1 1 1 1 1 1 1 1 1 1 1 1 1 1 5 5 a ",
"a 5 5 / ^ ^ ^ ^ ^ ^ ^ ^ ^ ^ ^ ^ ^ ^ ^ ^ ^ ^ ^ ^ ^ ^ ^ ^ / 5 5 a ",
"a 5 5 # + + + + + + + + + + + + + + + + + + + + + + + + # 5 5 a ",
"a 5 5 } } } } } } } } } } } } } } } } } } } } } } } } } } 5 5 a ",
"a 5 5 ! , , , , , , , , , , , , , , , , , , , , , , , , ! 5 5 a ",
"a 5 5 - & & & & & & & & & & & & & & & & & & * & & & & & - 5 5 a ",
"a 5 5 ( { { { { { { { { { { { { { ^ : ( ] { { { { ] ( : : 5 5 a ",
"a 5 5 ! 4 c c c c c c c c c c c c { , ] 4 c h g c 4 ^ ; & 5 5 a ",
"a 5 5 { 8 i i i i i i i i i i i i { ] d i i i i i i 2 ! ) 5 5 a ",
"a 5 5 ] 1 7 7 7 7 g i h 7 7 7 7 7 { 4 i i c 2 2 9 i ^ ] / 5 5 a ",
"a 5 5 & , , , , ~ a i g { ' , , , { c i h ^ , ; ~ ( ! @ # 5 5 a ",
"a 5 5 [ [ [ [ [ ] a i g { : [ [ < { e i f ] ( [ < ( : [ [ 5 5 a ",
"a 5 5 ! , , , , ~ a i g { , , , , ~ 8 i i 7 ] ~ , , , , ! 5 5 a ",
"a 5 5 - & & & & ~ a i g { & & & & , ( h i i e [ ~ , & & - 5 5 a ",
"a 5 5 : : : : : { a i g { ^ { { { ] { < g i i i a ( ] : : 5 5 a ",
"a 5 5 & $ $ $ $ ~ a i a { < a c 6 8 < { ] 4 h i i h ( ; & 5 5 a ",
"a 5 5 ) ) ) ) ) { a f ^ 4 i 9 ] { : h 4 ~ ~ ( a i i c { ! 5 5 a ",
"a 5 5 / ^ ^ ^ ^ { a 4 < i 0 { ] ^ { 1 c { ^ ] ] e i i ^ ^ 5 5 a ",
"a 5 5 # + + + + ~ a < 6 i _ * + @ ; { d ] ; + , 4 i i < - 5 5 a ",
"a 5 5 [ [ [ [ [ ] a | < h : ^ : ^ _ 9 4 6 { ] { 9 i i ^ : 5 5 a ",
"a 5 5 ! , , , , ~ a | 2 } a : { { c e h 7 ] 3 e i i 9 { ! 5 5 a ",
"a 5 5 - & & & & ~ a 4 [ 4 i g 7 { c d i a ] h i i a ^ ; - 5 5 a ",
"a 5 5 : : : : : ] 3 4 { c i i e _ d a i 2 < 0 7 [ { ^ : : 5 5 a ",
"a 5 5 & $ $ $ $ * ' ! ~ 6 i i e } a 8 e ] ~ ~ ! ; % $ $ & 5 5 a ",
"a 5 5 ) ) ) ) ) ) ) ) ! 1 i i g : < e } ~ ) ) ) ) ) ) ) ) 5 5 a ",
"a 5 5 / ^ ^ ^ ^ ^ ^ ^ ] { 3 h 6 { { { { ^ ^ ^ ^ ^ ^ ^ ^ / 5 5 a ",
"a 5 5 + . . . . . . . . @ , { ~ # . . . . . . . . . . . + 5 5 a ",
"a 5 5 [ [ [ [ [ [ [ [ [ [ [ : < [ [ [ [ [ [ [ [ [ [ [ [ [ 5 5 a ",
"a 5 5 ! , , , , , , , , , , , , , , , , , , , , , , , , ! 5 5 a ",
"a 5 5 > = = = = = = = = = = = = = = = = = = = = = = = = > 5 5 a ",
"h g g g g g g g g g g g g g g g g g g g g g g g g g g g g g g h "};
