/* XPM */
static char *tents[] = {
/* columns rows colors chars-per-pixel */
"48 48 150 2",
"   c #4D4C4A",
".  c #5A5957",
"X  c #5D5C5A",
"o  c #605F5D",
"O  c #62615F",
"+  c #636360",
"@  c #71706E",
"#  c #797875",
"$  c #00AD00",
"%  c #03B302",
"&  c #08B405",
"*  c #0FB60B",
"=  c #11B60D",
"-  c #2E9700",
";  c #289A00",
":  c #3C9200",
">  c #648F47",
",  c #6C8957",
"<  c #6D8958",
"1  c #659047",
"2  c #69914E",
"3  c #718B5C",
"4  c #748864",
"5  c #7EBA55",
"6  c #47D232",
"7  c #4CD436",
"8  c #54D737",
"9  c #51D138",
"0  c #56D93D",
"q  c #58D63E",
"w  c #5AD93C",
"e  c #5DDB41",
"r  c #62DC44",
"t  c #66DE48",
"y  c #6ADA46",
"u  c #6BDE4C",
"i  c #72DD4C",
"p  c #7BD94D",
"a  c #6CE149",
"s  c #71E24E",
"d  c #71E150",
"f  c #79E152",
"g  c #A05601",
"h  c #A55902",
"j  c #8B9C7D",
"k  c #85BE5E",
"l  c #86BE60",
"z  c #89BE63",
"x  c #91A97E",
"c  c #94B37C",
"v  c #A4BF47",
"b  c #86C05E",
"n  c #85C162",
"m  c #8AC162",
"M  c #88CA68",
"N  c #90C366",
"B  c #92C568",
"V  c #95D071",
"C  c #89E85D",
"Z  c #9BF56F",
"A  c #9DF670",
"S  c #A6C24B",
"D  c #A2CF4F",
"F  c #B6DD6B",
"G  c #BCE04E",
"H  c #BBE253",
"J  c #BAE659",
"K  c #B9E95E",
"L  c #A6FB6C",
"P  c #A9F26C",
"I  c #A9FC6F",
"U  c #A5F673",
"Y  c #A1F973",
"T  c #AEF474",
"R  c #ABF679",
"E  c #ACFC75",
"W  c #AEFB7A",
"Q  c #B8EA75",
"!  c #B5F26C",
"~  c #B9F166",
"^  c #B0F374",
"/  c #B0F778",
"(  c #B2FD7E",
")  c #B9F07A",
"_  c #CDAC00",
"`  c #CBB302",
"'  c #C7BC15",
"]  c #C8BD14",
"[  c #C6C01A",
"{  c #C8C01B",
"}  c #C5C522",
"|  c #C3CD2C",
" . c #C3D236",
".. c #909687",
"X. c #93918E",
"o. c #919F83",
"O. c #969592",
"+. c #989693",
"@. c #9B9996",
"#. c #95AD81",
"$. c #98AE85",
"%. c #9AAE88",
"&. c #96B081",
"*. c #99B086",
"=. c #9BB088",
"-. c #9AB88D",
";. c #A4A29E",
":. c #A3B38E",
">. c #A6B390",
",. c #A6A4A1",
"<. c #A8A6A3",
"1. c #AAA8A4",
"2. c #AFAEAA",
"3. c #AAB0A1",
"4. c #B0AFAB",
"5. c #B6B5B0",
"6. c #BCBAB6",
"7. c #BFBDB9",
"8. c #AECB96",
"9. c #B6C6A6",
"0. c #B7C4A8",
"q. c #B8C3AA",
"w. c #ADFE84",
"e. c #B3FE80",
"r. c #B1FF88",
"t. c #B9FF85",
"y. c #B9FF88",
"u. c #C2C1BC",
"i. c #C5EDA6",
"p. c #C6EDA8",
"a. c #C7C5C0",
"s. c #C9C7C3",
"d. c #CCCAC6",
"f. c #CECDC8",
"g. c #D1CFCA",
"h. c #D3D2CD",
"j. c #D7DBCD",
"k. c #D8DACF",
"l. c #D7D4D1",
"z. c #D9D6D3",
"x. c #DED6DB",
"c. c #DBD9D4",
"v. c #DEDAD9",
"b. c #D9E2CC",
"n. c #DBE1D0",
"m. c #E1DBDC",
"M. c #E5D9E4",
"N. c #E3E1DC",
"B. c #E9E7E1",
"V. c #EAE8E3",
/* pixels */
"c.c.c.v.c.c.c.c.c.c.c.c.c.c.c.c.c.c.c.c.c.c.c.c.c.c.c.c.c.c.c.c.c.c.c.c.c.c.c.c.c.c.c.c.c.m.k.c.",
"c.c.c.c.c.c.c.c.c.c.c.v.c.c.c.c.c.c.c.c.c.c.c.c.c.m.c.c.c.c.c.c.c.c.c.c.c.c.c.c.c.c.c.v.c.c.c.c.",
"c.c.c.c.c.c.c.c.c.c.c.c.c.c.c.c.c.c.c.c.c.c.c.c.c.c.c.c.c.c.c.c.c.c.c.c.c.c.c.c.c.c.c.c.k.c.c.c.",
"c.c.c.c.c.c.c.c.c.c.z.z.c.c.c.c.c.c.c.c.z.c.c.z.c.c.c.k.c.c.c.c.c.c.c.c.c.c.c.c.c.c.c.c.m.c.c.c.",
"c.c.k.m.m.m.m.m.m.m.m.m.m.m.m.m.v.v.m.m.m.m.m.m.m.m.m.m.m.m.m.v.v.v.m.m.m.c.c.c.c.c.c.c.c.c.c.c.",
"c.k.m.k.#.#.%.%.$.$.%.%.o.$.:.:.>.:.:.$.j %.%.$.%.%.%.*.j %.:.>.>.>.>.#.3.m.c.z.c.c.c.k.c.c.c.c.",
"c.c.c.j.k U R E E E E E 5 R s w 8 w u E 5 E E E E E E U 5 E u w 8 w s U #.v.k.c.c.c.m.c.c.c.c.v.",
"c.c.m.k.z R t.(  .( t.e.m R * $ $ $ & R B ( t.W  .t.t.t.m U & $ $ $ = E %.v.k.c.c.c.u.h.c.c.c.c.",
"c.c.c.j.z R r.J _ H w.( N u $ & $ & $ t B W r.G _ K r.W N t $ % $ & $ a :.c.c.c.m.u..   h.c.c.c.",
"c.c.m.n.z R t.[ _ ' ( ( N y $ & % & $ q B W W ] _ } e.W N q $ & % & $ r :.v.k.c.c.m.4.  s.v.c.c.",
"c.c.c.j.z w.J _ ` _ H r.k ( A i ; y Z ( k e.G _ ` ` K w.k ( Z y ; i Z E *.m.c.c.N.u.# @ h.c.c.c.",
"c.k.m.n.z W { _ ` _ ] ( k W y.Q g F y.( z W ' _ _ _ [ w.k ( y.F g Q y.E $.v.c.c.c.c.u.c.c.c.c.c.",
"c.c.k.n.m / ~ ~ ~ ~ ~ ( z W W W S U W e.z / ~ ~ ~ ~ ~ W z ( t.^ S T e.E $.m.c.c.c.c.n.c.c.c.c.c.",
"c.c.m.j.2 k n z n M n n > k N B V B B k > l n M M n n l > k b b M n m k j m.z.c.c.c.c.c.c.c.c.c.",
"c.c.m.j.z R ( ( W e.W W k W s q 9 q u ( k W W W W W W W k W W W R W W E #.m.c.c.c.c.m.n.c.c.c.c.",
"c.c.c.j.z W ( ( ( ( ( t.z R = $ $ $ & U z W t.( ( t.t.W b t.W t.t.W t.E $.m.c.c.c.c.u.h.c.c.c.c.",
"c.c.c.n.z W t.( ( W ( ( N u % $ & & $ r B W ( ( ( ( ( ( n ( ( ( W W t.E *.m.k.c.c.v.. +.B.c.c.c.",
"c.c.v.n.z R ( ( t.t.W W N t $ & % % $ e B W t.W ( ( ( ( l ( ( ( t.( ( E $.m.c.c.k.B.1.@.B.c.c.c.",
"c.c.c.k.z R W ( W ( ( t.n W U f - i A t.b W W t.( ( ( ( n ( ( ( W ( t.E $.m.c.z.c.v.+ . c.c.c.c.",
"c.c.v.n.z W t.( W ( ( ( z W t.Q g F y.W b W t.W ( ( e.( l ( ( ( t.W W E $.m.c.c.c.c.f.f.c.c.c.c.",
"c.c.c.n.l R t.W t.W t.( k W t./ S T W t.b W W t.t.W t.( l ( ( ( ( ( t.E $.m.c.c.c.c.c.v.c.c.c.c.",
"c.c.c.j.2 k k k b b k n > k k k M n k b > b b n b b k k > n k n l l n 5 j m.k.c.c.c.c.c.c.c.c.c.",
"c.c.c.n.z R ( W ( W W t.k ( ( ( / ( ( t.k ( ( ( W W ( ( z ( ( ( ( ( ( E $.v.k.c.c.c.m.c.c.c.c.c.",
"c.c.c.n.z E t.t.( t.W ( k ( e./ | ( ( ( b W t.W W t.( W b ( ( ( ( ( ( E $.m.c.z.c.c.6.h.c.c.c.c.",
"c.c.c.n.z W t.W t.W W t.b R r.H _ H r.( n ( W t.t.W ( ( n t.W t.t.W t.E *.m.c.c.c.m.X +.B.z.c.c.",
"c.c.c.n.z W t.W ( ( t.( k W W ] _ { ( ( k ( ( ( ( ( ( ( l W W W W t.W E *.m.c.c.k.V.<.@.V.c.c.c.",
"c.c.c.n.z W t.W t.W W t.k e.G _ ` _ H r.k ( ( ( ( ( t.( b W t.W ( W t.E $.m.c.c.c.c.o X z.c.c.c.",
"c.c.v.k.z R t.W W t.W W k ( ] ` ` ` { ( k ( W t.( ( W ( n t.W t.W t.W E $.m.c.z.c.c.h.h.c.c.c.c.",
"k.c.c.j.l W ( W W W W t.k W ! ! ~ ^ ~ ( k W ( W W W W W k W W t.W ( t.E $.m.k.c.c.c.c.m.c.c.c.c.",
"c.c.c.c.3 5 B B N B B z > k n n n n n l > b z b z b z k > b b b k z k 5 j m.z.c.c.c.c.c.c.c.c.c.",
"c.c.c.m.%.W u 7 6 9 e e.k W t.( ( W ( t.z ( ( ( ( t.W t.n ( W t.( ( t.E $.m.c.c.c.c.m.k.c.k.k.m.",
"c.c.c.M.%.U = $ $ $ $ A m W ( ( ( t.W W k ( ( ( ( W t.W k t.W W ( W ( E #.m.c.c.c.c.5.h.m.c.c.c.",
"c.c.c.v.:.a $ % & % $ 0 B W W t.t.W W t.b W t.W W ( t.W b W W t.W ( t.E $.m.c.c.c.c.O O.B.z.c.c.",
"c.v.c.m.:.u % & % & $ r N W W W W t.t.W z W W t.t.W ( ( b t.t.W ( ( W E #.m.z.c.c.V.<.+.B.c.c.c.",
"c.c.c.m.%.R W C : p E e.n ( t.W W W W t.b W W ( ( W ( ( k W W W t.W t.E $.m.c.c.c.c.O X z.c.c.c.",
"c.c.c.m.%.E y.) h F r.t.z W W t.t.( ( ( b t.t.W ( t.( ( b t.t.t.W W t.W $.v.c.c.c.c.h.z.c.c.c.c.",
"c.c.c.m.$.L W E D P E E 5 R W W ( ) W W k W ( ( W W W W k E E E W E W L &.m.c.c.c.c.m.c.c.c.c.c.",
"c.c.c.k.4 #.*.$.-.*.=.=.< b z z k k z b > k k k l l b b , %.&.*.*.*.*.x ..m.c.c.c.k.c.c.c.c.c.c.",
"c.c.z.b.x x.m.m.m.m.m.M.%.W t.( e.e.e.e.k e.e.e.t.t.t.W *.M.v.v.m.v.m.v.<.v.k.c.c.c.N.v.c.c.c.c.",
"c.c.z.b.c z.c.z.c.c.k.v.*.E ( W ( ( ( ( k ( ( ( W ( W W x v.c.c.c.c.c.h.;.c.c.c.c.c.4.d.c.c.c.c.",
"c.c.c.b.&.z.c.c.c.c.c.m.$.E t.W ( ( e.( m ( ( ( t.( t.E #.m.k.c.c.c.c.l.;.m.c.c.c.m.O @.B.z.c.c.",
"c.c.v.b.c z.k.c.c.c.c.m.#.I ( W W E ( E b W E T E E W I x m.c.m.c.c.c.z.;.c.c.c.c.B.;.X.B.c.c.c.",
"c.c.z.k.9.z.c.c.c.c.c.c.0.i.i.i.p.p.p.p.8.i.i.i.p.p.p.i.9.v.c.c.c.c.c.c.7.c.c.c.k.c.+.X.c.c.c.c.",
"c.c.c.c.m.c.c.c.c.c.c.c.v.x.x.m.m.x.x.m.m.m.m.m.x.v.v.m.m.c.c.c.c.c.c.c.N.k.c.c.c.c.N.N.c.c.c.c.",
"c.c.c.c.c.c.c.c.c.c.c.c.c.c.c.c.k.c.c.k.c.c.k.c.c.c.c.k.c.c.c.c.c.c.c.c.c.c.c.c.c.c.c.c.c.c.c.c.",
"c.c.c.c.c.c.c.c.m.k.c.c.c.c.c.c.m.c.c.k.c.k.m.c.c.c.c.c.c.c.c.c.c.c.c.c.c.c.c.c.c.c.c.k.c.c.c.c.",
"c.c.c.c.m.c.c.c.c.c.k.m.m.c.c.c.k.c.c.c.c.c.c.c.c.c.c.c.k.c.c.k.c.c.c.c.c.c.c.c.c.c.c.m.c.c.c.c.",
"c.c.c.c.c.k.c.m.c.k.c.c.c.c.k.c.c.c.m.k.c.m.c.k.m.c.c.c.m.c.c.m.c.k.m.c.m.c.c.c.c.c.c.c.c.c.c.c."
};
