/* XPM */
static char * texmaker22x22_xpm[] = {
"22 22 222 2",
"  	c None",
". 	c #878FB8",
"+ 	c #BABBCA",
"@ 	c #B7B9C9",
"# 	c #B4B6C8",
"$ 	c #B0B4C6",
"% 	c #ADB1C4",
"& 	c #BFC5DD",
"* 	c #BEC5DE",
"= 	c #BAC2DC",
"- 	c #B6BFDB",
"; 	c #B2BCD9",
"> 	c #A1ABC8",
", 	c #959FBB",
"' 	c #929CB9",
") 	c #9AA6C7",
"! 	c #99A8CA",
"~ 	c #8694B5",
"{ 	c #8290B2",
"] 	c #6B78A8",
"^ 	c #84879E",
"/ 	c #727274",
"( 	c #9C9B9E",
"_ 	c #131313",
": 	c #9C9DA1",
"< 	c #59595C",
"[ 	c #D2D3DA",
"} 	c #ECEEF5",
"| 	c #EAECF4",
"1 	c #E7EAF4",
"2 	c #E5E9F3",
"3 	c #CCD0DA",
"4 	c #535458",
"5 	c #161718",
"6 	c #CFD4E0",
"7 	c #D5DCE9",
"8 	c #454951",
"9 	c #717D96",
"0 	c #7C8AB6",
"a 	c #9799B3",
"b 	c #F5F3F8",
"c 	c #EFEFF2",
"d 	c #1D1D1E",
"e 	c #F3F4F9",
"f 	c #E6E7EC",
"g 	c #DCDDE2",
"h 	c #EEF0F7",
"i 	c #ECEFF6",
"j 	c #EBEDF5",
"k 	c #E9ECF4",
"l 	c #E7EBF4",
"m 	c #E0E3ED",
"n 	c #2D2E30",
"o 	c #A4A8B0",
"p 	c #B9BEC7",
"q 	c #808999",
"r 	c #A1B2D5",
"s 	c #7D8AB7",
"t 	c #AFB2D0",
"u 	c #F2F3F8",
"v 	c #F0F1F7",
"w 	c #E6E9F3",
"x 	c #B7BAC2",
"y 	c #232425",
"z 	c #75787E",
"A 	c #B3C1DD",
"B 	c #7D89B6",
"C 	c #AFB0CF",
"D 	c #C5C6CA",
"E 	c #1E1E1E",
"F 	c #78797C",
"G 	c #8B8D91",
"H 	c #6E6F73",
"I 	c #9EA0A5",
"J 	c #E4E8F2",
"K 	c #3E4043",
"L 	c #666970",
"M 	c #A6B6D7",
"N 	c #3A3A3C",
"O 	c #C8CAD0",
"P 	c #C5C7CE",
"Q 	c #A4A7AE",
"R 	c #A0A4AD",
"S 	c #15161A",
"T 	c #8C9AB6",
"U 	c #7D88B5",
"V 	c #AFAFCE",
"W 	c #EEEEF1",
"X 	c #1C1C1D",
"Y 	c #3B3B3D",
"Z 	c #B0B2B8",
"` 	c #CCCFD8",
" .	c #85888E",
"..	c #BBC6E0",
"+.	c #6C7689",
"@.	c #282C34",
"#.	c #9FB0D3",
"$.	c #7D86B4",
"%.	c #AEAECD",
"&.	c #A0A0A2",
"*.	c #0D0D0D",
"=.	c #C0C1C5",
"-.	c #7D7E81",
";.	c #515154",
">.	c #B8BCC3",
",.	c #99A1B4",
"'.	c #B0BDDB",
").	c #929FB9",
"!.	c #07080A",
"~.	c #474E5E",
"{.	c #7680AB",
"].	c #F7F7FA",
"^.	c #F5F5F9",
"/.	c #C2C4CA",
"(.	c #D4DBEB",
"_.	c #BFC8E1",
":.	c #B5C1DD",
"<.	c #ABBAD9",
"[.	c #7C85B3",
"}.	c #AEADCC",
"|.	c #E9EBF4",
"1.	c #D8DDEC",
"2.	c #A1A8BA",
"3.	c #BEC8E1",
"4.	c #BAC4DF",
"5.	c #7C84B2",
"6.	c #F2F0F7",
"7.	c #F2F1F7",
"8.	c #EFEFF6",
"9.	c #E9EAF3",
"0.	c #D1D3DE",
"a.	c #1E1E20",
"b.	c #7C7F89",
"c.	c #999EAD",
"d.	c #7C818E",
"e.	c #6B707C",
"f.	c #AC9385",
"g.	c #AA9388",
"h.	c #7C83B2",
"i.	c #AEACCB",
"j.	c #EFEDF5",
"k.	c #EAE9F3",
"l.	c #E5E5F1",
"m.	c #E0E2EF",
"n.	c #C8CAD8",
"o.	c #BBBECD",
"p.	c #B7BCCB",
"q.	c #B3B8CA",
"r.	c #AEB5C8",
"s.	c #AFA9B5",
"t.	c #BB8341",
"u.	c #BA8C5B",
"v.	c #DA9E3F",
"w.	c #D39B46",
"x.	c #AE8C6F",
"y.	c #A87F5A",
"z.	c #9DA8C8",
"A.	c #7C82B0",
"B.	c #AEABCB",
"C.	c #DBDEED",
"D.	c #D6DAEB",
"E.	c #D2D7E9",
"F.	c #CDD3E7",
"G.	c #C8CFE5",
"H.	c #C1C9E0",
"I.	c #C68C3D",
"J.	c #EFB84D",
"K.	c #F1BE5E",
"L.	c #F1BF63",
"M.	c #F0BC5A",
"N.	c #BA8C57",
"O.	c #AEAACA",
"P.	c #B9A9AA",
"Q.	c #C08C4A",
"R.	c #EEB549",
"S.	c #F1C268",
"T.	c #F5CA82",
"U.	c #F5CD8A",
"V.	c #F4C779",
"W.	c #D3A25C",
"X.	c #9F8882",
"Y.	c #7B7EAD",
"Z.	c #BFBCCB",
"`.	c #B68F6E",
" +	c #EAB24E",
".+	c #F3C673",
"++	c #F6D295",
"@+	c #F9D9AB",
"#+	c #F5CD88",
"$+	c #DDAB60",
"%+	c #A98164",
"&+	c #7A7EAC",
"*+	c #AEA9C9",
"=+	c #B3A8B1",
"-+	c #E4A744",
";+	c #F1C267",
">+	c #F5CA81",
",+	c #F5CD89",
"'+	c #AF8C73",
")+	c #7B7FAE",
"!+	c #AEA8C8",
"~+	c #B3A29E",
"{+	c #B59070",
"]+	c #B78E69",
"^+	c #E8B45B",
"/+	c #C6975F",
"(+	c #B59071",
"_+	c #A57A5D",
":+	c #978EB7",
"<+	c #EEECF4",
"[+	c #C3CCE3",
"}+	c #AB8367",
"|+	c #A8A6BA",
"1+	c #9FAFD3",
"2+	c #716EA0",
"3+	c #5D5383",
"4+	c #5E5586",
"5+	c #5E5584",
"6+	c #5D5584",
"7+	c #5D5384",
"8+	c #5B5384",
"9+	c #594E80",
"                                            ",
"                                            ",
"    . + @ # $ % & * = - ; > , ' ) ! ~ { ]   ",
"    ^ / ( _ : < [ } | 1 2 3 4 5 6 7 8 9 0   ",
"    a b c d e f g h i j k l m n o p q r s   ",
"    t b c d e u v h i j k l w x y z A r B   ",
"    C b c d e D E F G H I l w J K L M r B   ",
"    C b c d e u N O i j P l w Q R S T r U   ",
"    V b W X e u Y O i Z k l `  ...+.@.#.$.  ",
"    %.b &.*.=.u Y -.G ;.k >.n ,.'.).!.~.{.  ",
"    %.b ].^.e u Y O i /.l (._.:.'.<.M r [.  ",
"    }.b ].^.e u Y O |.1.2.3.4.:.'.<.M r 5.  ",
"    }.6.7.8.9.0.a.b.c.d.e.3.4.f.g.<.M r h.  ",
"    i.j.k.l.m.n.o.p.q.r.s.t.u.v.w.x.y.z.A.  ",
"    B.j.k.l.m.C.D.E.F.G.H.I.J.K.L.M.N.r A.  ",
"    O.j.k.l.m.C.D.E.F.P.Q.R.S.T.U.V.W.X.Y.  ",
"    O.j.k.l.m.C.D.E.F.Z.`. +.+++@+#+$+%+&+  ",
"    *+j.k.l.m.C.D.E.F.G.=+-+;+>+,+V.'+r )+  ",
"    !+j.k.l.m.C.D.E.F.G.~+{+]+^+/+(+_+r Y.  ",
"    :+<+k.l.m.C.D.E.F.G.[+3.4.}+|+<.M 1+2+  ",
"      3+4+4+5+5+5+5+6+7+7+7+7+7+7+8+8+9+    ",
"                                            "};

