/* XPM */
static char *dummy[]={
"32 32 110 2",
"Qt c #000000",
"#s c #010101",
"#e c #040404",
".g c #050505",
".U c #060606",
".Z c #0a0a0a",
"#t c #0b0b0b",
".i c #0d0d0d",
".W c #0e0e0e",
"#K c #0f0f0f",
"#w c #141414",
".a c #191919",
"#p c #1f1f1f",
"#L c #202020",
"#N c #242424",
"#m c #252525",
"#h c #282828",
".F c #2b2b2b",
"#M c #2e2e2e",
".q c #313131",
".z c #353535",
".L c #363636",
"#J c #373737",
"#k c #3c3c3c",
".C c #3d3d3d",
".w c #404040",
".G c #414141",
".h c #424242",
".0 c #434343",
"#G c #444444",
".2 c #454545",
".f c #484848",
".T c #4b4b4b",
".# c #4f4f4f",
".j c #515151",
".p c #535353",
".s c #555555",
".v c #565656",
"#a c #575757",
"#B c #595959",
"#b c #5b5b5b",
"#n c #5c5c5c",
"#c c #5f5f5f",
"#z c #606060",
".8 c #616161",
"#y c #626262",
"#o c #656565",
"#F c #666666",
".J c #696969",
".6 c #6c6c6c",
".k c #6e6e6e",
"#I c #707070",
".H c #737373",
".4 c #757575",
".t c #797979",
".V c #7a7a7a",
"#f c #7b7b7b",
".Q c #808080",
".B c #828282",
".N c #848484",
".b c #868686",
"## c #8e8e8e",
".o c #929292",
".y c #999999",
"#. c #9a9a9a",
".I c #9c9c9c",
"#H c #9d9d9d",
".S c #9e9e9e",
".1 c #a0a0a0",
".r c #a4a4a4",
"#R c #a8a8a8",
".l c #aaaaaa",
".K c #aeaeae",
".x c #afafaf",
"#j c #b3b3b3",
"#C c #b4b4b4",
".O c #b6b6b6",
"#D c #b8b8b8",
"#E c #b9b9b9",
".m c #bababa",
".n c #bbbbbb",
".c c #bcbcbc",
".d c #bebebe",
"#q c #c3c3c3",
"#O c #c5c5c5",
".X c #c8c8c8",
".7 c #c9c9c9",
"#l c #cacaca",
"#r c #d0d0d0",
"#u c #d2d2d2",
"#A c #d3d3d3",
".u c #d5d5d5",
"#g c #d6d6d6",
"#P c #dcdcdc",
".R c #dfdfdf",
".5 c #e7e7e7",
".P c #ebebeb",
"#Q c #ededed",
".9 c #efefef",
"#x c #f0f0f0",
".Y c #f1f1f1",
"#v c #f4f4f4",
"#i c #f5f5f5",
".A c #f6f6f6",
".D c #f8f8f8",
".3 c #f9f9f9",
".M c #fafafa",
".E c #fbfbfb",
"#d c #fdfdfd",
".e c #ffffff",
"QtQtQtQtQtQtQtQtQtQtQtQtQtQtQtQtQtQtQtQtQtQtQtQtQtQtQtQtQtQtQtQt",
"QtQtQtQtQtQtQtQtQtQtQtQtQt.#.aQtQtQtQtQtQtQtQtQtQtQtQtQtQtQtQtQt",
"QtQtQtQtQtQtQtQtQtQt.b.c.d.e.fQtQtQt.g.f.hQtQtQtQtQtQtQtQtQtQtQt",
"QtQtQtQtQtQtQt.i.j.k.l.m.n.o.p.j.j.q.r.e.sQtQtQtQtQtQtQtQtQtQtQt",
"QtQtQtQtQt.g.t.u.e.l.vQtQt.w.e.e.e.x.y.e.#QtQtQtQtQtQtQtQtQtQtQt",
"QtQtQtQt.z.A.e.B.C.D.e.E.b.F.G.H.I.J.K.e.sQtQtQtQtQtQtQtQtQtQtQt",
"QtQtQt.L.M.e.NQt.O.e.e.e.e.P.Q.R.SQt.T.j.aQtQtQtQtQtQtQtQtQtQtQt",
"QtQtQt.U.b.VQt.W.X.e.e.e.e.e.Y.Z.t.0.1QtQtQtQtQtQtQtQtQtQtQtQtQt",
"QtQtQtQtQt.C.2.X.e.e.e.e.e.e.3.UQtQtQtQtQtQtQtQtQtQtQtQtQtQtQtQt",
"QtQtQt.4.4.5.6.7.e.e.e.e.e.e.3.UQtQtQtQtQtQtQtQtQtQtQtQtQtQtQtQt",
"QtQt.8.6.9#.###a.e.e.e.e.e.e.3.UQtQtQtQtQtQtQtQtQtQtQtQtQtQtQtQt",
"Qt.i#b.q.6#c#d#e#f.e.e.e.e.e.3.UQtQtQtQtQtQtQtQtQtQtQtQtQtQtQtQt",
"Qt#g.e.A#h.0#i.UQt.N.e.e.e.e.3.UQtQtQtQtQtQtQtQtQtQtQtQtQtQtQtQt",
"Qt#j.A.Y#k#l#mQtQtQt#f.e.e.e.3.UQtQtQtQtQtQtQtQtQtQtQtQtQtQtQtQt",
"QtQt.0.y#n#o#pQtQtQtQt.N.M.e.e.UQtQt#q#r#r#r#r#r#r#r#r#r#r#r#qQt",
"QtQtQt#s#tQtQtQtQtQtQtQt.Z#u#u#eQtQt#v.e.e.e.e.e.e.e.e.e.e.e#vQt",
"QtQtQtQtQtQtQtQtQtQtQtQtQt#w#wQtQtQt#x.e.e.e.e.e.e.e.e.e.e.e#xQt",
"QtQtQtQtQtQtQtQtQtQtQtQtQtQtQtQtQtQt#n#y#y#z.S.e.e.e#A#y.8#y#nQt",
"QtQtQtQtQtQtQtQtQtQtQtQtQtQtQtQtQtQtQtQtQtQt#B.e.e.e#CQtQtQtQtQt",
"QtQtQtQtQtQtQtQtQtQtQtQtQtQtQtQtQtQtQtQtQtQt#y.e.e.e#DQtQtQtQtQt",
"QtQtQtQtQtQtQtQtQtQtQtQtQtQtQtQtQtQtQtQtQtQt#y.e.e.e#DQtQtQtQtQt",
"QtQtQtQtQtQtQtQtQtQtQtQtQtQtQtQtQtQtQtQtQtQt#y.e.e.e#DQtQtQtQtQt",
"QtQtQtQtQtQtQtQtQtQtQtQtQtQtQtQtQtQtQtQtQtQt#y.e.e.e#DQtQtQtQtQt",
"QtQtQtQtQtQtQtQtQtQtQtQtQtQtQtQtQtQtQtQtQtQt#y.e.e.e#DQtQtQtQtQt",
"QtQtQtQtQtQtQtQtQtQtQtQtQtQtQtQtQtQtQtQtQtQt#y.e.e.e#DQtQtQtQtQt",
"QtQtQtQtQtQtQtQtQtQtQtQtQtQtQtQtQtQtQtQtQtQt#y.e.e.e#EQtQtQtQtQt",
"QtQtQtQtQtQtQtQtQtQtQtQtQtQtQtQtQtQtQtQtQtQt#F.e.e.e.nQtQtQtQtQt",
"QtQtQtQtQtQtQtQtQtQtQtQtQtQtQtQtQtQtQtQtQtQt#G#H#I#a#JQtQtQtQtQt",
"QtQtQtQtQtQtQtQtQtQtQtQtQtQtQtQtQtQtQtQtQtQt#s#K#L#M#NQtQtQtQtQt",
"QtQtQtQtQtQtQtQtQtQtQtQtQtQtQtQtQtQtQtQtQtQt#G#O#P#Q#RQtQtQtQtQt",
"QtQtQtQtQtQtQtQtQtQtQtQtQtQtQtQtQtQtQtQtQtQtQtQtQtQtQtQtQtQtQtQt",
"QtQtQtQtQtQtQtQtQtQtQtQtQtQtQtQtQtQtQtQtQtQtQtQtQtQtQtQtQtQtQtQt"};
