/* XPM */
static char * tkcvs_xpm[] = {
"32 32 11 1",
" 	c None",
".	c #FFFFFF",
"+	c #C6C6C6",
"@	c #E3E3E3",
"#	c #717171",
"$	c #8E8E8E",
"%	c #AAAAAA",
"&	c #000000",
"*	c #393939",
"=	c #555555",
"-	c #1C1C1C",
"................................",
"................................",
"...+@@++@@+.@#+.................",
"..+$##$$##$+@#+.................",
"......##....+$$.................",
"......##....+$$...$$............",
"......$$....@#+.@#$+............",
"......$$....@#+.@#+.............",
"......##....+$$.$+..............",
"......##....+$$$$+..............",
"......$$....@#+.##+.............",
"......$$....@#+.@#+.............",
"......##....+$$.+$#@............",
"......##....+$$..+##............",
"................................",
"................................",
"................................",
"................................",
"....@%&&&&&%*&=....+-+@%&&&&&%..",
"....*&*%%%&%%&=....==.*&*%%%#%..",
"...=&*......+-*@..@*$.&&........",
"..+-*@.......=&%..%&..&&$.......",
"..%&=........=&#..#*..+-&&%@....",
"..%&=........+&&..&%...+&&&*$...",
"..%&=.........&&.+&%.....$*&&#..",
"..%&-+........#&$=*@......@%&&..",
"...=&#........%&**=.........&&..",
"...+&&$...++..@*&&+...=+...$&#..",
"....+=&&&&-+...=&&....&&&&&&$...",
"......%%%%+....+%%....%%%%%%....",
"................................",
"................................"};
