/* XPM */
static char * transfermii_gui_xpm[] = {
"48 40 821 2",
"  	c None",
". 	c #C8DEEB",
"+ 	c #92969B",
"@ 	c #615657",
"# 	c #544244",
"$ 	c #503F44",
"% 	c #605257",
"& 	c #717078",
"* 	c #BCD2EB",
"= 	c #C4D6EC",
"- 	c #CCDDF0",
"; 	c #3E2C32",
"> 	c #2B0708",
", 	c #2E0404",
"' 	c #2C0405",
") 	c #2C0703",
"! 	c #260B0D",
"~ 	c #A2ADCA",
"{ 	c #C1D6F5",
"] 	c #B3BACC",
"^ 	c #715643",
"/ 	c #D3B18B",
"( 	c #CDAA81",
"_ 	c #C9A882",
": 	c #D6B48E",
"< 	c #977A5F",
"[ 	c #757784",
"} 	c #C2DAF3",
"| 	c #7672B2",
"1 	c #8E8CAC",
"2 	c #8F96A1",
"3 	c #D0B187",
"4 	c #DDC08F",
"5 	c #EECF99",
"6 	c #F1D099",
"7 	c #E4C29C",
"8 	c #E2C69D",
"9 	c #6C6363",
"0 	c #C6DBF0",
"a 	c #8985C8",
"b 	c #9592E2",
"c 	c #ADA9DD",
"d 	c #BBB9DB",
"e 	c #BAB8DB",
"f 	c #BBB9D8",
"g 	c #BCB9D9",
"h 	c #BDBADA",
"i 	c #C0BDDD",
"j 	c #C1BFE2",
"k 	c #C4C1E5",
"l 	c #CAC7E8",
"m 	c #CAC8E9",
"n 	c #BCBCEB",
"o 	c #A3A0EA",
"p 	c #8078B5",
"q 	c #CECFD3",
"r 	c #B0B4B3",
"s 	c #C8AA88",
"t 	c #6C5044",
"u 	c #8B6E61",
"v 	c #A2876E",
"w 	c #65473B",
"x 	c #BA9E76",
"y 	c #94887E",
"z 	c #C9DEEF",
"A 	c #807BCA",
"B 	c #ADAEF8",
"C 	c #E0E3FB",
"D 	c #FCFCFF",
"E 	c #FFFFFF",
"F 	c #FDFDFE",
"G 	c #D2D4F4",
"H 	c #928FD6",
"I 	c #9894A7",
"J 	c #CECECB",
"K 	c #E5C28C",
"L 	c #DDBE91",
"M 	c #DDC197",
"N 	c #E9CCA0",
"O 	c #D8B491",
"P 	c #ECCD95",
"Q 	c #DBCCBB",
"R 	c #C8DDED",
"S 	c #837FC7",
"T 	c #9B9AEA",
"U 	c #D2D3F6",
"V 	c #F3F2FD",
"W 	c #FBFBFE",
"X 	c #FDFCFE",
"Y 	c #FDFDFF",
"Z 	c #FEFEFF",
"` 	c #FCFCFE",
" .	c #D6D7FE",
"..	c #A1A0E4",
"+.	c #A0A3C8",
"@.	c #CFCFCA",
"#.	c #E5C08F",
"$.	c #F4D09B",
"%.	c #AE9775",
"&.	c #B1977B",
"*.	c #D9C48B",
"=.	c #F5CE91",
"-.	c #E1D3BD",
";.	c #CADDEF",
">.	c #9796CB",
",.	c #7C73D6",
"'.	c #928CCB",
").	c #A09CC4",
"!.	c #A19DC6",
"~.	c #A19FC4",
"{.	c #A29FCB",
"].	c #A3A1CC",
"^.	c #A6A3CF",
"/.	c #A8A5D3",
"(.	c #ABA8D6",
"_.	c #AFACD7",
":.	c #AFACDA",
"<.	c #A8A5DE",
"[.	c #9A96DF",
"}.	c #7673B8",
"|.	c #CECFCC",
"1.	c #DEC08E",
"2.	c #F1CDA1",
"3.	c #857265",
"4.	c #806B66",
"5.	c #CBAF89",
"6.	c #F9CA96",
"7.	c #DCD6BD",
"8.	c #CBE1F0",
"9.	c #9E9ACE",
"0.	c #8A87A0",
"a.	c #C8C8CF",
"b.	c #C6C5CF",
"c.	c #C5C6CD",
"d.	c #C0C1D0",
"e.	c #BCBCCB",
"f.	c #B9BAC8",
"g.	c #B8BAC5",
"h.	c #B4B6C1",
"i.	c #B2B4BF",
"j.	c #B2B4C1",
"k.	c #B8BBC1",
"l.	c #B7B9C1",
"m.	c #B5B5C5",
"n.	c #C4C9CA",
"o.	c #D2D5D9",
"p.	c #D9E0E8",
"q.	c #D4C2A0",
"r.	c #F2CC9E",
"s.	c #94765C",
"t.	c #876850",
"u.	c #D7BB81",
"v.	c #ECD0AD",
"w.	c #D2DADC",
"x.	c #CBDFF3",
"y.	c #C3C4C5",
"z.	c #E9E9EA",
"A.	c #F6F8FA",
"B.	c #D6E5F6",
"C.	c #D7DFE1",
"D.	c #CEBE97",
"E.	c #DEC596",
"F.	c #E2C2A0",
"G.	c #E1CDA4",
"H.	c #D7DADF",
"I.	c #C7DCF7",
"J.	c #CEDDF4",
"K.	c #C8CCCF",
"L.	c #EDEEF0",
"M.	c #DAD6DC",
"N.	c #F9FAFB",
"O.	c #E8F0F6",
"P.	c #DEE3E7",
"Q.	c #ADAAA4",
"R.	c #B1A69B",
"S.	c #AFA7A1",
"T.	c #B1B0AF",
"U.	c #D2DBE4",
"V.	c #D2E5F5",
"W.	c #D8E5EE",
"X.	c #D0CFD7",
"Y.	c #A09FAC",
"Z.	c #9799A7",
"`.	c #9A9CAA",
" +	c #B8BCC0",
".+	c #BAB9BF",
"++	c #D9DBDE",
"@+	c #F2F1F2",
"#+	c #F5F3F5",
"$+	c #ECECEE",
"%+	c #FDFDFD",
"&+	c #FEFEFE",
"*+	c #BEBEC8",
"=+	c #BCC0CC",
"-+	c #ADB7C0",
";+	c #9FAEC3",
">+	c #9FB3C3",
",+	c #B1BDC8",
"'+	c #C2C4D0",
")+	c #363647",
"!+	c #272942",
"~+	c #3E425B",
"{+	c #8B8C98",
"]+	c #BDBCC3",
"^+	c #C3C7CE",
"/+	c #F2F5F7",
"(+	c #F9F9FA",
"_+	c #E4E5E7",
":+	c #E1E2E4",
"<+	c #F2F2F3",
"[+	c #C8C8D4",
"}+	c #B1B6C6",
"|+	c #8F98A2",
"1+	c #9FABBA",
"2+	c #B0BBC9",
"3+	c #BABDC9",
"4+	c #B3B1BE",
"5+	c #3F3C4F",
"6+	c #282947",
"7+	c #565876",
"8+	c #A1A0B1",
"9+	c #BBBBC2",
"0+	c #DFE2E7",
"a+	c #F2F3F3",
"b+	c #D7D8DA",
"c+	c #E5E6E8",
"d+	c #FAFAFB",
"e+	c #F4F1F0",
"f+	c #E7DDD6",
"g+	c #D7DAE2",
"h+	c #C2C8D4",
"i+	c #B5BAC5",
"j+	c #D9DCE8",
"k+	c #D4D7E3",
"l+	c #B0AFB9",
"m+	c #B5B3C0",
"n+	c #474659",
"o+	c #25243F",
"p+	c #5B5C77",
"q+	c #AAA8B6",
"r+	c #AF9F95",
"s+	c #B1AAAA",
"t+	c #CECED1",
"u+	c #F8F8F8",
"v+	c #D4D5D7",
"w+	c #E0DFE1",
"x+	c #DBCEC9",
"y+	c #D9C7BA",
"z+	c #E0D5CD",
"A+	c #D1D7E0",
"B+	c #B2B4C0",
"C+	c #D7D4E2",
"D+	c #B4B5C3",
"E+	c #9FA1AE",
"F+	c #B4B3BE",
"G+	c #5E6071",
"H+	c #58566A",
"I+	c #9A9AAB",
"J+	c #C7C6CC",
"K+	c #CDBCB2",
"L+	c #B39581",
"M+	c #9F938B",
"N+	c #BFBFC2",
"O+	c #F5F5F6",
"P+	c #DAD9DC",
"Q+	c #C1BEC1",
"R+	c #C6B6B0",
"S+	c #C7AEA0",
"T+	c #DAC4B8",
"U+	c #DED1C8",
"V+	c #E3DAD1",
"W+	c #E0DCD3",
"X+	c #D9DDE8",
"Y+	c #A2A9B7",
"Z+	c #A2ACBC",
"`+	c #8A9BAE",
" @	c #99ABBC",
".@	c #C0BEC7",
"+@	c #918F9E",
"@@	c #9B98A6",
"#@	c #C4C3CA",
"$@	c #C4B9AE",
"%@	c #B9A092",
"&@	c #A18773",
"*@	c #B5ABA5",
"=@	c #B8B8BC",
"-@	c #E0E0E3",
";@	c #D3D3D5",
">@	c #D3D0D3",
",@	c #B5ABA7",
"'@	c #AF9991",
")@	c #C1A595",
"!@	c #D7C0AC",
"~@	c #D9C8B8",
"{@	c #D7CCBE",
"]@	c #E2DACE",
"^@	c #DDDFE8",
"/@	c #8E9AAB",
"(@	c #466579",
"_@	c #81A5BB",
":@	c #93B1C2",
"<@	c #A9A8B0",
"[@	c #96959C",
"}@	c #B5B4B9",
"|@	c #B2B4BB",
"1@	c #C7C5C9",
"2@	c #FBFCFC",
"3@	c #ECECED",
"4@	c #C9C7C9",
"5@	c #BEB7B4",
"6@	c #A99B9B",
"7@	c #BFA99E",
"8@	c #B89D89",
"9@	c #C1A797",
"0@	c #CFBCAD",
"a@	c #DCCEC2",
"b@	c #DEDEE6",
"c@	c #9CA6BB",
"d@	c #7497B3",
"e@	c #96BCD9",
"f@	c #8CABBF",
"g@	c #D5D5D9",
"h@	c #CECDD3",
"i@	c #CFCFD1",
"j@	c #B4B6BA",
"k@	c #B6BCC1",
"l@	c #E6E8EA",
"m@	c #FBFBFB",
"n@	c #D2D1D3",
"o@	c #CBC0C0",
"p@	c #B4ADAC",
"q@	c #BBADA6",
"r@	c #B19481",
"s@	c #C7B0A1",
"t@	c #D7C6B7",
"u@	c #DED3C9",
"v@	c #A5B0BB",
"w@	c #95ACBF",
"x@	c #A2B6C9",
"y@	c #9BA9B6",
"z@	c #CDCDCE",
"A@	c #C2C0C8",
"B@	c #C8C8CC",
"C@	c #C9C8C9",
"D@	c #B4A69A",
"E@	c #AEA9AA",
"F@	c #B4BAC0",
"G@	c #CDD0D4",
"H@	c #FCFCFC",
"I@	c #F3F2F3",
"J@	c #CFC7C9",
"K@	c #C1BCBD",
"L@	c #BEB2AD",
"M@	c #B1998B",
"N@	c #B49784",
"O@	c #C1A795",
"P@	c #D0BEAF",
"Q@	c #DFD0C4",
"R@	c #E4DAD2",
"S@	c #B2B7BB",
"T@	c #C1C7CC",
"U@	c #BABEC4",
"V@	c #C7CACF",
"W@	c #B2B2B4",
"X@	c #ABABAD",
"Y@	c #ADACB2",
"Z@	c #B8AD9A",
"`@	c #B39B86",
" #	c #978A80",
".#	c #B7BABC",
"+#	c #BFC2C6",
"@#	c #EFEFF1",
"##	c #D1CFD3",
"$#	c #C3BEC3",
"%#	c #C7BFBD",
"&#	c #B5A499",
"*#	c #B59987",
"=#	c #B89D87",
"-#	c #C9B6A6",
";#	c #DAC7B9",
">#	c #E3D4C8",
",#	c #E5D9D0",
"'#	c #B0B0B2",
")#	c #B8B8B9",
"!#	c #B2A390",
"~#	c #C8AD97",
"{#	c #9F8D7D",
"]#	c #B2B1AD",
"^#	c #BABCC0",
"/#	c #D8D9DD",
"(#	c #EBEBEB",
"_#	c #DBDBDF",
":#	c #C5C1C6",
"<#	c #CAC3C3",
"[#	c #C5B8B1",
"}#	c #B49D8B",
"|#	c #BCA28B",
"1#	c #C5B1A0",
"2#	c #D4C0B1",
"3#	c #D7C5B7",
"4#	c #DCCCBF",
"5#	c #DFD7CE",
"6#	c #BAAC9D",
"7#	c #C9B1A0",
"8#	c #C3AB9B",
"9#	c #9B9288",
"0#	c #BBBCBE",
"a#	c #C5C6CC",
"b#	c #EDEEEF",
"c#	c #CDCBCC",
"d#	c #CAC3C4",
"e#	c #CAC0BD",
"f#	c #B1A092",
"g#	c #C9B49E",
"h#	c #C6B2A0",
"i#	c #CFBAAD",
"j#	c #CAB8AA",
"k#	c #CEBDAF",
"l#	c #D9CFC3",
"m#	c #BEAEA0",
"n#	c #C7B19E",
"o#	c #CFB5A2",
"p#	c #928072",
"q#	c #ABA5A1",
"r#	c #BDBBC0",
"s#	c #D8D9DE",
"t#	c #CFCDCE",
"u#	c #C5BEBF",
"v#	c #C9C0BF",
"w#	c #B6A8A0",
"x#	c #C5B1A1",
"y#	c #CBB6A4",
"z#	c #C8B3A6",
"A#	c #C3B1A3",
"B#	c #CAB9AA",
"C#	c #D7CABC",
"D#	c #E1D7D0",
"E#	c #B39E8E",
"F#	c #BFA892",
"G#	c #CDB5A2",
"H#	c #CDB6A6",
"I#	c #B8A79B",
"J#	c #B7AEAB",
"K#	c #CECCCE",
"L#	c #E5E5E8",
"M#	c #DCDADC",
"N#	c #C6BFC0",
"O#	c #C9C3C3",
"P#	c #C6BBB7",
"Q#	c #AD998D",
"R#	c #CDB8A5",
"S#	c #C7B2A4",
"T#	c #C7B5A7",
"U#	c #CCBEAF",
"V#	c #DFD0C8",
"W#	c #E3D9D5",
"X#	c #D1DFF3",
"Y#	c #CBDDF5",
"Z#	c #CDDBEE",
"`#	c #C9D9F0",
" $	c #A4AEBD",
".$	c #AEBACC",
"+$	c #C2D7EF",
"@$	c #BFD7EC",
"#$	c #C2D0F8",
"$$	c #B4A193",
"%$	c #B09582",
"&$	c #BB9F8B",
"*$	c #C1AB9A",
"=$	c #CFBBAF",
"-$	c #C9B8A7",
";$	c #C1BABB",
">$	c #DCDCE2",
",$	c #E5E4E9",
"'$	c #CFCDD0",
")$	c #CDC8C9",
"!$	c #A1928A",
"~$	c #C7B1A0",
"{$	c #C9B3A3",
"]$	c #C8B3A5",
"^$	c #C4B1A4",
"/$	c #C8B7AA",
"($	c #D5C7BD",
"_$	c #DCD3CB",
":$	c #CEDEF2",
"<$	c #C9DBF5",
"[$	c #5C566A",
"}$	c #60505E",
"|$	c #311B1F",
"1$	c #39252B",
"2$	c #5C4E5A",
"3$	c #676F7B",
"4$	c #BBD3F9",
"5$	c #C5DEED",
"6$	c #A89587",
"7$	c #A1846F",
"8$	c #AA8D7A",
"9$	c #CEB2A7",
"0$	c #D4BFAF",
"a$	c #A9A4A1",
"b$	c #BBBDC2",
"c$	c #E1E2E7",
"d$	c #DAD8DC",
"e$	c #D2CED0",
"f$	c #C6C1C2",
"g$	c #B8ACA8",
"h$	c #A59184",
"i$	c #C6B0A0",
"j$	c #C3AEA0",
"k$	c #BFADA0",
"l$	c #C4B2A4",
"m$	c #D0BFB2",
"n$	c #DCCEC3",
"o$	c #DFD4CB",
"p$	c #D1DCE9",
"q$	c #959CAB",
"r$	c #463136",
"s$	c #290506",
"t$	c #260603",
"u$	c #250603",
"v$	c #29060A",
"w$	c #4D444A",
"x$	c #929EB6",
"y$	c #C8D8E9",
"z$	c #7E7CB0",
"A$	c #9691C9",
"B$	c #9B97CD",
"C$	c #9B98C7",
"D$	c #9F9DC9",
"E$	c #A2A0C8",
"F$	c #A6A5C6",
"G$	c #B0ABBF",
"H$	c #AEA0AA",
"I$	c #A69598",
"J$	c #96828C",
"K$	c #9B8993",
"L$	c #9E979F",
"M$	c #8684B9",
"N$	c #7B77C1",
"O$	c #D6D5E0",
"P$	c #C3C2C4",
"Q$	c #C0BFC1",
"R$	c #C6BEBD",
"S$	c #95837B",
"T$	c #C7B1A2",
"U$	c #BFAB9D",
"V$	c #BEAC9F",
"W$	c #C0AEA0",
"X$	c #C6B4A6",
"Y$	c #CFBDAF",
"Z$	c #DDCDBF",
"`$	c #E4DAD0",
" %	c #E6E0D8",
".%	c #DADCE5",
"+%	c #3E2930",
"@%	c #3F2216",
"#%	c #4A2A27",
"$%	c #4C2A2C",
"%%	c #4D2D29",
"&%	c #51322D",
"*%	c #45261A",
"=%	c #4C404A",
"-%	c #CEDBEC",
";%	c #817CC4",
">%	c #B6AEF8",
",%	c #D4D4FA",
"'%	c #E9EAFB",
")%	c #E9EAF9",
"!%	c #E8E7FB",
"~%	c #E8E5FB",
"{%	c #E6E3FA",
"]%	c #E3E0F7",
"^%	c #DAD5EB",
"/%	c #DAD8F2",
"(%	c #D9D7F6",
"_%	c #D6D4EE",
":%	c #CBCAF2",
"<%	c #AEACEE",
"[%	c #8481CB",
"}%	c #BCBAD1",
"|%	c #CFCCD0",
"1%	c #C8BFC2",
"2%	c #A89993",
"3%	c #C0AB9C",
"4%	c #C3AF9F",
"5%	c #BBA69A",
"6%	c #BBA69B",
"7%	c #BCA898",
"8%	c #BDA896",
"9%	c #C8B4A4",
"0%	c #DFD0C2",
"a%	c #E8DDD0",
"b%	c #E6DFD4",
"c%	c #E4DCD5",
"d%	c #D5E9EE",
"e%	c #756268",
"f%	c #9B7A6C",
"g%	c #957B63",
"h%	c #D2B88F",
"i%	c #CDAF8B",
"j%	c #997964",
"k%	c #9F7F6D",
"l%	c #837988",
"m%	c #D0DFF4",
"n%	c #A199DE",
"o%	c #DAD6F7",
"p%	c #E0E0F8",
"q%	c #AEABF8",
"r%	c #7670C9",
"s%	c #AEACBE",
"t%	c #C6BEC2",
"u%	c #C3B8B5",
"v%	c #B2A093",
"w%	c #C4B09F",
"x%	c #BAA496",
"y%	c #B6A094",
"z%	c #B5A08E",
"A%	c #B6A18C",
"B%	c #BEAA97",
"C%	c #C6B5A1",
"D%	c #D3C4B1",
"E%	c #E0D3C1",
"F%	c #E4D7CC",
"G%	c #E4DBD0",
"H%	c #E4DFD7",
"I%	c #D7EBF3",
"J%	c #70616C",
"K%	c #B8967D",
"L%	c #997864",
"M%	c #DDBF94",
"N%	c #DDBD93",
"O%	c #B4947F",
"P%	c #787685",
"Q%	c #CBDFF1",
"R%	c #8683B5",
"S%	c #B6B3F6",
"T%	c #E2DEFD",
"U%	c #FCFBFE",
"V%	c #FBFAFF",
"W%	c #F9F8FF",
"X%	c #F7F6FF",
"Y%	c #F5F3FF",
"Z%	c #F4F2FE",
"`%	c #F4F2FF",
" &	c #E6E5FB",
".&	c #BEBBF3",
"+&	c #8682D3",
"@&	c #807CA4",
"#&	c #BDBDC4",
"$&	c #C2BEC0",
"%&	c #BEB7BA",
"&&	c #B5A89F",
"*&	c #C6B1A1",
"=&	c #BCA794",
"-&	c #BAA596",
";&	c #B49F8A",
">&	c #B8A48D",
",&	c #BEA995",
"'&	c #C3AE97",
")&	c #CBB8A3",
"!&	c #D1C0AC",
"~&	c #D7C8B8",
"{&	c #DECDBE",
"]&	c #E1D6CC",
"^&	c #DAE7F1",
"/&	c #948A8D",
"(&	c #DFBE8F",
"_&	c #EECC9D",
":&	c #D4B38D",
"<&	c #DFC597",
"[&	c #ECCC99",
"}&	c #DCBF98",
"|&	c #969AA6",
"1&	c #CEE2F1",
"2&	c #8178C3",
"3&	c #9792D6",
"4&	c #9E9AD4",
"5&	c #9F9BCF",
"6&	c #9D99CF",
"7&	c #9C98C9",
"8&	c #9A97C6",
"9&	c #9996C3",
"0&	c #9793C5",
"a&	c #9793C6",
"b&	c #9693C5",
"c&	c #9697BC",
"d&	c #807BD1",
"e&	c #6D66C7",
"f&	c #868BA0",
"g&	c #C4C4CD",
"h&	c #D1D4D6",
"i&	c #D0D0D2",
"j&	c #C1BDC4",
"k&	c #BAB2AB",
"l&	c #C2AC9D",
"m&	c #BDA992",
"n&	c #B7A492",
"o&	c #BBA791",
"p&	c #C3AF97",
"q&	c #C3AE99",
"r&	c #CCB4A1",
"s&	c #CAB4A3",
"t&	c #CAB6A6",
"u&	c #CEBCA9",
"v&	c #D4BEAD",
"w&	c #D6C5B8",
"x&	c #DCE5F4",
"y&	c #D9DFE7",
"z&	c #DDC49B",
"A&	c #ECCB95",
"B&	c #D2B28C",
"C&	c #D5B98E",
"D&	c #ECCC92",
"E&	c #E4D4B0",
"F&	c #CAD9ED",
"G&	c #D2D2D8",
"H&	c #BBB9CB",
"I&	c #BBBDC4",
"J&	c #B9BBC0",
"K&	c #B6B7C1",
"L&	c #B8B9C8",
"M&	c #BCBDCC",
"N&	c #BFC0CC",
"O&	c #C3C5CD",
"P&	c #C4C7C9",
"Q&	c #C8C9CB",
"R&	c #BFBBBA",
"S&	c #BAB3B2",
"T&	c #9A96AB",
"U&	c #9F9FBB",
"V&	c #C1C1C1",
"W&	c #E0DFE3",
"X&	c #DCDEE3",
"Y&	c #BEC0C6",
"Z&	c #CAC7C9",
"`&	c #AA988E",
" *	c #BA9F8A",
".*	c #BCA48E",
"+*	c #B29C8B",
"@*	c #B29B89",
"#*	c #C6B19A",
"$*	c #CEBBA4",
"%*	c #CBBAA4",
"&*	c #C8B8A4",
"**	c #CAB6A2",
"=*	c #CCBBAB",
"-*	c #D0BCAD",
";*	c #DDE5F6",
">*	c #D5E6F6",
",*	c #D8D1C5",
"'*	c #DCC39B",
")*	c #BDA179",
"!*	c #C8AA83",
"~*	c #E4CDA6",
"{*	c #DAD8D2",
"]*	c #C7DAF8",
"^*	c #B9B7B6",
"/*	c #BEBBC0",
"(*	c #D1D0D5",
"_*	c #E1E1E5",
":*	c #CFCDCD",
"<*	c #A39790",
"[*	c #A2887A",
"}*	c #B1927C",
"|*	c #B2987E",
"1*	c #AE927D",
"2*	c #AD927D",
"3*	c #AB947C",
"4*	c #B39E85",
"5*	c #C2AE9C",
"6*	c #D4C2B1",
"7*	c #D3C3B3",
"8*	c #D0BEAA",
"9*	c #CBBCAB",
"0*	c #CDBAAA",
"a*	c #DFEAF1",
"b*	c #DFE7EF",
"c*	c #D9D2BC",
"d*	c #756956",
"e*	c #AA9986",
"f*	c #E6E1CD",
"g*	c #D9E0EB",
"h*	c #D3DEF1",
"i*	c #B3B3B4",
"j*	c #ABABAC",
"k*	c #ABAAAC",
"l*	c #C7C7CA",
"m*	c #B09F92",
"n*	c #AA988A",
"o*	c #A28E7D",
"p*	c #A48E7B",
"q*	c #B09883",
"r*	c #B09882",
"s*	c #AF9B85",
"t*	c #B6A590",
"u*	c #C8B8A5",
"v*	c #D7C7B2",
"w*	c #D1C4B2",
"x*	c #CFBFAE",
"y*	c #BBAC9D",
"z*	c #B2A18E",
"A*	c #B09F89",
"B*	c #B19C85",
"C*	c #B19D89",
"D*	c #C0AD98",
"E*	c #CFC3B0",
"F*	c #D7C9B4",
"G*	c #BDB1A5",
"H*	c #B9A595",
"I*	c #BBA28F",
"J*	c #B89F8C",
"K*	c #BAA996",
"L*	c #CAB7A3",
"M*	c #C6B9B0",
"N*	c #BAA89A",
"O*	c #BCA592",
"P*	c #B9A594",
"Q*	c #BAA692",
"R*	c #BCAE9C",
"S*	c #B6A696",
"T*	c #B3A492",
"                                                                                                ",
"                                                  . + @ # $ % & * =                             ",
"                                                  - ; > , ' ) ! ~ {                             ",
"                                                  ] ^ / ( _ : < [ }                             ",
"                | 1                               2 3 4 5 6 7 8 9 0                             ",
"              a b c d e f g h i j k l m n o p q   r s t u v w x y z                             ",
"            A B C D E E E E E E E E E F G H I     J K L M N O P Q R                             ",
"            S T U V W D X Y Y Y Y Z E `  ...+.    @.#.$.%.&.*.=.-.;.                            ",
"              >.,.'.).!.~.{.].^./.(._.:.<.[.}.    |.1.2.3.4.5.6.7.8.                            ",
"                9.0.a.b.c.d.e.f.g.h.i.j.k.l.m.n.o.p.q.r.s.t.u.v.w.x.                            ",
"                                            y.z.A.B.C.D.E.F.G.H.I.J.                            ",
"                                          K.L.M.N.O.P.Q.R.S.T.U.V.W.                            ",
"                X.Y.Z.`. +                .+++@+#+$+%+&+                                        ",
"    *+=+-+;+>+,+'+)+!+~+{+                ]+^+/+(+_+:+<+                                        ",
"    [+}+|+1+2+3+4+5+6+7+8+                  9+0+a+b+c+d+e+f+                                    ",
"    g+h+i+j+k+l+m+n+o+p+q+                r+s+t+u+u+v+w+x+y+z+                                  ",
"      A+B+C+D+E+F+G+H+I+J+              K+L+M+N+O+%+P+Q+R+S+T+U+V+W+                            ",
"      X+Y+Z+`+ @.@+@@@#@              $@%@&@*@=@-@%+;@>@,@'@)@!@~@{@]@                          ",
"      ^@/@(@_@:@  <@[@}@                      |@1@2@3@4@5@6@7@8@9@0@a@                          ",
"      b@c@d@e@f@      g@h@i@                  j@k@l@m@n@o@p@q@)@r@s@t@u@                        ",
"        v@w@x@y@  z@A@B@C@                  D@E@F@G@H@I@J@K@L@M@N@O@P@Q@R@                      ",
"        S@T@U@V@W@X@Y@N+                  Z@`@ #.#+#@#d+##$#%#&#*#=#-#;#>#,#                    ",
"                  '#)#                    !#~#{#]#^#/#(#_#:#<#[#}#|#1#2#3#4#5#                  ",
"                                          6#7#8#9#0#a#b#3@c#d#e#f#g#h#i#j#k#l#                  ",
"                                          m#n#o#p#q#r#s#$+t#u#v#w#x#y#z#A#B#C#D#                ",
"                                          E#F#G#H#I#J#K#L#M#N#O#P#Q#R#S#T#T#U#V#W#              ",
"        X#Y#Z#`# $.$+$@$#$                $$%$&$*$=$-$;$>$,$'$)$v#!$~${$]$^$/$($_$              ",
"        :$<$[$}$|$1$2$3$4$5$                6$7$8$9$0$a$b$c$d$e$f$g$h$i$j$k$l$m$n$o$            ",
"        p$q$r$s$t$u$v$w$x$y$  z$A$B$C$D$E$F$G$H$I$J$K$L$M$N$O$P$Q$R$S$T$U$V$W$X$Y$Z$`$ %        ",
"        .%+%@%#%$%%%&%*%=%-%  ;%>%,%'%)%!%~%{%]%^%/%(%_%:%<%[%}%|%1%2%3%4%5%6%7%8%9%0%a%b%c%    ",
"        d%e%f%g%h%i%j%k%l%m%    n%o%Z E E E E E E E E E %+p%q%r%s%t%u%v%w%x%y%z%A%B%C%D%E%F%G%H%",
"        I%J%K%L%M%N%j%O%P%Q%  R%S%T%W U%V%V%W%X%Y%Z%`%V  &.&+&@&#&$&%&&&*&=&-&;&>&,&'&)&!&~&{&]&",
"        ^&/&(&_&:&<&[&}&|&1&  2&3&4&5&9.6&7&8&9&0&a&b&c&d&e&f&g&h&i&j&k&l&m&n&o&p&q&r&s&t&u&v&w&",
"        x&y&z&A&B&C&D&E&F&    G&H&I&J&K&L&M&N&O&P&Q&R&S&T&U&V&W&X&Y&Z&`& *.*+*@*;&#*$*%*&***=*-*",
"        ;*>*,*'*)*!*~*{*]*                                ^*/*(*_*:*<*[*}*|*1*2*3*4*5*6*7*8*9*0*",
"          a*b*c*d*e*f*g*h*                                i*j*k*l*      m*n*o*p*q*r*s*t*u*v*w*x*",
"                                                                                y*z*A*B*C*D*E*F*",
"                                                                                    G*H*I*J*K*L*",
"                                                                                      M*N*O*P*Q*",
"                                                                                          R*S*T*"};
