/* XPM */
static char *puzzle[] = {
/* columns rows colors chars-per-pixel */
"32 32 2 1",
"  c black",
". c #0098F8",
/* pixels */
"                                ",
"                                ",
"  ............  ..............  ",
"  ............  ..............  ",
"  ..        ..  ..          ..  ",
"  ..        ..  ..          ..  ",
"  ..  ....          ..........  ",
"  ..  ....          ..........  ",
"  ........  ....  ....  ..  ..  ",
"  ........  ....  ....  ..  ..  ",
"    ..  ..  ..    ..            ",
"    ..  ..  ..    ..            ",
"  ....  ..  ..  ..............  ",
"  ....  ..  ..  ..............  ",
"  ..    ..........          ..  ",
"  ..    ..........          ..  ",
"  ....  ..          ..........  ",
"  ....  ..          ..........  ",
"  ..        ......  ..  ..      ",
"  ..        ......  ..  ..      ",
"  ........  ..  ......  ......  ",
"  ........  ..  ......  ......  ",
"    ..      ..      ..      ..  ",
"    ..      ..      ..      ..  ",
"  ....  ......  ......  ......  ",
"  ....  ......  ......  ......  ",
"  ..    ..      ..      ..      ",
"  ..    ..      ..      ..      ",
"  ..  ........  ......  ......  ",
"  ..  ........  ......  ......  ",
"                                ",
"                                "
};
