/* XPM */
static char *treeview_xpm[] = {
"32 32 4 1",
"# c #000000000000",
"  c None",
"a c #FFFFFFFF0000",
"b c #808080808080",
"                                ",
"                                ",
"                                ",
"                                ",
"                                ",
"                                ",
"                                ",
"  #####       #####       ##### ",
" #aaa#b#     #aaa#b      #aaa#b ",
"#####bbb#   #####b      #####b  ",
" #aaa#bbb# #aaa#b      #aaa#b   ",
"  #aaa#bbb#aaa#b      #aaa#b    ",
"   #aaa#b#aaa#b      #aaa#b     ",
"    #aaa#aaa#b      #aaa#b      ",
"     #aaaaa#b#     #aaa#b       ",
"      #aaa#bbb#   #aaa#b        ",
"       #aaa#bbb# #aaa#b         ",
"        #aaa#bbb#aaa#b          ",
"         #aaa#b#aaa#b           ",
"          #aaa#aaa#b            ",
"           #aaaaa#b#            ",
"            #aaa#bbb#           ",
"             #aaa#bbb#          ",
"              #aaa#bbb#         ",
"               #aaa#bbb#        ",
"                #aaa#bbb#       ",
"                 #aaa#b#        ",
"                  #####         ",
"                                ",
"                                ",
"                                ",
"                                "};
