/* XPM */
static char *tree-ppuzzle[] = {
/* columns rows colors chars-per-pixel */
"32 32 2 1",
"  c black",
". c #0099FF",
/* pixels */
"                                ",
" ...... .......  ...... ....... ",
" .    . .     .  .    . .     . ",
" . ..     .....  . ..     ..... ",
" .... .. .. . .  .... .. .. . . ",
"  . . .  .        . . .  .      ",
" .. . . .......  .. . . ....... ",
" .  .....     .  .  .....     . ",
" .. .     .....  .. .     ..... ",
" .    ... . .    .    ... . .   ",
" .... . ... ...  .... . ... ... ",
"  .   .   .   .   .   .   .   . ",
" .. ... ... ...  .. ... ... ... ",
" .  .   .   .    .  .   .   .   ",
" . .... ... ...  . .... ... ... ",
"                                ",
"                                ",
" ...... .......  ...... ....... ",
" .    . .     .  .    . .     . ",
" . ..     .....  . ..     ..... ",
" .... .. .. . .  .... .. .. . . ",
"  . . .  .        . . .  .      ",
" .. . . .......  .. . . ....... ",
" .  .....     .  .  .....     . ",
" .. .     .....  .. .     ..... ",
" .    ... . .    .    ... . .   ",
" .... . ... ...  .... . ... ... ",
"  .   .   .   .   .   .   .   . ",
" .. ... ... ...  .. ... ... ... ",
" .  .   .   .    .  .   .   .   ",
" . .... ... ...  . .... ... ... ",
"                                "
};
