/* XPM */
static char * tuxpuck2_xpm[] = {
"32 32 535 2",
"  	c None",
". 	c #47A6C9",
"+ 	c #14AEEE",
"@ 	c #11ACED",
"# 	c #13A4E4",
"$ 	c #13A5E6",
"% 	c #2293C3",
"& 	c #1486B9",
"* 	c #28A2D6",
"= 	c #28AFE7",
"- 	c #26BAF6",
"; 	c #2DBDF7",
"> 	c #2EBBF5",
", 	c #2BB7F1",
"' 	c #25B1EC",
") 	c #1EADEA",
"! 	c #1FA8E2",
"~ 	c #2C9BC8",
"{ 	c #3D8EAD",
"] 	c #5796AD",
"^ 	c #1891C9",
"/ 	c #12A0E0",
"( 	c #24B3F0",
"_ 	c #39C4F9",
": 	c #48CDFB",
"< 	c #51D1FB",
"[ 	c #57D2FB",
"} 	c #5AD1FA",
"| 	c #55CFFA",
"1 	c #4DCBF9",
"2 	c #3EC2F6",
"3 	c #25B6F2",
"4 	c #17A5E3",
"5 	c #248EBD",
"6 	c #108CC6",
"7 	c #069FE3",
"8 	c #19B0F0",
"9 	c #38C4FA",
"0 	c #45CCFC",
"a 	c #4ACFFC",
"b 	c #4ED0FC",
"c 	c #58D3FC",
"d 	c #61D6FD",
"e 	c #64D6FC",
"f 	c #63D5FC",
"g 	c #3BC3F9",
"h 	c #1EB1EF",
"i 	c #0E9CDC",
"j 	c #2284B1",
"k 	c #14638A",
"l 	c #0690D4",
"m 	c #05A1E7",
"n 	c #0FAFF1",
"o 	c #23BBF8",
"p 	c #32C4FD",
"q 	c #38C8FE",
"r 	c #3DCAFE",
"s 	c #43CCFD",
"t 	c #49CFFC",
"u 	c #4CD0FC",
"v 	c #46CDFC",
"w 	c #3BC8FD",
"x 	c #26B9F5",
"y 	c #0FA4E6",
"z 	c #0C91D3",
"A 	c #2F8CB6",
"B 	c #0688CB",
"C 	c #0494DB",
"D 	c #039DE5",
"E 	c #07A8EC",
"F 	c #13B2F3",
"G 	c #1EB9F8",
"H 	c #26BDF9",
"I 	c #2BC0FB",
"J 	c #30C2FC",
"K 	c #33C4FD",
"L 	c #35C7FE",
"M 	c #35C5FD",
"N 	c #34C4FD",
"O 	c #2FC3FD",
"P 	c #25BCF9",
"Q 	c #0EA9EC",
"R 	c #0496DC",
"S 	c #2D80A6",
"T 	c #0D7FB7",
"U 	c #0391D8",
"V 	c #049AE1",
"W 	c #08A4E9",
"X 	c #10AEF0",
"Y 	c #15B5F6",
"Z 	c #1DBAF8",
"` 	c #28BEFA",
" .	c #2CC0FB",
"..	c #2DC2FD",
"+.	c #2ABFFA",
"@.	c #29BEFA",
"#.	c #27BEFA",
"$.	c #23BCFA",
"%.	c #0DAFF1",
"&.	c #049AE0",
"*.	c #148AC5",
"=.	c #0389D0",
"-.	c #06A3E8",
";.	c #0FACEF",
">.	c #14B4F5",
",.	c #1DB9F8",
"'.	c #25BDFA",
").	c #2AC0FC",
"!.	c #2DC1FC",
"~.	c #2CC2FD",
"{.	c #29BFFB",
"].	c #26BDFA",
"^.	c #22BBF9",
"/.	c #0DB0F3",
"(.	c #049CE2",
"_.	c #068DD0",
":.	c #038CD3",
"<.	c #0499DF",
"[.	c #0DADF0",
"}.	c #14B5F6",
"|.	c #20BBF9",
"1.	c #28BFFB",
"2.	c #2FC4FD",
"3.	c #34C0F6",
"4.	c #2597C5",
"5.	c #29BFFA",
"6.	c #26BEFA",
"7.	c #0CB0F3",
"8.	c #039DE4",
"9.	c #0796DB",
"0.	c #038FD6",
"a.	c #0495DB",
"b.	c #079EE3",
"c.	c #12ADEF",
"d.	c #1BB7F7",
"e.	c #2DC3FD",
"f.	c #31C5FE",
"g.	c #2792BD",
"h.	c #192425",
"i.	c #25ACE2",
"j.	c #2EC2FD",
"k.	c #2CC1FC",
"l.	c #21BBF9",
"m.	c #0CB0F2",
"n.	c #049FE5",
"o.	c #118FCD",
"p.	c #607B83",
"q.	c #0286CD",
"r.	c #038BD2",
"s.	c #0494DA",
"t.	c #11A1E2",
"u.	c #1887B5",
"v.	c #1DAAE3",
"w.	c #34C5FD",
"x.	c #30C4FD",
"y.	c #33C6FE",
"z.	c #247D9F",
"A.	c #050505",
"B.	c #2995BE",
"C.	c #32C5FD",
"D.	c #24BCF9",
"E.	c #0BB0F2",
"F.	c #03A0E6",
"G.	c #0C8FD0",
"H.	c #378CB0",
"I.	c #0285CC",
"J.	c #0595DB",
"K.	c #1297D5",
"L.	c #12252D",
"M.	c #146180",
"N.	c #31C5FD",
"O.	c #37C8FE",
"P.	c #2C95BC",
"Q.	c #020202",
"R.	c #2C9CC6",
"S.	c #34C6FE",
"T.	c #2EC3FD",
"U.	c #0CB2F4",
"V.	c #03A1E7",
"W.	c #048FD6",
"X.	c #068DD3",
"Y.	c #0285CD",
"Z.	c #0288CF",
"`.	c #0692D8",
" +	c #1496D1",
".+	c #05090B",
"++	c #196583",
"@+	c #46CEFD",
"#+	c #42C6F4",
"$+	c #22647C",
"%+	c #3AC2F3",
"&+	c #36C7FE",
"*+	c #27BFFB",
"=+	c #10B4F5",
"-+	c #03A3E9",
";+	c #0C90D3",
">+	c #3297C8",
",+	c #0284CB",
"'+	c #0994D8",
")+	c #18A0DB",
"!+	c #06151B",
"~+	c #2386AD",
"{+	c #4DCEF9",
"]+	c #5AD3F9",
"^+	c #52D2FB",
"/+	c #4DD2FB",
"(+	c #46CFFD",
"_+	c #3FCCFE",
":+	c #2DC2FC",
"<+	c #17B8F7",
"[+	c #04A4E9",
"}+	c #108FD0",
"|+	c #4995BA",
"1+	c #0384CB",
"2+	c #0996DA",
"3+	c #1CADEB",
"4+	c #2CB2E7",
"5+	c #4DBAD9",
"6+	c #99A777",
"7+	c #DEBC4C",
"8+	c #CBD17B",
"9+	c #80D1D1",
"0+	c #52D2FA",
"a+	c #4CD1FC",
"b+	c #35C6FD",
"c+	c #33C5FE",
"d+	c #1CBAF9",
"e+	c #05A6EB",
"f+	c #0383CA",
"g+	c #0999DD",
"h+	c #21B3EF",
"i+	c #51B7D1",
"j+	c #AB8232",
"k+	c #BD801A",
"l+	c #EEBB35",
"m+	c #EED04D",
"n+	c #EDCE4F",
"o+	c #AECC8F",
"p+	c #71D0D4",
"q+	c #4AD0FC",
"r+	c #3CCAFD",
"s+	c #39C8FE",
"t+	c #20BCFA",
"u+	c #08A8ED",
"v+	c #108ECF",
"w+	c #139DDA",
"x+	c #789C83",
"y+	c #C58720",
"z+	c #D38C1B",
"A+	c #E19D23",
"B+	c #FCC432",
"C+	c #FED436",
"D+	c #FED135",
"E+	c #FED138",
"F+	c #FAD03A",
"G+	c #BECC7C",
"H+	c #5BCEE9",
"I+	c #44CEFD",
"J+	c #26BEFB",
"K+	c #08A9ED",
"L+	c #0F8ECF",
"M+	c #438FB4",
"N+	c #0287CE",
"O+	c #0F8DC9",
"P+	c #998D51",
"Q+	c #DD9720",
"R+	c #F3AE2C",
"S+	c #F3B02D",
"T+	c #F6B42F",
"U+	c #FDC633",
"V+	c #FED235",
"W+	c #FEDC41",
"X+	c #FEDB42",
"Y+	c #FED13A",
"Z+	c #FCC136",
"`+	c #D3C562",
" @	c #55D0F3",
".@	c #2BC1FC",
"+@	c #0D8CCD",
"@@	c #398BB1",
"#@	c #0B84C2",
"$@	c #908C58",
"%@	c #DA941E",
"&@	c #EAA427",
"*@	c #F7B530",
"=@	c #F9B831",
"-@	c #FDC433",
";@	c #FED034",
">@	c #FEDE47",
",@	c #FDE755",
"'@	c #FEE34E",
")@	c #FED338",
"!@	c #FCBE35",
"~@	c #FDCF3D",
"{@	c #AED090",
"]@	c #2BC1FB",
"^@	c #048BD1",
"/@	c #0781C3",
"(@	c #6A8D7B",
"_@	c #E7A226",
":@	c #E39D23",
"<@	c #F2AD2C",
"[@	c #F8B731",
"}@	c #FBBC33",
"|@	c #FECD32",
"1@	c #FED93D",
"2@	c #FDEC5E",
"3@	c #FDEC5F",
"4@	c #FED93C",
"5@	c #FECC33",
"6@	c #F8B831",
"7@	c #D79D27",
"8@	c #CCA844",
"9@	c #33C2F7",
"0@	c #747E5C",
"a@	c #D49821",
"b@	c #EDAA29",
"c@	c #EAA326",
"d@	c #F2AE2C",
"e@	c #F8B730",
"f@	c #FECE34",
"g@	c #FEE552",
"h@	c #FDF066",
"i@	c #FEDD42",
"j@	c #FDCB32",
"k@	c #DDA328",
"l@	c #B07A1A",
"m@	c #C5891E",
"n@	c #9CAE7D",
"o@	c #07AAEE",
"p@	c #0390D7",
"q@	c #0389D1",
"r@	c #2488AF",
"s@	c #7D5E1E",
"t@	c #B57814",
"u@	c #D99722",
"v@	c #E29E23",
"w@	c #EEA929",
"x@	c #FDCB3A",
"y@	c #FDE758",
"z@	c #FEDD48",
"A@	c #F1BD30",
"B@	c #B6811D",
"C@	c #B87E1B",
"D@	c #C8861B",
"E@	c #C59938",
"F@	c #4DBFE2",
"G@	c #1BBAF9",
"H@	c #06ACEF",
"I@	c #0395DB",
"J@	c #028ED5",
"K@	c #0693D7",
"L@	c #1680B1",
"M@	c #7B5D1F",
"N@	c #A76D11",
"O@	c #B37A19",
"P@	c #C78A1F",
"Q@	c #E5AA2B",
"R@	c #ECBC39",
"S@	c #C79427",
"T@	c #B67F1E",
"U@	c #D4911F",
"V@	c #B57614",
"W@	c #7C7C53",
"X@	c #32ABD4",
"Y@	c #13B6F7",
"Z@	c #05AEF0",
"`@	c #0496DD",
" #	c #128FC8",
".#	c #0C7DB7",
"+#	c #4B6256",
"@#	c #99640F",
"##	c #C99324",
"$#	c #CE9625",
"%#	c #E9A92D",
"&#	c #E19C23",
"*#	c #AB7014",
"=#	c #4C7D7B",
"-#	c #0E9FE0",
";#	c #18B2F2",
">#	c #1BB9F8",
",#	c #13B7F7",
"'#	c #08B0F2",
")#	c #03A8EC",
"!#	c #03A0E7",
"~#	c #19A8E4",
"{#	c #0384CA",
"]#	c #037FC4",
"^#	c #306D7D",
"/#	c #815C19",
"(#	c #B27211",
"_#	c #D8931F",
":#	c #DE9821",
"<#	c #A57725",
"[#	c #317F97",
"}#	c #0596DC",
"|#	c #0CA7EA",
"1#	c #19B7F7",
"2#	c #1ABAF9",
"3#	c #14B7F7",
"4#	c #0FB4F6",
"5#	c #06AFF1",
"6#	c #25A9E2",
"7#	c #22B8F5",
"8#	c #0AA4E8",
"9#	c #0386CD",
"0#	c #0382C9",
"a#	c #0881C1",
"b#	c #267DA1",
"c#	c #487F82",
"d#	c #50807D",
"e#	c #1388C0",
"f#	c #0492D9",
"g#	c #1AB9F8",
"h#	c #18B9F8",
"i#	c #15B8F8",
"j#	c #05AAEB",
"k#	c #0686C1",
"l#	c #24A7DD",
"m#	c #30C1FA",
"n#	c #1FB5F3",
"o#	c #04A0E7",
"p#	c #0495DC",
"q#	c #038DD4",
"r#	c #038AD1",
"s#	c #08A1E5",
"t#	c #0CAEF1",
"u#	c #16B7F7",
"v#	c #1EBBF9",
"w#	c #21BCFA",
"x#	c #1DBAF9",
"y#	c #16B8F8",
"z#	c #0BB2F3",
"A#	c #03A4E6",
"B#	c #0387CD",
"C#	c #32A6D4",
"D#	c #2ABDF8",
"E#	c #39C7FD",
"F#	c #2DBFF9",
"G#	c #07A3E9",
"H#	c #09A0E4",
"I#	c #0B9FE3",
"J#	c #0DA0E3",
"K#	c #0EA3E5",
"L#	c #13A9E9",
"M#	c #1BB0EF",
"N#	c #21B8F6",
"O#	c #23BDFA",
"P#	c #26BFFB",
"Q#	c #28C0FC",
"R#	c #27BEFB",
"S#	c #24BDFB",
"T#	c #20BBFA",
"U#	c #10B5F5",
"V#	c #33ABDF",
"W#	c #20B7F4",
"X#	c #3AC8FD",
"Y#	c #1FB9F8",
"Z#	c #1AB4F3",
"`#	c #16B1F1",
" $	c #20B8F6",
".$	c #2ABCF7",
"+$	c #31BFF8",
"@$	c #37C2F9",
"#$	c #3EC6FA",
"$$	c #48CAFC",
"%$	c #45CCFD",
"&$	c #3CC9FD",
"*$	c #31C4FD",
"=$	c #2EC2FC",
"-$	c #20A9DF",
";$	c #32A7D7",
">$	c #1BADE8",
",$	c #3BC9FE",
"'$	c #35C6FE",
")$	c #30C1FB",
"!$	c #2CBFFA",
"~$	c #36C3FB",
"{$	c #79D9FD",
"]$	c #B4EAFD",
"^$	c #DAF4FD",
"/$	c #F3FBFE",
"($	c #F9FDFE",
"_$	c #FCFEFE",
":$	c #F9FCFE",
"<$	c #EBF9FE",
"[$	c #CAF0FD",
"}$	c #A1E4FD",
"|$	c #5ECFFC",
"1$	c #31C0FA",
"2$	c #22BBF8",
"3$	c #12B6F6",
"4$	c #40CBFD",
"5$	c #34BBED",
"6$	c #239CCC",
"7$	c #44A8D0",
"8$	c #24B3EC",
"9$	c #15B7F7",
"0$	c #37C7FE",
"a$	c #36C6FD",
"b$	c #5DD1FD",
"c$	c #D4F4FE",
"d$	c #FDFEFE",
"e$	c #FEFEFE",
"f$	c #F8FEFE",
"g$	c #F6FEFE",
"h$	c #F6FDFE",
"i$	c #F5FDFE",
"j$	c #F2FCFE",
"k$	c #BBE9FB",
"l$	c #3EBDF2",
"m$	c #12AFF0",
"n$	c #0DB0F2",
"o$	c #4BD0FC",
"p$	c #44CDFD",
"q$	c #3AAFDD",
"r$	c #17B6F5",
"s$	c #22BDFA",
"t$	c #29C0FC",
"u$	c #29C0FB",
"v$	c #3AC9FE",
"w$	c #6DD7FD",
"x$	c #E8F8FD",
"y$	c #F7FEFE",
"z$	c #FAFEFE",
"A$	c #F0FAFE",
"B$	c #EEF9FD",
"C$	c #F0F9FD",
"D$	c #C8EAF9",
"E$	c #24ACE5",
"F$	c #08A4E8",
"G$	c #13B4F4",
"H$	c #42CCFD",
"I$	c #4ED1FC",
"J$	c #4ACCF9",
"                        . + @ # $ %                             ",
"                  & * = - ; > , ' ) ! ~ {                       ",
"              ] ^ / ( _ : < [ } | 1 2 3 4 5                     ",
"              6 7 8 9 0 a b c d e f [ g h i j                   ",
"            k l m n o p q r s t u a v w x y z A                 ",
"            B C D E F G H I J K L M N O P Q R S                 ",
"            T U V W X Y Z P `  ...+.@.#.$.%.&.*.                ",
"            =.U &.-.;.>.,.'.).!.~.{.].].^./.(._.                ",
"            :.U <.m [.}.|.1.2.3.4.5.].6.|.7.8.9.                ",
"            =.0.a.b.c.d.).e.f.g.h.i.j.k.l.m.n.o.p.              ",
"            q.r.s.t.u.v.w.x.y.z.A.B.C.O D.E.F.G.H.              ",
"            I.=.J.K.L.M.O N.O.P.Q.R.S.T.'.U.V.W.X.              ",
"            Y.Z.`. +.+++C.r @+#+$+%+&+O *+=+-+;+>+              ",
"            ,+Z.'+)+!+~+q {+]+^+/+(+_+N.:+<+[+}+|+              ",
"            1+Z.2+3+4+5+6+7+8+9+0+a+(+b+c+d+e+}+|+              ",
"            f+Z.g+h+i+j+k+l+m+n+o+p+q+r+s+t+u+v+|+              ",
"            1+=.w+x+y+z+A+B+C+D+E+F+G+H+I+J+K+L+M+              ",
"            N+O+P+Q+R+S+T+U+V+W+X+Y+Z+`+ @.@E +@@@              ",
"            #@$@%@&@*@=@-@;@>@,@'@)@!@~@{@]@E ^@/@              ",
"            (@_@:@<@[@}@|@1@2@3@4@5@6@7@8@9@E :.Y.              ",
"            0@a@b@c@d@e@f@g@h@i@j@k@l@m@n@]@o@p@q@              ",
"            r@s@t@u@v@w@x@y@z@A@B@C@D@E@F@G@H@I@J@              ",
"            K@L@M@N@O@P@Q@R@S@T@U@V@W@X@,.Y@Z@(.`@              ",
"             #q@.#+#@#P@##$#%#&#*#=#-#;#>#,#'#)#!#              ",
"            ~#J.{#]#^#/#(#_#:#<#[#}#|#1#2#3#4#5#)#              ",
"          6#7#8#p@9#0#a#b#c#d#e#f#n.m.g#G@h#i#=+j#k#            ",
"          l#m#n#o#p#q#r#r.q#p@}#s#t#u#v#w#x#2#y#z#A#B#          ",
"        C#D#E#F#n G#H#I#J#K#L#M#N#O#P#Q#R#S#T#h#3#U#;.E.        ",
"      V#W#!.X#w.Y#Z#`# $.$+$@$#$$$%$&$S.*$..P#2#h#|.=$D#-$      ",
"    ;$>$x#1.,$'$)$!$~${$]$^$/$($_$:$<$[$}$|$1$2$3$>#I 4$5$6$    ",
"  7$8$9$h#P#b+0$a$b$c$d$e$e$e$d$_$f$g$h$i$j$k$l$m$n$P X#o$p$f.  ",
"  q$r$s$1.t$u$v$w$x$y$_$_$e$e$e$e$d$z$i$A$B$C$D$E$F$G$m#H$I$J$  "};
