/* XPM */
static char *magick[] = {
/* columns rows colors chars-per-pixel */
"48 48 21 1",
"  c Gray0",
". c #191919",
"X c Gray20",
"o c #00007f",
"O c #007f00",
"+ c #007f7f",
"@ c #7f0000",
"# c #7f7f00",
"$ c #4c4c4c",
"% c #666667",
"& c Gray50",
"* c Blue",
"= c Cyan",
"- c Red",
"; c Yellow",
": c Gray60",
"> c #b2b2b2",
", c Gray80",
"< c Gray90",
"1 c Gray100",
"2 c None",
/* pixels */
"22222222222222222222222:+22222222222222222222222",
"22222222222222222&X*;o+==>X222222222222222222222",
"222222222222222X*;X+ ..=, %<X&222222222222222222",
"2222222222222*#+*###&$@==.$;*X<X2222222222222222",
"22222222222X+*#$*;#;;X.=,.,;*;#*+222222222222222",
"2222222.Xo*##*$#=@#&%o;=,##X*;+*;+*X.X2222222222",
"2222222;;#*+#:*#*$#:#.@<=#;o+;*X;**;1&2222222222",
"222222+**;#*$+*##*#>#.X==@;**#*;oo;o+*X222222222",
"222222X+*+;*+#*;#*;##.$>=%;*+.*;*;<*=*+222222222",
"22222@#;;#*;*;+X;*;:#..==@;*#+*O*1*X;1;222222222",
"22222*=***+X#o;o$;-;;-#::$;;;o+*++X****+22222222",
"22222#@##X+X;*#;-;;..;#X$##;-;#*#*+*=*=*22222222",
"2222X####;-+.<;%;<<#,<;X#;>;;%;;>X;;;;-;.2222222",
"2222+****=*Xo;#.ooo%11<;,Xooo.;>.#XoXo*+*2222222",
"222&;;;;;-;+o#o;;;;#X;;>@;#;;#o,#oo+o++o+2222222",
"222.-;-;#;;;o;,:;:;;-:;;#;;<>;;,#;;-;;#;;&222222",
"222*=*****:##.;#X..%;;<;-$o .>;@;&;*******222222",
"222**=*=+$#;,@; ,  .;->#;.  X.#@:;;*=*=*=*222222",
"22%;;;#;-$;;;.&#@$&###<#:#&X.;;X;;:;;;;;-;.22222",
"22.*****=*#,-;,;;;;;#;<-#;;,;&;#;>;ooo.oOXO22222",
"22*++#$###:;1;,;:;-:-#<;;&;;-;>;,;>*+**+**=22222",
"2$;;;#;#;;@;;#,<-;;;;<;1-:;#;<,;>;#;;;;;;;;22222",
"2oo********;>#;<;;:;:@#X;;;-;,;#>;****oooo..2222",
"2*=*=*=*++X;#@#1,;;-;;##-;#;>;;-#;**=*=**=**2222",
"2;-;;;;;;-;$-X#1,;-;;-,;;&-;;>#.##;;;-;;;-;;%222",
"2;#Xooo**=**+*#;<>;;<1;@;;;:;;@ooXX.###@;;;;.222",
".**+*=*+XXO#;;;@;>,,<;;;>;-;;X#$$oo**********222",
";;;;;;-;;#$$o**;.;;;;#@@;;#;#oX#;;;;;;;;;;;;;222",
"Xoo********=***;.-,;:;;,;:;-$.******+oooXo.XX&22",
"*o+X$O#;;;;-;;;;o##<;:;<;-;.@;;;;#O+*+*=**=*+o22",
";;;;;;;-##X+Xo**+.@#;-;;:#.X#.#-;;;;-;;#;;###$22",
"*******=*+oXX#;;;###;>;;,;##.XX+o***=******=**&2",
"+X+O#;;-;;;##XXoo#;;%@&>$X;#@;#;;;;;;###+$o*=*+2",
"Xo+****+X.X#@#####,#$>=+%$;;.XXXoooo***=*o+#@#X2",
"2X.#;;;XXo+****X;#,;$:+>%$:;.X**+o+X$##;;#X*.2*2",
"222XooX@;#;;##O$-;,;X=:=%X#;@;;;;;-;;;;XooX222*2",
"22X:X#X+****+*+$;;>;.%$$:.#;.@****=****XOX,X22#2",
"2#,,;;#;;;#o++*$-;;,#+%+:X@;##+X+XXX#;;;&;=,#222",
"$,=,>;o***=*+oO#;>,;%%:$=.#;X#.+o+*****+;::&,222",
"%,;;#,#;;#XX+**X;;;,#%=$>@#;@$oo+oX+O##$;:;;##22",
";;,;>;;****+o+X#;:;;;::=$##;X#X+oo*+**=:;:;>;>22",
";:;....;#OX+o+*$-;;:;=+:%#:;.O***+++$#;%@..#:;%2",
":.X.X@%**=**=o+#; ;-;%%=&#;..#$++**+***&.X.@##%2",
";@. X#@;##$Xo+*.;*o$.&+:&XXX.X+*o+$$#;;##..XX$;2",
">.X X%.*+oXO#;;;@<#XX+$=&o$,.;;;##.XXo*$.X X@:;2",
",.X.X%.;#$X$o**X#,,;<+:$:,:;XX*ooXO$;;;$#X .X,#2",
"<X@ X#.*+*+XX#;;@XXX&%=$=#X$.;;##XXo**+XX@.XX;$2",
",.. @X.;;;#.+**X#....:+:&. #.o**oXX#;;.X#X ..#:2"
};
