/* XPM */
static char *noname[] = {
/* width height ncolors chars_per_pixel */
"32 32 339 2",
/* colors */
"   c #000000",
" . c #99B3C1",
" X c #3D5074",
" o c #97B1BF",
" O c #ADD4E5",
" + c #7DADCD",
" @ c #70869C",
" # c #ABABAB",
" $ c #798291",
" % c #95BBD4",
" & c #90A9B8",
" * c #7FA6C5",
" = c #A7CCDF",
" - c #4F7DAD",
" ; c #456896",
" : c #537CA7",
" > c #7CA2C2",
" , c #264071",
" < c #A3A3A3",
" 1 c #8AB6D3",
" 2 c #436694",
" 3 c #84A2B6",
" 4 c #88B4D1",
" 5 c #98C1DA",
" 6 c #4B729F",
" 7 c #97C1D9",
" 8 c #92ADBD",
" 9 c #96BFD8",
" 0 c #A9D0E4",
" q c #979797",
" w c #7F97A7",
" e c #9BA7B2",
" r c #2E4572",
" t c #939393",
" y c #84B2D0",
" u c #3D6091",
" i c #5D85AD",
" p c #17356F",
" a c #4E6F9B",
" s c #395C8D",
" d c #6596C2",
" f c #93BDD8",
" g c #92BDD7",
" h c #8095AB",
" j c #456E9C",
" k c #91BBD6",
" l c #8C9099",
" z c #9BB6C2",
" x c #70A1C6",
" c c #6FA1C5",
" v c #1F3C70",
" b c #B1D7E8",
" n c #AFD5E6",
" m c #777777",
" M c #A6A9AF",
" N c #737373",
" B c #485877",
" V c #8BB7D3",
" C c #9BC4DC",
" Z c #778A9B",
" A c #676767",
" S c #79A8CB",
" D c #616161",
" F c #78A8CA",
" G c #77A8C9",
" H c #95A5B5",
" J c #224279",
" K c #86B3D1",
" L c #8DA1AD",
" P c #85B3D0",
" I c #769DBE",
" U c #555555",
" Y c #8D98A3",
" T c #94BED8",
" R c #6183A6",
" E c #38598B",
" W c #A5CDE2",
" Q c #73A4C8",
" ! c #7A92A4",
" ~ c #71A2C6",
" ^ c #70A0C5",
" / c #454545",
" ( c #183872",
" ) c #81AFCF",
" _ c #889DAB",
" ` c #849AB1",
" ' c #9499A3",
" ] c #15346F",
" [ c #8EBAD5",
" { c #C7C9CB",
" } c #3B3B3B",
" | c #8CB8D3",
".  c #698FB4",
".. c #EAEAEA",
".X c #87A4B7",
".o c #E8E8E8",
".O c #9DC5DD",
".+ c #E6E6E6",
".@ c #9BC3DB",
".# c #E4E4E4",
".$ c #2A4B80",
".% c #ADD4E6",
".& c #E0E0E0",
".* c #7BABCC",
".= c #496E9B",
".- c #2D2D2D",
".; c #DEDEDE",
".: c #96A6B5",
".> c #DCDCDC",
"., c #717F94",
".< c #5A7DA5",
".1 c #DADADA",
".2 c #4D7BAC",
".3 c #B3B5B7",
".4 c #88B4D2",
".5 c #D6D6D6",
".6 c #87B4D1",
".7 c #232323",
".8 c #D4D4D4",
".9 c #3E6090",
".0 c #D2D2D2",
".q c #6E9BBF",
".w c #689AC3",
".e c #1F1F1F",
".r c #5E85AC",
".t c #87ABC7",
".y c #95BFD8",
".u c #8FABBB",
".i c #A8D0E4",
".p c #CCCCCC",
".a c #38588A",
".s c #A6CEE2",
".d c #9FA6AD",
".f c #CACACA",
".g c #A0BAC5",
".h c #C8C8C8",
".j c #74A5C8",
".k c #426897",
".l c #1F3F78",
".z c #9EB8C3",
".x c #C6C6C6",
".c c #C4C4C4",
".v c #213C70",
".b c #1B3B74",
".n c #919FA9",
".m c #C2C2C2",
".M c #193972",
".N c #82B0CF",
".B c #4573A7",
".V c #C0C0C0",
".C c #183771",
".Z c #0D0D0D",
".A c #BEBEBE",
".S c #244780",
".D c #92BDD8",
".F c #090909",
".G c #BABABA",
".H c #8396A5",
".J c #99A7B4",
".K c #90BBD6",
".L c #8FBBD5",
".P c #B8B8B8",
".I c #8AA7B9",
".U c #325487",
".Y c #A1CAE0",
".T c #5D8EBB",
".R c #030303",
".E c #A0C8DF",
".W c #768FA2",
".Q c #2F5084",
".! c #010101",
".~ c #6E788D",
".^ c #9EC6DD",
"./ c #B0B0B0",
".( c #4974A4",
".) c #5D87B1",
"._ c #6A7489",
".` c #AED5E6",
".' c #879AAC",
".] c #2A4A7F",
".[ c #ACACAC",
".{ c #839AA8",
".} c #AAAAAA",
".| c #5883AC",
"X  c #8298A7",
"X. c #5D80A7",
"XX c #A6A6A6",
"Xo c #7EA5C4",
"XO c #5E90BF",
"X+ c #A2A2A2",
"X@ c #89B5D2",
"X# c #A0A0A0",
"X$ c #598ABA",
"X% c #99C2DB",
"X& c #98C2DA",
"X* c #BBBEC1",
"X= c #6899C2",
"X- c #B5BDC5",
"X; c #A8CFE3",
"X: c #A2BBC6",
"X> c #76A6C9",
"X, c #A0B9C4",
"X< c #727F8D",
"X1 c #5578A2",
"X2 c #1D3C75",
"X3 c #8CA1AD",
"X4 c #83B1CF",
"X5 c #8C8C8C",
"X6 c #8A8A8A",
"X7 c #6D879F",
"X8 c #868686",
"X9 c #6495C1",
"X0 c #92BCD7",
"Xq c #8CA8BA",
"Xw c #264377",
"Xe c #808080",
"Xr c #70A2C6",
"Xt c #7E7E7E",
"Xy c #305184",
"Xu c #6FA0C5",
"Xi c #2F4F83",
"Xp c #354B75",
"Xa c #7EADCD",
"Xs c #4B6E9B",
"Xd c #7897B0",
"Xf c #747474",
"Xg c #6E6E6E",
"Xh c #2B4D82",
"Xj c #9AC3DB",
"Xk c #6A9CC3",
"Xl c #94AFBE",
"Xz c #97BFD8",
"Xx c #79A9CB",
"Xc c #78A7CA",
"Xv c #23437A",
"Xb c #77A7C9",
"Xn c #7E95A5",
"Xm c #7DA6C5",
"XM c #7890A9",
"XN c #5A6885",
"XB c #888F9B",
"XV c #86B4D1",
"XC c #879FB1",
"XZ c #85B2D0",
"XA c #585858",
"XS c #6087AF",
"XD c #3C5E8F",
"XF c #17356E",
"XG c #6698C2",
"XH c #4E4E4E",
"XJ c #90B9D4",
"XK c #A4CCE1",
"XL c #72A3C7",
"XP c #7991A3",
"XI c #4A4A4A",
"XU c #484848",
"XY c #C2C2C3",
"XT c #464646",
"XR c #80AECE",
"XE c #7FAECD",
"XW c #869CA9",
"XQ c #15356F",
"X! c #14336E",
"X~ c #3E3E3E",
"X^ c #6194C0",
"X/ c #8FBBD6",
"X( c #3C3C3C",
"X) c #8DB9D4",
"X_ c #3A3A3A",
"X` c #383838",
"X' c #9FC8DF",
"X] c #363636",
"X[ c #E7E7E7",
"X{ c #5177A3",
"X} c #343434",
"X| c #E5E5E5",
"o  c #E3E3E3",
"o. c #ADAEAE",
"oX c #989BA0",
"oo c #98C0D8",
"oO c #303030",
"o+ c #E1E1E1",
"o@ c #DFDFDF",
"o# c #7AAACB",
"o$ c #DBDBDB",
"o% c #D9D9D9",
"o& c #5B8EBD",
"o* c #89B5D3",
"o= c #D7D7D7",
"o- c #D5D5D5",
"o; c #222222",
"o: c #D3D3D3",
"o> c #D1D1D1",
"o, c #284A81",
"o< c #5F86AD",
"o1 c #96C0D9",
"o2 c #1E1E1E",
"o3 c #CFCFCF",
"o4 c #7297B9",
"o5 c #4B5C7F",
"o6 c #1C1C1C",
"o7 c #CDCDCD",
"o8 c #A7CFE3",
"o9 c #CBCBCB",
"o0 c #A5CDE1",
"oq c #C9C9C9",
"ow c #7C94A5",
"oe c #5E6A81",
"or c #C7C7C7",
"ot c #6A8DB1",
"oy c #5E8DB9",
"ou c #141414",
"oi c #C5C5C5",
"op c #C3C3C3",
"oa c #8A9FAC",
"os c #101010",
"od c #5F88B0",
"of c #81AFCE",
"og c #0E0E0E",
"oh c #BFBFBF",
"oj c #173670",
"ok c #BDBDBD",
"ol c #BBBBBB",
"oz c #B5BABF",
"ox c #91BCD7",
"oc c #B9B9B9",
"ov c #8FBAD5",
"ob c #8EBAD4",
"on c #060606",
"om c #294271",
"oM c #7090B0",
"oN c #B5B5B5",
"oB c #A1C9E0",
"oV c #A0C9DF",
"oC c #B3B3B3",
"oZ c #9FC7DE",
"oA c #70A0C7",
"oS c #758EA1",
"oD c None",
/* pixels */
"oDoDoDoDoDoDoDoDoDoDoDoDoDoDoDoDoDoDoDoDoDoDoDoDoDoDoDoDoDoDoDoD",
"oDoDoDoDoDoDoDoDoDoDoDoDoDoDoDoDoDoDoDoDoDoDoD  X`XgXIoDoDoDoDoD",
"oDoDoDoDoDoDoDoDoDoDoDoDoDoDoDoDoDoDoDo6X~ DX+.>.o.o.G.eoDoDoDoD",
"oDoDoDoDoDoDoDoDoDoDoDoDoDoDoD  .7XA toCo:o .#.+.o..oho;oDoDoDoD",
"oDoDoDoDoDoDoDoDoDoDoDoDX}XHX6.m.;.1.>.;o+o X|X[X[o@./.eoDoDoDoD",
"oDoDoDoDoDoDoDoDog /XeX#.A.8.5o=.1.>.;.&o X|.8X*.: Y.[.eoDoDoDoD",
"oDoDoDoDoD.- N <o>o7o7o3.0.8o=o%o$o- {X- HXMo<X$o&X7olo;oDoDoDoD",
"oDoDoDoD.e.[o9oqo9o7o3o>.8.5.0ok e `ot.).TX^XG.wXkoSolo;oDoDoDoD",
"oDoDoDoDX]op.h.f.po9XYoz.J h R -.B.2X= x ~Xr x cXu.Wolo;oDoDoDoD",
"oDoDoDoDX]oi.h.G.d.'oMXSoyX9.(.S.b.l j ^.j Q QXLXLXPolo;oDoDoDoD",
"oDoDoDoDoOXX @odXO doA So# :X!X!X!X! (.| F GXbXbX> !olo;oDoDoDoD",
"oDoDoDoDX_.xXdXcXa )ofXR.qo,X!X!X!X!X! 6.*o#o#XxXxowolo;oDoDoDoD",
"oDoDoDoD }or 3.6XV KXZ y iXQX!X!X!X!X!.kXRXEXEXa +Xnolo;oDoDoDoD",
"oDoDoDoD }or.X 1 1o*X@.4X{X!X!X!X!X!X!XhX4.N.N ) ) wolo;oDoDoDoD",
"oDoDoDoD }or.IX/.L [obX).=X!X!X!X!X!X! s 4.6XV K PX olo;oDoDoDoD",
"oDoDoDoD }orXq f gX0ox k uX!X!X!X!X!.M.r | V 1o*X@.{olo;oDoDoDoD",
"oDoDoDoD }or.u 7 7o1o1.yXs ]X!X!X!X!.$Xm.K.KX/ovobXWolo;oDoDoDoD",
"oDoDoDoD }or 8.@XjX%X% 5 I JX!X!X!X!.9XJ T f.DX0ox _olo;oDoDoDoD",
"oDoDoDoD }orXloZoZ.^.^.OXz 2X!X!X!X!.  9X& 7 7o1o1oaolo;oDoDoDoD",
"oDoDoDoD }or o.YoBoVoV.EX' >X!X!X!X!.QXo C.@XjXjX%X3olo;oDoDoDoD",
"oDoDoDoD }or ..s.s Wo0XKooXDX!X!X!X!X!X!Xv.U ;X1 * Lolo;oDoDoDoD",
"oDoDoDoD }or z 0 0.iX;o8o4X2X!X!X!X!X!X!X!X!X!X! E.Holo;oDoDoDoD",
"oDoDoDoD }or.z.`.% O %.<X!X!X!X!X!X!X!X!X!X!X!X!.] Zolo;oDoDoDoD",
"oDoDoDoD }or.g b n.tXyojX!X!X!X!X!X!X!X!X!X!X!X!XwX<.P.7oDoDoDoD",
"oDoDoDoD }orX: = a.CX!X!X!X!X!X!X!X!X! p ,XpXN $.}.A moDoDoDoDoD",
"oDoDoDoD }orX,X.X!X!X!X!X!X!X!X!XFom B._ '.3op.}XfXTosoDoDoDoDoD",
"oDoDoDoD }or &.aX!X!X!X!.v ro5.~oX.GoN <XtXU.ZoDoDoDoDoDoDoDoDoD",
"oDoDoDoD }orXCXiX! v XoeXB MopocX8 U.-ouoDoDoDoDoDoDoDoDoDoDoDoD",
"oDoDoDoD }.f.n., lo..P #X5 D.e  oDoDoDoDoDoDoDoDoDoDoDoDoDoDoDoD",
"oDoDoDoDX]oq.c.V q AX_o2oDoDoDoDoDoDoDoDoDoDoDoDoDoDoDoDoDoDoDoD",
"oDoDoDoDoDX(X].FoDoDoDoDoDoDoDoDoDoDoDoDoDoDoDoDoDoDoDoDoDoDoDoD",
"oDoDoDoDoDoDoDoDoDoDoDoDoDoDoDoDoDoDoDoDoDoDoDoDoDoDoDoDoDoDoDoD"
};
