/* XPM */
static char * utilities_file_archiver_xpm[] = {
"32 32 394 2",
"  	c None",
". 	c #DDBB84",
"+ 	c #DCBA83",
"@ 	c #D1B17B",
"# 	c #C3A472",
"$ 	c #CDAB76",
"% 	c #DBBA82",
"& 	c #DBB982",
"* 	c #CCAC79",
"= 	c #C9A976",
"- 	c #CEAE78",
"; 	c #D3B079",
"> 	c #CFAD76",
", 	c #CCAA72",
"' 	c #C9A66F",
") 	c #C4A169",
"! 	c #BF9D64",
"~ 	c #CEAB73",
"{ 	c #D5B37B",
"] 	c #D3B27E",
"^ 	c #CCAC7A",
"/ 	c #CCAD7A",
"( 	c #D9B780",
"_ 	c #D6B47C",
": 	c #D2B079",
"< 	c #CFAD75",
"[ 	c #C5A36B",
"} 	c #C29F68",
"| 	c #BF9C64",
"1 	c #BC9961",
"2 	c #B8955D",
"3 	c #B39058",
"4 	c #AB884E",
"5 	c #BA9B69",
"6 	c #A0875E",
"7 	c #D6B680",
"8 	c #DAB882",
"9 	c #CBAC79",
"0 	c #D6B580",
"a 	c #D6B37C",
"b 	c #CCA972",
"c 	c #B5925A",
"d 	c #BD9F6F",
"e 	c #AF8F5A",
"f 	c #CEAA74",
"g 	c #CFAC74",
"h 	c #BD9D6D",
"i 	c #A28962",
"j 	c #C9AA78",
"k 	c #CFAF7C",
"l 	c #CEAF7B",
"m 	c #C8A66E",
"n 	c #BB9961",
"o 	c #BB9963",
"p 	c #C5A97D",
"q 	c #BEA171",
"r 	c #AE8B53",
"s 	c #A8854C",
"t 	c #B1976D",
"u 	c #A99C84",
"v 	c #CCAB74",
"w 	c #D1AF77",
"x 	c #CCAB75",
"y 	c #BDA988",
"z 	c #B79B6D",
"A 	c #CAAB79",
"B 	c #D8B781",
"C 	c #D9B77F",
"D 	c #D5B37C",
"E 	c #C5A26B",
"F 	c #C29F67",
"G 	c #C3A474",
"H 	c #CCB38A",
"I 	c #C2A678",
"J 	c #B18E56",
"K 	c #AB884F",
"L 	c #A58148",
"M 	c #AA936D",
"N 	c #9D8969",
"O 	c #B8AE9E",
"P 	c #C6A570",
"Q 	c #D0AE77",
"R 	c #D3B17A",
"S 	c #D6B47D",
"T 	c #B29769",
"U 	c #A68C63",
"V 	c #D9B67F",
"W 	c #D2B078",
"X 	c #CFAC75",
"Y 	c #CBA972",
"Z 	c #CBB084",
"` 	c #D2BA95",
" .	c #C6AA7D",
"..	c #A8844C",
"+.	c #A27E45",
"@.	c #C3A16A",
"#.	c #B39563",
"$.	c #9B8968",
"%.	c #BDB4A2",
"&.	c #C0A06E",
"*.	c #D0AE76",
"=.	c #D9B680",
"-.	c #C5A675",
";.	c #BBA98B",
">.	c #D8B67F",
",.	c #D4BB93",
"'.	c #D7C2A0",
").	c #C9AD80",
"!.	c #B59259",
"~.	c #AB874F",
"{.	c #A48148",
"].	c #9F7B42",
"^.	c #C2A068",
"/.	c #C19E66",
"(.	c #B99964",
"_.	c #A38C64",
":.	c #BFB099",
"<.	c #BB9E6E",
"[.	c #D5B47C",
"}.	c #D4B47F",
"|.	c #D1C3AB",
"1.	c #B39668",
"2.	c #D0AD76",
"3.	c #CBA971",
"4.	c #C8A56E",
"5.	c #DBC5A2",
"6.	c #DBC8A7",
"7.	c #CBAF82",
"8.	c #BB9860",
"9.	c #B49159",
"0.	c #A7844C",
"a.	c #A17D45",
"b.	c #9C783F",
"c.	c #C09D65",
"d.	c #BE9B63",
"e.	c #C09E66",
"f.	c #B29462",
"g.	c #998563",
"h.	c #BAA27A",
"i.	c #CAA871",
"j.	c #D2AF78",
"k.	c #D5B27B",
"l.	c #D7B57E",
"m.	c #DAB881",
"n.	c #DEBB84",
"o.	c #BEA275",
"p.	c #E1CEAF",
"q.	c #DFCBAC",
"r.	c #CCB082",
"s.	c #BE9B64",
"t.	c #AE8B52",
"u.	c #9D7A41",
"v.	c #99753C",
"w.	c #BD985F",
"x.	c #BA975F",
"y.	c #BD9A62",
"z.	c #9F8760",
"A.	c #998970",
"B.	c #B39767",
"C.	c #C7A671",
"D.	c #B29E7F",
"E.	c #B9A88D",
"F.	c #B9A482",
"G.	c #CCAF7F",
"H.	c #C0AC8A",
"I.	c #DDBD87",
"J.	c #CDAF7F",
"K.	c #C19F67",
"L.	c #B7955D",
"M.	c #AE8A52",
"N.	c #AA874F",
"O.	c #A7844B",
"P.	c #A48048",
"Q.	c #9A763E",
"R.	c #967238",
"S.	c #BA975D",
"T.	c #B7945C",
"U.	c #BC9A62",
"V.	c #B99862",
"W.	c #C0B7A4",
"X.	c #E5DBCA",
"Y.	c #AA9F8B",
"Z.	c #A39175",
"`.	c #B29975",
" +	c #9E8F76",
".+	c #AF9872",
"++	c #B8A180",
"@+	c #ADA292",
"#+	c #DCBB86",
"$+	c #C4A36F",
"%+	c #A17D44",
"&+	c #97733A",
"*+	c #936F36",
"=+	c #B4925C",
"-+	c #B6935B",
";+	c #B9965E",
">+	c #BCB19F",
",+	c #DED5C3",
"'+	c #B1A797",
")+	c #A68C61",
"!+	c #BE9F69",
"~+	c #CBAA73",
"{+	c #CCAA73",
"]+	c #CAAA74",
"^+	c #A78F65",
"/+	c #DABB83",
"(+	c #C2A16C",
"_+	c #AD8A52",
":+	c #A07D44",
"<+	c #936F37",
"[+	c #906C32",
"}+	c #B29058",
"|+	c #B08D54",
"1+	c #B28F57",
"2+	c #B5925B",
"3+	c #B8955E",
"4+	c #B6A68E",
"5+	c #B7AB99",
"6+	c #BCB3A0",
"7+	c #C4A16A",
"8+	c #C7A46D",
"9+	c #CAA770",
"0+	c #CEAA73",
"a+	c #CFAE76",
"b+	c #D7B67F",
"c+	c #BF9F6B",
"d+	c #B18D55",
"e+	c #A7834B",
"f+	c #9D7941",
"g+	c #9A763D",
"h+	c #906C33",
"i+	c #8F6B31",
"j+	c #B08E56",
"k+	c #AC8A51",
"l+	c #AF8C54",
"m+	c #A8987F",
"n+	c #C5B9A3",
"o+	c #B1A490",
"p+	c #C3A169",
"q+	c #C6A46C",
"r+	c #C9A76F",
"s+	c #CEAD75",
"t+	c #D3B37D",
"u+	c #BC9C68",
"v+	c #AA874E",
"w+	c #96733A",
"x+	c #8F6B32",
"y+	c #AE8C4E",
"z+	c #A9854D",
"A+	c #AC8950",
"B+	c #AF8B53",
"C+	c #B28E56",
"D+	c #9A8B6E",
"E+	c #B7AA92",
"F+	c #A59980",
"G+	c #C3A069",
"H+	c #C5A36C",
"I+	c #CFAE7A",
"J+	c #BA9A67",
"K+	c #B08D55",
"L+	c #A38047",
"M+	c #96723A",
"N+	c #AD8A4C",
"O+	c #A5824A",
"P+	c #A8854D",
"Q+	c #AB8850",
"R+	c #AE8B54",
"S+	c #968462",
"T+	c #8E8065",
"U+	c #938266",
"V+	c #B9975F",
"W+	c #BF9D65",
"X+	c #CCA974",
"Y+	c #B79764",
"Z+	c #AA864E",
"`+	c #A07C44",
" @	c #9D7940",
".@	c #99763D",
"+@	c #A5824B",
"@@	c #A27E46",
"#@	c #A58149",
"$@	c #9F8863",
"%@	c #9D8766",
"&@	c #9C865F",
"*@	c #C5A26A",
"=@	c #C8A671",
"-@	c #B59561",
";@	c #A6834B",
">@	c #967239",
",@	c #A17F49",
"'@	c #A17E45",
")@	c #967A4C",
"!@	c #998467",
"~@	c #967D59",
"{@	c #B5935B",
"]@	c #C09E67",
"^@	c #C5A36D",
"/@	c #B2925F",
"(@	c #A6834A",
"_@	c #A17C44",
":@	c #9B773F",
"<@	c #9E7A42",
"[@	c #947C58",
"}@	c #9F8C67",
"|@	c #978362",
"1@	c #BF9B63",
"2@	c #AE8F5B",
"3@	c #A37F47",
"4@	c #9C7940",
"5@	c #99753D",
"6@	c #8F6C33",
"7@	c #977740",
"8@	c #926E38",
"9@	c #9F7C44",
"0@	c #97753B",
"a@	c #9B773D",
"b@	c #96825B",
"c@	c #9B8465",
"d@	c #A69069",
"e@	c #AF8C53",
"f@	c #B28F56",
"g@	c #BF9B67",
"h@	c #AB8B58",
"i@	c #A07C43",
"j@	c #926F37",
"k@	c #95733D",
"l@	c #97743E",
"m@	c #896833",
"n@	c #9E7B44",
"o@	c #9A763F",
"p@	c #9D7942",
"q@	c #99835B",
"r@	c #917C5B",
"s@	c #9B805A",
"t@	c #B7935C",
"u@	c #BB9862",
"v@	c #A78753",
"w@	c #926F36",
"x@	c #97743F",
"y@	c #9C7B49",
"z@	c #8C6B35",
"A@	c #82602C",
"B@	c #9E7943",
"C@	c #9D773E",
"D@	c #8B6D3D",
"E@	c #947F5D",
"F@	c #8A734B",
"G@	c #A58249",
"H@	c #B7955E",
"I@	c #A48350",
"J@	c #926E35",
"K@	c #94723F",
"L@	c #85632E",
"M@	c #8C6B36",
"N@	c #9B7942",
"O@	c #806840",
"P@	c #8B7757",
"Q@	c #A48149",
"R@	c #B4915B",
"S@	c #A17F4B",
"T@	c #957239",
"U@	c #8E6A31",
"V@	c #85632C",
"W@	c #8A6A35",
"X@	c #98783F",
"Y@	c #A17F45",
"Z@	c #AD8951",
"`@	c #B08C56",
" #	c #9C7C47",
".#	c #8F6A31",
"+#	c #89662E",
"@#	c #805E2C",
"##	c #886934",
"$#	c #9B773E",
"%#	c #A9864C",
"&#	c #AE8951",
"*#	c #997742",
"=#	c #8F6A32",
"-#	c #8B6830",
";#	c #805F2A",
">#	c #886833",
",#	c #A27D46",
"'#	c #A7824A",
")#	c #AB864E",
"!#	c #8C6A30",
"~#	c #84622B",
"{#	c #866531",
"]#	c #97753D",
"^#	c #A38048",
"/#	c #94713B",
"(#	c #87652D",
"_#	c #7D5D2A",
":#	c #84632E",
"<#	c #7F602B",
"                                                                ",
"                            . . . . .                           ",
"                    . . . . . . . . . + @ # $                   ",
"            % & . . . . . . . . . + * = - ; > , ' ) !           ",
"    ~ { + . . . . . . . . . . ] ^ / ( _ : < , ' [ } | 1 2 3 4   ",
"  5 6 7 . . . . . . . . 8 9 9 0 + ( a : < b ' [ } | 1 2 c d e   ",
"  f g h i j . . . . k 9 l . . + ( a : < b m [ } | n o p q r s   ",
"  t u v w x y z j A B . . . + C D : < b m E F | G H I J r K L   ",
"  M N O P Q R S T U B . . + V D W X Y m E F Z `  .c J r K ..+.  ",
"  @.#.$.%.&.*.; _ =.-.;.9 >.D W X Y m E ,.'.).2 !.J r ~...{.].  ",
"  ^./.(._.:.<.> : [.>.& }.|.1.2.3.4.5.6.7.8.2 9.J r ~.0.{.a.b.  ",
"  c.d.e.f.g.h.i.X j.k.l.m.n.. o.p.q.r.s.8.2 9.J t.~.0.{.a.u.v.  ",
"  w.x.y.c.z.A.B.C.D.z E.F.G.H.I.J.K.d.8.L.9.J M.N.O.P.a.u.Q.R.  ",
"  S.T.x.U.V.W.X.Y.Z.`. +.+++@+#+$+d.8.T.9.J M.N.O.P.%+u.Q.&+*+  ",
"  =+3 -+;+1 >+,+'+)+!+~+{+]+^+/+(+8.T.9.J _+N.O.P.:+u.Q.&+<+[+  ",
"  }+|+1+2+3+4+5+6+7+8+9+0+a+: b+c+T.9.d+_+N.e+P.:+f+g+&+<+h+i+  ",
"  j+k+l+1+c m+n+o+e.p+q+r+, s+t+u+9.d+_+v+e+P.:+f+g+w+*+h+x+i+  ",
"  y+z+A+B+C+D+E+F+y.c.G+H+' Y I+J+K+_+v+e+L+:+f+g+M+*+h+x+x+i+  ",
"  N+O+P+Q+R+S+T+U+V+y.W+^.[ 4.X+Y+_+Z+e+L+`+ @.@M+*+h+x+x+x+i+  ",
"  +@@@#@..~.$@%@&@-+;+1 s.F *@=@-@Z+;@L+`+ @.@>@*+h+x+x+x+x+i+  ",
"  ,@].'@{.O.)@!@~@3 {@;+n | ]@^@/@(@L+`+ @.@>@*+h+x+x+x+x+x+[+  ",
"  _@:@<@a.P.[@}@|@l+1+c 2 8.1@p+2@3@`+4@5@>@*+x+x+x+x+x+6@7@8@  ",
"  9@0@a@u.:+b@c@d@A+e@f@!.T.8.g@h@i@4@5@>@*+x+x+x+x+j@k@l@m@    ",
"    n@o@Q.p@q@r@s@P+Q+r J 9.t@u@v@4@v.>@w@x+x+x+x+x@y@z@A@      ",
"        B@C@D@E@F@G@s ~.M.d+3 H@I@v.>@J@x+x+x+x+x+K@L@          ",
"          M@N@O@P@@@Q@0.N._+K+R@S@T@J@x+x+x+x+U@V@              ",
"              W@X@<@Y@P.e+Z+Z@`@ #J@x+x+x+.#+#@#                ",
"                  ##$#%+3@(@%#&#*#x+x+=#-#;#                    ",
"                      >#Q.,#'#)#k@x+!#~#                        ",
"                          {#]#^#/#(#_#                          ",
"                              :#<#                              ",
"                                                                "};
