/* XPM */
static char * videocut_xpm[] = {
"32 32 276 2",
"  	c None",
". 	c #404040",
"+ 	c #494949",
"@ 	c #5D5D5D",
"# 	c #4B4B4B",
"$ 	c #464646",
"% 	c #4F4F4F",
"& 	c #797979",
"* 	c #ABABAB",
"= 	c #CDCDCD",
"- 	c #858585",
"; 	c #414141",
"> 	c #828282",
", 	c #4A4A4A",
"' 	c #696969",
") 	c #8F8F8F",
"! 	c #6C6C6C",
"~ 	c #5F5F5F",
"{ 	c #D9D9D9",
"] 	c #D7D7D7",
"^ 	c #C2C2C2",
"/ 	c #030303",
"( 	c #000000",
"_ 	c #6B6B6B",
": 	c #484848",
"< 	c #595959",
"[ 	c #717171",
"} 	c #A2A2A2",
"| 	c #E0E0E0",
"1 	c #979797",
"2 	c #050505",
"3 	c #D4D4D4",
"4 	c #787878",
"5 	c #606060",
"6 	c #5E5E5E",
"7 	c #888888",
"8 	c #C0C0C0",
"9 	c #DBDBDB",
"0 	c #7C7C7C",
"a 	c #353535",
"b 	c #141414",
"c 	c #B0B0B0",
"d 	c #363636",
"e 	c #AFAFAF",
"f 	c #D5D5D5",
"g 	c #DADADA",
"h 	c #666666",
"i 	c #626262",
"j 	c #767676",
"k 	c #919191",
"l 	c #4D4D4D",
"m 	c #585858",
"n 	c #7B7B7B",
"o 	c #8C8C8C",
"p 	c #6E6E6E",
"q 	c #CFCFCF",
"r 	c #E3E3E3",
"s 	c #C1C1C1",
"t 	c #010101",
"u 	c #303030",
"v 	c #BBBBBB",
"w 	c #131313",
"x 	c #333333",
"y 	c #707070",
"z 	c #DDDDDD",
"A 	c #C4C4C4",
"B 	c #969696",
"C 	c #515151",
"D 	c #444444",
"E 	c #434343",
"F 	c #575757",
"G 	c #E6E6E6",
"H 	c #D2D2D2",
"I 	c #555555",
"J 	c #070707",
"K 	c #3F3F3F",
"L 	c #040404",
"M 	c #949494",
"N 	c #DFDFDF",
"O 	c #9E9E9E",
"P 	c #646464",
"Q 	c #525252",
"R 	c #474747",
"S 	c #F4F4F4",
"T 	c #808080",
"U 	c #B7B7B7",
"V 	c #CACACA",
"W 	c #313131",
"X 	c #9A9A9A",
"Y 	c #E4E4E4",
"Z 	c #E2E2E2",
"` 	c #616161",
" .	c #686868",
"..	c #7A7A7A",
"+.	c #999999",
"@.	c #4C4C4C",
"#.	c #424242",
"$.	c #DCDCDC",
"%.	c #7D7D7D",
"&.	c #ACACAC",
"*.	c #C6C6C6",
"=.	c #9F9F9F",
"-.	c #373737",
";.	c #D0D0D0",
">.	c #BCBCBC",
",.	c #818181",
"'.	c #454545",
").	c #ADADAD",
"!.	c #9B9B9B",
"~.	c #A4A4A4",
"{.	c #7E7E7E",
"].	c #3E3E3E",
"^.	c #8D8D8D",
"/.	c #9C9C9C",
"(.	c #939393",
"_.	c #6D6D6D",
":.	c #6F6F6F",
"<.	c #757575",
"[.	c #737373",
"}.	c #868686",
"|.	c #A0A0A0",
"1.	c #909090",
"2.	c #A6A6A6",
"3.	c #A8A8A8",
"4.	c #B2B2B2",
"5.	c #272727",
"6.	c #A1A1A1",
"7.	c #1D1D1D",
"8.	c #E7E7E7",
"9.	c #3A3A3A",
"0.	c #161616",
"a.	c #9D9D9D",
"b.	c #F3F3F3",
"c.	c #ECECEC",
"d.	c #777777",
"e.	c #5B5B5B",
"f.	c #535353",
"g.	c #121212",
"h.	c #C3C3C3",
"i.	c #4E4E4E",
"j.	c #E5E5E5",
"k.	c #B5B5B5",
"l.	c #0D0D0D",
"m.	c #D3D3D3",
"n.	c #EAEAEA",
"o.	c #989898",
"p.	c #2D2D2D",
"q.	c #2C2C2C",
"r.	c #AAAAAA",
"s.	c #3B3B3B",
"t.	c #727272",
"u.	c #DEDEDE",
"v.	c #B8B8B8",
"w.	c #EBEBEB",
"x.	c #E9E9E9",
"y.	c #5A5A5A",
"z.	c #747474",
"A.	c #6A6A6A",
"B.	c #545454",
"C.	c #656565",
"D.	c #636363",
"E.	c #505050",
"F.	c #9B9A9A",
"G.	c #5C5C5C",
"H.	c #565656",
"I.	c #676666",
"J.	c #575656",
"K.	c #9C9B9B",
"L.	c #9A9999",
"M.	c #AFADAD",
"N.	c #CBC8C8",
"O.	c #9C9A9A",
"P.	c #999898",
"Q.	c #737272",
"R.	c #E0DDDD",
"S.	c #EAE7E7",
"T.	c #9B9999",
"U.	c #989797",
"V.	c #B1AFAF",
"W.	c #717070",
"X.	c #DAD8D8",
"Y.	c #E5E2E2",
"Z.	c #B3B1B1",
"`.	c #9F9D9D",
" +	c #B5B3B3",
".+	c #B2B0B0",
"++	c #C5C2C2",
"@+	c #ECE9E9",
"#+	c #666565",
"$+	c #E1DFDF",
"%+	c #9A9898",
"&+	c #969595",
"*+	c #D3D1D1",
"=+	c #A5A3A3",
"-+	c #858484",
";+	c #EDEAEA",
">+	c #E2DFDF",
",+	c #B4B2B2",
"'+	c #959494",
")+	c #B0AEAE",
"!+	c #AEADAD",
"~+	c #BFBDBD",
"{+	c #D1CFCF",
"]+	c #C9C7C7",
"^+	c #C6C4C4",
"/+	c #DCDADA",
"(+	c #AAA9A9",
"_+	c #CCC9C9",
":+	c #999696",
"<+	c #949393",
"[+	c #B4B3B3",
"}+	c #939292",
"|+	c #CAC8C8",
"1+	c #E7E4E4",
"2+	c #A3A2A2",
"3+	c #A8A6A6",
"4+	c #777676",
"5+	c #E6E3E3",
"6+	c #DDDADA",
"7+	c #9E9D9D",
"8+	c #D0CECE",
"9+	c #E8E5E5",
"0+	c #DAD7D7",
"a+	c #BCBABA",
"b+	c #868585",
"c+	c #EEEBEB",
"d+	c #E3E1E1",
"e+	c #706F6F",
"f+	c #7A7979",
"g+	c #979595",
"h+	c #919090",
"i+	c #A4A2A2",
"j+	c #D4D2D2",
"k+	c #ADABAB",
"l+	c #B0AFAF",
"m+	c #CFCDCD",
"n+	c #787777",
"o+	c #CCCACA",
"p+	c #908E8E",
"q+	c #616060",
"r+	c #D6D3D3",
"s+	c #ABAAAA",
"t+	c #D9D7D7",
"u+	c #E3E0E0",
"v+	c #D7D4D4",
"w+	c #9D9B9B",
"x+	c #969494",
"y+	c #8D8C8C",
"z+	c #828181",
"A+	c #DEDCDC",
"B+	c #E1DEDE",
"C+	c #B7B6B6",
"D+	c #CDCACA",
"E+	c #A8A7A7",
"F+	c #C1BFBF",
"G+	c #959393",
"H+	c #8C8B8B",
"I+	c #696868",
"J+	c #767575",
"K+	c #D7D5D5",
"L+	c #A9A7A7",
"M+	c #949292",
"N+	c #636262",
"O+	c #626161",
"P+	c #605F5F",
"Q+	c #646262",
"R+	c #6C6B6B",
"S+	c #5E5D5D",
"T+	c #5C5B5B",
"U+	c #5B5A5A",
"V+	c #5A5959",
"W+	c #585757",
"X+	c #565555",
"Y+	c #555454",
"Z+	c #545353",
"`+	c #A5A4A4",
"                                                . + @ #         ",
"                                        $ % & * = - ; >         ",
"                                , ' ) & ! ~ { ] ^ / ( _ :       ",
"                      : # < [ } | | 1 2 ( ~ 3 3 & ( ( 4 5       ",
"              # 6 7 8 9 0 a b c 3 3 d ( ( e f g h i j k l       ",
"    # m n * o p : q r s t ( u 3 3 v w x y z A B C D E           ",
"  F G H 6 I J ( K r | _ ( L M N r O P Q + R                     ",
"  Q S T U V W / X Y Z `  ...+.p @.#.                            ",
"  D $.%.&.*.=.-.;.>.,., '.                                      ",
"    ).n !.).~.{.W                                               ",
"    l ].^./.(.(._.$ _.p :.o ^.^.<.y [.}.|.|.1.j j & 2.3.o       ",
"    y [.7 &.(.(.4.P x 5.5.=.9 $.6.7.7.u ] 8.| 9.7.0.a.b.c.l     ",
"    d.) # C C e.5 ~ f.( ( g.h.f ] i.( ( C r j.k.L ( l.m.n.C     ",
"    d.Y o.p.q.-.r.U { <.s.s.t.u.N f @.s.s.v.w.c.X '.'.[ x.Q     ",
"    y.T <.~ < <  .z.[ A.y.I B. ._ ! 5 Q l F C.D.i f.C E.~       ",
"      F.G.e.e.G.@ G.e.e.y.< < m F F H.I I B.f.I.J.C C I K.      ",
"      L.G.y.e.G.G.G.e.y.y.< m m F F H.I I B.f.M.N.K.C B.O.      ",
"      P.e.y.y.e.e.e.y.y.< < m m F H.H.I < Q.~ R.S._ C B.T.      ",
"      U.e.< y.y.y.y.y.< < m A.F F D.V.W.X.Y.G.Q Z.`.E.f.T.      ",
"      1 y.m < < < < < m m m j F H. +.+y.++@+`.Q #+$+m f.%+      ",
"      &+< m m m m m m m F F j ` y.*+:.=+-+;+>+< C ,+P.Q T.      ",
"      '+m F :.<.<.<.)+-+& !+F.~+{+]+^+/+z.]+@+(+y A._+C :+      ",
"      <+F H.H.H.H.5 ^+[+}+|+1+2+@+3+`.4+Q ' 5+6+C E.B.C :+      ",
"      }+H.I A.Y.7+V.8+9+.+0+a+b+c+d+e+_ _ A...f+' C % % g+      ",
"      h+I g+i+j+c+!+k+l+m+@+n+! o+c+<+_ A.A.' ' ' C i.% g+      ",
"      p+B.q+r+Z.c+s+t+q+u+v+K.Q ' Y.w+C C E.E.% % i.i.l x+      ",
"      y+f.Q z+A+B+C+D+E+~+D+Y.F+C #+` E.E.% % % i.i.l l G+      ",
"      H+Q Q Q I+J+Q P K+Y.L+P #+E.E.E.E.% % i.i.l l @.@.M+      ",
"      M+N+O+O+O+q+q+P+Q+R+S+S+T+T+U+V+V+W+W+J.X+X+Y+Y+Z+T.      ",
"      :+`+`+2+2+2+2+2+2+2+2+2+2+2+2+2+2+2+2+2+2+2+2+`+`+p+      ",
"                                                                ",
"                                                                "};
