/* XPM */
static char *vkeybd[] = {
/* columns rows colors chars-per-pixel */
"32 32 256 2",
"   c #030303",
".  c #060804",
"X  c #0A0A0A",
"o  c #070609",
"O  c #060412",
"+  c #0C100E",
"@  c #0E1211",
"#  c #0E1018",
"$  c #13150B",
"%  c #101314",
"&  c #1F1E1E",
"*  c #0F0F31",
"=  c #0E1429",
"-  c #0F1030",
";  c #121923",
":  c #141B27",
">  c #111434",
",  c #16123E",
"<  c #1E201F",
"1  c #21201F",
"2  c #242424",
"3  c #2B2C2D",
"4  c #2D2B33",
"5  c #2D2E3B",
"6  c #2F302F",
"7  c #2F3039",
"8  c #343638",
"9  c #0F0E43",
"0  c #3A3C46",
"q  c #312970",
"w  c #33307B",
"e  c #2F2B6B",
"r  c #3D4248",
"t  c #344E6E",
"y  c #31497C",
"u  c #375369",
"i  c #365070",
"p  c #3A5475",
"a  c #3B5D7A",
"s  c #385579",
"d  c #3D6277",
"f  c #3D617D",
"g  c #3D6A70",
"h  c #443F34",
"j  c #453F47",
"k  c #444142",
"l  c #43434D",
"z  c #444B4E",
"x  c #474A52",
"c  c #4F5455",
"v  c #4E535B",
"b  c gray32",
"n  c #585659",
"m  c #595A55",
"M  c #5B5D5A",
"N  c #555758",
"B  c #454660",
"V  c #41586E",
"C  c #425B7C",
"Z  c #455B77",
"A  c #5C5D66",
"S  c #446271",
"D  c #476862",
"F  c #636463",
"G  c #6B6B66",
"H  c #68686B",
"J  c #6C7074",
"K  c #787876",
"L  c #7A7A7B",
"P  c #737577",
"I  c #6B6972",
"U  c #0806B9",
"Y  c #2C2C85",
"T  c #2C2D8B",
"R  c #2D3085",
"E  c #312F88",
"W  c #333395",
"Q  c #2E2AB5",
"!  c #2C27B7",
"~  c #362DA9",
"^  c #322DBB",
"/  c #322CB0",
"(  c #3231B2",
")  c #0503C1",
"_  c #0202D2",
"`  c #0903D4",
"'  c #0103ED",
"]  c #0A03E1",
"[  c #0302F4",
"{  c #0303FA",
"}  c #0A02FC",
"|  c #0509F5",
" . c #1B16E9",
".. c #1216F1",
"X. c #2420CE",
"o. c #2D27D6",
"O. c #3931DE",
"+. c #2B2DE8",
"@. c #2A2CE5",
"#. c #2D31E1",
"$. c #3034E4",
"%. c #3230F1",
"&. c #2927F8",
"*. c #395988",
"=. c #3D628C",
"-. c #3F6580",
";. c #3D6393",
":. c #3D6498",
">. c #3F64A6",
",. c #3E40C3",
"<. c #3E41D6",
"1. c #455D81",
"2. c #435598",
"3. c #53558B",
"4. c #4353B2",
"5. c #4A5BB7",
"6. c #544FA6",
"7. c #5255B0",
"8. c #515BA7",
"9. c #42648C",
"0. c #42698D",
"q. c #4A638B",
"w. c #456684",
"e. c #436593",
"r. c #406598",
"t. c #446994",
"y. c #436999",
"u. c #4D6692",
"i. c #49639C",
"p. c #4A6B94",
"a. c #4A6B9A",
"s. c #4D719A",
"d. c #516A95",
"f. c #566E9A",
"g. c #586F9B",
"h. c #54749B",
"j. c #56799E",
"k. c #59729C",
"l. c #5B789E",
"z. c #577495",
"x. c #5475A1",
"c. c #5679A1",
"v. c #5B75A1",
"b. c #5A7AA3",
"n. c #4566A4",
"m. c #757B82",
"M. c #647998",
"N. c #6175A3",
"B. c #617BA3",
"V. c #647EA9",
"C. c #5A63C1",
"Z. c #676BC6",
"A. c #7873C1",
"S. c #7E807F",
"D. c #5C80A6",
"F. c #688391",
"G. c #758592",
"H. c #738A9B",
"J. c #7B8A9D",
"K. c #778399",
"L. c #6282AB",
"P. c #6881A3",
"I. c #6C89AA",
"U. c #6782A9",
"Y. c #6B8CB0",
"T. c #728BAC",
"R. c #7C8DA1",
"E. c #7A8DAE",
"W. c #728DB2",
"Q. c #708CBD",
"!. c #7591A2",
"~. c #7C92A3",
"^. c #7D99AA",
"/. c #7391B4",
"(. c #7A93B3",
"). c #7B97BA",
"_. c #847E85",
"`. c #828181",
"'. c #80879D",
"]. c #94988F",
"[. c #828DA1",
"{. c #8B95AA",
"}. c #899AA5",
"|. c #8C9BA9",
" X c #8694A6",
".X c #849CB3",
"XX c #839CBB",
"oX c #899DB2",
"OX c #939AA5",
"+X c #939CB1",
"@X c #989EB4",
"#X c #9C9FB8",
"$X c #8FA0AF",
"%X c #87A2B9",
"&X c #8CA2B4",
"*X c #8BA4BB",
"=X c #86A0B7",
"-X c #9AA0A7",
";X c #96A3B3",
":X c #93A5BB",
">X c #94AABC",
",X c #9AA5B9",
"<X c #AAAAAA",
"1X c #A1A6AC",
"2X c #A2A6BD",
"3X c #A6ABBB",
"4X c #AEB0B3",
"5X c #ABB0B8",
"6X c #B2B1AF",
"7X c #B1B1B1",
"8X c #BBBDBE",
"9X c #B4B7BE",
"0X c #8598C2",
"qX c #8BA4C3",
"wX c #8EA8C0",
"eX c #89A6C7",
"rX c #92ACC2",
"tX c #99ABC2",
"yX c #9AA5C4",
"uX c #9CB2C4",
"iX c #9CB5D1",
"pX c #A4AAC0",
"aX c #A4AAC5",
"sX c #A7B8CB",
"dX c #B7BCC2",
"fX c #A7AAD6",
"gX c #BDC1C1",
"hX c #BDC3CB",
"jX c #C0BFBC",
"kX c #C1C0BD",
"lX c #C1C1C1",
"zX c #CACBCA",
"xX c #CBC8C4",
"cX c #CED6C8",
"vX c #D1D1CA",
"bX c #DADBCA",
"nX c #D3D3D4",
"mX c #DADADA",
"MX c #D6D8D7",
"NX c #D8D8E9",
"BX c #DDE3F7",
"VX c #E0DDD7",
"CX c #E1E5CF",
"ZX c #E4E5E4",
"AX c #E5E9E3",
"SX c #ECECED",
"DX c #E7E7E8",
"FX c #E7E7F6",
"GX c #F1EDE0",
"HX c #FBFBEB",
"JX c #F5F4F3",
"KX c #F6F8F6",
"LX c #FAF5FD",
"PX c #FBFCF4",
"IX c #FCFDFC",
"UX c #F6F4F9",
/* pixels */
"sX X*X*X*XrXwX=X:X>XyX>XaXyXoX%XwXrXiX*X.X=X%X*X=X*XrXwXeXwXXX%X",
"iX.X:X,X&XsX>X&X>X&X:XJ.uXuX!.uXtX:XuX$X:X:X:XuX:X:XuX|.XX*X>X>X",
")..X{.pXK.2X3X{.>X&X&XF.>XuX^.@X,X{.;XJ.|.+X@XpX;X@X;X'.R.{.@X{.",
"q.z.u.k.u.v.d.f.V.q.f.q.h.v.f.d.V.h.k.u.u.f.g.v.d.f.k.u.a.d.q.d.",
"M.z.b.b.k.l.b.l.v.k.N.v.k.k.N.v.L.k.v.k.l.b.h.b.v.z.L.c.c.l.j.b.",
"E.R. XH.~.J.R.R.H.^.!.!.H.!.H.R.J.J.R.R.~.R.J.R.J.R.!.H.R.J.'.J.",
"b.b.l.c.D.c.c.l.b.b.c.D.b.b.v.c.b.c.h.b.l.b.v.k.b.b.b.c.l.l.l.b.",
"e.a.i.*.t.r.e.e.y.=.e.y.e.;.t.e.a.e.y.e.r.t.e.9.;.a.y.e.t.e.e.;.",
"*.t.i.e.y.;.x.Q.D.p.t.p.0.0.u.k.v.9.e.;.:.L.Q.b.t.9.=.t.e.;.s.;.",
"/.).).p.0.0.l.Y.eX0XE.E.qXqXXX).eXk.0.t.y.I.M.%XXX(.iXT.(.Y.0XU.",
").I.(.s.e.;.j.I.).(.P.H.(.(.H.B.Y.s.=.0.=.I.T.T.T.I.T.p.H.L./.D.",
"h.9.u.t.i.;.a.v.l.s.p.e.p.y.e.t.a.a.9.t.t.c.I.s.t.s.t.t.e.s.s.a.",
":.y.r.=.:.r.9.=.:.y.y.:.:.:.y.:.e.y.y.y.y.:.>.n.w.0.*.i.:.;.:.;.",
"u p s u s p s p p p t t p i a p i i t i p u p p u *.y V p p i t ",
"r J 4XA 0 z 6.3.z x P dXhX-X5X8Xm.x r m.OXN 0 v 7.O.,. X9XOXv l ",
"  m mXj   : ~ w $ . H KXIXvXSXIXP X X L jX4   > O.' ` yXIX<X& . ",
"  n AX8   ; ^ T @   F IXIXnXSXIXK X X S.lX3   > %.{ | tXIX4X< . ",
"o n SX0   > / W @ X F IXIXnXDXLXL X @ S.lX6   = +.{ } ;XKX4X2 o ",
"  n FXj   > ~ T @   F IXKXMXSXIXK . X `.lX4   * %.{ { aXIX6X<   ",
"  n ZXj O ; ^ E + . F PXIXMXDXIXL o X `.lX7   * @.{ } -XIX<X2 . ",
"  m CXh X ; Q E # O J LXIXzXZXIXL . X `.lX7   > $.{ { 2XIX<X2 . ",
"X n AXk o = ! W # o F IXIXvXSXIXJ . X L lX4   * #.[ { aXIX6X2   ",
"  c DXj   = Q Y + $ G IXIXmXDXPXK X o L lX8 . > $.| [ pXIX7X2   ",
"  M ZXk   : ( R # . M PXIXnXSXIXP o X `.kX3   9 @.' } 2XIX7X2 X ",
"c ].AX_.M e o.! q e <XPXPXnXFXLX1XF N <XnXL x q &.{ } ,XIXzXP b ",
"zXJXIXLXFX!  . .o.A.IXIXHXnXFXIXPXJXzXPXIXUXfXX...' } aXIXIXJXxX",
"lXPXHXHXFX) ' { } A.IXLXPXcXFXIXIXIXzXIXIXPX2X} | { { ;XIXIXLXzX",
"9XIXIXIXBX_ { { } 5.IXIXIXcXSXIXIXIXdXIXIXHX3X' [ { } ;XIXIXIX8X",
"jXIXPXHXBX_ { { } Z.PXPXIXvXGXIXIXIXjXIXIXPXfX} } [ } ,XIXIXIXlX",
"<XmXbXbXhXU _ ` ) 8.mXVXNXjXkXmXmXmX<XmXmXmX0X` _ _ `  XmXmXMX<X",
"m.oX{.|.}.4.5.5.4.N.OX X{. X}.|.|.{.G.}.|.$XG.2.i.8.2.H.|.|.}.G.",
"a -.d *.D a g f d C Z d d w.p f f a w.a a C C S s =.V C a f a w."
};
