/* XPM */
static char *dummy[]={
"32 32 32 1",
". c None",
"a c #016c87",
"q c #020202",
"z c #023b4a",
"# c #03151b",
"e c #0a2b35",
"v c #121111",
"b c #225361",
"s c #262524",
"c c #363636",
"d c #387d9a",
"D c #401d14",
"f c #4e4f50",
"C c #4f2c21",
"x c #4f6871",
"A c #6e4c3b",
"t c #6e6e6e",
"B c #7d5945",
"r c #856b5d",
"u c #888987",
"h c #9d866f",
"w c #9e9d9d",
"j c #a8947c",
"o c #aeacab",
"m c #b2a38c",
"y c #bcbdbd",
"l c #c5bda7",
"k c #cdcdcd",
"n c #d0c9b4",
"i c #e3d9d3",
"g c #ecebeb",
"p c #fdfdfd",
".............#abbc..............",
".............aaaad..............",
"...........cefbfbbb#............",
"...........ghijklmi.............",
".............nghop..............",
"...........qqcrrrcqq............",
"........qqsseabtuevtcv..........",
"......qqfwgkbaxfxxeypyfq........",
".....vcwppppxabtbffuipptv.......",
"....vckppyxsqzeebqvfqxkpwq......",
"...vcipkfqq..zz#aq...qswpuq.....",
"...skpkvsujklwuuuuiiln.qupf.....",
"..qupgcq.lnlnnnnnnnllj..vkyq....",
".csgpuq..jmlllllnlllhA..qfgc....",
".vtppfq..jjmlnnlnnlhBr...sgtq...",
".vupgsv..hjjmnllnnhABB...qkyv...",
".vopgvq..hhhhmlllhABAC...qwis...",
".vwpgsq..jjjmjmnhArBcc...qwgs...",
".qupgsq..jhjhjhrAABCfC...qwps...",
".vfppfq..hhjhhADCBswts...qyps...",
"..vkptq..hmjjBDCCCfpcD..qcpkv...",
"..qtpoq..hjhADDDDvypsc..qwpus...",
"..svkpsq.mmADCCCvcpgsA.qcpgs....",
"...qcpwqfmBCDCDCqtpgssqvkptq....",
"....qfgfsADCDDDDqupgfqckpwq.....",
".....qfoc.......quppyogpwqq.....",
"......qscv......qtpgpppwqq......",
"........vvqq....qcpppppwsq......",
".................vkpppppitvq....",
".................qcuygppppyfvq..",
"...................qqsfuwyggofq.",
"........................qqvsffcq"};
