/* XPM */
static char * ws32_xpm[] = {
"32 32 349 2",
"  	c None",
". 	c #111026",
"+ 	c #2D3053",
"@ 	c #706E6C",
"# 	c #9FA0AB",
"$ 	c #272537",
"% 	c #14142A",
"& 	c #55524D",
"* 	c #979696",
"= 	c #CACDD1",
"- 	c #C2C5CD",
"; 	c #706F80",
"> 	c #77777F",
", 	c #635F5C",
"' 	c #9E9A95",
") 	c #D2D1D0",
"! 	c #E5EBEF",
"~ 	c #E4F2FC",
"{ 	c #757C98",
"] 	c #A5A4B6",
"^ 	c #444041",
"/ 	c #A29E97",
"( 	c #DAD7D6",
"_ 	c #ECF2F4",
": 	c #E9F4FB",
"< 	c #BCC9DC",
"[ 	c #636987",
"} 	c #B3BECD",
"| 	c #A0A2AD",
"1 	c #878481",
"2 	c #BCBAB6",
"3 	c #E9EEEF",
"4 	c #ECF5FA",
"5 	c #E5F3FE",
"6 	c #E4F3FE",
"7 	c #75829D",
"8 	c #B4C0D7",
"9 	c #D2D7DB",
"0 	c #625F61",
"a 	c #5E5856",
"b 	c #A29B99",
"c 	c #E3E3E2",
"d 	c #F1F6F9",
"e 	c #EBF7FD",
"f 	c #E6F4FE",
"g 	c #B1BFD4",
"h 	c #8290A9",
"i 	c #A1AFC5",
"j 	c #DCE9F7",
"k 	c #A3A09F",
"l 	c #B6B0AF",
"m 	c #948F9A",
"n 	c #C8CDD7",
"o 	c #B1BDCA",
"p 	c #AEBBCB",
"q 	c #ADBBCB",
"r 	c #737F9C",
"s 	c #B0C0D8",
"t 	c #DEEAF7",
"u 	c #CED5E0",
"v 	c #86817E",
"w 	c #756C5D",
"x 	c #CAC2B7",
"y 	c #ECF0F2",
"z 	c #A2ABBA",
"A 	c #454C75",
"B 	c #5D6494",
"C 	c #444E78",
"D 	c #667192",
"E 	c #AEBED3",
"F 	c #DCEDFF",
"G 	c #D8DFE6",
"H 	c #ABA7A5",
"I 	c #847A63",
"J 	c #CDC5B6",
"K 	c #E7E7E1",
"L 	c #D0DBE9",
"M 	c #7A84A2",
"N 	c #6C74A4",
"O 	c #7B83B1",
"P 	c #4E577C",
"Q 	c #BBCAE0",
"R 	c #DBE8F7",
"S 	c #C0C2C4",
"T 	c #5C5852",
"U 	c #9D917A",
"V 	c #D2C2A8",
"W 	c #E9EAE5",
"X 	c #E2F0FE",
"Y 	c #8691B4",
"Z 	c #444C7C",
"` 	c #404A73",
" .	c #D9EAFD",
"..	c #DBECFE",
"+.	c #DAEAFA",
"@.	c #D0D3DA",
"#.	c #8D8681",
"$.	c #A79B7A",
"%.	c #CFBEA4",
"&.	c #DBD0CB",
"*.	c #BCC0CE",
"=.	c #C5D3E1",
"-.	c #BCC6DB",
";.	c #68749A",
">.	c #545E88",
",.	c #8B97B9",
"'.	c #D4E5FD",
").	c #D7E9FC",
"!.	c #D0DBE7",
"~.	c #B3AFAF",
"{.	c #473E37",
"].	c #AEA283",
"^.	c #C6B297",
"/.	c #9E9098",
"(.	c #464B73",
"_.	c #8E98B8",
":.	c #444D78",
"<.	c #A4ACCC",
"[.	c #575F87",
"}.	c #4E5587",
"|.	c #7582A8",
"1.	c #D4E5FC",
"2.	c #D4DFEE",
"3.	c #B3ADA7",
"4.	c #6C645B",
"5.	c #9F9378",
"6.	c #D0C3B1",
"7.	c #A9A0A2",
"8.	c #7A7A98",
"9.	c #838AB9",
"0.	c #464F80",
"a.	c #6972A5",
"b.	c #485080",
"c.	c #656D9B",
"d.	c #6770A5",
"e.	c #A6B4D6",
"f.	c #D7E2F1",
"g.	c #BFBDC0",
"h.	c #7A716B",
"i.	c #928978",
"j.	c #CFC6B3",
"k.	c #9797A3",
"l.	c #7F83A5",
"m.	c #5D6696",
"n.	c #454C7D",
"o.	c #595E8E",
"p.	c #434B7B",
"q.	c #4C5484",
"r.	c #4B5385",
"s.	c #505D87",
"t.	c #A0AAC2",
"u.	c #BCB8BA",
"v.	c #8E847A",
"w.	c #847A6C",
"x.	c #CCC8BD",
"y.	c #E2E6E8",
"z.	c #B8C1DB",
"A.	c #59618D",
"B.	c #626CA1",
"C.	c #4F578A",
"D.	c #525B8B",
"E.	c #636B9F",
"F.	c #444B7E",
"G.	c #848FA8",
"H.	c #AEACB0",
"I.	c #968C82",
"J.	c #5B544C",
"K.	c #7D776C",
"L.	c #C9C8C2",
"M.	c #E5EEF5",
"N.	c #D7E7FB",
"O.	c #495483",
"P.	c #4E578E",
"Q.	c #434C80",
"R.	c #5F6894",
"S.	c #4B5487",
"T.	c #6971A6",
"U.	c #54598B",
"V.	c #898AA7",
"W.	c #785F5C",
"X.	c #9A8879",
"Y.	c #6F6E6D",
"Z.	c #C5C5C1",
"`.	c #DDE6EB",
" +	c #D8E9FB",
".+	c #C6DAF3",
"++	c #828EBE",
"@+	c #565F92",
"#+	c #5D6897",
"$+	c #97A8C9",
"%+	c #525F8B",
"&+	c #535B8F",
"*+	c #8884A5",
"=+	c #695255",
"-+	c #A68D79",
";+	c #8E7F67",
">+	c #7F7A77",
",+	c #B6B3B5",
"'+	c #ADB6CB",
")+	c #CADBF5",
"!+	c #CDE2FE",
"~+	c #99ABCB",
"{+	c #444E7E",
"]+	c #3E487B",
"^+	c #9AABD4",
"/+	c #C7E0FD",
"(+	c #C0D2F5",
"_+	c #838AB0",
":+	c #6D5C64",
"<+	c #A58B78",
"[+	c #574B35",
"}+	c #A19EA1",
"|+	c #CBCFE3",
"1+	c #5B6693",
"2+	c #6978A1",
"3+	c #CBE2FE",
"4+	c #9FB1D6",
"5+	c #747EB0",
"6+	c #737DB2",
"7+	c #6B7AA7",
"8+	c #C4DDFC",
"9+	c #C7D9F3",
"0+	c #BFBFC8",
"a+	c #907D72",
"b+	c #635343",
"c+	c #7B797B",
"d+	c #919BB4",
"e+	c #7582B2",
"f+	c #455082",
"g+	c #5A6496",
"h+	c #6976A5",
"i+	c #3E487C",
"j+	c #3E477C",
"k+	c #AEC0E8",
"l+	c #C6D7F4",
"m+	c #BBBDC6",
"n+	c #998B83",
"o+	c #594A3C",
"p+	c #7B7773",
"q+	c #ABAFBD",
"r+	c #515C86",
"s+	c #828BC1",
"t+	c #3A4479",
"u+	c #515C8F",
"v+	c #4C548A",
"w+	c #596396",
"x+	c #464E86",
"y+	c #6B7CAA",
"z+	c #96A4C7",
"A+	c #C0C6D8",
"B+	c #938987",
"C+	c #61534A",
"D+	c #4A443F",
"E+	c #B4BAC4",
"F+	c #C9DBF7",
"G+	c #8194BC",
"H+	c #3B457A",
"I+	c #646CA1",
"J+	c #495080",
"K+	c #454F83",
"L+	c #646DA4",
"M+	c #555E95",
"N+	c #56608D",
"O+	c #B6B9CC",
"P+	c #918990",
"Q+	c #51453E",
"R+	c #8B8887",
"S+	c #BFCEE4",
"T+	c #BCD7F6",
"U+	c #B8CEEC",
"V+	c #63719D",
"W+	c #434C7E",
"X+	c #40497B",
"Y+	c #566096",
"Z+	c #4A548C",
"`+	c #727CAA",
" @	c #8E91AE",
".@	c #8C858D",
"+@	c #514744",
"@@	c #555259",
"#@	c #B3B8C7",
"$@	c #B9D3EF",
"%@	c #B8D5F5",
"&@	c #8EA5CB",
"*@	c #4E598C",
"=@	c #40497E",
"-@	c #566195",
";@	c #454E86",
">@	c #828ABA",
",@	c #5F607C",
"'@	c #787782",
")@	c #979AA2",
"!@	c #B8C9E1",
"~@	c #B4CEF2",
"{@	c #7B95BD",
"]@	c #6178A2",
"^@	c #8499C5",
"/@	c #6176A5",
"(@	c #455088",
"_@	c #7C86B3",
":@	c #696B86",
"<@	c #746F77",
"[@	c #474346",
"}@	c #787679",
"|@	c #ADB8CD",
"1@	c #B0CBED",
"2@	c #90AAD1",
"3@	c #566C95",
"4@	c #A2B8E1",
"5@	c #A8C5EB",
"6@	c #A8BEE5",
"7@	c #6D77A0",
"8@	c #555970",
"9@	c #6D6C73",
"0@	c #858792",
"a@	c #B3C4E0",
"b@	c #88A2CA",
"c@	c #475F8A",
"d@	c #7D97BF",
"e@	c #A2C1E7",
"f@	c #A5C0E3",
"g@	c #9BA9C3",
"h@	c #87899A",
"i@	c #474240",
"j@	c #5C575B",
"k@	c #9EA1B6",
"l@	c #89A2CB",
"m@	c #596C9A",
"n@	c #A0BFE6",
"o@	c #9DBBE1",
"p@	c #9DAFCE",
"q@	c #8D94A7",
"r@	c #666266",
"s@	c #403C3E",
"t@	c #A0A5C3",
"u@	c #566797",
"v@	c #889DC6",
"w@	c #A1B5D7",
"x@	c #92A0BF",
"y@	c #7A7E8B",
"z@	c #6A686D",
"A@	c #1D1B32",
"B@	c #2A2C47",
"C@	c #9097B7",
"D@	c #858DA2",
"E@	c #6F6F7B",
"F@	c #59575E",
"G@	c #282845",
"H@	c #19172E",
"                                                            . + ",
"                                                        @ # $ % ",
"                                                  & * = - ; >   ",
"                                              , ' ) ! ~ { ] ^   ",
"                                            / ( _ : < [ } |     ",
"                                        1 2 3 4 5 6 7 8 9 0     ",
"                                    a b c d e f g h i j k       ",
"                                    l m n o p q r s t u v       ",
"                                w x y z A B C D E F G H         ",
"                              I J K L M N O P Q F R S T         ",
"                            U V W : X Y Z `  ...+.@.#.          ",
"                          $.%.&.*.=.-.;.>.,.'.).!.~.{.          ",
"                        ].^./.(._.:.<.[.}.|.1.2.3.4.            ",
"                      5.6.7.8.9.0.a.b.c.d.e.f.g.h.              ",
"                    i.j.k.l.m.n.o.p.q.r.s.t.u.v.                ",
"                  w.x.y.z.A.B.C.D.n.E.F.G.H.I.J.                ",
"                K.L.M.N.O.P.Q.R.S.T.U.V.W.X.                    ",
"              Y.Z.`. +.+++@+#+$+%+&+*+=+-+;+                    ",
"            >+,+'+)+!+~+{+]+^+/+(+_+:+<+[+                      ",
"            }+|+1+2+3+4+5+6+7+8+9+0+a+b+                        ",
"          c+d+b.e+f+g+h+i+j+k+l+m+n+o+                          ",
"        p+q+r+s+t+u+v+w+x+y+z+A+B+C+                            ",
"      D+E+F+G+H+I+J+K+L+M+N+O+P+Q+                              ",
"      R+S+T+U+V+W+X+Y+Z+`+ @.@+@                                ",
"    @@#@$@%@&@*@=@-@;@>@,@'@                                    ",
"    )@!@~@{@]@^@/@(@_@:@<@[@                                    ",
"  }@|@1@2@3@4@5@6@7@8@9@                                        ",
"  0@a@b@c@d@e@f@g@h@i@                                          ",
"j@k@l@m@n@o@p@q@r@                                              ",
"s@t@u@v@w@x@y@z@                                                ",
"A@B@C@D@E@F@                                                    ",
"G@H@                                                            "};
