/* XPM */
static char * wxglade_xpm[] = {
"32 32 541 2",
"  	c None",
". 	c #252525",
"+ 	c #7A7A7A",
"@ 	c #E2E2E2",
"# 	c #F8F8F8",
"$ 	c #F1F1F1",
"% 	c #526363",
"& 	c #1F6E6E",
"* 	c #2D7C7C",
"= 	c #3E5252",
"- 	c #707070",
"; 	c #A2A9A9",
"> 	c #B1B7B7",
", 	c #F7F8F8",
"' 	c #FFFFFF",
") 	c #FBFBFB",
"! 	c #F4F4F4",
"~ 	c #E7E7E7",
"{ 	c #696969",
"] 	c #6F6F6F",
"^ 	c #565656",
"/ 	c #DDDDDD",
"( 	c #F2F2F2",
"_ 	c #AAABAB",
": 	c #2C8E8E",
"< 	c #2EABAB",
"[ 	c #1D7272",
"} 	c #207979",
"| 	c #1F6060",
"1 	c #3DC8C8",
"2 	c #42CFCF",
"3 	c #839999",
"4 	c #FDFDFD",
"5 	c #F9F9F9",
"6 	c #909090",
"7 	c #686868",
"8 	c #2A2A2A",
"9 	c #BBBBBB",
"0 	c #F7F7F7",
"a 	c #F5F5F5",
"b 	c #767979",
"c 	c #239090",
"d 	c #104040",
"e 	c #000202",
"f 	c #061A1A",
"g 	c #175F5F",
"h 	c #0B2F2F",
"i 	c #2BA5A5",
"j 	c #488A8A",
"k 	c #FCFCFC",
"l 	c #FAFAFA",
"m 	c #A0A0A0",
"n 	c #3F3F3F",
"o 	c #EAEAEA",
"p 	c #A0A1A1",
"q 	c #1B5252",
"r 	c #1C7373",
"s 	c #000101",
"t 	c #0E3939",
"u 	c #228B8B",
"v 	c #0D3636",
"w 	c #279D9D",
"x 	c #527070",
"y 	c #FEFEFE",
"z 	c #868686",
"A 	c #6C6C6C",
"B 	c #EEEEEE",
"C 	c #797B7B",
"D 	c #0B1F1F",
"E 	c #060D00",
"F 	c #0F2711",
"G 	c #1F8080",
"H 	c #279F9F",
"I 	c #446D6D",
"J 	c #D8D9D9",
"K 	c #BCBCBC",
"L 	c #4F4F4F",
"M 	c #424242",
"N 	c #E6E6E6",
"O 	c #D4D4D4",
"P 	c #6C6D6B",
"Q 	c #132403",
"R 	c #3D7A00",
"S 	c #428500",
"T 	c #193505",
"U 	c #0C1310",
"V 	c #9E9E9E",
"W 	c #D1D1D1",
"X 	c #CDCDCD",
"Y 	c #BFBFBF",
"Z 	c #797978",
"` 	c #2A341F",
" .	c #5F625C",
"..	c #122302",
"+.	c #3A3D38",
"@.	c #666666",
"#.	c #565A52",
"$.	c #324420",
"%.	c #376C01",
"&.	c #58B100",
"*.	c #60C100",
"=.	c #5FBF00",
"-.	c #54AA00",
";.	c #366B00",
">.	c #1D3108",
",.	c #2B3B1C",
"'.	c #2A3C17",
").	c #244008",
"!.	c #3D7900",
"~.	c #5BB500",
"{.	c #556D3E",
"].	c #939393",
"^.	c #343434",
"/.	c #64C800",
"(.	c #295300",
"_.	c #142800",
":.	c #1D3A00",
"<.	c #376D00",
"[.	c #59B300",
"}.	c #70E100",
"|.	c #72E500",
"1.	c #70E200",
"2.	c #69D300",
"3.	c #55A900",
"4.	c #478F00",
"5.	c #4E9D00",
"6.	c #4C9900",
"7.	c #74EA00",
"8.	c #508D12",
"9.	c #C7C7C7",
"0.	c #363636",
"a.	c #1D1D1D",
"b.	c #545454",
"c.	c #61C200",
"d.	c #60BF00",
"e.	c #5BB700",
"f.	c #5CB800",
"g.	c #6DDB00",
"h.	c #74E800",
"i.	c #78F200",
"j.	c #7AF700",
"k.	c #79F300",
"l.	c #6AD600",
"m.	c #4B9600",
"n.	c #458A00",
"o.	c #59B100",
"p.	c #6DDA00",
"q.	c #76ED00",
"r.	c #64C900",
"s.	c #4F534A",
"t.	c #1F1F1F",
"u.	c #B3B3B3",
"v.	c #DFDFDF",
"w.	c #E1E1E1",
"x.	c #73E700",
"y.	c #6EDD00",
"z.	c #6BD700",
"A.	c #6EDE00",
"B.	c #75ED00",
"C.	c #7AF500",
"D.	c #7BF800",
"E.	c #7CFA00",
"F.	c #7CF900",
"G.	c #75EC00",
"H.	c #6FE000",
"I.	c #6CD900",
"J.	c #76EC00",
"K.	c #77EF00",
"L.	c #182D03",
"M.	c #5C5C5C",
"N.	c #DADADA",
"O.	c #79F400",
"P.	c #78F100",
"Q.	c #7AF600",
"R.	c #7DFC00",
"S.	c #77F000",
"T.	c #6FDF00",
"U.	c #254B00",
"V.	c #818181",
"W.	c #7BF700",
"X.	c #7FFD00",
"Y.	c #7FFE00",
"Z.	c #7EFE00",
"`.	c #7DFD00",
" +	c #7DFB00",
".+	c #336600",
"++	c #727272",
"@+	c #80FF00",
"#+	c #83FF00",
"$+	c #87FF00",
"%+	c #88FF00",
"&+	c #85FF00",
"*+	c #81FF00",
"=+	c #82FF00",
"-+	c #7FFF00",
";+	c #7EFD00",
">+	c #366D00",
",+	c #858585",
"'+	c #72DE00",
")+	c #8AFB00",
"!+	c #85ED00",
"~+	c #8CFF00",
"{+	c #86FF00",
"]+	c #8EFF00",
"^+	c #91FD00",
"/+	c #86FA00",
"(+	c #346800",
"_+	c #BABABA",
":+	c #79F200",
"<+	c #53A400",
"[+	c #57AB00",
"}+	c #1F3F00",
"|+	c #6DD000",
"1+	c #86FC00",
"2+	c #5FB000",
"3+	c #569E00",
"4+	c #78E800",
"5+	c #80FE00",
"6+	c #7CF500",
"7+	c #416C17",
"8+	c #54A900",
"9+	c #3F7E00",
"0+	c #0F1D00",
"a+	c #5EBD00",
"b+	c #6AD500",
"c+	c #0F1F00",
"d+	c #081100",
"e+	c #57AA00",
"f+	c #84FF00",
"g+	c #80FC03",
"h+	c #79F10B",
"i+	c #77EF0B",
"j+	c #78EF0B",
"k+	c #7BF30C",
"l+	c #72E20C",
"m+	c #748C6A",
"n+	c #58AF00",
"o+	c #4A9400",
"p+	c #65CA00",
"q+	c #75EB00",
"r+	c #3E7C00",
"s+	c #326300",
"t+	c #306100",
"u+	c #7BF600",
"v+	c #67CA2C",
"w+	c #214291",
"x+	c #1D3B88",
"y+	c #1B3A87",
"z+	c #1B3C91",
"A+	c #1E43A1",
"B+	c #224BB2",
"C+	c #2552C2",
"D+	c #2655C8",
"E+	c #2755CA",
"F+	c #2755C9",
"G+	c #2654C7",
"H+	c #2451BE",
"I+	c #3658B1",
"J+	c #80FD00",
"K+	c #7AF400",
"L+	c #71E400",
"M+	c #64CA00",
"N+	c #71E200",
"O+	c #60C000",
"P+	c #51A300",
"Q+	c #56AE00",
"R+	c #63C22C",
"S+	c #2D4A92",
"T+	c #989EB5",
"U+	c #7883A5",
"V+	c #203D88",
"W+	c #1E4197",
"X+	c #2349A7",
"Y+	c #254DB1",
"Z+	c #264FB5",
"`+	c #2650B7",
" @	c #254EB3",
".@	c #2447A1",
"+@	c #8AFE00",
"@@	c #8AFF00",
"#@	c #83FE00",
"$@	c #72E600",
"%@	c #73E800",
"&@	c #65C72D",
"*@	c #38569E",
"=@	c #D0CDD5",
"-@	c #ABAFC2",
";@	c #26438D",
">@	c #1E4093",
",@	c #20449C",
"'@	c #21469F",
")@	c #2146A0",
"!@	c #2147A1",
"~@	c #2247A3",
"{@	c #2248A5",
"]@	c #22449B",
"^@	c #57A800",
"/@	c #91FC00",
"(@	c #8FFF00",
"_@	c #81FE00",
":@	c #7EFC00",
"<@	c #7FFC00",
"[@	c #6ACD2F",
"}@	c #3B5BA7",
"|@	c #DEDCE3",
"1@	c #B7BCD0",
"2@	c #274793",
"3@	c #20449A",
"4@	c #20449B",
"5@	c #21459D",
"6@	c #2145A0",
"7@	c #214399",
"8@	c #080807",
"9@	c #2F5A00",
"0@	c #70CF00",
"a@	c #86FE00",
"b@	c #73D032",
"c@	c #3E5FAF",
"d@	c #E4E1E9",
"e@	c #BBBFD3",
"f@	c #284895",
"g@	c #21439A",
"h@	c #2C1A1A",
"i@	c #582D2B",
"j@	c #20260C",
"k@	c #356207",
"l@	c #57AD00",
"m@	c #71DD00",
"n@	c #8AFA00",
"o@	c #98FF00",
"p@	c #96FF00",
"q@	c #93FF00",
"r@	c #8DF700",
"s@	c #79D400",
"t@	c #539933",
"u@	c #3E5FB1",
"v@	c #21459C",
"w@	c #21459F",
"x@	c #834242",
"y@	c #854949",
"z@	c #736A6A",
"A@	c #7C7C7C",
"B@	c #4B5045",
"C@	c #33471F",
"D@	c #2C5204",
"E@	c #3E6A00",
"F@	c #487E00",
"G@	c #417400",
"H@	c #366300",
"I@	c #274D00",
"J@	c #1B3700",
"K@	c #2B4F2F",
"L@	c #3C5BA8",
"M@	c #E3E0E8",
"N@	c #1F4297",
"O@	c #22459C",
"P@	c #A45454",
"Q@	c #8E8484",
"R@	c #D5D5D5",
"S@	c #AAAAAA",
"T@	c #2E2E28",
"U@	c #262A08",
"V@	c #478E00",
"W@	c #438800",
"X@	c #448800",
"Y@	c #5CB42C",
"Z@	c #3A59A3",
"`@	c #1F439B",
" #	c #23428C",
".#	c #384F79",
"+#	c #3D547C",
"@#	c #74828C",
"##	c #F9F5B5",
"$#	c #FFF9B8",
"%#	c #FCF7B7",
"&#	c #756161",
"*#	c #D6D6D6",
"=#	c #5F5F5C",
"-#	c #252609",
";#	c #62C400",
">#	c #67CE00",
",#	c #66CD00",
"'#	c #68D100",
")#	c #6DDD00",
"!#	c #62BF2E",
"~#	c #3C5AA6",
"{#	c #1F439A",
"]#	c #1E4096",
"^#	c #405278",
"/#	c #CAA129",
"(#	c #DBAA22",
"_#	c #EDB824",
":#	c #FDC827",
"<#	c #FFD22A",
"[#	c #FFD32A",
"}#	c #796B68",
"|#	c #4A3F23",
"1#	c #7DC51D",
"2#	c #88D71F",
"3#	c #8ADC1F",
"4#	c #8BDD1F",
"5#	c #8BDD20",
"6#	c #74AA54",
"7#	c #3D5BA9",
"8#	c #E5E3EB",
"9#	c #BBBFD4",
"0#	c #1E4094",
"a#	c #204399",
"b#	c #1E4198",
"c#	c #42547B",
"d#	c #D1A62B",
"e#	c #DEB645",
"f#	c #E0C165",
"g#	c #EDB92C",
"h#	c #F9C227",
"i#	c #FEC928",
"j#	c #ED4A42",
"k#	c #E84239",
"l#	c #CC332B",
"m#	c #BA2A1F",
"n#	c #CC3A21",
"o#	c #D73E23",
"p#	c #DB4024",
"q#	c #DB3E23",
"r#	c #A73B4B",
"s#	c #3C59A9",
"t#	c #E9E8F1",
"u#	c #C1C6DB",
"v#	c #29499A",
"w#	c #1E4196",
"x#	c #20439A",
"y#	c #1F4299",
"z#	c #45577F",
"A#	c #DCB032",
"B#	c #EBD69E",
"C#	c #E7DFD7",
"D#	c #E6BB42",
"E#	c #EEB725",
"F#	c #FAC127",
"G#	c #E51A0F",
"H#	c #DE2E23",
"I#	c #D23E35",
"J#	c #CE1207",
"K#	c #DE1407",
"L#	c #E91508",
"M#	c #EC1608",
"N#	c #ED1507",
"O#	c #B31F2F",
"P#	c #3F5BAF",
"Q#	c #EDEFFA",
"R#	c #C6CFE7",
"S#	c #2B4DA1",
"T#	c #1E4298",
"U#	c #1F429B",
"V#	c #465881",
"W#	c #E3B736",
"X#	c #F5E1AC",
"Y#	c #F2EBE7",
"Z#	c #ECC148",
"`#	c #DE180F",
" $	c #E29F9B",
".$	c #DEC6C4",
"+$	c #D32E24",
"@$	c #E51507",
"#$	c #E71507",
"$$	c #E81507",
"%$	c #B1202F",
"&$	c #3051AD",
"*$	c #94A9DF",
"=$	c #7B93D0",
"-$	c #2347A2",
";$	c #1D3F91",
">$	c #1D3E8D",
",$	c #1E3E8E",
"'$	c #1E3E8F",
")$	c #1D3E8F",
"!$	c #1D3E91",
"~$	c #44557B",
"{$	c #E4B735",
"]$	c #FAE6AF",
"^$	c #F8F0EB",
"/$	c #F0C549",
"($	c #F0B925",
"_$	c #CBCBCB",
":$	c #E11A0F",
"<$	c #ECACA7",
"[$	c #EBD4D1",
"}$	c #DA342A",
"|$	c #DF1407",
"1$	c #E31406",
"2$	c #AA1E2C",
"3$	c #24459F",
"4$	c #274EB0",
"5$	c #244BAB",
"6$	c #183479",
"7$	c #173274",
"8$	c #183274",
"9$	c #183375",
"0$	c #173377",
"a$	c #3E4C6C",
"b$	c #DAAF33",
"c$	c #F7E3AE",
"d$	c #F1C549",
"e$	c #C5C5C5",
"f$	c #E31A0F",
"g$	c #F4B1AD",
"h$	c #F3DAD8",
"i$	c #DF352B",
"j$	c #E01407",
"k$	c #E01406",
"l$	c #AE1A21",
"m$	c #423472",
"n$	c #403778",
"o$	c #3F3676",
"p$	c #3C336F",
"q$	c #3C376C",
"r$	c #59678F",
"s$	c #445682",
"t$	c #3A4D7C",
"u$	c #394C7B",
"v$	c #3A4E7F",
"w$	c #576071",
"x$	c #D3AA32",
"y$	c #F5B2AD",
"z$	c #F6DDDA",
"A$	c #E1362B",
"B$	c #E11507",
"C$	c #D81307",
"D$	c #CF1308",
"E$	c #CD1308",
"F$	c #CC1308",
"G$	c #C3352E",
"H$	c #DAD8D8",
"I$	c #D9D9D9",
"J$	c #D6D6D8",
"K$	c #D6D6D7",
"L$	c #D4D5D6",
"M$	c #D6CFB4",
"N$	c #E5BA3B",
"O$	c #F4E0AB",
"P$	c #F9C027",
"  . + @ # $ % & * = - ; > , ' ) ! ~ {                           ",
"] ^ / ( ) _ : < [ } | 1 2 3 ) 4 5 ( 6 7                         ",
"8 9 ! 0 a b c d e f g h i j ~ k k l m ]                         ",
"n o l l ! p q r s t u v w x ( y ' ' z A                         ",
"{ k ' y 4 B C D E F G H I J ' ' ' K L                           ",
"M N ' ' y O P Q R S T U V W X Y Z `  .                          ",
"..+.@.- #.$.%.&.*.=.-.;.>.,.'.).!.~.{.].^.7                     ",
"/.(._.:.<.[.}.}.|.1.2.3.4.5.6.&.}.7.8.9.0.a.b.                  ",
"2.c.d.e.f.g.h.i.j.k.7.l.m.n.o.p.|.q.r.s.t.u.v.                w.",
"x.}.y.z.A.B.C.D.E.F.k.G.H.l.I.J.i.K.l.L.M.N.                    ",
"O.O.k.P.i.Q.F.R.R.R.F.Q.P.S.i.C.Q.P.T.U.V.                      ",
"W.E.R.X.Y.Y.Z.`.R.R.Z. +F.D.D.F.F.C.q..+++                      ",
"E.R.@+#+$+%+&+*+*+#+#+=+-+;+R.R.F.D.i.>+,+                      ",
"R.Y.=+'+)+!+~+&+{+]+^+/+#+-+;+;+R.E.k.(+_+                      ",
" +E.:+<+[+}+|+&+1+2+3+4+$+*+-+@+*+5+6+7+                        ",
"R.D.x.8+9+0+a+F.b+c+d+e+f+g+h+i+j+k+l+m+                        ",
"Y.F.G.n+m.o+p+q+I.r+s+t+u+v+w+x+y+z+A+B+C+D+E+E+E+F+G+H+I+      ",
"f+J+K+L+r.M+N+K.}.O+P+Q+7.R+S+T+U+V+W+X+Y+Z+`+`+`+`+`+ @.@      ",
"+@@@#@W.K.q.P.O.K.$@}.%@i.&@*@=@-@;@>@,@'@)@)@)@)@!@~@{@]@      ",
"^@/@(@{+_@X.:@:@ +D.D.E.<@[@}@|@1@2@>@3@4@4@4@4@4@4@5@6@7@      ",
"8@9@0@a@&+{+$+%+$+$+%+@@~+b@c@d@e@f@>@3@4@4@4@4@4@4@5@6@g@      ",
"h@i@j@k@l@m@n@o@o@p@q@r@s@t@u@d@e@f@>@3@4@4@4@4@4@4@v@w@g@      ",
"x@y@z@A@B@C@D@E@F@G@H@I@J@K@L@M@e@f@>@3@4@4@4@4@3@N@N@,@O@      ",
"P@Q@W R@X S@T@U@V@W@X@V@[.Y@Z@M@e@f@>@3@4@4@4@`@W+ #.#+#@###$#%#",
"&#        *#=#-#;#>#,#'#)#!#~#M@e@f@>@3@4@4@4@{#]#^#/#(#_#:#<#[#",
"            }#|#1#2#3#4#5#6#7#8#9#f@0#3@4@4@4@a#b#c#d#e#f#g#h#i#",
"        j#k#l#m#n#o#p#p#q#r#s#t#u#v#w#3@4@4@4@x#y#z#A#B#C#D#E#F#",
"        G#H#I#J#K#L#M#M#N#O#P#Q#R#S#T#3@4@4@4@4@U#V#W#X#Y#Z#E#F#",
"        `# $.$+$K#@$#$#$$$%$&$*$=$-$]#;$>$,$'$)$!$~${$]$^$/$($F#",
"_$      :$<$[$}$|$@$#$@$1$2$3$4$5$y#y+6$7$8$9$9$0$a$b$c$^$d$($F#",
"e$      f$g$h$i$j$@$#$@$k$l$m$n$o$p$q$r$s$t$u$u$v$w$x$X#^$d$($F#",
"*#      G#y$z$A$j$@$#$@$B$C$D$D$E$F$G$H$I$J$K$K$L$M$N$O$^$d$($P$"};
