/* XPM */
static char * xpaint_xpm[] = {
"48 48 301 2",
"  	c None",
". 	c #00004E",
"+ 	c #002A6C",
"@ 	c #003F7A",
"# 	c #005F90",
"$ 	c #001F65",
"% 	c #003F7B",
"& 	c #00A9C4",
"* 	c #00FEFE",
"= 	c #005589",
"- 	c #00AAC4",
"; 	c #00D4E1",
"> 	c #007FA6",
", 	c #00004F",
"' 	c #005489",
") 	c #0094B5",
"! 	c #00BFD3",
"~ 	c #006A98",
"{ 	c #00155D",
"] 	c #00BFD2",
"^ 	c #00E9F0",
"/ 	c #007FA7",
"( 	c #004A82",
"_ 	c #00F4F7",
": 	c #001F64",
"< 	c #000A56",
"[ 	c #00B4CB",
"} 	c #00DFE8",
"| 	c #00DFE9",
"1 	c #080751",
"2 	c #1A1656",
"3 	c #947F7A",
"4 	c #D1B38B",
"5 	c #342C5E",
"6 	c #68596D",
"7 	c #9D86A8",
"8 	c #C0A595",
"9 	c #221D59",
"0 	c #34225F",
"a 	c #2C2C68",
"b 	c #4E4365",
"c 	c #DD8769",
"d 	c #E27057",
"e 	c #0000FE",
"f 	c #574BCF",
"g 	c #8370B7",
"h 	c #9D87A8",
"i 	c #A68E7F",
"j 	c #000034",
"k 	c #8A5A79",
"l 	c #87778F",
"m 	c #595980",
"n 	c #E85945",
"o 	c #F71E17",
"p 	c #FE0000",
"q 	c #463CD8",
"r 	c #8B7777",
"s 	c #00003B",
"t 	c #34222D",
"u 	c #56404E",
"v 	c #997B8F",
"w 	c #6F6F8D",
"x 	c #4A4A78",
"y 	c #837075",
"z 	c #9D867C",
"A 	c #EE4334",
"B 	c #0B0731",
"C 	c #22161E",
"D 	c #947088",
"E 	c #90788E",
"F 	c #868699",
"G 	c #342D5E",
"H 	c #DD8668",
"I 	c #D2B38B",
"J 	c #00004B",
"K 	c #000045",
"L 	c #110B0F",
"M 	c #3B2935",
"N 	c #8F6581",
"O 	c #9C9CA6",
"P 	c #AEA49D",
"Q 	c #DFC963",
"R 	c #F9F511",
"S 	c #ECDF3A",
"T 	c #57DF3A",
"U 	c #1AF511",
"V 	c #5C3C51",
"W 	c #98788D",
"X 	c #B2B2B2",
"Y 	c #FEFE00",
"Z 	c #F0E62E",
"` 	c #8BCD5D",
" .	c #00FE00",
"..	c #110E26",
"+.	c #1A1611",
"@.	c #794F6A",
"#.	c #855774",
"$.	c #ADA7AB",
"%.	c #C5C17A",
"&.	c #FBFB07",
"*.	c #94C963",
"=.	c #342C22",
"-.	c #573C48",
";.	c #D5D154",
">.	c #CAB395",
",.	c #34EC22",
"'.	c #34EC23",
").	c #110E51",
"!.	c #9D867A",
"~.	c #7A6851",
"{.	c #56384C",
"].	c #68445B",
"^.	c #9B7F91",
"/.	c #A3919D",
"(.	c #C6B39A",
"_.	c #CEB390",
":.	c #2E2756",
"<.	c #BA9F7E",
"[.	c #685945",
"}.	c #5D4B43",
"|.	c #452D3C",
"1.	c #9E8696",
"2.	c #B6A49C",
"3.	c #C2B39F",
"4.	c #68595F",
"5.	c #B79D7A",
"6.	c #837057",
"7.	c #513547",
"8.	c #BEB3A4",
"9.	c #CBB394",
"0.	c #D7A9A0",
"a.	c #E394C9",
"b.	c #7A6872",
"c.	c #9C866E",
"d.	c #CCAE88",
"e.	c #DDC6A8",
"f.	c #F3ECE2",
"g.	c #BFBFBF",
"h.	c #8B8789",
"i.	c #AE9D9E",
"j.	c #BAB3A9",
"k.	c #D8A7A4",
"l.	c #E68ED5",
"m.	c #E98ADD",
"n.	c #ED81ED",
"o.	c #342C59",
"p.	c #8D7966",
"q.	c #BDA280",
"r.	c #FBF8F5",
"s.	c #FEFEFE",
"t.	c #F4F4F4",
"u.	c #555154",
"v.	c #8E627E",
"w.	c #BFB3A2",
"x.	c #EB86E5",
"y.	c #DBA3AC",
"z.	c #937E69",
"A.	c #62545E",
"B.	c #05044F",
"C.	c #000000",
"D.	c #98788C",
"E.	c #D1B38C",
"F.	c #A28B71",
"G.	c #8A7664",
"H.	c #282255",
"I.	c #796862",
"J.	c #C9B790",
"K.	c #3D5448",
"L.	c #001F1F",
"M.	c #825873",
"N.	c #DBCDD6",
"O.	c #DDDDDD",
"P.	c #DAD1C5",
"Q.	c #D2B895",
"R.	c #D2B48C",
"S.	c #DAA5A8",
"T.	c #EA88E1",
"U.	c #C9AC87",
"V.	c #857264",
"W.	c #69D9C5",
"X.	c #366060",
"Y.	c #D9D9D9",
"Z.	c #F5F5F5",
"`.	c #E2E2E2",
" +	c #D3BD9F",
".+	c #D3BA98",
"++	c #C6A985",
"@+	c #453B59",
"#+	c #34ECE2",
"$+	c #00C9C9",
"%+	c #5ABABA",
"&+	c #878787",
"*+	c #F0F0F0",
"=+	c #FAFAFA",
"-+	c #E7E7E7",
";+	c #E1DAD2",
">+	c #D4C1A8",
",+	c #B79D7D",
"'+	c #99836D",
")+	c #564A5C",
"!+	c #453B2E",
"~+	c #AFC09F",
"{+	c #68D9C5",
"]+	c #45E6D8",
"^+	c #007F7F",
"/+	c #6CC1C1",
"(+	c #C1C1C1",
"_+	c #F8F8F8",
":+	c #EBEBEB",
"<+	c #D5C6B2",
"[+	c #D4C0A5",
"}+	c #AE9578",
"|+	c #736361",
"1+	c #A68E6E",
"2+	c #4E4334",
"3+	c #83D0B7",
"4+	c #B7BD9A",
"5+	c #83B097",
"6+	c #625B53",
"7+	c #EFEFEF",
"8+	c #E7E4DF",
"9+	c #D6CBBC",
"0+	c #D3CBC5",
"a+	c #696876",
"b+	c #474A70",
"c+	c #17185A",
"d+	c #C0A580",
"e+	c #342D23",
"f+	c #AF9674",
"g+	c #6F6F6F",
"h+	c #FBFBFB",
"i+	c #AEB1B8",
"j+	c #797979",
"k+	c #A2A3A7",
"l+	c #B5B7BA",
"m+	c #BFC0C3",
"n+	c #B5B6BA",
"o+	c #6F7287",
"p+	c #5C4F5D",
"q+	c #A49481",
"r+	c #3C3D41",
"s+	c #A0A4AD",
"t+	c #4D4D4D",
"u+	c #959595",
"v+	c #5C5C5C",
"w+	c #5E5E5E",
"x+	c #67696D",
"y+	c #747986",
"z+	c #63687E",
"A+	c #42456E",
"B+	c #BA9F7F",
"C+	c #717684",
"D+	c #26272C",
"E+	c #4C4C4C",
"F+	c #656872",
"G+	c #AAAAAA",
"H+	c #D8D8D8",
"I+	c #252760",
"J+	c #51455B",
"K+	c #9F8870",
"L+	c #8B7765",
"M+	c #A6A6A6",
"N+	c #939498",
"O+	c #757A86",
"P+	c #CCCCCE",
"Q+	c #AEB0B5",
"R+	c #16165B",
"S+	c #C0A482",
"T+	c #56575A",
"U+	c #535356",
"V+	c #808080",
"W+	c #686C77",
"X+	c #7C808C",
"Y+	c #212260",
"Z+	c #0E0E57",
"`+	c #30304D",
" @	c #646770",
".@	c #6A6E79",
"+@	c #5A5C61",
"@@	c #5A5C62",
"#@	c #888A91",
"$@	c #64676F",
"%@	c #8A8D96",
"&@	c #7F838E",
"*@	c #505178",
"=@	c #2A2C63",
"-@	c #33334D",
";@	c #5F6168",
">@	c #5F6269",
",@	c #767A83",
"'@	c #7F7F7F",
")@	c #7C818C",
"!@	c #92949B",
"~@	c #09094E",
"{@	c #1C1C4E",
"]@	c #636467",
"^@	c #737373",
"/@	c #7A7E8A",
"(@	c #434374",
"_@	c #1C1D5C",
":@	c #13134E",
". . . . . . . . . . . . . . . . . . . . . . . . . . . . . . . . . . . . . . . . . . . . . . . . ",
". . . . . . . . . . . . . . . . . . . . . . . . . . . . . . . . . . . . . . . . . . . . . . . . ",
". . . . . . . . . . . . . . . . . . . . . . . . . . . . . + @ . . . . . . . . . . . . . . . . . ",
". . . . . . . # $ . . . # % . # # # # # $ . . . . . . . . & * . . . . . . . . . . . . . . . . . ",
". . . . . . . * = . . . * - . * ; > > * - , . . . . . . . ' > . . . . . . . . . + > . . . . . . ",
". . . . . . . ) ! . . ~ * % . * - . . ) * , . . . . . . . . . . . . . . . . . . = * . . . . . . ",
". . . . . . . { ] ] % ^ @ . . * - . . ' * , . > ] ] % . . > ] . . ] > / ] > . , ; * ] > . . . . ",
". . . . . . . . { * ^ ~ . . . * - . . ^ * , ( _ $ ~ ^ , . & * . . * _ # * _ ( , ~ * : { . . . . ",
". . . . . . . . . * * ' . . . * * * * * = . . . . ' * , . & * . . * & . , * ' . = * . . . . . . ",
". . . . . . . < [ } ( _ : . . * - . . . . . < [ | ^ * , . & * . . * & . , * ' . = * . . . . . . ",
". . . . . . . ' * . . - * . . * - . . . . . ' * , ' * , . & * . . * & . , * ' . = * . . . . . . ",
". . . . . . . ) ! . . ~ * % . * - . . . . . ' * , ) * , . & * . . * & . , * ' . = * . . . . . . ",
". . . . . . . * = . . . * - . * - . . . . . + ; / ; ; / . & * . . * & . , * ' . + ; > . . . . . ",
". . . . . . . # $ . . . # % . # % . . . . . . @ # % @ # . @ # . . # @ . , # : . . % # . . . . . ",
". . . . . . . . . . . . . . . . . . . . . . . . . . . . . . . . . . . . . . . . . . . . . . . . ",
". . . . . . . . . . . . . . . . . . . . . . . . . . . . . . . . . . . . . . . . . . . . . . . . ",
". . . . . . . . . . . . . . . . . . . . . . . . . . . . . . . . . . . . . . . . . . . . . . . . ",
". . . . . . . . . . . . . . . . . . . 1 2 2 2 3 4 4 4 4 4 4 4 4 4 4 4 4 2 2 1 . . . . . . . . . ",
". . . . . . . . . . . . . . . . . . 5 6 4 4 4 4 4 4 4 4 7 7 7 7 8 4 4 4 4 4 6 5 9 . . . . . . . ",
". . . 0 a . . . . . . . . . . b b b 4 4 c d d d d 4 4 4 e e e e f g h 4 4 4 4 4 i 2 . . . . . . ",
". . j k l m , . . . . . . 9 6 4 4 4 4 n o p p p p 4 4 4 e e e e e e q 4 4 4 4 4 4 r . . . . . . ",
". . s t u v w x . . . . y z 4 4 4 4 A p p p p p d 4 4 4 g g e e f g h 4 4 4 4 4 4 4 . . . . . . ",
". . . s B C D E F . G z 4 4 4 4 4 4 c H H H H H I 4 4 4 4 4 7 7 8 4 4 4 4 4 4 4 4 4 z . . . . . ",
". . . . J K L M N O P 4 4 Q R R S 4 4 4 4 4 4 4 4 4 4 4 4 4 4 4 4 4 4 T U T 4 4 4 4 4 . . . . . ",
". . . . . . . j V k W X Y Y Y Y Z 4 4 4 4 4 4 4 4 4 4 4 4 4 4 `  . . . . . . . .4 4 4 . . . . . ",
". . . . . . . . ..+.@.#.$.%.&.R S 4 4 4 4 4 4 4 4 4 4 4 4 4 4 *.U  . . . . . . .4 4 4 . . . . . ",
". . . . . . . . r 4 =.-.k D ;.>.4 4 4 4 4 4 4 4 4 4 4 4 4 4 4 4 4 ,.,.,.,.,.,.'.4 4 4 . . . . . ",
". . . . . . . ).!.4 4 ~.{.].^./.(._.4 4 4 4 4 4 4 4 4 4 4 4 4 4 4 4 4 4 4 4 4 4 4 4 y . . . . . ",
". . . . . . . :.<.4 4 4 [.}.|.k 1.2.3.4 4 4 4 4 4 4 4 4 4 4 4 4 4 4 4 4 4 4 4 4 4 4 . . . . . . ",
". . . . . . . 4.<.4 4 4 4 5.6.t 7.D v 8.9.4 4 4 4 4 4 4 4 4 4 0.a.4 4 4 4 4 4 4 4 b.. . . . . . ",
". . . . . . . c.d.4 4 4 4 e.f.g.h.].k D i.j.4 4 4 4 4 4 k.l.l.m.n.l.l.k.4 4 4 4 c.o.. . . . . . ",
". . . . . . . p.q.4 4 4 4 r.s.s.t.u.L k v.N w.4 4 4 4 4 x.n.n.n.n.n.n.y.4 4 4 z.A.B.. . . . . . ",
". . . . . . . :.<.4 4 4 4 s.s.s.4 4 4 C.V k D.X E.4 4 4 n.n.n.n.n.n.n.n.4 4 F.G.. . . . . . . . ",
". . . . . . . H.I.4 4 4 4 4 4 4 4 4 4 J.K.L.M.N.O.P.Q.R.S.T.T.T.T.T.T.S.U.V.H.. . . . . . . . . ",
". . . . . . . 5 5 4 4 4 4 4 4 4 4 4 4 W.* * X.Y.Z.Z.`. +.+4 4 4 4 4 4 ++G.@+. . . . . . . . . . ",
". . . . b b b 4 4 4 4 4 6.6.5.4 4 4 4 #+* * $+%+&+*+=+-+;+>+4 4 4 4 ,+'+)+. . . . . . . . . . . ",
". . . 6 4 4 4 4 4 [.[.[.C.C.!+[.4 4 4 ~+{+{+* ]+^+/+(+s._+:+<+[+4 }+|+@+. . . . . . . . . . . . ",
". . . 4 4 4 4 1+2+C.C.C.C.C.C.C.4 4 4 4 4 4 3+4+3+5+6+-+7+s.*+8+9+0+a+b+b+b+c+. . . . . . . . . ",
". . @+4 4 4 4 d+e+C.C.C.C.C.C.C.4 4 4 4 4 4 4 4 4 4 f+ +g+`.s.h+i+j+k+l+m+n+o+. . . . . . . . . ",
". . p+4 4 4 4 4 d+5.5.5.5.5.5.5.4 4 4 4 4 4 4 4 4 4 4 4 q+r+O.s.s+t+u+v+w+x+y+z+A+. . . . . . . ",
". . p+4 4 4 4 4 4 4 4 4 4 4 4 4 4 4 4 4 4 4 4 4 4 B+G.G.G.:.C+D+C+E+E+E+t+F+G+H+C+I+. . . . . . ",
". . J+I.K+U.U.d.4 4 4 4 4 U.U.U.U.U.U.U.U.L+G.G.I.I.I.I.. . . . A+E+E+E+M+N+O+P+Q+C+R+. . . . . ",
". . . . 4.4.4.c.S+S+S+S+S+G.G.G.G.G.G.G.G.4.4.4., . . . . . . . . E+E+E+T+U+V+W+X+C+k+Y+Z+. . . ",
". . . . . . . )+)+)+)+)+)+)+)+)+)+)+)+)+)+, . . . . . . . . . . . `+E+E+ @.@+@@@#@$@%@&@*@=@. . ",
". . . . . . . . . . . . . . . . . . . . . . . . . . . . . . . . . . -@E+t+;@;@>@,@'@X )@!@!@I+. ",
". . . . . . . . . . . . . . . . . . . . . . . . . . . . . . . . . . ~@{@{@E+E+t+]@^@^@/@%@(@_@. ",
". . . . . . . . . . . . . . . . . . . . . . . . . . . . . . . . . . . . . :@:@:@:@:@:@_@_@. . . ",
". . . . . . . . . . . . . . . . . . . . . . . . . . . . . . . . . . . . . . . . . . . . . . . . "};
