/* XPM */
static char * xv_xpm[] = {
"32 32 52 1",
" 	c None",
".	c #EBDF9E",
"+	c #635E44",
"@	c #EAD195",
"#	c #E7C48C",
"$	c #625941",
"%	c #E4B885",
"&	c #766F4F",
"*	c #60533E",
"=	c #E2A97B",
"-	c #5F4E3A",
";	c #E09F73",
">	c #5E4936",
",	c #DD906A",
"'	c #5D4333",
")	c #DB8F6A",
"!	c #5C4232",
"~	c #DB8462",
"{	c #5C3E2F",
"]	c #5B3D2E",
"^	c #D87758",
"/	c #5B392C",
"(	c #D07255",
"_	c #D66A51",
":	c #593428",
"<	c #583327",
"[	c #D45C49",
"}	c #592F25",
"|	c #D66451",
"1	c #D15140",
"2	c #D0503F",
"3	c #CD4B3E",
"4	c #BD463A",
"5	c #582A22",
"6	c #5D3028",
"7	c #CE4237",
"8	c #C03D33",
"9	c #B53930",
"0	c #53241D",
"a	c #56251E",
"b	c #6B3528",
"c	c #CB2A26",
"d	c #CD362E",
"e	c #C6342D",
"f	c #BD312A",
"g	c #541E19",
"h	c #551F1A",
"i	c #CD3D36",
"j	c #541A17",
"k	c #C71E1E",
"l	c #531513",
"m	c #521010",
"                                ",
"                                ",
"                                ",
"                                ",
"                                ",
"                                ",
"       ..        ..  ...    .   ",
"      ...+     ...++....+  ...  ",
"      ...+    ....+.....+ ....+ ",
"      ...+   ....+.....++ ...++ ",
"      @@@+  @@@@+@@@@@++ @@@@+  ",
"      ###$ ####$$ $###$ ####$$  ",
"      %%%&%%%%**  %%%**%%%%%%%% ",
"      =======--   ===- =======--",
"      ;;;;;;>>   ;;;>> ;;;;;;>> ",
"      ,,,,,''   ,,,)!   ,,,'''  ",
"     ~~~~~{{   ~~~~]{  ~~~{{    ",
"    ^^^^^//   ^^^^(/   ^^//     ",
"   ______:   _____<:  ___:      ",
"  [[[[[[[}  [[[[[|}   [[}}      ",
" 112341115 11151116  11[5       ",
"7778907777777aa7777b777a}       ",
"cdefghddddddhh ddiddddhh        ",
"cccjj cccccjj   cccccjj         ",
"kkkl   kkkll     kkkll          ",
" kkk    mmm       mmm           ",
"  mmm                           ",
"                                ",
"                                ",
"                                ",
"                                ",
"                                "};
