/* XPM */
static char * xwelltris_xpm[] = {
"32 32 8 1",
" 	c None",
".	c #8080FF",
"+	c #00AA00",
"@	c #000000",
"#	c #FFFF00",
"$	c #B21F1F",
"%	c #0000FF",
"&	c #FF00FF",
"...+@@@+@@@+@@@+@@@+@@@+@@@+@@@+",
"...+@@@+@@@+@@@+@@@+@@@+@@@+@@@+",
"...+@@@+@@@+@@@+@@@+@@@+@@@+@@@+",
"++++++++++++++++++++++++++++++++",
"...+...+@@@+@@@+###+###+...+@@@+",
"...+...+@@@+@@@+###+###+...+@@@+",
"...+...+@@@+@@@+###+###+...+@@@+",
"++++++++++++++++++++++++++++++++",
"@@@+...+@@@+@@@+###+###+...+...+",
"@@@+...+@@@+@@@+###+###+...+...+",
"@@@+...+@@@+@@@+###+###+...+...+",
"++++++++++++++++++++++++++++++++",
"@@@+@@@+@@@+@@@+@@@+@@@+$$$+...+",
"@@@+@@@+@@@+@@@+@@@+@@@+$$$+...+",
"@@@+@@@+@@@+@@@+@@@+@@@+$$$+...+",
"++++++++++++++++++++++++++++++++",
"@@@+@@@+@@@+@@@+@@@+@@@+$$$+$$$+",
"@@@+@@@+@@@+@@@+@@@+@@@+$$$+$$$+",
"@@@+@@@+@@@+@@@+@@@+@@@+$$$+$$$+",
"++++++++++++++++++++++++++++++++",
"%%%+%%%+%%%+%%%+...+...+$$$+@@@+",
"%%%+%%%+%%%+%%%+...+...+$$$+@@@+",
"%%%+%%%+%%%+%%%+...+...+$$$+@@@+",
"++++++++++++++++++++++++++++++++",
"@@@+@@@+@@@+...+...+&&&+###+###+",
"@@@+@@@+@@@+...+...+&&&+###+###+",
"@@@+@@@+@@@+...+...+&&&+###+###+",
"++++++++++++++++++++++++++++++++",
"@@@+@@@+@@@+&&&+&&&+&&&+###+###+",
"@@@+@@@+@@@+&&&+&&&+&&&+###+###+",
"@@@+@@@+@@@+&&&+&&&+&&&+###+###+",
"++++++++++++++++++++++++++++++++"};
