/* XPM */
static char *xzb[] = {
/* columns rows colors chars-per-pixel */
"32 32 11 1",
"  c black",
". c #191919",
"X c gray20",
"o c #4c4c4c",
"O c #666667",
"+ c gray50",
"@ c gray60",
"# c #b2b2b2",
"$ c gray80",
"% c gray90",
"& c white",
/* pixels */
"    .X         .     .          ",
"    .o         o#   .X          ",
"  ..@$o        .o               ",
"  .o#&+X.                     .X",
"    oO.     X.  .              .",
"    .X .     .   .Oo            ",
"     .       ..OO+@.  .    .    ",
"          X+@#OX.     X.  .X    ",
"      .o@@@@X    .              ",
" . o@#%@o.     . X.   ..Xo. X.  ",
"X$&$@..           .+O@$$@o  .   ",
".#$@%&%@@+.  .+O#&%#@@O.O.      ",
"  oOo@#&%&&%&&&&%#@OOXXO.       ",
"   oO .oX+#&%#+@o.X.X.+.        ",
"    .O.##  o@Oooo.XX oo        .",
"     .+oo.  X@@oXXo.oo  .     .O",
"       oo  . o+@@o.O@   X.   XO ",
"        o+ +$.@O++@#       .oX  ",
"    X. . .+o#oX@++@+ .    .+X   ",
"    .      oOX ++O@+    .OO     ",
"   .        oO.o@O@+   .oX      ",
" .@$o        XO X@@+ .XoX       ",
" X..#.    Xo. .+XX@+XOo.        ",
"    X. ...X.X  .oo+OOO.    .  o@",
"      .ooo       o#@o.      O%@@",
"       . .  .oX oOX@X..    #$+XX",
"            X.o o$O ++@Oo $%OXo.",
" ..X.....        .+$X XX+O@ooXo.",
" X+O@%#@@@.+. . ++ X#@$@o+OO##+X",
"   oo +%#@o@. X +@$O.XooOoo.#@. ",
" o%@OO@@#$o#@OOO#X XOO+O@$oX+@  ",
" ...X.....X...X..    X...@o#$oX "
};
