/* XPM */
static char * youtranslate_xpm[] = {
"32 32 192 2",
"  	c None",
". 	c #000000",
"+ 	c #010000",
"@ 	c #060302",
"# 	c #28180E",
"$ 	c #3C2B21",
"% 	c #47382E",
"& 	c #4B3C33",
"* 	c #050302",
"= 	c #4C372A",
"- 	c #90786A",
"; 	c #C2B0A5",
"> 	c #D9C7BD",
", 	c #EBD9CE",
"' 	c #F2E0D5",
") 	c #010100",
"! 	c #170E09",
"~ 	c #614F44",
"{ 	c #C3A899",
"] 	c #FEEDE3",
"^ 	c #FEF0E7",
"/ 	c #291A11",
"( 	c #987967",
"_ 	c #F1D6C6",
": 	c #FEE7DA",
"< 	c #0B0501",
"[ 	c #412311",
"} 	c #D9A78A",
"| 	c #FEDCC8",
"1 	c #FEDECB",
"2 	c #431F0A",
"3 	c #CA855B",
"4 	c #FED3BB",
"5 	c #FED5BD",
"6 	c #020100",
"7 	c #2D1303",
"8 	c #CF6E34",
"9 	c #D7AE98",
"0 	c #CDB7A9",
"a 	c #D6BAAA",
"b 	c #F6C8AC",
"c 	c #FECBAD",
"d 	c #1B0C02",
"e 	c #99400B",
"f 	c #FA9255",
"g 	c #D7B29B",
"h 	c #9C9A99",
"i 	c #999999",
"j 	c #9E9B9A",
"k 	c #C8AC9C",
"l 	c #FDC3A0",
"m 	c #FEC3A0",
"n 	c #662B07",
"o 	c #F06412",
"p 	c #FE9F67",
"q 	c #FEB990",
"r 	c #C8A28C",
"s 	c #908B88",
"t 	c #878787",
"u 	c #898887",
"v 	c #C7A28C",
"w 	c #F8B68F",
"x 	c #F9B68F",
"y 	c #0C0501",
"z 	c #C3510F",
"A 	c #FE6A13",
"B 	c #FE9B60",
"C 	c #FEB183",
"D 	c #F6AE82",
"E 	c #B8937E",
"F 	c #7A7979",
"G 	c #797979",
"H 	c #867F7A",
"I 	c #CA9B7F",
"J 	c #CC9B7F",
"K 	c #512206",
"L 	c #FD6A13",
"M 	c #FE8944",
"N 	c #FEA672",
"O 	c #FEA773",
"P 	c #FCA572",
"Q 	c #A3816C",
"R 	c #6C6A68",
"S 	c #686868",
"T 	c #6F6B68",
"U 	c #CD926F",
"V 	c #FBA572",
"W 	c #D0936F",
"X 	c #706B68",
"Y 	c #923E0B",
"Z 	c #FE782A",
"` 	c #FE995E",
" .	c #FE9E66",
"..	c #EB9665",
"+.	c #90715E",
"@.	c #5A5A5A",
"#.	c #75665C",
"$.	c #D38C63",
"%.	c #D68E63",
"&.	c #77665C",
"*.	c #2C1203",
"=.	c #C5520F",
"-.	c #FE6C16",
";.	c #FE8037",
">.	c #FE9455",
",.	c #FE9456",
"'.	c #F28F55",
").	c #795D4C",
"!.	c #4B4949",
"~.	c #484848",
"{.	c #5D514A",
"].	c #D88553",
"^.	c #FD9356",
"/.	c #FD9456",
"(.	c #DC8653",
"_.	c #60524A",
":.	c #401B05",
"<.	c #DB5B10",
"[.	c #FE6D19",
"}.	c #FE843D",
"|.	c #FE8B49",
"1.	c #D67B46",
"2.	c #654C3D",
"3.	c #3A3A3A",
"4.	c #3B3B3A",
"5.	c #6D503E",
"6.	c #DF7F46",
"7.	c #E28046",
"8.	c #72513E",
"9.	c #3B3B3B",
"0.	c #4B2006",
"a.	c #EC6312",
"b.	c #FE6C17",
"c.	c #FE8137",
"d.	c #FE8239",
"e.	c #DD7436",
"f.	c #4D382C",
"g.	c #2A2A29",
"h.	c #563C2D",
"i.	c #5C3F2D",
"j.	c #2A2A2A",
"k.	c #4F2106",
"l.	c #F36512",
"m.	c #FE6B15",
"n.	c #FE711E",
"o.	c #FE7727",
"p.	c #FE792C",
"q.	c #FD792C",
"r.	c #B75C27",
"s.	c #39281D",
"t.	c #1B1B1B",
"u.	c #1C1C1C",
"v.	c #1D1C1C",
"w.	c #FE6E1A",
"x.	c #FC6E1B",
"y.	c #BD5417",
"z.	c #170F0B",
"A.	c #0A0A0A",
"B.	c #FB6914",
"C.	c #2A1304",
"D.	c #010101",
"E.	c #2A1204",
"F.	c #D85A10",
"G.	c #431C05",
"H.	c #CA540F",
"I.	c #943D0B",
"J.	c #722F09",
"K.	c #411B05",
"L.	c #D95B10",
"M.	c #A6450C",
"N.	c #522206",
"O.	c #291103",
"P.	c #98400B",
"Q.	c #F16512",
"R.	c #EA6211",
"S.	c #100701",
"T.	c #170902",
"U.	c #612808",
"V.	c #F66712",
"W.	c #451D05",
"X.	c #050201",
"Y.	c #4C2006",
"Z.	c #903C0B",
"`.	c #C2510E",
" +	c #D95A10",
".+	c #E45F11",
"++	c #C6520F",
"@+	c #060301",
"#+	c #281103",
"$+	c #3C1905",
"%+	c #471E05",
"&+	c #4B1F06",
"                  . + @ # $ % & & % $ # @ + .                   ",
"                . * = - ; > , ' ' , > ; - = * .                 ",
"            ) ! ~ { ] ^ ^ ^ ^ ^ ^ ^ ^ ^ ^ ] { ~ ! )             ",
"        . . / ( _ : : : : : : : : : : : : : : _ ( / . .         ",
"      . < [ } | 1 1 1 1 1 1 1 1 1 1 1 1 1 1 1 1 | } [ < .       ",
"      . 2 3 4 5 5 5 5 5 5 5 5 5 5 5 5 5 5 5 5 5 5 4 3 2 .       ",
"    6 7 8 9 0 0 a b c c c c c c c c c c c c b a 0 0 9 8 7 6     ",
"  . d e f g h i j k l m m m m m m m m m m l k j i h g f e d .   ",
"  + n o p q r s t u v w q q q q q q q q x r u t s r q p o n +   ",
". y z A B C D E F G H I C C C C C C C C J H G F E D C B A z y . ",
"6 K L A M N O P Q R S T U V O O O O V W X S R Q P O N M A L K 6 ",
"y Y A A Z `  . ...+.@.@.#.$. . . . .%.&.@.@.+... . .` Z A A Y y ",
"*.=.A A -.;.>.,.,.'.).!.~.{.].^./.(._.~.!.).'.,.,.>.;.-.A A =.*.",
":.<.A A A [.}.|.|.|.1.2.3.4.5.6.7.8.9.3.2.1.|.|.|.}.[.A A A <.:.",
"0.a.A A A A b.Z c.d.d.e.f.g.g.h.i.j.g.f.e.d.d.c.Z b.A A A A a.0.",
"k.l.A A A A A m.n.o.p.q.r.s.t.u.v.t.s.r.q.p.o.n.m.A A A A A l.k.",
"k.l.A A A A A A A A b.w.x.y.z.A.A.z.y.x.w.b.A A A A A A A A l.k.",
"0.a.A A A A A A A A A A A B.C.D.D.E.B.A A A A A A A A A A A a.0.",
":.<.A A A A A A A A A A A A 7 . . 7 A A A A A A A A A A A A <.:.",
"*.=.A A A A A A A A A A A A 7 . . 7 A A A A A A A A A A A A =.*.",
"y Y A A A A A A A A A A A A 7 . . 7 A A A A A A A A A A A A Y y ",
"6 K L A A A A A A A A A A A 7 . . 7 A A A A A A A A A A A L K 6 ",
". y z A A A A A A A A A A A 7 . . 7 A A A A A A A A A A A z y . ",
"  + n o A A A A A A A A A A 7 . . 7 A A A A A A A A A A o n +   ",
"  . d e L A A A A A A A A A 7 . . 7 A A A A A A A A A L e d .   ",
"    6 7 F.A A A A A A A A A 7 . . 7 A A A A A A A A A F.7 6     ",
"      . G.H.A A A A A A A A I.J.J.I.A A A A A A A A H.G..       ",
"      . < K.L.A A A A A A A M.N.N.M.A A A A A A A L.K.< .       ",
"        . . O.P.Q.A A A A R.S.. . S.R.A A A A Q.P.O.. .         ",
"            ) T.U.z A A A V.W.6 6 W.V.A A A z U.T.)             ",
"                . X.Y.Z.`. +.+++++.+ +`.Z.Y.X..                 ",
"                  . + @+#+$+%+&+&+%+$+#+@++ .                   "};
