/* XPM */
static char * book32_xpm[] = {
"32 32 260 2",
"  	c None",
". 	c #CBCAC9",
"+ 	c #D7D5D4",
"@ 	c #F7F6F5",
"# 	c #FAF9F8",
"$ 	c #EDECEB",
"% 	c #C0BEBD",
"& 	c #F0EEED",
"* 	c #F6F5F4",
"= 	c #F9F8F7",
"- 	c #BCBBBB",
"; 	c #D4D1D0",
"> 	c #EFECEB",
", 	c #F2F0EE",
"' 	c #F4F3F1",
") 	c #D0CDCB",
"! 	c #EAE7E5",
"~ 	c #EDEAE8",
"{ 	c #F0EEEC",
"] 	c #F3F1EF",
"^ 	c #F5F4F2",
"/ 	c #F8F7F6",
"( 	c #CFCFCE",
"_ 	c #939291",
": 	c #DFDEDD",
"< 	c #FAF8F7",
"[ 	c #F6F4F3",
"} 	c #EFEDEB",
"| 	c #BBA8A7",
"1 	c #7E7B7A",
"2 	c #D6D3D0",
"3 	c #E8E5E3",
"4 	c #EBE8E6",
"5 	c #EEEBEA",
"6 	c #F1EFED",
"7 	c #F4F2F0",
"8 	c #F4F3F2",
"9 	c #868685",
"0 	c #DAD9D9",
"a 	c #E9E8E7",
"b 	c #F7F5F4",
"c 	c #F2F1EF",
"d 	c #E4DFDE",
"e 	c #AB9695",
"f 	c #B7B4B2",
"g 	c #E3E0DE",
"h 	c #E9E6E4",
"i 	c #ECE9E7",
"j 	c #EBE9E8",
"k 	c #F0EFEE",
"l 	c #E1E0DF",
"m 	c #B2B1B1",
"n 	c #DBDBDB",
"o 	c #E7E5E3",
"p 	c #F3F2F1",
"q 	c #F3F1F0",
"r 	c #ECE9E8",
"s 	c #C3ACAA",
"t 	c #9A9795",
"u 	c #D4D1CE",
"v 	c #E7E4E2",
"w 	c #E9E7E5",
"x 	c #E1E0DE",
"y 	c #E3E2E0",
"z 	c #E8E6E5",
"A 	c #ECEBEA",
"B 	c #F2F2F1",
"C 	c #A9A8A8",
"D 	c #DADAD9",
"E 	c #DCDCDC",
"F 	c #E3E2E1",
"G 	c #EBEAE9",
"H 	c #F4F2F1",
"I 	c #F0EDEB",
"J 	c #D4C4C2",
"K 	c #9C9391",
"L 	c #B6B3B1",
"M 	c #E2DFDD",
"N 	c #E4E1DF",
"O 	c #DBD8D7",
"P 	c #DEDCDB",
"Q 	c #E2E0DF",
"R 	c #E6E5E4",
"S 	c #F5F5F4",
"T 	c #F5F4F3",
"U 	c #5A5A59",
"V 	c #2A2A2A",
"W 	c #D9D8D8",
"X 	c #DDDCDC",
"Y 	c #E7E5E4",
"Z 	c #F5F3F2",
"` 	c #F1EEED",
" .	c #E6E3E1",
"..	c #B59E9D",
"+.	c #928F8D",
"@.	c #D3CFCD",
"#.	c #D7D4D2",
"$.	c #D9D6D5",
"%.	c #DEDCDA",
"&.	c #D0CFCF",
"*.	c #262626",
"=.	c #A7A6A6",
"-.	c #EFEEED",
";.	c #F1EFEE",
">.	c #C8B1B0",
",.	c #92908E",
"'.	c #B2AFAD",
").	c #D2CFCE",
"!.	c #DEDBD9",
"~.	c #868584",
"{.	c #2E2E2E",
"].	c #686767",
"^.	c #DEDDDD",
"/.	c #DEDEDD",
"(.	c #E4E2E1",
"_.	c #E8E7E5",
":.	c #EAE7E6",
"<.	c #CEC7C5",
"[.	c #9F8F8E",
"}.	c #8C8A89",
"|.	c #E6E2E0",
"1.	c #313131",
"2.	c #343434",
"3.	c #DFDFDE",
"4.	c #E0DFDF",
"5.	c #E1E0E0",
"6.	c #E6E4E2",
"7.	c #EEECEA",
"8.	c #D8D6D5",
"9.	c #E0DDDB",
"0.	c #BFA9A7",
"a.	c #8E8B8A",
"b.	c #C0BCBA",
"c.	c #E2DEDC",
"d.	c #E7E3E1",
"e.	c #AFAEAD",
"f.	c #191919",
"g.	c #CBCACA",
"h.	c #E1E1E1",
"i.	c #E2E2E2",
"j.	c #E9E5E4",
"k.	c #ECEAE9",
"l.	c #DBDAD9",
"m.	c #EBE9E7",
"n.	c #D4C6C4",
"o.	c #A69E9C",
"p.	c #A29F9D",
"q.	c #D8D4D2",
"r.	c #E5E1DE",
"s.	c #E8E4E2",
"t.	c #EDEAE9",
"u.	c #5C5C5B",
"v.	c #1D1D1D",
"w.	c #8D8D8D",
"x.	c #E3E3E3",
"y.	c #E4E4E4",
"z.	c #E5E3E2",
"A.	c #E4E0DE",
"B.	c #BDAAA8",
"C.	c #979392",
"D.	c #C6C2C0",
"E.	c #E2DEDB",
"F.	c #D8D7D6",
"G.	c #282828",
"H.	c #4E4E4E",
"I.	c #E5E5E4",
"J.	c #E6E6E6",
"K.	c #E7E6E5",
"L.	c #E4E4E3",
"M.	c #E8E5E2",
"N.	c #D4CFCC",
"O.	c #A29493",
"P.	c #B0ADAA",
"Q.	c #DBD7D4",
"R.	c #E4E0DD",
"S.	c #F5F3F1",
"T.	c #403F3F",
"U.	c #202020",
"V.	c #E8E7E7",
"W.	c #E9E9E9",
"X.	c #E8E7E6",
"Y.	c #EDEBE9",
"Z.	c #E0DCDA",
"`.	c #BFB6B4",
" +	c #A09A98",
".+	c #CDC9C6",
"++	c #D9D8D7",
"@+	c #7B7B7A",
"#+	c #000000",
"$+	c #B5B4B4",
"%+	c #EAE9E9",
"&+	c #EBEBEB",
"*+	c #E9E7E6",
"=+	c #DFDDDB",
"-+	c #EAE9E8",
";+	c #E5E1DF",
">+	c #D2CECB",
",+	c #ACA8A6",
"'+	c #BCB8B5",
")+	c #DDD8D5",
"!+	c #E3DFDC",
"~+	c #E5E2DF",
"{+	c #E4E3E2",
"]+	c #C3C3C3",
"^+	c #7F7F7F",
"/+	c #3D3D3D",
"(+	c #090909",
"_+	c #1E1E1E",
":+	c #747474",
"<+	c #ECEBEB",
"[+	c #ECECEC",
"}+	c #DCD9D7",
"|+	c #F8F6F5",
"1+	c #DDD9D6",
"2+	c #AFABA8",
"3+	c #D3CECC",
"4+	c #D6D6D5",
"5+	c #848484",
"6+	c #2F2F2F",
"7+	c #EDEDED",
"8+	c #E9E9E8",
"9+	c #E8E4E3",
"0+	c #F0EDEC",
"a+	c #D0CCC9",
"b+	c #B2AEAB",
"c+	c #CAC6C4",
"d+	c #D2D1D1",
"e+	c #767676",
"f+	c #131313",
"g+	c #151515",
"h+	c #EFEFEF",
"i+	c #F2F2F2",
"j+	c #E0DEDC",
"k+	c #EAE8E6",
"l+	c #D4D3D2",
"m+	c #A3A1A0",
"n+	c #5F5E5E",
"o+	c #1B1B1B",
"p+	c #9C9C9C",
"q+	c #F3F3F3",
"r+	c #F1F0EF",
"s+	c #A3A2A2",
"t+	c #646363",
"u+	c #353535",
"v+	c #1F1F1F",
"w+	c #161616",
"x+	c #595959",
"y+	c #F4F4F4",
"z+	c #E3E2E2",
"A+	c #616161",
"B+	c #171717",
"C+	c #F5F5F5",
"D+	c #EEEEEE",
"E+	c #979797",
"F+	c #3B3B3B",
"G+	c #010101",
"H+	c #060606",
"I+	c #A7A7A7",
"J+	c #707070",
"K+	c #020202",
"                                                                ",
"                                                                ",
"                                                                ",
"                                      .                         ",
"                                  + @ # $                       ",
"                              % & * = # # -                     ",
"                            ; > , ' @ # # *                     ",
"                          ) ! ~ { ] ^ / # # (                   ",
"      _ : = # # < [ } | 1 2 3 4 5 6 7 * = @ 8 9                 ",
"      0 a # # # # b c d e f g h i > 6 $ j $ k l                 ",
"    m n o p # # # @ q r s t u v ! w x y z A k B C               ",
"    D E F G # # # / H I J K L M N O P Q R A q S T U             ",
"  V W E X Y = # # = Z `  ...+.@.#.$.%.Y { ' @ # # &.            ",
"  *.=.E n 3 -.# # = [ ;.i >.,.'.).!.h ~ { ] ^ / # # ~.          ",
"  {.].^./.(._.# # # * , :.<.[.}.) |.3 4 5 6 7 * = # $ 1.        ",
"    2.3.4.5.6.@ # # @ 7.8.9.0.a.b.c.d.h i > , ' @ # # e.        ",
"    f.g.h.i.j.k.# # * l.m.4 n.o.p.q.r.s.! t.{ ] T / # # u.      ",
"    v.w.x.y.o z.# # R k.{ i A.B.C.D.E.|.3 4 5 6 7 * = # F.      ",
"    G.H.I.J.K. .p * L.^ 6 ~ M.N.O.P.Q.R.d.h i } , S.S.;.~ T.    ",
"      U.L.V.W.3 X.a * [ , Y.h Z.`. +.+E.r.s.! ~ m.h v (.++@+#+  ",
"      f.$+%+&+*+=+-+# b ] 7.! ;+>+,+'+)+!+~+3 Y {+]+^+/+(+#+    ",
"      _+:+<+[+A }+X.# |+q > 4  .1+b.2+3+c.{+4+5+6+#+#+          ",
"        2.7+<+8+9+z.# / H 0+m.v c.a+b+c+d+e+f+#+#+              ",
"        g+E h+i+r j+* Z Y.k+Y Q l.l+m+n+o+#+                    ",
"        g+p+i+q+r+ .k+G 8+^.s+t+u+v+#+                          ",
"        w+x+y+S i+%+z+- A+f+#+#+                                ",
"          B+C+D+0 E+F+G+#+                                      ",
"          H+I+J+v.#+                                            ",
"          K+#+#+                                                ",
"                                                                ",
"                                                                ",
"                                                                "};
