/* XPM */
static char * gnome_vumeter_xpm[] = {
"32 32 8 1",
" 	c None",
".	c #FFFF00",
"+	c #00FF00",
"@	c #CCCCCC",
"#	c #999999",
"$	c #B2B2B2",
"%	c #FF0000",
"&	c #7F7F00",
"                                ",
"                                ",
"                                ",
"          %%%%                  ",
"         %%%%%%                 ",
"                                ",
"                                ",
"         ######  #####          ",
"          ##&#   ##&##          ",
"                                ",
"  $$$$$  $$$$$$  $$$$$          ",
"  @@@@@  @@@@@@  @@@@@          ",
"                                ",
"  ..@..   .@..   ..@..          ",
"  .@.@.  ...@..  .@.@.          ",
"                                ",
"                                ",
"  .....  ......  .....  .....   ",
"  ...+.   ..+.   ...+.  ...+.   ",
"                                ",
"  .+..+  .+..+.  .+..+  .+..+   ",
"  .+.+.  +.+.+.  .+.+.  .+.+.   ",
"                                ",
"  .++.+   ++.+   .++.+  .++.+   ",
"  +.++.  +.++.+  +.++.  +.++.   ",
"                                ",
"                                ",
"  +++++  ++++++  +++++  +++++   ",
"  +++++   ++++   +++++  +++++   ",
"                                ",
"                                ",
"                                "};
