<?xml version="1.0" encoding="UTF-8" standalone="no"?>
<!-- Created with Inkscape (http://www.inkscape.org/) -->
<svg
   xmlns:i="http://ns.adobe.com/AdobeIllustrator/10.0/"
   xmlns:dc="http://purl.org/dc/elements/1.1/"
   xmlns:cc="http://creativecommons.org/ns#"
   xmlns:rdf="http://www.w3.org/1999/02/22-rdf-syntax-ns#"
   xmlns:svg="http://www.w3.org/2000/svg"
   xmlns="http://www.w3.org/2000/svg"
   xmlns:xlink="http://www.w3.org/1999/xlink"
   xmlns:sodipodi="http://sodipodi.sourceforge.net/DTD/sodipodi-0.dtd"
   xmlns:inkscape="http://www.inkscape.org/namespaces/inkscape"
   width="128"
   height="128"
   id="svg2589"
   sodipodi:version="0.32"
   inkscape:version="0.46"
   version="1.0"
   sodipodi:docname="ubuntu-screensaver.svg"
   inkscape:output_extension="org.inkscape.output.svg.inkscape">
  <defs
     id="defs2591">
    <linearGradient
       id="linearGradient4188">
      <stop
         style="stop-color:#ba7a5d;stop-opacity:1;"
         offset="0"
         id="stop4190" />
      <stop
         style="stop-color:#fe6e04;stop-opacity:1"
         offset="1"
         id="stop4192" />
    </linearGradient>
    <radialGradient
       inkscape:collect="always"
       xlink:href="#linearGradient4188"
       id="radialGradient5983"
       gradientUnits="userSpaceOnUse"
       gradientTransform="matrix(9.8988077e-2,-0.2882137,0.5885507,0.2024141,-245.43584,129.56923)"
       cx="430.80444"
       cy="398.98883"
       fx="430.80444"
       fy="398.98883"
       r="201.93719" />
    <linearGradient
       inkscape:collect="always"
       xlink:href="#linearGradient4180"
       id="linearGradient5981"
       gradientUnits="userSpaceOnUse"
       gradientTransform="matrix(0.2530499,0,0,0.2532065,-73.5242,-24.757511)"
       x1="328.57144"
       y1="135.21933"
       x2="331.42856"
       y2="489.50504" />
    <radialGradient
       inkscape:collect="always"
       xlink:href="#linearGradient4198"
       id="radialGradient5978"
       gradientUnits="userSpaceOnUse"
       gradientTransform="matrix(-6.2383012e-3,0.4833458,-0.7120827,-9.2682983e-3,295.43231,-106.0065)"
       cx="438.83859"
       cy="355.90125"
       fx="438.83859"
       fy="355.90125"
       r="202.32214" />
    <radialGradient
       inkscape:collect="always"
       xlink:href="#linearGradient4206"
       id="radialGradient5975"
       gradientUnits="userSpaceOnUse"
       gradientTransform="matrix(-0.7634046,-0.1919286,0.3115901,-1.2409325,145.07097,676.19902)"
       cx="362.28363"
       cy="438.50632"
       fx="362.28363"
       fy="438.50632"
       r="90.183846" />
    <linearGradient
       id="linearGradient4180">
      <stop
         style="stop-color:#ff6309;stop-opacity:1"
         offset="0"
         id="stop4182" />
      <stop
         style="stop-color:#be6b00;stop-opacity:1;"
         offset="1"
         id="stop4184" />
    </linearGradient>
    <radialGradient
       inkscape:collect="always"
       xlink:href="#linearGradient4180"
       id="radialGradient5866"
       gradientUnits="userSpaceOnUse"
       gradientTransform="matrix(-3.698554,5.309433,-3.024353,-2.051513,548.1063,-110.8485)"
       cx="65.31768"
       cy="77.511467"
       fx="65.31768"
       fy="77.511467"
       r="10.175169" />
    <linearGradient
       id="linearGradient4198">
      <stop
         style="stop-color:#ff8c0a;stop-opacity:1;"
         offset="0"
         id="stop4200" />
      <stop
         style="stop-color:#891007;stop-opacity:1;"
         offset="1"
         id="stop4202" />
    </linearGradient>
    <radialGradient
       inkscape:collect="always"
       xlink:href="#linearGradient4198"
       id="radialGradient5868"
       gradientUnits="userSpaceOnUse"
       gradientTransform="matrix(-3.698554,5.309433,-3.024353,-2.051513,548.1063,-110.8485)"
       cx="66.094467"
       cy="75.753181"
       fx="66.094467"
       fy="75.753181"
       r="10.175169" />
    <radialGradient
       inkscape:collect="always"
       xlink:href="#linearGradient3097"
       id="radialGradient5874"
       gradientUnits="userSpaceOnUse"
       gradientTransform="matrix(1.2726484,-0.2636627,0.2912128,1.434023,59.332764,-5.0836502)"
       cx="136.86937"
       cy="229.16911"
       fx="136.86937"
       fy="229.16911"
       r="45.359375" />
    <radialGradient
       inkscape:collect="always"
       xlink:href="#linearGradient3097"
       id="radialGradient5872"
       gradientUnits="userSpaceOnUse"
       gradientTransform="matrix(1.2726484,-0.2636627,0.2912128,1.434023,59.332764,-5.0836502)"
       cx="136.86937"
       cy="229.16911"
       fx="136.86937"
       fy="229.16911"
       r="45.359375" />
    <linearGradient
       id="linearGradient3097">
      <stop
         style="stop-color:#ffdd70;stop-opacity:1"
         offset="0"
         id="stop3099" />
      <stop
         style="stop-color:#fb8b00;stop-opacity:0"
         offset="1"
         id="stop3101" />
    </linearGradient>
    <radialGradient
       inkscape:collect="always"
       xlink:href="#linearGradient3097"
       id="radialGradient5870"
       gradientUnits="userSpaceOnUse"
       gradientTransform="matrix(1.2726484,-0.2636627,0.2912128,1.434023,59.332764,-5.0836502)"
       cx="136.86937"
       cy="229.16911"
       fx="136.86937"
       fy="229.16911"
       r="45.359375" />
    <linearGradient
       id="linearGradient3128">
      <stop
         id="stop3130"
         offset="0"
         style="stop-color:#f50000;stop-opacity:1;" />
      <stop
         id="stop3132"
         offset="1"
         style="stop-color:#ffad46;stop-opacity:0;" />
    </linearGradient>
    <radialGradient
       inkscape:collect="always"
       xlink:href="#linearGradient3128"
       id="radialGradient5959"
       gradientUnits="userSpaceOnUse"
       gradientTransform="matrix(0.9294072,1.3339083,-1.0916112,0.7764602,354.0801,-518.62694)"
       cx="225.40623"
       cy="461.30582"
       fx="225.40623"
       fy="461.30582"
       r="45.359375" />
    <linearGradient
       id="linearGradient19616">
      <stop
         id="stop19618"
         offset="0"
         style="stop-color:#ef583d;stop-opacity:1;" />
      <stop
         style="stop-color:#c40b0b;stop-opacity:1;"
         offset="1"
         id="stop19622" />
    </linearGradient>
    <radialGradient
       inkscape:collect="always"
       xlink:href="#linearGradient19616"
       id="radialGradient5878"
       gradientUnits="userSpaceOnUse"
       gradientTransform="matrix(3.9110788,-1.5142747,1.1483947,2.8839817,-219.17322,77.005824)"
       cx="68.657906"
       cy="16.614304"
       fx="68.657906"
       fy="16.614304"
       r="9.1239996" />
    <radialGradient
       inkscape:collect="always"
       xlink:href="#linearGradient3303"
       id="radialGradient5955"
       gradientUnits="userSpaceOnUse"
       gradientTransform="matrix(-1.4269277,2.4283551,-2.676723,-1.6176444,810.34078,-0.5830197)"
       cx="155.7317"
       cy="219.11501"
       fx="155.7317"
       fy="219.11501"
       r="45.046875" />
    <radialGradient
       inkscape:collect="always"
       xlink:href="#linearGradient3303"
       id="radialGradient5952"
       gradientUnits="userSpaceOnUse"
       gradientTransform="matrix(-1.4269277,2.4283551,-2.676723,-1.6176444,810.34078,-0.5830197)"
       cx="155.7317"
       cy="219.11501"
       fx="155.7317"
       fy="219.11501"
       r="45.046875" />
    <radialGradient
       inkscape:collect="always"
       xlink:href="#linearGradient3303"
       id="radialGradient5949"
       gradientUnits="userSpaceOnUse"
       gradientTransform="matrix(-1.4269277,2.4283551,-2.676723,-1.6176444,810.34078,-0.5830197)"
       cx="155.7317"
       cy="219.11501"
       fx="155.7317"
       fy="219.11501"
       r="45.046875" />
    <linearGradient
       id="linearGradient22579">
      <stop
         style="stop-color:#ff3247;stop-opacity:1;"
         offset="0"
         id="stop22581" />
      <stop
         style="stop-color:#c80015;stop-opacity:0;"
         offset="1"
         id="stop22583" />
    </linearGradient>
    <radialGradient
       inkscape:collect="always"
       xlink:href="#linearGradient22579"
       id="radialGradient5886"
       gradientUnits="userSpaceOnUse"
       gradientTransform="matrix(4.7386339,-2.4387674,0.3442344,0.668369,-690.00491,456.42167)"
       cx="180.09985"
       cy="104.72324"
       fx="180.09985"
       fy="104.72324"
       r="35.40625" />
    <radialGradient
       inkscape:collect="always"
       xlink:href="#linearGradient6231"
       id="radialGradient5945"
       gradientUnits="userSpaceOnUse"
       gradientTransform="matrix(7.0221052e-2,0.1466987,-0.3913472,0.1875618,79.431964,128.09138)"
       cx="-749.20654"
       cy="77.824005"
       fx="-749.20654"
       fy="77.824005"
       r="330.54441" />
    <linearGradient
       id="linearGradient6231">
      <stop
         style="stop-color:white;stop-opacity:1"
         offset="0"
         id="stop6233" />
      <stop
         style="stop-color:white;stop-opacity:0"
         offset="1"
         id="stop6235" />
    </linearGradient>
    <radialGradient
       inkscape:collect="always"
       xlink:href="#linearGradient6231"
       id="radialGradient5942"
       gradientUnits="userSpaceOnUse"
       gradientTransform="matrix(7.0221052e-2,0.1466987,-0.3913472,0.1875618,79.431964,128.09138)"
       cx="-749.20654"
       cy="77.824005"
       fx="-749.20654"
       fy="77.824005"
       r="330.54441" />
    <linearGradient
       id="linearGradient4206">
      <stop
         style="stop-color:#d37100;stop-opacity:1;"
         offset="0"
         id="stop4208" />
      <stop
         style="stop-color:#ff9e2c;stop-opacity:1;"
         offset="1"
         id="stop4210" />
    </linearGradient>
    <radialGradient
       inkscape:collect="always"
       xlink:href="#linearGradient4206"
       id="radialGradient5892"
       gradientUnits="userSpaceOnUse"
       gradientTransform="matrix(-3.698554,5.309433,-3.024353,-2.051513,548.1063,-110.8485)"
       cx="65.31768"
       cy="77.511467"
       fx="65.31768"
       fy="77.511467"
       r="10.175169" />
    <linearGradient
       inkscape:collect="always"
       id="linearGradient3303">
      <stop
         style="stop-color:#fdd99b;stop-opacity:1"
         offset="0"
         id="stop3305" />
      <stop
         style="stop-color:#fdd99b;stop-opacity:0"
         offset="1"
         id="stop3307" />
    </linearGradient>
    <linearGradient
       inkscape:collect="always"
       xlink:href="#linearGradient3303"
       id="linearGradient5894"
       gradientUnits="userSpaceOnUse"
       x1="79.049728"
       y1="92.036774"
       x2="70.516586"
       y2="79.137741" />
    <linearGradient
       inkscape:collect="always"
       id="linearGradient15240">
      <stop
         style="stop-color:#ff6e04;stop-opacity:1;"
         offset="0"
         id="stop15242" />
      <stop
         style="stop-color:#ff6e04;stop-opacity:0;"
         offset="1"
         id="stop15244" />
    </linearGradient>
    <linearGradient
       inkscape:collect="always"
       xlink:href="#linearGradient15240"
       id="linearGradient5935"
       gradientUnits="userSpaceOnUse"
       gradientTransform="matrix(1.309634,0,0,1.3104451,-413.73653,-251.55901)"
       x1="324.3125"
       y1="219.375"
       x2="371.34375"
       y2="247.63374" />
    <linearGradient
       inkscape:collect="always"
       id="linearGradient14237">
      <stop
         style="stop-color:#ffffff;stop-opacity:1;"
         offset="0"
         id="stop14239" />
      <stop
         style="stop-color:#ffffff;stop-opacity:0;"
         offset="1"
         id="stop14241" />
    </linearGradient>
    <linearGradient
       inkscape:collect="always"
       xlink:href="#linearGradient14237"
       id="linearGradient5931"
       gradientUnits="userSpaceOnUse"
       gradientTransform="matrix(1.309634,0,0,1.3104451,-415.99806,-253.0667)"
       x1="420.26694"
       y1="227.21991"
       x2="307.1442"
       y2="292.07538" />
  </defs>
  <sodipodi:namedview
     id="base"
     pagecolor="#ffffff"
     bordercolor="#666666"
     borderopacity="1.0"
     inkscape:pageopacity="0.0"
     inkscape:pageshadow="2"
     inkscape:zoom="1"
     inkscape:cx="78.5"
     inkscape:cy="-1.5"
     inkscape:current-layer="layer1"
     showgrid="true"
     inkscape:document-units="px"
     inkscape:grid-bbox="true"
     inkscape:window-width="642"
     inkscape:window-height="678"
     inkscape:window-x="5"
     inkscape:window-y="45" />
  <metadata
     id="metadata2594">
    <rdf:RDF>
      <cc:Work
         rdf:about="">
        <dc:format>image/svg+xml</dc:format>
        <dc:type
           rdf:resource="http://purl.org/dc/dcmitype/StillImage" />
      </cc:Work>
    </rdf:RDF>
  </metadata>
  <g
     id="layer1"
     inkscape:label="Layer 1"
     inkscape:groupmode="layer">
    <g
       id="g2696"
       transform="matrix(0.7185233,0,0,0.7185233,52.674036,5.513294)">
      <path
         sodipodi:nodetypes="csccccccssssssssssscsssssscccccccccccssc"
         style="fill:url(#linearGradient5981);fill-opacity:1;stroke:url(#radialGradient5983);stroke-width:4.60248327;stroke-linejoin:round;stroke-miterlimit:4;stroke-dasharray:none;stroke-opacity:1;display:inline"
         d="M 27.232475,12.498642 C 26.329856,12.500781 25.438904,12.575331 24.542375,12.612291 C 24.243926,12.625127 23.94335,12.59553 23.645649,12.612291 C 14.761087,13.094018 6.1967619,15.269552 -1.6863362,19.0348 L 12.324719,43.701741 C 12.580644,43.597292 12.850783,43.516862 13.109319,43.417558 L 13.277476,43.701741 C 17.355913,42.03711 21.787543,41.030646 26.391793,40.803085 C 26.732334,40.794435 27.058123,40.746253 27.400567,40.746253 C 27.533366,40.746253 27.660403,40.744928 27.792899,40.746253 C 28.708565,40.754023 29.582598,40.791115 30.483052,40.859942 C 30.707279,40.877254 30.932334,40.895695 31.155564,40.91676 C 31.399426,40.939532 31.64153,41.003254 31.884185,41.030449 C 32.669913,41.1192 33.466194,41.18077 34.237996,41.314618 C 34.978535,41.442482 35.697286,41.601072 36.423716,41.769308 C 37.097015,41.925338 37.78109,42.091198 38.441304,42.280842 C 38.480639,42.292142 38.514174,42.326241 38.553418,42.337673 C 39.681459,42.665562 40.774023,43.05204 41.860012,43.47439 C 41.930375,43.501703 42.014047,43.50354 42.084187,43.531234 C 46.499096,45.277673 50.566796,47.808632 54.077681,50.919966 C 54.166694,50.999123 54.269516,51.067373 54.357886,51.147291 C 56.036876,52.662139 57.541565,54.317412 58.9535,56.092082 C 58.985984,56.13298 59.033313,56.164677 59.065588,56.205745 C 59.773629,57.102655 60.449986,58.03495 61.083202,58.990699 C 61.144246,59.083112 61.191024,59.181996 61.251346,59.274921 C 61.845554,60.187712 62.41031,61.098443 62.932659,62.059875 C 63.490576,63.087812 64.030723,64.163878 64.501897,65.242714 C 65.977829,68.614632 66.99734,72.212181 67.528259,75.984752 L 95.55041,75.984752 L 96.503154,75.984752 C 95.229845,60.354334 88.804016,45.75604 78.120646,34.266913 C 77.902968,34.379342 77.668766,34.445663 77.448134,34.551083 C 77.358701,34.453918 77.257848,34.363658 77.16785,34.266913 C 73.880891,35.964672 70.263536,36.867501 66.575542,36.881387 C 62.897156,36.743181 59.177977,35.69977 55.758993,33.698575 C 48.606853,29.509941 44.443904,22.101692 44.045718,14.317386 C 39.938394,13.34628 35.732514,12.802341 31.435809,12.612291 C 30.264639,12.544172 29.088718,12.50632 27.904974,12.498642 C 27.735963,12.497368 27.569774,12.498642 27.400567,12.498642 C 27.344221,12.498642 27.288794,12.498484 27.232475,12.498642 z"
         id="path12902"
         inkscape:export-filename="/home/jonny/Design/Ubuntu/Edgy/logo.png"
         inkscape:export-xdpi="110.30428"
         inkscape:export-ydpi="110.30428" />
      <path
         inkscape:export-ydpi="110.30428"
         inkscape:export-xdpi="110.30428"
         inkscape:export-filename="/home/jonny/Design/Ubuntu/Edgy/logo.png"
         id="path12904"
         d="M 87.861431,116.20369 C 88.310857,115.42046 88.691797,114.61112 89.108069,113.81574 C 89.246197,113.55068 89.422111,113.30502 89.556446,113.03865 C 93.581804,105.09878 95.981028,96.589493 96.663843,87.875674 L 68.309315,87.683655 C 68.271791,87.957653 68.206323,88.231965 68.162984,88.505648 L 67.832956,88.50927 C 67.234443,92.8758 65.889734,97.219322 63.78455,101.32296 C 63.621787,101.62238 63.500578,101.92881 63.329362,102.22555 C 63.262963,102.34064 63.200579,102.45137 63.133196,102.56554 C 62.668623,103.35512 62.199496,104.09397 61.689721,104.83987 C 61.562632,105.02551 61.434099,105.21131 61.304279,105.39422 C 61.162621,105.59416 60.986418,105.77212 60.841571,105.96878 C 60.371906,106.60531 59.920445,107.26453 59.418703,107.86643 C 58.937789,108.4442 58.441153,108.98776 57.932336,109.53314 C 57.460663,110.03858 56.975051,110.54843 56.480829,111.02575 C 56.451376,111.05417 56.405084,111.06618 56.375553,111.09446 C 55.527757,111.90803 54.646964,112.66158 53.738452,113.39147 C 53.679599,113.4388 53.636208,113.51039 53.577159,113.55734 C 49.858177,116.50987 45.633817,118.76933 41.185558,120.25606 C 41.072538,120.29364 40.962052,120.34859 40.848704,120.3852 C 38.698121,121.08272 36.513149,121.559 34.271242,121.89518 C 34.219595,121.90291 34.168499,121.92805 34.116813,121.93551 C 32.986541,122.10061 31.841463,122.22057 30.697672,122.29142 C 30.587146,122.2981 30.478183,122.2892 30.367591,122.29502 C 29.280474,122.35355 28.209881,122.38759 27.116581,122.35949 C 25.947958,122.32898 24.746561,122.25904 23.577254,122.12791 C 19.920905,121.72097 16.297539,120.80564 12.766953,119.37943 L -1.244116,143.66234 L -1.720501,144.48797 C 12.444144,151.19974 28.291702,152.93054 43.577103,149.4173 C 43.588627,149.17247 43.648346,148.93632 43.667416,148.69242 C 43.796225,148.66352 43.924758,148.62126 44.053501,148.59165 C 44.227604,144.8944 45.254885,141.30834 47.086873,138.10551 C 49.045687,134.98706 51.808342,132.28588 55.249835,130.32372 C 62.451103,126.22026 70.944356,126.31694 77.880695,129.86403 C 80.774823,126.79034 83.348544,123.41764 85.661366,119.78931 C 86.305908,118.80849 86.926642,117.80839 87.525168,116.78647 C 87.610756,116.64063 87.692774,116.49597 87.777378,116.34936 C 87.805558,116.30054 87.833396,116.25259 87.861431,116.20369 z"
         style="fill:none;fill-opacity:1;stroke:url(#radialGradient5978);stroke-width:4.60248327;stroke-linejoin:round;stroke-miterlimit:4;stroke-dasharray:none;stroke-opacity:1;display:inline"
         sodipodi:nodetypes="csccccccssssssssssscsssssscccccccccccssc" />
      <path
         sodipodi:nodetypes="csccccccssssssssssscsssssscccccccccccssc"
         style="fill:#be6b00;fill-opacity:1;stroke:url(#radialGradient5975);stroke-width:4.60248327;stroke-linejoin:round;stroke-miterlimit:4;stroke-dasharray:none;stroke-opacity:1;display:inline"
         d="M -31.66801,116.26594 C -31.214843,117.04704 -30.704832,117.78183 -30.224575,118.54024 C -30.06424,118.79244 -29.939579,119.06771 -29.776212,119.31731 C -24.917009,126.77546 -18.751934,133.10921 -11.551598,138.05779 L 2.7918481,113.58285 C 2.5734744,113.41333 2.36879,113.21943 2.1535531,113.04505 L 2.3154631,112.75724 C -1.1644731,110.05534 -4.2513812,106.71828 -6.7504469,102.8422 C -6.9282119,102.55145 -7.1328044,102.29321 -7.3040462,101.99647 C -7.3704325,101.88137 -7.4350994,101.77195 -7.5001994,101.65648 C -7.9513187,100.85911 -8.3562119,100.08314 -8.7468775,99.26845 C -8.8440025,99.065498 -8.94055,98.861233 -9.0339475,98.657284 C -9.136165,98.434566 -9.2020787,98.192895 -9.2998862,97.969035 C -9.6159362,97.243761 -9.9607694,96.522949 -10.230829,95.787214 C -10.490429,95.081562 -10.712556,94.379413 -10.930156,93.665794 C -11.131782,93.004347 -11.330232,92.328619 -11.49625,91.661685 C -11.506107,91.621943 -11.493389,91.575848 -11.503088,91.536105 C -11.783333,90.39465 -11.995131,89.254626 -12.172568,88.102382 C -12.184105,88.02774 -12.224359,87.954332 -12.23545,87.87969 C -12.931377,83.180691 -12.77473,78.390302 -11.837356,73.792234 C -11.813363,73.6755 -11.805672,73.552296 -11.780708,73.435772 C -11.309101,71.223383 -10.628845,69.09183 -9.7988331,66.980976 C -9.7796969,66.932374 -9.7759169,66.87553 -9.7565181,66.826993 C -9.3342737,65.764984 -8.8655669,64.71274 -8.3549781,63.686142 C -8.30551,63.587035 -8.2433369,63.497063 -8.1930681,63.398323 C -7.7001587,62.427008 -7.1943081,61.482244 -6.6233575,60.548899 C -6.0126512,59.551438 -5.3514006,58.545342 -4.6532687,57.597638 C -2.4728781,54.632661 0.13100376,51.950423 3.1306569,49.604067 L -10.880399,25.321163 L -11.356784,24.495522 C -24.24808,33.414169 -33.669835,46.281683 -38.27188,61.284043 C -38.065739,61.416448 -37.891216,61.586273 -37.689655,61.724742 C -37.729069,61.85082 -37.756724,61.98333 -37.795469,62.109685 C -34.682599,64.109173 -32.092538,66.792422 -30.236519,69.981364 C -28.516934,73.238005 -27.56041,76.982607 -27.582946,80.945963 C -27.632072,89.238049 -31.962377,96.549645 -38.500504,100.78684 C -37.287334,104.83164 -35.655162,108.74827 -33.671292,112.56665 C -33.144664,113.6156 -32.589464,114.65354 -32.004259,115.68317 C -31.92085,115.83027 -31.836653,115.97365 -31.752049,116.12027 C -31.72387,116.16909 -31.696307,116.2172 -31.66801,116.26594 z"
         id="path12906"
         inkscape:export-filename="/home/jonny/Design/Ubuntu/Edgy/logo.png"
         inkscape:export-xdpi="110.30428"
         inkscape:export-ydpi="110.30428" />
      <circle
         transform="matrix(1.7934171,0,0,1.8187651,-184.03759,-71.99515)"
         style="fill:#000000;fill-opacity:1;stroke:url(#radialGradient5866);stroke-width:3.01171541;stroke-miterlimit:4;stroke-dasharray:none;display:inline"
         sodipodi:ry="9.1239996"
         sodipodi:rx="9.1239996"
         sodipodi:cy="84.667"
         sodipodi:cx="74.547997"
         i:knockout="Off"
         cx="74.547997"
         cy="84.667"
         r="9.1239996"
         id="circle12908"
         inkscape:export-filename="/home/jonny/Design/Ubuntu/Edgy/logo.png"
         inkscape:export-xdpi="110.30428"
         inkscape:export-ydpi="110.30428" />
      <circle
         inkscape:export-ydpi="110.30428"
         inkscape:export-xdpi="110.30428"
         inkscape:export-filename="/home/jonny/Design/Ubuntu/Edgy/logo.png"
         id="circle12910"
         r="9.1239996"
         cy="84.667"
         cx="74.547997"
         i:knockout="Off"
         sodipodi:cx="74.547997"
         sodipodi:cy="84.667"
         sodipodi:rx="9.1239996"
         sodipodi:ry="9.1239996"
         style="fill:#000000;fill-opacity:1;stroke:url(#radialGradient5868);stroke-width:3.01171541;stroke-miterlimit:4;stroke-dasharray:none;display:inline"
         transform="matrix(1.7934171,0,0,1.8187651,-66.911709,-140.72265)" />
      <path
         id="path12912"
         d="M 66.76865,-3.5003791 C 57.736183,-3.5003791 50.403744,3.935734 50.403744,13.095829 C 50.403744,22.25595 57.736209,29.69205 66.76865,29.69205 C 75.801078,29.69205 83.133596,22.25595 83.133596,13.095829 C 83.133596,3.9357209 75.801078,-3.5003791 66.76865,-3.5003791 z"
         style="fill:#ff6d04;fill-opacity:1;display:inline" />
      <path
         id="path12914"
         d="M 27.649758,12.527451 C 17.420159,12.527451 7.5532306,14.769568 -1.4371975,19.063648 L 12.573884,43.730616 C 17.234992,41.828173 22.326914,40.775128 27.649758,40.775128 C 48.024759,40.775128 64.977928,56.121837 67.777424,76.013653 L 95.799601,76.013653 C 94.526253,60.383209 88.100411,45.784902 77.417094,34.295802 C 70.575176,37.829642 62.202187,37.910571 55.055401,33.727423 C 47.903261,29.538816 43.740286,22.130541 43.342192,14.346222 C 38.265022,13.145835 32.992355,12.527451 27.649758,12.527451 z"
         style="fill:#ff6d04;fill-opacity:1;display:inline" />
      <path
         id="path12916"
         d="M -11.357007,24.917779 C -14.647864,27.249422 -17.760392,29.878924 -20.660348,32.818032 C -28.780956,41.053378 -34.605031,51.008848 -37.809919,61.861399 C -31.353561,66.102756 -27.105432,73.428278 -27.105432,81.810953 C -27.105432,90.191843 -31.353627,97.577805 -37.809919,101.81734 C -34.605031,112.6699 -28.780956,122.62535 -20.660348,130.86071 C -17.762243,133.79979 -14.646158,136.42748 -11.357007,138.76094 L 2.6540619,114.09402 C -6.7685069,106.56976 -12.814184,94.887863 -12.814184,81.810953 C -12.814184,68.728596 -6.7703312,57.052123 2.6540619,49.527915 L -11.357007,24.917779 z"
         style="fill:#ffb515;fill-opacity:1;display:inline" />
      <path
         id="path12918"
         d="M -50.531942,65.214732 C -59.564371,65.214732 -66.896862,72.650858 -66.896862,81.810953 C -66.896862,90.971048 -59.564371,98.407174 -50.531942,98.407174 C -41.499449,98.407174 -34.167049,90.971048 -34.16701,81.810953 C -34.16701,72.650845 -41.499449,65.214732 -50.531942,65.214732 z"
         style="fill:#ff6d04;fill-opacity:1;display:inline" />
      <path
         id="path12920"
         d="M 67.777424,87.608265 C 64.985133,107.50735 48.030127,122.9036 27.649758,122.9036 C 22.323305,122.9036 17.234992,121.85421 12.573884,119.94811 L -1.4371975,144.55826 C 7.55138,148.85415 17.416537,151.15127 27.649758,151.15127 C 32.995991,151.15129 38.263184,150.53289 43.342192,149.33248 C 43.733146,141.53911 47.897879,134.08491 55.055401,129.89448 C 62.203946,125.70771 70.629395,125.78498 77.473059,129.32613 C 88.147503,117.83521 94.529836,103.23324 95.799601,87.608265 L 67.777424,87.608265 z"
         style="fill:#c90016;fill-opacity:1;display:inline" />
      <circle
         transform="matrix(1.7934171,0,0,1.8187651,-66.911709,-3.1289597)"
         style="fill:#c90016;display:inline"
         sodipodi:ry="9.1239996"
         sodipodi:rx="9.1239996"
         sodipodi:cy="9.1260004"
         sodipodi:cx="74.540001"
         i:knockout="Off"
         cx="74.540001"
         cy="9.1260004"
         r="9.1239996"
         id="circle12922"
         inkscape:export-filename="/home/jonny/Design/Ubuntu/Edgy/logo.png"
         inkscape:export-xdpi="110.30428"
         inkscape:export-ydpi="110.30428" />
      <g
         transform="matrix(1.3096339,0,0,1.3104451,-413.73654,-251.55901)"
         id="g12924"
         style="display:inline">
        <path
           style="fill:url(#radialGradient5870);fill-opacity:1;display:inline"
           d="M 307.2458,210.97928 C 304.73299,212.75855 302.35635,214.76513 300.14203,217.00797 C 293.94136,223.29235 289.49426,230.88937 287.0471,239.17094 C 291.97699,242.40752 295.22075,247.99762 295.22075,254.39443 C 295.22075,260.78988 291.97694,266.42611 287.0471,269.6613 C 289.49426,277.94288 293.94136,285.53987 300.14203,291.82428 C 302.35494,294.06709 304.73431,296.07228 307.2458,297.85294 L 317.94427,279.02961 C 310.74945,273.28786 306.13315,264.37341 306.13315,254.39443 C 306.13315,244.4113 310.74806,235.50099 317.94427,229.75927 L 307.2458,210.97928 z"
           id="path12926" />
        <path
           style="fill:url(#radialGradient5872);fill-opacity:1;display:inline"
           d="M 277.33291,241.72987 C 270.436,241.72987 264.83712,247.40437 264.83712,254.39443 C 264.83712,261.3845 270.436,267.059 277.33291,267.059 C 284.22987,267.059 289.8287,261.3845 289.82873,254.39443 C 289.82873,247.40436 284.22987,241.72987 277.33291,241.72987 z"
           id="path12928" />
        <path
           style="fill:url(#radialGradient5874);fill-opacity:1;display:inline"
           d="M 366.90038,294.16634 C 360.00344,294.16634 354.40459,299.84086 354.40459,306.83091 C 354.40459,313.82096 360.00346,319.49546 366.90038,319.49546 C 373.79729,319.49546 379.39621,313.82096 379.39621,306.83091 C 379.39621,299.84082 373.79729,294.16634 366.90038,294.16634 z"
           id="path12930" />
      </g>
      <circle
         transform="matrix(1.7934171,0,0,1.8187651,-65.940379,-2.5016597)"
         style="fill:#ff6309;display:inline"
         sodipodi:ry="9.1239996"
         sodipodi:rx="9.1239996"
         sodipodi:cy="46.903999"
         sodipodi:cx="9.1239996"
         i:knockout="Off"
         cx="9.1239996"
         cy="46.903999"
         r="9.1239996"
         id="circle12932"
         inkscape:export-filename="/home/jonny/Design/Ubuntu/Edgy/logo.png"
         inkscape:export-xdpi="110.30428"
         inkscape:export-ydpi="110.30428" />
      <path
         id="path12934"
         d="M 65.787701,-3.5003791 C 56.755246,-3.5003791 49.422768,3.935734 49.422768,13.095829 C 49.422768,22.25595 56.755246,29.69205 65.787701,29.69205 C 74.820155,29.69205 82.152607,22.25595 82.152607,13.095829 C 82.152607,3.9357209 74.820155,-3.5003791 65.787701,-3.5003791 z M 26.668822,12.527451 C 16.439144,12.527451 6.572255,14.769568 -2.4181337,19.063648 L 11.592883,43.730616 C 16.254029,41.828173 21.345965,40.775128 26.668822,40.775128 C 47.043823,40.775128 63.996965,56.121837 66.796475,76.013653 L 94.81856,76.013653 C 93.545238,60.383209 87.119474,45.784902 76.436092,34.295802 C 69.594187,37.829642 61.221185,37.910571 54.074439,33.727423 C 46.922285,29.538816 42.759324,22.130541 42.361164,14.346222 C 37.284007,13.145835 32.011379,12.527451 26.668822,12.527451 z M -12.337996,24.917779 C -15.628906,27.249422 -18.741394,29.878924 -21.641297,32.818032 C -29.761958,41.053378 -35.586019,51.008848 -38.790882,61.861399 C -32.33455,66.102756 -28.086421,73.428278 -28.086421,81.810953 C -28.086421,90.191843 -32.33455,97.577805 -38.790882,101.81734 C -35.586006,112.6699 -29.761958,122.62535 -21.641297,130.86071 C -18.743192,133.79979 -15.627094,136.42748 -12.337996,138.76094 L 1.6730731,114.09402 C -7.749535,106.56976 -13.795146,94.887863 -13.795146,81.810953 C -13.795146,68.728596 -7.7513331,57.052123 1.6730731,49.527915 L -12.337996,24.917779 z M -51.512931,65.214732 C -60.545359,65.214732 -67.877851,72.650858 -67.877851,81.810953 C -67.877851,90.971048 -60.545359,98.407174 -51.512931,98.407174 C -42.480451,98.407174 -35.147999,90.971048 -35.147999,81.810953 C -35.147999,72.650845 -42.480451,65.214732 -51.512931,65.214732 z M 66.796475,87.608265 C 64.004131,107.50735 47.049204,122.9036 26.668822,122.9036 C 21.342369,122.9036 16.254029,121.85421 11.592883,119.94811 L -2.4181337,144.55826 C 6.5704569,148.85415 16.435574,151.15127 26.668822,151.15127 C 32.015002,151.15129 37.282261,150.53289 42.361164,149.33248 C 42.752144,141.53911 46.916891,134.08491 54.074439,129.89448 C 61.223036,125.70771 69.648485,125.78498 76.492136,129.32613 C 87.166567,117.83521 93.548848,103.23324 94.81856,87.608265 L 66.796475,87.608265 z M 65.787701,133.92986 C 56.755246,133.92986 49.422768,141.36601 49.422768,150.52608 C 49.422768,159.68616 56.755246,167.12227 65.787701,167.12227 C 74.820155,167.12227 82.152607,159.68616 82.152607,150.52608 C 82.152607,141.36594 74.820155,133.92986 65.787701,133.92986 z"
         style="fill:url(#radialGradient5959);fill-opacity:1;display:inline"
         inkscape:export-filename="/home/jonny/Design/Ubuntu/Edgy/logo.png"
         inkscape:export-xdpi="110.30428"
         inkscape:export-ydpi="110.30428" />
      <circle
         id="circle12936"
         r="9.1239996"
         cy="9.1260004"
         cx="74.540001"
         i:knockout="Off"
         sodipodi:cx="74.540001"
         sodipodi:cy="9.1260004"
         sodipodi:rx="9.1239996"
         sodipodi:ry="9.1239996"
         style="fill:url(#radialGradient5878);fill-opacity:1;display:inline"
         transform="matrix(1.7934171,0,0,-1.8187651,-66.816479,29.36687)"
         inkscape:export-filename="/home/jonny/Design/Ubuntu/Edgy/logo.png"
         inkscape:export-xdpi="110.30428"
         inkscape:export-ydpi="110.30428" />
      <path
         id="path12938"
         d="M 27.687453,12.508827 C 17.457841,12.508866 7.5908469,14.807736 -1.3995156,19.101842 L 12.611514,43.711965 C 17.272648,41.809562 22.364557,40.756478 27.687453,40.756478 C 44.198257,40.756504 58.440404,50.845613 64.7327,65.252925 C 75.083705,65.786142 85.090349,66.754202 94.660273,68.151608 C 92.183428,55.534742 86.320726,43.868652 77.45471,34.333969 C 70.612831,37.867836 62.183773,37.948752 55.037066,33.765617 C 47.884912,29.57701 43.721911,22.11189 43.323791,14.327571 C 38.246594,13.127211 33.029984,12.508827 27.687453,12.508827 z"
         style="opacity:0.7;fill:url(#radialGradient5955);display:inline" />
      <path
         id="path12940"
         d="M -11.319377,24.899155 C -14.610301,27.230811 -17.778754,29.86026 -20.678723,32.799381 C -28.799279,41.034767 -34.567414,50.990185 -37.772224,61.842762 C -33.545016,64.619788 -30.286341,68.738676 -28.524914,73.607893 C -22.914252,72.181573 -17.049634,70.903592 -10.983089,69.799845 C -8.5359587,61.71705 -3.7105394,54.677522 2.6916913,49.566122 L -11.319377,24.899155 z"
         style="opacity:0.7;fill:url(#radialGradient5952);display:inline" />
      <path
         id="path12942"
         d="M -50.550304,64.229884 C -59.582785,64.229884 -66.91525,71.66601 -66.91525,80.826092 C -66.91525,83.034636 -66.455809,85.150045 -65.682261,87.078094 C -56.84995,82.601262 -46.593051,78.588542 -35.138168,75.312962 C -37.380811,68.858665 -43.42255,64.229884 -50.550304,64.229884 z"
         style="opacity:0.7;fill:url(#radialGradient5949);display:inline" />
      <path
         sodipodi:type="inkscape:offset"
         inkscape:radius="-0.68267357"
         inkscape:original="M 218.3125 72.59375 C 216.22884 87.433453 203.58303 98.9375 188.375 98.9375 C 184.40037 98.937497 180.60315 98.140199 177.125 96.71875 L 166.65625 115.0625 C 173.36362 118.26614 180.73887 120 188.375 120 C 192.36439 120.00003 196.27255 119.52019 200.0625 118.625 C 200.35425 112.81311 203.47147 107.24999 208.8125 104.125 C 214.14685 101.00271 220.42444 101.07795 225.53125 103.71875 C 233.49662 95.149434 238.27126 84.246048 239.21875 72.59375 L 218.3125 72.59375 z "
         style="fill:url(#radialGradient5886);fill-opacity:1;display:inline"
         id="path12944"
         d="M 218.84375,73.28125 C 216.45519,88.150996 203.71627,99.625 188.375,99.625 C 184.52683,99.624997 180.86774,98.841762 177.46875,97.53125 L 167.625,114.71875 C 174.0623,117.67835 181.09621,119.3125 188.375,119.3125 C 192.15916,119.31253 195.86259,118.85077 199.46875,118.03125 C 199.9413,112.20677 203.09831,106.67345 208.46875,103.53125 C 213.83419,100.39076 220.102,100.44411 225.3125,102.9375 C 232.83206,94.71432 237.37466,84.359188 238.4375,73.28125 L 218.84375,73.28125 z"
         transform="matrix(1.3401052,0,0,1.3409354,-223.68145,-9.7572197)" />
      <path
         style="opacity:0.03999999;fill:none;fill-opacity:1;stroke:url(#radialGradient5945);stroke-width:6.27611399;stroke-miterlimit:4;stroke-opacity:1;display:inline"
         d="M 65.514176,-2.003591 C 58.289126,-1.7502129 52.140365,4.670104 51.960185,11.804053 C 51.428465,18.961431 56.933458,25.967228 64.098697,26.94105 C 70.948569,28.165403 78.081941,23.523287 79.961729,16.884019 C 82.237408,10.007648 78.559363,1.838359 71.832511,-0.87999911 C 69.859588,-1.7521554 67.665862,-2.108591 65.514176,-2.003591 z M 26.172828,13.774326 C 17.427089,13.815132 8.698085,15.543655 0.64642251,18.996711 C 4.6161444,26.110238 8.5858794,33.223765 12.555588,40.337278 C 13.430645,40.101042 14.139881,40.253554 15.133535,39.799232 C 23.788265,37.073052 33.375474,37.452889 41.73539,40.875351 C 55.487293,46.085136 65.91143,59.01666 68.321456,73.523172 C 76.664191,73.586473 85.006927,73.649775 93.349663,73.713077 C 91.902067,59.924044 86.119638,46.684988 76.940958,36.309715 C 76.190746,36.476481 75.524718,36.44817 74.703054,36.887346 C 68.810546,39.18808 61.999314,38.847788 56.318249,36.066351 C 48.222474,32.357436 42.499974,24.155072 41.656325,15.325215 C 36.577396,14.207884 31.363228,13.762028 26.172828,13.774326 z M -12.804734,27.320888 C -23.691698,35.508722 -31.972247,47.078777 -36.196056,60.039912 C -35.754531,60.614957 -35.353523,61.169042 -34.590751,61.646202 C -29.572144,65.610582 -26.40478,71.681734 -25.947544,78.057137 C -25.089944,86.897914 -29.236381,95.899813 -36.409547,101.10687 C -31.967496,114.30058 -23.734367,126.36062 -12.464717,134.61716 C -8.3447275,127.58541 -4.2247769,120.55364 -0.10479999,113.52188 C -0.73915749,112.89749 -0.96276812,112.21373 -1.8682619,111.60703 C -8.6211794,105.49765 -13.157796,97.011632 -14.457473,87.987591 C -16.867709,73.486658 -11.020862,58.058142 0.21941376,48.613969 C -3.9532731,41.387042 -8.1259731,34.160102 -12.298634,26.933162 C -12.467342,27.062404 -12.636051,27.191633 -12.804734,27.320888 z M -51.60835,66.71824 C -58.832114,66.972208 -64.98283,73.391147 -65.162341,80.525923 C -65.701699,87.665097 -60.181311,94.702905 -53.023868,95.670835 C -46.090692,96.916686 -38.885789,92.135367 -37.084579,85.364428 C -34.967005,78.531973 -38.646152,70.53096 -45.290001,67.841832 C -47.262295,66.969636 -49.457254,66.6132 -51.60835,66.71824 z M 69.452266,89.688827 C 68.765789,89.871632 69.094216,91.241672 68.74055,91.848992 C 66.768243,100.55589 61.785376,108.48817 54.799096,114.02833 C 43.486895,123.41701 27.086604,126.15264 13.28312,121.07854 C 9.1104331,128.30546 4.9377331,135.5324 0.76505938,142.75934 C 13.419239,148.31171 27.837879,149.80197 41.339999,146.93724 C 41.587393,146.24978 41.952215,145.66006 41.956809,144.71378 C 42.863707,138.71648 46.207314,133.15715 51.110893,129.56728 C 58.349829,123.97939 68.687315,122.82798 77.020036,126.59369 C 86.222643,116.10416 92.544326,102.99997 94.053451,89.087466 C 85.903141,89.029427 77.752831,88.971415 69.602508,88.913376 C 69.552423,89.171873 69.502351,89.43033 69.452266,89.688827 z M 65.514176,135.448 C 58.289126,135.70139 52.140365,142.12171 51.960185,149.25568 C 51.428465,156.41302 56.933458,163.41882 64.098697,164.39268 C 70.94891,165.61683 78.081626,160.97493 79.961729,154.33562 C 82.237434,147.45913 78.559297,139.28997 71.832511,136.5716 C 69.859588,135.69945 67.665862,135.343 65.514176,135.448 z"
         id="path12946" />
      <path
         style="opacity:0.03842576;fill:none;fill-opacity:1;stroke:url(#radialGradient5942);stroke-width:6.27611399;stroke-miterlimit:4;stroke-opacity:1;display:inline"
         d="M 65.561609,-2.375501 C 58.312803,-2.1641754 51.979046,4.1847284 51.612254,11.424255 C 50.907416,18.620247 56.200256,25.839561 63.331619,27.178455 C 70.296099,28.775965 77.824888,24.398698 80.096169,17.65947 C 82.641986,10.9485 79.614376,2.752174 73.255918,-0.60306161 C 70.919891,-1.887461 68.231654,-2.5072497 65.561609,-2.375501 z M 26.157013,13.402429 C 17.209175,13.455769 8.3383944,15.235401 0.12450688,18.822634 C 4.2102144,26.147158 8.2959219,33.471709 12.381603,40.79622 C 13.215894,40.533983 13.869374,40.795787 14.825124,40.273977 C 23.516801,37.450973 33.212461,37.763886 41.656325,41.239333 C 55.356843,46.44795 65.702047,59.403349 68.020946,73.887154 C 76.600916,73.953094 85.180886,74.019034 93.760869,74.084974 C 92.366849,59.982857 86.461886,46.437227 77.043753,35.866602 C 76.326013,36.076182 75.6968,35.934353 74.924473,36.42049 C 69.230257,38.701785 62.671708,38.572517 57.092362,36.016948 C 48.735018,32.455099 42.745136,24.066728 42.004256,15.024535 C 36.822204,13.859061 31.491813,13.39504 26.157013,13.402429 z M -12.441001,26.584995 C -23.734276,34.89018 -32.342845,46.823942 -36.623052,60.17443 C -36.141929,60.7912 -35.691151,61.360693 -34.890775,61.874878 C -30.016426,65.70327 -26.880863,71.550694 -26.342909,77.724812 C -25.360319,86.638761 -29.526902,95.787122 -36.844471,100.95652 C -32.358175,114.45338 -23.952361,126.7735 -12.354008,135.14732 C -8.1154075,127.91248 -3.8768462,120.67762 0.36174126,113.44277 C -0.23883249,112.77467 -0.60492812,112.08306 -1.4951181,111.45373 C -8.2606881,105.36615 -12.80245,96.930782 -14.093727,87.924289 C -16.494171,73.431756 -10.595717,58.026602 0.69386938,48.701001 C -3.5974281,41.265702 -7.8887387,33.830389 -12.180036,26.39509 L -12.384681,26.544032 L -12.441001,26.584995 z M -51.560916,66.346343 C -58.810864,66.557143 -65.141957,72.907583 -65.510284,80.146099 C -66.21217,87.345345 -60.92647,94.566917 -53.790919,95.908213 C -46.946101,97.478541 -39.547551,93.274065 -37.152882,86.729468 C -34.41523,80.003798 -37.344113,71.626294 -43.754875,68.184289 C -46.113661,66.851091 -48.848911,66.214305 -51.560916,66.346343 z M 69.151769,89.324832 C 68.493131,89.58216 68.753793,90.922918 68.421652,91.60488 C 66.483103,100.28922 61.52978,108.25094 54.530231,113.75928 C 43.241589,123.15279 26.851378,125.76306 13.109135,120.63542 C 8.8178375,128.06809 4.52654,135.50076 0.23522938,142.93342 C 13.138286,148.67884 27.863381,150.22939 41.680055,147.24584 C 41.933171,146.47715 42.291785,145.78782 42.320581,144.76918 C 43.219893,138.74113 46.663657,133.16765 51.616336,129.65344 C 58.814756,124.24887 68.973269,123.26651 77.107016,127.03682 C 86.556176,116.38863 93.014844,102.93312 94.464658,88.715556 C 86.077113,88.65753 77.689556,88.599505 69.301998,88.541479 C 69.251926,88.802601 69.201854,89.063723 69.151769,89.324832 z M 65.561609,135.07611 C 58.312803,135.28743 51.979046,141.63636 51.612254,148.87586 C 50.907416,156.07186 56.200256,163.29118 63.331619,164.63004 C 70.296099,166.22757 77.824888,161.85031 80.096169,155.11107 C 82.693186,148.28601 79.496698,139.93915 72.947519,136.68238 C 70.684638,135.51289 68.114671,134.94939 65.561609,135.07611 z"
         id="path12948" />
      <circle
         transform="matrix(1.7934171,0,0,1.8187651,-67.128599,-3.4846897)"
         style="fill:#000000;fill-opacity:1;stroke:url(#radialGradient5892);stroke-width:3.01171541;stroke-miterlimit:4;stroke-dasharray:none;display:inline"
         sodipodi:ry="9.1239996"
         sodipodi:rx="9.1239996"
         sodipodi:cy="84.667"
         sodipodi:cx="74.547997"
         i:knockout="Off"
         cx="74.547997"
         cy="84.667"
         r="9.1239996"
         id="circle12958"
         inkscape:export-filename="/home/jonny/Design/Ubuntu/Edgy/logo.png"
         inkscape:export-xdpi="110.30428"
         inkscape:export-ydpi="110.30428" />
      <path
         id="path12960"
         d="M 66.76865,133.92986 C 57.736183,133.92986 50.403744,141.36601 50.403744,150.52608 C 50.403744,159.68616 57.736209,167.12227 66.76865,167.12227 C 75.801078,167.12227 83.133596,159.68616 83.133596,150.52608 C 83.133596,141.36594 75.801078,133.92986 66.76865,133.92986 z"
         style="fill:#ff6d04;fill-opacity:1;display:inline" />
      <circle
         transform="matrix(1.7934171,0,0,1.8187651,-66.911709,-3.2676197)"
         style="fill:#ffb515;display:inline"
         sodipodi:ry="9.1239996"
         sodipodi:rx="9.1239996"
         sodipodi:cy="84.667"
         sodipodi:cx="74.547997"
         i:knockout="Off"
         cx="74.547997"
         cy="84.667"
         r="9.1239996"
         id="circle12962"
         inkscape:export-filename="/home/jonny/Design/Ubuntu/Edgy/logo.png"
         inkscape:export-xdpi="110.30428"
         inkscape:export-ydpi="110.30428" />
      <circle
         inkscape:export-ydpi="110.30428"
         inkscape:export-xdpi="110.30428"
         inkscape:export-filename="/home/jonny/Design/Ubuntu/Edgy/logo.png"
         id="circle12964"
         r="9.1239996"
         cy="84.667"
         cx="74.547997"
         i:knockout="Off"
         sodipodi:cx="74.547997"
         sodipodi:cy="84.667"
         sodipodi:rx="9.1239996"
         sodipodi:ry="9.1239996"
         style="opacity:0.83695649;fill:url(#linearGradient5894);fill-opacity:1;stroke:none;display:inline"
         transform="matrix(1.7934171,0,0,-1.8187651,-66.911709,304.71127)" />
      <path
         id="path12978"
         d="M 28.22399,35.919902 C 22.120301,35.919902 16.298274,37.14453 10.99412,39.35982 L 12.753933,42.431175 C 17.41508,40.528746 22.491883,39.48267 27.814726,39.48267 C 48.189727,39.482683 65.122749,54.8091 67.922272,74.700891 L 72.587829,74.700891 C 69.630976,52.819613 50.898031,35.919902 28.22399,35.919902 z"
         style="opacity:0.69021738;fill:url(#linearGradient5935);fill-opacity:1;display:inline" />
      <path
         id="path12980"
         d="M -0.26055437,46.44442 C -10.958519,54.637609 -17.858777,67.560642 -17.858751,82.072153 C -17.858751,96.504508 -11.022634,109.33651 -0.42424937,117.53607 L 1.4992719,114.09616 C -7.9233362,106.5719 -13.970772,94.90335 -13.970772,81.82644 C -13.970798,68.744083 -7.9251475,57.039983 1.4992719,49.515775 L -0.26055437,46.44442 z"
         style="opacity:0.22999998;fill:#ed9e01;fill-opacity:1;display:inline" />
      <path
         id="path12982"
         d="M 66.970355,87.403345 C 64.178024,107.30243 47.243204,122.70345 26.862823,122.70345 C 21.536369,122.70345 16.463163,121.66105 11.802029,119.75495 L 9.8785081,123.15392 C 15.227641,125.41373 21.103927,126.67575 27.272073,126.67575 C 50.115532,126.67575 68.977364,109.52264 71.717786,87.403345 L 66.970355,87.403345 z"
         style="opacity:0.7;fill:url(#linearGradient5931);fill-opacity:1;display:inline" />
    </g>
  </g>
</svg>
