<?xml version="1.0" encoding="UTF-8" standalone="no"?>
<!-- Created with Inkscape (http://www.inkscape.org/) -->
<svg
   xmlns:i="&amp;ns_ai;"
   xmlns:dc="http://purl.org/dc/elements/1.1/"
   xmlns:cc="http://web.resource.org/cc/"
   xmlns:rdf="http://www.w3.org/1999/02/22-rdf-syntax-ns#"
   xmlns:svg="http://www.w3.org/2000/svg"
   xmlns="http://www.w3.org/2000/svg"
   xmlns:xlink="http://www.w3.org/1999/xlink"
   xmlns:sodipodi="http://sodipodi.sourceforge.net/DTD/sodipodi-0.dtd"
   xmlns:inkscape="http://www.inkscape.org/namespaces/inkscape"
   width="48px"
   height="48px"
   id="svg57"
   sodipodi:version="0.32"
   inkscape:version="0.45"
   sodipodi:docbase="/home/lapo/Icone/tangerine-icon-theme/scalable/status"
   sodipodi:docname="user-trash-full.svg"
   inkscape:output_extension="org.inkscape.output.svg.inkscape">
  <defs
     id="defs3">
    <radialGradient
       inkscape:collect="always"
       xlink:href="#linearGradient5060"
       id="radialGradient6719"
       gradientUnits="userSpaceOnUse"
       gradientTransform="matrix(-2.774389,0,0,1.969706,112.7623,-872.8854)"
       cx="605.71429"
       cy="486.64789"
       fx="605.71429"
       fy="486.64789"
       r="117.14286" />
    <linearGradient
       inkscape:collect="always"
       id="linearGradient5060">
      <stop
         style="stop-color:black;stop-opacity:1;"
         offset="0"
         id="stop5062" />
      <stop
         style="stop-color:black;stop-opacity:0;"
         offset="1"
         id="stop5064" />
    </linearGradient>
    <radialGradient
       inkscape:collect="always"
       xlink:href="#linearGradient5060"
       id="radialGradient6717"
       gradientUnits="userSpaceOnUse"
       gradientTransform="matrix(2.774389,0,0,1.969706,-1891.633,-872.8854)"
       cx="605.71429"
       cy="486.64789"
       fx="605.71429"
       fy="486.64789"
       r="117.14286" />
    <linearGradient
       id="linearGradient5048">
      <stop
         style="stop-color:black;stop-opacity:0;"
         offset="0"
         id="stop5050" />
      <stop
         id="stop5056"
         offset="0.5"
         style="stop-color:black;stop-opacity:1;" />
      <stop
         style="stop-color:black;stop-opacity:0;"
         offset="1"
         id="stop5052" />
    </linearGradient>
    <linearGradient
       inkscape:collect="always"
       xlink:href="#linearGradient5048"
       id="linearGradient6715"
       gradientUnits="userSpaceOnUse"
       gradientTransform="matrix(2.774389,0,0,1.969706,-1892.179,-872.8854)"
       x1="302.85715"
       y1="366.64789"
       x2="302.85715"
       y2="609.50507" />
    <linearGradient
       id="linearGradient381"
       inkscape:collect="always">
      <stop
         id="stop382"
         offset="0"
         style="stop-color:#ffffff;stop-opacity:1;" />
      <stop
         id="stop383"
         offset="1"
         style="stop-color:#ffffff;stop-opacity:0;" />
    </linearGradient>
    <linearGradient
       id="linearGradient368">
      <stop
         style="stop-color:#ffffff;stop-opacity:0.25680932"
         offset="0.0000000"
         id="stop369" />
      <stop
         style="stop-color:#ffffff;stop-opacity:0.0000000;"
         offset="1.0000000"
         id="stop372" />
    </linearGradient>
    <linearGradient
       id="linearGradient1065">
      <stop
         style="stop-color:#fef17c;stop-opacity:1"
         offset="0.0000000"
         id="stop1066" />
      <stop
         style="stop-color:#c4a000"
         offset="1.0000000"
         id="stop1067" />
    </linearGradient>
    <linearGradient
       id="linearGradient172">
      <stop
         id="stop173"
         offset="0.0000000"
         style="stop-color:#614f00;stop-opacity:1" />
      <stop
         id="stop174"
         offset="1.0000000"
         style="stop-color:#514611;stop-opacity:1" />
    </linearGradient>
    <linearGradient
       id="linearGradient161">
      <stop
         id="stop162"
         offset="0.0000000"
         style="stop-color:#575955;stop-opacity:1.0000000;" />
      <stop
         id="stop163"
         offset="1.0000000"
         style="stop-color:#7c7e79;stop-opacity:1.0000000;" />
    </linearGradient>
    <linearGradient
       id="linearGradient157">
      <stop
         id="stop158"
         offset="0.0000000"
         style="stop-color:#babdb6;stop-opacity:1.0000000;" />
      <stop
         id="stop159"
         offset="1.0000000"
         style="stop-color:#f1f5ec;stop-opacity:1.0000000;" />
    </linearGradient>
    <linearGradient
       id="linearGradient149"
       inkscape:collect="always">
      <stop
         id="stop150"
         offset="0"
         style="stop-color:#000000;stop-opacity:1;" />
      <stop
         id="stop151"
         offset="1"
         style="stop-color:#000000;stop-opacity:0;" />
    </linearGradient>
    <linearGradient
       id="linearGradient1869">
      <stop
         style="stop-color:#eff3f4;stop-opacity:1.0000000;"
         offset="0.0000000"
         id="stop1870" />
      <stop
         style="stop-color:#939596;stop-opacity:1.0000000;"
         offset="1.0000000"
         id="stop1871" />
    </linearGradient>
    <linearGradient
       inkscape:collect="always"
       xlink:href="#linearGradient1869"
       id="linearGradient1872"
       gradientTransform="matrix(1.464893,0,0,0.475906,30.56501,-34.34268)"
       x1="-4.6375198"
       y1="104.38752"
       x2="-4.5239210"
       y2="110.61378"
       gradientUnits="userSpaceOnUse" />
    <linearGradient
       gradientUnits="userSpaceOnUse"
       y2="6.8897981"
       x2="60.685901"
       y1="6.8897981"
       x1="55.208272"
       gradientTransform="matrix(0.772488,0,0,1.55784,-2.79531,-0.166664)"
       id="linearGradient160"
       xlink:href="#linearGradient157"
       inkscape:collect="always" />
    <linearGradient
       gradientUnits="userSpaceOnUse"
       y2="21.169637"
       x2="19.737664"
       y1="21.169637"
       x1="2.9325605"
       gradientTransform="matrix(2.374946,0,0,0.506711,-2.79531,-0.166664)"
       id="linearGradient164"
       xlink:href="#linearGradient161"
       inkscape:collect="always" />
    <linearGradient
       y2="48.805084"
       x2="25.312450"
       y1="25.335417"
       x1="17.573946"
       gradientTransform="matrix(1.180659,0,0,0.860098,0.204973,-0.654813)"
       gradientUnits="userSpaceOnUse"
       id="linearGradient374"
       xlink:href="#linearGradient368"
       inkscape:collect="always" />
    <linearGradient
       inkscape:collect="always"
       xlink:href="#linearGradient381"
       id="linearGradient2241"
       gradientUnits="userSpaceOnUse"
       gradientTransform="matrix(1.226444,0,0,0.839924,-8.13995e-2,-0.690072)"
       x1="19.618311"
       y1="52.758102"
       x2="18.889523"
       y2="18.466385" />
    <linearGradient
       inkscape:collect="always"
       xlink:href="#linearGradient149"
       id="linearGradient2251"
       gradientUnits="userSpaceOnUse"
       gradientTransform="matrix(3.520411,0,0,0.348016,-3.24585,-0.144996)"
       x1="7.3738608"
       y1="27.376621"
       x2="7.5291119"
       y2="69.460503" />
    <linearGradient
       inkscape:collect="always"
       xlink:href="#linearGradient1065"
       id="linearGradient2254"
       gradientUnits="userSpaceOnUse"
       gradientTransform="matrix(1.172215,0,0,0.860098,0.175269,-0.497829)"
       x1="10.861447"
       y1="33.139202"
       x2="30.587307"
       y2="37.720802" />
    <linearGradient
       inkscape:collect="always"
       xlink:href="#linearGradient172"
       id="linearGradient2256"
       gradientUnits="userSpaceOnUse"
       gradientTransform="matrix(1.172215,0,0,0.860098,0.175269,-0.497829)"
       x1="19.347122"
       y1="23.114082"
       x2="19.672924"
       y2="52.625473" />
    <linearGradient
       id="linearGradient177">
      <stop
         style="stop-color:#ffffff;stop-opacity:1.0000000;"
         offset="0.0000000"
         id="stop178" />
      <stop
         style="stop-color:#b0b0b0;stop-opacity:1.0000000;"
         offset="1.0000000"
         id="stop179" />
    </linearGradient>
    <linearGradient
       id="linearGradient454">
      <stop
         style="stop-color:#ffffff;stop-opacity:1.0000000;"
         offset="0.0000000"
         id="stop455" />
      <stop
         style="stop-color:#bebebe;stop-opacity:1.0000000;"
         offset="0.50000000"
         id="stop457" />
      <stop
         style="stop-color:#b0b0b0;stop-opacity:1.0000000;"
         offset="1.0000000"
         id="stop456" />
    </linearGradient>
    <linearGradient
       id="linearGradient477"
       gradientUnits="userSpaceOnUse"
       x1="78.245598"
       y1="72.608902"
       x2="192.38570"
       y2="72.608902"
       style="fill-rule:nonzero;">
      <stop
         offset="0.0000000"
         style="stop-color:#e4e9ea;stop-opacity:1.0000000;"
         id="stop478" />
      <stop
         offset="1"
         style="stop-color:#85898A;fill-rule:nonzero;"
         id="stop479" />
    </linearGradient>
    <linearGradient
       id="linearGradient508">
      <stop
         style="stop-color:#b0b0b0;stop-opacity:1.0000000;"
         offset="0.0000000"
         id="stop509" />
      <stop
         style="stop-color:#b0b0b0;stop-opacity:1.0000000;"
         offset="1.0000000"
         id="stop510" />
    </linearGradient>
    <linearGradient
       id="linearGradient513">
      <stop
         style="stop-color:#696969;stop-opacity:1.0000000;"
         offset="0.0000000"
         id="stop514" />
      <stop
         style="stop-color:#ffffff;stop-opacity:1.0000000;"
         offset="1.0000000"
         id="stop515" />
    </linearGradient>
    <linearGradient
       id="linearGradient641"
       gradientUnits="userSpaceOnUse"
       x1="78.245598"
       y1="72.608902"
       x2="192.38570"
       y2="72.608902"
       style="fill-rule:nonzero;">
      <stop
         offset="0.0000000"
         style="stop-color:#f9feff;stop-opacity:1.0000000;"
         id="stop642" />
      <stop
         offset="1.0000000"
         style="stop-color:#afb4b6;stop-opacity:1.0000000;"
         id="stop643" />
    </linearGradient>
    <linearGradient
       inkscape:collect="always"
       xlink:href="#linearGradient177"
       id="linearGradient1849"
       gradientUnits="userSpaceOnUse"
       gradientTransform="scale(1.244363,0.803624)"
       x1="81.307533"
       y1="67.364906"
       x2="136.98560"
       y2="137.97153" />
    <linearGradient
       inkscape:collect="always"
       xlink:href="#linearGradient177"
       id="linearGradient1851"
       gradientUnits="userSpaceOnUse"
       gradientTransform="scale(1.244363,0.803624)"
       x1="128.35213"
       y1="116.66409"
       x2="132.98843"
       y2="122.61145" />
    <linearGradient
       inkscape:collect="always"
       xlink:href="#linearGradient177"
       id="linearGradient1859"
       gradientUnits="userSpaceOnUse"
       gradientTransform="scale(1.244363,0.803624)"
       x1="81.307533"
       y1="67.364906"
       x2="136.98560"
       y2="137.97153" />
    <radialGradient
       inkscape:collect="always"
       xlink:href="#linearGradient641"
       id="radialGradient2004"
       gradientUnits="userSpaceOnUse"
       gradientTransform="matrix(0.878817,0,0,1.025708,1.45187,2.885873)"
       cx="39.147720"
       cy="8.9303417"
       fx="39.147720"
       fy="8.9303417"
       r="13.265761" />
    <radialGradient
       inkscape:collect="always"
       xlink:href="#linearGradient477"
       id="radialGradient2007"
       gradientUnits="userSpaceOnUse"
       gradientTransform="matrix(2.202254,0,0,0.574568,-13.62772,0.68825)"
       cx="16.280994"
       cy="20.452780"
       fx="16.280994"
       fy="20.452780"
       r="5.6434927" />
    <linearGradient
       inkscape:collect="always"
       xlink:href="#linearGradient454"
       id="linearGradient2010"
       gradientUnits="userSpaceOnUse"
       gradientTransform="matrix(1.399756,0,0,0.903977,-3.78453,0.787678)"
       x1="14.248631"
       y1="11.165159"
       x2="18.086929"
       y2="14.748880" />
    <linearGradient
       inkscape:collect="always"
       xlink:href="#linearGradient177"
       id="linearGradient2015"
       gradientUnits="userSpaceOnUse"
       gradientTransform="matrix(1.399756,0,0,0.903977,-3.78453,0.833159)"
       x1="9.9626188"
       y1="8.7251825"
       x2="20.135639"
       y2="14.744809" />
    <linearGradient
       inkscape:collect="always"
       xlink:href="#linearGradient477"
       id="linearGradient2018"
       gradientUnits="userSpaceOnUse"
       gradientTransform="matrix(1.124876,0,0,1.124876,-3.78453,0.787678)"
       x1="24.162909"
       y1="2.3488793"
       x2="40.437176"
       y2="10.115389" />
    <linearGradient
       inkscape:collect="always"
       xlink:href="#linearGradient513"
       id="linearGradient2022"
       gradientUnits="userSpaceOnUse"
       gradientTransform="matrix(-1.449414,0.286552,-0.469381,0.965804,-2.492,0.489394)"
       x1="-32.400455"
       y1="18.817307"
       x2="-36.301399"
       y2="24.077389" />
    <linearGradient
       inkscape:collect="always"
       xlink:href="#linearGradient477"
       id="linearGradient2025"
       gradientUnits="userSpaceOnUse"
       gradientTransform="matrix(0.82649,0.763061,0.763061,-0.82649,-30.75087,-9.459878)"
       x1="36.155384"
       y1="13.131673"
       x2="45.130928"
       y2="20.664473" />
    <linearGradient
       inkscape:collect="always"
       xlink:href="#linearGradient177"
       id="linearGradient2028"
       gradientUnits="userSpaceOnUse"
       gradientTransform="matrix(1.399756,0,0,0.903977,-2.65176,0.263654)"
       x1="16.551964"
       y1="14.035932"
       x2="13.763388"
       y2="9.3615303" />
    <linearGradient
       inkscape:collect="always"
       xlink:href="#linearGradient508"
       id="linearGradient2031"
       gradientUnits="userSpaceOnUse"
       gradientTransform="matrix(1.027326,-0.134612,0.528454,0.53648,8.33075,4.899178)"
       x1="9.9626188"
       y1="8.7251825"
       x2="20.135639"
       y2="14.744809" />
  </defs>
  <sodipodi:namedview
     showborder="false"
     id="base"
     pagecolor="#ffffff"
     bordercolor="#666666"
     borderopacity="1.0"
     inkscape:pageopacity="0.0"
     inkscape:pageshadow="2"
     inkscape:zoom="1"
     inkscape:cx="24.211369"
     inkscape:cy="26.480832"
     inkscape:current-layer="layer1"
     showgrid="false"
     inkscape:grid-bbox="true"
     inkscape:document-units="px"
     inkscape:window-width="1034"
     inkscape:window-height="924"
     inkscape:window-x="236"
     inkscape:window-y="25"
     inkscape:showpageshadow="false"
     gridempspacing="2"
     inkscape:object-nodes="true"
     inkscape:object-points="true"
     inkscape:object-bbox="true"
     inkscape:guide-bbox="false"
     inkscape:grid-points="true"
     fill="#2e3436"
     gridspacingx="0.5px"
     gridspacingy="0.5px" />
  <metadata
     id="metadata4">
    <rdf:RDF>
      <cc:Work
         rdf:about="">
        <dc:format>image/svg+xml</dc:format>
        <dc:type
           rdf:resource="http://purl.org/dc/dcmitype/StillImage" />
        <dc:title>Trash Full</dc:title>
        <dc:date>2003-02-04</dc:date>
        <dc:creator>
          <cc:Agent>
            <dc:title>Jakub Steiner</dc:title>
          </cc:Agent>
        </dc:creator>
        <dc:subject>
          <rdf:Bag>
            <rdf:li>trash</rdf:li>
            <rdf:li>delete</rdf:li>
            <rdf:li>deleted files</rdf:li>
            <rdf:li>waste</rdf:li>
            <rdf:li>recycle</rdf:li>
            <rdf:li>bin</rdf:li>
            <rdf:li>empty</rdf:li>
          </rdf:Bag>
        </dc:subject>
        <dc:publisher>
          <cc:Agent>
            <dc:title>Novell, Inc.</dc:title>
          </cc:Agent>
        </dc:publisher>
        <cc:license
           rdf:resource="http://creativecommons.org/licenses/by-sa/2.0/" />
        <dc:contributor>
          <cc:Agent>
            <dc:title>Garrett LeSage
Ulisse Perusin</dc:title>
          </cc:Agent>
        </dc:contributor>
      </cc:Work>
      <cc:License
         rdf:about="http://creativecommons.org/licenses/by-sa/2.0/">
        <cc:permits
           rdf:resource="http://web.resource.org/cc/Reproduction" />
        <cc:permits
           rdf:resource="http://web.resource.org/cc/Distribution" />
        <cc:requires
           rdf:resource="http://web.resource.org/cc/Notice" />
        <cc:requires
           rdf:resource="http://web.resource.org/cc/Attribution" />
        <cc:permits
           rdf:resource="http://web.resource.org/cc/DerivativeWorks" />
        <cc:requires
           rdf:resource="http://web.resource.org/cc/ShareAlike" />
      </cc:License>
    </rdf:RDF>
  </metadata>
  <g
     id="layer1"
     inkscape:label="Layer 1"
     inkscape:groupmode="layer">
    <g
       style="display:inline"
       transform="matrix(2.262383e-2,0,0,1.966248e-2,44.39519,41.98146)"
       id="g6707">
      <rect
         style="opacity:0.40206185;color:black;fill:url(#linearGradient6715);fill-opacity:1;fill-rule:nonzero;stroke:none;stroke-width:1;stroke-linecap:round;stroke-linejoin:miter;marker:none;marker-start:none;marker-mid:none;marker-end:none;stroke-miterlimit:4;stroke-dasharray:none;stroke-dashoffset:0;stroke-opacity:1;visibility:visible;display:inline;overflow:visible"
         id="rect6709"
         width="1339.6335"
         height="478.35718"
         x="-1559.2523"
         y="-150.69685" />
      <path
         style="opacity:0.40206185;color:black;fill:url(#radialGradient6717);fill-opacity:1;fill-rule:nonzero;stroke:none;stroke-width:1;stroke-linecap:round;stroke-linejoin:miter;marker:none;marker-start:none;marker-mid:none;marker-end:none;stroke-miterlimit:4;stroke-dasharray:none;stroke-dashoffset:0;stroke-opacity:1;visibility:visible;display:inline;overflow:visible"
         d="M -219.61876,-150.68038 C -219.61876,-150.68038 -219.61876,327.65041 -219.61876,327.65041 C -76.744594,328.55086 125.78146,220.48075 125.78138,88.454235 C 125.78138,-43.572302 -33.655436,-150.68036 -219.61876,-150.68038 z "
         id="path6711"
         sodipodi:nodetypes="cccc" />
      <path
         sodipodi:nodetypes="cccc"
         id="path6713"
         d="M -1559.2523,-150.68038 C -1559.2523,-150.68038 -1559.2523,327.65041 -1559.2523,327.65041 C -1702.1265,328.55086 -1904.6525,220.48075 -1904.6525,88.454235 C -1904.6525,-43.572302 -1745.2157,-150.68036 -1559.2523,-150.68038 z "
         style="opacity:0.40206185;color:black;fill:url(#radialGradient6719);fill-opacity:1;fill-rule:nonzero;stroke:none;stroke-width:1;stroke-linecap:round;stroke-linejoin:miter;marker:none;marker-start:none;marker-mid:none;marker-end:none;stroke-miterlimit:4;stroke-dasharray:none;stroke-dashoffset:0;stroke-opacity:1;visibility:visible;display:inline;overflow:visible" />
    </g>
    <path
       style="fill:url(#linearGradient2254);fill-opacity:1;fill-rule:evenodd;stroke:url(#linearGradient2256);stroke-width:1;stroke-linecap:butt;stroke-linejoin:miter;stroke-miterlimit:4;stroke-dasharray:none;stroke-opacity:1"
       d="M 4.000805,16.500028 C 3.9568443,16.464574 5.7277298,42.005521 5.7282343,42.013263 C 5.8943636,44.563961 7.2889479,45.496198 8.8498899,45.499996 C 8.9056682,45.500127 38.133934,45.496713 38.756644,45.494055 C 41.385341,45.482836 42.029344,43.859472 42.202267,42.085776 C 42.216136,42.050805 43.986115,16.535 43.999982,16.500028 C 30.666924,16.500028 17.333866,16.500028 4.000805,16.500028 z "
       id="path1751"
       sodipodi:nodetypes="ccccccc"
       inkscape:r_cx="true"
       inkscape:r_cy="true" />
    <path
       style="color:#000000;fill:url(#linearGradient2251);fill-opacity:1;fill-rule:nonzero;stroke:none;stroke-width:0;stroke-linecap:butt;stroke-linejoin:miter;marker:none;marker-start:none;marker-mid:none;marker-end:none;stroke-miterlimit:4;stroke-dashoffset:0;stroke-opacity:1;visibility:visible;display:block"
       d="M 43.250022,19.023412 L 7.0000055,19.000007 C 34.311315,19.637335 39.677212,22.648155 43.006255,22.494318 L 43.250022,19.023412 z "
       id="path1893"
       sodipodi:nodetypes="cccc"
       inkscape:r_cx="true"
       inkscape:r_cy="true" />
    <path
       style="fill:none;fill-opacity:1;fill-rule:evenodd;stroke:url(#linearGradient2241);stroke-width:1.00000048;stroke-linecap:butt;stroke-linejoin:miter;stroke-miterlimit:4;stroke-dasharray:none;stroke-opacity:0.2857143"
       d="M 5.1746335,19.121555 C 5.1227717,19.12142 6.021264,32.064222 6.7351062,41.14149 C 6.9192599,43.471559 7.2935382,44.419909 8.7439071,44.419909 C 20.70024,44.419909 37.692321,44.506848 38.27092,44.504728 C 41.070085,44.49447 41.017701,43.457076 41.249527,41.252919 C 41.333918,40.450528 42.800121,19.211805 42.786133,19.211805 C 32.768164,19.211805 17.552167,19.153839 5.1746335,19.121555 z "
       id="path375"
       sodipodi:nodetypes="cssssss"
       inkscape:r_cx="true"
       inkscape:r_cy="true" />
    <path
       style="fill:url(#linearGradient1872);fill-opacity:1;fill-rule:evenodd;stroke:#555753;stroke-width:0.97544956;stroke-linecap:butt;stroke-linejoin:miter;stroke-miterlimit:4;stroke-dasharray:none;stroke-opacity:1"
       d="M 7.538492,4.7306315 C 6.494167,4.7330003 5.620149,4.7569809 5.144078,5.7442051 C 5.061333,5.9157934 2.539129,12.879834 2.417869,13.145414 C 1.379764,15.419016 2.337109,18.283038 4.342179,18.263863 C 4.723494,18.260334 43.852401,18.281621 44.459163,18.263863 C 46.165984,18.214785 46.384401,14.898279 45.649626,13.406336 C 45.607999,13.321814 42.197827,5.6492999 42.110852,5.5134018 C 41.708578,4.9064789 40.807722,4.640488 40.138555,4.6654006 C 40.006734,4.6704304 7.668955,4.7303368 7.538492,4.7306315 z "
       id="path1841"
       sodipodi:nodetypes="cssssscss"
       transform="matrix(1.021485,0,0,1.028865,-0.537224,-0.298421)"
       inkscape:r_cx="true"
       inkscape:r_cy="true" />
    <path
       style="color:#000000;fill:url(#linearGradient164);fill-opacity:1;fill-rule:evenodd;stroke:none;stroke-width:0;stroke-linecap:butt;stroke-linejoin:miter;marker:none;marker-start:none;marker-mid:none;marker-end:none;stroke-miterlimit:4;stroke-dashoffset:0;stroke-opacity:1;visibility:visible;display:block"
       d="M 7.72045,6.3900545 C 6.735524,6.3773223 6.671388,6.3392466 6.449677,7.0362462 C 6.398497,7.1971422 4.336482,13.531607 4.255655,13.777418 C 3.980776,14.613371 4.36948,14.833988 5.323403,14.816995 C 5.661327,14.810975 42.670159,14.816995 43.208169,14.816995 C 43.971941,14.816995 44.198501,14.565395 44.025974,13.971598 C 43.955868,13.730313 41.085266,6.9669634 41.008179,6.8465153 C 40.651639,6.3085929 40.713471,6.3101594 40.09072,6.3025755 C 39.973809,6.301151 7.836071,6.3915492 7.72045,6.3900545 z "
       id="path1864"
       sodipodi:nodetypes="cssssscss"
       transform="matrix(1.005586,0,0,1.027013,-0.134078,-0.270972)"
       inkscape:r_cx="true"
       inkscape:r_cy="true" />
    <path
       style="color:#000000;fill:#2e3436;fill-opacity:1;fill-rule:evenodd;stroke:none;stroke-width:0;stroke-linecap:butt;stroke-linejoin:miter;marker:none;marker-start:none;marker-mid:none;marker-end:none;stroke-miterlimit:4;stroke-dashoffset:0;stroke-opacity:1;visibility:visible;display:block"
       d="M 7.191437,6.3869852 C 6.820562,6.4152986 6.642177,6.5251871 6.486944,7.0132015 C 6.435764,7.1740974 4.376014,13.499216 4.295186,13.745027 C 4.020307,14.580975 4.384957,14.805712 5.338881,14.78872 C 5.355404,14.788428 7.292214,14.788962 7.475548,14.78872 L 7.191437,6.3869852 z "
       id="path1880"
       sodipodi:nodetypes="cccccc"
       transform="matrix(1.005586,0,0,1.028865,-0.134078,-0.298421)"
       inkscape:r_cx="true"
       inkscape:r_cy="true" />
    <path
       style="color:#000000;fill:url(#linearGradient160);fill-opacity:1;fill-rule:evenodd;stroke:none;stroke-width:0;stroke-linecap:butt;stroke-linejoin:miter;marker:none;marker-start:none;marker-mid:none;marker-end:none;stroke-miterlimit:4;stroke-dashoffset:0;stroke-opacity:1;visibility:visible;display:block"
       d="M 40.143457,6.2999077 C 40.594213,6.3037596 40.726578,6.2947269 41.014741,6.8394315 C 41.054147,6.9139229 43.889138,13.632601 43.990928,13.878411 C 44.337098,14.825515 43.677798,14.805712 42.632092,14.833183 C 42.433434,14.83289 40.083238,14.811194 39.852358,14.81095 L 40.143457,6.2999077 z "
       id="path1888"
       sodipodi:nodetypes="cscccc"
       transform="matrix(1.005586,0,0,1.028865,-0.134078,-0.298421)"
       inkscape:r_cx="true"
       inkscape:r_cy="true" />
    <g
       style="fill:#2e3436;fill-opacity:0.5019455"
       transform="matrix(1.402179,0,0,1.438944,-66.03801,-8.126386)"
       id="g144"
       inkscape:r_cx="true"
       inkscape:r_cy="true">
      <path
         sodipodi:nodetypes="ccccccscc"
         id="path41"
         d="M 64.131147,25.325447 L 67.928133,25.615144 L 69.396397,22.040585 L 67.659134,23.261574 C 67.659134,23.261574 66.914226,21.524169 66.378823,21.384498 C 65.843421,21.244828 63.559132,21.291385 63.559132,21.291385 C 64.285695,21.471073 64.850367,22.719512 64.859047,22.733674 C 65.085717,23.10353 65.72022,24.348057 65.72022,24.348057 L 64.131147,25.325447 z "
         style="fill-rule:evenodd;stroke:none;stroke-width:1px;stroke-linecap:butt;stroke-linejoin:miter;stroke-opacity:1;fill:#2e3436;fill-opacity:0.5019455"
         inkscape:r_cx="true"
         inkscape:r_cy="true" />
      <path
         sodipodi:nodetypes="ccczc"
         id="path130"
         d="M 64.600893,22.852762 L 63.344021,25.250434 L 60.760121,23.620948 C 60.760121,23.620948 61.931819,21.409503 62.855175,21.409503 C 63.786342,21.409503 64.202456,22.212137 64.600893,22.852762 z "
         style="color:#000000;fill-opacity:0.5019455;fill-rule:evenodd;stroke:none;stroke-width:1px;stroke-linecap:butt;stroke-linejoin:miter;marker:none;marker-start:none;marker-mid:none;marker-end:none;stroke-miterlimit:4;stroke-dashoffset:0;stroke-opacity:1;visibility:visible;display:inline;overflow:visible;fill:#2e3436;opacity:0.57254902"
         inkscape:r_cx="true"
         inkscape:r_cy="true" />
      <path
         sodipodi:nodetypes="ccccccscc"
         id="path139"
         d="M 66.450976,28.545542 L 64.002948,31.471279 L 66.339076,34.488059 L 66.382284,32.587938 C 66.382284,32.587938 68.103047,32.750329 68.497986,32.362789 C 68.892923,31.975249 70.535933,30.02127 70.535933,30.02127 C 70.008436,30.552239 68.647269,30.395144 68.630659,30.395314 C 68.196893,30.399717 66.480102,30.359654 66.480102,30.359654 L 66.450976,28.545542 z "
         style="fill-rule:evenodd;stroke:none;stroke-width:1px;stroke-linecap:butt;stroke-linejoin:miter;stroke-opacity:1;fill:#2e3436;fill-opacity:0.5019455"
         inkscape:r_cx="true"
         inkscape:r_cy="true" />
      <path
         sodipodi:nodetypes="ccczc"
         id="path140"
         d="M 68.748409,30.061355 L 67.337346,27.751062 L 70.062991,26.371707 C 70.062991,26.371707 71.358061,28.513238 70.883591,29.305365 C 70.405109,30.104193 69.502725,30.048732 68.748409,30.061355 z "
         style="color:#000000;fill-opacity:0.5019455;fill-rule:evenodd;stroke:none;stroke-width:1px;stroke-linecap:butt;stroke-linejoin:miter;marker:none;marker-start:none;marker-mid:none;marker-end:none;stroke-miterlimit:4;stroke-dashoffset:0;stroke-opacity:1;visibility:visible;display:inline;overflow:visible;fill:#2e3436;opacity:0.57254902"
         inkscape:r_cx="true"
         inkscape:r_cy="true" />
      <path
         sodipodi:nodetypes="ccccccscc"
         id="path142"
         d="M 62.170193,28.37565 L 60.961696,25.192931 L 57.437755,25.441971 L 58.884372,26.495777 C 58.884372,26.495777 57.885335,27.90621 58.024237,28.441813 C 58.163139,28.977415 58.94678,31.196407 58.94678,31.196407 C 58.749682,30.474372 59.564769,29.372969 59.572907,29.358488 C 59.785446,28.980335 60.676477,27.51233 60.676477,27.51233 L 62.170193,28.37565 z "
         style="fill-rule:evenodd;stroke:none;stroke-width:1px;stroke-linecap:butt;stroke-linejoin:miter;stroke-opacity:1;fill:#2e3436;fill-opacity:0.5019455"
         inkscape:r_cx="true"
         inkscape:r_cy="true" />
      <path
         sodipodi:nodetypes="ccczc"
         id="path143"
         d="M 59.752772,29.661147 L 62.45898,29.59048 L 62.294995,32.640869 C 62.294995,32.640869 59.792913,32.695178 59.343013,31.888843 C 58.889308,31.075686 59.387472,30.32123 59.752772,29.661147 z "
         style="color:#000000;fill-opacity:0.5019455;fill-rule:evenodd;stroke:none;stroke-width:1px;stroke-linecap:butt;stroke-linejoin:miter;marker:none;marker-start:none;marker-mid:none;marker-end:none;stroke-miterlimit:4;stroke-dashoffset:0;stroke-opacity:1;visibility:visible;display:inline;overflow:visible;fill:#2e3436;opacity:0.57254902"
         inkscape:r_cx="true"
         inkscape:r_cy="true" />
    </g>
    <path
       inkscape:r_cy="true"
       inkscape:r_cx="true"
       style="opacity:1;fill:url(#linearGradient374);fill-opacity:1;fill-rule:evenodd;stroke:none;stroke-width:14.96210194;stroke-linecap:butt;stroke-linejoin:miter;stroke-miterlimit:4;stroke-opacity:1"
       d="M 42.007572,23.260973 C 36.659444,25.621437 29.333115,27.982269 23.359714,28.032389 C 16.791782,28.087497 11.952507,31.22813 7.0503905,33.638462 C 7.2458993,36.550825 7.4615308,38.584246 7.727829,41.84582 C 7.8606615,43.47273 8.3684789,43.434084 10.680765,43.434084 C 19.831149,43.434084 31.836196,43.447172 39.059097,43.447172 C 40.827158,43.447172 40.625335,42.181471 40.720847,40.969379 C 41.183211,35.101755 41.598829,29.150429 42.007572,23.260973 z "
       id="path344"
       sodipodi:nodetypes="cccssssc" />
    <path
       style="color:black;fill:none;fill-opacity:1;fill-rule:evenodd;stroke:#6d6d6d;stroke-width:1.18678188;stroke-linecap:round;stroke-linejoin:round;marker:none;marker-start:none;marker-mid:none;marker-end:none;stroke-miterlimit:4;stroke-dashoffset:0;stroke-opacity:1;visibility:visible;display:inline;overflow:visible"
       d="M 14.89217,0.6903265 C 15.053761,0.4969826 15.009808,0.50433312 14.565805,0.8386743 C 12.789793,2.1760369 9.848348,4.8737328 9.848348,4.8737328 C 9.848348,4.8737328 10.098715,5.6661973 9.373634,6.8912621 C 8.648552,8.1163276 6.46602,6.357211 6.466018,6.3572102 C 5.673222,5.8230918 6.174593,7.7782847 7.148418,9.917556 C 6.117968,10.688864 5.368245,11.453514 5.368245,12.024094 C 5.368244,13.373756 5.276748,13.246668 5.190228,13.507571 C 4.646303,13.578902 4.031344,13.590563 3.11336,13.507571 C 5.111339,13.403477 6.345111,11.768097 6.836888,12.024094 C 6.887525,12.055574 5.574005,13.401641 5.635271,13.403728 C 5.614645,13.438913 5.07155,13.833936 5.07155,13.833936 L 17.384412,13.774598 C 17.383362,13.784538 17.386282,13.794294 17.384412,13.804266 L 28.985206,13.804266 C 28.960729,13.84005 28.584666,13.596579 28.584666,13.596579 L 30.260996,13.804266 L 34.296055,13.804266 C 34.311476,13.807551 34.279103,13.831329 34.296055,13.833936 C 34.296056,13.833937 37.086575,14.607849 36.788297,15.999813 C 36.490018,17.391777 35.779532,17.809656 35.779532,17.809656 C 35.779534,17.809654 36.093896,21.763881 36.491601,23.951252 C 36.8893,26.138621 36.197411,20.275393 37.589374,19.678837 C 38.981339,19.082282 42.644538,20.672173 44.235353,17.987672 C 45.826168,15.303173 45.345128,15.709447 44.947422,14.516336 C 44.936891,14.484741 44.870629,14.431255 44.858413,14.397658 L 45.0661,14.397658 C 45.632074,13.719192 46.272886,12.929072 47.261646,11.282356 C 44.826107,13.345076 44.931398,13.349067 44.472709,13.833936 C 44.157642,13.204611 43.669026,12.466619 42.929893,11.935085 L 43.07824,11.905415 C 43.07824,11.905415 42.934481,11.823441 43.730971,10.184581 C 44.527459,8.5457243 38.53019,6.3344695 39.755251,7.5736617 C 40.421606,8.2477025 38.821704,9.3193591 37.084992,10.065904 C 36.877212,9.908165 34.977222,8.5250886 33.34663,7.8703571 C 33.010137,7.5387151 32.892726,7.268672 32.486211,6.9209316 C 36.678077,3.977364 29.088702,4.9981511 24.297416,1.9067781 C 27.614318,4.0834851 27.701748,6.4039514 26.552303,8.3747394 C 25.272646,8.0789003 24.226346,7.6119956 24.534773,6.9802707 C 25.131399,5.7582509 22.2619,7.9084177 21.567818,9.5318517 C 21.442032,9.539614 21.344769,9.4280628 21.211784,9.4725129 C 21.202784,9.0036347 21.276012,8.5568696 21.152445,8.078044 C 20.399683,5.1610991 17.791804,5.7088988 15.57457,7.9593657 C 14.59664,6.5763147 12.868448,5.6406967 12.459267,4.725385 C 11.995725,3.6884718 14.4074,1.2703581 14.89217,0.6903265 z M 18.86789,9.6802 C 19.050499,9.6802 18.820808,10.120389 18.719542,10.421938 C 18.669155,10.429892 18.622172,10.444936 18.571195,10.451608 C 18.54341,10.014894 18.583831,9.6802 18.86789,9.6802 z M 36.610279,10.273591 C 36.334998,10.376607 36.107693,10.554872 35.838871,10.629625 C 35.791338,10.559057 35.680859,10.463749 35.631185,10.392268 L 36.610279,10.273591 z "
       id="path1797"
       sodipodi:nodetypes="ccccccccccccccccccccccccccccccccccccccccccccccccccccc" />
    <path
       style="color:black;fill:url(#linearGradient2031);fill-opacity:1;fill-rule:evenodd;stroke:none;stroke-width:2.21074963;stroke-linecap:butt;stroke-linejoin:miter;marker:none;marker-start:none;marker-mid:none;marker-end:none;stroke-miterlimit:4;stroke-dashoffset:0;stroke-opacity:1;visibility:visible;display:inline;overflow:visible"
       d="M 22.7915,12.135445 L 37.254772,10.173678 C 37.254772,10.173678 32.207814,6.304694 31.443313,7.8705505 C 30.678813,9.4364083 23.782542,8.5412431 24.547042,6.9753867 C 25.311543,5.4095289 20.336746,9.3924834 21.615458,10.690615 C 22.894168,11.988747 22.7915,12.135445 22.7915,12.135445 z "
       id="path1799" />
    <path
       style="color:black;fill:url(#linearGradient2028);fill-opacity:1;fill-rule:evenodd;stroke:none;stroke-width:2.21074963;stroke-linecap:butt;stroke-linejoin:miter;marker:none;marker-start:none;marker-mid:none;marker-end:none;stroke-miterlimit:4;stroke-dashoffset:0;stroke-opacity:1;visibility:visible;display:inline;overflow:visible"
       d="M 15.194234,8.2858738 C 17.48103,5.7007998 20.364383,5.0048188 21.159791,8.0870216 C 21.955198,11.169226 19.966679,14.74856 19.370124,13.356596 C 18.773567,11.964633 18.077587,9.677837 18.872994,9.677837 C 19.668401,9.677837 17.182753,13.25717 17.182753,13.25717 L 15.194234,8.2858738 z "
       id="path1801" />
    <path
       style="color:black;fill:url(#linearGradient2025);fill-opacity:1;fill-rule:nonzero;stroke:none;stroke-width:1;stroke-linecap:butt;stroke-linejoin:miter;marker:none;marker-start:none;marker-mid:none;marker-end:none;stroke-miterlimit:4;stroke-dashoffset:0;stroke-opacity:1;visibility:visible;display:inline;overflow:visible"
       d="M 6.472014,6.3594124 C 6.472014,6.3594124 8.652364,8.1017856 9.377446,6.8767192 C 10.102529,5.651654 9.860948,4.8873255 9.860948,4.8873255 C 9.860948,4.8873255 12.777926,2.1675793 14.553938,0.8302165 C 16.329949,-0.50714629 11.839294,3.3308066 12.457351,4.7133579 C 13.075406,6.0959092 16.857463,7.4225619 16.205265,10.474098 C 15.553067,13.525633 15.457588,12.896198 14.356032,13.50304 C 13.254477,14.109881 10.264612,15.003158 8.252962,12.198645 C 6.241309,9.3941296 5.387446,5.6287245 6.472014,6.3594124 z "
       id="path1803" />
    <path
       style="color:black;fill:url(#linearGradient2022);fill-opacity:1;fill-rule:evenodd;stroke:none;stroke-width:2.21074963;stroke-linecap:butt;stroke-linejoin:miter;marker:none;marker-start:none;marker-mid:none;marker-end:none;stroke-miterlimit:4;stroke-dashoffset:0;stroke-opacity:1;visibility:visible;display:inline;overflow:visible"
       d="M 43.076996,11.9154 L 28.641925,14.28085 C 28.493578,13.865476 32.290614,9.4017213 33.515672,10.640912 C 34.740733,11.880104 40.988706,8.8267915 39.763645,7.5876004 C 38.538585,6.3484078 44.525786,8.5315164 43.729298,10.170374 C 42.932808,11.809233 43.076996,11.9154 43.076996,11.9154 z "
       id="path1805"
       sodipodi:nodetypes="cccccc" />
    <path
       style="fill:white;fill-opacity:1;fill-rule:evenodd;stroke:none;stroke-width:1px;stroke-linecap:butt;stroke-linejoin:miter;stroke-opacity:1"
       d="M 19.471014,8.9773835 L 20.465273,9.872217 L 13.107753,14.048106 L 19.471014,8.9773835 z "
       id="path1807" />
    <path
       style="font-size:12px;fill:url(#linearGradient2018);fill-opacity:1;fill-rule:nonzero;stroke:none;overflow:visible"
       d="M 24.29878,1.8951062 C 33.782175,8.1185598 18.578736,17.011463 16.073126,11.245638 C 17.477023,12.279794 17.572401,13.350612 17.373763,14.40935 L 39.69552,14.40935 C 38.882814,14.168132 38.165801,13.887348 36.88333,13.846913 C 37.931913,13.503215 36.365042,10.237301 32.489284,6.9218954 C 36.681147,3.978328 29.090065,4.9864789 24.29878,1.8951062 z M 47.253279,11.28079 C 44.276373,13.80201 44.740198,13.52569 43.843499,14.40935 L 45.073832,14.40935 C 45.639803,13.730886 46.264519,12.927506 47.253279,11.28079 z "
       id="path1809" />
    <path
       style="color:black;fill:url(#linearGradient2015);fill-opacity:1;fill-rule:evenodd;stroke:none;stroke-width:2.21074963;stroke-linecap:butt;stroke-linejoin:miter;marker:none;marker-start:none;marker-mid:none;marker-end:none;stroke-miterlimit:4;stroke-dashoffset:0;stroke-opacity:1;visibility:visible;display:inline;overflow:visible"
       d="M 5.06437,14.460275 L 24.850128,14.360848 C 24.850128,14.360848 23.358741,7.5998868 20.574814,9.787256 C 17.790888,11.974627 10.532795,9.2901278 13.316723,7.1027568 C 16.100648,4.9153861 5.362648,9.886683 5.362648,12.074052 C 5.362648,14.261424 5.06437,14.460275 5.06437,14.460275 z "
       id="path1811" />
    <g
       i:knockout="Off"
       style="font-size:12px;color:black;fill:url(#linearGradient1849);fill-opacity:1;fill-rule:evenodd;stroke:none;stroke-width:2.13333321;stroke-linecap:butt;stroke-linejoin:miter;marker:none;marker-start:none;marker-mid:none;marker-end:none;stroke-miterlimit:4;stroke-dashoffset:0;stroke-opacity:1;visibility:visible;display:inline;overflow:visible"
       id="g1813"
       transform="matrix(0.273209,0,0,0.273209,-37.43053,-13.09298)">
      <path
         i:knockout="Off"
         style="color:black;fill:url(#linearGradient1851);marker:none;marker-start:none;marker-mid:none;marker-end:none;stroke-dashoffset:0;visibility:visible;display:inline;overflow:visible"
         d="M 163.66854,88.723079 C 164.69803,92.209992 156.205,98.079 148.429,97.376 C 155.742,96.995 153.18,98.302 154.98,99.239 C 157.137,100.58 168.86508,95.534348 163.66854,88.723079 z "
         id="path1815"
         sodipodi:nodetypes="cccc" />
    </g>
    <path
       style="color:black;fill:url(#linearGradient2010);fill-opacity:1;fill-rule:evenodd;stroke:none;stroke-width:2.21074963;stroke-linecap:butt;stroke-linejoin:miter;marker:none;marker-start:none;marker-mid:none;marker-end:none;stroke-miterlimit:4;stroke-dashoffset:0;stroke-opacity:1;visibility:visible;display:inline;overflow:visible"
       d="M 20.972519,10.238904 C 19.481129,10.83546 18.188592,13.718812 15.702944,13.818239 C 13.217295,13.917665 20.972519,14.514219 21.767925,13.818239 C 22.563332,13.122256 20.972519,10.238904 20.972519,10.238904 z "
       id="path1817" />
    <path
       style="color:black;fill:url(#radialGradient2007);fill-opacity:1;fill-rule:nonzero;stroke:none;stroke-width:1;stroke-linecap:butt;stroke-linejoin:miter;marker:none;marker-start:none;marker-mid:none;marker-end:none;stroke-miterlimit:4;stroke-dashoffset:0;stroke-opacity:1;visibility:visible;display:inline;overflow:visible"
       d="M 20.077685,14.315369 L 30.417982,14.315369 C 30.417982,14.315369 32.108223,11.33259 28.230611,11.531442 C 24.353,11.730293 25.645537,12.923406 23.657018,13.321109 C 21.6685,13.718814 20.077685,14.315369 20.077685,14.315369 z "
       id="path1819" />
    <g
       i:knockout="Off"
       style="font-size:12px;color:black;fill:url(#linearGradient1859);fill-opacity:1;fill-rule:evenodd;stroke:none;stroke-width:2.13333321;stroke-linecap:butt;stroke-linejoin:miter;marker:none;marker-start:none;marker-mid:none;marker-end:none;stroke-miterlimit:4;stroke-dashoffset:0;stroke-opacity:1;visibility:visible;display:inline;overflow:visible"
       id="g1823"
       transform="matrix(0.273209,0,0,0.273209,6.361715,9.693218)" />
    <path
       style="fill:white;fill-opacity:1;fill-rule:evenodd;stroke:none;stroke-width:1px;stroke-linecap:butt;stroke-linejoin:miter;stroke-opacity:1"
       d="M 5.090382,14.438165 L 19.894598,14.392683 C 19.894598,14.392683 21.299239,14.103942 22.004202,13.922017 C 22.730144,13.551275 23.84743,13.559277 24.629799,13.155878 C 26.039245,12.429154 25.776629,11.552472 29.007478,11.531492 C 25.084304,11.111902 25.326633,12.916606 23.86962,13.264607 C 22.687154,13.547032 20.417635,14.347201 19.917339,14.278979 C 19.417043,14.210757 5.090382,14.438165 5.090382,14.438165 z "
       id="path1825"
       sodipodi:nodetypes="cccscscc" />
    <path
       style="fill:white;fill-opacity:1;fill-rule:evenodd;stroke:none;stroke-width:1px;stroke-linecap:butt;stroke-linejoin:miter;stroke-opacity:1"
       d="M 13.390749,9.2987595 C 13.390749,9.2987595 15.486737,10.90394 18.643858,10.549499 C 20.046456,10.392034 20.89519,9.4352034 21.463709,9.3669819 C 22.032227,9.2987595 22.487041,9.63987 22.487041,9.63987 C 22.487041,9.63987 21.964005,9.3897224 21.486448,9.5034259 C 21.008893,9.617129 19.91725,10.825411 18.302747,10.776907 C 14.618658,10.666226 13.390749,9.2987595 13.390749,9.2987595 z "
       id="path1827"
       sodipodi:nodetypes="cscccss" />
    <path
       style="fill:white;fill-opacity:1;fill-rule:evenodd;stroke:none;stroke-width:1px;stroke-linecap:butt;stroke-linejoin:miter;stroke-opacity:1"
       d="M 24.319562,1.9256821 C 24.319562,1.9256821 27.718248,4.1075542 27.382574,6.8348941 C 27.046902,9.562234 23.941931,11.618228 23.941931,11.618228 C 23.941931,11.618228 28.04326,9.0457089 27.760206,6.5831397 C 27.340616,2.9326999 24.319562,1.9256821 24.319562,1.9256821 z "
       id="path1829"
       sodipodi:nodetypes="cccsc" />
    <path
       style="color:black;fill:black;fill-opacity:0.17857139;fill-rule:evenodd;stroke:none;stroke-width:1px;stroke-linecap:butt;stroke-linejoin:miter;marker:none;marker-start:none;marker-mid:none;marker-end:none;stroke-miterlimit:4;stroke-dashoffset:0;stroke-opacity:1;visibility:visible;display:inline;overflow:visible"
       d="M 32.543542,6.9607714 C 32.16591,6.2474671 30.361669,4.8208585 28.809183,4.4851858 C 31.033014,5.072613 33.005091,6.5411806 33.005091,6.5411806 L 32.543542,6.9607714 z "
       id="path1831"
       sodipodi:nodetypes="cccc" />
    <path
       style="fill:black;fill-opacity:0.17857139;fill-rule:evenodd;stroke:none;stroke-width:1px;stroke-linecap:butt;stroke-linejoin:miter;stroke-opacity:1"
       d="M 15.604239,7.870357 C 15.604239,7.870357 16.553664,9.0274697 16.19763,10.392268 C 17.058048,10.570285 17.414081,10.599955 17.414081,10.599955 L 18.185491,9.976896 C 18.185491,9.976896 18.185491,8.1373829 15.604239,7.870357 z "
       id="path1833"
       sodipodi:nodetypes="ccccc" />
    <path
       style="fill:black;fill-opacity:0.07142855;fill-rule:evenodd;stroke:none;stroke-width:1px;stroke-linecap:butt;stroke-linejoin:miter;stroke-opacity:1"
       d="M 12.925337,7.5523272 C 12.925337,7.5523272 14.616501,6.9589361 14.171459,7.3743098 C 13.726416,7.7896835 16.277996,9.658865 16.277996,9.658865 C 16.277996,9.658865 16.277996,10.252256 16.159319,10.400604 C 16.040639,10.548952 11.797895,9.3325006 12.925337,7.5523272 z "
       id="path1835" />
    <path
       style="color:black;fill:url(#radialGradient2004);fill-opacity:1;fill-rule:nonzero;stroke:none;stroke-width:1;stroke-linecap:butt;stroke-linejoin:miter;marker:none;marker-start:none;marker-mid:none;marker-end:none;stroke-miterlimit:4;stroke-dashoffset:0;stroke-opacity:1;visibility:visible;display:inline;overflow:visible"
       d="M 34.247786,13.979568 C 34.247786,13.979568 37.079518,14.613645 36.781241,16.005609 C 36.482964,17.397572 35.78698,17.795276 35.78698,17.795276 C 35.78698,17.795276 36.085258,21.772313 36.482964,23.959684 C 36.880667,26.147053 36.184685,20.280923 37.576648,19.684368 C 38.968612,19.087812 42.647369,20.678627 44.238184,17.994127 C 45.829,15.309627 45.33187,15.70733 44.934165,14.514219 C 44.536462,13.321109 42.897841,10.201384 39.517361,10.897365 C 36.136879,11.593346 32.955249,13.780717 34.247786,13.979568 z "
       id="path1821"
       sodipodi:nodetypes="cscsssssc" />
  </g>
</svg>
