<?xml version="1.0" encoding="UTF-8" standalone="no"?>
<svg
   xmlns:dc="http://purl.org/dc/elements/1.1/"
   xmlns:cc="http://web.resource.org/cc/"
   xmlns:rdf="http://www.w3.org/1999/02/22-rdf-syntax-ns#"
   xmlns:svg="http://www.w3.org/2000/svg"
   xmlns="http://www.w3.org/2000/svg"
   xmlns:xlink="http://www.w3.org/1999/xlink"
   xmlns:sodipodi="http://sodipodi.sourceforge.net/DTD/sodipodi-0.dtd"
   xmlns:inkscape="http://www.inkscape.org/namespaces/inkscape"
   version="1.0"
   width="64"
   height="128"
   viewBox="0 0 128 128"
   overflow="visible"
   enable-background="new 0 0 128 128"
   xml:space="preserve"
   id="svg2751"
   sodipodi:version="0.32"
   inkscape:version="0.44"
   sodipodi:docname="gnome-netstatus-50-74.svg"
   sodipodi:docbase="/usr/share/icons/Human/scalable/apps"><metadata
   id="metadata2851"><rdf:RDF><cc:Work
       rdf:about=""><dc:format>image/svg+xml</dc:format><dc:type
         rdf:resource="http://purl.org/dc/dcmitype/StillImage" /></cc:Work></rdf:RDF></metadata><defs
   id="defs2849"><linearGradient
     inkscape:collect="always"
     xlink:href="#XMLID_8_"
     id="linearGradient2869"
     gradientUnits="userSpaceOnUse"
     x1="63.641102"
     y1="5.3701"
     x2="65.489899"
     y2="130.4382"
     gradientTransform="matrix(2,0,0,2,-64,-64)" /><linearGradient
     inkscape:collect="always"
     xlink:href="#XMLID_9_"
     id="linearGradient2871"
     gradientUnits="userSpaceOnUse"
     x1="58.3022"
     y1="77.5"
     x2="87.860397"
     y2="77.5"
     gradientTransform="matrix(2,0,0,2,-64,-64)" /><linearGradient
     inkscape:collect="always"
     xlink:href="#XMLID_10_"
     id="linearGradient2873"
     gradientUnits="userSpaceOnUse"
     x1="58.619598"
     y1="105.5"
     x2="84.840599"
     y2="105.5"
     gradientTransform="matrix(2,0,0,2,-64,-64)" /><linearGradient
     inkscape:collect="always"
     xlink:href="#XMLID_11_"
     id="linearGradient2875"
     gradientUnits="userSpaceOnUse"
     x1="61.433601"
     y1="49.616199"
     x2="86.570297"
     y2="48.661598"
     gradientTransform="matrix(2,0,0,2,-64,-64)" /><linearGradient
     inkscape:collect="always"
     xlink:href="#XMLID_12_"
     id="linearGradient2877"
     gradientUnits="userSpaceOnUse"
     x1="61.667"
     y1="21.5"
     x2="85.167"
     y2="21.5"
     gradientTransform="matrix(2,0,0,2,-64,-64)" /><linearGradient
     inkscape:collect="always"
     xlink:href="#XMLID_13_"
     id="linearGradient2879"
     gradientUnits="userSpaceOnUse"
     x1="32.391602"
     y1="50.274399"
     x2="65.059502"
     y2="48.774399"
     gradientTransform="matrix(2,0,0,2,-64,-64)" /><linearGradient
     inkscape:collect="always"
     xlink:href="#XMLID_14_"
     id="linearGradient2881"
     gradientUnits="userSpaceOnUse"
     x1="42.834"
     y1="21.5"
     x2="70.167"
     y2="21.5"
     gradientTransform="matrix(2,0,0,2,-64,-64)" /></defs><sodipodi:namedview
   inkscape:window-height="693"
   inkscape:window-width="1024"
   inkscape:pageshadow="2"
   inkscape:pageopacity="0.0"
   guidetolerance="10.0"
   gridtolerance="10.0"
   objecttolerance="10.0"
   borderopacity="1.0"
   bordercolor="#666666"
   pagecolor="#ffffff"
   id="base"
   width="64px"
   inkscape:zoom="3.1796875"
   inkscape:cx="64"
   inkscape:cy="64"
   inkscape:window-x="0"
   inkscape:window-y="25"
   inkscape:current-layer="svg2751" />
	
	
	<linearGradient
   id="XMLID_8_"
   gradientUnits="userSpaceOnUse"
   x1="63.641102"
   y1="5.3701"
   x2="65.489899"
   y2="130.4382">
		<stop
   offset="0"
   style="stop-color:#A8A8A8"
   id="stop2758" />
		<stop
   offset="0.9944"
   style="stop-color:#696969"
   id="stop2760" />
	</linearGradient>
	
	<linearGradient
   id="XMLID_9_"
   gradientUnits="userSpaceOnUse"
   x1="58.3022"
   y1="77.5"
   x2="87.860397"
   y2="77.5">
		<stop
   offset="0"
   style="stop-color:#77DC24"
   id="stop2765" />
		<stop
   offset="0.2874"
   style="stop-color:#79DD26"
   id="stop2767" />
		<stop
   offset="0.4496"
   style="stop-color:#81DF2F"
   id="stop2769" />
		<stop
   offset="0.5803"
   style="stop-color:#8EE33C"
   id="stop2771" />
		<stop
   offset="0.6798"
   style="stop-color:#9EE84D"
   id="stop2773" />
		<stop
   offset="0.9944"
   style="stop-color:#77DC24"
   id="stop2775" />
	</linearGradient>
	
	<linearGradient
   id="XMLID_10_"
   gradientUnits="userSpaceOnUse"
   x1="58.619598"
   y1="105.5"
   x2="84.840599"
   y2="105.5">
		<stop
   offset="0"
   style="stop-color:#A7DE79"
   id="stop2780" />
		<stop
   offset="0.7697"
   style="stop-color:#C3E9A0"
   id="stop2782" />
		<stop
   offset="0.9944"
   style="stop-color:#B3EA85"
   id="stop2784" />
	</linearGradient>
	
	<linearGradient
   id="XMLID_11_"
   gradientUnits="userSpaceOnUse"
   x1="61.433601"
   y1="49.616199"
   x2="86.570297"
   y2="48.661598">
		<stop
   offset="0"
   style="stop-color:#6AD419"
   id="stop2789" />
		<stop
   offset="0.2165"
   style="stop-color:#6DD51B"
   id="stop2791" />
		<stop
   offset="0.3866"
   style="stop-color:#77D823"
   id="stop2793" />
		<stop
   offset="0.5403"
   style="stop-color:#88DE30"
   id="stop2795" />
		<stop
   offset="0.6844"
   style="stop-color:#9FE643"
   id="stop2797" />
		<stop
   offset="0.6854"
   style="stop-color:#9FE643"
   id="stop2799" />
		<stop
   offset="0.9944"
   style="stop-color:#5FC90C"
   id="stop2801" />
	</linearGradient>
	
	
	<linearGradient
   id="XMLID_12_"
   gradientUnits="userSpaceOnUse"
   x1="61.667"
   y1="21.5"
   x2="85.167"
   y2="21.5">
		<stop
   offset="0"
   style="stop-color:#CFCECE"
   id="stop2808" />
		<stop
   offset="0.2893"
   style="stop-color:#D2D1D1"
   id="stop2810" />
		<stop
   offset="0.5163"
   style="stop-color:#DBDBDB"
   id="stop2812" />
		<stop
   offset="0.6854"
   style="stop-color:#E8E8E8"
   id="stop2814" />
		<stop
   offset="0.9944"
   style="stop-color:#CFCFCF"
   id="stop2816" />
	</linearGradient>
	
	
	
	<linearGradient
   id="XMLID_13_"
   gradientUnits="userSpaceOnUse"
   x1="32.391602"
   y1="50.274399"
   x2="65.059502"
   y2="48.774399">
		<stop
   offset="0.0112"
   style="stop-color:#7CCC3B"
   id="stop2825" />
		<stop
   offset="0.9944"
   style="stop-color:#91DE55"
   id="stop2827" />
	</linearGradient>
	
	<linearGradient
   id="XMLID_14_"
   gradientUnits="userSpaceOnUse"
   x1="42.834"
   y1="21.5"
   x2="70.167"
   y2="21.5">
		<stop
   offset="0"
   style="stop-color:#F0F0EF"
   id="stop2832" />
		<stop
   offset="0.5528"
   style="stop-color:#E7E7E6"
   id="stop2834" />
		<stop
   offset="0.9944"
   style="stop-color:#DCDCDC"
   id="stop2836" />
	</linearGradient>
	
	
	
	
	
<path
   d="M 28,-48 C 24.692,-48 22,-45.308 22,-42 L 22,172 C 22,175.308 24.692,178 28,178 L 102,178 C 105.308,178 108,175.308 108,172 L 108,-42 C 108,-45.308 105.308,-48 102,-48 L 28,-48 z "
   id="path2753"
   style="opacity:0.2" /><path
   d="M 28,-46 C 24.692,-46 22,-43.308 22,-40 L 22,174 C 22,177.308 24.692,180 28,180 L 102,180 C 105.308,180 108,177.308 108,174 L 108,-40 C 108,-43.308 105.308,-46 102,-46 L 28,-46 z "
   id="path2755"
   style="opacity:0.2" /><path
   d="M 28,-50 C 24.692,-50 22,-47.308 22,-44 L 22,170 C 22,173.308 24.692,176 28,176 L 102,176 C 105.308,176 108,173.308 108,170 L 108,-44 C 108,-47.308 105.308,-50 102,-50 L 28,-50 z "
   id="path2762"
   style="fill:url(#linearGradient2869)" /><rect
   x="24"
   y="64"
   width="82"
   height="54"
   id="rect2777"
   style="fill:url(#linearGradient2871)" /><path
   d="M 24,170 C 24,172.2 25.8,174 28,174 L 102,174 C 104.2,174 106,172.2 106,170 L 106,120 L 24,120 L 24,170 z "
   id="path2786"
   style="fill:url(#linearGradient2873)" /><rect
   x="24"
   y="8"
   width="82"
   height="54"
   id="rect2803"
   style="fill:url(#linearGradient2875)" /><path
   d="M 102,172 L 28,172 C 25.8,172 24,170.2 24,168 L 24,170 C 24,172.2 25.8,174 28,174 L 102,174 C 104.2,174 106,172.2 106,170 L 106,168 C 106,170.2 104.2,172 102,172 z "
   id="path2805"
   style="fill:#c2f298" /><path
   d="M 102,-48 L 28,-48 C 25.8,-48 24,-46.2 24,-44 L 24,6 L 106,6 L 106,-44 C 106,-46.2 104.2,-48 102,-48 z "
   id="path2818"
   style="fill:url(#linearGradient2877)" /><path
   d="M 44.57,64 L 24,64 L 24,118 L 33.66,118 C 36.95,100.924 40.758,81.772 44.57,64 z "
   id="path2820"
   style="fill:#94e353" /><path
   d="M 24,120 L 24,170 C 24,170 27.888,148.052 33.276,120 L 24,120 z "
   id="path2822"
   style="fill:#b7eb8c" /><path
   d="M 55,20.002 C 56.164,15.816 57.34,11.814 58.516,8 L 24,8 L 24,62 L 45,62 C 48.482,45.85 51.95,30.966 55,20.002 z "
   id="path2829"
   style="fill:url(#linearGradient2879)" /><path
   d="M 81,-48 L 28,-48 C 25.8,-48 24,-46.2 24,-44 L 24,6 L 59.142,6 C 70.204,-29.288 81,-48 81,-48 z "
   id="path2838"
   style="fill:url(#linearGradient2881)" /><path
   d="M 102,-48 L 28,-48 C 25.8,-48 24,-46.2 24,-44 L 24,-42 C 24,-44.2 25.8,-46 28,-46 L 102,-46 C 104.2,-46 106,-44.2 106,-42 L 106,-44 C 106,-46.2 104.2,-48 102,-48 z "
   id="path2840"
   style="fill:#f5f5f5" /><rect
   x="24"
   y="8"
   width="82"
   height="2"
   id="rect2842"
   style="fill:#9be65c" /><rect
   x="24"
   y="64"
   width="82"
   height="2"
   id="rect2844"
   style="fill:#9eeb5e" /><rect
   x="24"
   y="120"
   width="82"
   height="2"
   id="rect2846"
   style="fill:#bcf780" /></svg>