<?xml version="1.0" encoding="utf-8"?>
<!DOCTYPE svg PUBLIC "-//W3C//DTD SVG 1.1//EN" "http://www.w3.org/Graphics/SVG/1.1/DTD/svg11.dtd" [
	<!ENTITY ns_svg "http://www.w3.org/2000/svg">
	<!ENTITY ns_xlink "http://www.w3.org/1999/xlink">
]>
<svg  version="1.1" id="Layer_1" xmlns="&ns_svg;" xmlns:xlink="&ns_xlink;" width="128" height="128" viewBox="0 0 128 128"
	 overflow="visible" enable-background="new 0 0 128 128" xml:space="preserve">
	<path opacity="0.2" enable-background="new    " d="M83.128,8.611c-0.265,0.188-0.423,0.493-0.423,0.817v18.523
		c0,0.371,0.205,0.711,0.533,0.885C97.096,36.149,105.705,50.391,105.705,66c0,23.159-18.842,42-42.004,42
		c-23.162,0-42.002-18.841-42.002-42c0-15.609,8.609-29.851,22.467-37.164c0.328-0.174,0.533-0.514,0.533-0.885V9.428
		c0-0.324-0.158-0.629-0.423-0.816c-0.265-0.188-0.604-0.234-0.911-0.126C19.042,17.085,2.699,40.198,2.699,66
		c0,33.636,27.364,61,61.002,61c33.641,0,61.004-27.364,61.004-61c0-25.802-16.343-48.915-40.666-57.515
		C83.732,8.377,83.393,8.424,83.128,8.611z"/>
	<path opacity="0.2" enable-background="new    " d="M43.032,7.543C18.309,16.283,1.699,39.775,1.699,66
		c0,34.188,27.813,62,62.002,62c34.191,0,62.004-27.813,62.004-62c0-26.225-16.609-49.717-41.333-58.457
		c-0.61-0.217-1.292-0.123-1.821,0.252l0,0c-0.529,0.374-0.846,0.984-0.846,1.633v18.523c0,0.743,0.408,1.42,1.064,1.769
		c13.531,7.14,21.936,21.042,21.936,36.28c0,22.607-18.393,41-41.004,41c-22.609,0-41.002-18.393-41.002-41
		c0-15.238,8.404-29.14,21.934-36.279c0.658-0.35,1.066-1.026,1.066-1.77V9.428c0-0.647-0.316-1.259-0.846-1.633
		C44.325,7.421,43.644,7.326,43.032,7.543z"/>
	
		<linearGradient id="XMLID_38_" gradientUnits="userSpaceOnUse" x1="66.3691" y1="-7.8506" x2="63.0356" y2="130.815" gradientTransform="matrix(1 0 0 -1 -0.9624 127.9346)">
		<stop  offset="0" style="stop-color:#295AA6"/>
		<stop  offset="0.3319" style="stop-color:#27569F"/>
		<stop  offset="0.8192" style="stop-color:#224C8B"/>
		<stop  offset="1" style="stop-color:#1F4782"/>
	</linearGradient>
	<path fill="url(#XMLID_38_)" d="M83.128,7.611c-0.265,0.188-0.423,0.493-0.423,0.817v18.523c0,0.371,0.205,0.711,0.533,0.885
		C97.096,35.149,105.705,49.391,105.705,65c0,23.159-18.842,42-42.004,42c-23.162,0-42.002-18.841-42.002-42
		c0-15.609,8.609-29.851,22.467-37.164c0.328-0.174,0.533-0.514,0.533-0.885V8.428c0-0.324-0.158-0.629-0.423-0.816
		c-0.265-0.188-0.604-0.234-0.911-0.126C19.042,16.085,2.699,39.198,2.699,65c0,33.636,27.364,61,61.002,61
		c33.641,0,61.004-27.364,61.004-61c0-25.802-16.343-48.915-40.666-57.515C83.732,7.377,83.393,7.424,83.128,7.611z"/>
	
		<linearGradient id="XMLID_39_" gradientUnits="userSpaceOnUse" x1="70.084" y1="6.2559" x2="62.5839" y2="84.7562" gradientTransform="matrix(1 0 0 -1 -0.9624 127.9346)">
		<stop  offset="0" style="stop-color:#3371CF"/>
		<stop  offset="0.5072" style="stop-color:#2A5FAE"/>
		<stop  offset="1" style="stop-color:#214B8A"/>
	</linearGradient>
	<path fill="url(#XMLID_39_)" d="M83.705,8.428v18.523c13.662,7.211,23,21.557,23,38.049c0,23.71-19.289,43-43.004,43
		c-23.712,0-43.002-19.29-43.002-43c0-16.492,9.338-30.838,23-38.049V8.428c-23.301,8.238-40,30.45-40,56.572
		c0,33.137,26.863,60,60.002,60c33.141,0,60.004-26.863,60.004-60C123.705,38.878,107.006,16.666,83.705,8.428z"/>
	<path fill="#5081CC" d="M63.701,124C30.729,124,3.982,97.406,3.712,64.5C3.71,64.668,3.699,64.832,3.699,65
		c0,33.137,26.863,60,60.002,60c33.141,0,60.004-26.863,60.004-60c0-0.168-0.012-0.332-0.014-0.5
		C123.422,97.406,96.676,124,63.701,124z"/>
	
		<linearGradient id="XMLID_40_" gradientUnits="userSpaceOnUse" x1="17.4536" y1="101.3174" x2="124.1777" y2="27.3354" gradientTransform="matrix(1 0 0 -1 -0.9624 127.9346)">
		<stop  offset="0" style="stop-color:#728FBA"/>
		<stop  offset="1" style="stop-color:#3C6199"/>
	</linearGradient>
	<path fill="url(#XMLID_40_)" d="M122.184,51.562c-0.1-0.43-0.199-0.859-0.308-1.286c-0.096-0.379-0.196-0.756-0.299-1.132
		c-0.112-0.411-0.229-0.821-0.351-1.229c-0.113-0.382-0.229-0.763-0.351-1.142c-0.125-0.395-0.258-0.786-0.392-1.177
		c-0.131-0.384-0.262-0.767-0.4-1.146c-0.137-0.375-0.281-0.746-0.425-1.117c-0.149-0.389-0.3-0.777-0.457-1.161
		c-0.144-0.348-0.297-0.691-0.446-1.036c-0.173-0.398-0.343-0.799-0.523-1.193c-0.133-0.288-0.275-0.571-0.412-0.857
		c-0.79-1.646-1.65-3.25-2.582-4.808c-0.104-0.175-0.204-0.354-0.311-0.527c-0.285-0.466-0.582-0.923-0.88-1.38
		c-0.133-0.204-0.262-0.41-0.396-0.613c-0.299-0.447-0.607-0.887-0.918-1.326c-0.143-0.201-0.283-0.404-0.428-0.604
		c-0.318-0.438-0.646-0.871-0.975-1.3c-0.145-0.188-0.288-0.377-0.436-0.563c-0.344-0.437-0.692-0.867-1.047-1.294
		c-0.139-0.165-0.276-0.33-0.416-0.494c-0.375-0.439-0.754-0.875-1.14-1.304c-0.12-0.134-0.243-0.265-0.364-0.397
		c-0.414-0.452-0.832-0.9-1.262-1.339c-0.081-0.084-0.164-0.165-0.246-0.248c-4.182-4.238-8.986-7.859-14.27-10.71
		c-0.023-0.013-0.047-0.026-0.071-0.039c-0.649-0.35-1.308-0.688-1.972-1.014c-0.025-0.012-0.051-0.024-0.076-0.037
		c-0.674-0.329-1.354-0.647-2.041-0.952c0,0,0,0-0.001,0c-1.399-0.625-2.83-1.195-4.286-1.709v18.523
		c9.35,4.935,16.669,13.213,20.361,23.23c10.738,0.648,18.158,2.067,18.273,2.09C122.289,52.034,122.237,51.798,122.184,51.562z
		 M41.333,9.325c-0.605,0.243-1.207,0.495-1.802,0.758c-0.13,0.057-0.259,0.117-0.388,0.175c-1.927,0.866-3.8,1.83-5.613,2.887
		c-0.099,0.058-0.2,0.113-0.299,0.172c-0.544,0.321-1.081,0.653-1.613,0.991c-0.173,0.11-0.346,0.221-0.518,0.333
		c-0.52,0.337-1.036,0.679-1.544,1.031c-0.134,0.093-0.265,0.189-0.398,0.283c-1.615,1.139-3.17,2.356-4.663,3.646
		c-0.189,0.163-0.38,0.325-0.568,0.491c-0.415,0.368-0.823,0.742-1.228,1.121c-0.216,0.202-0.43,0.407-0.643,0.613
		c-0.39,0.376-0.779,0.754-1.16,1.141c-0.196,0.2-0.386,0.406-0.58,0.608c-0.683,0.715-1.347,1.446-1.995,2.193
		c-0.213,0.246-0.43,0.488-0.639,0.738c-0.308,0.367-0.605,0.742-0.904,1.117c-0.243,0.305-0.485,0.609-0.722,0.919
		c-0.281,0.366-0.557,0.735-0.83,1.107c-0.249,0.341-0.492,0.687-0.734,1.032c-0.249,0.356-0.5,0.711-0.742,1.073
		c-0.336,0.504-0.661,1.017-0.982,1.531c-0.277,0.444-0.547,0.895-0.814,1.347c-0.273,0.466-0.546,0.932-0.808,1.405
		c-0.188,0.339-0.367,0.682-0.548,1.024c-0.234,0.445-0.465,0.894-0.688,1.345c-0.168,0.34-0.335,0.681-0.498,1.023
		c-0.241,0.511-0.471,1.026-0.698,1.544c-0.125,0.287-0.257,0.57-0.378,0.86c-0.329,0.785-0.643,1.578-0.938,2.38
		c-0.093,0.252-0.176,0.508-0.266,0.762c-0.209,0.591-0.413,1.186-0.604,1.785c-0.1,0.321-0.195,0.64-0.291,0.96
		c-0.17,0.565-0.332,1.135-0.485,1.708c-0.083,0.308-0.167,0.615-0.245,0.926c-0.175,0.699-0.337,1.404-0.488,2.113
		c-0.038,0.177-0.081,0.351-0.117,0.527c-0.179,0.881-0.336,1.771-0.476,2.665c-0.041,0.261-0.073,0.522-0.11,0.784
		c-0.094,0.655-0.179,1.313-0.251,1.975C4.03,58.733,4,59.051,3.97,59.368c-0.06,0.647-0.109,1.299-0.148,1.952
		c-0.018,0.289-0.039,0.576-0.052,0.866C3.727,63.12,3.699,64.057,3.699,65c0,8.284,1.679,16.176,4.715,23.354
		c0,0.002,4.107-6.074,13.408-13.625c-0.726-3.127-1.123-6.381-1.123-9.729c0-16.492,9.338-30.838,23-38.049V8.428
		c-0.634,0.225-1.261,0.463-1.885,0.708C41.654,9.198,41.493,9.261,41.333,9.325z"/>
	
		<linearGradient id="XMLID_41_" gradientUnits="userSpaceOnUse" x1="4.6631" y1="90.8906" x2="124.6597" y2="90.8906" gradientTransform="matrix(1 0 0 -1 -0.9624 127.9346)">
		<stop  offset="0" style="stop-color:#90A5C4"/>
		<stop  offset="0.4719" style="stop-color:#D0E0FB"/>
		<stop  offset="0.8119" style="stop-color:#ACBAD5"/>
		<stop  offset="1" style="stop-color:#9DAAC5"/>
	</linearGradient>
	<path fill="url(#XMLID_41_)" d="M4.018,58.891c-0.005,0.053-0.011,0.106-0.016,0.16c-0.091,0.908-0.159,1.824-0.208,2.745
		c-0.006,0.106-0.014,0.211-0.019,0.317c-0.048,0.974-0.074,1.952-0.074,2.938c0,0.17,0.011,0.338,0.013,0.508
		c0.23-25.886,16.849-47.85,39.985-56.032V8.528C22.268,16.104,6.424,35.5,4.018,58.891z M123.629,62.113
		c-0.004-0.106-0.013-0.211-0.02-0.317c-0.049-0.921-0.117-1.837-0.207-2.745c-0.006-0.054-0.012-0.107-0.018-0.16
		C120.98,35.5,105.137,16.104,83.705,8.528v0.999c23.137,8.182,39.756,30.146,39.986,56.032c0-0.17,0.012-0.339,0.012-0.509
		C123.703,64.065,123.678,63.087,123.629,62.113z"/>
	<path opacity="0.2" enable-background="new    " d="M55.699,1c-2.206,0-4,1.794-4,4v43c0,2.206,1.794,4,4,4h16.006
		c2.205,0,4-1.794,4-4V5c0-2.206-1.795-4-4-4H55.699z"/>
	<path opacity="0.2" enable-background="new    " d="M55.699,2c-1.654,0-3,1.346-3,3v43c0,1.654,1.346,3,3,3h16.006
		c1.654,0,3-1.346,3-3V5c0-1.654-1.346-3-3-3H55.699z"/>
	
		<linearGradient id="XMLID_42_" gradientUnits="userSpaceOnUse" x1="70.1055" y1="65.8984" x2="58.3585" y2="144.8388" gradientTransform="matrix(1 0 0 -1 -0.9624 127.9346)">
		<stop  offset="0" style="stop-color:#295AA6"/>
		<stop  offset="0.3319" style="stop-color:#27569F"/>
		<stop  offset="0.8192" style="stop-color:#224C8B"/>
		<stop  offset="1" style="stop-color:#1F4782"/>
	</linearGradient>
	<path fill="url(#XMLID_42_)" d="M55.699,1c-1.654,0-3,1.346-3,3v43c0,1.654,1.346,3,3,3h16.006c1.654,0,3-1.346,3-3V4
		c0-1.654-1.346-3-3-3H55.699z"/>
	
		<linearGradient id="XMLID_43_" gradientUnits="userSpaceOnUse" x1="15.9951" y1="108.5723" x2="144.7145" y2="92.3395" gradientTransform="matrix(1 0 0 -1 -0.9624 127.9346)">
		<stop  offset="0" style="stop-color:#728FBA"/>
		<stop  offset="1" style="stop-color:#3C6199"/>
	</linearGradient>
	<path fill="url(#XMLID_43_)" d="M73.705,47c0,1.1-0.9,2-2,2H55.699c-1.1,0-2-0.9-2-2V4c0-1.1,0.9-2,2-2h16.006c1.1,0,2,0.9,2,2V47z
		"/>
	
		<linearGradient id="XMLID_44_" gradientUnits="userSpaceOnUse" x1="10.9971" y1="123.9756" x2="146.2321" y2="125.112" gradientTransform="matrix(1 0 0 -1 -0.9624 127.9346)">
		<stop  offset="0" style="stop-color:#90A5C4"/>
		<stop  offset="0.4719" style="stop-color:#B7D0FB"/>
		<stop  offset="0.8119" style="stop-color:#A5B5D5"/>
		<stop  offset="1" style="stop-color:#9DAAC5"/>
	</linearGradient>
	<path fill="url(#XMLID_44_)" d="M71.705,2H55.699c-1.1,0-2,0.9-2,2v1c0-1.1,0.9-2,2-2h16.006c1.1,0,2,0.9,2,2V4
		C73.705,2.9,72.805,2,71.705,2z"/>
</svg>
