<?xml version="1.0" encoding="utf-8"?>
<!DOCTYPE svg PUBLIC "-//W3C//DTD SVG 1.1//EN" "http://www.w3.org/Graphics/SVG/1.1/DTD/svg11.dtd" [
	<!ENTITY ns_svg "http://www.w3.org/2000/svg">
	<!ENTITY ns_xlink "http://www.w3.org/1999/xlink">
]>
<svg  version="1.1" xmlns="&ns_svg;" xmlns:xlink="&ns_xlink;" width="128.012" height="128"
	 viewBox="0 0 128.012 128" overflow="visible" enable-background="new 0 0 128.012 128" xml:space="preserve">
	<path opacity="0.2" d="M96.201,20.082c-0.366,0.158-0.604,0.519-0.604,0.918c0,0,0,15.216,0,17c-1.927,0-52,0-52,0
		c-0.553,0-1,0.447-1,1v17.9c0,0.553,0.447,1,1,1c0,0,50.073,0,52,0c0,1.814,0,17,0,17c0,0.403,0.243,0.768,0.615,0.923
		c0.373,0.155,0.803,0.071,1.089-0.213l29.414-26.201c0.192-0.191,0.3-0.452,0.296-0.724c-0.004-0.271-0.117-0.528-0.314-0.714
		L97.283,20.272C96.993,19.998,96.567,19.924,96.201,20.082z"/>
	<path opacity="0.2" d="M30.729,52.272L1.314,79.972C1.117,80.157,1.004,80.415,1,80.686c-0.004,0.271,0.104,0.532,0.296,0.724
		L30.71,107.61c0.286,0.284,0.716,0.368,1.089,0.213c0.372-0.155,0.615-0.52,0.615-0.923c0,0,0-15.186,0-17c1.927,0,52,0,52,0
		c0.553,0,1-0.447,1-1V71c0-0.553-0.447-1-1-1c0,0-50.073,0-52,0c0-1.784,0-17,0-17c0-0.399-0.237-0.76-0.604-0.918
		S31.02,51.998,30.729,52.272z"/>
	<path opacity="0.2" d="M95.805,19.164L95.805,19.164c-0.733,0.316-1.207,1.037-1.207,1.836c0,0,0,14.229,0,16c-1.925,0-51,0-51,0
		c-1.103,0-2,0.897-2,2v17.9c0,1.103,0.897,2,2,2c0,0,49.075,0,51,0c0,1.805,0,16,0,16c0,0.81,0.482,1.534,1.23,1.846
		c0.75,0.313,1.605,0.145,2.18-0.428l29.412-26.199c0.384-0.382,0.6-0.909,0.592-1.448c-0.008-0.538-0.237-1.059-0.629-1.428
		L97.969,19.545C97.39,18.996,96.539,18.847,95.805,19.164z"/>
	<linearGradient id="XMLID_7_" gradientUnits="userSpaceOnUse" x1="89.2207" y1="70.1709" x2="77.3565" y2="20.8161">
		<stop  offset="0" style="stop-color:#489606"/>
		<stop  offset="1" style="stop-color:#51A706"/>
	</linearGradient>
	<path fill="url(#XMLID_7_)" d="M96.201,19.082c-0.366,0.158-0.604,0.519-0.604,0.918c0,0,0,15.216,0,17c-1.927,0-52,0-52,0
		c-0.553,0-1,0.447-1,1v17.9c0,0.553,0.447,1,1,1c0,0,50.073,0,52,0c0,1.814,0,17,0,17c0,0.403,0.243,0.768,0.615,0.923
		c0.373,0.155,0.803,0.071,1.089-0.213l29.414-26.201c0.192-0.191,0.3-0.452,0.296-0.724c-0.004-0.271-0.117-0.528-0.314-0.714
		L97.283,19.272C96.993,18.998,96.567,18.924,96.201,19.082z"/>
	
		<linearGradient id="XMLID_8_" gradientUnits="userSpaceOnUse" x1="595.1641" y1="44.3291" x2="579.538" y2="75.266" gradientTransform="matrix(-1 0 0 1 676.1953 0)">
		<stop  offset="0" style="stop-color:#59A907"/>
		<stop  offset="1" style="stop-color:#6EC308"/>
	</linearGradient>
	<polygon fill="url(#XMLID_8_)" points="96.598,38 96.598,20 126.012,47.699 96.598,73.9 96.598,55.9 43.598,55.9 43.598,38 	"/>
	<path fill="#70C709" d="M96.598,54.9h-53v1h53V54.9z M125.495,47.213L96.598,72.9v1l29.414-26.201L125.495,47.213z"/>
	<linearGradient id="XMLID_9_" gradientUnits="userSpaceOnUse" x1="43.5977" y1="37.9502" x2="122.6445" y2="37.9502">
		<stop  offset="0" style="stop-color:#9BCA6A"/>
		<stop  offset="1" style="stop-color:#87C349"/>
	</linearGradient>
	<path fill="url(#XMLID_9_)" d="M92.738,47.469c14.219-2.338,29.906-2.94,29.906-2.94L96.598,20v18h-53v17.9h17.408
		C61.006,55.9,77.343,50,92.738,47.469z"/>
	<path opacity="0.2" d="M30.042,51.545C30.041,51.546,0.629,79.244,0.629,79.244C0.237,79.612,0.008,80.133,0,80.671
		c0,0.01,0,0.019,0,0.028c0,0.528,0.214,1.044,0.591,1.419c0.001,0.001,29.415,26.202,29.415,26.202
		c0.574,0.57,1.429,0.737,2.177,0.426c0.749-0.312,1.231-1.036,1.231-1.846c0,0,0-14.195,0-16c1.925,0,51,0,51,0
		c1.103,0,2-0.897,2-2V71c0-1.103-0.897-2-2-2c0,0-49.075,0-51,0c0-1.771,0-16,0-16c0-0.799-0.474-1.52-1.207-1.836
		C31.474,50.847,30.624,50.996,30.042,51.545z"/>
	<linearGradient id="XMLID_10_" gradientUnits="userSpaceOnUse" x1="1" y1="78.9502" x2="85.4141" y2="78.9502">
		<stop  offset="0" style="stop-color:#489606"/>
		<stop  offset="1" style="stop-color:#51A706"/>
	</linearGradient>
	<path fill="url(#XMLID_10_)" d="M30.729,51.272L1.314,78.972C1.117,79.157,1.004,79.415,1,79.686
		c-0.004,0.271,0.104,0.532,0.296,0.724L30.71,106.61c0.286,0.284,0.716,0.368,1.089,0.213c0.372-0.155,0.615-0.52,0.615-0.923
		c0,0,0-15.186,0-17c1.927,0,52,0,52,0c0.553,0,1-0.447,1-1V70c0-0.553-0.447-1-1-1c0,0-50.073,0-52,0c0-1.784,0-17,0-17
		c0-0.399-0.237-0.76-0.604-0.918S31.02,50.998,30.729,51.272z"/>
	<linearGradient id="XMLID_11_" gradientUnits="userSpaceOnUse" x1="8.1543" y1="64.207" x2="80.3187" y2="98.6413">
		<stop  offset="0" style="stop-color:#59A907"/>
		<stop  offset="1" style="stop-color:#6EC308"/>
	</linearGradient>
	<polygon fill="url(#XMLID_11_)" points="31.414,70 31.414,52 2,79.699 31.414,105.9 31.414,87.9 84.414,87.9 84.414,70 	"/>
	<path fill="#70C709" d="M31.414,52l-0.797,0.75V69.1h0.797V52z M83.617,70v17h-53v18.199l0.797,0.701v-18h53V70H83.617z"/>
	<linearGradient id="XMLID_12_" gradientUnits="userSpaceOnUse" x1="15.6523" y1="59.7617" x2="19.4666" y2="76.9257">
		<stop  offset="0" style="stop-color:#9BCA6A"/>
		<stop  offset="1" style="stop-color:#87C349"/>
	</linearGradient>
	<path fill="url(#XMLID_12_)" d="M20.152,81.01c-6.127,5.718-7.876,7.86-7.876,7.86L2,79.699L31.414,52v18h4.596
		C36.01,70,27.843,73.833,20.152,81.01z"/>
</svg>
