<?xml version="1.0" encoding="utf-8"?>
<!DOCTYPE svg PUBLIC "-//W3C//DTD SVG 1.1//EN" "http://www.w3.org/Graphics/SVG/1.1/DTD/svg11.dtd" [
	<!ENTITY ns_svg "http://www.w3.org/2000/svg">
	<!ENTITY ns_xlink "http://www.w3.org/1999/xlink">
]>
<svg  version="1.1" xmlns="&ns_svg;" xmlns:xlink="&ns_xlink;" width="128" height="128" viewBox="0 0 128 128"
	 overflow="visible" enable-background="new 0 0 128 128" xml:space="preserve">
	<path opacity="0.2" d="M83.228,8.611c-0.265,0.188-0.423,0.492-0.423,0.816v18.523c0,0.371,0.205,0.711,0.533,0.885
		C97.195,36.149,105.805,50.391,105.805,66c0,23.159-18.842,42-42.006,42c-23.158,0-42-18.841-42-42
		c0-15.609,8.609-29.851,22.467-37.164c0.328-0.174,0.533-0.514,0.533-0.885V9.428c0-0.324-0.158-0.629-0.423-0.816
		s-0.604-0.234-0.911-0.126C19.142,17.085,2.799,40.198,2.799,66c0,33.636,27.364,61,61,61c33.642,0,61.006-27.364,61.006-61
		c0-25.802-16.343-48.915-40.666-57.515C83.832,8.377,83.492,8.424,83.228,8.611z"/>
	<path opacity="0.2" d="M43.132,7.543C18.409,16.283,1.799,39.775,1.799,66c0,34.187,27.813,62,62,62
		c34.193,0,62.006-27.813,62.006-62c0-26.225-16.61-49.717-41.333-58.457c-0.61-0.217-1.292-0.123-1.821,0.252l0,0
		c-0.529,0.374-0.846,0.984-0.846,1.633v18.523c0,0.743,0.408,1.42,1.064,1.769C96.4,36.86,104.805,50.762,104.805,66
		c0,22.607-18.393,41-41.006,41c-22.607,0-41-18.393-41-41c0-15.238,8.404-29.14,21.934-36.279c0.658-0.35,1.066-1.026,1.066-1.77
		V9.428c0-0.648-0.316-1.259-0.846-1.633C44.425,7.421,43.744,7.326,43.132,7.543z"/>
	<linearGradient id="XMLID_6_" gradientUnits="userSpaceOnUse" x1="66.7852" y1="136.1797" x2="60.7851" y2="-7.0716">
		<stop  offset="0" style="stop-color:#EF6401"/>
		<stop  offset="0.4791" style="stop-color:#EA5D04"/>
		<stop  offset="1" style="stop-color:#E04F0A"/>
	</linearGradient>
	<path fill="url(#XMLID_6_)" d="M83.228,7.611c-0.265,0.188-0.423,0.492-0.423,0.816v18.523c0,0.371,0.205,0.711,0.533,0.885
		C97.195,35.149,105.805,49.391,105.805,65c0,23.159-18.842,42-42.006,42c-23.158,0-42-18.841-42-42
		c0-15.609,8.609-29.851,22.467-37.164c0.328-0.174,0.533-0.514,0.533-0.885V8.428c0-0.324-0.158-0.629-0.423-0.816
		s-0.604-0.234-0.911-0.126C19.142,16.085,2.799,39.198,2.799,65c0,33.636,27.364,61,61,61c33.642,0,61.006-27.364,61.006-61
		c0-25.802-16.343-48.915-40.666-57.515C83.832,7.377,83.492,7.424,83.228,7.611z"/>
	<linearGradient id="XMLID_7_" gradientUnits="userSpaceOnUse" x1="63.7988" y1="124.5" x2="63.7988" y2="51.5">
		<stop  offset="0" style="stop-color:#FCB500"/>
		<stop  offset="0.4606" style="stop-color:#F99401"/>
		<stop  offset="1" style="stop-color:#F56803"/>
	</linearGradient>
	<path fill="url(#XMLID_7_)" d="M83.805,8.428v18.523c13.662,7.211,23,21.557,23,38.049c0,23.71-19.289,43-43.006,43
		c-23.711,0-43-19.29-43-43c0-16.492,9.338-30.838,23-38.049V8.428c-23.301,8.238-40,30.45-40,56.572c0,33.137,26.863,60,60,60
		c33.143,0,60.006-26.863,60.006-60C123.805,38.878,107.105,16.666,83.805,8.428z"/>
	<path fill="#FCBE1E" d="M63.799,124c-32.97,0-59.717-26.594-59.987-59.5c-0.001,0.168-0.013,0.332-0.013,0.5
		c0,33.137,26.863,60,60,60c33.143,0,60.006-26.863,60.006-60c0-0.168-0.012-0.332-0.013-0.5C123.521,97.406,96.774,124,63.799,124z
		"/>
	<linearGradient id="XMLID_8_" gradientUnits="userSpaceOnUse" x1="22.0308" y1="44.6582" x2="130.2798" y2="61.4081">
		<stop  offset="0" style="stop-color:#F8A265"/>
		<stop  offset="1" style="stop-color:#F69132"/>
	</linearGradient>
	<path fill="url(#XMLID_8_)" d="M122.283,51.562c-0.1-0.43-0.2-0.859-0.308-1.286c-0.096-0.379-0.196-0.756-0.299-1.132
		c-0.112-0.411-0.229-0.821-0.351-1.229c-0.113-0.382-0.229-0.763-0.35-1.142c-0.125-0.395-0.258-0.786-0.391-1.177
		c-0.131-0.384-0.263-0.767-0.401-1.146c-0.137-0.375-0.281-0.746-0.425-1.117c-0.15-0.389-0.299-0.777-0.457-1.161
		c-0.144-0.348-0.297-0.691-0.446-1.036c-0.173-0.398-0.343-0.799-0.524-1.193c-0.133-0.288-0.275-0.571-0.412-0.857
		c-0.79-1.646-1.65-3.25-2.582-4.808c-0.104-0.175-0.204-0.354-0.311-0.527c-0.285-0.466-0.582-0.923-0.879-1.38
		c-0.133-0.204-0.262-0.41-0.396-0.613c-0.299-0.447-0.607-0.887-0.917-1.326c-0.143-0.201-0.284-0.404-0.429-0.604
		c-0.318-0.438-0.645-0.871-0.974-1.3c-0.144-0.188-0.288-0.377-0.435-0.563c-0.344-0.437-0.693-0.867-1.048-1.294
		c-0.138-0.165-0.276-0.33-0.415-0.494c-0.375-0.439-0.754-0.875-1.14-1.304c-0.12-0.134-0.243-0.265-0.364-0.397
		c-0.414-0.452-0.833-0.9-1.262-1.339c-0.081-0.084-0.164-0.165-0.246-0.248c-4.182-4.238-8.986-7.859-14.269-10.71
		c-0.024-0.013-0.048-0.026-0.072-0.039c-0.649-0.35-1.308-0.688-1.971-1.014c-0.026-0.012-0.052-0.024-0.077-0.037
		c-0.673-0.329-1.354-0.647-2.041-0.952c0,0,0,0-0.001,0c-1.401-0.622-2.832-1.191-4.288-1.706v18.523
		c9.35,4.935,16.669,13.213,20.361,23.23c10.738,0.648,18.158,2.067,18.274,2.09C122.389,52.034,122.337,51.798,122.283,51.562z
		 M41.433,9.325c-0.605,0.243-1.206,0.495-1.802,0.758c-0.13,0.057-0.259,0.117-0.389,0.175c-1.926,0.866-3.799,1.83-5.612,2.887
		c-0.099,0.058-0.2,0.113-0.3,0.172c-0.543,0.321-1.08,0.653-1.613,0.991c-0.173,0.11-0.346,0.221-0.518,0.333
		c-0.52,0.337-1.036,0.679-1.545,1.031c-0.133,0.093-0.264,0.189-0.397,0.283c-1.615,1.139-3.17,2.356-4.663,3.646
		c-0.189,0.163-0.38,0.325-0.567,0.491c-0.415,0.368-0.823,0.742-1.228,1.121c-0.217,0.202-0.43,0.407-0.643,0.613
		c-0.391,0.376-0.779,0.754-1.16,1.141c-0.195,0.2-0.387,0.406-0.58,0.608c-0.682,0.715-1.347,1.446-1.994,2.193
		c-0.213,0.246-0.43,0.488-0.639,0.738c-0.308,0.367-0.605,0.742-0.904,1.117c-0.243,0.305-0.485,0.609-0.723,0.919
		c-0.28,0.366-0.557,0.735-0.829,1.107c-0.249,0.341-0.492,0.687-0.733,1.032c-0.25,0.356-0.501,0.711-0.742,1.073
		c-0.336,0.504-0.66,1.017-0.982,1.531c-0.277,0.444-0.547,0.895-0.813,1.347c-0.273,0.466-0.546,0.932-0.808,1.405
		c-0.188,0.339-0.367,0.682-0.548,1.024c-0.234,0.445-0.465,0.894-0.688,1.345c-0.168,0.34-0.336,0.681-0.498,1.023
		c-0.24,0.511-0.471,1.026-0.697,1.544c-0.125,0.287-0.257,0.57-0.378,0.86c-0.329,0.785-0.643,1.578-0.938,2.38
		c-0.093,0.252-0.176,0.508-0.266,0.762c-0.21,0.591-0.414,1.186-0.605,1.785C6.528,47.081,6.433,47.4,6.337,47.72
		c-0.17,0.565-0.331,1.135-0.485,1.708c-0.082,0.308-0.166,0.615-0.244,0.926c-0.176,0.699-0.337,1.404-0.488,2.113
		c-0.037,0.177-0.08,0.351-0.117,0.527c-0.179,0.881-0.336,1.771-0.476,2.665c-0.04,0.261-0.073,0.522-0.11,0.784
		c-0.094,0.655-0.178,1.313-0.25,1.975c-0.035,0.315-0.066,0.633-0.096,0.95c-0.061,0.647-0.109,1.299-0.148,1.952
		c-0.018,0.289-0.039,0.576-0.052,0.866C3.826,63.12,3.799,64.057,3.799,65c0,8.284,1.68,16.176,4.715,23.354
		c0,0.001,4.107-6.075,13.408-13.625c-0.727-3.129-1.123-6.383-1.123-9.729c0-16.492,9.338-30.838,23-38.049V8.428
		c-0.634,0.225-1.261,0.463-1.885,0.708C41.754,9.198,41.593,9.261,41.433,9.325z"/>
	<path fill="#FFBE8F" d="M4.118,58.891c-0.005,0.053-0.011,0.106-0.017,0.16c-0.09,0.908-0.158,1.824-0.208,2.745
		c-0.006,0.106-0.015,0.211-0.019,0.317c-0.049,0.974-0.074,1.952-0.074,2.938c0,0.17,0.011,0.338,0.012,0.508
		c0.23-25.886,16.851-47.85,39.986-56.031V8.528C22.368,16.104,6.523,35.5,4.118,58.891z M123.729,62.113
		c-0.004-0.106-0.013-0.211-0.019-0.317c-0.05-0.921-0.118-1.837-0.208-2.745c-0.006-0.054-0.012-0.107-0.017-0.16
		C121.08,35.5,105.235,16.104,83.805,8.528v0.999c23.136,8.182,39.756,30.146,39.986,56.031c0.001-0.17,0.012-0.338,0.012-0.508
		C123.803,64.065,123.777,63.087,123.729,62.113z"/>
	<path opacity="0.2" d="M55.799,1c-2.205,0-4,1.794-4,4v43c0,2.206,1.795,4,4,4h16.006c2.205,0,4-1.794,4-4V5c0-2.206-1.795-4-4-4
		H55.799z"/>
	<path opacity="0.2" d="M55.799,2c-1.654,0-3,1.346-3,3v43c0,1.654,1.346,3,3,3h16.006c1.654,0,3-1.346,3-3V5c0-1.654-1.346-3-3-3
		H55.799z"/>
	<linearGradient id="XMLID_9_" gradientUnits="userSpaceOnUse" x1="68.4375" y1="136.1094" x2="62.4375" y2="-7.1408">
		<stop  offset="0" style="stop-color:#EF6401"/>
		<stop  offset="0.4791" style="stop-color:#EA5D04"/>
		<stop  offset="1" style="stop-color:#E04F0A"/>
	</linearGradient>
	<path fill="url(#XMLID_9_)" d="M55.799,1c-1.654,0-3,1.346-3,3v43c0,1.654,1.346,3,3,3h16.006c1.654,0,3-1.346,3-3V4
		c0-1.654-1.346-3-3-3H55.799z"/>
	<linearGradient id="XMLID_10_" gradientUnits="userSpaceOnUse" x1="57.71" y1="3.7095" x2="81.4595" y2="88.7079">
		<stop  offset="0" style="stop-color:#F8A265"/>
		<stop  offset="1" style="stop-color:#F69132"/>
	</linearGradient>
	<path fill="url(#XMLID_10_)" d="M73.805,47c0,1.1-0.9,2-2,2H55.799c-1.1,0-2-0.9-2-2V4c0-1.1,0.9-2,2-2h16.006c1.1,0,2,0.9,2,2V47z
		"/>
	<path fill="#FFBE8F" d="M71.805,2H55.799c-1.1,0-2,0.9-2,2v1c0-1.1,0.9-2,2-2h16.006c1.1,0,2,0.9,2,2V4
		C73.805,2.9,72.904,2,71.805,2z"/>
</svg>
