<?xml version="1.0" encoding="UTF-8" standalone="no"?>
<svg
   xmlns:dc="http://purl.org/dc/elements/1.1/"
   xmlns:cc="http://web.resource.org/cc/"
   xmlns:rdf="http://www.w3.org/1999/02/22-rdf-syntax-ns#"
   xmlns:svg="http://www.w3.org/2000/svg"
   xmlns="http://www.w3.org/2000/svg"
   xmlns:xlink="http://www.w3.org/1999/xlink"
   xmlns:sodipodi="http://sodipodi.sourceforge.net/DTD/sodipodi-0.dtd"
   xmlns:inkscape="http://www.inkscape.org/namespaces/inkscape"
   version="1.0"
   width="64"
   height="128"
   viewBox="0 0 128 128"
   overflow="visible"
   enable-background="new 0 0 128 128"
   xml:space="preserve"
   id="svg3062"
   sodipodi:version="0.32"
   inkscape:version="0.44"
   sodipodi:docname="gnome-netstatus-75-100.svg"
   sodipodi:docbase="/usr/share/icons/Human/scalable/apps"><metadata
   id="metadata3164"><rdf:RDF><cc:Work
       rdf:about=""><dc:format>image/svg+xml</dc:format><dc:type
         rdf:resource="http://purl.org/dc/dcmitype/StillImage" /></cc:Work></rdf:RDF></metadata><defs
   id="defs3162"><linearGradient
     inkscape:collect="always"
     xlink:href="#XMLID_8_"
     id="linearGradient3212"
     gradientUnits="userSpaceOnUse"
     x1="63.640598"
     y1="5.3691001"
     x2="65.489403"
     y2="130.43719"
     gradientTransform="matrix(2,0,0,2,-64,-64)" /><linearGradient
     inkscape:collect="always"
     xlink:href="#XMLID_9_"
     id="linearGradient3214"
     gradientUnits="userSpaceOnUse"
     x1="58.3022"
     y1="77.5"
     x2="87.860397"
     y2="77.5"
     gradientTransform="matrix(2,0,0,2,-64,-64)" /><linearGradient
     inkscape:collect="always"
     xlink:href="#XMLID_10_"
     id="linearGradient3216"
     gradientUnits="userSpaceOnUse"
     x1="58.619598"
     y1="105.5"
     x2="84.840599"
     y2="105.5"
     gradientTransform="matrix(2,0,0,2,-64,-64)" /><linearGradient
     inkscape:collect="always"
     xlink:href="#XMLID_11_"
     id="linearGradient3218"
     gradientUnits="userSpaceOnUse"
     x1="61.433601"
     y1="49.616199"
     x2="86.570297"
     y2="48.661598"
     gradientTransform="matrix(2,0,0,2,-64,-64)" /><linearGradient
     inkscape:collect="always"
     xlink:href="#XMLID_12_"
     id="linearGradient3220"
     gradientUnits="userSpaceOnUse"
     x1="66.565399"
     y1="21.5"
     x2="85.000198"
     y2="21.5"
     gradientTransform="matrix(2,0,0,2,-64,-64)" /><linearGradient
     inkscape:collect="always"
     xlink:href="#XMLID_13_"
     id="linearGradient3222"
     gradientUnits="userSpaceOnUse"
     x1="32.392601"
     y1="50.274399"
     x2="65.059601"
     y2="48.774399"
     gradientTransform="matrix(2,0,0,2,-64,-64)" /><linearGradient
     inkscape:collect="always"
     xlink:href="#XMLID_14_"
     id="linearGradient3224"
     gradientUnits="userSpaceOnUse"
     x1="69.960899"
     y1="20.0508"
     x2="40.128399"
     y2="22.716801"
     gradientTransform="matrix(2,0,0,2,-64,-64)" /></defs><sodipodi:namedview
   inkscape:window-height="693"
   inkscape:window-width="1024"
   inkscape:pageshadow="2"
   inkscape:pageopacity="0.0"
   guidetolerance="10.0"
   gridtolerance="10.0"
   objecttolerance="10.0"
   borderopacity="1.0"
   bordercolor="#666666"
   pagecolor="#ffffff"
   id="base"
   width="64px"
   inkscape:zoom="3.1796875"
   inkscape:cx="64"
   inkscape:cy="64"
   inkscape:window-x="0"
   inkscape:window-y="25"
   inkscape:current-layer="svg3062" />
	
	
	<linearGradient
   id="XMLID_8_"
   gradientUnits="userSpaceOnUse"
   x1="63.640598"
   y1="5.3691001"
   x2="65.489403"
   y2="130.43719">
		<stop
   offset="0"
   style="stop-color:#A8A8A8"
   id="stop3069" />
		<stop
   offset="0.9944"
   style="stop-color:#696969"
   id="stop3071" />
	</linearGradient>
	
	<linearGradient
   id="XMLID_9_"
   gradientUnits="userSpaceOnUse"
   x1="58.3022"
   y1="77.5"
   x2="87.860397"
   y2="77.5">
		<stop
   offset="0"
   style="stop-color:#77DC24"
   id="stop3076" />
		<stop
   offset="0.2874"
   style="stop-color:#79DD26"
   id="stop3078" />
		<stop
   offset="0.4496"
   style="stop-color:#81DF2F"
   id="stop3080" />
		<stop
   offset="0.5803"
   style="stop-color:#8EE33C"
   id="stop3082" />
		<stop
   offset="0.6798"
   style="stop-color:#9EE84D"
   id="stop3084" />
		<stop
   offset="0.9944"
   style="stop-color:#77DC24"
   id="stop3086" />
	</linearGradient>
	
	<linearGradient
   id="XMLID_10_"
   gradientUnits="userSpaceOnUse"
   x1="58.619598"
   y1="105.5"
   x2="84.840599"
   y2="105.5">
		<stop
   offset="0"
   style="stop-color:#A7DE79"
   id="stop3091" />
		<stop
   offset="0.7697"
   style="stop-color:#C3E9A0"
   id="stop3093" />
		<stop
   offset="0.9944"
   style="stop-color:#B3EA85"
   id="stop3095" />
	</linearGradient>
	
	<linearGradient
   id="XMLID_11_"
   gradientUnits="userSpaceOnUse"
   x1="61.433601"
   y1="49.616199"
   x2="86.570297"
   y2="48.661598">
		<stop
   offset="0"
   style="stop-color:#6AD419"
   id="stop3100" />
		<stop
   offset="0.2165"
   style="stop-color:#6DD51B"
   id="stop3102" />
		<stop
   offset="0.3866"
   style="stop-color:#77D823"
   id="stop3104" />
		<stop
   offset="0.5403"
   style="stop-color:#88DE30"
   id="stop3106" />
		<stop
   offset="0.6844"
   style="stop-color:#9FE643"
   id="stop3108" />
		<stop
   offset="0.6854"
   style="stop-color:#9FE643"
   id="stop3110" />
		<stop
   offset="0.9944"
   style="stop-color:#5FC90C"
   id="stop3112" />
	</linearGradient>
	
	
	<linearGradient
   id="XMLID_12_"
   gradientUnits="userSpaceOnUse"
   x1="66.565399"
   y1="21.5"
   x2="85.000198"
   y2="21.5">
		<stop
   offset="0"
   style="stop-color:#5FC90C"
   id="stop3119" />
		<stop
   offset="0.2358"
   style="stop-color:#62CA0E"
   id="stop3121" />
		<stop
   offset="0.4209"
   style="stop-color:#6CCE12"
   id="stop3123" />
		<stop
   offset="0.5884"
   style="stop-color:#7DD51A"
   id="stop3125" />
		<stop
   offset="0.6854"
   style="stop-color:#8ADB21"
   id="stop3127" />
		<stop
   offset="0.9944"
   style="stop-color:#5FC90C"
   id="stop3129" />
	</linearGradient>
	
	
	
	<linearGradient
   id="XMLID_13_"
   gradientUnits="userSpaceOnUse"
   x1="32.392601"
   y1="50.274399"
   x2="65.059601"
   y2="48.774399">
		<stop
   offset="0.0112"
   style="stop-color:#7CCC3B"
   id="stop3138" />
		<stop
   offset="0.9944"
   style="stop-color:#91DE55"
   id="stop3140" />
	</linearGradient>
	
	<linearGradient
   id="XMLID_14_"
   gradientUnits="userSpaceOnUse"
   x1="69.960899"
   y1="20.0508"
   x2="40.128399"
   y2="22.716801">
		<stop
   offset="0"
   style="stop-color:#83DA3D"
   id="stop3145" />
		<stop
   offset="0.6521"
   style="stop-color:#87D846"
   id="stop3147" />
		<stop
   offset="0.9944"
   style="stop-color:#8AD74D"
   id="stop3149" />
	</linearGradient>
	
	
	
	
	
<path
   d="M 28,-48 C 24.692,-48 22,-45.308 22,-42 L 22,172 C 22,175.308 24.692,178 28,178 L 102,178 C 105.308,178 108,175.308 108,172 L 108,-42 C 108,-45.308 105.308,-48 102,-48 L 28,-48 z "
   id="path3064"
   style="opacity:0.2" /><path
   d="M 28,-46 C 24.692,-46 22,-43.308 22,-40 L 22,174 C 22,177.308 24.692,180 28,180 L 102,180 C 105.308,180 108,177.308 108,174 L 108,-40 C 108,-43.308 105.308,-46 102,-46 L 28,-46 z "
   id="path3066"
   style="opacity:0.2" /><path
   d="M 28,-50 C 24.692,-50 22,-47.308 22,-44 L 22,170 C 22,173.308 24.692,176 28,176 L 102,176 C 105.308,176 108,173.308 108,170 L 108,-44 C 108,-47.308 105.308,-50 102,-50 L 28,-50 z "
   id="path3073"
   style="fill:url(#linearGradient3212)" /><rect
   x="24"
   y="64"
   width="82"
   height="54"
   id="rect3088"
   style="fill:url(#linearGradient3214)" /><path
   d="M 24,170 C 24,172.2 25.8,174 28,174 L 102,174 C 104.2,174 106,172.2 106,170 L 106,120 L 24,120 L 24,170 z "
   id="path3097"
   style="fill:url(#linearGradient3216)" /><rect
   x="24"
   y="8"
   width="82"
   height="54"
   id="rect3114"
   style="fill:url(#linearGradient3218)" /><path
   d="M 102,172 L 28,172 C 25.8,172 24,170.2 24,168 L 24,170 C 24,172.2 25.8,174 28,174 L 102,174 C 104.2,174 106,172.2 106,170 L 106,168 C 106,170.2 104.2,172 102,172 z "
   id="path3116"
   style="fill:#c2f298" /><path
   d="M 102,-48 L 28,-48 C 25.8,-48 24,-46.2 24,-44 L 24,6 L 106,6 L 106,-44 C 106,-46.2 104.2,-48 102,-48 z "
   id="path3131"
   style="fill:url(#linearGradient3220)" /><path
   d="M 44.57,64 L 24,64 L 24,118 L 33.66,118 C 36.95,100.924 40.758,81.772 44.57,64 z "
   id="path3133"
   style="fill:#94e353" /><path
   d="M 24,120 L 24,170 C 24,170 27.888,148.052 33.276,120 L 24,120 z "
   id="path3135"
   style="fill:#b7eb8c" /><path
   d="M 55,20.002 C 56.164,15.816 57.34,11.814 58.516,8 L 24,8 L 24,62 L 45,62 C 48.482,45.85 51.95,30.966 55,20.002 z "
   id="path3142"
   style="fill:url(#linearGradient3222)" /><path
   d="M 81,-48 L 28,-48 C 25.8,-48 24,-46.2 24,-44 L 24,6 L 59.142,6 C 70.204,-29.288 81,-48 81,-48 z "
   id="path3151"
   style="fill:url(#linearGradient3224)" /><path
   d="M 102,-48 L 28,-48 C 25.8,-48 24,-46.2 24,-44 L 24,-42 C 24,-44.2 25.8,-46 28,-46 L 102,-46 C 104.2,-46 106,-44.2 106,-42 L 106,-44 C 106,-46.2 104.2,-48 102,-48 z "
   id="path3153"
   style="fill:#96e653" /><rect
   x="24"
   y="8"
   width="82"
   height="2"
   id="rect3155"
   style="fill:#9be65c" /><rect
   x="24"
   y="64"
   width="82"
   height="2"
   id="rect3157"
   style="fill:#9eeb5e" /><rect
   x="24"
   y="120"
   width="82"
   height="2"
   id="rect3159"
   style="fill:#bcf780" /></svg>