<?xml version="1.0" encoding="utf-8"?>
<!DOCTYPE svg PUBLIC "-//W3C//DTD SVG 1.1//EN" "http://www.w3.org/Graphics/SVG/1.1/DTD/svg11.dtd" [
	<!ENTITY ns_svg "http://www.w3.org/2000/svg">
	<!ENTITY ns_xlink "http://www.w3.org/1999/xlink">
]>
<svg  version="1.1" xmlns="&ns_svg;" xmlns:xlink="&ns_xlink;" width="128.008" height="128"
	 viewBox="0 0 128.008 128" overflow="visible" enable-background="new 0 0 128.008 128" xml:space="preserve">
	<path opacity="0.2" d="M104.712,43.075c-0.375,0.154-0.62,0.52-0.62,0.925c0,0,0,9.319,0,11c-1.919,0-36,0-36,0
		c-0.553,0-1,0.448-1,1v16.9c0,0.553,0.447,1,1,1c0,0,34.081,0,36,0c0,1.681,0,11,0,11c0,0.398,0.237,0.76,0.604,0.918
		s0.791,0.084,1.082-0.189l20.916-19.701c0.195-0.186,0.31-0.441,0.314-0.711c0.005-0.269-0.099-0.528-0.288-0.72l-20.916-21.199
		C105.519,43.009,105.088,42.921,104.712,43.075z"/>
	<path opacity="0.2" d="M104.333,42.149C104.333,42.149,104.333,42.149,104.333,42.149c-0.754,0.309-1.241,1.036-1.241,1.851
		c0,0,0,8.347,0,10c-1.901,0-35,0-35,0c-1.103,0-2,0.897-2,2v16.9c0,1.104,0.897,2,2,2c0,0,33.099,0,35,0c0,1.652,0,10,0,10
		c0,0.799,0.474,1.52,1.207,1.836c0.731,0.316,1.58,0.168,2.162-0.378c0.002-0.001,20.918-19.703,20.918-19.703
		c0.391-0.369,0.619-0.886,0.629-1.42c0.01-0.535-0.2-1.061-0.576-1.441l-20.916-21.198
		C105.943,42.016,105.087,41.841,104.333,42.149z"/>
	<linearGradient id="XMLID_10_" gradientUnits="userSpaceOnUse" x1="108.8496" y1="44.7002" x2="79.2793" y2="82.0364">
		<stop  offset="0" style="stop-color:#55B205"/>
		<stop  offset="0.82" style="stop-color:#479109"/>
		<stop  offset="1" style="stop-color:#44890A"/>
	</linearGradient>
	<path fill="url(#XMLID_10_)" d="M104.712,42.075c-0.375,0.154-0.62,0.52-0.62,0.925c0,0,0,9.319,0,11c-1.919,0-36,0-36,0
		c-0.553,0-1,0.448-1,1v16.9c0,0.553,0.447,1,1,1c0,0,34.081,0,36,0c0,1.681,0,11,0,11c0,0.398,0.237,0.76,0.604,0.918
		s0.791,0.084,1.082-0.189l20.916-19.702c0.195-0.185,0.31-0.44,0.314-0.71c0.005-0.269-0.099-0.529-0.288-0.721l-20.916-21.199
		C105.519,42.009,105.088,41.921,104.712,42.075z"/>
	
		<linearGradient id="XMLID_11_" gradientUnits="userSpaceOnUse" x1="588.5498" y1="51.5913" x2="565.7616" y2="91.4707" gradientTransform="matrix(-1 0 0 1 676.1953 0)">
		<stop  offset="0" style="stop-color:#5BAA07"/>
		<stop  offset="0.8389" style="stop-color:#73CB09"/>
		<stop  offset="1" style="stop-color:#78D209"/>
	</linearGradient>
	<polygon fill="url(#XMLID_11_)" points="105.092,55 105.092,43 126.008,64.199 105.092,83.9 105.092,71.9 68.092,71.9 68.092,55 	
		"/>
	<linearGradient id="XMLID_12_" gradientUnits="userSpaceOnUse" x1="77.1523" y1="76.7168" x2="136.1207" y2="72.1926">
		<stop  offset="0" style="stop-color:#75CC09"/>
		<stop  offset="1" style="stop-color:#78D209"/>
	</linearGradient>
	<path fill="url(#XMLID_12_)" d="M105.092,70.9h-37v1h37V70.9z M125.496,63.681L105.092,82.9v1l20.916-19.702L125.496,63.681z"/>
	<linearGradient id="XMLID_13_" gradientUnits="userSpaceOnUse" x1="71.9766" y1="49.314" x2="121.4751" y2="67.7215">
		<stop  offset="0" style="stop-color:#8DC257"/>
		<stop  offset="1" style="stop-color:#8EC357"/>
	</linearGradient>
	<path fill="url(#XMLID_13_)" d="M92.663,60.188c13.171-1.789,26.288-3.142,26.288-3.142L105.092,43v12h-37v11.5
		C68.092,66.5,79.492,61.978,92.663,60.188z"/>
	<path opacity="0.2" d="M0,64c0,28.121,22.879,51,51,51c20.08,0,38.354-11.888,46.554-30.285c0.277-0.619,0.223-1.331-0.148-1.902
		c-0.371-0.572-0.998-0.912-1.678-0.912h-18.46c-0.623,0-1.218,0.296-1.594,0.791C69.819,90.398,60.595,95,51,95
		c-17.094,0-31-13.906-31-31c0-17.093,13.906-31,31-31c10.011,0,19.468,4.918,25.296,13.155C76.67,46.684,77.28,47,77.929,47h18.185
		c0.672,0,1.296-0.334,1.667-0.895c0.372-0.563,0.437-1.267,0.175-1.885C90.053,25.547,71.183,13,51,13C22.879,13,0,35.878,0,64z"/>
	<path opacity="0.2" d="M1,64c0,27.57,22.43,50,50,50c19.686,0,37.601-11.654,45.641-29.692c0.139-0.31,0.11-0.667-0.074-0.952
		c-0.185-0.283-0.5-0.455-0.839-0.455h-18.46c-0.313,0-0.607,0.146-0.796,0.395C70.428,91.25,60.905,96,51,96
		c-17.645,0-32-14.355-32-32c0-17.645,14.355-32,32-32c10.335,0,20.097,5.076,26.112,13.578C77.3,45.843,77.604,46,77.929,46h18.185
		c0.335,0,0.648-0.168,0.834-0.448c0.185-0.279,0.218-0.633,0.087-0.942C89.286,26.301,70.786,14,51,14C23.43,14,1,36.43,1,64z"/>
	<linearGradient id="XMLID_14_" gradientUnits="userSpaceOnUse" x1="57.8838" y1="114.4971" x2="43.8837" y2="20.6636">
		<stop  offset="0" style="stop-color:#55B205"/>
		<stop  offset="0.82" style="stop-color:#479109"/>
		<stop  offset="1" style="stop-color:#44890A"/>
	</linearGradient>
	<path fill="url(#XMLID_14_)" d="M1,63c0,27.57,22.43,50,50,50c19.686,0,37.601-11.654,45.641-29.692
		c0.139-0.31,0.11-0.667-0.074-0.952c-0.185-0.283-0.5-0.455-0.839-0.455h-18.46c-0.313,0-0.607,0.146-0.796,0.395
		C70.428,90.25,60.905,95,51,95c-17.645,0-32-14.355-32-32c0-17.645,14.355-32,32-32c10.335,0,20.097,5.076,26.112,13.578
		C77.3,44.843,77.604,45,77.929,45h18.185c0.335,0,0.648-0.168,0.834-0.448c0.185-0.279,0.218-0.633,0.087-0.942
		C89.286,25.301,70.786,13,51,13C23.43,13,1,35.43,1,63z"/>
	<linearGradient id="XMLID_15_" gradientUnits="userSpaceOnUse" x1="49.6162" y1="60.9067" x2="54.1162" y2="111.6567">
		<stop  offset="0" style="stop-color:#5BAA07"/>
		<stop  offset="0.8389" style="stop-color:#73CB09"/>
		<stop  offset="1" style="stop-color:#78D209"/>
	</linearGradient>
	<path fill="url(#XMLID_15_)" d="M2,63c0,27.019,21.981,49,49,49c19.455,0,36.83-11.383,44.728-29.1c-2.585,0-17.637,0-18.46,0
		C71.037,91.102,61.271,96,51,96c-18.196,0-33-14.804-33-33s14.804-33,33-33c10.716,0,20.728,5.236,26.929,14
		c0.856,0,15.65,0,18.185,0C88.498,26.006,70.575,14,51,14C23.981,14,2,35.981,2,63z"/>
	<linearGradient id="XMLID_16_" gradientUnits="userSpaceOnUse" x1="50.9897" y1="84.4531" x2="58.3228" y2="113.6201">
		<stop  offset="0" style="stop-color:#75CC09"/>
		<stop  offset="1" style="stop-color:#7DDB09"/>
	</linearGradient>
	<path fill="url(#XMLID_16_)" d="M51,111C24.149,111,2.283,89.288,2.013,62.5C2.011,62.667,2,62.833,2,63c0,27.019,21.981,49,49,49
		c19.455,0,36.83-11.383,44.728-29.1H95.26C87.161,100.042,70.085,111,51,111z"/>
	<linearGradient id="XMLID_17_" gradientUnits="userSpaceOnUse" x1="18.6621" y1="34.936" x2="45.9121" y2="57.9361">
		<stop  offset="0" style="stop-color:#8DC257"/>
		<stop  offset="1" style="stop-color:#8EC357"/>
	</linearGradient>
	<path fill="url(#XMLID_17_)" d="M11.792,92.357C5.646,84.17,2,74.002,2,63c0-27.019,21.981-49,49-49
		c19.575,0,37.498,12.006,45.113,30c-2.534,0-17.328,0-18.185,0C71.728,35.236,61.716,30,51,30c-18.196,0-33,14.804-33,33
		c0,8.301,2.69,15.433,7.745,21.431L11.792,92.357z"/>
	<linearGradient id="XMLID_18_" gradientUnits="userSpaceOnUse" x1="48.9512" y1="51.4897" x2="46.1182" y2="-6.5092">
		<stop  offset="0" style="stop-color:#8DC257"/>
		<stop  offset="0.802" style="stop-color:#A9D878"/>
		<stop  offset="1" style="stop-color:#B0DE81"/>
	</linearGradient>
	<path fill="url(#XMLID_18_)" d="M51,14C23.981,14,2,35.981,2,63c0,0.185,0.01,0.367,0.012,0.551C2.255,36.74,24.132,15,51,15
		c19.209,0,36.819,11.565,44.668,29h0.445C88.498,26.006,70.575,14,51,14z"/>
</svg>
