<?xml version="1.0" encoding="utf-8"?>
<!DOCTYPE svg PUBLIC "-//W3C//DTD SVG 1.1//EN" "http://www.w3.org/Graphics/SVG/1.1/DTD/svg11.dtd" [
	<!ENTITY ns_svg "http://www.w3.org/2000/svg">
	<!ENTITY ns_xlink "http://www.w3.org/1999/xlink">
]>
<svg  version="1.1" xmlns="&ns_svg;" xmlns:xlink="&ns_xlink;" width="128" height="128" viewBox="0 0 128 128"
	 overflow="visible" enable-background="new 0 0 128 128" xml:space="preserve">
	<path opacity="0.15" fill="#39393B" d="M11.172,16C9.697,16,6,18.599,6,19.622V95c0,0.553,0.447,1,1,1h116c0.553,0,1-0.447,1-1
		V19.622c0-1.179-3.963-3.622-5.34-3.622H11.172z"/>
	<path opacity="0.15" fill="#39393B" d="M11.172,15C9.697,15,6,17.599,6,18.622V94c0,0.553,0.447,1,1,1h116c0.553,0,1-0.447,1-1
		V18.622c0-1.179-3.963-3.622-5.34-3.622H11.172z"/>
	<path opacity="0.2" fill="#5E5E5E" d="M13,110v2.978c0,0.55,0.45,1,1,1h101.204c0.55,0,1-0.45,1-1V110H13z"/>
	<path opacity="0.2" fill="#5E5E5E" d="M13,112c0,0-1,0.562-1,1.398c0,1.542,1.44,1.602,2,1.602h101.455
		c0.56,0,1.545-0.201,1.545-1.716c0-0.819-0.796-1.284-0.796-1.284H13z"/>
	<path opacity="0.7" fill="#6D6D70" d="M11.172,14C9.697,14,6,16.599,6,17.622V93c0,0.553,0.447,1,1,1h116c0.553,0,1-0.447,1-1
		V17.622c0-1.179-3.963-3.622-5.34-3.622H11.172z"/>
	<linearGradient id="XMLID_19_" gradientUnits="userSpaceOnUse" x1="65" y1="22.9995" x2="65" y2="78.0005">
		<stop  offset="0" style="stop-color:#868982"/>
		<stop  offset="0.02" style="stop-color:#D1D6CD"/>
		<stop  offset="0.9551" style="stop-color:#D1D6CD"/>
		<stop  offset="0.9831" style="stop-color:#868982"/>
	</linearGradient>
	<rect x="7" y="23" fill="url(#XMLID_19_)" width="116" height="55"/>
	<linearGradient id="XMLID_20_" gradientUnits="userSpaceOnUse" x1="65" y1="78" x2="65" y2="92.3614">
		<stop  offset="0.0843" style="stop-color:#D1D2CD"/>
		<stop  offset="0.1517" style="stop-color:#C5C9C0"/>
		<stop  offset="0.7472" style="stop-color:#C3C7BD"/>
		<stop  offset="0.8764" style="stop-color:#D1D2CD"/>
		<stop  offset="1" style="stop-color:#B1B4AD"/>
	</linearGradient>
	<rect x="7" y="78" fill="url(#XMLID_20_)" width="116" height="15"/>
	<linearGradient id="XMLID_21_" gradientUnits="userSpaceOnUse" x1="65" y1="15" x2="65" y2="22.9995">
		<stop  offset="0" style="stop-color:#D5D8D2"/>
		<stop  offset="0.06" style="stop-color:#D9DCD6"/>
		<stop  offset="0.123" style="stop-color:#E4E7E3"/>
		<stop  offset="0.1854" style="stop-color:#F7F8F7"/>
		<stop  offset="0.2525" style="stop-color:#E3E6E1"/>
		<stop  offset="0.3297" style="stop-color:#D3D7D0"/>
		<stop  offset="0.4138" style="stop-color:#CACFC6"/>
		<stop  offset="0.5169" style="stop-color:#C7CCC3"/>
	</linearGradient>
	<path fill="url(#XMLID_21_)" d="M119,15c0.363,0,4,2,4,2.622S123,23,123,23H7c0,0,0-5,0-5.377S10.363,15,11,15H119z"/>
	<linearGradient id="XMLID_22_" gradientUnits="userSpaceOnUse" x1="87.1416" y1="71.5352" x2="27.1421" y2="14.5356">
		<stop  offset="0" style="stop-color:#091A4B"/>
		<stop  offset="1" style="stop-color:#141414"/>
	</linearGradient>
	<rect x="10" y="23" fill="url(#XMLID_22_)" width="110" height="55"/>
	<radialGradient id="XMLID_23_" cx="69.75" cy="78.25" r="61.7911" gradientUnits="userSpaceOnUse">
		<stop  offset="0.2079" style="stop-color:#0E4EB0"/>
		<stop  offset="1" style="stop-color:#122035"/>
	</radialGradient>
	<path fill="url(#XMLID_23_)" d="M64.26,49.769C40.222,52.854,23.658,58.006,11,63.957V77h108V46.715
		C97.236,46.715,79.291,47.839,64.26,49.769z"/>
	<linearGradient id="XMLID_24_" gradientUnits="userSpaceOnUse" x1="124.8711" y1="56.9932" x2="9.8711" y2="31.9931">
		<stop  offset="0" style="stop-color:#40526D"/>
		<stop  offset="0.5281" style="stop-color:#5876A1"/>
		<stop  offset="1" style="stop-color:#727375"/>
	</linearGradient>
	<path fill="url(#XMLID_24_)" d="M11,24v39.957c12.658-5.95,29.222-11.103,53.26-14.188c15.031-1.93,32.977-3.054,54.74-3.054V24H11
		z"/>
	<rect x="13" y="82" fill="#CED4C8" width="2" height="2"/>
	<rect x="16" y="85" fill="#CED4C8" width="2" height="2"/>
	<rect x="13" y="88" fill="#CED4C8" width="2" height="2"/>
	<rect x="19" y="82" fill="#CED4C8" width="2" height="2"/>
	<rect x="22" y="85" fill="#CED4C8" width="2" height="2"/>
	<rect x="19" y="88" fill="#CED4C8" width="2" height="2"/>
	<rect x="25" y="82" fill="#CED4C8" width="2" height="2"/>
	<rect x="25" y="88" fill="#CED4C8" width="2" height="2"/>
	<rect x="105" y="82" fill="#CED4C8" width="2" height="2"/>
	<rect x="108" y="85" fill="#CED4C8" width="2" height="2"/>
	<rect x="105" y="88" fill="#CED4C8" width="2" height="2"/>
	<rect x="111" y="82" fill="#CED4C8" width="2" height="2"/>
	<rect x="114" y="85" fill="#CED4C8" width="2" height="2"/>
	<rect x="111" y="88" fill="#CED4C8" width="2" height="2"/>
	<rect x="117" y="82" fill="#CED4C8" width="2" height="2"/>
	<rect x="117" y="88" fill="#CED4C8" width="2" height="2"/>
	<rect x="12" y="81" fill="#7D8079" width="2" height="2"/>
	<rect x="15" y="84" fill="#7D8079" width="2" height="2"/>
	<rect x="12" y="87" fill="#7D8079" width="2" height="2"/>
	<rect x="18" y="81" fill="#7D8079" width="2" height="2"/>
	<rect x="21" y="84" fill="#7D8079" width="2" height="2"/>
	<rect x="18" y="87" fill="#7D8079" width="2" height="2"/>
	<rect x="24" y="81" fill="#7D8079" width="2" height="2"/>
	<rect x="24" y="87" fill="#7D8079" width="2" height="2"/>
	<rect x="104" y="81" fill="#7D8079" width="2" height="2"/>
	<rect x="107" y="84" fill="#7D8079" width="2" height="2"/>
	<rect x="104" y="87" fill="#7D8079" width="2" height="2"/>
	<rect x="110" y="81" fill="#7D8079" width="2" height="2"/>
	<rect x="113" y="84" fill="#7D8079" width="2" height="2"/>
	<rect x="110" y="87" fill="#7D8079" width="2" height="2"/>
	<rect x="116" y="81" fill="#7D8079" width="2" height="2"/>
	<rect x="116" y="87" fill="#7D8079" width="2" height="2"/>
	<linearGradient id="XMLID_25_" gradientUnits="userSpaceOnUse" x1="22.1934" y1="106.0117" x2="109.9467" y2="106.0117">
		<stop  offset="0" style="stop-color:#666566"/>
		<stop  offset="0.4402" style="stop-color:#4C4B4C"/>
		<stop  offset="1" style="stop-color:#2E2E2E"/>
	</linearGradient>
	<path fill="url(#XMLID_25_)" d="M116.204,109.022C106.992,104.88,88.529,103,65,103s-42.788,1.88-52,6.022H116.204z"/>
	<linearGradient id="XMLID_26_" gradientUnits="userSpaceOnUse" x1="25.4814" y1="107" x2="106.4324" y2="107">
		<stop  offset="0" style="stop-color:#757475"/>
		<stop  offset="0.4823" style="stop-color:#565556"/>
		<stop  offset="1" style="stop-color:#383838"/>
	</linearGradient>
	<path fill="url(#XMLID_26_)" d="M17,109.022h95.204c-11.667-3.092-27.64-4.045-47.204-4.045S28.667,105.931,17,109.022z"/>
	<rect x="44" y="104" fill="#383738" width="42" height="9"/>
	<linearGradient id="XMLID_27_" gradientUnits="userSpaceOnUse" x1="22.1934" y1="111.0117" x2="109.9467" y2="111.0117">
		<stop  offset="0" style="stop-color:#303030"/>
		<stop  offset="0.2022" style="stop-color:#282828"/>
		<stop  offset="1" style="stop-color:#0A0A0A"/>
	</linearGradient>
	<path fill="url(#XMLID_27_)" d="M13,109.022V112c0,0.55,0.45,1,1,1h101.204c0.55,0,1-0.45,1-1v-2.978H13z"/>
	<linearGradient id="XMLID_28_" gradientUnits="userSpaceOnUse" x1="65" y1="94" x2="65" y2="103.9578">
		<stop  offset="0" style="stop-color:#030303"/>
		<stop  offset="0.1033" style="stop-color:#101010"/>
		<stop  offset="0.3596" style="stop-color:#2E2E2E"/>
		<stop  offset="0.8034" style="stop-color:#464646"/>
		<stop  offset="1" style="stop-color:#6D6D73"/>
	</linearGradient>
	<rect x="44" y="94" fill="url(#XMLID_28_)" width="42" height="10"/>
	<rect x="98" y="81" fill="#CED4C8" width="2" height="8"/>
	<rect x="94" y="81" fill="#CED4C8" width="2" height="8"/>
	<rect x="90" y="81" fill="#CED4C8" width="2" height="8"/>
	<rect x="86" y="81" fill="#CED4C8" width="2" height="8"/>
	<linearGradient id="XMLID_29_" gradientUnits="userSpaceOnUse" x1="98" y1="81" x2="98" y2="89">
		<stop  offset="0" style="stop-color:#66CC00"/>
		<stop  offset="0.1365" style="stop-color:#7AE000"/>
		<stop  offset="0.3034" style="stop-color:#8BF100"/>
		<stop  offset="0.4842" style="stop-color:#96FC00"/>
		<stop  offset="0.7022" style="stop-color:#99FF00"/>
		<stop  offset="1" style="stop-color:#70E000"/>
	</linearGradient>
	<rect x="97" y="81" fill="url(#XMLID_29_)" width="2" height="8"/>
	<linearGradient id="XMLID_30_" gradientUnits="userSpaceOnUse" x1="94" y1="88" x2="94" y2="82">
		<stop  offset="0" style="stop-color:#D1D6CC"/>
		<stop  offset="0.0406" style="stop-color:#C7CBC2"/>
		<stop  offset="0.1535" style="stop-color:#AFB3AA"/>
		<stop  offset="0.2815" style="stop-color:#9DA098"/>
		<stop  offset="0.4311" style="stop-color:#90938C"/>
		<stop  offset="0.6226" style="stop-color:#888B84"/>
		<stop  offset="1" style="stop-color:#868982"/>
	</linearGradient>
	<rect x="93" y="81" fill="url(#XMLID_30_)" width="2" height="8"/>
	<linearGradient id="XMLID_31_" gradientUnits="userSpaceOnUse" x1="90" y1="88" x2="90" y2="82">
		<stop  offset="0" style="stop-color:#D1D6CC"/>
		<stop  offset="0.0406" style="stop-color:#C7CBC2"/>
		<stop  offset="0.1535" style="stop-color:#AFB3AA"/>
		<stop  offset="0.2815" style="stop-color:#9DA098"/>
		<stop  offset="0.4311" style="stop-color:#90938C"/>
		<stop  offset="0.6226" style="stop-color:#888B84"/>
		<stop  offset="1" style="stop-color:#868982"/>
	</linearGradient>
	<rect x="89" y="81" fill="url(#XMLID_31_)" width="2" height="8"/>
	<linearGradient id="XMLID_32_" gradientUnits="userSpaceOnUse" x1="86" y1="88" x2="86" y2="82">
		<stop  offset="0" style="stop-color:#D1D6CC"/>
		<stop  offset="0.0406" style="stop-color:#C7CBC2"/>
		<stop  offset="0.1535" style="stop-color:#AFB3AA"/>
		<stop  offset="0.2815" style="stop-color:#9DA098"/>
		<stop  offset="0.4311" style="stop-color:#90938C"/>
		<stop  offset="0.6226" style="stop-color:#888B84"/>
		<stop  offset="1" style="stop-color:#868982"/>
	</linearGradient>
	<rect x="85" y="81" fill="url(#XMLID_32_)" width="2" height="8"/>
	<linearGradient id="XMLID_33_" gradientUnits="userSpaceOnUse" x1="84.5" y1="94" x2="84.5" y2="103">
		<stop  offset="0" style="stop-color:#1C1C1E"/>
		<stop  offset="0.1348" style="stop-color:#474747"/>
		<stop  offset="1" style="stop-color:#4F4F4F"/>
	</linearGradient>
	<rect x="84" y="94" fill="url(#XMLID_33_)" width="1" height="9"/>
	<linearGradient id="XMLID_34_" gradientUnits="userSpaceOnUse" x1="45.5" y1="94" x2="45.5" y2="103">
		<stop  offset="0" style="stop-color:#1C1C1E"/>
		<stop  offset="0.1348" style="stop-color:#474747"/>
		<stop  offset="1" style="stop-color:#4F4F4F"/>
	</linearGradient>
	<rect x="45" y="94" fill="url(#XMLID_34_)" width="1" height="9"/>
	<rect x="13" y="109.022" fill="#757575" width="31" height="0.978"/>
	<linearGradient id="XMLID_35_" gradientUnits="userSpaceOnUse" x1="44" y1="109.5117" x2="86" y2="109.5117">
		<stop  offset="0" style="stop-color:#767676"/>
		<stop  offset="0.1824" style="stop-color:#6F6F6F"/>
		<stop  offset="1" style="stop-color:#515151"/>
	</linearGradient>
	<rect x="44" y="109.022" fill="url(#XMLID_35_)" width="42" height="0.978"/>
	<linearGradient id="XMLID_36_" gradientUnits="userSpaceOnUse" x1="86" y1="109.5117" x2="116.2041" y2="109.5117">
		<stop  offset="0" style="stop-color:#666666"/>
		<stop  offset="0.2874" style="stop-color:#595959"/>
		<stop  offset="1" style="stop-color:#3B3B3B"/>
	</linearGradient>
	<rect x="86" y="109.022" fill="url(#XMLID_36_)" width="30.204" height="0.978"/>
	<path fill="#8E9096" d="M20.299,31.449c0,1.574,1.279,2.854,2.852,2.854c1.569,0,2.847-1.28,2.847-2.854
		c0-1.57-1.277-2.848-2.847-2.848C21.578,28.601,20.299,29.878,20.299,31.449z"/>
	<circle fill="#798391" cx="31.25" cy="42.251" r="2.4"/>
	<path fill="#3F577D" d="M33.799,61.151c0,1.571,1.28,2.849,2.854,2.849c1.569,0,2.847-1.278,2.847-2.849
		c0-1.572-1.277-2.851-2.847-2.851C35.079,58.3,33.799,59.579,33.799,61.151z"/>
	<path fill="#304C78" d="M26.151,66.552c0,1.323,1.076,2.401,2.399,2.401c1.324,0,2.401-1.078,2.401-2.401
		c0-1.325-1.077-2.402-2.401-2.402C27.228,64.149,26.151,65.227,26.151,66.552z"/>
	<circle fill="#304C78" cx="31.25" cy="74.65" r="2.4"/>
	<path fill="#8C97A6" d="M41.901,36.851c0,1.572,1.278,2.851,2.851,2.851c1.57,0,2.848-1.279,2.848-2.851S46.322,34,44.752,34
		C43.18,34,41.901,35.279,41.901,36.851z"/>
	<path fill="#8994A6" d="M60.8,28.751c0,1.571,1.277,2.849,2.848,2.849c1.573,0,2.853-1.278,2.853-2.849
		c0-1.572-1.279-2.85-2.853-2.85C62.077,25.901,60.8,27.18,60.8,28.751z"/>
	<path fill="#7F90AA" d="M71.602,34.15c0,1.572,1.277,2.85,2.847,2.85c1.57,0,2.848-1.278,2.848-2.85
		c0-1.57-1.277-2.847-2.848-2.847C72.879,31.303,71.602,32.58,71.602,34.15z"/>
	<path fill="#3D6FBB" d="M74.296,69.251c0,1.57,1.28,2.849,2.854,2.849c1.57,0,2.848-1.278,2.848-2.849
		c0-1.571-1.277-2.851-2.848-2.851C75.576,66.4,74.296,67.68,74.296,69.251z"/>
	<path fill="#3D659E" d="M93.203,55.75c0,1.571,1.277,2.85,2.847,2.85c1.572,0,2.852-1.278,2.852-2.85
		c0-1.571-1.279-2.849-2.852-2.849C94.48,52.901,93.203,54.18,93.203,55.75z"/>
	<circle fill="#224985" cx="112.249" cy="58.45" r="2.4"/>
	<path fill="#5F7393" d="M109.399,42.251c0,1.571,1.278,2.85,2.851,2.85c1.57,0,2.849-1.278,2.849-2.85
		c0-1.572-1.278-2.85-2.849-2.85C110.678,39.401,109.399,40.68,109.399,42.251z"/>
	<path fill="#70829D" d="M95.901,36.851c0,1.572,1.277,2.851,2.847,2.851c1.574,0,2.854-1.279,2.854-2.851S100.322,34,98.748,34
		C97.179,34,95.901,35.279,95.901,36.851z"/>
	<path fill="#5F789C" d="M85.55,39.55c0,1.323,1.075,2.4,2.397,2.4c1.325,0,2.403-1.077,2.403-2.4c0-1.322-1.078-2.398-2.403-2.398
		C86.625,37.152,85.55,38.228,85.55,39.55z"/>
	<path fill="#466899" d="M63.5,53.051c0,1.572,1.279,2.851,2.852,2.851s2.852-1.279,2.852-2.851c0-1.571-1.279-2.85-2.852-2.85
		S63.5,51.479,63.5,53.051z"/>
	<circle fill="#2B65BD" cx="55.551" cy="66.553" r="2.85"/>
	<path fill="#61779A" d="M47.302,48.148c0,1.572,1.277,2.852,2.848,2.852c1.573,0,2.853-1.279,2.853-2.852
		c0-1.57-1.279-2.848-2.853-2.848C48.579,45.301,47.302,46.578,47.302,48.148z"/>
	<path fill="#768499" d="M39.65,47.65c0,1.324,1.075,2.4,2.397,2.4c1.324,0,2.402-1.077,2.402-2.4c0-1.322-1.078-2.397-2.402-2.397
		C40.726,45.253,39.65,46.329,39.65,47.65z"/>
	<path fill="#838A97" d="M42.351,28.751c0,1.323,1.077,2.4,2.401,2.4c1.322,0,2.398-1.077,2.398-2.4
		c0-1.324-1.076-2.401-2.398-2.401C43.428,26.351,42.351,27.428,42.351,28.751z"/>
	<path fill="#466899" d="M39.65,71.951c0,1.323,1.075,2.398,2.397,2.398c1.324,0,2.402-1.075,2.402-2.398
		c0-1.324-1.078-2.4-2.402-2.4C40.726,69.551,39.65,70.627,39.65,71.951z"/>
	<path fill="#83888F" d="M14.901,50.349c0,1.572,1.277,2.852,2.847,2.852c1.573,0,2.853-1.279,2.853-2.852
		c0-1.57-1.279-2.848-2.853-2.848C16.179,47.501,14.901,48.779,14.901,50.349z"/>
	<path fill="#F5F5F4" d="M24.497,31.449c0,0.748-0.604,1.354-1.347,1.354c-0.748,0-1.352-0.606-1.352-1.354
		c0-0.744,0.604-1.348,1.352-1.348C23.893,30.101,24.497,30.705,24.497,31.449z"/>
	<circle fill="#F5F5F4" cx="31.25" cy="42.251" r="0.9"/>
	<path fill="#F5F5F4" d="M38,61.151c0,0.745-0.605,1.349-1.347,1.349c-0.75,0-1.354-0.604-1.354-1.349
		c0-0.747,0.604-1.351,1.354-1.351C37.395,59.8,38,60.404,38,61.151z"/>
	<circle fill="#F5F5F4" cx="28.552" cy="66.552" r="0.9"/>
	<circle fill="#F5F5F4" cx="31.25" cy="74.65" r="0.9"/>
	<path fill="#F5F5F4" d="M46.1,36.851c0,0.747-0.603,1.351-1.348,1.351c-0.752,0-1.351-0.604-1.351-1.351
		c0-0.747,0.599-1.351,1.351-1.351C45.497,35.5,46.1,36.104,46.1,36.851z"/>
	<path fill="#F5F5F4" d="M65,28.751c0,0.746-0.604,1.349-1.353,1.349c-0.742,0-1.348-0.604-1.348-1.349
		c0-0.747,0.605-1.35,1.348-1.35C64.396,27.401,65,28.005,65,28.751z"/>
	<path fill="#F5F5F4" d="M75.796,34.15c0,0.746-0.599,1.35-1.348,1.35c-0.743,0-1.347-0.604-1.347-1.35
		c0-0.746,0.604-1.347,1.347-1.347C75.197,32.803,75.796,33.404,75.796,34.15z"/>
	<path fill="#F5F5F4" d="M78.498,69.251c0,0.746-0.603,1.349-1.348,1.349c-0.747,0-1.354-0.603-1.354-1.349
		c0-0.745,0.607-1.351,1.354-1.351C77.896,67.9,78.498,68.506,78.498,69.251z"/>
	<path fill="#F5F5F4" d="M97.401,55.75c0,0.747-0.607,1.35-1.352,1.35c-0.749,0-1.347-0.603-1.347-1.35
		c0-0.746,0.598-1.349,1.347-1.349C96.794,54.401,97.401,55.004,97.401,55.75z"/>
	<circle fill="#F5F5F4" cx="112.249" cy="58.45" r="0.9"/>
	<circle fill="#F5F5F4" cx="112.249" cy="42.251" r="1.35"/>
	<path fill="#F5F5F4" d="M100.103,36.851c0,0.747-0.607,1.351-1.354,1.351c-0.742,0-1.347-0.604-1.347-1.351
		c0-0.747,0.604-1.351,1.347-1.351C99.495,35.5,100.103,36.104,100.103,36.851z"/>
	<path fill="#F5F5F4" d="M88.851,39.55c0,0.498-0.403,0.9-0.903,0.9c-0.492,0-0.897-0.402-0.897-0.9
		c0-0.497,0.405-0.898,0.897-0.898C88.447,38.652,88.851,39.054,88.851,39.55z"/>
	<path fill="#F5F5F4" d="M67.703,53.051c0,0.745-0.608,1.351-1.352,1.351c-0.747,0-1.352-0.605-1.352-1.351
		c0-0.748,0.604-1.35,1.352-1.35C67.095,51.701,67.703,52.303,67.703,53.051z"/>
	<path fill="#F5F5F4" d="M56.9,66.553c0,0.744-0.604,1.348-1.35,1.348c-0.748,0-1.35-0.604-1.35-1.348
		c0-0.748,0.602-1.352,1.35-1.352C56.296,65.201,56.9,65.805,56.9,66.553z"/>
	<path fill="#F5F5F4" d="M51.502,48.148c0,0.749-0.606,1.352-1.353,1.352c-0.747,0-1.348-0.603-1.348-1.352
		c0-0.745,0.601-1.348,1.348-1.348C50.896,46.801,51.502,47.404,51.502,48.148z"/>
	<path fill="#F5F5F4" d="M42.95,47.65c0,0.497-0.406,0.9-0.902,0.9s-0.897-0.403-0.897-0.9c0-0.496,0.401-0.897,0.897-0.897
		S42.95,47.154,42.95,47.65z"/>
	<path fill="#F5F5F4" d="M45.65,28.751c0,0.497-0.402,0.9-0.898,0.9c-0.502,0-0.901-0.403-0.901-0.9
		c0-0.498,0.399-0.901,0.901-0.901C45.248,27.851,45.65,28.253,45.65,28.751z"/>
	<circle fill="#F5F5F4" cx="42.05" cy="71.951" r="0.9"/>
	<path fill="#F5F5F4" d="M19.101,50.349c0,0.749-0.605,1.352-1.353,1.352c-0.741,0-1.347-0.603-1.347-1.352
		c0-0.745,0.605-1.348,1.347-1.348C18.495,49.001,19.101,49.604,19.101,50.349z"/>
</svg>
