<?xml version="1.0" encoding="utf-8"?>
<!DOCTYPE svg PUBLIC "-//W3C//DTD SVG 1.1//EN" "http://www.w3.org/Graphics/SVG/1.1/DTD/svg11.dtd" [
	<!ENTITY ns_svg "http://www.w3.org/2000/svg">
	<!ENTITY ns_xlink "http://www.w3.org/1999/xlink">
]>
<svg  version="1.1" xmlns="&ns_svg;" xmlns:xlink="&ns_xlink;" width="128" height="128" viewBox="0 0 128 128"
	 overflow="visible" enable-background="new 0 0 128 128" xml:space="preserve">
	<path opacity="0.2" d="M66.414,113.314l45-45c0.575-0.574,0.745-1.43,0.434-2.18c-0.31-0.749-1.035-1.234-1.848-1.234
		c0,0-23.15,0-25,0c0-1.936,0-61,0-61c0-1.103-0.897-2-2-2H47c-1.103,0-2,0.897-2,2c0,0,0,59.064,0,61c-1.85,0-25,0-25,0
		c-0.813,0-1.538,0.485-1.848,1.236C18.15,66.139,18,66.9,18,66.9c0,0.535,0.208,1.037,0.586,1.414l45,45
		C64.365,114.095,65.634,114.095,66.414,113.314z"/>
	<path opacity="0.2" d="M65.707,112.607l45-45c0.286-0.285,0.372-0.716,0.217-1.09c-0.154-0.373-0.52-0.617-0.924-0.617
		c0,0-24.146,0-26,0c0-1.937,0-62,0-62c0-0.552-0.447-1-1-1H47c-0.553,0-1,0.448-1,1c0,0,0,60.063,0,62c-1.854,0-26,0-26,0
		c-0.404,0-0.77,0.244-0.924,0.617C19.025,66.643,19,66.771,19,66.9c0,0.261,0.102,0.516,0.293,0.707l45,45
		C64.683,112.998,65.316,112.998,65.707,112.607z"/>
	
		<linearGradient id="XMLID_8_" gradientUnits="userSpaceOnUse" x1="1174.3589" y1="543.7773" x2="1161.8589" y2="435.2773" gradientTransform="matrix(-1 0 0 -1 1231.999 545.8008)">
		<stop  offset="0" style="stop-color:#D15F00"/>
		<stop  offset="1" style="stop-color:#D96E00"/>
	</linearGradient>
	<path fill="url(#XMLID_8_)" d="M65.707,111.607l45-45c0.286-0.285,0.372-0.716,0.217-1.09c-0.154-0.373-0.52-0.617-0.924-0.617
		c0,0-24.146,0-26,0c0-1.937,0-62,0-62c0-0.552-0.447-1-1-1H47c-0.553,0-1,0.448-1,1c0,0,0,60.063,0,62c-1.854,0-26,0-26,0
		c-0.404,0-0.77,0.244-0.924,0.617C19.025,65.643,19,65.771,19,65.9c0,0.261,0.102,0.516,0.293,0.707l45,45
		C64.683,111.998,65.316,111.998,65.707,111.607z"/>
	
		<linearGradient id="XMLID_9_" gradientUnits="userSpaceOnUse" x1="1169.0815" y1="493.499" x2="1161.0817" y2="441.2495" gradientTransform="matrix(-1 0 0 -1 1231.999 545.8008)">
		<stop  offset="0" style="stop-color:#ED7C00"/>
		<stop  offset="1" style="stop-color:#F89000"/>
	</linearGradient>
	<polygon fill="url(#XMLID_9_)" points="65,110.9 110,65.9 83,65.9 83,2.9 47,2.9 47,65.9 20,65.9 	"/>
	
		<linearGradient id="XMLID_10_" gradientUnits="userSpaceOnUse" x1="1171.3784" y1="508.5029" x2="1165.7482" y2="471.7301" gradientTransform="matrix(-1 0 0 -1 1231.999 545.8008)">
		<stop  offset="0" style="stop-color:#FABD8C"/>
		<stop  offset="1" style="stop-color:#F8A039"/>
	</linearGradient>
	<path fill="url(#XMLID_10_)" d="M63.389,73.224c15.943-3.723,45.06-5.773,45.06-5.773L110,65.9H83v-63H47v63H20l16.549,16.549
		C36.548,82.449,47.446,76.946,63.389,73.224z"/>
	<linearGradient id="XMLID_11_" gradientUnits="userSpaceOnUse" x1="64.9692" y1="71.5195" x2="64.7193" y2="118.7683">
		<stop  offset="0" style="stop-color:#ED7C00"/>
		<stop  offset="1" style="stop-color:#FFB700"/>
	</linearGradient>
	<polygon fill="url(#XMLID_11_)" points="65,109.9 21,65.9 20,65.9 65,110.9 110,65.9 109,65.9 	"/>
	<path opacity="0.2" d="M20,115c-1.103,0-2,0.897-2,2v8c0,1.103,0.897,2,2,2h90c1.103,0,2-0.897,2-2v-8c0-1.103-0.897-2-2-2H20z"/>
	<path opacity="0.2" d="M20,116c-0.553,0-1,0.447-1,1v8c0,0.553,0.447,1,1,1h90c0.553,0,1-0.447,1-1v-8c0-0.553-0.447-1-1-1H20z"/>
	<linearGradient id="XMLID_12_" gradientUnits="userSpaceOnUse" x1="67.2651" y1="135.6406" x2="63.7654" y2="111.4756">
		<stop  offset="0" style="stop-color:#D15F00"/>
		<stop  offset="1" style="stop-color:#D96E00"/>
	</linearGradient>
	<path fill="url(#XMLID_12_)" d="M20,115c-0.553,0-1,0.447-1,1v8c0,0.553,0.447,1,1,1h90c0.553,0,1-0.447,1-1v-8
		c0-0.553-0.447-1-1-1H20z"/>
	<linearGradient id="XMLID_13_" gradientUnits="userSpaceOnUse" x1="27.7446" y1="113.4502" x2="118.7446" y2="129.4502">
		<stop  offset="0" style="stop-color:#ED7C00"/>
		<stop  offset="1" style="stop-color:#F89000"/>
	</linearGradient>
	<rect x="20" y="116" fill="url(#XMLID_13_)" width="90" height="8"/>
	<linearGradient id="XMLID_14_" gradientUnits="userSpaceOnUse" x1="69.7358" y1="87.9189" x2="59.4866" y2="164.9131">
		<stop  offset="0" style="stop-color:#ED7C00"/>
		<stop  offset="1" style="stop-color:#FFB700"/>
	</linearGradient>
	<rect x="20" y="123" fill="url(#XMLID_14_)" width="90" height="1"/>
</svg>
