<?xml version="1.0" encoding="utf-8"?>
<!DOCTYPE svg PUBLIC "-//W3C//DTD SVG 1.1//EN" "http://www.w3.org/Graphics/SVG/1.1/DTD/svg11.dtd" [
	<!ENTITY ns_svg "http://www.w3.org/2000/svg">
	<!ENTITY ns_xlink "http://www.w3.org/1999/xlink">
]>
<svg  version="1.1" xmlns="&ns_svg;" xmlns:xlink="&ns_xlink;" width="128" height="128" viewBox="0 0 128 128"
	 overflow="visible" enable-background="new 0 0 128 128" xml:space="preserve">
	<path opacity="0.2" d="M66.414,119.314l45-45c0.575-0.574,0.745-1.43,0.434-2.18c-0.31-0.749-1.035-1.234-1.848-1.234
		c0,0-23.15,0-25,0c0-1.936,0-61,0-61c0-1.103-0.897-2-2-2H47c-1.103,0-2,0.897-2,2c0,0,0,59.064,0,61c-1.85,0-25,0-25,0
		c-0.813,0-1.538,0.485-1.848,1.236C18.15,72.139,18,72.9,18,72.9c0,0.535,0.208,1.037,0.586,1.414l45,45
		C64.365,120.095,65.634,120.095,66.414,119.314z"/>
	<path opacity="0.2" d="M65.707,118.607l45-45c0.286-0.285,0.372-0.716,0.217-1.09c-0.154-0.373-0.52-0.617-0.924-0.617
		c0,0-24.146,0-26,0c0-1.937,0-62,0-62c0-0.552-0.447-1-1-1H47c-0.553,0-1,0.448-1,1c0,0,0,60.063,0,62c-1.854,0-26,0-26,0
		c-0.404,0-0.77,0.244-0.924,0.617C19.025,72.643,19,72.771,19,72.9c0,0.261,0.102,0.516,0.293,0.707l45,45
		C64.683,118.998,65.316,118.998,65.707,118.607z"/>
	
		<linearGradient id="XMLID_5_" gradientUnits="userSpaceOnUse" x1="1174.3589" y1="537.7783" x2="1161.8588" y2="429.2774" gradientTransform="matrix(-1 0 0 -1 1231.999 545.8008)">
		<stop  offset="0" style="stop-color:#D15F00"/>
		<stop  offset="1" style="stop-color:#D96E00"/>
	</linearGradient>
	<path fill="url(#XMLID_5_)" d="M65.707,117.607l45-45c0.286-0.285,0.372-0.716,0.217-1.09c-0.154-0.373-0.52-0.617-0.924-0.617
		c0,0-24.146,0-26,0c0-1.937,0-62,0-62c0-0.552-0.447-1-1-1H47c-0.553,0-1,0.448-1,1c0,0,0,60.063,0,62c-1.854,0-26,0-26,0
		c-0.404,0-0.77,0.244-0.924,0.617C19.025,71.643,19,71.771,19,71.9c0,0.261,0.102,0.516,0.293,0.707l45,45
		C64.683,117.998,65.316,117.998,65.707,117.607z"/>
	
		<linearGradient id="XMLID_6_" gradientUnits="userSpaceOnUse" x1="1169.0815" y1="487.499" x2="1161.0817" y2="435.2495" gradientTransform="matrix(-1 0 0 -1 1231.999 545.8008)">
		<stop  offset="0" style="stop-color:#ED7C00"/>
		<stop  offset="1" style="stop-color:#F89000"/>
	</linearGradient>
	<polygon fill="url(#XMLID_6_)" points="65,116.9 110,71.9 83,71.9 83,8.9 47,8.9 47,71.9 20,71.9 	"/>
	<linearGradient id="XMLID_7_" gradientUnits="userSpaceOnUse" x1="64.9692" y1="77.5195" x2="64.7193" y2="124.7683">
		<stop  offset="0" style="stop-color:#ED7C00"/>
		<stop  offset="1" style="stop-color:#FFB700"/>
	</linearGradient>
	<polygon fill="url(#XMLID_7_)" points="65,115.9 21,71.9 20,71.9 65,116.9 110,71.9 109,71.9 	"/>
	
		<linearGradient id="XMLID_8_" gradientUnits="userSpaceOnUse" x1="1185.7466" y1="529.6475" x2="1173.4126" y2="472.6475" gradientTransform="matrix(-1 0 0 -1 1231.999 545.8008)">
		<stop  offset="0" style="stop-color:#FABD8C"/>
		<stop  offset="1" style="stop-color:#F8A039"/>
	</linearGradient>
	<path fill="url(#XMLID_8_)" d="M56.295,75.86C44.5,79.167,32.97,84.871,32.97,84.871L20,71.9h27v-63h36v63
		C83,71.9,68.09,72.554,56.295,75.86z"/>
</svg>
