<?xml version="1.0" encoding="utf-8"?>
<!DOCTYPE svg PUBLIC "-//W3C//DTD SVG 1.1//EN" "http://www.w3.org/Graphics/SVG/1.1/DTD/svg11.dtd" [
	<!ENTITY ns_svg "http://www.w3.org/2000/svg">
	<!ENTITY ns_xlink "http://www.w3.org/1999/xlink">
]>
<svg  version="1.1" xmlns="&ns_svg;" xmlns:xlink="&ns_xlink;" width="128" height="128" viewBox="0 0 128 128"
	 overflow="visible" enable-background="new 0 0 128 128" xml:space="preserve">
	<path opacity="0.2" d="M14.785,65.314l45,45c0.574,0.575,1.43,0.745,2.18,0.434c0.749-0.31,1.234-1.035,1.234-1.848
		c0,0,0-23.15,0-25c1.939,0,61.004,0,61.004,0c1.103,0,2-0.897,2-2V46c0-1.103-0.897-2-2-2c0,0-59.064,0-61.004,0
		c0-1.85,0-25.1,0-25.1c0-0.813-0.485-1.538-1.236-1.848c-0.002-0.002-0.764-0.152-0.764-0.152c-0.535,0-1.037,0.208-1.414,0.586
		l-45,45C14.004,63.266,14.004,64.535,14.785,65.314z"/>
	<path opacity="0.2" d="M15.492,64.607l45,45c0.285,0.286,0.716,0.372,1.09,0.217c0.373-0.154,0.617-0.52,0.617-0.924
		c0,0,0-24.146,0-26c1.937,0,62.004,0,62.004,0c0.552,0,1-0.447,1-1V46c0-0.553-0.448-1-1-1c0,0-60.067,0-62.004,0
		c0-1.854,0-26.1,0-26.1c0-0.404-0.244-0.77-0.617-0.924c-0.125-0.051-0.254-0.076-0.383-0.076c-0.261,0-0.516,0.102-0.707,0.293
		l-45,45C15.101,63.584,15.101,64.217,15.492,64.607z"/>
	
		<linearGradient id="XMLID_9_" gradientUnits="userSpaceOnUse" x1="1065.3579" y1="37.9688" x2="1052.8593" y2="-70.5198" gradientTransform="matrix(0 -1 1 0 87.0991 1120.8999)">
		<stop  offset="0" style="stop-color:#D15F00"/>
		<stop  offset="1" style="stop-color:#D96E00"/>
	</linearGradient>
	<path fill="url(#XMLID_9_)" d="M15.492,63.607l45,45c0.285,0.286,0.716,0.372,1.09,0.217c0.373-0.154,0.617-0.52,0.617-0.924
		c0,0,0-24.146,0-26c1.937,0,62.004,0,62.004,0c0.552,0,1-0.447,1-1V45c0-0.553-0.448-1-1-1c0,0-60.067,0-62.004,0
		c0-1.854,0-26.1,0-26.1c0-0.404-0.244-0.77-0.617-0.924c-0.125-0.051-0.254-0.076-0.383-0.076c-0.261,0-0.516,0.102-0.707,0.293
		l-45,45C15.101,62.584,15.101,63.217,15.492,63.607z"/>
	
		<linearGradient id="XMLID_10_" gradientUnits="userSpaceOnUse" x1="1067.9419" y1="-17.2285" x2="1034.4423" y2="-5.9787" gradientTransform="matrix(0 -1 1 0 87.0991 1120.8999)">
		<stop  offset="0" style="stop-color:#ED7C00"/>
		<stop  offset="1" style="stop-color:#F89000"/>
	</linearGradient>
	<polygon fill="url(#XMLID_10_)" points="16.199,62.9 61.199,107.9 61.199,80.9 124.203,80.9 124.203,45 61.199,45 61.199,17.9 	"/>
	<linearGradient id="XMLID_11_" gradientUnits="userSpaceOnUse" x1="79.7485" y1="37.4341" x2="97.7486" y2="93.1011">
		<stop  offset="0" style="stop-color:#ED7C00"/>
		<stop  offset="1" style="stop-color:#FFA000"/>
	</linearGradient>
	<path fill="url(#XMLID_11_)" d="M61.199,17.9l-1,1V44h1V17.9z M123.203,45v34.9H60.199v27l1,1v-27h63.004V45H123.203z"/>
	
		<linearGradient id="XMLID_12_" gradientUnits="userSpaceOnUse" x1="1092.4009" y1="-48.5938" x2="1054.7371" y2="-3.4303" gradientTransform="matrix(0 -1 1 0 87.0991 1120.8999)">
		<stop  offset="0" style="stop-color:#FABD8C"/>
		<stop  offset="1" style="stop-color:#F8A039"/>
	</linearGradient>
	<path fill="url(#XMLID_12_)" d="M67.09,62.369c22.445-4.703,57.112-5.119,57.112-5.119V45H61.199V17.9l-45,45L28,74.699
		C28,74.699,44.641,67.072,67.09,62.369z"/>
	<path opacity="0.2" d="M1.199,109c0,1.103,0.897,2,2,2h8c1.103,0,2-0.897,2-2V19c0-1.103-0.897-2-2-2h-8c-1.103,0-2,0.897-2,2V109z
		"/>
	<path opacity="0.2" d="M2.199,109c0,0.553,0.447,1,1,1h8c0.553,0,1-0.447,1-1V19c0-0.553-0.447-1-1-1h-8c-0.553,0-1,0.447-1,1V109z
		"/>
	
		<linearGradient id="XMLID_13_" gradientUnits="userSpaceOnUse" x1="476.646" y1="-300.0908" x2="571.3139" y2="-301.7578" gradientTransform="matrix(0 -1 1 0 307.9995 579.9995)">
		<stop  offset="0" style="stop-color:#D15F00"/>
		<stop  offset="1" style="stop-color:#D96E00"/>
	</linearGradient>
	<path fill="url(#XMLID_13_)" d="M2.199,108c0,0.553,0.447,1,1,1h8c0.553,0,1-0.447,1-1V18c0-0.553-0.447-1-1-1h-8
		c-0.553,0-1,0.447-1,1V108z"/>
	
		<linearGradient id="XMLID_14_" gradientUnits="userSpaceOnUse" x1="471.7515" y1="-299.0039" x2="559.9184" y2="-302.5039" gradientTransform="matrix(0 -1 1 0 307.9995 579.9995)">
		<stop  offset="0" style="stop-color:#ED7C00"/>
		<stop  offset="1" style="stop-color:#F89000"/>
	</linearGradient>
	<rect x="3.199" y="18" fill="url(#XMLID_14_)" width="8" height="90"/>
	
		<linearGradient id="XMLID_15_" gradientUnits="userSpaceOnUse" x1="521.7358" y1="-332.8818" x2="511.4866" y2="-255.8877" gradientTransform="matrix(0 -1 1 0 307.9995 579.9995)">
		<stop  offset="0" style="stop-color:#ED7C00"/>
		<stop  offset="1" style="stop-color:#FFB700"/>
	</linearGradient>
	<rect x="10.199" y="18" fill="url(#XMLID_15_)" width="1" height="90"/>
	
		<linearGradient id="XMLID_16_" gradientUnits="userSpaceOnUse" x1="561.4272" y1="-304.1113" x2="493.0883" y2="-297.3449" gradientTransform="matrix(0 -1 1 0 307.9995 579.9995)">
		<stop  offset="0" style="stop-color:#FABD8C"/>
		<stop  offset="1" style="stop-color:#F8A039"/>
	</linearGradient>
	<polygon fill="url(#XMLID_16_)" points="11.199,81.896 11.199,18 3.199,18 3.199,86 	"/>
</svg>
