<?xml version="1.0" encoding="utf-8"?>
<!DOCTYPE svg PUBLIC "-//W3C//DTD SVG 1.1//EN" "http://www.w3.org/Graphics/SVG/1.1/DTD/svg11.dtd" [
	<!ENTITY ns_svg "http://www.w3.org/2000/svg">
	<!ENTITY ns_xlink "http://www.w3.org/1999/xlink">
]>
<svg  version="1.1" xmlns="&ns_svg;" xmlns:xlink="&ns_xlink;" width="128" height="128" viewBox="0 0 128 128"
	 overflow="visible" enable-background="new 0 0 128 128" xml:space="preserve">
	<path opacity="0.1" d="M108,53.429V115c0,2.205-1.795,4-4,4H25c-2.206,0-4-1.795-4-4V53.429H108z"/>
	<path opacity="0.1" d="M108,52.429V114c0,2.205-1.795,4-4,4H25c-2.206,0-4-1.795-4-4V52.429H108z"/>
	<path opacity="0.5" fill="#1A1A1A" d="M58.85,26.222L21.454,50.591C21.171,50.775,21,51.091,21,51.429V113c0,2.205,1.794,4,4,4h79
		c2.205,0,4-1.795,4-4V51.429c0-0.359-0.192-0.69-0.504-0.868L59.892,26.192C59.566,26.006,59.164,26.018,58.85,26.222z"/>
	<linearGradient id="XMLID_10_" gradientUnits="userSpaceOnUse" x1="64.5" y1="54.187" x2="64.5" y2="83.4893">
		<stop  offset="0" style="stop-color:#C9C7C7"/>
		<stop  offset="0.5715" style="stop-color:#EBEBEB"/>
		<stop  offset="0.9719" style="stop-color:#FFFFFF"/>
	</linearGradient>
	<path fill="url(#XMLID_10_)" d="M107,113c0,1.65-1.35,3-3,3H25c-1.65,0-3-1.35-3-3V51.429L59.396,27.06L107,51.429V113z"/>
	<linearGradient id="XMLID_11_" gradientUnits="userSpaceOnUse" x1="64.5" y1="38.1968" x2="64.5" y2="116.2671">
		<stop  offset="0" style="stop-color:#ABABAB"/>
		<stop  offset="0.2781" style="stop-color:#D9D8D9"/>
		<stop  offset="0.4326" style="stop-color:#EDECED"/>
		<stop  offset="0.6872" style="stop-color:#E8E8E8"/>
		<stop  offset="0.9862" style="stop-color:#DBDBDA"/>
		<stop  offset="1" style="stop-color:#DADAD9"/>
	</linearGradient>
	<path fill="url(#XMLID_11_)" d="M24,51.971C24,53.036,24,113,24,113c0,1.104,0.897,2,2,2h77c1.103,0,2-0.896,2-2
		c0,0,0-59.853,0-60.991c-0.971-0.555-43.548-23.192-44.57-23.777C59.445,28.873,24.874,51.401,24,51.971z"/>
	<path opacity="0.7" fill="#666666" d="M77,10c-0.553,0-1,0.448-1,1v28c0,0.552,0.447,1,1,1h22c0.553,0,1-0.448,1-1V11
		c0-0.552-0.447-1-1-1H77z"/>
	<rect x="77" y="11" fill="#FFFFFF" width="22" height="28"/>
	<linearGradient id="XMLID_12_" gradientUnits="userSpaceOnUse" x1="88.168" y1="33.1284" x2="88.168" y2="13.6284">
		<stop  offset="0" style="stop-color:#E8E7E8"/>
		<stop  offset="1" style="stop-color:#D7D7D7"/>
	</linearGradient>
	<rect x="78.502" y="12.7" fill="url(#XMLID_12_)" width="19.333" height="26"/>
	<path fill="#8F2E2E" d="M65,36.723c2.333,0,43.426,24.573,49.141,27.43c5.715,2.856,9.561-1.197,9.561-4.054
		s1.299-6.233-4.415-9.09L65,22.438L10.715,51.009C5,53.866,6.398,57.042,6.398,59.899S8,67.866,15.859,64.153
		C21.637,61.424,62.667,36.723,65,36.723z"/>
	<radialGradient id="XMLID_13_" cx="47.4004" cy="30.0913" r="78.9658" gradientUnits="userSpaceOnUse">
		<stop  offset="0" style="stop-color:#F56363"/>
		<stop  offset="1" style="stop-color:#A33A3A"/>
	</radialGradient>
	<path fill="url(#XMLID_13_)" d="M65,33.857c2,0,43.426,24.573,49.141,27.43s9.561,1.141,9.561-1.716S125,51,119.286,48.143
		c0,0-51.953-28.571-54.286-28.571S10.715,48.143,10.715,48.143C5,51,6.398,56.714,6.398,59.571S8,65,15.859,61.287
		C21.637,58.558,63,33.857,65,33.857z"/>
	<rect x="32" y="71" fill="#7D533F" width="31" height="45"/>
	<rect x="34" y="73" fill="#CD6F2F" width="27" height="43"/>
	<rect x="35" y="74" fill="#F69A3B" width="25" height="41"/>
	<linearGradient id="XMLID_14_" gradientUnits="userSpaceOnUse" x1="86" y1="71.125" x2="86" y2="94.9999">
		<stop  offset="0" style="stop-color:#B3B3B3"/>
		<stop  offset="0.4362" style="stop-color:#C5C6C5"/>
		<stop  offset="1" style="stop-color:#D9DAD9"/>
	</linearGradient>
	<rect x="72" y="74" fill="url(#XMLID_14_)" width="28" height="21"/>
	<linearGradient id="XMLID_15_" gradientUnits="userSpaceOnUse" x1="86" y1="73.834" x2="86" y2="80.834">
		<stop  offset="0" style="stop-color:#5E5E5E"/>
		<stop  offset="0.3296" style="stop-color:#6A6A6A"/>
		<stop  offset="1" style="stop-color:#7E7E7E"/>
	</linearGradient>
	<rect x="73" y="75" fill="url(#XMLID_15_)" width="26" height="21"/>
	<linearGradient id="XMLID_16_" gradientUnits="userSpaceOnUse" x1="95.5762" y1="94.0898" x2="81.6571" y2="81.6036">
		<stop  offset="0" style="stop-color:#65F5FA"/>
		<stop  offset="0.5013" style="stop-color:#64DCFA"/>
		<stop  offset="1" style="stop-color:#64C8FA"/>
	</linearGradient>
	<rect x="75" y="77" fill="url(#XMLID_16_)" width="22" height="17"/>
	<rect x="75" y="77" fill="url(#XMLID_16_)" width="22" height="17"/>
	<linearGradient id="XMLID_18_" gradientUnits="userSpaceOnUse" x1="79.3271" y1="72.0625" x2="91.5055" y2="90.7362">
		<stop  offset="0" style="stop-color:#FFFFFF"/>
		<stop  offset="0.4789" style="stop-color:#AEFAFC"/>
		<stop  offset="0.8295" style="stop-color:#79F6FB"/>
		<stop  offset="1" style="stop-color:#65F5FA"/>
	</linearGradient>
	<rect x="76" y="78" fill="url(#XMLID_18_)" width="19.834" height="8.334"/>
	<rect x="35" y="74" fill="#FCAF43" width="25" height="1"/>
	<rect x="35" y="114" fill="#F2A345" width="25" height="1"/>
	<circle opacity="0.6" fill="#7D4E3D" cx="58.5" cy="94.5" r="2.5"/>
	<circle opacity="0.3" fill="#7D4E3D" cx="58.5" cy="95.5" r="2.5"/>
	<ellipse opacity="0.2" fill="#7D4E3D" cx="58.5" cy="96.5" rx="1.81" ry="2.5"/>
	<ellipse opacity="0.2" fill="#7D4E3D" cx="59.201" cy="97.5" rx="1.81" ry="2.5"/>
	<circle fill="#FCAF43" cx="58.5" cy="94.5" r="1.5"/>
</svg>
