<?xml version="1.0" encoding="utf-8"?>
<!DOCTYPE svg PUBLIC "-//W3C//DTD SVG 1.1//EN" "http://www.w3.org/Graphics/SVG/1.1/DTD/svg11.dtd" [
	<!ENTITY ns_svg "http://www.w3.org/2000/svg">
	<!ENTITY ns_xlink "http://www.w3.org/1999/xlink">
]>
<svg  version="1.1" xmlns="&ns_svg;" xmlns:xlink="&ns_xlink;" width="128" height="128" viewBox="0 0 128 128"
	 overflow="visible" enable-background="new 0 0 128 128" xml:space="preserve">
	<path opacity="0.2" d="M112.816,65.314l-45,45c-0.574,0.575-1.43,0.745-2.18,0.434c-0.75-0.31-1.237-1.035-1.237-1.848
		c0,0,0-23.15,0-25c-1.936,0-61,0-61,0c-1.103,0-2-0.897-2-2V46c0-1.103,0.897-2,2-2c0,0,59.064,0,61,0c0-1.85,0-25.1,0-25.1
		c0-0.813,0.487-1.538,1.239-1.848c0.002-0.002,0.764-0.152,0.764-0.152c0.535,0,1.037,0.208,1.414,0.586l45,45
		C113.596,63.266,113.596,64.535,112.816,65.314z"/>
	<path opacity="0.2" d="M112.109,64.607l-45,45c-0.285,0.286-0.716,0.372-1.09,0.217c-0.373-0.154-0.617-0.52-0.617-0.924
		c0,0,0-24.146,0-26c-1.939,0-62.003,0-62.003,0c-0.552,0-1-0.447-1-1V46c0-0.553,0.448-1,1-1c0,0,60.063,0,62.003,0
		c0-1.854,0-26.1,0-26.1c0-0.404,0.244-0.77,0.617-0.924c0.125-0.051,0.254-0.076,0.383-0.076c0.261,0,0.516,0.102,0.707,0.293
		l45,45C112.5,63.584,112.5,64.217,112.109,64.607z"/>
	
		<linearGradient id="XMLID_9_" gradientUnits="userSpaceOnUse" x1="1065.3569" y1="1144.3633" x2="1052.8583" y2="1035.8748" gradientTransform="matrix(0 -1 -1 0 1146.8999 1120.8999)">
		<stop  offset="0" style="stop-color:#D15F00"/>
		<stop  offset="1" style="stop-color:#D96E00"/>
	</linearGradient>
	<path fill="url(#XMLID_9_)" d="M112.109,63.607l-45,45c-0.285,0.286-0.716,0.372-1.09,0.217c-0.373-0.154-0.617-0.52-0.617-0.924
		c0,0,0-24.146,0-26c-1.939,0-62.003,0-62.003,0c-0.552,0-1-0.447-1-1V45c0-0.553,0.448-1,1-1c0,0,60.063,0,62.003,0
		c0-1.854,0-26.1,0-26.1c0-0.404,0.244-0.77,0.617-0.924c0.125-0.051,0.254-0.076,0.383-0.076c0.261,0,0.516,0.102,0.707,0.293
		l45,45C112.5,62.584,112.5,63.217,112.109,63.607z"/>
	
		<linearGradient id="XMLID_10_" gradientUnits="userSpaceOnUse" x1="1067.9409" y1="1089.166" x2="1034.4413" y2="1100.4159" gradientTransform="matrix(0 -1 -1 0 1146.8999 1120.8999)">
		<stop  offset="0" style="stop-color:#ED7C00"/>
		<stop  offset="1" style="stop-color:#F89000"/>
	</linearGradient>
	<polygon fill="url(#XMLID_10_)" points="111.402,62.9 66.402,107.9 66.402,80.9 3.399,80.9 3.399,45 66.402,45 66.402,17.9 	"/>
	
		<linearGradient id="XMLID_11_" gradientUnits="userSpaceOnUse" x1="1186.144" y1="37.4331" x2="1204.1443" y2="93.1007" gradientTransform="matrix(-1 0 0 1 1233.999 0)">
		<stop  offset="0" style="stop-color:#ED7C00"/>
		<stop  offset="1" style="stop-color:#FFA000"/>
	</linearGradient>
	<path fill="url(#XMLID_11_)" d="M66.402,44h1V18.9l-1-1V44z M3.399,45v35.9h63.003v27l1-1v-27H4.399V45H3.399z"/>
	
		<linearGradient id="XMLID_12_" gradientUnits="userSpaceOnUse" x1="1088.7104" y1="1108.3965" x2="1052.4604" y2="1091.1465" gradientTransform="matrix(0 -1 -1 0 1146.8999 1120.8999)">
		<stop  offset="0" style="stop-color:#FABD8C"/>
		<stop  offset="1" style="stop-color:#F8A039"/>
	</linearGradient>
	<path fill="url(#XMLID_12_)" d="M59.909,68.053C83.903,63,111.402,62.9,111.402,62.9l-45-45V45H3.399v35.9h15.667
		C19.066,80.9,35.917,73.105,59.909,68.053z"/>
	<path opacity="0.2" d="M114.402,109c0,1.103,0.897,2,2,2h8c1.103,0,2-0.897,2-2V19c0-1.103-0.897-2-2-2h-8c-1.103,0-2,0.897-2,2
		V109z"/>
	<path opacity="0.2" d="M115.402,109c0,0.553,0.447,1,1,1h8c0.553,0,1-0.447,1-1V19c0-0.553-0.447-1-1-1h-8c-0.553,0-1,0.447-1,1
		V109z"/>
	
		<linearGradient id="XMLID_13_" gradientUnits="userSpaceOnUse" x1="476.646" y1="-186.8867" x2="571.3139" y2="-188.5537" gradientTransform="matrix(0 -1 1 0 307.9995 579.9995)">
		<stop  offset="0" style="stop-color:#D15F00"/>
		<stop  offset="1" style="stop-color:#D96E00"/>
	</linearGradient>
	<path fill="url(#XMLID_13_)" d="M115.402,108c0,0.553,0.447,1,1,1h8c0.553,0,1-0.447,1-1V18c0-0.553-0.447-1-1-1h-8
		c-0.553,0-1,0.447-1,1V108z"/>
	
		<linearGradient id="XMLID_14_" gradientUnits="userSpaceOnUse" x1="471.7505" y1="-185.8018" x2="559.9184" y2="-189.3018" gradientTransform="matrix(0 -1 1 0 307.9995 579.9995)">
		<stop  offset="0" style="stop-color:#ED7C00"/>
		<stop  offset="1" style="stop-color:#F89000"/>
	</linearGradient>
	<rect x="116.402" y="18" fill="url(#XMLID_14_)" width="8" height="90"/>
	
		<linearGradient id="XMLID_15_" gradientUnits="userSpaceOnUse" x1="521.7349" y1="-219.6787" x2="511.4856" y2="-142.6846" gradientTransform="matrix(0 -1 1 0 307.9995 579.9995)">
		<stop  offset="0" style="stop-color:#ED7C00"/>
		<stop  offset="1" style="stop-color:#FFB700"/>
	</linearGradient>
	<rect x="123.402" y="18" fill="url(#XMLID_15_)" width="1" height="90"/>
	
		<linearGradient id="XMLID_16_" gradientUnits="userSpaceOnUse" x1="585.6167" y1="-210.9102" x2="517.6165" y2="-176.535" gradientTransform="matrix(0 -1 1 0 307.9995 579.9995)">
		<stop  offset="0" style="stop-color:#FABD8C"/>
		<stop  offset="1" style="stop-color:#F8A039"/>
	</linearGradient>
	<polygon fill="url(#XMLID_16_)" points="124.402,62.896 124.402,18 116.402,18 116.402,63 	"/>
</svg>
