<?xml version="1.0" encoding="utf-8"?>
<!DOCTYPE svg PUBLIC "-//W3C//DTD SVG 1.1//EN" "http://www.w3.org/Graphics/SVG/1.1/DTD/svg11.dtd" [
	<!ENTITY ns_svg "http://www.w3.org/2000/svg">
	<!ENTITY ns_xlink "http://www.w3.org/1999/xlink">
]>
<svg  version="1.1" xmlns="&ns_svg;" xmlns:xlink="&ns_xlink;" width="128" height="128" viewBox="0 0 128 128"
	 overflow="visible" enable-background="new 0 0 128 128" xml:space="preserve">
	<path opacity="0.2" d="M20,2c-1.103,0-2,0.897-2,2v8c0,1.103,0.897,2,2,2h90c1.103,0,2-0.897,2-2V4c0-1.103-0.897-2-2-2H20z"/>
	<path opacity="0.2" d="M20,3c-0.553,0-1,0.447-1,1v8c0,0.553,0.447,1,1,1h90c0.553,0,1-0.447,1-1V4c0-0.553-0.447-1-1-1H20z"/>
	<linearGradient id="XMLID_8_" gradientUnits="userSpaceOnUse" x1="67.2651" y1="22.6411" x2="63.7653" y2="-1.5249">
		<stop  offset="0" style="stop-color:#D15F00"/>
		<stop  offset="1" style="stop-color:#D96E00"/>
	</linearGradient>
	<path fill="url(#XMLID_8_)" d="M20,2c-0.553,0-1,0.447-1,1v8c0,0.553,0.447,1,1,1h90c0.553,0,1-0.447,1-1V3c0-0.553-0.447-1-1-1H20
		z"/>
	<linearGradient id="XMLID_9_" gradientUnits="userSpaceOnUse" x1="27.7446" y1="0.4502" x2="118.7436" y2="16.45">
		<stop  offset="0" style="stop-color:#FABD8C"/>
		<stop  offset="1" style="stop-color:#F8A039"/>
	</linearGradient>
	<rect x="20" y="3" fill="url(#XMLID_9_)" width="90" height="8"/>
	<linearGradient id="XMLID_10_" gradientUnits="userSpaceOnUse" x1="26.2368" y1="0.4287" x2="159.9866" y2="35.1787">
		<stop  offset="0" style="stop-color:#FABD8C"/>
		<stop  offset="1" style="stop-color:#F8A039"/>
	</linearGradient>
	<rect x="20" y="10" fill="url(#XMLID_10_)" width="90" height="1"/>
	<path opacity="0.2" d="M63.585,15.486l-45,45c-0.575,0.575-0.745,1.431-0.434,2.181C18.461,63.415,19.187,63.9,20,63.9
		c0,0,23.15,0,25,0c0,1.936,0,61,0,61c0,1.103,0.897,2,2,2h36c1.103,0,2-0.897,2-2c0,0,0-59.064,0-61c1.85,0,25,0,25,0
		c0.813,0,1.538-0.485,1.848-1.235C111.849,62.662,112,61.9,112,61.9c0-0.534-0.208-1.036-0.586-1.414l-45-45
		C65.634,14.706,64.365,14.706,63.585,15.486z"/>
	<path opacity="0.2" d="M64.292,16.193l-45,45c-0.286,0.286-0.372,0.716-0.217,1.09C19.23,62.656,19.595,62.9,20,62.9
		c0,0,24.146,0,26,0c0,1.937,0,62,0,62c0,0.552,0.447,1,1,1h36c0.553,0,1-0.448,1-1c0,0,0-60.063,0-62c1.854,0,26,0,26,0
		c0.404,0,0.77-0.244,0.924-0.617C110.974,62.159,111,62.029,111,61.9c0-0.26-0.102-0.516-0.293-0.707l-45-45
		C65.316,15.802,64.683,15.802,64.292,16.193z"/>
	<linearGradient id="XMLID_11_" gradientUnits="userSpaceOnUse" x1="59.6802" y1="9.1875" x2="73.1801" y2="140.4376">
		<stop  offset="0" style="stop-color:#D15F00"/>
		<stop  offset="1" style="stop-color:#D96E00"/>
	</linearGradient>
	<path fill="url(#XMLID_11_)" d="M64.292,15.193l-45,45c-0.286,0.286-0.372,0.716-0.217,1.09C19.23,61.656,19.595,61.9,20,61.9
		c0,0,24.146,0,26,0c0,1.937,0,62,0,62c0,0.552,0.447,1,1,1h36c0.553,0,1-0.448,1-1c0,0,0-60.063,0-62c1.854,0,26,0,26,0
		c0.404,0,0.77-0.244,0.924-0.617C110.974,61.159,111,61.029,111,60.9c0-0.26-0.102-0.516-0.293-0.707l-45-45
		C65.316,14.802,64.683,14.802,64.292,15.193z"/>
	<linearGradient id="XMLID_12_" gradientUnits="userSpaceOnUse" x1="67.9292" y1="80.1787" x2="75.6792" y2="131.1787">
		<stop  offset="0" style="stop-color:#ED7C00"/>
		<stop  offset="1" style="stop-color:#F89000"/>
	</linearGradient>
	<polygon fill="url(#XMLID_12_)" points="65,15.9 20,60.9 47,60.9 47,123.9 83,123.9 83,60.9 110,60.9 	"/>
	<linearGradient id="XMLID_13_" gradientUnits="userSpaceOnUse" x1="50.6025" y1="81.8789" x2="55.4356" y2="135.8789">
		<stop  offset="0" style="stop-color:#ED7C00"/>
		<stop  offset="1" style="stop-color:#FFA000"/>
	</linearGradient>
	<path fill="url(#XMLID_13_)" d="M48,59.9H21l-1,1h27v63h36v-1H48V59.9z"/>
	<linearGradient id="XMLID_14_" gradientUnits="userSpaceOnUse" x1="60.0796" y1="44.7817" x2="69.7455" y2="76.4482">
		<stop  offset="0" style="stop-color:#FABD8C"/>
		<stop  offset="1" style="stop-color:#F8A039"/>
	</linearGradient>
	<path fill="url(#XMLID_14_)" d="M65,15.9l-45,45h27v17.85c0,0,5.844-2.432,16.672-5.091S83,70.5,83,70.5v-9.6h27L65,15.9z"/>
</svg>
