<?xml version="1.0" encoding="utf-8"?>
<!DOCTYPE svg PUBLIC "-//W3C//DTD SVG 1.1//EN" "http://www.w3.org/Graphics/SVG/1.1/DTD/svg11.dtd" [
	<!ENTITY ns_svg "http://www.w3.org/2000/svg">
	<!ENTITY ns_xlink "http://www.w3.org/1999/xlink">
]>
<svg  version="1.1" xmlns="&ns_svg;" xmlns:xlink="&ns_xlink;" width="128" height="128" viewBox="0 0 128 128"
	 overflow="visible" enable-background="new 0 0 128 128" xml:space="preserve">
	<path opacity="0.2" d="M63.585,9.486l-45,45c-0.575,0.575-0.745,1.431-0.434,2.181C18.461,57.415,19.187,57.9,20,57.9
		c0,0,23.15,0,25,0c0,1.936,0,61,0,61c0,1.103,0.897,2,2,2h36c1.103,0,2-0.897,2-2c0,0,0-59.064,0-61c1.85,0,25,0,25,0
		c0.813,0,1.538-0.485,1.848-1.235C111.849,56.662,112,55.9,112,55.9c0-0.534-0.208-1.036-0.586-1.414l-45-45
		C65.634,8.706,64.365,8.706,63.585,9.486z"/>
	<path opacity="0.2" d="M64.292,10.193l-45,45c-0.286,0.286-0.372,0.716-0.217,1.09C19.23,56.656,19.595,56.9,20,56.9
		c0,0,24.146,0,26,0c0,1.937,0,62,0,62c0,0.552,0.447,1,1,1h36c0.553,0,1-0.448,1-1c0,0,0-60.063,0-62c1.854,0,26,0,26,0
		c0.404,0,0.77-0.244,0.924-0.617C110.974,56.159,111,56.029,111,55.9c0-0.26-0.102-0.516-0.293-0.707l-45-45
		C65.316,9.802,64.683,9.802,64.292,10.193z"/>
	<linearGradient id="XMLID_5_" gradientUnits="userSpaceOnUse" x1="59.6812" y1="3.187" x2="73.1812" y2="134.4382">
		<stop  offset="0" style="stop-color:#D15F00"/>
		<stop  offset="1" style="stop-color:#D96E00"/>
	</linearGradient>
	<path fill="url(#XMLID_5_)" d="M64.292,9.193l-45,45c-0.286,0.286-0.372,0.716-0.217,1.09C19.23,55.656,19.595,55.9,20,55.9
		c0,0,24.146,0,26,0c0,1.937,0,62,0,62c0,0.552,0.447,1,1,1h36c0.553,0,1-0.448,1-1c0,0,0-60.063,0-62c1.854,0,26,0,26,0
		c0.404,0,0.77-0.244,0.924-0.617C110.974,55.159,111,55.029,111,54.9c0-0.26-0.102-0.516-0.293-0.707l-45-45
		C65.316,8.802,64.683,8.802,64.292,9.193z"/>
	<linearGradient id="XMLID_6_" gradientUnits="userSpaceOnUse" x1="67.9292" y1="74.1787" x2="75.6792" y2="125.1787">
		<stop  offset="0" style="stop-color:#ED7C00"/>
		<stop  offset="1" style="stop-color:#F89000"/>
	</linearGradient>
	<polygon fill="url(#XMLID_6_)" points="65,9.9 20,54.9 47,54.9 47,117.9 83,117.9 83,54.9 110,54.9 	"/>
	<linearGradient id="XMLID_7_" gradientUnits="userSpaceOnUse" x1="50.603" y1="75.8789" x2="55.4361" y2="129.8796">
		<stop  offset="0" style="stop-color:#ED7C00"/>
		<stop  offset="1" style="stop-color:#FFA000"/>
	</linearGradient>
	<path fill="url(#XMLID_7_)" d="M48,53.9H21l-1,1h27v63h36v-1H48V53.9z"/>
	<linearGradient id="XMLID_8_" gradientUnits="userSpaceOnUse" x1="60.0796" y1="38.7813" x2="69.7456" y2="70.4482">
		<stop  offset="0" style="stop-color:#FABD8C"/>
		<stop  offset="1" style="stop-color:#F8A039"/>
	</linearGradient>
	<path fill="url(#XMLID_8_)" d="M65,9.9l-45,45h27v17.85c0,0,5.844-2.432,16.672-5.091S83,64.5,83,64.5v-9.6h27L65,9.9z"/>
</svg>
