<?xml version="1.0" encoding="UTF-8" standalone="no"?>
<!-- Created with Inkscape (http://www.inkscape.org/) -->
<svg
   xmlns:dc="http://purl.org/dc/elements/1.1/"
   xmlns:cc="http://creativecommons.org/ns#"
   xmlns:rdf="http://www.w3.org/1999/02/22-rdf-syntax-ns#"
   xmlns:svg="http://www.w3.org/2000/svg"
   xmlns="http://www.w3.org/2000/svg"
   xmlns:xlink="http://www.w3.org/1999/xlink"
   xmlns:sodipodi="http://sodipodi.sourceforge.net/DTD/sodipodi-0.dtd"
   xmlns:inkscape="http://www.inkscape.org/namespaces/inkscape"
   version="1.0"
   width="48"
   height="48"
   id="svg2"
   sodipodi:version="0.32"
   inkscape:version="0.46"
   sodipodi:docname="eject.svg"
   inkscape:output_extension="org.inkscape.output.svg.inkscape"
   inkscape:export-filename="/home/kwwii/Desktop/eject.png"
   inkscape:export-xdpi="90"
   inkscape:export-ydpi="90">
  <metadata
     id="metadata38">
    <rdf:RDF>
      <cc:Work
         rdf:about="">
        <dc:format>image/svg+xml</dc:format>
        <dc:type
           rdf:resource="http://purl.org/dc/dcmitype/StillImage" />
      </cc:Work>
    </rdf:RDF>
  </metadata>
  <sodipodi:namedview
     inkscape:window-height="480"
     inkscape:window-width="640"
     inkscape:pageshadow="2"
     inkscape:pageopacity="0"
     guidetolerance="10.0"
     gridtolerance="10.0"
     objecttolerance="10.0"
     borderopacity="1.0"
     bordercolor="#666666"
     pagecolor="#131313"
     id="base"
     showgrid="false"
     inkscape:zoom="1"
     inkscape:cx="27.44577"
     inkscape:cy="21.70152"
     inkscape:current-layer="svg2"
     showborder="false"
     inkscape:showpageshadow="false"
     showguides="true"
     inkscape:guide-bbox="true">
    <inkscape:grid
       type="xygrid"
       id="grid2413"
       visible="true"
       enabled="true" />
  </sodipodi:namedview>
  <defs
     id="defs4">
    <linearGradient
       id="linearGradient3398">
      <stop
         offset="0"
         style="stop-color:#666666;stop-opacity:1"
         id="stop3400" />
      <stop
         offset="0.4898088"
         style="stop-color:#b6b6b6;stop-opacity:1"
         id="stop3402" />
      <stop
         offset="1"
         style="stop-color:#ffffff;stop-opacity:1"
         id="stop3404" />
    </linearGradient>
    <linearGradient
       inkscape:collect="always"
       id="linearGradient3320">
      <stop
         style="stop-color:#ffffff;stop-opacity:1;"
         offset="0"
         id="stop3322" />
      <stop
         style="stop-color:#ffffff;stop-opacity:0;"
         offset="1"
         id="stop3324" />
    </linearGradient>
    <linearGradient
       inkscape:collect="always"
       id="linearGradient3294">
      <stop
         style="stop-color:#ffffff;stop-opacity:1;"
         offset="0"
         id="stop3296" />
      <stop
         style="stop-color:#ffffff;stop-opacity:0;"
         offset="1"
         id="stop3298" />
    </linearGradient>
    <linearGradient
       id="linearGradient3245">
      <stop
         offset="0"
         style="stop-color:#666666;stop-opacity:1"
         id="stop3247" />
      <stop
         offset="0.56154251"
         style="stop-color:#b6b6b6;stop-opacity:1"
         id="stop3249" />
      <stop
         offset="1"
         style="stop-color:#ffffff;stop-opacity:1"
         id="stop3251" />
    </linearGradient>
    <linearGradient
       inkscape:collect="always"
       xlink:href="#linearGradient3398"
       id="linearGradient3195"
       x1="24"
       y1="47"
       x2="24"
       y2="25.942736"
       gradientUnits="userSpaceOnUse"
       gradientTransform="matrix(1,0,0,0.8181818,0,4.3636364)" />
    <linearGradient
       inkscape:collect="always"
       xlink:href="#linearGradient3245"
       id="linearGradient3243"
       x1="24"
       y1="31.787506"
       x2="24"
       y2="0.5"
       gradientUnits="userSpaceOnUse" />
    <linearGradient
       inkscape:collect="always"
       xlink:href="#linearGradient3294"
       id="linearGradient3300"
       x1="24"
       y1="-7.8201709"
       x2="24"
       y2="20.585911"
       gradientUnits="userSpaceOnUse" />
    <linearGradient
       inkscape:collect="always"
       xlink:href="#linearGradient3320"
       id="linearGradient3326"
       x1="22"
       y1="20.980087"
       x2="22"
       y2="46.099751"
       gradientUnits="userSpaceOnUse"
       gradientTransform="translate(0,-3)" />
  </defs>
  <rect
     style="opacity:0.4;fill:#000000;fill-opacity:1;fill-rule:nonzero;stroke:none;stroke-width:0.5;stroke-linecap:round;stroke-linejoin:round;marker:none;marker-start:none;marker-mid:none;marker-end:none;stroke-miterlimit:4;stroke-dasharray:none;stroke-dashoffset:0;stroke-opacity:1;visibility:visible;display:inline;overflow:visible;enable-background:accumulate"
     id="rect2415"
     width="48"
     height="13"
     x="0"
     y="31"
     rx="3"
     ry="3" />
  <rect
     style="opacity:1;fill:url(#linearGradient3195);fill-opacity:1;fill-rule:nonzero;stroke:none;stroke-width:0.50000000000000000;stroke-linecap:round;stroke-linejoin:round;marker:none;marker-start:none;marker-mid:none;marker-end:none;stroke-miterlimit:4;stroke-dasharray:none;stroke-dashoffset:0;stroke-opacity:1;visibility:visible;display:inline;overflow:visible;enable-background:accumulate"
     id="rect3187"
     width="44"
     height="9"
     x="2"
     y="33"
     rx="1"
     ry="1" />
  <path
     style="fill:#000000;fill-opacity:1;fill-rule:evenodd;stroke:none;stroke-width:6.11111116000000010;stroke-linecap:round;stroke-linejoin:round;stroke-miterlimit:4;stroke-dasharray:none;stroke-opacity:1;opacity:0.4"
     d="M 23.78125,0.9375 C 23.001104,0.998464 22.274072,1.3563874 21.75,1.9375 L 1.4375,23.9375 C 0.6160926,24.830216 0.40052462,26.124282 0.88818541,27.235065 C 1.3758462,28.345848 2.4743836,29.06299 3.6875,29.0625 L 44.3125,29.0625 C 45.525616,29.06299 46.624154,28.345848 47.111815,27.235065 C 47.599475,26.124282 47.383907,24.830216 46.5625,23.9375 L 26.25,1.9375 C 25.623294,1.2441941 24.713787,0.87578603 23.78125,0.9375 L 23.78125,0.9375 z"
     id="path3259" />
  <path
     style="fill:url(#linearGradient3243);fill-opacity:1;fill-rule:evenodd;stroke:none;stroke-width:2;stroke-linecap:round;stroke-linejoin:round;stroke-miterlimit:4;stroke-dasharray:none;stroke-opacity:1"
     d="M 23.8125,3 C 23.595694,3.0393553 23.397954,3.1492107 23.25,3.3125 L 2.96875,25.3125 C 2.6951075,25.601651 2.6190204,26.025563 2.7750231,26.39183 C 2.9310259,26.758098 3.2894054,26.996959 3.6875,27 L 44.3125,27 C 44.710595,26.996959 45.068974,26.758098 45.224977,26.39183 C 45.38098,26.025563 45.304892,25.601651 45.03125,25.3125 L 24.75,3.3125 C 24.514385,3.0504327 24.158232,2.931715 23.8125,3 L 23.8125,3 z"
     id="path3235" />
  <path
     style="fill:url(#linearGradient3300);fill-opacity:1;fill-rule:evenodd;stroke:none;stroke-width:2;stroke-linecap:round;stroke-linejoin:round;stroke-miterlimit:4;stroke-dasharray:none;stroke-opacity:1"
     d="M 24.0625 2.96875 C 23.976811 2.963128 23.898933 2.9829288 23.8125 3 C 23.595694 3.0393553 23.397954 3.1492107 23.25 3.3125 L 2.96875 25.3125 C 2.6951075 25.601651 2.6252473 26.039983 2.78125 26.40625 C 2.885788 26.651687 3.0751575 26.839105 3.3125 26.9375 L 23.25 5.3125 C 23.397954 5.1492107 23.595694 5.0393553 23.8125 5 C 24.158232 4.931715 24.514385 5.0504327 24.75 5.3125 L 44.6875 26.9375 C 44.924842 26.839106 45.114212 26.651687 45.21875 26.40625 C 45.374754 26.039983 45.304892 25.601651 45.03125 25.3125 L 24.75 3.3125 C 24.573289 3.1159495 24.319568 2.985616 24.0625 2.96875 z "
     id="path3285" />
  <path
     style="fill:#000000;fill-opacity:0.14851485;fill-rule:evenodd;stroke:none;stroke-width:2;stroke-linecap:round;stroke-linejoin:round;stroke-miterlimit:4;stroke-dasharray:none;stroke-opacity:1"
     d="M 2.84375 25.5 C 2.6844505 25.769889 2.6550456 26.109944 2.78125 26.40625 C 2.9372529 26.772518 3.2894054 26.996959 3.6875 27 L 44.3125 27 C 44.710595 26.996959 45.062747 26.772518 45.21875 26.40625 C 45.344956 26.109944 45.31555 25.769889 45.15625 25.5 C 44.981524 25.808381 44.672575 25.997249 44.3125 26 L 3.6875 26 C 3.3274257 25.997249 3.0184761 25.808381 2.84375 25.5 z "
     id="path3302" />
  <path
     style="opacity:1;fill:url(#linearGradient3326);fill-opacity:1;fill-rule:nonzero;stroke:none;stroke-width:0.5;stroke-linecap:round;stroke-linejoin:round;marker:none;marker-start:none;marker-mid:none;marker-end:none;stroke-miterlimit:4;stroke-dasharray:none;stroke-dashoffset:0;stroke-opacity:1;visibility:visible;display:inline;overflow:visible;enable-background:accumulate"
     d="M 4,33 C 2.892,33 2,33.892 2,35 L 2,40 C 2,40.816003 2.4899173,41.50083 3.1875,41.8125 C 3.0759726,41.562879 3,41.291997 3,41 L 3,36 C 3,34.892 3.892,34 5,34 L 43,34 C 44.108,34 45,34.892 45,36 L 45,41 C 45,41.291997 44.924027,41.562879 44.8125,41.8125 C 45.510083,41.50083 46,40.816003 46,40 L 46,35 C 46,33.892 45.108,33 44,33 L 4,33 z"
     id="rect3311"
     sodipodi:nodetypes="ccccccccccccccc" />
  <rect
     style="opacity:0.40000000000000002;fill:#000000;fill-opacity:0.1980198;fill-rule:nonzero;stroke:none;stroke-width:2;stroke-linecap:round;stroke-linejoin:round;marker:none;marker-start:none;marker-mid:none;marker-end:none;stroke-miterlimit:4;stroke-dasharray:none;stroke-dashoffset:0;stroke-opacity:1;visibility:visible;display:inline;overflow:visible;enable-background:accumulate"
     id="rect3406"
     width="42"
     height="1"
     x="3"
     y="41" />
</svg>
