<?xml version="1.0" encoding="UTF-8" standalone="no"?>
<svg
   xmlns:dc="http://purl.org/dc/elements/1.1/"
   xmlns:cc="http://creativecommons.org/ns#"
   xmlns:rdf="http://www.w3.org/1999/02/22-rdf-syntax-ns#"
   xmlns:svg="http://www.w3.org/2000/svg"
   xmlns="http://www.w3.org/2000/svg"
   xmlns:xlink="http://www.w3.org/1999/xlink"
   xmlns:sodipodi="http://sodipodi.sourceforge.net/DTD/sodipodi-0.dtd"
   xmlns:inkscape="http://www.inkscape.org/namespaces/inkscape"
   version="1.1"
   width="128"
   height="128"
   viewBox="0 0 128 128"
   overflow="visible"
   enable-background="new 0 0 128 128"
   xml:space="preserve"
   id="svg2"
   sodipodi:version="0.32"
   inkscape:version="0.46"
   sodipodi:docname="system-shutdown.svg"
   inkscape:output_extension="org.inkscape.output.svg.inkscape"
   inkscape:export-filename="/home/kwwii/bzr/hit/32x32/system-shutdown.png"
   inkscape:export-xdpi="22.5"
   inkscape:export-ydpi="22.5"><metadata
   id="metadata385"><rdf:RDF><cc:Work
       rdf:about=""><dc:format>image/svg+xml</dc:format><dc:type
         rdf:resource="http://purl.org/dc/dcmitype/StillImage" /></cc:Work></rdf:RDF></metadata><defs
   id="defs383"><linearGradient
     inkscape:collect="always"
     id="linearGradient5068"><stop
       style="stop-color:#ffffff;stop-opacity:1;"
       offset="0"
       id="stop5070" /><stop
       style="stop-color:#ffffff;stop-opacity:0;"
       offset="1"
       id="stop5072" /></linearGradient><linearGradient
     inkscape:collect="always"
     id="linearGradient5020"><stop
       style="stop-color:#ffffff;stop-opacity:1;"
       offset="0"
       id="stop5022" /><stop
       style="stop-color:#ffffff;stop-opacity:0;"
       offset="1"
       id="stop5024" /></linearGradient><linearGradient
     id="linearGradient4993"><stop
       style="stop-color:#171366;stop-opacity:1;"
       offset="0"
       id="stop4995" /><stop
       style="stop-color:#ffffff;stop-opacity:1;"
       offset="1"
       id="stop4997" /></linearGradient><linearGradient
     id="linearGradient4985"><stop
       style="stop-color:#ffffff;stop-opacity:1;"
       offset="0"
       id="stop4987" /><stop
       style="stop-color:#03005b;stop-opacity:1;"
       offset="1"
       id="stop4989" /></linearGradient><linearGradient
     id="linearGradient3784"><stop
       style="stop-color:#ffffff;stop-opacity:1;"
       offset="0"
       id="stop3786" /><stop
       style="stop-color:#ffdb13;stop-opacity:1;"
       offset="1"
       id="stop3788" /></linearGradient><linearGradient
     id="linearGradient3772"><stop
       style="stop-color:#ffffff;stop-opacity:1;"
       offset="0"
       id="stop3774" /><stop
       id="stop3780"
       offset="0.24013792"
       style="stop-color:#ffffff;stop-opacity:0.65811968;" /><stop
       style="stop-color:#ffffff;stop-opacity:1;"
       offset="1"
       id="stop3782" /></linearGradient><radialGradient
     inkscape:collect="always"
     xlink:href="#XMLID_23_"
     id="radialGradient3536"
     gradientUnits="userSpaceOnUse"
     gradientTransform="matrix(2.2142053,4.6072798e-8,-4.490938e-8,2.1582928,-84.690817,-83.791302)"
     cx="69.75"
     cy="78.25"
     r="61.7911"
     fx="69.75"
     fy="78.25" /><radialGradient
     inkscape:collect="always"
     xlink:href="#linearGradient3772"
     id="radialGradient3778"
     cx="78.935974"
     cy="65.034019"
     fx="78.935974"
     fy="65.034019"
     r="29.765625"
     gradientTransform="matrix(0.803773,-3.1865204e-2,1.0057531e-2,0.2536926,6.6826717,44.573314)"
     gradientUnits="userSpaceOnUse" /><radialGradient
     inkscape:collect="always"
     xlink:href="#linearGradient3784"
     id="radialGradient3790"
     cx="88.49247"
     cy="65.335815"
     fx="88.49247"
     fy="65.335815"
     r="19.210243"
     gradientTransform="matrix(0.882479,0.5139607,-1.1659271,1.8716249,74.523167,-101.29703)"
     gradientUnits="userSpaceOnUse" /><linearGradient
     inkscape:collect="always"
     xlink:href="#linearGradient4985"
     id="linearGradient4991"
     x1="75.539017"
     y1="53.079967"
     x2="85.15625"
     y2="50"
     gradientUnits="userSpaceOnUse"
     gradientTransform="matrix(0.8942443,0,0,0.8942443,6.5260001,5.1551509)" /><linearGradient
     inkscape:collect="always"
     xlink:href="#linearGradient4993"
     id="linearGradient4999"
     x1="59.125"
     y1="53.764862"
     x2="69"
     y2="56.328125"
     gradientUnits="userSpaceOnUse"
     gradientTransform="matrix(0.8942443,0,0,0.8942443,6.5260001,5.1551509)" /><linearGradient
     inkscape:collect="always"
     xlink:href="#linearGradient5020"
     id="linearGradient5026"
     x1="71.375"
     y1="46"
     x2="71.375"
     y2="61.150288"
     gradientUnits="userSpaceOnUse"
     gradientTransform="matrix(0.7291567,0,0,0.7685057,19.829394,11.097707)" /><linearGradient
     inkscape:collect="always"
     xlink:href="#linearGradient5068"
     id="linearGradient5074"
     x1="72.535904"
     y1="63.92775"
     x2="72.535904"
     y2="55.958794"
     gradientUnits="userSpaceOnUse"
     gradientTransform="matrix(0.8942443,0,0,0.8942443,6.5260001,5.2936534)" /><filter
     inkscape:collect="always"
     id="filter3480"
     x="-0.071276437"
     width="1.1425529"
     y="-0.10513274"
     height="1.2102655"><feGaussianBlur
       inkscape:collect="always"
       stdDeviation="3.5044248"
       id="feGaussianBlur3482" /></filter></defs><sodipodi:namedview
   inkscape:window-height="480"
   inkscape:window-width="640"
   inkscape:pageshadow="2"
   inkscape:pageopacity="0.0"
   guidetolerance="10.0"
   gridtolerance="10"
   objecttolerance="10.0"
   borderopacity="1.0"
   bordercolor="#666666"
   pagecolor="#ffffff"
   id="base"
   showgrid="false"
   inkscape:zoom="1"
   inkscape:cx="-108.0807"
   inkscape:cy="40.497614"
   inkscape:current-layer="svg2"
   inkscape:object-nodes="true"
   showguides="true"
   inkscape:guide-bbox="true"><inkscape:grid
     type="xygrid"
     id="grid2760"
     visible="true"
     enabled="true"
     empspacing="10" /></sodipodi:namedview>
	<path
   d="M 11.172,26.845118 C 9.697,26.845118 6,29.444118 6,30.467118 L 6,105.84512 C 6,106.39812 6.447,106.84512 7,106.84512 L 123,106.84512 C 123.553,106.84512 124,106.39812 124,105.84512 L 124,30.467118 C 124,29.288118 120.037,26.845118 118.66,26.845118 L 11.172,26.845118 z"
   id="path6"
   style="opacity:0.59459462;fill:#000000;fill-opacity:1;filter:url(#filter3480)"
   transform="matrix(1,0,0,1.05,0,-5.3422559)" /><path
   d="M 11.172,20.845118 C 9.697,20.845118 6,23.444118 6,24.467118 L 6,99.845118 C 6,100.39812 6.447,100.84512 7,100.84512 L 123,100.84512 C 123.553,100.84512 124,100.39812 124,99.845118 L 124,24.467118 C 124,23.288118 120.037,20.845118 118.66,20.845118 L 11.172,20.845118 z"
   id="path12"
   style="opacity:0.7;fill:#6d6d70" /><rect
   x="7"
   y="29.845118"
   width="116"
   height="55"
   id="rect23"
   style="fill:url(#XMLID_19_)" /><rect
   x="10"
   y="29.845118"
   width="110"
   height="55"
   id="rect62"
   style="fill:url(#XMLID_22_)" /><rect
   style="opacity:0.8;fill:url(#radialGradient3536);fill-opacity:1;fill-rule:nonzero;stroke:none;stroke-width:1;stroke-linecap:butt;stroke-linejoin:miter;marker:none;marker-start:none;marker-mid:none;marker-end:none;stroke-miterlimit:4;stroke-dasharray:none;stroke-dashoffset:0;stroke-opacity:1;visibility:visible;display:inline;overflow:visible;enable-background:accumulate"
   id="rect2762"
   width="108"
   height="53"
   x="11"
   y="30.845118" /><path
   style="opacity:1;fill:url(#radialGradient3778);fill-opacity:1;fill-rule:nonzero;stroke:none;stroke-width:1;stroke-linecap:butt;stroke-linejoin:miter;marker:none;marker-start:none;marker-mid:none;marker-end:none;stroke-miterlimit:4;stroke-dasharray:none;stroke-dashoffset:0;stroke-opacity:0.54411765000000001;visibility:visible;display:inline;overflow:visible;enable-background:accumulate"
   d="M 76.724175,49.867365 C 73.022004,49.867365 70.017343,51.870472 70.017343,54.338586 C 70.017343,54.464032 70.030067,54.57903 70.045288,54.701873 C 69.359962,54.704165 68.694383,54.728737 68.033239,54.757763 C 67.46258,52.673183 65.57536,51.124896 63.310511,51.124896 C 61.180178,51.124896 59.382591,52.498546 58.699564,54.394476 C 57.053319,53.811443 54.925206,53.444342 52.57958,53.444342 C 47.39654,53.444342 43.190015,55.178192 43.190015,57.30077 C 43.190015,59.251659 46.750816,60.825174 51.349994,61.073363 C 51.243515,61.345357 51.182323,61.643027 51.182323,61.939662 C 51.182323,63.667342 53.10359,65.069517 55.485874,65.069517 C 57.430038,65.069517 59.082367,64.144371 59.621754,62.861852 C 62.383526,63.668411 66.108009,64.175274 70.212959,64.175273 C 71.198519,64.175273 72.157052,64.145969 73.091308,64.091437 C 73.959071,64.848077 75.181396,65.348968 76.556504,65.348968 C 78.612835,65.348968 80.366962,64.286678 81.027726,62.805961 C 81.136124,62.773093 81.229909,62.728018 81.335122,62.694181 C 82.300454,62.809653 83.328787,62.861852 84.381142,62.861852 C 90.533042,62.861852 95.53125,60.769046 95.53125,58.167069 C 95.53125,56.748736 94.020952,55.482414 91.674822,54.618037 C 91.91058,54.277869 92.038108,53.872702 92.038108,53.444342 C 92.038108,52.210285 90.913855,51.208731 89.523046,51.208731 C 88.132237,51.208731 87.007984,52.210285 87.007984,53.444342 C 87.007984,53.492992 87.032478,53.536187 87.035929,53.584067 C 86.179923,53.494885 85.301936,53.444342 84.381142,53.444342 C 84.015396,53.444342 83.648031,53.457699 83.291282,53.472287 C 82.680503,51.422649 79.977186,49.867365 76.724175,49.867365 z"
   id="path3629" />
	
	
	
	
	<linearGradient
   id="XMLID_19_"
   gradientUnits="userSpaceOnUse"
   x1="65"
   y1="22.9995"
   x2="65"
   y2="78.0005"
   gradientTransform="translate(0,6.8451178)">
		<stop
   offset="0"
   style="stop-color:#868982"
   id="stop15" />
		<stop
   offset="0.02"
   style="stop-color:#D1D6CD"
   id="stop17" />
		<stop
   offset="0.9551"
   style="stop-color:#D1D6CD"
   id="stop19" />
		<stop
   offset="0.9831"
   style="stop-color:#868982"
   id="stop21" />
	</linearGradient>
	
	<linearGradient
   id="XMLID_20_"
   gradientUnits="userSpaceOnUse"
   x1="65"
   y1="78"
   x2="65"
   y2="92.3614"
   gradientTransform="translate(0,6.8451178)">
		<stop
   offset="0.0843"
   style="stop-color:#D1D2CD"
   id="stop26" />
		<stop
   offset="0.1517"
   style="stop-color:#C5C9C0"
   id="stop28" />
		<stop
   offset="0.7472"
   style="stop-color:#C3C7BD"
   id="stop30" />
		<stop
   offset="0.8764"
   style="stop-color:#D1D2CD"
   id="stop32" />
		<stop
   offset="1"
   style="stop-color:#B1B4AD"
   id="stop34" />
	</linearGradient>
	<rect
   x="7"
   y="84.845116"
   width="116"
   height="15"
   id="rect36"
   style="fill:url(#XMLID_20_)" />
	<linearGradient
   id="XMLID_21_"
   gradientUnits="userSpaceOnUse"
   x1="65"
   y1="15"
   x2="65"
   y2="22.9995"
   gradientTransform="translate(0,6.8451178)">
		<stop
   offset="0"
   style="stop-color:#D5D8D2"
   id="stop39" />
		<stop
   offset="0.06"
   style="stop-color:#D9DCD6"
   id="stop41" />
		<stop
   offset="0.123"
   style="stop-color:#E4E7E3"
   id="stop43" />
		<stop
   offset="0.1854"
   style="stop-color:#F7F8F7"
   id="stop45" />
		<stop
   offset="0.2525"
   style="stop-color:#E3E6E1"
   id="stop47" />
		<stop
   offset="0.3297"
   style="stop-color:#D3D7D0"
   id="stop49" />
		<stop
   offset="0.4138"
   style="stop-color:#CACFC6"
   id="stop51" />
		<stop
   offset="0.5169"
   style="stop-color:#C7CCC3"
   id="stop53" />
	</linearGradient>
	<path
   d="M 119,21.845118 C 119.363,21.845118 123,23.845118 123,24.467118 C 123,25.089118 123,29.845118 123,29.845118 L 7,29.845118 C 7,29.845118 7,24.845118 7,24.468118 C 7,24.091118 10.363,21.845118 11,21.845118 L 119,21.845118 z"
   id="path55"
   style="fill:url(#XMLID_21_)" />
	<linearGradient
   id="XMLID_22_"
   gradientUnits="userSpaceOnUse"
   x1="87.1416"
   y1="71.5352"
   x2="27.1421"
   y2="14.5356"
   gradientTransform="translate(0,6.8451178)">
		<stop
   offset="0"
   style="stop-color:#091A4B"
   id="stop58" />
		<stop
   offset="1"
   style="stop-color:#141414"
   id="stop60" />
	</linearGradient>
	<path
   d="M 11,30.845118 L 11,70.802118 C 23.658,64.852118 40.222,59.699118 64.26,56.614118 C 79.291,54.684118 97.237,53.560118 119,53.560118 L 119,30.845118 L 11,30.845118 z"
   id="path78"
   style="opacity:0.35;fill:url(#XMLID_24_)" />
	<radialGradient
   id="XMLID_23_"
   cx="69.75"
   cy="78.25"
   r="61.7911"
   gradientUnits="userSpaceOnUse"
   gradientTransform="translate(0,7)">
		<stop
   offset="0.2079"
   style="stop-color:#0E4EB0"
   id="stop65" />
		<stop
   offset="1"
   style="stop-color:#122035"
   id="stop67" />
	</radialGradient>
	<path
   style="opacity:1;fill:url(#linearGradient5026);fill-opacity:1;fill-rule:nonzero;stroke:none;stroke-width:1;stroke-linecap:butt;stroke-linejoin:miter;marker:none;marker-start:none;marker-mid:none;marker-end:none;stroke-miterlimit:4;stroke-dasharray:none;stroke-dashoffset:0;stroke-opacity:0.54411765000000001;visibility:visible;display:inline;overflow:visible;enable-background:accumulate"
   d="M 78.161938,46.448972 C 75.672752,46.448972 73.485002,47.508099 72.169179,49.114727 C 70.500997,48.40461 68.407612,47.985983 66.130851,47.985983 C 60.697174,47.985983 56.287234,50.396019 56.287234,53.365524 C 56.287234,56.335031 60.697174,58.745065 66.130851,58.745065 C 68.909079,58.745065 71.404211,58.100705 73.194558,57.087975 C 74.497596,58.113809 76.239935,58.745065 78.161938,58.745065 C 82.186883,58.745065 85.453505,55.99074 85.453505,52.597018 C 85.453505,49.203297 82.186883,46.448972 78.161938,46.448972 z"
   id="path5003" /><path
   style="opacity:1;fill:#ffffff;fill-opacity:1;fill-rule:nonzero;stroke:none;stroke-width:1;stroke-linecap:butt;stroke-linejoin:miter;marker:none;marker-start:none;marker-mid:none;marker-end:none;stroke-miterlimit:4;stroke-dasharray:none;stroke-dashoffset:0;stroke-opacity:0.54411765000000001;visibility:visible;display:inline;overflow:visible;enable-background:accumulate"
   d="M 66.13297,47.993817 C 60.699296,47.993818 56.296283,50.389778 56.296283,53.359283 C 56.296283,53.498268 56.305064,53.642076 56.324228,53.77846 C 56.567288,53.822214 56.819023,53.866412 57.050801,53.918186 C 57.264232,51.051573 61.562045,48.748336 66.859543,48.748336 C 70.374956,48.748336 73.445767,49.747006 75.187193,51.263398 C 73.692193,49.332816 70.208226,47.993817 66.13297,47.993817 z"
   id="path5007"
   sodipodi:nodetypes="csccscc" />
	<linearGradient
   id="XMLID_24_"
   gradientUnits="userSpaceOnUse"
   x1="124.8711"
   y1="56.9932"
   x2="9.8711"
   y2="31.9931"
   gradientTransform="translate(0,6.8451178)">
		<stop
   offset="0"
   style="stop-color:#ffffff;stop-opacity:0.1965812;"
   id="stop72" />
		<stop
   offset="0.52810001"
   style="stop-color:#ffffff;stop-opacity:0.6837607;"
   id="stop74" />
		<stop
   offset="1"
   style="stop-color:#ffffff;stop-opacity:0;"
   id="stop76" />
	</linearGradient>
	
	
	<rect
   x="16"
   y="91.845116"
   width="2"
   height="2"
   id="rect82"
   style="fill:#ced4c8" />
	<rect
   x="13"
   y="94.845116"
   width="2"
   height="2"
   id="rect84"
   style="fill:#ced4c8" />
	
	<rect
   x="22"
   y="91.845116"
   width="2"
   height="2"
   id="rect88"
   style="fill:#ced4c8" />
	<rect
   x="19"
   y="94.845116"
   width="2"
   height="2"
   id="rect90"
   style="fill:#ced4c8" />
	
	<rect
   x="25"
   y="94.845116"
   width="2"
   height="2"
   id="rect94"
   style="fill:#ced4c8" />
	
	
	<rect
   x="105"
   y="94.845116"
   width="2"
   height="2"
   id="rect100"
   style="fill:#ced4c8" />
	
	
	<rect
   x="111"
   y="94.845116"
   width="2"
   height="2"
   id="rect106"
   style="fill:#ced4c8" />
	
	<rect
   x="117"
   y="94.845116"
   width="2"
   height="2"
   id="rect110"
   style="fill:#ced4c8" />
	<rect
   x="12"
   y="87.845116"
   width="2"
   height="2"
   id="rect112"
   style="fill:#7d8079" />
	<rect
   x="15"
   y="90.845116"
   width="2"
   height="2"
   id="rect114"
   style="fill:#7d8079" />
	<rect
   x="12"
   y="93.845116"
   width="2"
   height="2"
   id="rect116"
   style="fill:#7d8079" />
	
	<rect
   x="21"
   y="90.845116"
   width="2"
   height="2"
   id="rect120"
   style="fill:#7d8079" />
	<rect
   x="18"
   y="93.845116"
   width="2"
   height="2"
   id="rect122"
   style="fill:#7d8079" />
	
	<rect
   x="24"
   y="93.845116"
   width="2"
   height="2"
   id="rect126"
   style="fill:#7d8079" />
	
	
	<rect
   x="104"
   y="93.845116"
   width="2"
   height="2"
   id="rect132"
   style="fill:#7d8079" />
	
	
	<rect
   x="110"
   y="93.845116"
   width="2"
   height="2"
   id="rect138"
   style="fill:#7d8079" />
	
	<rect
   x="116"
   y="93.845116"
   width="2"
   height="2"
   id="rect142"
   style="fill:#7d8079" />
	<linearGradient
   id="XMLID_25_"
   gradientUnits="userSpaceOnUse"
   x1="22.1934"
   y1="106.0117"
   x2="109.9467"
   y2="106.0117">
		<stop
   offset="0"
   style="stop-color:#666566"
   id="stop145" />
		<stop
   offset="0.4402"
   style="stop-color:#4C4B4C"
   id="stop147" />
		<stop
   offset="1"
   style="stop-color:#2E2E2E"
   id="stop149" />
	</linearGradient>
	
	<linearGradient
   id="XMLID_26_"
   gradientUnits="userSpaceOnUse"
   x1="25.4814"
   y1="107"
   x2="106.4324"
   y2="107">
		<stop
   offset="0"
   style="stop-color:#757475"
   id="stop154" />
		<stop
   offset="0.4823"
   style="stop-color:#565556"
   id="stop156" />
		<stop
   offset="1"
   style="stop-color:#383838"
   id="stop158" />
	</linearGradient>
	
	
	<linearGradient
   id="XMLID_27_"
   gradientUnits="userSpaceOnUse"
   x1="22.1934"
   y1="111.0117"
   x2="109.9467"
   y2="111.0117">
		<stop
   offset="0"
   style="stop-color:#303030"
   id="stop165" />
		<stop
   offset="0.2022"
   style="stop-color:#282828"
   id="stop167" />
		<stop
   offset="1"
   style="stop-color:#0A0A0A"
   id="stop169" />
	</linearGradient>
	
	<linearGradient
   id="XMLID_28_"
   gradientUnits="userSpaceOnUse"
   x1="65"
   y1="94"
   x2="65"
   y2="103.9578">
		<stop
   offset="0"
   style="stop-color:#030303"
   id="stop174" />
		<stop
   offset="0.1033"
   style="stop-color:#101010"
   id="stop176" />
		<stop
   offset="0.3596"
   style="stop-color:#2E2E2E"
   id="stop178" />
		<stop
   offset="0.8034"
   style="stop-color:#464646"
   id="stop180" />
		<stop
   offset="1"
   style="stop-color:#6D6D73"
   id="stop182" />
	</linearGradient>
	
	<rect
   x="98"
   y="87.845116"
   width="2"
   height="8"
   id="rect186"
   style="fill:#ced4c8" />
	<rect
   x="94"
   y="87.845116"
   width="2"
   height="8"
   id="rect188"
   style="fill:#ced4c8" />
	<rect
   x="90"
   y="87.845116"
   width="2"
   height="8"
   id="rect190"
   style="fill:#ced4c8" />
	<rect
   x="86"
   y="87.845116"
   width="2"
   height="8"
   id="rect192"
   style="fill:#ced4c8" />
	<linearGradient
   id="XMLID_29_"
   gradientUnits="userSpaceOnUse"
   x1="98"
   y1="81"
   x2="98"
   y2="89"
   gradientTransform="translate(0,6.8451178)">
		<stop
   offset="0"
   style="stop-color:#4e0000;stop-opacity:1;"
   id="stop195" />
		<stop
   offset="0.1365"
   style="stop-color:#860000;stop-opacity:1;"
   id="stop197" />
		<stop
   offset="0.30340001"
   style="stop-color:#bc0000;stop-opacity:1;"
   id="stop199" />
		
		<stop
   offset="0.7022"
   style="stop-color:#940000;stop-opacity:1;"
   id="stop203" />
		<stop
   offset="1"
   style="stop-color:#5a0000;stop-opacity:1;"
   id="stop205" />
	</linearGradient>
	<rect
   x="97"
   y="87.845116"
   width="2"
   height="8"
   id="rect207"
   style="fill:url(#XMLID_29_)" />
	<linearGradient
   id="XMLID_30_"
   gradientUnits="userSpaceOnUse"
   x1="94"
   y1="88"
   x2="94"
   y2="82"
   gradientTransform="translate(0,6.8451178)">
		<stop
   offset="0"
   style="stop-color:#D1D6CC"
   id="stop210" />
		<stop
   offset="0.0406"
   style="stop-color:#C7CBC2"
   id="stop212" />
		<stop
   offset="0.1535"
   style="stop-color:#AFB3AA"
   id="stop214" />
		<stop
   offset="0.2815"
   style="stop-color:#9DA098"
   id="stop216" />
		<stop
   offset="0.4311"
   style="stop-color:#90938C"
   id="stop218" />
		<stop
   offset="0.6226"
   style="stop-color:#888B84"
   id="stop220" />
		<stop
   offset="1"
   style="stop-color:#868982"
   id="stop222" />
	</linearGradient>
	<rect
   x="93"
   y="87.845116"
   width="2"
   height="8"
   id="rect224"
   style="fill:url(#XMLID_30_)" />
	<linearGradient
   id="XMLID_31_"
   gradientUnits="userSpaceOnUse"
   x1="90"
   y1="88"
   x2="90"
   y2="82"
   gradientTransform="translate(0,6.8451178)">
		<stop
   offset="0"
   style="stop-color:#D1D6CC"
   id="stop227" />
		<stop
   offset="0.0406"
   style="stop-color:#C7CBC2"
   id="stop229" />
		<stop
   offset="0.1535"
   style="stop-color:#AFB3AA"
   id="stop231" />
		<stop
   offset="0.2815"
   style="stop-color:#9DA098"
   id="stop233" />
		<stop
   offset="0.4311"
   style="stop-color:#90938C"
   id="stop235" />
		<stop
   offset="0.6226"
   style="stop-color:#888B84"
   id="stop237" />
		<stop
   offset="1"
   style="stop-color:#868982"
   id="stop239" />
	</linearGradient>
	<rect
   x="89"
   y="87.845116"
   width="2"
   height="8"
   id="rect241"
   style="fill:url(#XMLID_31_)" />
	<linearGradient
   id="XMLID_32_"
   gradientUnits="userSpaceOnUse"
   x1="86"
   y1="88"
   x2="86"
   y2="82"
   gradientTransform="translate(0,6.8451178)">
		<stop
   offset="0"
   style="stop-color:#D1D6CC"
   id="stop244" />
		<stop
   offset="0.0406"
   style="stop-color:#C7CBC2"
   id="stop246" />
		<stop
   offset="0.1535"
   style="stop-color:#AFB3AA"
   id="stop248" />
		<stop
   offset="0.2815"
   style="stop-color:#9DA098"
   id="stop250" />
		<stop
   offset="0.4311"
   style="stop-color:#90938C"
   id="stop252" />
		<stop
   offset="0.6226"
   style="stop-color:#888B84"
   id="stop254" />
		<stop
   offset="1"
   style="stop-color:#868982"
   id="stop256" />
	</linearGradient>
	<rect
   x="85"
   y="87.845116"
   width="2"
   height="8"
   id="rect258"
   style="fill:url(#XMLID_32_)" />
	<linearGradient
   id="XMLID_33_"
   gradientUnits="userSpaceOnUse"
   x1="84.5"
   y1="94"
   x2="84.5"
   y2="103">
		<stop
   offset="0"
   style="stop-color:#1C1C1E"
   id="stop261" />
		<stop
   offset="0.1348"
   style="stop-color:#474747"
   id="stop263" />
		<stop
   offset="1"
   style="stop-color:#4F4F4F"
   id="stop265" />
	</linearGradient>
	
	<linearGradient
   id="XMLID_34_"
   gradientUnits="userSpaceOnUse"
   x1="45.5"
   y1="94"
   x2="45.5"
   y2="103">
		<stop
   offset="0"
   style="stop-color:#1C1C1E"
   id="stop270" />
		<stop
   offset="0.1348"
   style="stop-color:#474747"
   id="stop272" />
		<stop
   offset="1"
   style="stop-color:#4F4F4F"
   id="stop274" />
	</linearGradient>
	
	
	<linearGradient
   id="XMLID_35_"
   gradientUnits="userSpaceOnUse"
   x1="44"
   y1="109.5117"
   x2="86"
   y2="109.5117">
		<stop
   offset="0"
   style="stop-color:#767676"
   id="stop281" />
		<stop
   offset="0.1824"
   style="stop-color:#6F6F6F"
   id="stop283" />
		<stop
   offset="1"
   style="stop-color:#515151"
   id="stop285" />
	</linearGradient>
	
	<linearGradient
   id="XMLID_36_"
   gradientUnits="userSpaceOnUse"
   x1="86"
   y1="109.5117"
   x2="116.2041"
   y2="109.5117">
		<stop
   offset="0"
   style="stop-color:#666666"
   id="stop290" />
		<stop
   offset="0.2874"
   style="stop-color:#595959"
   id="stop292" />
		<stop
   offset="1"
   style="stop-color:#3B3B3B"
   id="stop294" />
	</linearGradient>
	
	
	
	
	
	
	
	
	
	
	
	
	
	
	
	
	
	
	
	
	
	
	
	
	
	
	
	
	
	
	
	
	
	
	
	
	
	
	
	
	
	
	
<path
   style="opacity:1;fill:#3a386a;fill-opacity:0.54901960999999999;fill-rule:nonzero;stroke:none;stroke-width:1;stroke-linecap:butt;stroke-linejoin:miter;marker:none;marker-start:none;marker-mid:none;marker-end:none;stroke-miterlimit:4;stroke-dasharray:none;stroke-dashoffset:0;stroke-opacity:0.54411765000000001;visibility:visible;display:inline;overflow:visible;enable-background:accumulate"
   d="M 94.161938,55.903513 C 94.472411,56.336619 94.637006,56.797018 94.637006,57.272825 C 94.637006,59.874802 89.638797,61.967607 83.486897,61.967607 C 79.301334,61.967606 75.639121,61.008703 73.734046,59.564326 C 74.68343,60.854442 76.921056,61.895763 79.79814,62.442675 C 78.994889,63.633663 77.455324,64.454724 75.66226,64.454724 C 74.423195,64.454724 73.322319,64.025503 72.476515,63.392809 C 72.426875,63.324837 72.352803,63.269138 72.308844,63.197193 C 71.34055,63.256241 70.342869,63.281029 69.318715,63.281029 C 62.942225,63.28103 57.461789,62.075858 55.122587,60.374735 C 55.635639,61.165108 56.803882,61.876181 58.420113,62.47062 C 57.69956,63.481155 56.265022,64.175273 54.59163,64.175273 C 53.425132,64.175273 52.378476,63.827004 51.6015,63.281029 C 52.292923,64.341263 53.762247,65.069517 55.485874,65.069517 C 57.418871,65.069517 59.069029,64.160851 59.621754,62.889797 C 62.379907,63.694473 66.107946,64.175274 70.212959,64.175273 C 71.198519,64.175273 72.157155,64.14622 73.091308,64.091437 C 73.954033,64.851482 75.183399,65.348969 76.556504,65.348968 C 78.671973,65.348968 80.441178,64.213933 81.055671,62.666236 C 80.968521,62.654763 80.890133,62.624047 80.804165,62.610345 C 81.926338,62.769612 83.131536,62.861852 84.381142,62.861852 C 90.533042,62.861852 95.53125,60.769046 95.53125,58.167069 C 95.53125,57.353952 95.020109,56.571399 94.161938,55.903513 z M 43.525357,58.27885 C 44.491012,59.762742 47.56256,60.869183 51.349994,61.073363 C 51.468839,60.769781 51.649269,60.493528 51.880952,60.235009 C 51.814717,60.235569 51.7519,60.235009 51.685336,60.235009 C 48.180305,60.23501 45.138331,59.445378 43.525357,58.27885 z M 73.314869,58.698027 C 73.223545,58.76743 73.147843,58.846748 73.063363,58.921588 C 73.238234,59.119255 73.473016,59.296338 73.706101,59.48049 C 73.531417,59.226835 73.387552,58.967131 73.314869,58.698027 z"
   id="path3691" /><path
   style="opacity:1;fill:#c7c6e1;fill-opacity:1;fill-rule:nonzero;stroke:none;stroke-width:1;stroke-linecap:butt;stroke-linejoin:miter;marker:none;marker-start:none;marker-mid:none;marker-end:none;stroke-miterlimit:4;stroke-dasharray:none;stroke-dashoffset:0;stroke-opacity:0.54411765000000001;visibility:visible;display:inline;overflow:visible;enable-background:accumulate"
   d="M 78.161938,46.448972 C 74.136992,46.448972 70.870369,49.203297 70.870369,52.597018 C 70.870369,54.223177 71.628682,55.699915 72.852764,56.799785 C 72.066301,55.818498 71.599526,54.63817 71.599526,53.365524 C 71.599526,49.971802 74.866148,47.217478 78.891094,47.217478 C 80.987419,47.217478 82.869745,47.967249 84.200267,49.162759 C 82.889491,47.527281 80.677528,46.448972 78.161938,46.448972 z"
   id="path5009" /><path
   style="fill:url(#linearGradient4991);fill-opacity:1;fill-rule:nonzero;stroke:none;stroke-width:1;stroke-linecap:butt;stroke-linejoin:miter;marker:none;marker-start:none;marker-mid:none;marker-end:none;stroke-miterlimit:4;stroke-dasharray:none;stroke-dashoffset:0;stroke-opacity:0.54411765000000001;visibility:visible;display:inline;overflow:visible;enable-background:accumulate;opacity:1"
   d="M 76.724175,49.867365 C 73.022004,49.867365 70.017343,51.870472 70.017343,54.338586 C 70.017343,55.459848 70.642178,56.487721 71.666106,57.272825 C 71.189322,56.658505 70.911587,55.971805 70.911587,55.23283 C 70.911587,52.764716 73.916248,50.761609 77.618419,50.761609 C 79.638698,50.761609 81.446554,51.35553 82.676489,52.298591 C 81.560855,50.861135 79.317884,49.867365 76.724175,49.867365 z"
   id="path4983" /><path
   style="opacity:1;fill:url(#radialGradient3790);fill-opacity:1;fill-rule:nonzero;stroke:#d59d00;stroke-width:0.99999988;stroke-linecap:butt;stroke-linejoin:miter;marker:none;marker-start:none;marker-mid:none;marker-end:none;stroke-miterlimit:4;stroke-dasharray:none;stroke-dashoffset:0;stroke-opacity:0.56372549;visibility:visible;display:inline;overflow:visible;enable-background:accumulate"
   d="M 68.94547,37.236246 C 67.302186,36.318888 65.586296,35.623515 63.838583,35.152931 C 70.833411,41.785202 72.594998,52.396273 67.471747,60.976376 C 62.348497,69.556481 51.963769,73.38692 42.526079,70.845794 C 43.821419,72.073991 45.302185,73.163132 46.945468,74.080488 C 57.46248,79.951571 70.926026,76.463397 76.998026,66.294385 C 83.070024,56.125375 79.462482,43.107327 68.94547,37.236246 z"
   id="path3558" /><path
   style="fill:url(#linearGradient4999);fill-opacity:1;fill-rule:nonzero;stroke:none;stroke-width:1;stroke-linecap:butt;stroke-linejoin:miter;marker:none;marker-start:none;marker-mid:none;marker-end:none;stroke-miterlimit:4;stroke-dasharray:none;stroke-dashoffset:0;stroke-opacity:0.54411765000000001;visibility:visible;display:inline;overflow:visible;enable-background:accumulate;opacity:1"
   d="M 63.310511,51.124896 C 61.717132,51.124896 60.29717,51.905161 59.398192,53.081055 C 60.232017,52.430887 61.277787,52.01914 62.416267,52.01914 C 65.131193,52.01914 67.33461,54.222558 67.33461,56.937483 C 67.33461,58.05903 66.961357,59.099925 66.328586,59.927613 C 67.483177,59.02733 68.228855,57.619684 68.228855,56.043239 C 68.228855,53.328313 66.025437,51.124896 63.310511,51.124896 z"
   id="path4981" /><path
   style="fill:#241e9f;fill-opacity:1;fill-rule:nonzero;stroke:none;stroke-width:1;stroke-linecap:butt;stroke-linejoin:miter;marker:none;marker-start:none;marker-mid:none;marker-end:none;stroke-miterlimit:4;stroke-dasharray:none;stroke-dashoffset:0;stroke-opacity:0.54411765000000001;visibility:visible;display:inline;overflow:visible;enable-background:accumulate;opacity:1"
   d="M 89.523046,51.208731 C 88.132237,51.208731 87.007984,52.210285 87.007984,53.444342 C 87.007984,54.215627 87.455545,54.886835 88.12579,55.28872 C 87.97409,55.001289 87.902229,54.676765 87.902229,54.338586 C 87.902229,53.104529 89.026481,52.102975 90.417291,52.102975 C 90.917111,52.102975 91.394691,52.243254 91.786602,52.466262 C 91.377172,51.722683 90.518009,51.208731 89.523046,51.208731 z"
   id="path4979" /><path
   style="fill:url(#linearGradient5074);fill-opacity:1;fill-rule:nonzero;stroke:none;stroke-width:1;stroke-linecap:butt;stroke-linejoin:miter;marker:none;marker-start:none;marker-mid:none;marker-end:none;stroke-miterlimit:4;stroke-dasharray:none;stroke-dashoffset:0;stroke-opacity:0.54411765000000001;visibility:visible;display:inline;overflow:visible;enable-background:accumulate;opacity:1"
   d="M 79.406908,55.371333 C 77.539883,55.371333 75.84462,55.978281 74.62829,56.964205 C 73.960794,56.526822 73.145227,56.265577 72.252954,56.265577 C 70.672726,56.265577 69.306277,57.070698 68.648032,58.249681 C 67.187679,57.563849 65.336037,57.159821 63.310511,57.159821 C 58.621094,57.159821 54.815191,59.363239 54.815191,62.078165 C 54.815191,64.79309 58.621094,66.996508 63.310511,66.996508 C 67.239392,66.996508 70.528555,65.434021 71.498435,63.335696 C 71.74361,63.377228 71.994237,63.419531 72.252954,63.419531 C 72.685151,63.419531 73.092225,63.336183 73.48254,63.223915 C 74.607402,64.925918 76.834367,66.102264 79.406908,66.102264 C 83.109079,66.102264 86.11374,63.698535 86.11374,60.736798 C 86.11374,57.775061 83.109079,55.371333 79.406908,55.371333 z"
   id="path5028" /><path
   style="fill:#ffffff;fill-opacity:1;fill-rule:nonzero;stroke:none;stroke-width:1;stroke-linecap:butt;stroke-linejoin:miter;marker:none;marker-start:none;marker-mid:none;marker-end:none;stroke-miterlimit:4;stroke-dasharray:none;stroke-dashoffset:0;stroke-opacity:0.54411765;visibility:visible;display:inline;overflow:visible;enable-background:accumulate"
   d="M 81.5,-34 C 79.412176,-34 77.516426,-33.321272 76.15625,-32.21875 C 75.409814,-32.707859 74.497796,-33 73.5,-33 C 71.73289,-33 70.204841,-32.099663 69.46875,-30.78125 C 67.835692,-31.548191 65.76507,-32 63.5,-32 C 58.256,-32 54,-29.536 54,-26.5 C 54,-23.464 58.256,-21 63.5,-21 C 67.893521,-21 71.571669,-22.747271 72.65625,-25.09375 C 72.93042,-25.047306 73.210687,-25 73.5,-25 C 73.98331,-25 74.438526,-25.093205 74.875,-25.21875 C 76.132892,-23.315464 78.623223,-22 81.5,-22 C 85.64,-22 89,-24.688 89,-28 C 89,-31.312 85.64,-34 81.5,-34 z"
   id="path5059" /><path
   style="fill:#3a386a;fill-opacity:0.54901960999999999;fill-rule:nonzero;stroke:none;stroke-width:1;stroke-linecap:butt;stroke-linejoin:miter;marker:none;marker-start:none;marker-mid:none;marker-end:none;stroke-miterlimit:4;stroke-dasharray:none;stroke-dashoffset:0;stroke-opacity:0.54411765000000001;visibility:visible;display:inline;overflow:visible;enable-background:accumulate;opacity:1"
   d="M 86.085795,61.295701 C 85.742135,64.000178 82.877694,66.102264 79.406908,66.102264 C 76.834367,66.102264 74.607402,64.925918 73.48254,63.223915 C 73.092225,63.336183 72.685151,63.419531 72.252954,63.419531 C 71.994237,63.419531 71.74361,63.377228 71.498435,63.335696 C 70.528555,65.434021 67.239392,66.996508 63.310511,66.996508 C 58.914183,66.996508 55.306383,65.060281 54.871081,62.581177 C 54.853308,62.710982 54.815191,62.839973 54.815191,62.972409 C 54.815191,65.687334 58.621094,67.890752 63.310511,67.890752 C 67.239392,67.890752 70.528555,66.328265 71.498435,64.22994 C 71.74361,64.271472 71.994237,64.313775 72.252954,64.313775 C 72.685151,64.313775 73.092225,64.230427 73.48254,64.118159 C 74.607402,65.820162 76.834367,66.996508 79.406908,66.996508 C 83.109079,66.996508 86.11374,64.592779 86.11374,61.631042 C 86.11374,61.519793 86.094152,61.405278 86.085795,61.295701 z"
   id="path5061" /><g
   id="g5237"
   transform="translate(0,0.1548843)"><path
     id="path4602"
     d="M 50.8,35.596118 C 50.8,37.167118 52.077,38.445118 53.648,38.445118 C 55.221,38.445118 56.501,37.167118 56.501,35.596118 C 56.501,34.024118 55.222,32.746118 53.648,32.746118 C 52.077,32.746118 50.8,34.025118 50.8,35.596118 z"
     style="fill:#8994a6" /><rect
     style="fill:#ced4c8"
     id="rect80"
     height="2"
     width="2"
     y="88.845116"
     x="13" /><rect
     style="fill:#ced4c8"
     id="rect86"
     height="2"
     width="2"
     y="88.845116"
     x="19" /><rect
     style="fill:#ced4c8"
     id="rect92"
     height="2"
     width="2"
     y="88.845116"
     x="25" /><rect
     style="fill:#ced4c8"
     id="rect96"
     height="2"
     width="2"
     y="88.845116"
     x="105" /><rect
     style="fill:#ced4c8"
     id="rect98"
     height="2"
     width="2"
     y="91.845116"
     x="108" /><rect
     style="fill:#ced4c8"
     id="rect102"
     height="2"
     width="2"
     y="88.845116"
     x="111" /><rect
     style="fill:#ced4c8"
     id="rect104"
     height="2"
     width="2"
     y="91.845116"
     x="114" /><rect
     style="fill:#ced4c8"
     id="rect108"
     height="2"
     width="2"
     y="88.845116"
     x="117" /><rect
     style="fill:#7d8079"
     id="rect118"
     height="2"
     width="2"
     y="87.845116"
     x="18" /><rect
     style="fill:#7d8079"
     id="rect124"
     height="2"
     width="2"
     y="87.845116"
     x="24" /><rect
     style="fill:#7d8079"
     id="rect128"
     height="2"
     width="2"
     y="87.845116"
     x="104" /><rect
     style="fill:#7d8079"
     id="rect130"
     height="2"
     width="2"
     y="90.845116"
     x="107" /><rect
     style="fill:#7d8079"
     id="rect134"
     height="2"
     width="2"
     y="87.845116"
     x="110" /><rect
     style="fill:#7d8079"
     id="rect136"
     height="2"
     width="2"
     y="90.845116"
     x="113" /><rect
     style="fill:#7d8079"
     id="rect140"
     height="2"
     width="2"
     y="87.845116"
     x="116" /><path
     id="path4594"
     d="M 19.799,67.996118 C 19.799,69.567118 21.079,70.845118 22.653,70.845118 C 24.222,70.845118 25.5,69.567118 25.5,67.996118 C 25.5,66.424118 24.223,65.145118 22.653,65.145118 C 21.079,65.145118 19.799,66.424118 19.799,67.996118 z"
     style="fill:#3f577d" /><path
     id="path4600"
     d="M 31.901,43.696118 C 31.901,45.268118 33.179,46.547118 34.752,46.547118 C 36.322,46.547118 37.6,45.268118 37.6,43.696118 C 37.6,42.124118 36.322,40.845118 34.752,40.845118 C 33.18,40.845118 31.901,42.124118 31.901,43.696118 z"
     style="fill:#8c97a6" /><path
     id="path4604"
     d="M 74.602,36.995118 C 74.602,38.567118 75.879,39.845118 77.449,39.845118 C 79.019,39.845118 80.297,38.567118 80.297,36.995118 C 80.297,35.425118 79.02,34.148118 77.449,34.148118 C 75.879,34.148118 74.602,35.425118 74.602,36.995118 z"
     style="fill:#7f90aa" /><path
     id="path4606"
     d="M 16.296,47.096118 C 16.296,48.666118 17.576,49.945118 19.15,49.945118 C 20.72,49.945118 21.998,48.667118 21.998,47.096118 C 21.998,45.525118 20.721,44.245118 19.15,44.245118 C 17.576,44.245118 16.296,45.525118 16.296,47.096118 z"
     style="fill:#3d6fbb" /><path
     id="path4608"
     d="M 99.203,72.595118 C 99.203,74.166118 100.48,75.445118 102.05,75.445118 C 103.622,75.445118 104.902,74.167118 104.902,72.595118 C 104.902,71.024118 103.623,69.746118 102.05,69.746118 C 100.48,69.746118 99.203,71.025118 99.203,72.595118 z"
     style="fill:#3d659e" /><circle
     transform="translate(1,16.845118)"
     id="circle4610"
     r="2.4000001"
     cy="58.450001"
     cx="112.249"
     sodipodi:cx="112.249"
     sodipodi:cy="58.450001"
     sodipodi:rx="2.4000001"
     sodipodi:ry="2.4000001"
     style="fill:#224985" /><path
     id="path4612"
     d="M 108.399,44.096118 C 108.399,45.667118 109.677,46.946118 111.25,46.946118 C 112.82,46.946118 114.099,45.668118 114.099,44.096118 C 114.099,42.524118 112.821,41.246118 111.25,41.246118 C 109.678,41.246118 108.399,42.525118 108.399,44.096118 z"
     style="fill:#5f7393" /><path
     id="path4614"
     d="M 90.901,38.696118 C 90.901,40.268118 92.178,41.547118 93.748,41.547118 C 95.322,41.547118 96.602,40.268118 96.602,38.696118 C 96.602,37.124118 95.322,35.845118 93.748,35.845118 C 92.179,35.845118 90.901,37.124118 90.901,38.696118 z"
     style="fill:#70829d" /><path
     id="path4616"
     d="M 97.55,47.395118 C 97.55,48.718118 98.625,49.795118 99.947,49.795118 C 101.272,49.795118 102.35,48.718118 102.35,47.395118 C 102.35,46.073118 101.272,44.997118 99.947,44.997118 C 98.625,44.997118 97.55,46.073118 97.55,47.395118 z"
     style="fill:#5f789c" /><path
     id="path4618"
     d="M 44.5,43.896118 C 44.5,45.468118 45.779,46.747118 47.352,46.747118 C 48.925,46.747118 50.204,45.468118 50.204,43.896118 C 50.204,42.325118 48.925,41.046118 47.352,41.046118 C 45.779,41.046118 44.5,42.324118 44.5,43.896118 z"
     style="fill:#466899" /><circle
     transform="translate(30,10.845118)"
     id="circle4620"
     r="2.8499999"
     cy="66.553001"
     cx="55.550999"
     sodipodi:cx="55.550999"
     sodipodi:cy="66.553001"
     sodipodi:rx="2.8499999"
     sodipodi:ry="2.8499999"
     style="fill:#2b65bd" /><path
     id="path4622"
     d="M 104.302,57.993118 C 104.302,59.565118 105.579,60.845118 107.15,60.845118 C 108.723,60.845118 110.003,59.566118 110.003,57.993118 C 110.003,56.423118 108.724,55.145118 107.15,55.145118 C 105.579,55.146118 104.302,56.423118 104.302,57.993118 z"
     style="fill:#61779a" /><path
     id="path4624"
     d="M 27.65,54.495118 C 27.65,55.819118 28.725,56.895118 30.047,56.895118 C 31.371,56.895118 32.449,55.818118 32.449,54.495118 C 32.449,53.173118 31.371,52.098118 30.047,52.098118 C 28.726,52.098118 27.65,53.174118 27.65,54.495118 z"
     style="fill:#768499" /><path
     id="path4626"
     d="M 23.351,36.596118 C 23.351,37.919118 24.428,38.996118 25.752,38.996118 C 27.074,38.996118 28.15,37.919118 28.15,36.596118 C 28.15,35.272118 27.074,34.195118 25.752,34.195118 C 24.428,34.196118 23.351,35.273118 23.351,36.596118 z"
     style="fill:#838a97" /><path
     id="path4628"
     d="M 29.65,76.796118 C 29.65,78.119118 30.725,79.194118 32.047,79.194118 C 33.371,79.194118 34.449,78.119118 34.449,76.796118 C 34.449,75.472118 33.371,74.396118 32.047,74.396118 C 30.726,74.396118 29.65,75.472118 29.65,76.796118 z"
     style="fill:#466899" /><path
     id="path4636"
     d="M 24,67.996118 C 24,68.741118 23.395,69.345118 22.653,69.345118 C 21.903,69.345118 21.299,68.741118 21.299,67.996118 C 21.299,67.249118 21.903,66.645118 22.653,66.645118 C 23.395,66.645118 24,67.249118 24,67.996118 z"
     style="fill:#f5f5f4" /><path
     id="path4642"
     d="M 36.1,43.696118 C 36.1,44.443118 35.497,45.047118 34.752,45.047118 C 34,45.047118 33.401,44.443118 33.401,43.696118 C 33.401,42.949118 34,42.345118 34.752,42.345118 C 35.497,42.345118 36.1,42.949118 36.1,43.696118 z"
     style="fill:#f5f5f4" /><path
     id="path4644"
     d="M 55,35.596118 C 55,36.342118 54.396,36.945118 53.647,36.945118 C 52.905,36.945118 52.299,36.341118 52.299,35.596118 C 52.299,34.849118 52.904,34.246118 53.647,34.246118 C 54.396,34.246118 55,34.850118 55,35.596118 z"
     style="fill:#f5f5f4" /><path
     id="path4646"
     d="M 78.796,36.995118 C 78.796,37.741118 78.197,38.345118 77.448,38.345118 C 76.705,38.345118 76.101,37.741118 76.101,36.995118 C 76.101,36.249118 76.705,35.648118 77.448,35.648118 C 78.197,35.648118 78.796,36.249118 78.796,36.995118 z"
     style="fill:#f5f5f4" /><path
     id="path4648"
     d="M 20.498,47.096118 C 20.498,47.842118 19.895,48.445118 19.15,48.445118 C 18.403,48.445118 17.796,47.842118 17.796,47.096118 C 17.796,46.351118 18.403,45.745118 19.15,45.745118 C 19.896,45.745118 20.498,46.351118 20.498,47.096118 z"
     style="fill:#f5f5f4" /><path
     id="path4650"
     d="M 103.401,72.595118 C 103.401,73.342118 102.794,73.945118 102.049,73.945118 C 101.3,73.945118 100.702,73.342118 100.702,72.595118 C 100.702,71.849118 101.3,71.246118 102.049,71.246118 C 102.794,71.246118 103.401,71.849118 103.401,72.595118 z"
     style="fill:#f5f5f4" /><circle
     transform="translate(1,16.845118)"
     id="circle4652"
     r="0.89999998"
     cy="58.450001"
     cx="112.249"
     sodipodi:cx="112.249"
     sodipodi:cy="58.450001"
     sodipodi:rx="0.89999998"
     sodipodi:ry="0.89999998"
     style="fill:#f5f5f4" /><circle
     transform="translate(-1,1.8451178)"
     id="circle4654"
     r="1.35"
     cy="42.250999"
     cx="112.249"
     sodipodi:cx="112.249"
     sodipodi:cy="42.250999"
     sodipodi:rx="1.35"
     sodipodi:ry="1.35"
     style="fill:#f5f5f4" /><path
     id="path4656"
     d="M 95.103,38.696118 C 95.103,39.443118 94.496,40.047118 93.749,40.047118 C 93.007,40.047118 92.402,39.443118 92.402,38.696118 C 92.402,37.949118 93.006,37.345118 93.749,37.345118 C 94.495,37.345118 95.103,37.949118 95.103,38.696118 z"
     style="fill:#f5f5f4" /><path
     id="path4658"
     d="M 100.851,47.395118 C 100.851,47.893118 100.448,48.295118 99.948,48.295118 C 99.456,48.295118 99.051,47.893118 99.051,47.395118 C 99.051,46.898118 99.456,46.497118 99.948,46.497118 C 100.447,46.497118 100.851,46.899118 100.851,47.395118 z"
     style="fill:#f5f5f4" /><path
     id="path4660"
     d="M 48.703,43.896118 C 48.703,44.641118 48.095,45.247118 47.351,45.247118 C 46.604,45.247118 45.999,44.642118 45.999,43.896118 C 45.999,43.148118 46.603,42.546118 47.351,42.546118 C 48.095,42.546118 48.703,43.148118 48.703,43.896118 z"
     style="fill:#f5f5f4" /><path
     id="path4662"
     d="M 86.9,77.398118 C 86.9,78.142118 86.296,78.746118 85.55,78.746118 C 84.802,78.746118 84.2,78.142118 84.2,77.398118 C 84.2,76.650118 84.802,76.046118 85.55,76.046118 C 86.296,76.046118 86.9,76.650118 86.9,77.398118 z"
     style="fill:#f5f5f4" /><path
     id="path4664"
     d="M 108.502,57.993118 C 108.502,58.742118 107.896,59.345118 107.149,59.345118 C 106.402,59.345118 105.801,58.742118 105.801,57.993118 C 105.801,57.248118 106.402,56.645118 107.149,56.645118 C 107.896,56.646118 108.502,57.249118 108.502,57.993118 z"
     style="fill:#f5f5f4" /><path
     id="path4666"
     d="M 30.95,54.495118 C 30.95,54.992118 30.544,55.395118 30.048,55.395118 C 29.552,55.395118 29.151,54.992118 29.151,54.495118 C 29.151,53.999118 29.552,53.598118 30.048,53.598118 C 30.544,53.598118 30.95,53.999118 30.95,54.495118 z"
     style="fill:#f5f5f4" /><path
     id="path4668"
     d="M 26.65,36.596118 C 26.65,37.093118 26.248,37.496118 25.752,37.496118 C 25.25,37.496118 24.851,37.093118 24.851,36.596118 C 24.851,36.098118 25.25,35.695118 25.752,35.695118 C 26.248,35.696118 26.65,36.098118 26.65,36.596118 z"
     style="fill:#f5f5f4" /><circle
     transform="translate(-10,4.8451178)"
     id="circle4670"
     r="0.89999998"
     cy="71.950996"
     cx="42.049999"
     sodipodi:cx="42.049999"
     sodipodi:cy="71.950996"
     sodipodi:rx="0.89999998"
     sodipodi:ry="0.89999998"
     style="fill:#f5f5f4" /><circle
     transform="translate(48,-30.154882)"
     id="circle4811"
     r="2.8499999"
     cy="66.553001"
     cx="55.550999"
     sodipodi:cx="55.550999"
     sodipodi:cy="66.553001"
     sodipodi:rx="2.8499999"
     sodipodi:ry="2.8499999"
     style="fill:#2b65bd" /><path
     id="path4813"
     d="M 104.9,36.398118 C 104.9,37.142118 104.296,37.746118 103.55,37.746118 C 102.802,37.746118 102.2,37.142118 102.2,36.398118 C 102.2,35.650118 102.802,35.046118 103.55,35.046118 C 104.296,35.046118 104.9,35.650118 104.9,36.398118 z"
     style="fill:#f5f5f4" /><circle
     transform="translate(56,-0.1548822)"
     id="circle4963"
     r="2.8499999"
     cy="66.553001"
     cx="55.550999"
     sodipodi:cx="55.550999"
     sodipodi:cy="66.553001"
     sodipodi:rx="2.8499999"
     sodipodi:ry="2.8499999"
     style="fill:#2b65bd" /><path
     id="path4965"
     d="M 112.9,66.398118 C 112.9,67.142118 112.296,67.746118 111.55,67.746118 C 110.802,67.746118 110.2,67.142118 110.2,66.398118 C 110.2,65.650118 110.802,65.046118 111.55,65.046118 C 112.296,65.046118 112.9,65.650118 112.9,66.398118 z"
     style="fill:#f5f5f4" /><circle
     transform="translate(-76,6.8451178)"
     id="circle4973"
     r="2.4000001"
     cy="58.450001"
     cx="112.249"
     sodipodi:cx="112.249"
     sodipodi:cy="58.450001"
     sodipodi:rx="2.4000001"
     sodipodi:ry="2.4000001"
     style="fill:#224985" /><circle
     transform="translate(-76,6.8451178)"
     id="circle4975"
     r="0.89999998"
     cy="58.450001"
     cx="112.249"
     sodipodi:cx="112.249"
     sodipodi:cy="58.450001"
     sodipodi:rx="0.89999998"
     sodipodi:ry="0.89999998"
     style="fill:#f5f5f4" /></g><path
   sodipodi:type="arc"
   style="opacity:1;fill:#ffffff;fill-opacity:1;fill-rule:nonzero;stroke:none;stroke-width:1;stroke-linecap:butt;stroke-linejoin:miter;marker:none;marker-start:none;marker-mid:none;marker-end:none;stroke-miterlimit:4;stroke-dasharray:none;stroke-dashoffset:0;stroke-opacity:0.54411765000000001;visibility:visible;display:inline;overflow:visible;enable-background:accumulate"
   id="path5352"
   sodipodi:cx="73.5"
   sodipodi:cy="68.5"
   sodipodi:rx="7.5"
   sodipodi:ry="4.5"
   d="M 81,68.5 A 7.5,4.5 0 1 1 66,68.5 A 7.5,4.5 0 1 1 81,68.5 z"
   transform="matrix(0.9538606,0,0,0.8942443,1.697081,4.3994092)" /><path
   style="opacity:1;fill:#3a386a;fill-opacity:0.54901961;fill-rule:nonzero;stroke:none;stroke-width:1;stroke-linecap:butt;stroke-linejoin:miter;marker:none;marker-start:none;marker-mid:none;marker-end:none;stroke-miterlimit:4;stroke-dasharray:none;stroke-dashoffset:0;stroke-opacity:0.54411765;visibility:visible;display:inline;overflow:visible;enable-background:accumulate"
   d="M 64.679823,66.130209 C 64.655385,66.265433 64.651878,66.410554 64.651878,66.549386 C 64.651878,68.770689 67.856851,70.573485 71.805832,70.573485 C 75.754814,70.573485 78.959789,68.770689 78.959786,66.549386 C 78.959786,66.410554 78.956279,66.265433 78.931841,66.130209 C 78.521847,68.132872 75.475405,69.679241 71.805832,69.679241 C 68.13626,69.679241 65.089819,68.132872 64.679823,66.130209 z"
   id="path5354" /></svg>