/* XPM */
static char *openofficeorg__writer[] = {
/* columns rows colors chars-per-pixel */
"32 32 165 2",
"   c #000C1C",
".  c #000E21",
"X  c #001123",
"o  c #00162B",
"O  c #02182D",
"+  c #0D1D2E",
"@  c #0B1E32",
"#  c #12202E",
"$  c #0D2136",
"%  c #0E243C",
"&  c #132335",
"*  c #182330",
"=  c #1D2A37",
"-  c #11263C",
";  c #162839",
":  c #1B2B3D",
">  c #0A2740",
",  c #122B43",
"<  c #132E4A",
"1  c #1A3146",
"2  c #13314B",
"3  c #1C354D",
"4  c #1F384F",
"5  c #193652",
"6  c #173853",
"7  c #1B3A55",
"8  c #1B3C59",
"9  c #213549",
"0  c #20384F",
"q  c #2A3A4A",
"w  c #223C56",
"e  c #2D3E50",
"r  c #233F59",
"t  c #1C405D",
"y  c #23425D",
"u  c #2B435B",
"i  c #2E485D",
"p  c #314556",
"a  c #314559",
"s  c #33485E",
"d  c #3B4E5F",
"f  c #1E4463",
"g  c #274866",
"h  c #2B4A64",
"j  c #214A6A",
"k  c #2C4E6E",
"l  c #364C61",
"z  c #2E506E",
"x  c #335068",
"c  c #3B5469",
"v  c #2E5271",
"b  c #325676",
"n  c #355875",
"m  c #385B75",
"M  c #355C7C",
"N  c #395D7D",
"B  c #415265",
"V  c #435A6C",
"C  c #445D72",
"Z  c #485E70",
"A  c #476076",
"S  c #4B6174",
"D  c #44627B",
"F  c #4D667B",
"G  c #5A6670",
"H  c #516778",
"J  c #556A7B",
"K  c #596F7F",
"L  c #3C6384",
"P  c #3F6788",
"I  c #436684",
"U  c #436885",
"Y  c #4B6C85",
"T  c #446B8C",
"R  c #4D6E89",
"E  c #526C83",
"W  c #4C708F",
"Q  c #5D7383",
"!  c #53738D",
"~  c #5C768C",
"^  c #4B7393",
"/  c #527592",
"(  c #567995",
")  c #5D7C96",
"_  c #547C9D",
"`  c #5C7E99",
"'  c #697A86",
"]  c #657989",
"[  c #687C8E",
"{  c #627E97",
"}  c #567FA0",
"|  c #6E8192",
" . c #66839D",
".. c #69859C",
"X. c #738594",
"o. c #748A9D",
"O. c #798C9C",
"+. c #7F919E",
"@. c #5F87AA",
"#. c #6A88A2",
"$. c #628BAC",
"%. c #728DA5",
"&. c #6C90AC",
"*. c #7E93A5",
"=. c #7793AB",
"-. c #7D96AB",
";. c #6C95B6",
":. c #7097B7",
">. c #729ABC",
",. c #78A0C2",
"<. c #84929E",
"1. c #8296A6",
"2. c #8B9AA6",
"3. c #869CAC",
"4. c #8B9CA9",
"5. c #939BA3",
"6. c #909DA8",
"7. c #869FB3",
"8. c #92A1AC",
"9. c #98A3AD",
"0. c #8EA3B3",
"q. c #94A6B3",
"w. c #99A6B0",
"e. c #97A8B5",
"r. c #9CABB7",
"t. c #95AABC",
"y. c #9BADBB",
"u. c #A1ACB5",
"i. c #ABB1B7",
"p. c #A2B1BC",
"a. c #ACB5BC",
"s. c #82ABCC",
"d. c #9BAFC0",
"f. c #9FB3C3",
"g. c #8DB6D8",
"h. c #92BBDC",
"j. c #A4B6C6",
"k. c #A6B9C7",
"l. c #ADB9C3",
"z. c #A7BAC8",
"x. c #B5BDC4",
"c. c #B9C6D1",
"v. c #BFCBD6",
"b. c #B9CBDA",
"n. c #97C0E1",
"m. c #9AC3E4",
"M. c #BFD2E1",
"N. c #AED7F8",
"B. c #C4C8CD",
"V. c #C1CED8",
"C. c #CCD0D4",
"Z. c #CBD3D8",
"A. c #D2D7DB",
"S. c #D4D9DE",
"D. c #DADFE2",
"F. c #DDE0E3",
"G. c #E6E9EC",
"H. c #E9EBEC",
"J. c #EDEFF1",
"K. c #EEF0F2",
"L. c #F2F3F4",
"P. c #F6F7F8",
"I. c #F7F8F9",
"U. c #FEFEFE",
"Y. c None",
/* pixels */
"Y.O o O o o O > f f f f f t 8 8 7 7 7 f f f f j j j j j j j Y.Y.",
"Y.O C *.*.o.1 ' p.r.r.e.q.4.l.S.G.U.H.D.p.l.c.v.M.V.V.V.Y Y.Y.Y.",
"Y.O ! n b h O <.r.p.4.[ 2.J.U.K.a.X.J ~ o.3.t.y.f.f.f.t.j Y.Y.Y.",
"Y.o I m C 6.H.U.U.U.U.I.I.U.i.S S F Q ] X.1.0.y.f.j.j.-.f Y.Y.Y.",
"Y.o m O.K.B.5.8.<.2.9.S.U.<.V S H J K ] | 2.q.3.0.f.f...t Y.Y.Y.",
"Y.o c | i & q S S Z V V H V Z S Q w.S.U.U.L.Z.w.*.0.t.! Y.Y.Y.Y.",
"Y.o y w 4 & p F F F S Z V V Z u.U.U.P.a.] C F ~ o.-.0.Y Y.Y.Y.Y.",
"Y.X y 7 5 ; s F F S C V c S F.U.U.u.V c V A E ~ ..#.=.I Y.Y.Y.Y.",
"Y.X 7 5 1 ; d 2.u.x.l.9.| D.U.L.] s c A F ! ! (  .#.#.I Y.Y.Y.Y.",
"Y.o 1 , B a.I.U.U.U.U.U.U.U.I.J i x D F ! ! (  .(  . .Y Y.Y.Y.Y.",
"Y.. 1 6.U.U.U.U.A.x.B.F.U.U.O.y x D I W W W / / ^ ^ / ! t Y.Y.Y.",
"Y.# C.P.i.G = 9 0 0 5 4 d ] u x m N T Y T W T T T W T / 8 Y.Y.Y.",
"Y.B.5.: + &   y y y y y y y h v N L P P P P P P P L P / f Y.Y.Y.",
"Y.* @ @ $ - + g b x v z h h z v M M N N M M L M L L L P z Y.Y.Y.",
"Y.  % - , , q 2 N L M b z k k z k v v z v v v v k b N L R 8 Y.Y.",
"Y.X , , < < l @ L L L b z.z.j.j.k.z.k.k.z.z.f.k.k.k.b L ! 8 Y.Y.",
"Y.X < 5 < 2 r @ M L L b z.z.z.k.k.k.z.z.k.z.z.k.z.z.b L P j Y.Y.",
"Y.X < 2 2 2 2 e 8 L L M b v k v v k k v k v v k v b M L P L Y.Y.",
"Y.o < 2 2 2 2 a > L L L L v b b b b v b b b b b L L L L L W 6 Y.",
"Y.. < < 5 2 < u O L L L b v k k k k v v v v b L L L L L L W 6 Y.",
"Y.. 5 2 < < 5 w o L L b l.z.z.z.z.z.z.z.z.z.z.M L P L P P T 7 Y.",
"Y.. 5 5 5 5 5 5 @ M L b k.k.z.z.z.z.z.k.z.z.z.b L L P P L P y Y.",
"Y.. 8 8 5 8 8 8 & b L L M b v v v v v v v v M L L P P P P P h Y.",
"Y.. y y g y y y & N ^ T T L L L L L L L L L P P P P ^ ^ ^ ^ h Y.",
"Y.. g g g g g g & U _ / T P P L L L L L L L L P P ^ ^ _ @.@.t Y.",
"Y.. k k k k z z + ( @._ b.b.b.b.b.b.b.M.b.b.b.b.b.b.@.@.@.@.y Y.",
"Y.. b b b b b b X :.;.@.M.M.M.M.V.V.M.M.V.M.M.M.M.M.@.>.>.>.6 Y.",
"Y.  N N N N N z ; s.,.,.;.$.@.@.$.$.@.@.@.@.@.@.$.;.,.,.s.:.2 Y.",
"Y.  N L L L L h p m.m.n.h.g.g.g.g.g.g.g.g.g.g.g.g.h.n.m.m.&., Y.",
"Y.  r U U U U 9  .N.N.N.N.N.N.N.N.N.N.N.N.N.N.N.N.N.N.N.N.W Y.Y.",
"Y.          .   , 2 2 2 2 2 2 2 2 2 2 2 2 2 2 2 2 2 2 2 2 2 Y.Y.",
"Y.Y.Y.Y.Y.Y.Y.Y.Y.Y.Y.Y.Y.Y.Y.Y.Y.Y.Y.Y.Y.Y.Y.Y.Y.Y.Y.Y.Y.Y.Y.Y."
};
