/* XPM */
static char *openofficeorg__base[] = {
/* columns rows colors chars-per-pixel */
"32 32 256 2",
"   c #190000",
".  c #160102",
"X  c #000C1C",
"o  c #230005",
"O  c #3A0016",
"+  c #340419",
"@  c #380818",
"#  c #2E0415",
"$  c #010F21",
"%  c #0E0E22",
"&  c #130F24",
"*  c #001124",
"=  c #00162B",
"-  c #00182E",
";  c #0D1D2E",
":  c #081628",
">  c #0C1E32",
",  c #1A1326",
"<  c #220B22",
"1  c #380A22",
"2  c #250F32",
"3  c #3D1F35",
"4  c #3E1729",
"5  c #12202E",
"6  c #0E233A",
"7  c #132335",
"8  c #162839",
"9  c #172738",
"0  c #21202D",
"q  c #2F2333",
"w  c #3B2437",
"e  c #450013",
"r  c #4D0015",
"t  c #43011C",
"y  c #4D0219",
"u  c #430D1D",
"i  c #500017",
"p  c #54041C",
"a  c #5C001C",
"s  c #54091E",
"d  c #40101C",
"f  c #63011F",
"g  c #4B0722",
"h  c #5C0D23",
"j  c #520029",
"k  c #5C0D2D",
"l  c #540626",
"z  c #471529",
"x  c #5A182B",
"c  c #5B0035",
"v  c #570035",
"b  c #581E34",
"n  c #650121",
"m  c #6B0223",
"M  c #630B25",
"N  c #690B28",
"B  c #730B2C",
"V  c #740528",
"C  c #641229",
"Z  c #6D102C",
"A  c #611B2E",
"S  c #611227",
"D  c #72122F",
"F  c #64003A",
"G  c #6B003D",
"H  c #7F0D32",
"J  c #661C33",
"K  c #6C1B33",
"L  c #6C1E3C",
"P  c #741331",
"I  c #7B1535",
"U  c #731C39",
"Y  c #7B1D3D",
"T  c #791A37",
"R  c #42202F",
"E  c #4C2236",
"W  c #49283A",
"Q  c #58273B",
"!  c #672135",
"~  c #682034",
"^  c #6B273A",
"/  c #67283C",
"(  c #72263C",
")  c #122A43",
"_  c #132E4A",
"`  c #1A3146",
"'  c #14304C",
"]  c #1B344D",
"[  c #193652",
"{  c #1D3B57",
"}  c #223C56",
"|  c #2D3E50",
" . c #233E5A",
".. c #213549",
"X. c #730041",
"o. c #522E41",
"O. c #582F44",
"+. c #4C3143",
"@. c #4C3748",
"#. c #523346",
"$. c #5C3447",
"%. c #543648",
"&. c #5E3449",
"*. c #533C4D",
"=. c #593E4F",
"-. c #632B41",
";. c #7A204A",
":. c #792442",
">. c #613349",
",. c #733144",
"<. c #7D3146",
"1. c #74324C",
"2. c #7A3649",
"3. c #7A394B",
"4. c #7F2551",
"5. c #663E51",
"6. c #713A51",
"7. c #22415F",
"8. c #2C445C",
"9. c #314559",
"0. c #274866",
"q. c #2D4E6D",
"w. c #2F4963",
"e. c #354B60",
"r. c #2F506D",
"t. c #325675",
"y. c #385B75",
"u. c #385D7D",
"i. c #365979",
"p. c #5E4354",
"a. c #694759",
"s. c #684859",
"d. c #754357",
"f. c #42576A",
"g. c #405E75",
"h. c #7A4F64",
"j. c #6D5564",
"k. c #745566",
"l. c #7C5F6D",
"z. c #5A6670",
"x. c #74606C",
"c. c #7A6170",
"v. c #831136",
"b. c #89193D",
"n. c #8A1E41",
"m. c #872040",
"M. c #8A2D4B",
"N. c #942246",
"B. c #9B2A4E",
"V. c #97294B",
"C. c #84374C",
"Z. c #91304D",
"A. c #862757",
"S. c #9E2E52",
"D. c #853B52",
"F. c #953451",
"G. c #9A3553",
"H. c #9D3D5A",
"J. c #983A57",
"K. c #A33C5B",
"L. c #A8395C",
"P. c #A63157",
"I. c #933F66",
"U. c #AD3E60",
"Y. c #B43E64",
"T. c #8D455A",
"R. c #8A4B5D",
"E. c #854258",
"W. c #96465E",
"Q. c #8C4D60",
"!. c #9C4C69",
"~. c #835B6C",
"^. c #8D5469",
"/. c #915265",
"(. c #9A576D",
"). c #9B5B6E",
"_. c #9A5E73",
"`. c #945F73",
"'. c #AD4463",
"]. c #B24466",
"[. c #B54869",
"{. c #BC496E",
"}. c #B9466B",
"|. c #BE4D71",
" X c #A35A73",
".X c #A95D75",
"XX c #A55671",
"oX c #866778",
"OX c #946B7D",
"+X c #8D707F",
"@X c #AC647B",
"#X c #A66C7E",
"$X c #AB697E",
"%X c #A46277",
"&X c #C24C72",
"*X c #C65176",
"=X c #CA5379",
"-X c #3D6384",
";X c #416887",
":X c #416580",
">X c #56738C",
",X c #976E80",
"<X c #887B86",
"1X c #9C7486",
"2X c #957482",
"3X c #AF6B81",
"4X c #B06C83",
"5X c #AB7183",
"6X c #A5798A",
"7X c #B37B8D",
"8X c #B77589",
"9X c #B97F92",
"0X c #B07F91",
"qX c #6D8092",
"wX c #788D9E",
"eX c #7D92A4",
"rX c #91858F",
"tX c #9C8993",
"yX c #989199",
"uX c #AE8091",
"iX c #A48794",
"pX c #BC8194",
"aX c #BD8698",
"sX c #BE889A",
"dX c #B68092",
"fX c #AB929D",
"gX c #929CA5",
"hX c #A797A0",
"jX c #AC9BA5",
"kX c #B4A5AD",
"lX c #BCACB3",
"zX c #ADB3B8",
"xX c #AAA0A8",
"cX c #C28C9D",
"vX c #C5889B",
"bX c #C88FA1",
"nX c #C791A3",
"mX c #CA92A4",
"MX c #CE97A9",
"NX c #D59EB0",
"BX c #D59BAD",
"VX c #D9A3B5",
"CX c #DDA7B8",
"ZX c #C6BCC1",
"AX c #C8C6CB",
"SX c #D2C7CE",
"DX c #D6CED2",
"FX c #CCD0D4",
"GX c #DDD7DA",
"HX c #DBD5D9",
"JX c #EDEAEC",
"KX c #E5E0E3",
"LX c #F1EEF0",
"PX c #F4F4F5",
"IX c #FEFEFE",
"UX c None",
/* pixels */
"UX- - = - = = 2 G G G G F F c v v v c c G X.X.X.X.X.X.X.X.X.UXUX",
"UX- g.eXeXwX] s.,XOXOXOXoXoXjXSXKXIXJXSX6X6X0X7X9XpX9X9XA.UXUXUX",
"UX- >Xi.t.q.: ~.tXiX2Xd.OXJXIXJXjXc.&.5.d./.(. X.X X.XXXX.UXUXUX",
"UX= :Xy.y.gXJXIXIXIXIXPXIXIXjX*.*.*.s.a.h.~.`.%X3X3X3X!.G UXUXUX",
"UX= y.wXPXAXyXrX<XrXyXDXIX<X@.*.=.p.s.s.k.2X1X`.OX3X3X!.c UXUXUX",
"UX: r.qX8.7 q %.%.#.#.+.p.+.#.%.a.tXDXIXIXLXSX6X/._. XA.UXUXUXUX",
"UX= 7.} [ 8 w &.>.O.$.#.+.W #.fXIXIXPXkXj.O.>.6.D.!.!.4.UXUXUXUX",
"UX= 7.} [ 8 R -.-.Q Q Q E &.GXIXIXhXo.E E Q -.1.D.J.H.;.UXUXUXUX",
"UX* { ] ] 8 W 2XfXlXkXiXc.GXIXJXj.4 z Q b / ( <.M.M.M.;.UXUXUXUX",
"UX= ' ) e.zXIXIXIXIXIXIXIXIXIXp.1 z x x K K U T Y n.b.;.UXUXUXUX",
"UX* ` gXIXIXIXIXDXlXZXGXIXIXc.@ @ g l h M N Z Z D P I ;.j UXUXUX",
"UX5 FXPXzXz.0 @ + @ + # R x.W s.~.uXsX0X5X(.D.K n N B :.j UXUXUX",
"UXAXgX8 ; 8 X t t t O @ o.j.c.1XuXsXcXcXcXcXbX7XT.N n I j UXUXUX",
"UX7 ; 6 6 6 ; t p p y d.,X~.d./ A y y s A ,.Q.5XvXQ.f m k UXUXUX",
"UXX 8 6 ) ) | 1 n n a uX6Xb e e r r r r r e e / sX9Xf n L g UXUX",
"UX* ) ) ) ' e.& m n a sXvX#XR.( A y y s A ,.R.5XcXaXa n U t UXUX",
"UX* _ ' ' '  .> f f a sXR.dXcXcXcXcXcXcXcXcXcX5XE.pXa f B l UXUX",
"UX* ' ' ' _ _ | u f a aX! x 3./.#XcXcXdX#X/.3.x ~ dXf f m K UXUX",
"UX* _ ' ' ' ' 8.< f a vX! r r r r i r r i r r r ~ dXa f m L O UX",
"UX$ ' ' ' ' ' 8.& f a sXR.! r i i i i i r r r ( Q.pXf f m T O UX",
"UX$ [ ' ' ' '  .* m n sXcX#X/.,.~ p y h ~ 2./.#XcXdXf m V H O UX",
"UX$ [ [ [ [ [ [ ; M M nX2.vXnXnXbXbXbXbXbXbXnX7X2.vXM N H v.@ UX",
"UX$ { { { { { [ 7 k N nX( ~ E.).5XnXnXaX5X_.E.~ ( vXN H v.b.u UX",
"UX$ 7.7.7.7.7.0.9 C D mXT.S s h S S S M h h h h T.cXD v.b.b.u UX",
"UX$ 0.0.0.0.0.0.7 K I MXmX<.M S C C C C S S S C.MXbXT b.n.N.u UX",
"UX$ q.q.q.q.q.q.5 :.m.$XNXpX.XT.C.K K U C.T.%XvXBX@Xm.N.V.B.@ UX",
"UX$ t.t.t.t.i.t.* B.Z.Z.@XmXCXCXNXVXVXVXVXVXVXbX@XZ.V.P.P.P.o UX",
"UXX u.u.-Xi.-Xq., L.L.P.G.W..X8XvXCXCXBXvX8X.XW.F.P.K.L.].P.o UX",
"UXX u.-X-X-X-Xw.w {.}.].U.K.H.J.G.G.G.G.J.G.K.K.L.].}.&X&XC.  UX",
"UXX  .;X-X-X;X] 1.=X=X&X|.{.[.].].'.'.'.'.].[.{.*X*X*X=X=XA UXUX",
"UXX X X X X X X .                   .                       UXUX",
"UXUXUXUXUXUXUXUXUXUXUXUXUXUXUXUXUXUXUXUXUXUXUXUXUXUXUXUXUXUXUXUX"
};
