/* XPM */
static char *openofficeorg__math[] = {
/* columns rows colors chars-per-pixel */
"32 32 181 2",
"   c #000C1C",
".  c #05111F",
"X  c #000E21",
"o  c #011124",
"O  c #00162B",
"+  c #00182E",
"@  c #0C1C2E",
"#  c #0C1E32",
"$  c #12202E",
"%  c #0D2136",
"&  c #0E243C",
"*  c #132335",
"=  c #182330",
"-  c #11263C",
";  c #162839",
":  c #1B2B3D",
">  c #26323F",
",  c #0A2740",
"<  c #112B43",
"1  c #132E4A",
"2  c #1A3146",
"3  c #13314B",
"4  c #1B344D",
"5  c #193652",
"6  c #173853",
"7  c #1B3B56",
"8  c #1B3C59",
"9  c #213549",
"0  c #223C56",
"q  c #2D3E50",
"w  c #233E5A",
"e  c #1C405C",
"r  c #22415F",
"t  c #2C445C",
"y  c #344556",
"u  c #314559",
"i  c #1E4463",
"p  c #274866",
"a  c #2C4963",
"s  c #214A6B",
"d  c #2D4F6D",
"f  c #354B60",
"g  c #2F506D",
"h  c #375067",
"j  c #35536B",
"k  c #3A536B",
"l  c #325675",
"z  c #385A75",
"x  c #365979",
"c  c #385D7D",
"v  c #425364",
"b  c #415569",
"n  c #44596C",
"m  c #445D73",
"M  c #476074",
"N  c #4D6175",
"B  c #546574",
"V  c #5A6670",
"C  c #51677A",
"Z  c #566C7D",
"A  c #586E7E",
"S  c #3D6384",
"D  c #416580",
"F  c #416887",
"G  c #4D6982",
"H  c #556D81",
"J  c #586E81",
"K  c #4F708A",
"L  c #5D7384",
"P  c #56748D",
"I  c #5B758B",
"U  c #5D798B",
"Y  c #597790",
"T  c #5E7C97",
"R  c #617686",
"E  c #617789",
"W  c #647A8B",
"Q  c #687E8F",
"!  c #637D93",
"~  c #617F9B",
"^  c #6D8293",
"/  c #63819C",
"(  c #6E879E",
")  c #738695",
"_  c #708799",
"`  c #758B9C",
"'  c #7B8E9D",
"]  c #7D919D",
"[  c #6986A1",
"{  c #6B89A5",
"}  c #708BA2",
"|  c #708DA8",
" . c #7D92A4",
".. c #7491AB",
"X. c #7A94AB",
"o. c #7596B4",
"O. c #7B97B0",
"+. c #7D98B0",
"@. c #8296A3",
"#. c #879AA7",
"$. c #8898A5",
"%. c #8097AB",
"&. c #8698A9",
"*. c #8C9EAB",
"=. c #939CA4",
"-. c #989FA5",
";. c #909EA8",
":. c #849DB4",
">. c #8B9FB0",
",. c #8AA2B5",
"<. c #86A1B8",
"1. c #8CA5BC",
"2. c #8EA8BD",
"3. c #93A4B2",
"4. c #99A6B0",
"5. c #9CAAB5",
"6. c #94AABD",
"7. c #9FAFBA",
"8. c #A1ADB7",
"9. c #ABB1B7",
"0. c #A3B2BD",
"q. c #ACB4BC",
"w. c #8BA7C0",
"e. c #8DABC5",
"r. c #93ACC2",
"t. c #9BAFC2",
"y. c #97B1C6",
"u. c #9CB2C4",
"i. c #93B0CA",
"p. c #9CB5CA",
"a. c #9FB8CD",
"s. c #9DB9D1",
"d. c #A0B3C3",
"f. c #A7B8C6",
"g. c #ACBAC4",
"h. c #A0B7CB",
"j. c #A3BACD",
"k. c #ACBDCB",
"l. c #B3BDC5",
"z. c #B4BFC8",
"x. c #A6BDD1",
"c. c #A9BFD1",
"v. c #AFC0CF",
"b. c #B4C1CB",
"n. c #BCC4CC",
"m. c #ACC1D2",
"M. c #ABC5DA",
"N. c #B3C4D2",
"B. c #B5C8D7",
"V. c #BAC9D5",
"C. c #BACCDB",
"Z. c #AECAE2",
"A. c #B3CDE3",
"S. c #BDD6EB",
"D. c #C3C8CD",
"F. c #C3CCD3",
"G. c #C1CED8",
"H. c #CCD0D5",
"J. c #C4D1DD",
"K. c #C6D5E1",
"L. c #C9D6E1",
"P. c #CDDAE3",
"I. c #D2DCE6",
"U. c #D8DDE1",
"Y. c #D3DEE8",
"T. c #C6DFF4",
"R. c #DDE1E6",
"E. c #D6E2EA",
"W. c #DAE5ED",
"Q. c #C7E0F5",
"!. c #C8E1F6",
"~. c #D6EFFF",
"^. c #E0E4E7",
"/. c #E1E5E8",
"(. c #E9ECEE",
"). c #EFF2F3",
"_. c #E1FAFF",
"`. c #F2F3F5",
"'. c #F7F8F9",
"]. c #FEFEFE",
"[. c None",
/* pixels */
"[.+ + + O O O , i i i i i e 7 7 7 7 7 i i i i i s s s s s s [.[.",
"[.+ m  . .` 9 ) b.z.k.g.d.5.b.U.(.].).U.b.G.Y.E.W.W.W.W.P [.[.[.",
"[.+ P x l a @ 3.g.b.7.@.5.).].`.l.@.^ ' 3.g.B.J.K.K.K.C.s [.[.[.",
"[.O D z m =.(.].].].].'.].].g.L L E ^ ' #.0.v.V.K.K.P.r.i [.[.[.",
"[.O z ` ).D.-.5.;.4.8.U.].$.A R Q ^ ) ` #.0.g.f.V.J.J.X.8 [.[.[.",
"[.O k ^ t * y E E L L Z W A R W ) q.U.].].'.U.l.f.G.J./ [.[.[.[.",
"[.O r 0 4 * n ) ) ^ Q R R A E g.'.].'.n.' W _ #.0.N.C.Y [.[.[.[.",
"[.O 0 0 7 ; N ] ` ) ^ W R Q ^.].].q.L L E ^  .,.d.m.B.P [.[.[.[.",
"[.O 7 4 2 ; B 0.l.F.D.0.$.^.].`.' H E _ %.>.5.d.m.v.m.U [.[.[.[.",
"[.o 4 < v 9.].].].].].].].].].Q H Q  .:.6.u.h.j.m.m.v./ [.[.[.[.",
"[.X 2 =.].].].].U.F.H./.].].*.H Q X.2.t.h.j.x.j.j.m.j.X.e [.[.[.",
"[.$ H.`.9.V 9 m m M m n C @.m I ( :.:.1.2.2.w.w.w.y.a.<.e [.[.[.",
"[.D.=.: @ ;   L I I H m j k m G P ~ ~ ~ / ~ / ~ / O.y.j.i [.[.[.",
"[.= # # % & $ W X. .! W &.&.3.u.f.k.k.k.m.k.N.k.v./ <.p.z [.[.[.",
"[.  & - < < q b 6.2...T k.G.K.P.I.Y.Y.Y.Y.Y.I.I.E./ <.p.{ 7 [.[.",
"[.o < < < 1 f < p.a.6.[ } L.Y.I.:.X.X.O.X.X.X.X.../ 2.p.y.7 [.[.",
"[.o 1 1 3 3 w # <.p.y.1./ X.P.Y.J.[ ~ { | X.| ..o.1.u.p.x.d [.[.",
"[.o 1 1 3 1 1 q L p.a.y.<./ <.I.Y.N.~ O.r.y.u.u.u.p.p.p.p.T [.[.",
"[.O 3 5 3 3 1 u u p.p.a.p.+./ v.Y.Y.:.~ e.p.p.p.p.p.p.p.p.%.6 [.",
"[.X 1 1 5 3 1 a * p.p.p.a.r./ ( Y.Y.L.[ :.p.p.p.p.p.p.s.p.r.6 [.",
"[.X 5 3 1 3 3 0 o p.p.p.i.<./ y.Y.Y.d.~ r.p.p.s.p.p.p.p.p.j.7 [.",
"[.X 5 5 5 5 5 7 @ ,.p.p.<./ <.I.Y.z.~ | r.y.u.u.i.p.p.p.p.p.a [.",
"[.X 8 8 8 8 7 8 * %.p.<.[ ..P.Y.K.[ ~ [ | o.| | +.e.p.a.a.a.j [.",
"[.X r r w w p r * %.p.{ | K.E.E.r.O.:.O.+.+.:.O.X.{ i.x.x.m.j [.",
"[.X p p p p p p * &.w...K.W.W.W.W.W.W.W.W.W.W.W.W.{ i.M.M.M.j [.",
"[.X d g g d d d $ 6.i.1.C.C.C.C.C.C.C.C.C.C.C.C.C...s.A.A.A.a [.",
"[.  l l l l x l o A.M.w.o.o.o.o.o.o.o.o.o.o.o.o.o.i.A.S.S.S.3 [.",
"[.  c c S x S d : !.!.S.A.Z.Z.Z.Z.Z.Z.Z.Z.Z.Z.Z.A.S.!.!.Q.M.3 [.",
"[.  c S S S S a v ~.~.~.~.~.~.~.~.~.~.~.~.~.~.~.~.~.~.~.~.1.< [.",
"[.  w F S S F 4 ] _._._._._._._._._._._._._._._._._._._._.U [.[.",
"[.              < 3 3 3 3 3 3 3 3 3 3 3 3 3 3 3 3 3 3 3 3 3 [.[.",
"[.[.[.[.[.[.[.[.[.[.[.[.[.[.[.[.[.[.[.[.[.[.[.[.[.[.[.[.[.[.[.[."
};
